<svg xmlns="http://www.w3.org/2000/svg" viewBox="0 0 24 24">
  <title>outlined-social-person</title>
  <g>
    <g style="opacity: 0">
      <rect width="24" height="24"/>
    </g>
    <g>
      <g style="opacity: 0">
        <path d="M12,21.5A9.5,9.5,0,1,1,21.5,12,9.51,9.51,0,0,1,12,21.5Zm0-18A8.5,8.5,0,1,0,20.5,12,8.51,8.51,0,0,0,12,3.5Z"/>
      </g>
      <g>
        <path d="M11.75,11.76a4.13,4.13,0,1,1,4.13-4.13A4.13,4.13,0,0,1,11.75,11.76Zm0-7.26a3.13,3.13,0,1,0,3.13,3.13A3.14,3.14,0,0,0,11.75,4.5Z"/>
        <path d="M5,18.5a.5.5,0,0,1-.5-.5,7.26,7.26,0,0,1,7.25-7.26h0A7.27,7.27,0,0,1,19,18a.51.51,0,0,1-.5.5A.5.5,0,0,1,18,18a6.27,6.27,0,0,0-6.26-6.26h0A6.27,6.27,0,0,0,5.5,18,.5.5,0,0,1,5,18.5Z"/>
      </g>
    </g>
  </g>
</svg>
