<svg xmlns="http://www.w3.org/2000/svg" viewBox="0 0 24 24">
  <title>outlined-social-birthday</title>
  <g>
    <g style="opacity: 0">
      <rect width="24" height="24"/>
    </g>
    <g>
      <g style="opacity: 0">
        <path d="M12,21.5A9.5,9.5,0,1,1,21.5,12,9.51,9.51,0,0,1,12,21.5Zm0-18A8.5,8.5,0,1,0,20.5,12,8.51,8.51,0,0,0,12,3.5Z"/>
      </g>
      <g>
        <path d="M3.06,21.51a.5.5,0,1,1,0-1l17.88,0h0a.51.51,0,0,1,.5.5.5.5,0,0,1-.5.5l-17.87,0Z"/>
        <g>
          <path d="M20,21.2a.5.5,0,0,1-.5-.5V17.34a.5.5,0,0,1,.5-.5.5.5,0,0,1,.5.5V20.7A.5.5,0,0,1,20,21.2Z"/>
          <path d="M4.11,21.2a.5.5,0,0,1-.5-.5V17.34a.5.5,0,1,1,1,0V20.7A.5.5,0,0,1,4.11,21.2Z"/>
          <path d="M9.64,18.44a2.06,2.06,0,0,1-2.05-2.07V14.51a.39.39,0,0,0-.11-.27.38.38,0,0,0-.53,0,.35.35,0,0,0-.11.27v.85a2.16,2.16,0,0,1-.63,1.54,2.12,2.12,0,0,1-1.53.65A2.17,2.17,0,0,1,2.5,15.37v-2a2,2,0,0,1,2-2h15a2,2,0,0,1,2,2l0,2.43a2,2,0,0,1-.59,1.47,2,2,0,0,1-1.47.63,2.08,2.08,0,0,1-2.09-2.09V14.52a.37.37,0,0,0-.37-.38.38.38,0,0,0-.39.38v.39a2,2,0,1,1-4.08,0v-.39a.37.37,0,0,0-.11-.27.46.46,0,0,0-.6,0,.4.4,0,0,0-.11.27v1.87A2.06,2.06,0,0,1,9.64,18.44ZM7.21,13.13a1.34,1.34,0,0,1,1,.41,1.37,1.37,0,0,1,.4,1v1.87a1,1,0,1,0,2.09,0V14.52a1.38,1.38,0,0,1,1.38-1.39,1.41,1.41,0,0,1,1,.41,1.38,1.38,0,0,1,.4,1v.39a1.06,1.06,0,0,0,1,1.06,1,1,0,0,0,.74-.31,1.09,1.09,0,0,0,.3-.75v-.39a1.38,1.38,0,1,1,2.76,0v1.22a1.06,1.06,0,0,0,.32.77,1,1,0,0,0,.76.32,1.07,1.07,0,0,0,.76-.32,1.11,1.11,0,0,0,.31-.77l0-2.44a1,1,0,0,0-1-1h-15a1,1,0,0,0-1,1v2a1.17,1.17,0,0,0,.34.83,1.13,1.13,0,0,0,.83.35,1.18,1.18,0,0,0,1.17-1.18v-.86A1.37,1.37,0,0,1,7.21,13.13Z"/>
          <path d="M12.92,12.32H11.08a.5.5,0,0,1-.5-.5v-4a.5.5,0,0,1,.5-.5h1.84a.5.5,0,0,1,.5.5v4A.5.5,0,0,1,12.92,12.32Zm-1.34-1h.84v-3h-.84Z"/>
          <path d="M12.1,7.14h-.2a1.11,1.11,0,0,1-.33,0,1.59,1.59,0,0,1-1-.67,1.64,1.64,0,0,1-.24-1.2l0-.09a13.72,13.72,0,0,1,1.24-2.41A.5.5,0,0,1,12,2.5h0a.5.5,0,0,1,.42.23,14.69,14.69,0,0,1,1.27,2.5.32.32,0,0,1,0,.14,1.93,1.93,0,0,1,0,.34A1.63,1.63,0,0,1,12.1,7.14Zm-.18-1A.75.75,0,0,0,12.49,6a.66.66,0,0,0,.23-.42.2.2,0,0,0,0-.07A14.6,14.6,0,0,0,12,4a12,12,0,0,0-.71,1.49.55.55,0,0,0,.1.41.56.56,0,0,0,.38.25A.26.26,0,0,0,11.92,6.13Z"/>
          <path d="M18.1,12.32H16.27a.5.5,0,0,1-.5-.5V8.52a.5.5,0,0,1,.5-.5H18.1a.5.5,0,0,1,.5.5v3.3A.5.5,0,0,1,18.1,12.32Zm-1.33-1h.83V9h-.83Z"/>
          <path d="M17.28,7.83l-.2,0a.75.75,0,0,1-.32,0A1.6,1.6,0,0,1,15.5,5.92a.29.29,0,0,1,0-.09,13.81,13.81,0,0,1,1.24-2.42.5.5,0,0,1,.42-.23h0a.5.5,0,0,1,.42.23,14,14,0,0,1,1.27,2.5.74.74,0,0,1,0,.14,2,2,0,0,1,0,.35A1.64,1.64,0,0,1,17.28,7.83Zm-.17-1a.67.67,0,0,0,.8-.55V6.2a12.74,12.74,0,0,0-.73-1.54,13.55,13.55,0,0,0-.71,1.49.6.6,0,0,0,.48.66Z"/>
          <path d="M7.71,12.32H5.87a.5.5,0,0,1-.5-.5V8.52a.51.51,0,0,1,.5-.5H7.71a.51.51,0,0,1,.5.5v3.3A.5.5,0,0,1,7.71,12.32Zm-1.34-1h.84V9H6.37Z"/>
          <path d="M6.89,7.83l-.2,0a.75.75,0,0,1-.32,0A1.61,1.61,0,0,1,5.1,5.92l0-.09A13.81,13.81,0,0,1,6.37,3.41a.5.5,0,0,1,.42-.23h0a.5.5,0,0,1,.42.23,14.69,14.69,0,0,1,1.27,2.5.35.35,0,0,1,0,.14,1.93,1.93,0,0,1,0,.34,1.66,1.66,0,0,1-.62,1.09A1.6,1.6,0,0,1,6.89,7.83Zm-.17-1a.7.7,0,0,0,.55-.13.59.59,0,0,0,.24-.42.17.17,0,0,0,0-.07,14.45,14.45,0,0,0-.73-1.54,12,12,0,0,0-.71,1.49.6.6,0,0,0,.48.66Z"/>
        </g>
      </g>
    </g>
  </g>
</svg>
