<svg xmlns="http://www.w3.org/2000/svg" viewBox="0 0 24 24"><path d="M5.9 11.5a2 2 0 1 1 2-2 2 2 0 0 1-2 2zm0-3a1 1 0 1 0 1 1 1 1 0 0 0-1-1z"/><path d="M3 14.1a.5.5 0 0 1-.47-.53 3.27 3.27 0 0 1 3.39-3.07 3.55 3.55 0 0 1 2.54 1.05.5.5 0 1 1-.72.7 2.41 2.41 0 0 0-1.83-.75 2.29 2.29 0 0 0-2.41 2.13.5.5 0 0 1-.5.47zm15.1-2.6a2 2 0 1 1 2-2 2 2 0 0 1-2 2zm0-3a1 1 0 1 0 1 1 1 1 0 0 0-1-1z"/><path d="M21 14.1a.5.5 0 0 1-.5-.47 2.29 2.29 0 0 0-2.38-2.13 2.44 2.44 0 0 0-1.86.75.5.5 0 0 1-.72-.7 3.44 3.44 0 0 1 2.57-1.05 3.26 3.26 0 0 1 3.39 3.07.5.5 0 0 1-.47.53zm-9-1.4a3.1 3.1 0 1 1 3.1-3.1 3.1 3.1 0 0 1-3.1 3.1zm0-5.2a2.1 2.1 0 1 0 2.1 2.1A2.1 2.1 0 0 0 12 7.5z"/><path d="M17 17.1a.5.5 0 0 1-.5-.47A4.23 4.23 0 0 0 12 12.7a4.25 4.25 0 0 0-4.5 3.93.49.49 0 0 1-.5.47.5.5 0 0 1-.47-.53A5.24 5.24 0 0 1 12 11.7a5.21 5.21 0 0 1 5.47 4.87.5.5 0 0 1-.47.53z"/></svg>