<svg xmlns="http://www.w3.org/2000/svg" viewBox="0 0 24 24">
  <title>outlined-social-myprofile</title>
  <g>
    <g style="opacity: 0">
      <rect width="24" height="24"/>
    </g>
    <g>
      <g style="opacity: 0">
        <g>
          <circle cx="12" cy="12" r="9"/>
          <path d="M12,21.5A9.5,9.5,0,1,1,21.5,12,9.51,9.51,0,0,1,12,21.5Zm0-18A8.5,8.5,0,1,0,20.5,12,8.51,8.51,0,0,0,12,3.5Z"/>
        </g>
      </g>
      <g>
        <path d="M12,21.5A9.5,9.5,0,1,1,21.5,12,9.51,9.51,0,0,1,12,21.5Zm0-18A8.5,8.5,0,1,0,20.5,12,8.51,8.51,0,0,0,12,3.5Z"/>
        <path d="M12,14a3.5,3.5,0,1,1,3.5-3.5A3.5,3.5,0,0,1,12,14Zm0-6a2.5,2.5,0,1,0,2.5,2.5A2.5,2.5,0,0,0,12,8Z"/>
        <path d="M17.3,17.75a.49.49,0,0,1-.47-.34,5.17,5.17,0,0,0-3.18-3.18,5.11,5.11,0,0,0-6.48,3.18.5.5,0,0,1-.94-.32,6.09,6.09,0,0,1,11.54,0,.5.5,0,0,1-.31.63A.45.45,0,0,1,17.3,17.75Z"/>
      </g>
    </g>
  </g>
</svg>
