<svg xmlns="http://www.w3.org/2000/svg" viewBox="0 0 24 24"><path d="M3.06 21.51a.5.5 0 1 1 0-1h17.88a.51.51 0 0 1 .5.5.5.5 0 0 1-.5.5H3.07z"/><path d="M20 21.2a.5.5 0 0 1-.5-.5v-3.36a.5.5 0 0 1 .5-.5.5.5 0 0 1 .5.5v3.36a.5.5 0 0 1-.5.5zm-15.89 0a.5.5 0 0 1-.5-.5v-3.36a.5.5 0 1 1 1 0v3.36a.5.5 0 0 1-.5.5z"/><path d="M9.64 18.44a2.06 2.06 0 0 1-2.05-2.07v-1.86a.39.39 0 0 0-.11-.27.38.38 0 0 0-.53 0 .35.35 0 0 0-.11.27v.85a2.16 2.16 0 0 1-.63 1.54 2.12 2.12 0 0 1-1.53.65 2.17 2.17 0 0 1-2.18-2.18v-2a2 2 0 0 1 2-2h15a2 2 0 0 1 2 2v2.43a2 2 0 0 1-.59 1.47 2 2 0 0 1-1.47.63 2.08 2.08 0 0 1-2.09-2.09v-1.29a.37.37 0 0 0-.37-.38.38.38 0 0 0-.39.38v.39a2 2 0 1 1-4.08 0v-.39a.37.37 0 0 0-.11-.27.46.46 0 0 0-.6 0 .4.4 0 0 0-.11.27v1.87a2.06 2.06 0 0 1-2.05 2.05zm-2.43-5.31a1.34 1.34 0 0 1 1 .41 1.37 1.37 0 0 1 .4 1v1.87a1 1 0 1 0 2.09 0v-1.89a1.38 1.38 0 0 1 1.38-1.39 1.41 1.41 0 0 1 1 .41 1.38 1.38 0 0 1 .4 1v.39a1.06 1.06 0 0 0 1 1.06 1 1 0 0 0 .74-.31 1.09 1.09 0 0 0 .3-.75v-.39a1.38 1.38 0 1 1 2.76 0v1.22a1.06 1.06 0 0 0 .32.77 1 1 0 0 0 .76.32 1.07 1.07 0 0 0 .76-.32 1.11 1.11 0 0 0 .31-.77v-2.44a1 1 0 0 0-1-1h-15a1 1 0 0 0-1 1v2a1.17 1.17 0 0 0 .34.83 1.13 1.13 0 0 0 .83.35 1.18 1.18 0 0 0 1.17-1.18v-.86a1.37 1.37 0 0 1 1.44-1.33z"/><path d="M12.92 12.32h-1.84a.5.5 0 0 1-.5-.5v-4a.5.5 0 0 1 .5-.5h1.84a.5.5 0 0 1 .5.5v4a.5.5 0 0 1-.5.5zm-1.34-1h.84v-3h-.84zm.52-4.18h-.2a1.11 1.11 0 0 1-.33 0 1.59 1.59 0 0 1-1-.67 1.64 1.64 0 0 1-.24-1.2v-.09a13.72 13.72 0 0 1 1.24-2.41.5.5 0 0 1 .43-.27.5.5 0 0 1 .42.23 14.69 14.69 0 0 1 1.27 2.5.32.32 0 0 1 0 .14 1.93 1.93 0 0 1 0 .34 1.63 1.63 0 0 1-1.59 1.43zm-.18-1a.75.75 0 0 0 .57-.14.66.66 0 0 0 .23-.42.2.2 0 0 0 0-.07A14.6 14.6 0 0 0 12 4a12 12 0 0 0-.71 1.49.55.55 0 0 0 .1.41.56.56 0 0 0 .38.25.26.26 0 0 0 .15-.02zm6.18 6.18h-1.83a.5.5 0 0 1-.5-.5v-3.3a.5.5 0 0 1 .5-.5h1.83a.5.5 0 0 1 .5.5v3.3a.5.5 0 0 1-.5.5zm-1.33-1h.83V9h-.83zm.51-3.49h-.2a.75.75 0 0 1-.32 0 1.6 1.6 0 0 1-1.26-1.91.29.29 0 0 1 0-.09 13.81 13.81 0 0 1 1.24-2.42.5.5 0 0 1 .42-.23.5.5 0 0 1 .42.23 14 14 0 0 1 1.27 2.5.74.74 0 0 1 0 .14 2 2 0 0 1 0 .35 1.64 1.64 0 0 1-1.57 1.43zm-.17-1a.67.67 0 0 0 .8-.55V6.2a12.74 12.74 0 0 0-.73-1.54 13.55 13.55 0 0 0-.71 1.49.6.6 0 0 0 .48.66zm-9.4 5.49H5.87a.5.5 0 0 1-.5-.5v-3.3a.51.51 0 0 1 .5-.5h1.84a.51.51 0 0 1 .5.5v3.3a.5.5 0 0 1-.5.5zm-1.34-1h.84V9h-.84zm.52-3.49h-.2a.75.75 0 0 1-.32 0A1.61 1.61 0 0 1 5.1 5.92v-.09a13.81 13.81 0 0 1 1.27-2.42.5.5 0 0 1 .42-.23.5.5 0 0 1 .42.23 14.69 14.69 0 0 1 1.27 2.5.35.35 0 0 1 0 .14 1.93 1.93 0 0 1 0 .34 1.66 1.66 0 0 1-.62 1.09 1.6 1.6 0 0 1-.97.35zm-.17-1a.7.7 0 0 0 .55-.13.59.59 0 0 0 .24-.42.17.17 0 0 0 0-.07 14.45 14.45 0 0 0-.73-1.54 12 12 0 0 0-.71 1.49.6.6 0 0 0 .48.66z"/></svg>