<svg xmlns="http://www.w3.org/2000/svg" xmlns:xlink="http://www.w3.org/1999/xlink" viewBox="0 0 24 24">
  <defs>
    <clipPath id="a">
      <rect width="24" height="24"/>
    </clipPath>
  </defs>
  <title>outlined-social-collaborate</title>
  <g>
    <g style="opacity: 0">
      <g>
        <rect width="24" height="24"/>
        <g style="clip-path: url(#a)">
          <g>
            <rect width="24" height="24"/>
            <path d="M12,21.5A9.5,9.5,0,1,1,21.5,12,9.51,9.51,0,0,1,12,21.5Zm0-18A8.5,8.5,0,1,0,20.5,12,8.51,8.51,0,0,0,12,3.5Z"/>
          </g>
        </g>
      </g>
    </g>
    <g>
      <g>
        <g>
          <path d="M11.66,7.8a2.15,2.15,0,1,1,2.15-2.15A2.15,2.15,0,0,1,11.66,7.8Zm0-3.3a1.15,1.15,0,1,0,1.15,1.15A1.16,1.16,0,0,0,11.66,4.5Z"/>
          <path d="M8.59,10.86a.5.5,0,0,1-.5-.5,3.57,3.57,0,0,1,7.14,0,.51.51,0,0,1-.5.5.5.5,0,0,1-.5-.5,2.57,2.57,0,0,0-5.14,0A.5.5,0,0,1,8.59,10.86Z"/>
        </g>
        <g>
          <path d="M18.22,15.47a2.15,2.15,0,1,1,2.15-2.15A2.15,2.15,0,0,1,18.22,15.47Zm0-3.3a1.15,1.15,0,1,0,0,2.3,1.15,1.15,0,1,0,0-2.3Z"/>
          <path d="M15.15,18.53a.5.5,0,0,1-.5-.5,3.57,3.57,0,0,1,7.14,0,.51.51,0,0,1-.5.5.5.5,0,0,1-.5-.5,2.57,2.57,0,0,0-5.14,0A.5.5,0,0,1,15.15,18.53Z"/>
        </g>
        <g>
          <path d="M5.07,15.47a2.15,2.15,0,1,1,2.15-2.15A2.15,2.15,0,0,1,5.07,15.47Zm0-3.3a1.15,1.15,0,0,0,0,2.3,1.15,1.15,0,0,0,0-2.3Z"/>
          <path d="M2,18.53a.5.5,0,0,1-.5-.5,3.57,3.57,0,1,1,7.13,0,.5.5,0,0,1-.5.5.51.51,0,0,1-.5-.5A2.57,2.57,0,1,0,2.5,18,.5.5,0,0,1,2,18.53Z"/>
        </g>
      </g>
      <g>
        <path d="M11.16,19.21a8.5,8.5,0,0,1-1.23-.1.5.5,0,0,1,.16-1,6.68,6.68,0,0,0,3.26-.28.51.51,0,0,1,.64.31.51.51,0,0,1-.32.64A7.91,7.91,0,0,1,11.16,19.21Z"/>
        <path d="M11.83,20.58a.52.52,0,0,1-.35-.14.5.5,0,0,1,0-.71l1.2-1.25-1.58-.73a.52.52,0,0,1-.25-.67.5.5,0,0,1,.67-.24l2.21,1a.49.49,0,0,1,.28.36.51.51,0,0,1-.13.44l-1.68,1.76A.52.52,0,0,1,11.83,20.58Z"/>
      </g>
      <g>
        <path d="M19.08,9.05a.5.5,0,0,1-.47-.33A6.91,6.91,0,0,0,16.79,6a.5.5,0,1,1,.67-.74,7.78,7.78,0,0,1,2.09,3.12.51.51,0,0,1-.3.64Z"/>
        <path d="M17.3,8.56a.5.5,0,0,1-.5-.47l-.17-2.43a.47.47,0,0,1,.18-.42.53.53,0,0,1,.44-.1l2.36.63a.48.48,0,0,1,.35.61.5.5,0,0,1-.61.36l-1.68-.45L17.8,8a.51.51,0,0,1-.47.54Z"/>
      </g>
      <g>
        <path d="M4.55,8.33a.45.45,0,0,1-.16,0,.5.5,0,0,1-.31-.63A7.81,7.81,0,0,1,6.15,4.53a.5.5,0,0,1,.71,0,.51.51,0,0,1,0,.71A6.71,6.71,0,0,0,5,8,.5.5,0,0,1,4.55,8.33Z"/>
        <path d="M4.55,8.33a.46.46,0,0,1-.23-.06.48.48,0,0,1-.26-.37L3.72,5.49a.5.5,0,1,1,1-.14L5,7.07,6.5,6.28a.5.5,0,0,1,.67.22A.49.49,0,0,1,7,7.17L4.78,8.28A.59.59,0,0,1,4.55,8.33Z"/>
      </g>
    </g>
  </g>
</svg>
