<svg xmlns="http://www.w3.org/2000/svg" viewBox="0 0 24 24"><defs><clipPath id="a"><path d="M0 0h24v24H0z"/></clipPath></defs><g clip-path="url(#a)"><path d="M12 21.52A9.52 9.52 0 1 1 21.52 12 9.53 9.53 0 0 1 12 21.52zm0-18A8.48 8.48 0 1 0 20.48 12 8.48 8.48 0 0 0 12 3.52z"/><path d="M7.5 17a.47.47 0 0 1-.35-.15.48.48 0 0 1 0-.7l9-9a.49.49 0 1 1 .7.7l-9 9a.47.47 0 0 1-.35.15z"/><path d="M16.5 17a.47.47 0 0 1-.35-.15l-9-9a.49.49 0 0 1 .7-.7l9 9a.48.48 0 0 1 0 .7.47.47 0 0 1-.35.15z"/><path d="M16.5 17a.47.47 0 0 1-.35-.15l-9-9a.49.49 0 0 1 .7-.7l9 9a.48.48 0 0 1 0 .7.47.47 0 0 1-.35.15z"/></g></svg>
