<svg xmlns="http://www.w3.org/2000/svg" xmlns:xlink="http://www.w3.org/1999/xlink" viewBox="0 0 24 24">
  <defs>
    <clipPath id="a">
      <rect width="24" height="24"/>
    </clipPath>
  </defs>
  <title>outlined-content-brightness</title>
  <g>
    <g style="opacity: 0">
      <g>
        <rect width="24" height="24"/>
        <g style="clip-path: url(#a)">
          <g>
            <rect width="24" height="24"/>
            <path d="M12,21.5A9.5,9.5,0,1,1,21.5,12,9.51,9.51,0,0,1,12,21.5Zm0-18A8.5,8.5,0,1,0,20.5,12,8.51,8.51,0,0,0,12,3.5Z"/>
          </g>
        </g>
      </g>
    </g>
    <g>
      <path d="M12,16a4,4,0,0,1-4-4h0a4,4,0,0,1,4-4h0a4,4,0,0,1,4,4,4,4,0,0,1-1.17,2.85A4,4,0,0,1,12,16Zm-3.2-4A3.19,3.19,0,1,0,12,8.75h0A3.19,3.19,0,0,0,8.76,12Z"/>
      <path d="M12,6.8a.46.46,0,0,1-.46-.46V3A.46.46,0,0,1,12,2.54a.47.47,0,0,1,.46.46V6.34A.47.47,0,0,1,12,6.8Z"/>
      <path d="M12,21.35a.45.45,0,0,1-.46-.46V17.55a.46.46,0,0,1,.46-.46.47.47,0,0,1,.46.46v3.34A.46.46,0,0,1,12,21.35Z"/>
      <path d="M6.34,12.41H3a.47.47,0,0,1,0-.93H6.34a.47.47,0,0,1,0,.93Z"/>
      <path d="M20.89,12.41H17.55a.47.47,0,0,1,0-.93h3.34a.47.47,0,0,1,0,.93Z"/>
      <path d="M5.59,18.77a.47.47,0,0,1-.32-.14.46.46,0,0,1,0-.65l2.35-2.36a.49.49,0,0,1,.66,0,.47.47,0,0,1,0,.66L5.92,18.63A.47.47,0,0,1,5.59,18.77Z"/>
      <path d="M15.94,8.43a.47.47,0,0,1-.33-.14.46.46,0,0,1,0-.65L18,5.28a.46.46,0,1,1,.65.65L16.26,8.29A.47.47,0,0,1,15.94,8.43Z"/>
      <path d="M8,8.42a.44.44,0,0,1-.32-.13L5.27,5.93a.46.46,0,0,1,.65-.65L8.28,7.64A.46.46,0,0,1,8,8.42Z"/>
      <path d="M18.3,18.77a.47.47,0,0,1-.33-.14l-2.36-2.36a.46.46,0,0,1,0-.65.47.47,0,0,1,.66,0L18.62,18a.46.46,0,0,1,0,.65A.45.45,0,0,1,18.3,18.77Z"/>
    </g>
  </g>
</svg>
