<svg xmlns="http://www.w3.org/2000/svg" xmlns:xlink="http://www.w3.org/1999/xlink" viewBox="0 0 24 24">
  <defs>
    <clipPath id="a">
      <rect width="24" height="24" style="fill: none"/>
    </clipPath>
  </defs>
  <title>outlined-content-adddocument</title>
  <g>
    <g style="opacity: 0">
      <g style="clip-path: url(#a)">
        <g>
          <rect width="24" height="24" style="fill: #ebebea"/>
          <path d="M12,21.5A9.5,9.5,0,1,1,21.5,12,9.51,9.51,0,0,1,12,21.5Zm0-18A8.5,8.5,0,1,0,20.5,12,8.51,8.51,0,0,0,12,3.5Z" style="fill: #afaeae"/>
        </g>
      </g>
    </g>
    <g>
      <g style="opacity: 0">
        <rect width="24" height="24" style="fill: red"/>
      </g>
      <g>
        <g>
          <path d="M12.58,14.74H7.92a.5.5,0,0,1,0-1h4.66a.5.5,0,0,1,0,1Z"/>
          <path d="M14.92,11.93h-7a.5.5,0,0,1,0-1h7a.5.5,0,1,1,0,1Z"/>
          <path d="M14.92,9.12h-7a.5.5,0,0,1-.5-.5.5.5,0,0,1,.5-.5h7a.51.51,0,0,1,.5.5A.5.5,0,0,1,14.92,9.12Z"/>
        </g>
        <g>
          <path d="M6.16,20.09A1.66,1.66,0,0,1,4.5,18.43v-14A1.67,1.67,0,0,1,6.16,2.76l10.5,0h0A1.66,1.66,0,0,1,18.33,4.4v9.36h-1V4.4a.68.68,0,0,0-.19-.47.66.66,0,0,0-.47-.19h0l-10.5,0a.67.67,0,0,0-.67.67v14a.63.63,0,0,0,.2.47.63.63,0,0,0,.47.19H12v1H6.16Z"/>
          <path d="M15.5,21.76a4.5,4.5,0,1,1,4.5-4.5A4.5,4.5,0,0,1,15.5,21.76Zm0-8a3.5,3.5,0,1,0,3.5,3.5A3.5,3.5,0,0,0,15.5,13.76Z"/>
        </g>
        <g>
          <path d="M17.25,17.76h-3.5a.5.5,0,0,1-.5-.5.5.5,0,0,1,.5-.5h3.5a.5.5,0,0,1,.5.5A.5.5,0,0,1,17.25,17.76Z"/>
          <path d="M15.5,19.51A.5.5,0,0,1,15,19v-3.5a.5.5,0,1,1,1,0V19A.5.5,0,0,1,15.5,19.51Z"/>
        </g>
      </g>
    </g>
  </g>
</svg>
