<svg xmlns="http://www.w3.org/2000/svg" viewBox="0 0 24 24"><path d="M12 22.5A10.5 10.5 0 1 1 22.5 12 10.51 10.51 0 0 1 12 22.5zm0-20a9.5 9.5 0 1 0 9.5 9.5A9.51 9.51 0 0 0 12 2.5z"/><path d="M10.53 16.17a2 2 0 0 1-2-2V9.92a2 2 0 0 1 .28-1A2 2 0 0 1 10 8a2.07 2.07 0 0 1 1.54.21l3.6 2.07a2 2 0 0 1 .84.84 2 2 0 0 1-.84 2.74l-3.6 2.07a2.05 2.05 0 0 1-1 .27zm0-7.26h-.27a1 1 0 0 0-.63.48 1 1 0 0 0-.14.51v4.23a1 1 0 0 0 .31.72 1 1 0 0 0 .72.29 1 1 0 0 0 .5-.14l3.65-2a1 1 0 0 0 .45-1.39 1 1 0 0 0-.32-.36l-3.74-2.2a1.07 1.07 0 0 0-.52-.14z"/></svg>