<svg xmlns="http://www.w3.org/2000/svg" xmlns:xlink="http://www.w3.org/1999/xlink" viewBox="0 0 24 24">
  <defs>
    <clipPath id="a">
      <rect width="24" height="24"/>
    </clipPath>
  </defs>
  <title>outlined-content-store</title>
  <g>
    <g style="opacity: 0">
      <g>
        <rect width="24" height="24"/>
        <g style="clip-path: url(#a)">
          <g>
            <rect width="24" height="24"/>
            <path d="M12,21.5A9.5,9.5,0,1,1,21.5,12,9.51,9.51,0,0,1,12,21.5Zm0-18A8.5,8.5,0,1,0,20.5,12,8.51,8.51,0,0,0,12,3.5Z"/>
          </g>
        </g>
      </g>
    </g>
    <g>
      <path d="M15.94,13.09H8.06A1.08,1.08,0,0,0,7,14.17V17A1.09,1.09,0,0,0,8.06,18h7.88A1.1,1.1,0,0,0,17,17V14.17A1.1,1.1,0,0,0,15.94,13.09ZM8.1,17V14.22l7.78-.05,0,2.73Z"/>
      <path d="M19.3,5.07A1.68,1.68,0,0,0,17.74,4H6.26A1.67,1.67,0,0,0,4.71,5.07L3.15,9.15A2.24,2.24,0,0,0,3.24,11a2,2,0,0,0,1.08,1v6.78A1.68,1.68,0,0,0,6,20.39H18a1.66,1.66,0,0,0,1.66-1.66V12a2,2,0,0,0,1.09-1,2.24,2.24,0,0,0,.09-1.81Zm-.75,13.65a.54.54,0,0,1-.53.54H6a.54.54,0,0,1-.53-.54h0V12.07a2.17,2.17,0,0,0,1.36-.81,2.2,2.2,0,0,0,3.08.37,2.67,2.67,0,0,0,.38-.37,2.19,2.19,0,0,0,3.08.37,2.59,2.59,0,0,0,.37-.37,2.2,2.2,0,0,0,3.08.37,2.16,2.16,0,0,0,.37-.37,2.21,2.21,0,0,0,1.37.81Zm1.21-8.27h0a.92.92,0,0,1-.57.47,1.08,1.08,0,0,1-1.31-.78,1,1,0,0,1,0-.24V9.58h0a.67.67,0,1,0-1.33,0h0v.33a1.06,1.06,0,0,1-2.12,0h0V9.58h0a.67.67,0,0,0-.67-.67.66.66,0,0,0-.66.67h0V9.9a1.07,1.07,0,0,1-2.13,0V9.57h0a.66.66,0,0,0-.7-.63.67.67,0,0,0-.63.63h0V9.9a1.06,1.06,0,0,1-2.12,0h0V9.58h0A.66.66,0,0,0,6.79,9a.67.67,0,0,0-.63.63h0v.33a1.09,1.09,0,0,1-1.34,1,.88.88,0,0,1-.56-.47,1.13,1.13,0,0,1,0-.9L5.77,5.48a.54.54,0,0,1,.5-.35H17.75a.54.54,0,0,1,.5.35l1.56,4.08A1.1,1.1,0,0,1,19.76,10.45Z"/>
    </g>
  </g>
</svg>
