<svg xmlns="http://www.w3.org/2000/svg" xmlns:xlink="http://www.w3.org/1999/xlink" viewBox="0 0 19.06 17.12">
  <defs>
    <clipPath id="a" transform="translate(-2.01 -3.01)">
      <rect width="24" height="24" style="fill: none"/>
    </clipPath>
  </defs>
  <title>outlined-content-divulgation</title>
  <g style="clip-path: url(#a)">
    <g>
      <g>
        <path d="M18.28,19.22h-6.8v-1h6.8a1.81,1.81,0,0,0,1.8-1.8V6.92a1.8,1.8,0,0,0-1.8-1.8H16v-1h2.3a2.8,2.8,0,0,1,2.8,2.8v9.5A2.81,2.81,0,0,1,18.28,19.22Z" transform="translate(-2.01 -3.01)"/>
        <path d="M7.61,5.59l-.67-.74a2.77,2.77,0,0,1,2-.73h.79v1h-.8A1.81,1.81,0,0,0,7.61,5.59Z" transform="translate(-2.01 -3.01)"/>
      </g>
      <g>
        <path d="M7.25,20.13a2.82,2.82,0,0,1-2.71-2.08L2.11,9a2.81,2.81,0,0,1,2-3.43l9.08-2.43a2.81,2.81,0,0,1,3.43,2L19,14.17a2.82,2.82,0,0,1-2,3.43L8,20A2.55,2.55,0,0,1,7.25,20.13ZM13.89,4a1.47,1.47,0,0,0-.46.07L4.35,6.51a1.8,1.8,0,0,0-1.27,2.2l2.43,9.08h0a1.8,1.8,0,0,0,2.21,1.28l9.07-2.44a1.79,1.79,0,0,0,1.28-2.2L15.63,5.35A1.79,1.79,0,0,0,13.89,4Z" transform="translate(-2.01 -3.01)"/>
        <g>
          <path d="M14.77,16a.37.37,0,0,1-.18-.05.38.38,0,0,1-.18-.23l-.7-2.61a.38.38,0,0,1,.27-.46l1.93-.52a.34.34,0,0,1,.28,0,.38.38,0,0,1,.18.23L16.81,14a1.3,1.3,0,0,1-.14,1,1.38,1.38,0,0,1-.83.65l-1,.25Zm-.24-2.72L15,15.14l.6-.16a.62.62,0,0,0,.38-.29.56.56,0,0,0,.06-.47l-.34-1.28Z" transform="translate(-2.01 -3.01)"/>
          <path d="M15.78,12.89a.37.37,0,0,1-.36-.27l-.4-1.4-.75.26a.38.38,0,0,1-.19-.73l.8-.2a.8.8,0,0,1,.82.38l.44,1.48a.39.39,0,0,1-.26.47Z" transform="translate(-2.01 -3.01)"/>
          <path d="M15.08,11.19a.38.38,0,0,1-.36-.26l-.32-1-.26.26a.37.37,0,0,1-.53-.53l.7-.7a.39.39,0,0,1,.36-.1.38.38,0,0,1,.26.25l.5,1.61a.37.37,0,0,1-.24.47Z" transform="translate(-2.01 -3.01)"/>
          <path d="M7.38,7.69A.38.38,0,0,1,7,7.41.37.37,0,0,1,7.28,7l3.4-.91a.38.38,0,1,1,.19.73l-3.4.9Z" transform="translate(-2.01 -3.01)"/>
          <path d="M8.38,8.09A.38.38,0,0,1,8,7.84l-.2-.6a.39.39,0,0,1,.26-.49l2.3-.6a.4.4,0,0,1,.3,0,.39.39,0,0,1,.17.26l.1.6a.39.39,0,0,1-.31.43.38.38,0,0,1-.43-.31l0-.2-1.51.4.07.22a.37.37,0,0,1-.23.47A.25.25,0,0,1,8.38,8.09Z" transform="translate(-2.01 -3.01)"/>
          <path d="M10.68,17h-.4a.37.37,0,0,1-.31-.16l-.7-1A5.78,5.78,0,0,1,8.2,12.41V11a3,3,0,0,0-.62-1.87.4.4,0,0,1-.08-.23v-.2a.38.38,0,0,1,.29-.37l4-1a.41.41,0,0,1,.32.07.37.37,0,0,1,.14.3v.2a.28.28,0,0,1,0,.09,2.91,2.91,0,0,0,.18,2L13,11a5.74,5.74,0,0,1,.75,3.52v1.26a.78.78,0,0,1-.59.66l-1.09.3a.39.39,0,0,1-.26,0l-.07,0-1,.26Zm-.21-.75h.16l1-.28a.33.33,0,0,1,.26,0L12,16l1-.26,0-1.24a5,5,0,0,0-.65-3.11l-.6-1.11a3.71,3.71,0,0,1-.31-2.09L8.38,9A3.68,3.68,0,0,1,9,11v1.4a5,5,0,0,0,.93,3Z" transform="translate(-2.01 -3.01)"/>
          <path d="M7.08,16.89a.38.38,0,0,1-.37-.28l-.9-3.4-.18-.45-.58-.95a.38.38,0,0,1,0-.33s0,0,0-.06v0l-.32-.74a.37.37,0,0,1,0-.31.39.39,0,0,1,.25-.2l1.59-.4A.39.39,0,0,1,7,10a.37.37,0,0,1-.27.45l-1.18.29.13.3,1.16-.32a.39.39,0,0,1,.46.27.39.39,0,0,1-.25.46l-1.15.35.36.59.22.56.83,3.09.94-.22a.37.37,0,0,1,.45.28.37.37,0,0,1-.28.45l-1.3.3Z" transform="translate(-2.01 -3.01)"/>
          <path d="M8,17.79a.78.78,0,0,1-.68-.39l-.23-.78a.36.36,0,0,1,.25-.46.37.37,0,0,1,.47.25l.2.7.75-.26a.38.38,0,0,1,.45.28.37.37,0,0,1-.27.45l-.8.2Z" transform="translate(-2.01 -3.01)"/>
        </g>
      </g>
    </g>
  </g>
</svg>
