<svg xmlns="http://www.w3.org/2000/svg" xmlns:xlink="http://www.w3.org/1999/xlink" viewBox="0 0 24 24">
  <defs>
    <clipPath id="a">
      <rect width="24" height="24" style="fill: none"/>
    </clipPath>
  </defs>
  <title>outlined-content-wifi</title>
  <g>
    <g style="opacity: 0">
      <g style="clip-path: url(#a)">
        <g>
          <rect width="24" height="24" style="fill: #ebebea"/>
          <path d="M12,21.5A9.5,9.5,0,1,1,21.5,12,9.51,9.51,0,0,1,12,21.5Zm0-18A8.5,8.5,0,1,0,20.5,12,8.51,8.51,0,0,0,12,3.5Z" style="fill: #afaeae"/>
        </g>
      </g>
    </g>
    <g>
      <ellipse cx="11.97" cy="17.61" rx="1.39" ry="1.39"/>
      <g>
        <path d="M22.5,9.88a.47.47,0,0,1-.35-.15,14.39,14.39,0,0,0-20.3-.06.5.5,0,0,1-.7,0,.5.5,0,0,1,0-.71A15.38,15.38,0,0,1,22.85,9a.5.5,0,0,1,0,.71A.49.49,0,0,1,22.5,9.88Z"/>
        <path d="M19.92,12.47a.54.54,0,0,1-.36-.14,10.77,10.77,0,0,0-15.12-.06.51.51,0,0,1-.71-.72,11.8,11.8,0,0,1,16.54.07.5.5,0,0,1-.35.85Z"/>
        <path d="M17.27,15.19a.46.46,0,0,1-.35-.14A7,7,0,0,0,7.15,15a.5.5,0,1,1-.7-.72,8,8,0,0,1,11.17.07.5.5,0,0,1-.35.85Z"/>
      </g>
    </g>
  </g>
</svg>
