<svg xmlns="http://www.w3.org/2000/svg" xmlns:xlink="http://www.w3.org/1999/xlink" viewBox="0 0 15.71 13.15">
  <defs>
    <clipPath id="a" transform="translate(-4.11 -5.15)">
      <rect width="24" height="24" style="fill: none"/>
    </clipPath>
  </defs>
  <title>outlined-content-book</title>
  <g style="clip-path: url(#a)">
    <path d="M4.11,17.37c0,.4.2.79.66.79A.56.56,0,0,0,5.16,18l.4-.2a5.11,5.11,0,0,1,2.36-.58A8,8,0,0,1,11,18l.46.2a1.42,1.42,0,0,0,.53.13.94.94,0,0,0,.46-.13l.46-.2A8,8,0,0,1,16,17.25a4.79,4.79,0,0,1,2.37.59l.39.2a.57.57,0,0,0,.4.13.73.73,0,0,0,.65-.79V6.92a1,1,0,0,0-.26-.66,4.4,4.4,0,0,0-.66-.39A6.31,6.31,0,0,0,16,5.15a8.65,8.65,0,0,0-4,1,10.15,10.15,0,0,0-4.08-1A6.25,6.25,0,0,0,5,5.87a7.16,7.16,0,0,1-.66.39,1.07,1.07,0,0,0-.26.66ZM12.46,7.05A9.15,9.15,0,0,1,16,6.13a5,5,0,0,1,2.37.59,2.7,2.7,0,0,1,.39.27v9.8A5.76,5.76,0,0,0,16,16.13a9.91,9.91,0,0,0-3.48.79h0V7.05Zm-6.9-.26A5,5,0,0,1,7.93,6.2a8.5,8.5,0,0,1,3.55.92V17h0A10,10,0,0,0,8,16.19a5.54,5.54,0,0,0-2.76.66V7.05c0-.06.13-.2.33-.26Z" transform="translate(-4.11 -5.15)"/>
  </g>
</svg>
