<svg xmlns="http://www.w3.org/2000/svg" xmlns:xlink="http://www.w3.org/1999/xlink" viewBox="0 0 24 24">
  <defs>
    <clipPath id="a">
      <rect width="24" height="24"/>
    </clipPath>
  </defs>
  <title>outlined-content-changeview</title>
  <g>
    <g style="opacity: 0">
      <g>
        <rect width="24" height="24"/>
        <g style="clip-path: url(#a)">
          <g>
            <rect width="24" height="24"/>
            <path d="M12,21.5A9.5,9.5,0,1,1,21.5,12,9.51,9.51,0,0,1,12,21.5Zm0-18A8.5,8.5,0,1,0,20.5,12,8.51,8.51,0,0,0,12,3.5Z"/>
          </g>
        </g>
      </g>
    </g>
    <g>
      <path d="M11.81,20.38a.44.44,0,0,1-.44-.44V4a.44.44,0,0,1,.88,0V19.94A.44.44,0,0,1,11.81,20.38Z"/>
      <path d="M4.78,20.36A2.29,2.29,0,0,1,2.5,18.09V5.86a2.25,2.25,0,0,1,.68-1.62,2.29,2.29,0,0,1,1.6-.66H9.64a.5.5,0,0,1,.5.5.5.5,0,0,1-.5.5H4.79A1.28,1.28,0,0,0,3.88,5a1.23,1.23,0,0,0-.38.9V18.08a1.29,1.29,0,0,0,1.28,1.28H9.3a.5.5,0,0,1,.5.5.51.51,0,0,1-.5.5H4.78Z"/>
      <path d="M16.66,19.85a.5.5,0,0,1,.5-.5h0a.5.5,0,0,1,.5.5h0a.5.5,0,0,1-.5.51h0A.5.5,0,0,1,16.66,19.85Zm-3,0a.5.5,0,0,1,.5-.5h0a.5.5,0,0,1,.5.5h0a.5.5,0,0,1-.5.51h0A.5.5,0,0,1,13.66,19.85Zm6-.13a.51.51,0,0,1-.13-.33h0A.51.51,0,0,1,19.7,19h0a.49.49,0,0,1,.71,0h0a.48.48,0,0,1,.13.33h0a.51.51,0,0,1-.16.38h0a.55.55,0,0,1-.34.13h0A.51.51,0,0,1,19.67,19.72Zm.45-3.17a.5.5,0,0,1,.5-.5h0a.5.5,0,0,1,.5.5h0a.5.5,0,0,1-.5.5h0A.5.5,0,0,1,20.12,16.55Zm0-3a.51.51,0,0,1,.5-.5h0a.5.5,0,0,1,.5.5h0a.5.5,0,0,1-.5.5h0A.5.5,0,0,1,20.12,13.55Zm0-3a.51.51,0,0,1,.5-.5h0a.5.5,0,0,1,.5.5h0a.5.5,0,0,1-.5.5h0A.5.5,0,0,1,20.12,10.55Zm0-3a.5.5,0,0,1,.5-.5h0a.5.5,0,0,1,.5.5h0a.5.5,0,0,1-.5.5h0A.5.5,0,0,1,20.12,7.55ZM19.79,5a.46.46,0,0,1-.13-.33h0a.45.45,0,0,1,.16-.37h0a.49.49,0,0,1,.7,0h0a.57.57,0,0,1,.14.34h0a.51.51,0,0,1-.17.37h0a.51.51,0,0,1-.33.13h0A.48.48,0,0,1,19.79,5Zm-3-.92a.51.51,0,0,1,.5-.5h0a.5.5,0,0,1,.5.5h0a.5.5,0,0,1-.5.5h0A.5.5,0,0,1,16.82,4.08Zm-3,0a.51.51,0,0,1,.5-.5h0a.5.5,0,0,1,.5.5h0a.5.5,0,0,1-.5.5h0A.5.5,0,0,1,13.82,4.08Z"/>
    </g>
  </g>
</svg>
