<svg xmlns="http://www.w3.org/2000/svg" xmlns:xlink="http://www.w3.org/1999/xlink" viewBox="0 0 24 24">
  <defs>
    <clipPath id="a">
      <rect width="24" height="24"/>
    </clipPath>
  </defs>
  <title>outlined-content-magic</title>
  <g>
    <g style="opacity: 0">
      <g>
        <rect width="24" height="24"/>
        <g style="clip-path: url(#a)">
          <g>
            <rect width="24" height="24"/>
            <path d="M12,21.5A9.5,9.5,0,1,1,21.5,12,9.51,9.51,0,0,1,12,21.5Zm0-18A8.5,8.5,0,1,0,20.5,12,8.51,8.51,0,0,0,12,3.5Z"/>
          </g>
        </g>
      </g>
    </g>
    <g>
      <path d="M18.92,18.13a.9.9,0,0,1-.39-.1l-1-.5-1,.5a.84.84,0,0,1-.39.1h0a.69.69,0,0,1-.51-.22.79.79,0,0,1-.15-.63l.18-1.08L15,15.45a.72.72,0,0,1-.22-.75.71.71,0,0,1,.62-.48l1.07-.16.48-1a.71.71,0,0,1,1.29,0l.49,1,1.07.15a.74.74,0,0,1,.62.48.73.73,0,0,1-.22.75l-.78.75.18,1.07a.75.75,0,0,1-.14.63A.66.66,0,0,1,18.92,18.13Zm-2.85-3,.45.44a.79.79,0,0,1,.23.67l-.11.64.56-.29a.84.84,0,0,1,.71,0l.58.3-.1-.62a.8.8,0,0,1,.2-.67l.47-.46L18.44,15a.86.86,0,0,1-.58-.41L17.57,14l-.28.57a.84.84,0,0,1-.56.42Z"/>
      <path d="M10.19,9.36a.93.93,0,0,1-.41-.11l-.95-.5-1,.5a.89.89,0,0,1-.38.11h0A.65.65,0,0,1,7,9.13a.73.73,0,0,1-.15-.63L7,7.43l-.77-.76A.72.72,0,0,1,6,5.92a.74.74,0,0,1,.62-.48l1.08-.15.48-1a.7.7,0,0,1,1.29,0l.49,1L11,5.44a.77.77,0,0,1,.63.48.72.72,0,0,1-.23.75l-.77.76.18,1.07a.8.8,0,0,1-.14.63A.7.7,0,0,1,10.19,9.36ZM8.83,7.73a.72.72,0,0,1,.33.07l.6.31-.1-.62a.82.82,0,0,1,.19-.67l.48-.47-.62-.09a.85.85,0,0,1-.58-.4l-.29-.6-.28.57A.88.88,0,0,1,8,6.26l-.64.09.45.44A.86.86,0,0,1,8,7.46l-.11.65.56-.3A1,1,0,0,1,8.83,7.73Z"/>
      <path d="M4,20.68a.49.49,0,0,1-.35-.14.51.51,0,0,1,0-.71l9.24-9.24a.5.5,0,1,1,.71.71L4.36,20.54A.5.5,0,0,1,4,20.68Z"/>
      <path d="M19,9a.9.9,0,0,1-.39-.1l-1-.5-1,.5a.76.76,0,0,1-.37.1h0a.69.69,0,0,1-.52-.22.8.8,0,0,1-.15-.63l.19-1.08L15,6.36a.74.74,0,0,1-.22-.75.72.72,0,0,1,.62-.48L16.51,5,17,4a.73.73,0,0,1,.65-.44.71.71,0,0,1,.65.44l.48,1,1.07.15a.74.74,0,0,1,.62.48.73.73,0,0,1-.22.75l-.78.75.19,1.07a.76.76,0,0,1-.15.63A.65.65,0,0,1,19,9ZM16.15,6l.45.44a.86.86,0,0,1,.23.67l-.12.65.57-.3a.84.84,0,0,1,.71,0l.57.3-.1-.62a.82.82,0,0,1,.2-.67L19.13,6,18.52,6a.82.82,0,0,1-.58-.41L17.64,5l-.28.57a.84.84,0,0,1-.56.42Z"/>
    </g>
  </g>
</svg>
