<svg xmlns="http://www.w3.org/2000/svg" xmlns:xlink="http://www.w3.org/1999/xlink" viewBox="0 0 24 24">
  <defs>
    <clipPath id="a">
      <rect width="24" height="24"/>
    </clipPath>
  </defs>
  <title>outlined-content-gift</title>
  <g>
    <g style="opacity: 0">
      <g>
        <rect width="24" height="24"/>
        <g style="clip-path: url(#a)">
          <g>
            <rect width="24" height="24"/>
            <path d="M12,21.5A9.5,9.5,0,1,1,21.5,12,9.51,9.51,0,0,1,12,21.5Zm0-18A8.5,8.5,0,1,0,20.5,12,8.51,8.51,0,0,0,12,3.5Z"/>
          </g>
        </g>
      </g>
    </g>
    <g>
      <path d="M17.83,21.5H6.17a1.61,1.61,0,0,1-1.6-1.63v-6.7a1.59,1.59,0,0,1-1.16-1.5V9.55A1.62,1.62,0,0,1,5,7.94H6.78a4.14,4.14,0,0,1-.37-.46A2.59,2.59,0,0,1,6.14,5.4,2.89,2.89,0,0,1,8.91,3.25a2.42,2.42,0,0,1,.75.1,3.91,3.91,0,0,1,2.25,2.17,4.88,4.88,0,0,1,2.76-2.91,3.24,3.24,0,0,1,.82-.11,3.2,3.2,0,0,1,3.08,2.37,2.82,2.82,0,0,1-.3,2.28,4.41,4.41,0,0,1-.69.8H19a1.59,1.59,0,0,1,1.57,1.6v2.09a1.6,1.6,0,0,1-1.15,1.54V19.9a1.62,1.62,0,0,1-1.61,1.6ZM5,8.94a.62.62,0,0,0-.6.61v2.11a.61.61,0,0,0,.6.59.55.55,0,0,1,.56.5v7.13a.6.6,0,0,0,.6.62H17.83a.61.61,0,0,0,.61-.61V12.74a.5.5,0,0,1,.5-.5.61.61,0,0,0,.65-.6V9.55A.6.6,0,0,0,19,9H15.84a.49.49,0,0,1-.49-.41A.51.51,0,0,1,15.67,8a3.67,3.67,0,0,0,1.76-1.37,1.84,1.84,0,0,0,.18-1.47A2.19,2.19,0,0,0,15.5,3.5a2.79,2.79,0,0,0-.58.07C14,3.82,13.09,5,12.41,7a.5.5,0,0,1-.47.33h0A.5.5,0,0,1,11.47,7C10.9,5.46,10.16,4.52,9.4,4.31A1.74,1.74,0,0,0,9,4.25h0A1.92,1.92,0,0,0,7.1,5.67a1.61,1.61,0,0,0,.15,1.27A2.92,2.92,0,0,0,8.53,8a.5.5,0,0,1-.2,1Z"/>
      <rect x="7.79" y="7.94" width="10.42" height="1"/>
      <path d="M19,13.24H4.73a.5.5,0,1,1,0-1H19a.5.5,0,0,1,0,1Z"/>
      <path d="M10.5,21.5A.5.5,0,0,1,10,21V8.51a.5.5,0,0,1,.5-.5.51.51,0,0,1,.5.5V21A.5.5,0,0,1,10.5,21.5Z"/>
      <path d="M13.71,21.5a.5.5,0,0,1-.5-.5V8.51a.51.51,0,0,1,.5-.5.5.5,0,0,1,.5.5V21A.5.5,0,0,1,13.71,21.5Z"/>
      <path d="M10.57,8.48l-.83-.56a3.25,3.25,0,0,1,2.33-1.45h0a2.74,2.74,0,0,1,2.2,1.45l-.83.56a2,2,0,0,0-1.37-1A2.25,2.25,0,0,0,10.57,8.48Z"/>
    </g>
  </g>
</svg>
