<svg xmlns="http://www.w3.org/2000/svg" xmlns:xlink="http://www.w3.org/1999/xlink" viewBox="0 0 24 24">
  <defs>
    <clipPath id="a">
      <rect width="24" height="24" style="fill: none"/>
    </clipPath>
  </defs>
  <title>outlined-content-agility</title>
  <g>
    <g style="opacity: 0.0020000000949949026">
      <g style="clip-path: url(#a)">
        <g>
          <rect width="24" height="24" style="fill: #ebebea"/>
          <path d="M12,21.5A9.5,9.5,0,1,1,21.5,12,9.51,9.51,0,0,1,12,21.5Zm0-18A8.5,8.5,0,1,0,20.5,12,8.51,8.51,0,0,0,12,3.5Z" style="fill: #afaeae"/>
        </g>
      </g>
    </g>
    <g>
      <g>
        <path d="M10.85,20a.5.5,0,0,1-.5-.5.5.5,0,0,1,.5-.5A7.73,7.73,0,0,0,14.23,4.27,7.73,7.73,0,0,0,3.9,7.84.5.5,0,0,1,3,7.4a8.72,8.72,0,0,1,11.67-4A8.73,8.73,0,0,1,10.85,20Z"/>
        <path d="M3.45,8.12A.47.47,0,0,1,3.17,8,.47.47,0,0,1,3,7.63L2.88,4.85a.52.52,0,0,1,.49-.51.49.49,0,0,1,.51.49l.05,2.08,1.95-.72a.5.5,0,0,1,.35.94l-2.61,1Z"/>
      </g>
      <g>
        <path d="M11.2,11.73a.51.51,0,0,1-.5-.5V9a.51.51,0,0,1,.5-.5.5.5,0,0,1,.5.5v2.2A.5.5,0,0,1,11.2,11.73Z"/>
        <path d="M13.4,11.73H11.2a.51.51,0,0,1-.5-.5.5.5,0,0,1,.5-.5h2.2a.5.5,0,0,1,.5.5A.51.51,0,0,1,13.4,11.73Z"/>
      </g>
      <path d="M11.23,16.35a5.13,5.13,0,1,1,5.12-5.12A5.13,5.13,0,0,1,11.23,16.35Zm0-9.25a4.13,4.13,0,1,0,4.12,4.13A4.13,4.13,0,0,0,11.23,7.1Z"/>
      <g>
        <path d="M21,20H3a.5.5,0,0,1,0-1H21a.5.5,0,0,1,0,1Z"/>
        <path d="M18.46,21.77a.49.49,0,0,1-.41-.21.5.5,0,0,1,.12-.7l2-1.41-2-1.41a.51.51,0,0,1-.11-.7.5.5,0,0,1,.69-.11L21.29,19a.51.51,0,0,1,0,.82l-2.54,1.82A.52.52,0,0,1,18.46,21.77Z"/>
      </g>
    </g>
  </g>
</svg>
