<svg xmlns="http://www.w3.org/2000/svg" xmlns:xlink="http://www.w3.org/1999/xlink" viewBox="0 0 24 24">
  <defs>
    <clipPath id="a">
      <rect width="24" height="24" style="fill: none"/>
    </clipPath>
  </defs>
  <title>outlined-content-consistency</title>
  <g>
    <g style="opacity: 0">
      <g style="clip-path: url(#a)">
        <g>
          <rect width="24" height="24" style="fill: #ebebea"/>
          <path d="M12,21.5A9.5,9.5,0,1,1,21.5,12,9.51,9.51,0,0,1,12,21.5Zm0-18A8.5,8.5,0,1,0,20.5,12,8.51,8.51,0,0,0,12,3.5Z" style="fill: #afaeae"/>
        </g>
      </g>
    </g>
    <g>
      <path d="M12,22.5A10.5,10.5,0,1,1,22.5,12,10.51,10.51,0,0,1,12,22.5Zm0-20A9.5,9.5,0,1,0,21.5,12,9.51,9.51,0,0,0,12,2.5Z"/>
      <g>
        <circle cx="12" cy="12" r="1.5"/>
        <path d="M12,13.5A1.5,1.5,0,1,1,13.5,12,1.5,1.5,0,0,1,12,13.5Zm0-2a.5.5,0,1,0,.5.5A.5.5,0,0,0,12,11.5Z"/>
      </g>
      <g>
        <path d="M18.41,11.48a.5.5,0,0,1-.49-.42,6,6,0,0,0-11.84,0,.5.5,0,0,1-1-.16,7,7,0,0,1,13.82,0,.51.51,0,0,1-.42.57Z"/>
        <path d="M18.41,11.5a.47.47,0,0,1-.3-.1l-2-1.49a.51.51,0,0,1-.1-.7.5.5,0,0,1,.7-.1l1.47,1.09.64-1.72a.5.5,0,1,1,.93.35l-.87,2.34a.49.49,0,0,1-.33.31Z"/>
        <path d="M12,19a7,7,0,0,1-6.91-5.9.5.5,0,0,1,1-.16,6,6,0,0,0,11.84,0,.5.5,0,0,1,.57-.41.51.51,0,0,1,.42.57,7,7,0,0,1-5.82,5.81A6.77,6.77,0,0,1,12,19Z"/>
        <path d="M4.69,15.85l-.18,0a.5.5,0,0,1-.29-.65l.91-2.33a.47.47,0,0,1,.33-.3.5.5,0,0,1,.44.09l2,1.52a.5.5,0,1,1-.61.79L5.82,13.82l-.67,1.71A.48.48,0,0,1,4.69,15.85Z"/>
      </g>
    </g>
  </g>
</svg>
