<svg xmlns="http://www.w3.org/2000/svg" xmlns:xlink="http://www.w3.org/1999/xlink" viewBox="0 0 24 24">
  <defs>
    <clipPath id="a">
      <rect width="24" height="24"/>
    </clipPath>
  </defs>
  <title>outlined-content-medal</title>
  <g>
    <g style="opacity: 0">
      <g>
        <rect width="24" height="24"/>
        <g style="clip-path: url(#a)">
          <g>
            <rect width="24" height="24"/>
            <path d="M12,21.5A9.5,9.5,0,1,1,21.5,12,9.51,9.51,0,0,1,12,21.5Zm0-18A8.5,8.5,0,1,0,20.5,12,8.51,8.51,0,0,0,12,3.5Z"/>
          </g>
        </g>
      </g>
    </g>
    <g>
      <g style="opacity: 0">
        <rect width="24" height="24"/>
      </g>
      <g>
        <path d="M13.62,11.07H9.92a.51.51,0,0,1-.46-.3L5.54,1.7a.49.49,0,0,1,0-.47A.48.48,0,0,1,6,1H9.58a.5.5,0,0,1,.45.3l4,9.07a.47.47,0,0,1,0,.47A.5.5,0,0,1,13.62,11.07Zm-3.37-1h2.6L9.25,2H6.76Z"/>
        <path d="M14,11.07H10.38a.51.51,0,0,1-.5-.5.5.5,0,0,1,.5-.5h3.26L17.23,2H14.64l-1,2.44a.5.5,0,0,1-.93-.39l1.16-2.74A.49.49,0,0,1,14.31,1H18a.5.5,0,0,1,.42.23.49.49,0,0,1,0,.47l-4,9.07A.51.51,0,0,1,14,11.07Z"/>
        <path d="M15.58,15a.5.5,0,0,1-.5-.5v-3.2H8.69v3.2a.5.5,0,0,1-.5.5.51.51,0,0,1-.5-.5v-3.7a.5.5,0,0,1,.5-.5h7.39a.5.5,0,0,1,.5.5v3.7A.51.51,0,0,1,15.58,15Z"/>
      </g>
      <path d="M11.88,23a5.27,5.27,0,0,1,0-10.54,5.27,5.27,0,0,1,0,10.54Zm0-9.54a4.27,4.27,0,0,0,0,8.54,4.27,4.27,0,0,0,0-8.54Z"/>
    </g>
  </g>
</svg>
