<svg xmlns="http://www.w3.org/2000/svg" viewBox="0 0 24 24">
  <title>outlined-product-dailycare</title>
  <g>
    <g style="opacity: 0">
      <rect width="24" height="24" style="fill: #fff"/>
    </g>
    <g>
      <path d="M8.92,21.13A1,1,0,0,1,8,20V11.25A9.82,9.82,0,0,1,8.8,7.19a5.09,5.09,0,0,0,.12-1.72A.51.51,0,0,1,9,5.08a.53.53,0,0,1,.38-.16H14a.51.51,0,0,1,.37.16.52.52,0,0,1,.13.39,5.2,5.2,0,0,0,.13,1.8,9.49,9.49,0,0,1,.8,4V20a1,1,0,0,1-.9,1.1Zm1-15.21a5.8,5.8,0,0,1-.2,1.6A8.92,8.92,0,0,0,9,11.25V20a.41.41,0,0,0,0,.14l5.44,0s0-.06,0-.07V11.25a8.69,8.69,0,0,0-.74-3.66,6.61,6.61,0,0,1-.22-1.67Z"/>
      <g>
        <line x1="8" y1="3" x2="14.19" y2="3"/>
        <path d="M14.19,3.42H8a.42.42,0,0,1,0-.84h6.19a.42.42,0,0,1,0,.84Z"/>
      </g>
      <g>
        <line x1="13.57" y1="5.26" x2="13.57" y2="3.04"/>
        <path d="M13.57,5.74a.47.47,0,0,1-.48-.48V3A.48.48,0,1,1,14,3V5.26A.47.47,0,0,1,13.57,5.74Z"/>
      </g>
      <g>
        <line x1="9.84" y1="5.26" x2="9.84" y2="3.04"/>
        <path d="M9.84,5.74a.47.47,0,0,1-.47-.48V3a.48.48,0,0,1,.47-.48.49.49,0,0,1,.48.48V5.26A.48.48,0,0,1,9.84,5.74Z"/>
      </g>
    </g>
  </g>
</svg>
