<svg xmlns="http://www.w3.org/2000/svg" xmlns:xlink="http://www.w3.org/1999/xlink" viewBox="0 0 24 24">
  <defs>
    <clipPath id="a">
      <rect width="24" height="24"/>
    </clipPath>
  </defs>
  <title>outlined-product-makeup</title>
  <g>
    <g style="opacity: 0">
      <g>
        <rect width="24" height="24"/>
        <g style="clip-path: url(#a)">
          <g>
            <rect width="24" height="24"/>
            <g>
              <circle cx="12" cy="12" r="9"/>
              <path d="M12,21.5A9.5,9.5,0,1,1,21.5,12,9.51,9.51,0,0,1,12,21.5Zm0-18A8.5,8.5,0,1,0,20.5,12,8.51,8.51,0,0,0,12,3.5Z"/>
            </g>
          </g>
        </g>
      </g>
    </g>
    <g>
      <path d="M8.87,10.68l0-4a2.73,2.73,0,0,1,1.57-2.56L13,2.58a1.13,1.13,0,0,1,1.16-.07A1.84,1.84,0,0,1,14.8,4s-.05,2-.05,2.34l.05,4.32h-1l-.05-4.33C13.75,6,13.8,4,13.8,4a1.14,1.14,0,0,0-.16-.63s0,0-.15.08L10.86,5a1.77,1.77,0,0,0-1,1.66l0,4.05Z"/>
      <path d="M15.91,21.62H7.5V12.36a2.15,2.15,0,0,1,2.2-2h4a2.1,2.1,0,0,1,2.18,2Zm-7.41-1h6.41V12.36a1.12,1.12,0,0,0-1.17-1H9.68A1.1,1.1,0,0,0,8.5,12.39Z"/>
      <g>
        <path d="M8,18.16h7.42"/>
        <rect x="8" y="17.66" width="7.42" height="1"/>
      </g>
    </g>
  </g>
</svg>
