<svg xmlns="http://www.w3.org/2000/svg" xmlns:xlink="http://www.w3.org/1999/xlink" viewBox="0 0 24 24">
  <defs>
    <clipPath id="a">
      <rect width="24" height="24"/>
    </clipPath>
  </defs>
  <title>outlined-product-perfumery</title>
  <g>
    <g style="opacity: 0">
      <rect width="24" height="24"/>
      <g style="clip-path: url(#a)">
        <rect width="24" height="24"/>
      </g>
    </g>
    <path d="M10.49,21.08A2,2,0,0,1,9,20.38C7.47,18.71,6.54,14,6.5,7.73a.48.48,0,0,1,.15-.36A.51.51,0,0,1,7,7.22H17.19a.51.51,0,0,1,.35.15.51.51,0,0,1,.15.36c-.05,6.34-1,11-2.48,12.66a2,2,0,0,1-1.51.69Zm-3-12.86C7.6,15,8.71,18.59,9.72,19.72a1,1,0,0,0,.77.36H13.7a1,1,0,0,0,.76-.35c1-1.14,2.12-4.75,2.22-11.51Z"/>
    <path d="M13.94,6.25a.5.5,0,0,1-.5-.5V3.09h-2.7V5.75a.5.5,0,0,1-1,0V2.59a.5.5,0,0,1,.5-.5h3.7a.5.5,0,0,1,.5.5V5.75A.5.5,0,0,1,13.94,6.25Z"/>
    <path d="M15.06,8.08a.51.51,0,0,1-.5-.42l-.2-1.41H9.82l-.2,1.41a.5.5,0,0,1-1-.15l.26-1.84a.51.51,0,0,1,.5-.42H14.8a.49.49,0,0,1,.49.42l.26,1.84a.5.5,0,0,1-.42.57Z"/>
  </g>
</svg>
