<svg xmlns="http://www.w3.org/2000/svg" viewBox="0 0 24 24">
  <title>outlined-alert-info</title>
  <g>
    <g>
      <g style="opacity: 0">
        <rect width="24" height="24" style="fill: #ebebea"/>
      </g>
      <g>
        <path d="M12,3a9,9,0,1,0,9,9A9,9,0,0,0,12,3Zm7.73,9A7.77,7.77,0,1,1,12,4.2h0a7.7,7.7,0,0,1,7.73,7.64Z"/>
        <path d="M12,7.22a1,1,0,0,0-1,1A1.15,1.15,0,0,0,12,9.3a1.16,1.16,0,0,0,1.08-1.08A1.1,1.1,0,0,0,12,7.22Z"/>
        <path d="M12,10.06a.75.75,0,0,0-.75.74h0v5.42a.75.75,0,0,0,1.5,0V10.81A.87.87,0,0,0,12,10.06Z"/>
      </g>
    </g>
    <rect width="24" height="24" style="fill: none"/>
  </g>
</svg>
