<svg xmlns="http://www.w3.org/2000/svg" viewBox="0 0 24 24">
  <path d="M 4.69 12.52 C 3.92 12.52 3.439 11.687 3.824 11.02 C 4.003 10.711 4.333 10.52 4.69 10.52 L 17.59 10.52 L 11.78 4.71 C 11.386 4.319 11.386 3.681 11.78 3.29 C 12.17 2.902 12.8 2.902 13.19 3.29 L 20.547 10.647 C 20.605 10.685 20.659 10.729 20.71 10.78 C 20.864 10.935 20.957 11.127 20.989 11.327 C 21.066 11.729 20.889 12.159 20.522 12.378 L 13.19 19.71 C 13.001 19.897 12.746 20.002 12.48 20 C 11.71 19.989 11.241 19.149 11.635 18.488 C 11.676 18.42 11.724 18.357 11.78 18.3 L 17.552 12.52 Z"></path>
</svg>
