<svg xmlns="http://www.w3.org/2000/svg" viewBox="0 0 24 24">
  <title>filled-navigation-directionright</title>
  <g>
    <rect width="24" height="24" style="fill: red;opacity: 0"/>
    <g>
      <path d="M19.93,12.52H4.69a1,1,0,1,1,0-2H19.93a1,1,0,0,1,0,2Z"/>
      <path d="M12.48,20a1,1,0,0,1-.7-1.7l7.51-7.52a1,1,0,0,1,1.42,0,1,1,0,0,1,0,1.41l-7.52,7.52A1,1,0,0,1,12.48,20Z"/>
      <path d="M20,12.52a1,1,0,0,1-.71-.3L11.78,4.71a1,1,0,0,1,0-1.42,1,1,0,0,1,1.41,0l7.52,7.52A1,1,0,0,1,20,12.52Z"/>
    </g>
  </g>
</svg>
