<svg viewBox="0 0 24 24" xmlns="http://www.w3.org/2000/svg">
  <path d="M 19 12.52 C 18.733 12.519 18.477 12.411 18.29 12.22 L 12.52 6.427 L 12.52 19.31 C 12.52 19.862 12.072 20.31 11.52 20.31 C 10.968 20.31 10.52 19.862 10.52 19.31 L 10.52 6.41 L 4.71 12.22 C 4.523 12.411 4.267 12.519 4 12.52 C 3.23 12.524 2.744 11.694 3.125 11.025 C 3.17 10.946 3.226 10.874 3.29 10.81 L 10.804 3.296 C 10.806 3.294 10.808 3.292 10.81 3.29 C 11.2 2.902 11.83 2.902 12.22 3.29 C 12.222 3.292 12.224 3.294 12.226 3.296 L 19.74 10.81 C 20.287 11.352 20.043 12.282 19.3 12.485 C 19.202 12.512 19.101 12.524 19 12.52 Z"></path>
</svg>
