<svg xmlns="http://www.w3.org/2000/svg" viewBox="0 0 24 24">
  <title>filled-navigation-directiontbottom</title>
  <g>
    <rect width="24" height="24" style="fill: red;opacity: 0"/>
    <g>
      <path d="M12.48,20.93a1,1,0,0,1-1-1V4.69a1,1,0,1,1,2,0V19.93A1,1,0,0,1,12.48,20.93Z"/>
      <path d="M12.48,21a1,1,0,0,1-.7-.29L4.26,13.19a1,1,0,0,1,0-1.41,1,1,0,0,1,1.42,0l7.51,7.51A1,1,0,0,1,12.48,21Z"/>
      <path d="M12.48,21a1,1,0,0,1-.7-1.71l7.51-7.51a1,1,0,0,1,1.42,0,1,1,0,0,1,0,1.41l-7.52,7.52A1,1,0,0,1,12.48,21Z"/>
    </g>
  </g>
</svg>
