<svg xmlns="http://www.w3.org/2000/svg" viewBox="0 0 24 24">
  <title>filled-navigation-directionleft</title>
  <g>
    <rect width="24" height="24" style="fill: red;opacity: 0"/>
    <g>
      <path d="M19.31,13.48H4.07a1,1,0,0,1,0-2H19.31a1,1,0,0,1,0,2Z"/>
      <path d="M4,13.48a1,1,0,0,1-.71-.29,1,1,0,0,1,0-1.41l7.52-7.52a1,1,0,0,1,1.41,1.41L4.71,13.19A1,1,0,0,1,4,13.48Z"/>
      <path d="M11.52,21a1,1,0,0,1-.71-.29L3.29,13.19a1,1,0,0,1,0-1.41,1,1,0,0,1,1.42,0l7.51,7.51a1,1,0,0,1-.7,1.71Z"/>
    </g>
  </g>
</svg>
