<svg xmlns="http://www.w3.org/2000/svg" viewBox="0 0 24 24">
  <title>filled-navigation-directiontop</title>
  <g>
    <g style="opacity: 0">
      <rect width="24" height="24"/>
    </g>
    <g>
      <path d="M11.52,20.31a1,1,0,0,1-1-1V4.07a1,1,0,0,1,2,0V19.31A1,1,0,0,1,11.52,20.31Z"/>
      <path d="M19,12.52a1,1,0,0,1-.71-.3L10.81,4.71a1,1,0,0,1,0-1.42,1,1,0,0,1,1.41,0l7.52,7.52A1,1,0,0,1,19,12.52Z"/>
      <path d="M4,12.52a1,1,0,0,1-.71-1.71l7.52-7.52a1,1,0,0,1,1.41,0,1,1,0,0,1,0,1.42L4.71,12.22A1,1,0,0,1,4,12.52Z"/>
    </g>
  </g>
</svg>
