<svg xmlns="http://www.w3.org/2000/svg" viewBox="0 0 24 24"><path d="M22.88 13.77l-1.6-7.26v-.09A2.26 2.26 0 0 0 19.2 5H3.26A2.21 2.21 0 0 0 1 7.16v7.36a2.22 2.22 0 0 0 1.89 2.16 2.22 2.22 0 0 0 4.34.1h9a2.15 2.15 0 0 0 2.17 1.7 2.24 2.24 0 0 0 2.17-1.7h.28a2.14 2.14 0 0 0 1.79-.95 2.34 2.34 0 0 0 .24-2.06zm-1.6-3h-3.5V7.65h2.83zM5.05 17.64a1.32 1.32 0 0 1 0-2.64 1.32 1.32 0 0 1 .08 2.64zm13.2 0a1.32 1.32 0 1 1 1.32-1.32 1.29 1.29 0 0 1-1.25 1.32h-.07zm3.59-2.36a1.23 1.23 0 0 1-1.13.56h-.28a2.14 2.14 0 0 0-2.17-1.7 2.32 2.32 0 0 0-2.17 1.7H7.22a2.14 2.14 0 0 0-2.17-1.7 2.32 2.32 0 0 0-2.16 1.7 1.32 1.32 0 0 1-1-1.31V7.26a1.37 1.37 0 0 1 1.37-1.41H19.2a1.37 1.37 0 0 1 1.23.75h-3.12a.45.45 0 0 0-.47.42v4.1a.46.46 0 0 0 .42.48h4.2l.47 2.26V14a1.13 1.13 0 0 1-.09 1.32z"/><path d="M5.06 18.52a2.24 2.24 0 0 1-2.19-1.8A2.25 2.25 0 0 1 1 14.53V7.17a2.17 2.17 0 0 1 .67-1.57A2.17 2.17 0 0 1 3.21 5h16a2.25 2.25 0 0 1 2.1 1.43v.09l1.6 7.25a2.37 2.37 0 0 1-.29 2.1 2.15 2.15 0 0 1-1.8.95h-.27a2.25 2.25 0 0 1-2.19 1.7h-.08a2.16 2.16 0 0 1-2.11-1.7H7.24a2.25 2.25 0 0 1-1.75 1.67 3 3 0 0 1-.43.03zM3.21 5a2.18 2.18 0 0 0-1.51.6A2.24 2.24 0 0 0 1 7.17v7.36a2.22 2.22 0 0 0 1.87 2.14 2.19 2.19 0 0 0 2.15 1.78 2 2 0 0 0 .42 0 2.2 2.2 0 0 0 1.76-1.67h9a2.09 2.09 0 0 0 2.06 1.68h.08a2.21 2.21 0 0 0 2.15-1.68h.31a2.09 2.09 0 0 0 1.76-.93 2.33 2.33 0 0 0 .28-2.05l-1.6-7.26v-.1A2.2 2.2 0 0 0 19.2 5h-16zm1.88 12.66a1.35 1.35 0 0 1 0-2.69 1.35 1.35 0 0 1 1.35 1.31 1.32 1.32 0 0 1-.37 1 1.34 1.34 0 0 1-.94.42zm0-2.64a1.3 1.3 0 0 0-1.26 1.26 1.32 1.32 0 0 0 .36.93 1.29 1.29 0 0 0 .9.4h.08a1.3 1.3 0 0 0 1.26-1.33 1.27 1.27 0 0 0-.41-.9 1.29 1.29 0 0 0-.93-.38zm13.16 2.64a1.34 1.34 0 0 1-.94-.42 1.41 1.41 0 0 1-.37-1A1.36 1.36 0 0 1 18.25 15a1.38 1.38 0 0 1 1.35 1.35 1.31 1.31 0 0 1-1.28 1.34zm0-.05h.07a1.26 1.26 0 0 0 .88-.39 1.24 1.24 0 0 0 .35-.9 1.33 1.33 0 0 0-1.3-1.3A1.3 1.3 0 0 0 17 16.28a1.32 1.32 0 0 0 .36.93 1.29 1.29 0 0 0 .89.4zM2.9 15.88a1.36 1.36 0 0 1-1-1.35V7.26a1.39 1.39 0 0 1 1.36-1.44h16a1.37 1.37 0 0 1 1.24.77h-3.21a.43.43 0 0 0-.42.4v4.1a.41.41 0 0 0 .39.45h4.22l.52 2.31V14a1.14 1.14 0 0 1-.1 1.34 1.28 1.28 0 0 1-1.06.57h-.39a2.09 2.09 0 0 0-2.06-1.68h-.08a2.27 2.27 0 0 0-2.14 1.68H7.2a2.11 2.11 0 0 0-2.07-1.68h-.07a2.28 2.28 0 0 0-2.15 1.68zm17.55-.06h.35a1.24 1.24 0 0 0 1-.55 1.1 1.1 0 0 0 .11-1.27v-.1l-.47-2.24h-4.18a.46.46 0 0 1-.44-.5V7a.48.48 0 0 1 .47-.42h3.1a1.35 1.35 0 0 0-1.18-.7H3.26A1.34 1.34 0 0 0 2 7.26v7.27a1.3 1.3 0 0 0 .9 1.28 2.33 2.33 0 0 1 2.18-1.69h.08a2.14 2.14 0 0 1 2.11 1.7h8.83a2.33 2.33 0 0 1 2.19-1.7h.08a2.16 2.16 0 0 1 2.08 1.7zm.86-5h-3.55v-3.2h2.87zm-3.5 0h3.44l-.66-3.06h-2.78z"/><path d="M6.38 6.79c-.1-.09-.19-.09-.38-.09H3.17a.43.43 0 0 0-.47.42v4.1a.33.33 0 0 0 .29.37H5.9a.43.43 0 0 0 .47-.41v-4c.1-.18.1-.29.01-.39zm-.85 4H3.64V7.65h1.89z"/><path d="M3 11.62a.35.35 0 0 1-.31-.4V7.17a.47.47 0 0 1 .46-.45H6c.19 0 .29 0 .39.1.1.11.11.21 0 .4v4a.48.48 0 0 1-.47.44H3zm.11-4.9a.42.42 0 0 0-.41.4v4.05a.3.3 0 0 0 .26.35h2.97a.42.42 0 0 0 .42-.39v-4c.1-.2.08-.27 0-.35s-.16-.06-.35-.06H3.14zm2.41 4.06h-1.9V7.62h1.93zm-1.88 0H5.5V7.67H3.67zM10.9 6.7H7.6a.43.43 0 0 0-.47.42v4.1a.45.45 0 0 0 .42.48h3.26a.46.46 0 0 0 .47-.42V7.17a.39.39 0 0 0-.28-.46zm-.47 4.05H8.07v-3.1h2.36z"/><path d="M10.83 11.72H7.55a.49.49 0 0 1-.45-.5v-4.1a.49.49 0 0 1 .47-.45H11a.42.42 0 0 1 .29.49v4.11a.46.46 0 0 1-.46.45zm0-.05a.42.42 0 0 0 .42-.39V7.17a.36.36 0 0 0-.25-.44H7.57a.43.43 0 0 0-.42.4v4.1a.43.43 0 0 0 .4.45zm-.36-.89H8.05V7.62h2.41zm-2.35 0h2.3V7.67H8.1zm7.59-4.08H12.5a.43.43 0 0 0-.47.42v4.1a.43.43 0 0 0 .42.47h3.26a.46.46 0 0 0 .47-.42v-4.1a.44.44 0 0 0-.42-.47zm-.47 4.05h-2.36v-3.1h2.36z"/><path d="M15.73 11.72h-3.28a.48.48 0 0 1-.45-.5v-4.1a.49.49 0 0 1 .47-.45h3.29a.47.47 0 0 1 .44.5v4.11a.46.46 0 0 1-.47.44zm0-.05a.42.42 0 0 0 .42-.39V7.17a.42.42 0 0 0-.39-.45h-3.29a.43.43 0 0 0-.42.4v4.1a.43.43 0 0 0 .4.45zm-.45-.89h-2.4V7.62h2.4zm-2.35 0h2.3V7.67h-2.3z"/></svg>