<svg xmlns="http://www.w3.org/2000/svg" viewBox="0 0 24 24">
  <title>outlined-place-waze</title>
  <g>
    <g style="opacity: 0">
      <g>
        <rect width="24" height="24"/>
        <g>
          <circle cx="12" cy="12" r="9"/>
          <path d="M12,21.5A9.5,9.5,0,1,1,21.5,12,9.51,9.51,0,0,1,12,21.5Zm0-18A8.5,8.5,0,1,0,20.5,12,8.51,8.51,0,0,0,12,3.5Z"/>
        </g>
      </g>
    </g>
    <g>
      <g>
        <path d="M11.89,9.41a.85.85,0,0,1-1.69,0,.85.85,0,0,1,.85-.85h0a.84.84,0,0,1,.84.83v0"/>
        <path d="M16.44,9.41a.85.85,0,0,1-1.69,0,.85.85,0,0,1,.85-.85h0a.8.8,0,0,1,.84.76v.09"/>
      </g>
      <g>
        <path d="M8.35,20.92a2.1,2.1,0,0,1-2.09-2.09h0a2.08,2.08,0,0,1,2.09-2.09h0a2.09,2.09,0,0,1,0,4.18ZM7.26,18.83a1.09,1.09,0,1,0,2.17,0,1.08,1.08,0,0,0-1.08-1.09h0a1.09,1.09,0,0,0-1.09,1.09Z"/>
        <path d="M15.33,20.92a2.12,2.12,0,0,1-2.08-2.08h0a2.09,2.09,0,1,1,2.08,2.09Zm-1.08-2.1a1.13,1.13,0,0,0,1.1,1.1,1.09,1.09,0,1,0-1.1-1.1Z"/>
        <path d="M13.34,14.67a3.69,3.69,0,0,1-3.51-2.51.5.5,0,0,1,.94-.32,2.71,2.71,0,0,0,2.57,1.83h0A2.77,2.77,0,0,0,16,11.83a.49.49,0,0,1,.64-.3.5.5,0,0,1,.3.64,3.77,3.77,0,0,1-3.54,2.5Z"/>
        <path d="M11.84,19a7.91,7.91,0,0,1-2.15-.3.49.49,0,0,1-.34-.61.5.5,0,0,1,.61-.35,6.86,6.86,0,0,0,3.76,0,.5.5,0,0,1,.61.35.49.49,0,0,1-.34.61A7.91,7.91,0,0,1,11.84,19Z"/>
        <path d="M16.44,18.11a.5.5,0,0,1-.18-1,6.9,6.9,0,0,0,3.9-4,6.11,6.11,0,0,0-.84-5.62,7.71,7.71,0,0,0-7-3C9.76,4.9,6.78,6.67,6.19,9.71A10.29,10.29,0,0,0,6,11.07c-.12,1.66-.27,3.67-2.3,3.94a6.42,6.42,0,0,0,2.51,1.76,4.86,4.86,0,0,0,1,.35.52.52,0,0,1,.35.62.5.5,0,0,1-.61.35,6.2,6.2,0,0,1-1.09-.4,7.47,7.47,0,0,1-3.2-2.42.53.53,0,0,1-.06-.1,1.15,1.15,0,0,1-.1-.48.43.43,0,0,1,.06-.22A.74.74,0,0,1,3.27,14c1.32,0,1.6-.76,1.77-3a10.83,10.83,0,0,1,.17-1.48C5.89,6,9.28,4,12.14,3.57a8.68,8.68,0,0,1,8,3.37,7,7,0,0,1,1,6.55,7.91,7.91,0,0,1-4.47,4.58A.41.41,0,0,1,16.44,18.11ZM3.27,15Z"/>
      </g>
    </g>
  </g>
</svg>
