<svg xmlns="http://www.w3.org/2000/svg" xmlns:xlink="http://www.w3.org/1999/xlink" viewBox="0 0 24 24">
  <defs>
    <clipPath id="a">
      <rect width="24" height="24"/>
    </clipPath>
  </defs>
  <title>outlined-place-bus</title>
  <g>
    <g style="opacity: 0">
      <g>
        <rect width="24" height="24"/>
        <g style="clip-path: url(#a)">
          <g>
            <rect width="24" height="24"/>
            <path d="M12,21.5A9.5,9.5,0,1,1,21.5,12,9.51,9.51,0,0,1,12,21.5Zm0-18A8.5,8.5,0,1,0,20.5,12,8.51,8.51,0,0,0,12,3.5Z"/>
          </g>
        </g>
      </g>
    </g>
    <g>
      <g>
        <path d="M22.88,13.77l-1.6-7.26V6.42A2.26,2.26,0,0,0,19.2,5H3.26A2.21,2.21,0,0,0,1,7.16H1v7.36a2.22,2.22,0,0,0,1.89,2.16,2.22,2.22,0,0,0,4.34.1h9a2.15,2.15,0,0,0,2.17,1.7,2.24,2.24,0,0,0,2.17-1.7h.28a2.14,2.14,0,0,0,1.79-.95A2.34,2.34,0,0,0,22.88,13.77Zm-1.6-3h-3.5V7.65h2.83ZM5.05,17.64a1.32,1.32,0,0,1,0-2.64h0a1.32,1.32,0,0,1,.08,2.64Zm13.2,0a1.32,1.32,0,1,1,1.32-1.32,1.29,1.29,0,0,1-1.25,1.32h-.07Zm3.59-2.36a1.23,1.23,0,0,1-1.13.56h-.28a2.14,2.14,0,0,0-2.17-1.7,2.32,2.32,0,0,0-2.17,1.7H7.22a2.14,2.14,0,0,0-2.17-1.7,2.32,2.32,0,0,0-2.16,1.7,1.32,1.32,0,0,1-1-1.31V7.26A1.37,1.37,0,0,1,3.26,5.85H19.2a1.37,1.37,0,0,1,1.23.75H17.31a.45.45,0,0,0-.47.42h0v4.1a.46.46,0,0,0,.42.48h4.2l.47,2.26V14a1.13,1.13,0,0,1-.09,1.32Z"/>
        <path d="M5.06,18.52a2.24,2.24,0,0,1-2.19-1.8A2.25,2.25,0,0,1,1,14.53V7.17A2.17,2.17,0,0,1,1.67,5.6,2.17,2.17,0,0,1,3.21,5h16a2.25,2.25,0,0,1,2.1,1.43h0v.09l1.6,7.25a2.37,2.37,0,0,1-.29,2.1,2.15,2.15,0,0,1-1.8.95h-.27a2.25,2.25,0,0,1-2.19,1.7h-.08a2.16,2.16,0,0,1-2.11-1.7H7.24a2.25,2.25,0,0,1-1.75,1.67A3,3,0,0,1,5.06,18.52ZM3.21,5a2.18,2.18,0,0,0-1.51.6A2.24,2.24,0,0,0,1,7.17v7.36a2.22,2.22,0,0,0,1.87,2.14h0v0a2.19,2.19,0,0,0,2.15,1.78,2,2,0,0,0,.42,0A2.2,2.2,0,0,0,7.2,16.78v0h9v0a2.09,2.09,0,0,0,2.06,1.68h.08a2.21,2.21,0,0,0,2.15-1.68v0h.31a2.09,2.09,0,0,0,1.76-.93,2.33,2.33,0,0,0,.28-2.05h0l-1.6-7.26v-.1A2.2,2.2,0,0,0,19.2,5h-16ZM5.09,17.66h0a1.35,1.35,0,0,1,0-2.69h0a1.35,1.35,0,0,1,1.35,1.31,1.32,1.32,0,0,1-.37,1,1.34,1.34,0,0,1-.94.42Zm0-2.64h0a1.3,1.3,0,0,0-1.26,1.26,1.32,1.32,0,0,0,.36.93,1.29,1.29,0,0,0,.9.4h.08a1.3,1.3,0,0,0,1.26-1.33,1.27,1.27,0,0,0-.41-.9A1.29,1.29,0,0,0,5.09,15Zm13.16,2.64h0a1.34,1.34,0,0,1-.94-.42,1.41,1.41,0,0,1-.37-1A1.36,1.36,0,0,1,18.25,15a1.38,1.38,0,0,1,1.35,1.35,1.31,1.31,0,0,1-1.28,1.34Zm0-.05h.07a1.26,1.26,0,0,0,.88-.39,1.24,1.24,0,0,0,.35-.9,1.33,1.33,0,0,0-1.3-1.3A1.3,1.3,0,0,0,17,16.28a1.32,1.32,0,0,0,.36.93A1.29,1.29,0,0,0,18.25,17.61ZM2.9,15.88h0a1.36,1.36,0,0,1-1-1.35V7.26A1.39,1.39,0,0,1,3.26,5.82h16a1.37,1.37,0,0,1,1.24.77l0,0H17.29a.43.43,0,0,0-.42.4v4.1a.41.41,0,0,0,.39.45h4.22v0L22,13.85V14a1.14,1.14,0,0,1-.1,1.34h0a1.28,1.28,0,0,1-1.06.57h-.39v0a2.09,2.09,0,0,0-2.06-1.68h-.08a2.27,2.27,0,0,0-2.14,1.68v0H7.2v0a2.11,2.11,0,0,0-2.07-1.68H5.06a2.28,2.28,0,0,0-2.15,1.68Zm17.55-.06h.35a1.24,1.24,0,0,0,1-.55h0A1.1,1.1,0,0,0,21.91,14h0v-.1l-.47-2.24H17.26a.46.46,0,0,1-.44-.5V7a.48.48,0,0,1,.47-.42h3.1a1.35,1.35,0,0,0-1.18-.7H3.26A1.34,1.34,0,0,0,2,7.26v7.27a1.3,1.3,0,0,0,.9,1.28,2.33,2.33,0,0,1,2.18-1.69h.08a2.14,2.14,0,0,1,2.11,1.7h8.83a2.33,2.33,0,0,1,2.19-1.7h.08A2.16,2.16,0,0,1,20.45,15.82Zm.86-5H17.76V7.62h2.87Zm-3.5,0h3.44l-.66-3.06H17.81Z"/>
      </g>
      <g>
        <path d="M6.38,6.79C6.28,6.7,6.19,6.7,6,6.7H3.17a.43.43,0,0,0-.47.42v4.1a.33.33,0,0,0,.29.37H5.9a.43.43,0,0,0,.47-.41v-4C6.47,7,6.47,6.89,6.38,6.79Zm-.85,4H3.64V7.65H5.53Z"/>
        <path d="M3,11.62H3a.35.35,0,0,1-.31-.4V7.17a0,0,0,0,1,0,0,.47.47,0,0,1,.46-.45H6c.19,0,.29,0,.39.1h0c.1.11.11.21,0,.4v4a.48.48,0,0,1-.47.44H3Zm.11-4.9a.42.42,0,0,0-.41.4,0,0,0,0,0,0,0v4.05a.3.3,0,0,0,.26.35H5.93a.42.42,0,0,0,.42-.39v-4c.1-.2.08-.27,0-.35S6.19,6.72,6,6.72H3.14Zm2.41,4.06H3.62V7.62H5.55Zm-1.88,0H5.5V7.67H3.67Z"/>
      </g>
      <g>
        <path d="M10.9,6.7H7.6a.43.43,0,0,0-.47.42h0v4.1a.45.45,0,0,0,.42.48h3.26a.46.46,0,0,0,.47-.42V7.17A.39.39,0,0,0,11,6.71Zm-.47,4.05H8.07V7.65h2.36Z"/>
        <path d="M10.83,11.72H7.55a.49.49,0,0,1-.45-.5V7.12a.49.49,0,0,1,.47-.45H11a.42.42,0,0,1,.29.49v4.11A.46.46,0,0,1,10.83,11.72Zm0-.05h0a.42.42,0,0,0,.42-.39V7.17A.36.36,0,0,0,11,6.73H7.57a.43.43,0,0,0-.42.4v4.1a.43.43,0,0,0,.4.45Zm-.36-.89H8.05V7.62h2.41Zm-2.35,0h2.3V7.67H8.1Z"/>
      </g>
      <g>
        <path d="M15.71,6.7H12.5a.43.43,0,0,0-.47.42h0v4.1a.43.43,0,0,0,.42.47h3.26a.46.46,0,0,0,.47-.42V7.17a.44.44,0,0,0-.42-.47Zm-.47,4.05H12.88V7.65h2.36Z"/>
        <path d="M15.73,11.72H12.45a.48.48,0,0,1-.45-.5V7.12a.49.49,0,0,1,.47-.45h3.29a.47.47,0,0,1,.44.5v4.11A.46.46,0,0,1,15.73,11.72Zm0-.05h0a.42.42,0,0,0,.42-.39V7.17a.42.42,0,0,0-.39-.45H12.47a.43.43,0,0,0-.42.4v4.1a.43.43,0,0,0,.4.45Zm-.45-.89h-2.4V7.62h2.4Zm-2.35,0h2.3V7.67h-2.3Z"/>
      </g>
    </g>
  </g>
</svg>
