<svg xmlns="http://www.w3.org/2000/svg" xmlns:xlink="http://www.w3.org/1999/xlink" viewBox="0 0 24 24">
  <defs>
    <clipPath id="a">
      <rect width="24" height="24"/>
    </clipPath>
  </defs>
  <title>outlined-place-forklift</title>
  <g>
    <g style="opacity: 0">
      <g>
        <rect width="24" height="24"/>
        <g style="clip-path: url(#a)">
          <g>
            <rect width="24" height="24"/>
            <path d="M12,21.5A9.5,9.5,0,1,1,21.5,12,9.51,9.51,0,0,1,12,21.5Zm0-18A8.5,8.5,0,1,0,20.5,12,8.51,8.51,0,0,0,12,3.5Z"/>
          </g>
        </g>
      </g>
    </g>
    <g>
      <path d="M4,17.77H3.18A1.74,1.74,0,0,1,1.5,16v-3.2A1.75,1.75,0,0,1,3.23,11h.92V4.37a.93.93,0,0,1,.62-.81A.5.5,0,0,1,5,3.5h5.31a.86.86,0,0,1,.8.56L13.48,11h.92a1.82,1.82,0,0,1,1.28.61,1.79,1.79,0,0,1,.45,1.14h2.6a.5.5,0,0,1,.5.5.51.51,0,0,1-.5.5h-3.1a.5.5,0,0,1-.5-.5v-.37a.84.84,0,0,0-.2-.61.79.79,0,0,0-.55-.27H13.12a.51.51,0,0,1-.47-.34L10.22,4.5H5.15v7a.5.5,0,0,1-.5.5H3.24a.74.74,0,0,0-.74.73V16a.74.74,0,0,0,.7.79H4a.51.51,0,0,1,.5.5A.5.5,0,0,1,4,17.77Z"/>
      <path d="M14.39,17.87h-.71a.51.51,0,0,1-.5-.5.5.5,0,0,1,.5-.5h.71a.74.74,0,0,0,.74-.74.55.55,0,0,1,.5-.55h3.1a.5.5,0,0,1,.5.5.5.5,0,0,1-.5.5H16.06A1.73,1.73,0,0,1,14.39,17.87Z"/>
      <rect x="15.13" y="13.22" width="1" height="2.86"/>
      <rect x="7.4" y="16.87" width="2.57" height="1"/>
      <path d="M12.92,12H3.68a.51.51,0,0,1-.5-.5.5.5,0,0,1,.5-.5h9.24a.5.5,0,0,1,.5.5A.5.5,0,0,1,12.92,12Z"/>
      <path d="M5.63,19.71a2.16,2.16,0,0,1,0-4.32,2.16,2.16,0,0,1,0,4.32Zm0-3.32a1.16,1.16,0,0,0,0,2.32,1.16,1.16,0,0,0,0-2.32Z"/>
      <path d="M11.73,19.71a2.16,2.16,0,1,1,2.1-2.16A2.13,2.13,0,0,1,11.73,19.71Zm0-3.32a1.16,1.16,0,1,0,1.1,1.16A1.13,1.13,0,0,0,11.73,16.39Z"/>
      <path d="M22,18.79H18.23V4.55a.5.5,0,0,1,.5-.5.51.51,0,0,1,.5.5V17.79H22a.5.5,0,0,1,.5.5A.5.5,0,0,1,22,18.79Z"/>
    </g>
  </g>
</svg>
