<svg xmlns="http://www.w3.org/2000/svg" viewBox="0 0 24 24">
  <title>outlined-navigation-directiontbottom</title>
  <g>
    <g style="opacity: 0">
      <rect width="24" height="24"/>
      <g>
        <circle cx="12" cy="12" r="9"/>
        <path d="M12,21.5A9.5,9.5,0,1,1,21.5,12,9.51,9.51,0,0,1,12,21.5Zm0-18A8.5,8.5,0,1,0,20.5,12,8.51,8.51,0,0,0,12,3.5Z"/>
      </g>
    </g>
    <g>
      <path d="M12.48,20.93a1,1,0,0,1-1-1V4.69a1,1,0,1,1,2,0V19.93A1,1,0,0,1,12.48,20.93Z"/>
      <path d="M12.48,21a1,1,0,0,1-.7-.29L4.26,13.19a1,1,0,0,1,0-1.41,1,1,0,0,1,1.42,0l7.51,7.51A1,1,0,0,1,12.48,21Z"/>
      <path d="M12.48,21a1,1,0,0,1-.7-1.71l7.51-7.51a1,1,0,0,1,1.42,0,1,1,0,0,1,0,1.41l-7.52,7.52A1,1,0,0,1,12.48,21Z"/>
    </g>
  </g>
</svg>
