<svg xmlns="http://www.w3.org/2000/svg" viewBox="0 0 24 24">
  <title>outlined-navigation-directionleft</title>
  <g>
    <g style="opacity: 0">
      <rect width="24" height="24"/>
      <g>
        <circle cx="12" cy="12" r="9"/>
        <path d="M12,21.5A9.5,9.5,0,1,1,21.5,12,9.51,9.51,0,0,1,12,21.5Zm0-18A8.5,8.5,0,1,0,20.5,12,8.51,8.51,0,0,0,12,3.5Z"/>
      </g>
    </g>
    <g>
      <path d="M19.31,13.48H4.07a1,1,0,0,1,0-2H19.31a1,1,0,0,1,0,2Z"/>
      <path d="M4,13.48a1,1,0,0,1-.71-.29,1,1,0,0,1,0-1.41l7.52-7.52a1,1,0,0,1,1.41,1.41L4.71,13.19A1,1,0,0,1,4,13.48Z"/>
      <path d="M11.52,21a1,1,0,0,1-.71-.29L3.29,13.19a1,1,0,0,1,0-1.41,1,1,0,0,1,1.42,0l7.51,7.51a1,1,0,0,1-.7,1.71Z"/>
    </g>
  </g>
</svg>
