<svg xmlns="http://www.w3.org/2000/svg" xmlns:xlink="http://www.w3.org/1999/xlink" viewBox="0 0 24 24">
  <defs>
    <clipPath id="a">
      <rect width="24" height="24" style="fill: none"/>
    </clipPath>
  </defs>
  <title>outlined-communication-speaker</title>
  <g>
    <g style="opacity: 0">
      <g style="clip-path: url(#a)">
        <g>
          <rect width="24" height="24" style="fill: #ebebea"/>
          <path d="M12,21.5A9.5,9.5,0,1,1,21.5,12,9.51,9.51,0,0,1,12,21.5Zm0-18A8.5,8.5,0,1,0,20.5,12,8.51,8.51,0,0,0,12,3.5Z" style="fill: #afaeae"/>
        </g>
      </g>
    </g>
    <g>
      <path d="M11,13.85H4.17a.5.5,0,0,1-.5-.5V7a.5.5,0,0,1,.5-.5H11a.5.5,0,0,1,.5.5v6.33A.51.51,0,0,1,11,13.85Zm-6.31-1h5.81V7.52H4.67Z"/>
      <path d="M4.17,12.88a2.67,2.67,0,0,1,0-5.34.5.5,0,0,1,.5.5.5.5,0,0,1-.5.5,1.67,1.67,0,0,0,0,3.34.5.5,0,0,1,0,1Z"/>
      <path d="M20.13,12.52a.5.5,0,0,1,0-1,1.37,1.37,0,0,0,1.34-1.34,1.38,1.38,0,0,0-1.34-1.4.5.5,0,1,1,0-1,2.37,2.37,0,0,1,0,4.74Z"/>
      <path d="M8.27,20.23H6.76A2.25,2.25,0,0,1,4.7,17.78v-4a.5.5,0,0,1,.5-.5.5.5,0,0,1,.5.5v4a1.27,1.27,0,0,0,1.12,1.4H8.15l1-5.38a.5.5,0,0,1,1,.19l-1,5.42A.84.84,0,0,1,8.27,20.23Zm-.13-.92a.11.11,0,0,0,0,.05Z"/>
      <path d="M19.39,16.82a1.26,1.26,0,0,1-1-.45A9.76,9.76,0,0,0,11,12.94h0a.5.5,0,0,1,0-1,10.75,10.75,0,0,1,8.21,3.79.24.24,0,0,0,.17.09.2.2,0,0,0,.18-.05.25.25,0,0,0,.09-.2V4.73a.25.25,0,0,0-.28-.23.25.25,0,0,0-.18.08A10.62,10.62,0,0,1,11,8.36H11a.5.5,0,0,1,0-1h0a9.67,9.67,0,0,0,7.4-3.44,1.26,1.26,0,0,1,2.2.78V15.57a1.23,1.23,0,0,1-1.24,1.25Z"/>
    </g>
  </g>
</svg>
