<svg xmlns="http://www.w3.org/2000/svg" xmlns:xlink="http://www.w3.org/1999/xlink" viewBox="0 0 24 24">
  <defs>
    <clipPath id="a">
      <rect width="24" height="24" style="fill: none"/>
    </clipPath>
  </defs>
  <title>outlined-communication-treatment</title>
  <g style="clip-path: url(#a)">
    <g>
      <g style="opacity: 0">
        <g>
          <rect width="24" height="24" style="fill: #ebebea"/>
          <g>
            <circle cx="12" cy="12" r="9"/>
            <path d="M12,21.5A9.5,9.5,0,1,1,21.5,12,9.51,9.51,0,0,1,12,21.5Zm0-18A8.5,8.5,0,1,0,20.5,12,8.51,8.51,0,0,0,12,3.5Z" style="fill: #afaeae"/>
          </g>
        </g>
      </g>
      <path d="M19.23,9.7H19A6.72,6.72,0,0,0,12.36,4,6.89,6.89,0,0,0,5.57,9.7H5.42A2.64,2.64,0,0,0,3,12.5a2.64,2.64,0,0,0,2.42,2.81h1.4V10.86a5.54,5.54,0,0,1,11.08,0v5a2.46,2.46,0,0,1-2.19,2.42,1.79,1.79,0,0,0-1.56-.78A1.71,1.71,0,0,0,12.36,19a1.67,1.67,0,0,0,1.79,1.48,1.77,1.77,0,0,0,1.56-.86,3.75,3.75,0,0,0,3.44-3.74v-.55h.07a2.64,2.64,0,0,0,2.43-2.81A2.65,2.65,0,0,0,19.23,9.7ZM4.17,12.5c0-.94.55-1.64,1.25-1.64H5.5v3.28H5.42C4.72,14.14,4.17,13.44,4.17,12.5Zm10,6.79c-.39,0-.63-.16-.63-.31s.24-.32.63-.32.62.16.62.32-.31.31-.62.31Zm5.07-5.15h-.08V10.86h.08c.62,0,1.25.78,1.25,1.64s-.55,1.64-1.25,1.64Z"/>
    </g>
  </g>
</svg>
