<svg xmlns="http://www.w3.org/2000/svg" xmlns:xlink="http://www.w3.org/1999/xlink" viewBox="0 0 24 24">
  <defs>
    <clipPath id="a">
      <rect width="24" height="24" style="fill: none"/>
    </clipPath>
  </defs>
  <title>outlined-communication-message</title>
  <g style="clip-path: url(#a)">
    <g>
      <g style="opacity: 0">
        <g>
          <rect width="24" height="24" style="fill: none"/>
          <path d="M12,21.5A9.5,9.5,0,1,1,21.5,12,9.51,9.51,0,0,1,12,21.5Zm0-18A8.5,8.5,0,1,0,20.5,12,8.51,8.51,0,0,0,12,3.5Z" style="fill: #afaeae"/>
        </g>
      </g>
      <path d="M5,20a.47.47,0,0,1-.28-.09.49.49,0,0,1-.22-.46l.23-2.79A7.39,7.39,0,0,1,2.5,11.43c0-4.38,4.08-7.93,9.09-7.93s9.1,3.55,9.1,7.92-4.08,7.92-9.09,7.92a10.69,10.69,0,0,1-3.86-.75l-2.51,1.3A.49.49,0,0,1,5,20ZM11.59,4.5C7.13,4.5,3.5,7.6,3.5,11.42A6.37,6.37,0,0,0,5.58,16a.47.47,0,0,1,.16.41l-.17,2.14,1.91-1a.5.5,0,0,1,.43,0,9.28,9.28,0,0,0,3.67.76h0c4.47,0,8.1-3.1,8.1-6.92S16.05,4.5,11.59,4.5Z"/>
    </g>
  </g>
</svg>
