<svg xmlns="http://www.w3.org/2000/svg" viewBox="0 0 24 24"><path d="M12 21.55A9.55 9.55 0 1 1 21.55 12 9.56 9.56 0 0 1 12 21.55zm0-18A8.45 8.45 0 1 0 20.45 12 8.46 8.46 0 0 0 12 3.55z"/><path d="M12 14.1a.5.5 0 0 1-.5-.5 3.83 3.83 0 0 1 1.64-3.07c.62-.56 1-.93 1-1.58A2.19 2.19 0 0 0 12 6.75 2.16 2.16 0 0 0 9.8 8.7a.51.51 0 0 1-.55.45.5.5 0 0 1-.45-.55A3.15 3.15 0 0 1 12 5.75 3.18 3.18 0 0 1 15.15 9a3.06 3.06 0 0 1-1.35 2.33 2.87 2.87 0 0 0-1.3 2.32.5.5 0 0 1-.5.45z"/><circle cx="12" cy="16.8" r=".8"/><path d="M12 17.6a.8.8 0 1 1 .8-.8.8.8 0 0 1-.8.8zm0-1a.2.2 0 0 0-.2.2c0 .22.4.22.4 0a.2.2 0 0 0-.2-.2z"/></svg>