<svg xmlns="http://www.w3.org/2000/svg" viewBox="0 0 24 24"><defs><clipPath id="a"><path d="M0 0h24v24H0z"/></clipPath></defs><g clip-path="url(#a)"><path d="M5 20a.47.47 0 0 1-.28-.09.49.49 0 0 1-.22-.46l.23-2.79a7.39 7.39 0 0 1-2.23-5.23c0-4.38 4.08-7.93 9.09-7.93s9.1 3.55 9.1 7.92-4.08 7.92-9.09 7.92a10.69 10.69 0 0 1-3.86-.75l-2.51 1.3A.49.49 0 0 1 5 20zm6.59-15.5c-4.46 0-8.09 3.1-8.09 6.92A6.37 6.37 0 0 0 5.58 16a.47.47 0 0 1 .16.41l-.17 2.14 1.91-1a.5.5 0 0 1 .43 0 9.28 9.28 0 0 0 3.67.76c4.47 0 8.1-3.1 8.1-6.92S16.05 4.5 11.59 4.5z"/></g></svg>