<svg xmlns="http://www.w3.org/2000/svg" xmlns:xlink="http://www.w3.org/1999/xlink" viewBox="0 0 24 24">
  <defs>
    <clipPath id="a">
      <rect width="24" height="24" style="fill: none"/>
    </clipPath>
  </defs>
  <title>outlined-communication-signal</title>
  <g>
    <g style="opacity: 0">
      <g style="clip-path: url(#a)">
        <g>
          <rect width="24" height="24" style="fill: #ebebea"/>
          <path d="M12,21.5A9.5,9.5,0,1,1,21.5,12,9.51,9.51,0,0,1,12,21.5Zm0-18A8.5,8.5,0,1,0,20.5,12,8.51,8.51,0,0,0,12,3.5Z" style="fill: #afaeae"/>
        </g>
      </g>
    </g>
    <g>
      <path d="M12,13a2.5,2.5,0,1,1,2.5-2.5A2.51,2.51,0,0,1,12,13Zm0-4a1.5,1.5,0,1,0,1.5,1.5A1.5,1.5,0,0,0,12,9Z"/>
      <path d="M12,21a.5.5,0,0,1-.5-.5v-8a.5.5,0,0,1,1,0v8A.5.5,0,0,1,12,21Z"/>
      <g>
        <path d="M7,18.39a.57.57,0,0,1-.28-.08,9.33,9.33,0,0,1-2.65-2.66A9.45,9.45,0,0,1,6.72,2.58a.5.5,0,0,1,.56.84A8.43,8.43,0,0,0,4.9,15.1a8.27,8.27,0,0,0,2.38,2.37.51.51,0,0,1,.14.7A.52.52,0,0,1,7,18.39Z"/>
        <path d="M17,18.39a.52.52,0,0,1-.42-.22.51.51,0,0,1,.14-.7A8.43,8.43,0,0,0,19.1,5.79a8.27,8.27,0,0,0-2.38-2.37.5.5,0,0,1,.56-.84,9.45,9.45,0,0,1,0,15.73A.57.57,0,0,1,17,18.39Z"/>
      </g>
      <g>
        <path d="M15,16.73a.51.51,0,0,1-.45-.27.5.5,0,0,1,.22-.67,6,6,0,0,0,0-10.69.5.5,0,0,1-.22-.67.51.51,0,0,1,.68-.22,7,7,0,0,1,3.05,3.05,7,7,0,0,1-3.05,9.42A.48.48,0,0,1,15,16.73Z"/>
        <path d="M9,16.73a.48.48,0,0,1-.23-.05,7,7,0,0,1-3-3A7,7,0,0,1,8.77,4.21a.51.51,0,0,1,.68.22.5.5,0,0,1-.22.67,6,6,0,0,0,0,10.69.5.5,0,0,1,.22.67A.51.51,0,0,1,9,16.73Z"/>
      </g>
    </g>
  </g>
</svg>
