<svg xmlns="http://www.w3.org/2000/svg" xmlns:xlink="http://www.w3.org/1999/xlink" viewBox="0 0 24 24">
  <defs>
    <clipPath id="a">
      <rect width="24" height="24" style="fill: none"/>
    </clipPath>
  </defs>
  <title>outlined-communication-help</title>
  <g>
    <g style="opacity: 0">
      <g style="clip-path: url(#a)">
        <g>
          <rect width="24" height="24" style="fill: #ebebea"/>
          <path d="M12,21.5A9.5,9.5,0,1,1,21.5,12,9.51,9.51,0,0,1,12,21.5Zm0-18A8.5,8.5,0,1,0,20.5,12,8.51,8.51,0,0,0,12,3.5Z" style="fill: #afaeae"/>
        </g>
      </g>
    </g>
    <g>
      <path d="M12,21.55A9.55,9.55,0,1,1,21.55,12,9.56,9.56,0,0,1,12,21.55Zm0-18A8.45,8.45,0,1,0,20.45,12,8.46,8.46,0,0,0,12,3.55Z"/>
      <g>
        <path d="M12,14.1a.5.5,0,0,1-.5-.5,3.83,3.83,0,0,1,1.64-3.07c.62-.56,1-.93,1-1.58A2.19,2.19,0,0,0,12,6.75h0A2.16,2.16,0,0,0,9.8,8.7a.51.51,0,0,1-.55.45A.5.5,0,0,1,8.8,8.6,3.15,3.15,0,0,1,12,5.75h0A3.18,3.18,0,0,1,15.15,9a3.06,3.06,0,0,1-1.35,2.33,2.87,2.87,0,0,0-1.3,2.32A.5.5,0,0,1,12,14.1Z"/>
        <g>
          <circle cx="12" cy="16.8" r="0.8"/>
          <path d="M12,17.6a.8.8,0,1,1,.8-.8A.8.8,0,0,1,12,17.6Zm0-1a.2.2,0,0,0-.2.2c0,.22.4.22.4,0A.2.2,0,0,0,12,16.6Z"/>
        </g>
      </g>
    </g>
  </g>
</svg>
