<svg xmlns="http://www.w3.org/2000/svg" xmlns:xlink="http://www.w3.org/1999/xlink" viewBox="0 0 24 24">
  <defs>
    <clipPath id="a">
      <rect width="24" height="24" style="fill: none"/>
    </clipPath>
  </defs>
  <title>outlined-communication-readEmail</title>
  <g>
    <g style="opacity: 0">
      <g style="clip-path: url(#a)">
        <g>
          <rect width="24" height="24" style="fill: #ebebea"/>
          <path d="M12,21.5A9.5,9.5,0,1,1,21.5,12,9.51,9.51,0,0,1,12,21.5Zm0-18A8.5,8.5,0,1,0,20.5,12,8.51,8.51,0,0,0,12,3.5Z" style="fill: #afaeae"/>
        </g>
      </g>
    </g>
    <g>
      <path d="M17.79,18.71H6.6a2,2,0,0,1-2.1-1.94v-6.4a.94.94,0,0,1,.14-.5,1,1,0,0,1,.62-.44A1,1,0,0,1,6,9.55l.34.19L8.85,11l3,1.61a.79.79,0,0,0,.73,0l5.76-3.11a.84.84,0,0,1,.54-.15,1,1,0,0,1,1,1v6.37a2,2,0,0,1-2,2Zm-11.22-1H17.79a1,1,0,0,0,1-1V10.37l-.35.24L13,13.53a1.78,1.78,0,0,1-1.68,0l-3-1.61L5.5,10.41v6.34a1,1,0,0,0,.33.69A1,1,0,0,0,6.57,17.71Z"/>
      <path d="M17.31,11a.5.5,0,0,1-.5-.5V6.25a.68.68,0,0,0-.54-.76H7.91c-.25,0-.45.33-.45.75v4.22a.5.5,0,0,1-1,0V6.25A1.58,1.58,0,0,1,7.91,4.5h8.44A1.65,1.65,0,0,1,17.8,6.3v4.17A.5.5,0,0,1,17.31,11Z"/>
      <path d="M15.1,8.06H9.17a.5.5,0,0,1,0-1H15.1a.5.5,0,1,1,0,1Z"/>
      <path d="M15.1,10.32H9.17a.5.5,0,0,1-.5-.5.5.5,0,0,1,.5-.5H15.1a.51.51,0,0,1,.5.5A.5.5,0,0,1,15.1,10.32Z"/>
    </g>
  </g>
</svg>
