<svg xmlns="http://www.w3.org/2000/svg" xmlns:xlink="http://www.w3.org/1999/xlink" viewBox="0 0 24 24">
  <defs>
    <clipPath id="a">
      <rect width="24" height="24" style="fill: none"/>
    </clipPath>
  </defs>
  <title>outlined-communication-chat</title>
  <g>
    <g style="opacity: 0">
      <g style="clip-path: url(#a)">
        <g>
          <rect width="24" height="24" style="fill: #ebebea"/>
          <path d="M12,21.5A9.5,9.5,0,1,1,21.5,12,9.51,9.51,0,0,1,12,21.5Zm0-18A8.5,8.5,0,1,0,20.5,12,8.51,8.51,0,0,0,12,3.5Z" style="fill: #afaeae"/>
        </g>
      </g>
    </g>
    <g>
      <path d="M3.64,18.54a.47.47,0,0,1-.28-.09A.49.49,0,0,1,3.14,18l.21-2.33a6.27,6.27,0,0,1-1.85-4.4C1.5,7.53,5,4.5,9.25,4.5s7.69,3.06,7.69,6.81-3.47,6.76-7.75,6.76a9.27,9.27,0,0,1-3.25-.65L3.87,18.48A.49.49,0,0,1,3.64,18.54Zm5.61-13C5.53,5.5,2.5,8.08,2.5,11.26A5.28,5.28,0,0,0,4.21,15.1a.52.52,0,0,1,.16.41l-.15,1.67,1.47-.75a.5.5,0,0,1,.43,0,8.14,8.14,0,0,0,3.08.66c3.72,0,6.74-2.58,6.74-5.76S12.94,5.5,9.25,5.5Z"/>
      <path d="M20.83,17.43a.59.59,0,0,1-.23-.05l-1.37-.72a6.25,6.25,0,0,1-2.26.42,5.59,5.59,0,0,1-1.47-.19.5.5,0,0,1-.36-.61.51.51,0,0,1,.61-.36,4.59,4.59,0,0,0,1.22.16,5.22,5.22,0,0,0,2.09-.43.51.51,0,0,1,.42,0l.76.4-.08-.9a.47.47,0,0,1,.16-.42,3.55,3.55,0,0,0,1.18-2.57,4.09,4.09,0,0,0-3.91-3.81A1.92,1.92,0,0,0,17,8.31a.52.52,0,0,1-.53-.47.5.5,0,0,1,.47-.53,2.62,2.62,0,0,1,.79.07,5.07,5.07,0,0,1,4.77,4.78,4.54,4.54,0,0,1-1.32,3.15l.15,1.57a.51.51,0,0,1-.22.47A.54.54,0,0,1,20.83,17.43Z"/>
    </g>
  </g>
</svg>
