<svg xmlns="http://www.w3.org/2000/svg" xmlns:xlink="http://www.w3.org/1999/xlink" viewBox="0 0 24 24">
  <defs>
    <clipPath id="a">
      <rect width="24" height="24" style="fill: none"/>
    </clipPath>
  </defs>
  <title>outlined-communication-email</title>
  <g style="clip-path: url(#a)">
    <g>
      <g style="opacity: 0">
        <g>
          <rect width="24" height="24" style="fill: none"/>
          <path d="M12,21.5A9.5,9.5,0,1,1,21.5,12,9.51,9.51,0,0,1,12,21.5Zm0-18A8.5,8.5,0,1,0,20.5,12,8.51,8.51,0,0,0,12,3.5Z" style="fill: #afaeae"/>
        </g>
      </g>
      <g>
        <path d="M17.75,18.12H6.12a2.63,2.63,0,0,1-2.63-2.63V8.12A2.63,2.63,0,0,1,6.12,5.49H17.76a2.63,2.63,0,0,1,2.62,2.63v7.37A2.63,2.63,0,0,1,17.75,18.12ZM6.12,6.51A1.61,1.61,0,0,0,4.51,8.12v7.37A1.61,1.61,0,0,0,6.12,17.1H17.75a1.61,1.61,0,0,0,1.61-1.61V8.12a1.61,1.61,0,0,0-1.6-1.61Z"/>
        <path d="M11.94,13a2.52,2.52,0,0,1-1.69-.65L4.29,7,5,6.25l6,5.38a1.51,1.51,0,0,0,2,0l6-5.39.67.74-6,5.39A2.52,2.52,0,0,1,11.94,13Z"/>
      </g>
    </g>
  </g>
</svg>
