<?xml version="1.0" standalone="no"?>
<!DOCTYPE svg PUBLIC "-//W3C//DTD SVG 1.1//EN" "http://www.w3.org/Graphics/SVG/1.1/DTD/svg11.dtd" >
<svg xmlns="http://www.w3.org/2000/svg">
<defs>
  <font id="natds-icons" horiz-adv-x="600">
    <font-face font-family="natds-icons"
      units-per-em="600" ascent="600"
      descent="0" />
    <missing-glyph horiz-adv-x="0" />
    <glyph glyph-name="filled-action-add"
      unicode="&#xEA01;"
      horiz-adv-x="600" d="M450 275H150A25 25 0 0 0 150 325H450A25 25 0 0 0 450 275zM300 125A25 25 0 0 0 275 150V450A25 25 0 0 0 325 450V150A25 25 0 0 0 300 125z" />
    <glyph glyph-name="filled-action-cancel"
      unicode="&#xEA02;"
      horiz-adv-x="600" d="M300 525A225 225 0 1 1 525 300A225 225 0 0 1 300 525zM408.7500000000001 208.75A12.000000000000002 12.000000000000002 0 0 0 408.7500000000001 191.25A12.000000000000002 12.000000000000002 0 0 0 391.2500000000001 191.25L300 282.25L208.75 191.25A12.000000000000002 12.000000000000002 0 0 0 191.25 191.25A12.000000000000002 12.000000000000002 0 0 0 191.25 208.75L282.25 300L191.25 391.25A12.25 12.25 0 0 0 208.75 408.75L300 317.75L391.25 408.75A12.25 12.25 0 0 0 408.7500000000001 391.2500000000001L317.75 300z" />
    <glyph glyph-name="filled-action-check"
      unicode="&#xEA03;"
      horiz-adv-x="600" d="M300 525A225 225 0 1 1 525 300A225 225 0 0 1 300 525zM458.7500000000001 391.25L269.7500000000001 202A12.749999999999998 12.749999999999998 0 0 0 260.7500000000001 198.25A12.25 12.25 0 0 0 252.0000000000001 202L141.2500000000001 312.75A12.5 12.5 0 0 0 141.2500000000001 330.5A12.5 12.5 0 0 0 158.7500000000001 330.5L260.7500000000001 228.5L441.2500000000001 408.75A12.25 12.25 0 1 0 458.7500000000001 391.25z" />
    <glyph glyph-name="filled-action-rating"
      unicode="&#xEA04;"
      horiz-adv-x="600" d="M313.5 509.75L367 403.25A12.749999999999998 12.749999999999998 0 0 1 378.25 396L498.25 379.5A14.249999999999998 14.249999999999998 0 0 0 509.9999999999999 363.75A15.5 15.5 0 0 0 505.7499999999999 355.5L419 271A11 11 0 0 1 415.25 258.25L435.5 138.75A13.5 13.5 0 0 0 424.25 122.75A12.5 12.5 0 0 0 415.25 124L308 179A14.249999999999998 14.249999999999998 0 0 1 295.25 179L188 125A14.000000000000002 14.000000000000002 0 0 0 169.25 130.75A12.749999999999998 12.749999999999998 0 0 0 167.75 139.75L188 257.25A17.499999999999996 17.499999999999996 0 0 1 184.25 270.25L97.25 353.75A14.000000000000002 14.000000000000002 0 0 0 97.25 373.25A12.749999999999998 12.749999999999998 0 0 0 105.5 377.5L225 394A16.25 16.25 0 0 1 236.25 401.5L289.75 509.75A12.749999999999998 12.749999999999998 0 0 0 306.25 517.25A12.5 12.5 0 0 0 313.5 509.75z" />
    <glyph glyph-name="filled-action-subtract"
      unicode="&#xEA05;"
      horiz-adv-x="600" d="M450 275H150A25 25 0 0 0 150 325H450A25 25 0 0 0 450 275z" />
    <glyph glyph-name="filled-brand-naturarosacea"
      unicode="&#xEA06;"
      horiz-adv-x="600" d="M462 375A392.75 392.75 0 0 0 443.75 319.25S443.75 317.75 443.75 319.25C449.75 322 476.4999999999999 335.25 504.7500000000001 347.25S585.5 358.75 572.0000000000001 301S490.5000000000001 209.25 483.7500000000001 205.75S469.0000000000001 199 465.7500000000001 197S463.7500000000001 195.25 465.7500000000001 194.75C473.0000000000001 192.75 497.2500000000001 194.75 497.0000000000001 184S479.0000000000001 155.25 432.2500000000001 135.5A165.25 165.25 0 0 0 328.7500000000001 126S302.2500000000001 101 235.5000000000001 112C187.2500000000001 120.25 175.25 125 164.5000000000001 137A16.25 16.25 0 0 0 164.5000000000001 155.5V159A200 200 0 0 0 31.7500000000001 248.5A27.25 27.25 0 0 0 30.2500000000001 279C36.0000000000001 287.5 55.2500000000001 288.25 75.2500000000001 283.25L114.5000000000001 273.25C116.2500000000001 273.25 116.2500000000001 273.25 114.5000000000001 274.5A541.2499999999999 541.2499999999999 0 0 0 79.0000000000001 322C62.2500000000001 347 41.2500000000001 417 96.0000000000001 445.5C156.5000000000001 477 209.2500000000001 420.5 221.0000000000001 407.25S252.0000000000001 366.7500000000001 253.7500000000001 364S257.5000000000001 364 257.5000000000001 364A551.25 551.25 0 0 0 284.5000000000001 439A101.75000000000001 101.75000000000001 0 0 0 390.5000000000001 492.5C465.5000000000001 478.75 467.7500000000001 403.75 461.7500000000002 376.5000000000001M386.7500000000002 436.0000000000001C344.5000000000002 448.7500000000001 318.2500000000002 417.7500000000001 306.0000000000001 378.2500000000001C296.2500000000001 346.5000000000001 294.2500000000001 338.0000000000001 288.5000000000002 321.5000000000001C280.5000000000002 298.2500000000001 261.0000000000002 296.5000000000001 245.7500000000002 314.5000000000001S204.25 365 191 380C175 400 132.75 416.25 112 390.75C80.5 352 122.25 308.7500000000001 144.25 282.75C159.5 264.5 177.75 251.75 171.75 241.5C169.5 237.5 164.75 236.25 158.5 236.5A738.75 738.75 0 0 0 80.75 252.5000000000001C70.5 254.2500000000001 63 253.7500000000001 60.25 246.2500000000001S69.5 211.7500000000001 102.5 194.7500000000001A386.75000000000006 386.75000000000006 0 0 1 193.5000000000001 168.5000000000001C212.75 164.5000000000001 208.75 155.25 204.5 150.5000000000001S194.7500000000001 142.5000000000001 195.7500000000001 138.0000000000001C198.5000000000001 125.7500000000001 224.7500000000001 123.2500000000001 240.2500000000001 120.7500000000001A96.75000000000001 96.75000000000001 0 0 1 288.75 122.5000000000001C302.25 127.7500000000001 303 135.0000000000001 312.25 138.75S329 138.75 355.5 134.25A162 162 0 0 1 419.25 140.5C450 150.75 462.7499999999999 160.5000000000001 462.7499999999999 165.5S457.4999999999999 170.5 451.9999999999999 171.2500000000001A120.99999999999999 120.99999999999999 0 0 0 415.5 180.75C408 185.5000000000001 413.5 194.25 429.25 200.5A363.24999999999994 363.24999999999994 0 0 1 514 244.25C532.75 261 550.7499999999999 289 534.7499999999999 305.25S491.4999999999999 305.25 476.4999999999999 297.75A625 625 0 0 0 412.9999999999999 269.25C403.2499999999999 267.25 384.9999999999999 267.75 393.5 289.75C403.9999999999999 316.75 409.25 333.25 415.5 349.75C423.7499999999999 370 435.2499999999999 419.75 385.5 434.75" />
    <glyph glyph-name="filled-media-pause"
      unicode="&#xEA07;"
      horiz-adv-x="600" d="M150 525H250A25 25 0 0 0 275 500V100A25 25 0 0 0 250 75H150A25 25 0 0 0 125 100V500A25 25 0 0 0 150 525zM350 525H450A25 25 0 0 0 475 500V100A25 25 0 0 0 450 75H350A25 25 0 0 0 325 100V500A25 25 0 0 0 350 525z" />
    <glyph glyph-name="filled-media-play"
      unicode="&#xEA08;"
      horiz-adv-x="600" d="M100 105.5V494.5A27.25 27.25 0 0 0 125 525A25 25 0 0 0 139.25 522.5L484.9999999999999 330A32.25 32.25 0 0 0 494.9999999999999 285.5A28.75 28.75 0 0 0 485.2499999999999 275.5L139.25 78.25A27.5 27.5 0 0 0 100 105.5z" />
    <glyph glyph-name="filled-navigation-directionleft"
      unicode="&#xEA09;"
      horiz-adv-x="600" d="M482.7499999999999 263H101.75A25 25 0 0 0 101.75 313H482.7500000000001A25 25 0 0 0 482.7500000000001 263zM100 263A25 25 0 0 0 82.25 270.25A25 25 0 0 0 82.25 305.5L270.25 493.4999999999999A25 25 0 0 0 305.5 458.2499999999999L117.75 270.25A25 25 0 0 0 100 263zM288 75A25 25 0 0 0 270.25 82.25L82.25 270.25A25 25 0 0 0 82.25 305.5A25 25 0 0 0 117.75 305.5L305.5 117.75A25 25 0 0 0 288 75z" />
    <glyph glyph-name="filled-navigation-directionright"
      unicode="&#xEA0A;"
      horiz-adv-x="600" d="M498.25 287H117.25A25 25 0 1 0 117.25 337H498.25A25 25 0 0 0 498.25 287zM312 100A25 25 0 0 0 294.5 142.5L482.25 330.5A25 25 0 0 0 517.75 330.5A25 25 0 0 0 517.75 295.25L329.7500000000001 107.25A25 25 0 0 0 312 100zM500 287A25 25 0 0 0 482.25 294.5L294.5 482.25A25 25 0 0 0 294.5 517.75A25 25 0 0 0 329.75 517.75L517.75 329.7500000000001A25 25 0 0 0 500 287z" />
    <glyph glyph-name="filled-navigation-directiontbottom"
      unicode="&#xEA0B;"
      horiz-adv-x="600" d="M312 76.75A25 25 0 0 0 287 101.75V482.75A25 25 0 1 0 337 482.75V101.75A25 25 0 0 0 312 76.75zM312 75A25 25 0 0 0 294.5 82.25L106.5 270.25A25 25 0 0 0 106.5 305.5A25 25 0 0 0 142 305.5L329.7500000000001 117.75A25 25 0 0 0 312 75zM312 75A25 25 0 0 0 294.5 117.75L482.25 305.5A25 25 0 0 0 517.75 305.5A25 25 0 0 0 517.75 270.25L329.7500000000001 82.25A25 25 0 0 0 312 75z" />
    <glyph glyph-name="filled-navigation-directiontop"
      unicode="&#xEA0C;"
      horiz-adv-x="600" d="M288 92.2500000000001A25 25 0 0 0 263 117.2500000000001V498.25A25 25 0 0 0 313 498.25V117.25A25 25 0 0 0 288 92.2499999999999zM475 287A25 25 0 0 0 457.25 294.5L270.25 482.25A25 25 0 0 0 270.25 517.75A25 25 0 0 0 305.5 517.75L493.4999999999999 329.7500000000001A25 25 0 0 0 475 287zM100 287A25 25 0 0 0 82.25 329.7500000000001L270.25 517.75A25 25 0 0 0 305.5 517.75A25 25 0 0 0 305.5 482.25L117.75 294.5A25 25 0 0 0 100 287z" />
    <glyph glyph-name="filled-navigation-menu"
      unicode="&#xEA0D;"
      horiz-adv-x="600" d="M500 375H100A25 25 0 0 0 100 425H500A25 25 0 0 0 500 375zM500 275H100A25 25 0 0 0 100 325H500A25 25 0 0 0 500 275zM500 175H100A25 25 0 0 0 100 225H500A25 25 0 0 0 500 175z" />
    <glyph glyph-name="filled-navigation-more"
      unicode="&#xEA0E;"
      horiz-adv-x="600" d="M250 150A50 50 0 1 0 300 100A50 50 0 0 0 250 150zM250 300A50 50 0 1 0 300 250A50 50 0 0 0 250 300zM250 450A50 50 0 1 0 300 400A50 50 0 0 0 250 450z" />
    <glyph glyph-name="outlined-communication-occurrence"
      unicode="&#xEA0F;"
      horiz-adv-x="600" d="M300 448.5A12.5 12.5 0 0 0 287.5 461V525A12.5 12.5 0 0 0 312.5 525V461A12.5 12.5 0 0 0 300 448.5zM168 396A11.749999999999998 11.749999999999998 0 0 0 159.25 400L113.5 445.25A12.25 12.25 0 0 0 113.5 462.75A12.5 12.5 0 0 0 131.25 462.75L176.75 417.5A12.5 12.5 0 0 0 176.75 399.75A11.749999999999998 11.749999999999998 0 0 0 168 396zM432 396A12.25 12.25 0 0 0 423.25 400A12.5 12.5 0 0 0 423.25 417.75L468.9999999999999 463.25A12.5 12.5 0 0 0 486.75 463.25A12.25 12.25 0 0 0 486.75 445.75L440.75 400A11.749999999999998 11.749999999999998 0 0 0 432 396zM525 269.75H485.25A12.5 12.5 0 0 0 485.25 294.75H525A12.5 12.5 0 0 0 525 269.75zM114.75 269.75H75A12.5 12.5 0 0 0 75 294.75H114.75A12.5 12.5 0 0 0 114.75 269.75zM425 144.75V157.25V144.75H176.75A12.749999999999998 12.749999999999998 0 0 0 164.25 157.25V289.25A135.25 135.25 0 0 0 300 421A134.25 134.25 0 0 0 436.75 290V157.25A12.000000000000002 12.000000000000002 0 0 0 432.75 148.25A12.25 12.25 0 0 0 425 144.75zM189.5 169.75H412.5V289.75A108.49999999999999 108.49999999999999 0 0 1 300 396A109.5 109.5 0 0 1 188.25 289zM494.0000000000001 62.5H106A12.5 12.5 0 0 0 93.5 75V112A57.75000000000001 57.75000000000001 0 0 0 152 168.5000000000001H448.25A58.25000000000001 58.25000000000001 0 0 0 506.4999999999999 112.2500000000001V75A12.5 12.5 0 0 0 493.9999999999999 62.5zM119.0000000000001 87.5H481.5000000000001V112.5A33.25 33.25 0 0 1 448.5000000000001 144.0000000000001H151.75A32.75 32.75 0 0 1 118.5 112zM325 144.75H275A12.5 12.5 0 0 0 262.5 157.25V272.25A37.5 37.5 0 0 0 337.5 272.25V156.5A12.5 12.5 0 0 0 334 147.7499999999999A13.25 13.25 0 0 0 325 144.7499999999999zM287.5 169.75H312.5V272.25A13.25 13.25 0 0 1 299.75 284A12.749999999999998 12.749999999999998 0 0 1 287.5 271.75z" />
    <glyph glyph-name="outlined-content-adddocument"
      unicode="&#xEA10;"
      horiz-adv-x="600" d="M314.5 231.5H198A12.5 12.5 0 0 0 198 256.5H314.5A12.5 12.5 0 0 0 314.5 231.5zM373 301.75H198A12.5 12.5 0 0 0 198 326.75H373A12.5 12.5 0 1 0 373 301.75zM373 372H198A12.5 12.5 0 0 0 185.5 384.5A12.5 12.5 0 0 0 198 397H373A12.749999999999998 12.749999999999998 0 0 0 385.5 384.5A12.5 12.5 0 0 0 373 372zM154 97.75A41.5 41.5 0 0 0 112.5 139.25V489.25A41.75 41.75 0 0 0 154 531H416.5A41.5 41.5 0 0 0 458.2499999999999 490V256.0000000000001H433.25V490A17.000000000000004 17.000000000000004 0 0 1 428.5 501.75A16.5 16.5 0 0 1 416.75 506.5H154.25A16.75 16.75 0 0 1 137.5 489.75V139.75A15.750000000000002 15.750000000000002 0 0 1 142.5 128A15.750000000000002 15.750000000000002 0 0 1 154.25 123.25H300V98.25H154zM387.5 56A112.5 112.5 0 1 0 500 168.5A112.5 112.5 0 0 0 387.5 56zM387.5 256A87.5 87.5 0 1 1 475 168.5A87.5 87.5 0 0 1 387.5 256zM431.25 156H343.75A12.5 12.5 0 0 0 331.25 168.5A12.5 12.5 0 0 0 343.75 181H431.25A12.5 12.5 0 0 0 443.75 168.5A12.5 12.5 0 0 0 431.25 156zM387.5 112.2499999999999A12.5 12.5 0 0 0 375 125V212.5A12.5 12.5 0 1 0 400 212.5V125A12.5 12.5 0 0 0 387.5 112.2499999999999z" />
    <glyph glyph-name="outlined-content-agility"
      unicode="&#xEA11;"
      horiz-adv-x="600" d="M271.25 100A12.5 12.5 0 0 0 258.75 112.5A12.5 12.5 0 0 0 271.25 125A193.25 193.25 0 0 1 355.75 493.25A193.25 193.25 0 0 1 97.5 404A12.5 12.5 0 0 0 75 415A218 218 0 0 0 366.75 515A218.25 218.25 0 0 0 271.25 100zM86.25 397A11.749999999999998 11.749999999999998 0 0 0 79.25 400A11.749999999999998 11.749999999999998 0 0 0 75 409.25L72 478.75A13.000000000000002 13.000000000000002 0 0 0 84.25 491.5A12.25 12.25 0 0 0 97 479.25L98.25 427.25L147 445.25A12.5 12.5 0 0 0 155.75 421.75L90.5 396.75zM280 306.7500000000001A12.749999999999998 12.749999999999998 0 0 0 267.5 319.2500000000001V375A12.749999999999998 12.749999999999998 0 0 0 280 387.5A12.5 12.5 0 0 0 292.5 375V320A12.5 12.5 0 0 0 280 306.7500000000001zM335 306.75H280A12.749999999999998 12.749999999999998 0 0 0 267.5 319.25A12.5 12.5 0 0 0 280 331.75H335A12.5 12.5 0 0 0 347.5 319.25A12.749999999999998 12.749999999999998 0 0 0 335 306.75zM280.75 191.25A128.25 128.25 0 1 0 408.7500000000001 319.25A128.25 128.25 0 0 0 280.75 191.25zM280.75 422.5A103.25 103.25 0 1 1 383.7500000000001 319.25A103.25 103.25 0 0 1 280.75 422.5zM525 100H75A12.5 12.5 0 0 0 75 125H525A12.5 12.5 0 0 0 525 100zM461.5 55.75A12.25 12.25 0 0 0 451.25 61A12.5 12.5 0 0 0 454.2500000000001 78.5L504.2500000000001 113.75L454.2500000000001 149A12.749999999999998 12.749999999999998 0 0 0 451.5000000000001 166.5A12.5 12.5 0 0 0 468.7500000000001 169.25L532.25 125A12.749999999999998 12.749999999999998 0 0 0 532.25 104.5L468.75 59A13.000000000000002 13.000000000000002 0 0 0 461.5 55.75z" />
    <glyph glyph-name="outlined-content-book"
      unicode="&#xEA12;"
      horiz-adv-x="600" d="M102.75 165.75C102.75 155.75 107.75 146 119.25 146A14.000000000000002 14.000000000000002 0 0 1 129 150L139 155A127.75000000000001 127.75000000000001 0 0 0 198 169.5A200 200 0 0 0 275 150L286.5 145A35.49999999999999 35.49999999999999 0 0 1 299.75 141.7500000000001A23.499999999999996 23.499999999999996 0 0 1 311.25 145L322.7500000000001 150A200 200 0 0 0 400 168.75A119.75 119.75 0 0 0 459.25 154L469.0000000000001 149A14.249999999999998 14.249999999999998 0 0 1 479 145.7500000000001A18.249999999999996 18.249999999999996 0 0 1 495.2499999999999 165.5V427A25 25 0 0 1 488.7499999999999 443.5A110 110 0 0 1 472.2499999999999 453.25A157.75 157.75 0 0 1 400 471.25A216.25000000000003 216.25000000000003 0 0 1 300 446.25A253.75000000000003 253.75000000000003 0 0 1 198 471.25A156.25 156.25 0 0 1 125 453.25A178.99999999999997 178.99999999999997 0 0 0 108.5 443.5A26.750000000000004 26.750000000000004 0 0 1 102 427zM311.5 423.75A228.75 228.75 0 0 0 400 446.75A125 125 0 0 0 459.25 432A67.50000000000001 67.50000000000001 0 0 0 469.0000000000001 425.25V180.25A144 144 0 0 1 400 196.75A247.75000000000003 247.75000000000003 0 0 1 313 177.0000000000001V423.75zM139 430.25A125 125 0 0 0 198.25 445A212.49999999999997 212.49999999999997 0 0 0 287 422V175A250 250 0 0 1 200 195.25A138.5 138.5 0 0 1 131 178.75V423.75C131 425.25 134.25 428.75 139.25 430.25z" />
    <glyph glyph-name="outlined-content-brightness"
      unicode="&#xEA13;"
      horiz-adv-x="600" d="M300 200A100 100 0 0 0 200 300A100 100 0 0 0 300 400A100 100 0 0 0 400 300A100 100 0 0 0 370.75 228.75A100 100 0 0 0 300 200zM220 300A79.75 79.75 0 1 1 300 381.25A79.75 79.75 0 0 1 219 300zM300 430A11.5 11.5 0 0 0 288.5 441.5V525A11.5 11.5 0 0 0 300 536.5A11.749999999999998 11.749999999999998 0 0 0 311.5 525V441.5A11.749999999999998 11.749999999999998 0 0 0 300 430zM300 66.25A11.250000000000002 11.250000000000002 0 0 0 288.5 77.75V161.25A11.5 11.5 0 0 0 300 172.75A11.749999999999998 11.749999999999998 0 0 0 311.5 161.25V77.75A11.5 11.5 0 0 0 300 66.25zM158.5 289.75H75A11.749999999999998 11.749999999999998 0 0 0 75 313H158.5A11.749999999999998 11.749999999999998 0 0 0 158.5 289.75zM522.25 289.75H438.75A11.749999999999998 11.749999999999998 0 0 0 438.75 313H522.25A11.749999999999998 11.749999999999998 0 0 0 522.25 289.75zM139.75 130.75A11.749999999999998 11.749999999999998 0 0 0 131.75 134.25A11.5 11.5 0 0 0 131.75 150.4999999999999L190.5 209.4999999999999A12.25 12.25 0 0 0 207 209.4999999999999A11.749999999999998 11.749999999999998 0 0 0 207 192.9999999999999L148 134.2499999999998A11.749999999999998 11.749999999999998 0 0 0 139.75 130.7499999999998zM398.5 389.25A11.749999999999998 11.749999999999998 0 0 0 390.25 392.75A11.5 11.5 0 0 0 390.25 409L450 468A11.5 11.5 0 1 0 466.2499999999999 451.75L406.5 392.75A11.749999999999998 11.749999999999998 0 0 0 398.5 389.25zM200 389.5A11 11 0 0 0 192 392.75L131.75 451.75A11.5 11.5 0 0 0 148 468L207 409A11.5 11.5 0 0 0 200 389.5000000000001zM457.5 130.75A11.749999999999998 11.749999999999998 0 0 0 449.2500000000001 134.25L390.2500000000001 193.25A11.5 11.5 0 0 0 390.2500000000001 209.5A11.749999999999998 11.749999999999998 0 0 0 406.7500000000001 209.5L465.5 150A11.5 11.5 0 0 0 465.5 133.7500000000001A11.250000000000002 11.250000000000002 0 0 0 457.5 130.75z" />
    <glyph glyph-name="outlined-content-changeview"
      unicode="&#xEA14;"
      horiz-adv-x="600" d="M295.25 90.5A11 11 0 0 0 284.25 101.5000000000001V500A11 11 0 0 0 306.2500000000001 500V101.5000000000001A11 11 0 0 0 295.2500000000001 90.5zM119.5 91A57.25 57.25 0 0 0 62.5 147.75V453.5A56.25 56.25 0 0 0 79.5 494A57.25 57.25 0 0 0 119.5 510.5H241A12.5 12.5 0 0 0 253.5 498A12.5 12.5 0 0 0 241 485.5H119.75A32 32 0 0 1 97 475A30.75 30.75 0 0 1 87.5 452.5V148.0000000000001A32.25 32.25 0 0 1 119.5 116H232.5000000000001A12.5 12.5 0 0 0 245.0000000000001 103.5A12.749999999999998 12.749999999999998 0 0 0 232.5000000000001 91H119.5zM416.5 103.7500000000001A12.5 12.5 0 0 0 429 116.2500000000001A12.5 12.5 0 0 0 441.5 103.7500000000001A12.5 12.5 0 0 0 429 91A12.5 12.5 0 0 0 416.5 103.7500000000001zM341.5 103.7500000000001A12.5 12.5 0 0 0 354 116.2500000000001A12.5 12.5 0 0 0 366.5 103.7500000000001A12.5 12.5 0 0 0 354 91A12.5 12.5 0 0 0 341.5 103.7500000000001zM491.5 107A12.749999999999998 12.749999999999998 0 0 0 488.25 115.25A12.749999999999998 12.749999999999998 0 0 0 492.5000000000001 125A12.25 12.25 0 0 0 510.2500000000001 125A12.000000000000002 12.000000000000002 0 0 0 513.5000000000001 116.7500000000001A12.749999999999998 12.749999999999998 0 0 0 509.5000000000001 107.2500000000001A13.75 13.75 0 0 0 501.0000000000001 104.0000000000001A12.749999999999998 12.749999999999998 0 0 0 491.7500000000001 107.0000000000001zM502.75 186.2500000000001A12.5 12.5 0 0 0 515.25 198.7500000000001A12.5 12.5 0 0 0 527.75 186.2500000000001A12.5 12.5 0 0 0 515.25 173.7500000000001A12.5 12.5 0 0 0 503 186.2500000000001zM502.75 261.2500000000001A12.749999999999998 12.749999999999998 0 0 0 515.25 273.7500000000001A12.5 12.5 0 0 0 527.75 261.2500000000001A12.5 12.5 0 0 0 515.25 248.7500000000001A12.5 12.5 0 0 0 503 261.2500000000001zM502.75 336.2500000000001A12.749999999999998 12.749999999999998 0 0 0 515.25 348.7500000000001A12.5 12.5 0 0 0 527.75 336.2500000000001A12.5 12.5 0 0 0 515.25 323.7500000000001A12.5 12.5 0 0 0 503 336.2500000000001zM502.75 411.2500000000001A12.5 12.5 0 0 0 515.25 423.7500000000001A12.5 12.5 0 0 0 527.75 411.2500000000001A12.5 12.5 0 0 0 515.25 398.7500000000001A12.5 12.5 0 0 0 503 411.2500000000001zM494.75 475A11.5 11.5 0 0 0 491.5 483.25A11.250000000000002 11.250000000000002 0 0 0 495.5 492.5A12.25 12.25 0 0 0 513 492.5A14.249999999999998 14.249999999999998 0 0 0 516.5 484A12.749999999999998 12.749999999999998 0 0 0 512.25 474.75A12.749999999999998 12.749999999999998 0 0 0 504 471.5A12.000000000000002 12.000000000000002 0 0 0 494.75 475zM419.75 498A12.749999999999998 12.749999999999998 0 0 0 432.25 510.5A12.5 12.5 0 0 0 444.75 498A12.5 12.5 0 0 0 432.25 485.5A12.5 12.5 0 0 0 420.5 498zM344.75 498A12.749999999999998 12.749999999999998 0 0 0 357.25 510.5A12.5 12.5 0 0 0 369.75 498A12.5 12.5 0 0 0 357.25 485.5A12.5 12.5 0 0 0 345.5 498z" />
    <glyph glyph-name="outlined-content-channel"
      unicode="&#xEA15;"
      horiz-adv-x="600" d="M300 37.5A262.5 262.5 0 1 0 562.5 300A262.75 262.75 0 0 0 300 37.5zM300 537.5A237.49999999999997 237.49999999999997 0 1 1 537.5 300A237.75 237.75 0 0 1 300 537.5zM263.25 195.75A50 50 0 0 0 213.25 245.75V352A50 50 0 0 0 220.25 377A50 50 0 0 0 250 400A51.75 51.75 0 0 0 288.5 394.75L378.5 343A50 50 0 0 0 399.5 322A50 50 0 0 0 378.5 253.5L288.5 201.75A51.25 51.25 0 0 0 263.5 195zM263.25 377.25H256.5A25 25 0 0 1 240.75 365.25A25 25 0 0 1 237.25 352.5V246.75A25 25 0 0 1 245 228.75A25 25 0 0 1 263 221.5A25 25 0 0 1 275.5 225L366.75 275A25 25 0 0 1 378 309.75A25 25 0 0 1 370 318.75L276.5 373.75A26.750000000000004 26.750000000000004 0 0 1 263.5 377.25z" />
    <glyph glyph-name="outlined-content-christmascard"
      unicode="&#xEA16;"
      horiz-adv-x="600" d="M482.5 386.5A6.75 6.75 0 0 1 475 381V54A16.25 16.25 0 0 0 459.9999999999999 39H132.5A16.25 16.25 0 0 0 117.5 54V129A6.500000000000001 6.500000000000001 0 0 1 112 136.5H110C105 136.5 100 134 100 131.5000000000001V56.5A33 33 0 0 1 132.5 25H459.9999999999999A33 33 0 0 1 492.5 57.5V382.5A12.25 12.25 0 0 1 482.5 386.5zM390 336.5A21.5 21.5 0 0 1 382.5 359L312.5 416.5A30 30 0 0 1 277.5 416.5L207.5 356.5A28.000000000000004 28.000000000000004 0 0 1 200 336.5A26.25 26.25 0 0 1 215 319.0000000000001C217.5 319.0000000000001 220 316.5000000000001 225 316.5000000000001L197.5 294.0000000000001A20.000000000000004 20.000000000000004 0 0 1 190 271.5000000000001A25 25 0 0 1 207.5 254.0000000000001C210 254.0000000000001 212.5 254.0000000000001 212.5 251.5000000000001L187.5 231.5000000000001A22.500000000000004 22.500000000000004 0 0 1 180 206.5000000000001A25 25 0 0 1 197.5 186.5A543.75 543.75 0 0 1 257.5 174L250 139.0000000000001A19.5 19.5 0 0 1 265 116.5000000000001A134 134 0 0 1 295 114.0000000000001A134 134 0 0 1 325 116.5000000000001A19.5 19.5 0 0 1 340 139.0000000000001L335 171.5000000000001A543.75 543.75 0 0 1 395 184.0000000000001A27.25 27.25 0 0 1 411.5 218.7500000000001A23.25 23.25 0 0 1 404.9999999999999 229.0000000000001L379.9999999999999 249.0000000000001C382.4999999999999 249.0000000000001 384.9999999999999 249.0000000000001 384.9999999999999 251.5000000000001A30.249999999999996 30.249999999999996 0 0 1 402.4999999999999 269.0000000000001A25 25 0 0 1 394.9999999999999 291.5000000000001L367.4999999999999 314.0000000000001C369.9999999999999 314.0000000000001 372.4999999999999 316.5000000000001 377.4999999999999 316.5000000000001A40.25 40.25 0 0 1 389.9999999999999 336.5000000000001zM322.5 134A184.75000000000003 184.75000000000003 0 0 0 270 134A2.5000000000000004 2.5000000000000004 0 0 0 267.5 136.5L272.5 171.5H317.5L325 136.5zM392.5 216.5C395 214 397.5 211.5 395 206.5S392.5 201.5 387.5 199A304.75 304.75 0 0 0 322.5 186.5H320A202.49999999999997 202.49999999999997 0 0 0 265 186.5H262.5A275 275 0 0 0 197.5 200Q193.75 200 190 207.5C187.5 212.5 190 215.0000000000001 192.5 217.5L227.5 245A264.25 264.25 0 0 1 352.5 245zM382.5 281.5A9.25 9.25 0 0 0 385 274A5.5 5.5 0 0 0 380 269A60.25 60.25 0 0 0 360 264A275 275 0 0 0 232.5 264C225 266.5 220 266.5 212.5 269A5.000000000000001 5.000000000000001 0 0 0 207.5 274A9.25 9.25 0 0 0 210 281.5L247.5 311.5A372.25 372.25 0 0 1 297.5 306.5A372.25 372.25 0 0 1 347.5 311.5zM375 339S375 336.5 370 334A77.25 77.25 0 0 0 347.5 329A236.25 236.25 0 0 0 245 329A94.5 94.5 0 0 0 220 334A5.5 5.5 0 0 0 215 339A7.5 7.5 0 0 0 217.5 344L287.5 404A11.250000000000002 11.250000000000002 0 0 0 300 404L370 344C375 341.5 375 339 375 339zM212.5 459A11.250000000000002 11.250000000000002 0 0 1 200 459L187.5 444L172.5 459A11.250000000000002 11.250000000000002 0 0 1 160 459A11.250000000000002 11.250000000000002 0 0 1 160 446.5L175 434L162.5 419A11.250000000000002 11.250000000000002 0 0 1 162.5 406.5C165 404 165 404 167.5 404S172.5 404 172.5 406.5L185 419L200 409C202.5 406.5 202.5 406.5 205 406.5S209.9999999999999 406.5 209.9999999999999 409A11.250000000000002 11.250000000000002 0 0 1 209.9999999999999 421.5L197.4999999999999 434L209.9999999999999 446.5C214.9999999999999 451.5 214.9999999999999 456.5 212.4999999999999 459zM402.5 391.5C405 389 405 389 407.5 389S412.4999999999999 389 412.4999999999999 391.5L424.9999999999999 404L437.4999999999999 391.5C440 389 440 389 442.4999999999999 389S447.4999999999999 389 447.4999999999999 391.5A11.250000000000002 11.250000000000002 0 0 1 447.4999999999999 404L434.9999999999999 416.5L447.4999999999999 429A11.250000000000002 11.250000000000002 0 0 1 447.4999999999999 441.5A11.250000000000002 11.250000000000002 0 0 1 434.9999999999999 441.5L422.4999999999999 429L409.9999999999999 441.5A11.250000000000002 11.250000000000002 0 0 1 397.4999999999999 441.5A11.250000000000002 11.250000000000002 0 0 1 397.4999999999999 429L409.9999999999999 416.5L397.4999999999999 404C399.9999999999999 401.5 399.9999999999999 396.5 402.4999999999999 391.5zM459.9999999999999 514V539A40.74999999999999 40.74999999999999 0 0 1 447.5 566.5A28.249999999999996 28.249999999999996 0 0 1 420 575L125 511.5A29.500000000000004 29.500000000000004 0 0 1 100 481.5V179A6.75 6.75 0 0 1 105.5 171.5H107.5A6.75 6.75 0 0 1 115 177.25V481.5A16.25 16.25 0 0 0 130 496.5H457.4999999999999A16.25 16.25 0 0 0 472.4999999999999 481.5V429A7.5 7.5 0 0 1 487.5 429V481.5A27.750000000000007 27.750000000000007 0 0 1 465.0000000000001 513.75zM445 514H207.5L422.5 559A30.75 30.75 0 0 0 437.5 556.5A15.25 15.25 0 0 0 445 541.5zM212.4999999999999 136.5A11.250000000000002 11.250000000000002 0 0 1 199.9999999999999 136.5L187.4999999999999 124L174.9999999999999 136.5A11.250000000000002 11.250000000000002 0 0 1 162.4999999999999 136.5A11.250000000000002 11.250000000000002 0 0 1 162.4999999999999 124L174.9999999999999 111.5L162.4999999999999 99A11.250000000000002 11.250000000000002 0 0 1 162.4999999999999 86.5C164.9999999999999 84 164.9999999999999 84 167.4999999999999 84S172.4999999999999 84 172.4999999999999 86.5L184.9999999999999 99L199.9999999999999 86.5C202.4999999999999 84 202.4999999999999 84 204.9999999999999 84S209.9999999999999 84 209.9999999999999 86.5A11.250000000000002 11.250000000000002 0 0 1 209.9999999999999 99L197.4999999999999 111.5L209.9999999999999 124C214.9999999999999 129 214.9999999999999 134 212.4999999999999 136.5zM150 275A11.250000000000002 11.250000000000002 0 0 1 137.5 275A11.250000000000002 11.250000000000002 0 0 1 137.5 262.5L145 255L137.5 250A11.250000000000002 11.250000000000002 0 0 1 137.5 237.5C140 235 140 235 142.5 235S147.5 235 147.5 237.5L155 245L162.5 237.5C165 235 165 235 167.5 235S172.5 235 172.5 237.5A11.250000000000002 11.250000000000002 0 0 1 172.5 250L165 257.5L175 265.0000000000001A11.250000000000002 11.250000000000002 0 0 1 175 277.5000000000001A11.250000000000002 11.250000000000002 0 0 1 162.5 277.5000000000001L155 270zM442.5 296.5C445 296.5 447.5 296.5 447.5 299A11.250000000000002 11.250000000000002 0 0 1 447.5 311.5L440 319L449.9999999999999 326.5A11.250000000000002 11.250000000000002 0 0 1 449.9999999999999 339A11.250000000000002 11.250000000000002 0 0 1 437.4999999999999 339L429.9999999999999 331.5L422.4999999999999 339A11.250000000000002 11.250000000000002 0 0 1 409.9999999999999 339A11.250000000000002 11.250000000000002 0 0 1 409.9999999999999 326.5L417.4999999999999 319L409.9999999999999 311.5A11.250000000000002 11.250000000000002 0 0 1 409.9999999999999 299C412.4999999999999 296.5 412.4999999999999 296.5 414.9999999999999 296.5S419.9999999999999 296.5 419.9999999999999 299L427.4999999999999 306.5L434.9999999999999 299A10.249999999999998 10.249999999999998 0 0 0 442.4999999999999 296.5zM385 114C387.5 111.4999999999999 387.5 111.4999999999999 390 111.4999999999999S395 111.4999999999999 395 114L407.5 126.5L420 114C422.5 111.4999999999999 422.5 111.4999999999999 424.9999999999999 111.4999999999999S429.9999999999999 111.4999999999999 429.9999999999999 114A11.250000000000002 11.250000000000002 0 0 1 429.9999999999999 126.5L417.4999999999999 139L429.9999999999999 151.5A8.749999999999998 8.749999999999998 0 0 1 417.4999999999999 164L409.9999999999999 149L397.4999999999999 161.5A8.749999999999998 8.749999999999998 0 0 1 384.9999999999999 149L397.4999999999999 136.5L384.9999999999999 124A6.25 6.25 0 0 1 384.9999999999999 116A3.0000000000000004 3.0000000000000004 0 0 0 384.9999999999999 114z" />
    <glyph glyph-name="outlined-content-consistency"
      unicode="&#xEA17;"
      horiz-adv-x="600" d="M300 37.5A262.5 262.5 0 1 0 562.5 300A262.75 262.75 0 0 0 300 37.5zM300 537.5A237.49999999999997 237.49999999999997 0 1 1 537.5 300A237.75 237.75 0 0 1 300 537.5zM262.5 300A37.5 37.5 0 0 1 337.5 300A37.5 37.5 0 0 1 262.5 300M300 262.5A37.5 37.5 0 1 0 337.5 300A37.5 37.5 0 0 0 300 262.5zM300 312.5A12.5 12.5 0 1 1 312.5 300A12.5 12.5 0 0 1 300 312.5zM460.25 313A12.5 12.5 0 0 0 448.0000000000001 323.5A150 150 0 0 1 152.0000000000001 323.5A12.5 12.5 0 0 0 127.0000000000001 327.5A175 175 0 0 0 472.5000000000001 327.5A12.749999999999998 12.749999999999998 0 0 0 462 313.25zM460.25 312.5A11.749999999999998 11.749999999999998 0 0 0 452.75 315L402.75 352.25A12.749999999999998 12.749999999999998 0 0 0 400.25 369.75A12.5 12.5 0 0 0 417.75 372.25L454.4999999999999 345L470.4999999999999 388A12.5 12.5 0 1 0 493.7499999999999 379.25L471.9999999999999 320.75A12.25 12.25 0 0 0 463.7499999999999 313zM300 125A175 175 0 0 0 127.25 272.5A12.5 12.5 0 0 0 152.25 276.5A150 150 0 0 1 448.25 276.5A12.5 12.5 0 0 0 462.5 286.75A12.749999999999998 12.749999999999998 0 0 0 473.0000000000001 272.5A175 175 0 0 0 327.5000000000001 127.25A169.25 169.25 0 0 0 300 125zM117.25 203.75H112.75A12.5 12.5 0 0 0 105.5 220L128.25 278.25A11.749999999999998 11.749999999999998 0 0 0 136.5 285.7500000000001A12.5 12.5 0 0 0 147.5 283.5000000000001L197.5 245.5000000000001A12.5 12.5 0 1 0 182.25 225.75L145.5 254.5000000000001L128.75 211.7500000000001A12.000000000000002 12.000000000000002 0 0 0 117.25 203.7500000000001z" />
    <glyph glyph-name="outlined-content-divulgation"
      unicode="&#xEA18;"
      horiz-adv-x="600" d="M457 132A57.75000000000001 57.75000000000001 0 0 1 514.5 189.5000000000001A57.75000000000001 57.75000000000001 0 0 0 457 132zM457 497H400V472H457.5A45.00000000000001 45.00000000000001 0 0 0 502.5000000000001 427V189.5A45.25 45.25 0 0 0 457.5 144.5H287.5V119.5H457.5A70.25 70.25 0 0 1 527.5 189.5V427A69.99999999999999 69.99999999999999 0 0 1 457.5 496.9999999999999zM192 477A59.75 59.75 0 0 0 221.75 484.5A60.75000000000001 60.75000000000001 0 0 1 191.75 477zM221.75 497A70.75 70.75 0 0 1 173.5 478.75L190.25 460.25A46.25000000000001 46.25000000000001 0 0 0 221.5 472H242V497H221.75zM188.75 109.75A39.75 39.75 0 0 1 196.25 111.25L423.0000000000001 172A64.25 64.25 0 0 1 438.75 179A64.25 64.25 0 0 0 423.0000000000001 172L196.25 111.25A39.75 39.75 0 0 0 188.75 109.75zM135 132.7500000000001A50 50 0 0 0 125 152.0000000000001L64.75 379A57.25 57.25 0 0 0 105.5 450L332.5 510.25A53.25 53.25 0 0 0 343.5 512A53.25 53.25 0 0 1 332.5 510.25L105.5 450A57.25 57.25 0 0 1 64.75 379L125 152A50 50 0 0 1 135 132.75zM456.0000000000001 195.5zM458 199A10.249999999999998 10.249999999999998 0 0 1 459.25 201.25L456.0000000000001 195.5zM465.75 227.7500000000001A58.25000000000001 58.25000000000001 0 0 1 463.75 242.5L403 469.5A59.75 59.75 0 0 1 395.7500000000001 485.7500000000001A59.75 59.75 0 0 0 403 469.5L463.75 242.5A58.25000000000001 58.25000000000001 0 0 0 465.75 227.7500000000001zM347.25 525A63.74999999999999 63.74999999999999 0 0 1 329.25 522.5L102.25 461.5A70.25 70.25 0 0 1 52.75 375L113.5 148.0000000000001A70.5 70.5 0 0 1 181.25 96.0000000000001A63.74999999999999 63.74999999999999 0 0 1 200 100L427 160.75A70.5 70.5 0 0 1 476.9999999999999 246.5L415.0000000000001 472.75A70.5 70.5 0 0 1 347.25 525zM181.25 121.75A44.74999999999999 44.74999999999999 0 0 0 137.75 155.25L77 382.25A45.00000000000001 45.00000000000001 0 0 0 108.75 437.25L335.75 498A36.74999999999999 36.74999999999999 0 0 0 347.25 500A44.74999999999999 44.74999999999999 0 0 0 390.75 466.5L451.75 239.5A44.74999999999999 44.74999999999999 0 0 0 419.75 184.5L193 123.25A50 50 0 0 0 181.25 121.75zM369.25 200A9.25 9.25 0 0 0 364.75 201.25A9.5 9.5 0 0 0 360.25 207L342.75 272.25A9.5 9.5 0 0 0 349.5 283.7500000000001L397.75 296.75A8.500000000000002 8.500000000000002 0 0 0 404.7500000000001 296.75A9.5 9.5 0 0 0 409.25 291L420.2500000000001 250A32.5 32.5 0 0 0 416.7500000000001 225A34.49999999999999 34.49999999999999 0 0 0 396.0000000000001 208.75L371.0000000000001 202.5zM363.25 268L375 221.5000000000001L390 225.5000000000001A15.5 15.5 0 0 1 399.5 232.75A14.000000000000002 14.000000000000002 0 0 1 401 244.5L392.5 276.5zM400 297.5H397.5L350 284.25A9.5 9.5 0 0 1 343.25 272.75L360.75 207.5A9.5 9.5 0 0 1 365.25 201.75A9.25 9.25 0 0 1 369.75 200.5H372.25L397.25 206.75A34.49999999999999 34.49999999999999 0 0 1 418 223A32.5 32.5 0 0 1 421.5 248L410.5 289A9.5 9.5 0 0 1 406 294.75A9.25 9.25 0 0 1 400 297.5zM375 222.5L362.25 269.5L392.5 277.5000000000001L401 245.5000000000001A14.000000000000002 14.000000000000002 0 0 0 399.5 233.7500000000001A15.5 15.5 0 0 0 390 226.5000000000001L375 222.5000000000001zM394.5 277.75A9.25 9.25 0 0 0 385.5 284.5L375.5 319.5L356.75 313A9.5 9.5 0 0 0 352 331.25L372 336.25A20.000000000000004 20.000000000000004 0 0 0 392.5 326.75L403.5 289.75A9.75 9.75 0 0 0 397 278zM375 336.5H371.75L351.75 331.5000000000001A9.5 9.5 0 0 1 345 320A9.5 9.5 0 0 1 354.25 313.0000000000001H356.5L375.25 319.5L385.25 284.5A9.25 9.25 0 0 1 394.25 277.7500000000001H396.75A9.75 9.75 0 0 1 403.25 289.5000000000001L392.25 326.5000000000001A19.25 19.25 0 0 1 375 336.2500000000001zM377 320.25A9.5 9.5 0 0 0 368 326.75L360 351.75L353.5 345.25A9.25 9.25 0 0 0 340.2500000000001 358.5L357.75 376A9.75 9.75 0 0 0 366.75 378.5A9.5 9.5 0 0 0 373.25 372.25L385.75 332A9.25 9.25 0 0 0 379.75 320.25zM364.5 379A9.75 9.75 0 0 1 357.75 376.25L340.2500000000001 358.75A9.25 9.25 0 0 1 340.2500000000001 345.5000000000001A8.749999999999998 8.749999999999998 0 0 1 347 342.7500000000001A8.500000000000002 8.500000000000002 0 0 1 353.5 345.5000000000001L360 352.0000000000001L368 327.0000000000001A9.5 9.5 0 0 1 377 320.5000000000001H379.75A9.25 9.25 0 0 1 385.75 332.2500000000001L373.25 372.5000000000001A9.5 9.5 0 0 1 366.75 378.7500000000001zM184.5 407.75A9.5 9.5 0 0 0 175 414.75A9.25 9.25 0 0 0 182 425L267 447.75A9.5 9.5 0 1 0 271.75 429.5L186.75 407zM269.5 450H267L182 425A9.25 9.25 0 0 1 175 414.75A9.5 9.5 0 0 1 184.25 407.75H186.5L271.5 430.25A9.5 9.5 0 0 1 269.5 450zM209.5 397.75A9.5 9.5 0 0 0 200 404L195 419A9.75 9.75 0 0 0 201.5 431.25L259 446.25A10.000000000000002 10.000000000000002 0 0 0 266.5 446.25A9.75 9.75 0 0 0 270.75 439.75L273.25 424.75A9.75 9.75 0 0 0 265.5 414A9.5 9.5 0 0 0 254.75 421.75V426.75L217 416.75L218.75 411.25A9.25 9.25 0 0 0 213 399.5A6.25 6.25 0 0 0 209.5 397.75zM261.75 446.5H259.5L202.0000000000001 431.5A9.75 9.75 0 0 1 195.5000000000001 419.25L200.5 404.25A9.5 9.5 0 0 1 209.5 398.0000000000001A6.25 6.25 0 0 1 212.5 398.0000000000001A9.25 9.25 0 0 1 218.25 409.75L216.5 415.25L254.25 425V420A9.5 9.5 0 0 1 263.5 412.25H265A9.75 9.75 0 0 1 275 423.5L272.5 438.5A9.75 9.75 0 0 1 268.25 445A9.25 9.25 0 0 1 263 446.5zM267 175H257A9.25 9.25 0 0 0 249.25 179L231.75 204A144.5 144.5 0 0 0 205 289.75V325A75 75 0 0 1 189.5 371.75A10.000000000000002 10.000000000000002 0 0 0 187.5 377.5V382.5A9.5 9.5 0 0 0 194.75 391.75L294.75 416.75A10.249999999999998 10.249999999999998 0 0 0 302.75 415A9.25 9.25 0 0 0 306.25 407.5V402.5A7.000000000000001 7.000000000000001 0 0 0 306.25 400.25A72.75 72.75 0 0 1 310.75 350.25L325 325A143.5 143.5 0 0 0 343.75 237V205.5A19.5 19.5 0 0 0 329 189.0000000000001L301.75 181.5000000000001A9.75 9.75 0 0 0 295.25 181.5000000000001H293.5L268.5 175zM261.75 193.75H265.75L290.75 200.75A8.25 8.25 0 0 0 297.25 200.75L300 200L325 206.5V237.5A125 125 0 0 1 308.75 315.25L293.75 343A92.75 92.75 0 0 0 286 395.25L209.5 375A92 92 0 0 0 225 325V290A125 125 0 0 1 248.25 215zM296.75 416.5H294.75L194.75 391.5A9.5 9.5 0 0 1 187.5 382.25V377.25A10.000000000000002 10.000000000000002 0 0 1 189.5 371.5A75 75 0 0 0 205 325V290.25A144.5 144.5 0 0 1 231.75 204.75L249.25 179.75A9.25 9.25 0 0 1 257 175.75H269.25L294.25 182.25H296A8.25 8.25 0 0 1 300.25 182.25H302.5L329.75 189.75A19.5 19.5 0 0 1 344.5 206.25V236A143.5 143.5 0 0 1 325 325L310.5 350A72.75 72.75 0 0 0 306 400A7.000000000000001 7.000000000000001 0 0 1 306 402.25V407.25A9.25 9.25 0 0 1 302.5 414.75A10.249999999999998 10.249999999999998 0 0 1 296.5 416.75zM286 394.75A92.75 92.75 0 0 1 293.75 342.5L308.75 314.7500000000001A125 125 0 0 0 325 237.0000000000001V206.0000000000001L300 200H298A11.749999999999998 11.749999999999998 0 0 1 294 200H291.5L266.5 193H262.5L247.75 214A125 125 0 0 0 224.5 289V325A92 92 0 0 1 210.25 375L286.75 394.25zM177 177.75A9.5 9.5 0 0 0 167.75 184.75L145.25 269.75L140.75 281L126.25 304.75A9.5 9.5 0 0 0 126.25 313V314.5L118.25 333A9.25 9.25 0 0 0 118.25 340.75A9.75 9.75 0 0 0 124.5 345.75L164.25 355.75A9.75 9.75 0 0 0 175 350A9.25 9.25 0 0 0 168.25 338.75L138.75 331.5000000000001L142 324L171 332A9.75 9.75 0 0 0 182.5 325.2500000000001A9.75 9.75 0 0 0 176.25 313.75L147.5 305L156.5 290.2500000000001L162 276.25L182.75 199L206.25 204.5000000000001A9.25 9.25 0 0 0 217.5 197.5000000000001A9.25 9.25 0 0 0 210.5 186.2500000000001L178 178.7500000000001zM166.75 356.5H164.5L125 346.25A9.75 9.75 0 0 1 118.75 341.25A9.25 9.25 0 0 1 118.75 333.5L126.75 315V313.5A9.5 9.5 0 0 1 126.75 305.25L141.25 281.5L145.75 270.25L168.25 185.25A9.5 9.5 0 0 1 177.5 178.25H179.5L212 185.75A9.25 9.25 0 0 1 210 204.25H207.25L183.75 198.75L163 275L157.5 289L148.5 303.75L177.25 312.5A9.5 9.5 0 0 1 175 331.5H172L143 323.5L139.75 331L169.25 338.25A9.25 9.25 0 0 1 175 350A9.25 9.25 0 0 1 165.75 357.25zM200 155.25A19.5 19.5 0 0 0 183 165.0000000000001L177.25 184.5000000000001A9 9 0 0 0 183.5 196.0000000000001A9.25 9.25 0 0 0 195.25 189.7500000000001L200.25 172.2500000000001L219 178.7500000000001A9.5 9.5 0 0 0 230.25 171.7500000000001A9.25 9.25 0 0 0 223.5 160.5000000000001L203.5 155.5000000000002zM187 196.5H184.25A9 9 0 0 1 178 185L183.75 165.5A19.5 19.5 0 0 1 200.75 155.75H204.2500000000001L224.2500000000001 160.7499999999999A9.25 9.25 0 0 1 231.0000000000001 171.9999999999999A9.25 9.25 0 0 1 221.7500000000001 179.2499999999999H219.7500000000001L200.0000000000001 172.2499999999998L195.0000000000001 189.7499999999998A9.5 9.5 0 0 1 186.0000000000001 196.4999999999998z" />
    <glyph glyph-name="outlined-content-education"
      unicode="&#xEA19;"
      horiz-adv-x="600" d="M300 256A31.500000000000004 31.500000000000004 0 0 0 283.25 260.75L91.75 352.75H86.5L81.75 361A15.5 15.5 0 0 0 86 377.75L89.25 380.25L284.25 475A31.500000000000004 31.500000000000004 0 0 0 316.75 475L508.2499999999999 381.25H518L519.25 366.75A14.249999999999998 14.249999999999998 0 0 0 509.5 353L315.75 260A29.500000000000004 29.500000000000004 0 0 0 300 256zM119.5 367.25L294.5 282.75A8 8 0 0 1 303.25 282.75L480.0000000000001 367.75L305.0000000000001 453.75A8 8 0 0 1 296.2500000000001 453.75zM300 111.5A34.99999999999999 34.99999999999999 0 0 0 283 116.2500000000001L181.25 164.5000000000001A36.25 36.25 0 0 0 159.25 198.2500000000001V325H184.25V200A12.000000000000002 12.000000000000002 0 0 1 191.5 189L295.25 139A8 8 0 0 1 304 139L410.25 189A16.75 16.75 0 0 1 416 201V325H441V200A41.5 41.5 0 0 0 422.25 167L315.75 117A29.249999999999996 29.249999999999996 0 0 0 300 111.5zM94.75 197.0000000000001A12.5 12.5 0 0 0 82.25 209.5000000000001V365.25A12.5 12.5 0 0 0 107.25 365.25V209.5A12.5 12.5 0 0 0 94.75 197z" />
    <glyph glyph-name="outlined-content-gift"
      unicode="&#xEA1A;"
      horiz-adv-x="600" d="M445.75 62.5H154.25A40.25 40.25 0 0 0 114.25 103.25V270.75A39.75 39.75 0 0 0 85.25 308.25V361.25A40.5 40.5 0 0 0 125 401.5H169.5A103.5 103.5 0 0 0 160.25 413A64.75 64.75 0 0 0 153.5 465A72.25 72.25 0 0 0 222.75 518.75A60.49999999999999 60.49999999999999 0 0 0 241.5 516.25A97.75000000000001 97.75000000000001 0 0 0 297.75 462A122 122 0 0 0 366.75 534.75A81 81 0 0 0 387.25 537.5A80.00000000000001 80.00000000000001 0 0 0 464.25 478.25A70.5 70.5 0 0 0 456.75 421.25A110.25 110.25 0 0 0 439.5 401.25H475A39.75 39.75 0 0 0 514.25 361.25V309A40.00000000000001 40.00000000000001 0 0 0 485.5000000000001 270.5V102.5000000000001A40.5 40.5 0 0 0 445.2500000000001 62.5zM125 376.5A15.5 15.5 0 0 1 110 361.25V308.5000000000001A15.25 15.25 0 0 1 125 293.7500000000001A13.75 13.75 0 0 0 139 281.2500000000001V103A15 15 0 0 1 154 87.5H445.75A15.25 15.25 0 0 1 460.9999999999999 102.75V281.5A12.5 12.5 0 0 0 473.4999999999999 294A15.25 15.25 0 0 1 489.7499999999999 309V361.25A15 15 0 0 1 475 375H396A12.25 12.25 0 0 0 383.75 385.25A12.749999999999998 12.749999999999998 0 0 0 391.75 400A91.75 91.75 0 0 1 435.75 434.25A46 46 0 0 1 440.25 471A54.75 54.75 0 0 1 387.5 512.5A69.75 69.75 0 0 1 373 510.75C350 504.5 327.25 475 310.25 425A12.5 12.5 0 0 0 298.5 416.75A12.5 12.5 0 0 0 286.75 425C272.5 463.5 254 487 235 492.25A43.5 43.5 0 0 1 225 493.75A48.00000000000001 48.00000000000001 0 0 1 177.5 458.25A40.25 40.25 0 0 1 181.25 426.5A72.99999999999999 72.99999999999999 0 0 1 213.25 400A12.5 12.5 0 0 0 208.25 375zM194.75 401.5H455.25V376.5H194.75zM475 269H118.25A12.5 12.5 0 1 0 118.25 294H475A12.5 12.5 0 0 0 475 269zM262.5 62.5A12.5 12.5 0 0 0 250 75V387.25A12.5 12.5 0 0 0 262.5 399.75A12.749999999999998 12.749999999999998 0 0 0 275 387.25V75A12.5 12.5 0 0 0 262.5 62.5zM342.75 62.5A12.5 12.5 0 0 0 330.25 75V387.25A12.749999999999998 12.749999999999998 0 0 0 342.75 399.75A12.5 12.5 0 0 0 355.25 387.25V75A12.5 12.5 0 0 0 342.75 62.5zM264.25 388L243.5 402A81.25 81.25 0 0 0 301.75 438.25A68.50000000000001 68.50000000000001 0 0 0 356.75 402L336 388A50 50 0 0 1 301.75 413A56.25 56.25 0 0 1 264.25 388z" />
    <glyph glyph-name="outlined-content-global"
      unicode="&#xEA1B;"
      horiz-adv-x="600" d="M300 37.5A262.5 262.5 0 1 0 562.5 300A262.75 262.75 0 0 0 300 37.5zM300 537.5A237.49999999999997 237.49999999999997 0 1 1 537.5 300A237.75 237.75 0 0 1 300 537.5zM300 37.5C238.5 37.5 192.25 150 192.25 300S238.5 562.5 300 562.5S407.75 450 407.75 300S361.5 37.5 300 37.5zM300 537.5C260.75 537.5 217.25 440 217.25 300S260.75 62.5 300 62.5S382.75 160 382.75 300S339.25 537.5 300 537.5zM519.75 406.75H80.25A12.5 12.5 0 0 0 67.75 419.25A12.5 12.5 0 0 0 80.25 431.75H519.75A12.5 12.5 0 0 0 532.25 419.25A12.5 12.5 0 0 0 519.75 406.75zM550 287.5H50A12.5 12.5 0 0 0 50 312.5H550A12.5 12.5 0 0 0 550 287.5zM519.75 168.25H80.25A12.5 12.5 0 0 0 67.75 180.75A12.5 12.5 0 0 0 80.25 193.25H519.75A12.5 12.5 0 0 0 532.25 180.75A12.5 12.5 0 0 0 519.75 168.25z" />
    <glyph glyph-name="outlined-content-health"
      unicode="&#xEA1C;"
      horiz-adv-x="600" d="M300 66.75A34.74999999999999 34.74999999999999 0 0 0 275 76.5A1183.75 1183.75 0 0 0 141.5 228.2500000000001A12.5 12.5 0 1 0 161.5 243.2500000000001A1192.5000000000002 1192.5000000000002 0 0 1 292.2500000000001 94.5A10.000000000000002 10.000000000000002 0 0 1 306.2500000000001 94.5A1192.5000000000002 1192.5000000000002 0 0 1 437.0000000000001 243.25A12.5 12.5 0 0 0 457.0000000000001 228.25A1183.75 1183.75 0 0 0 325 76.5A34.74999999999999 34.74999999999999 0 0 0 300 66.75zM496.75 350A11.749999999999998 11.749999999999998 0 0 0 492.5 350A12.25 12.25 0 0 0 484.9999999999999 366A111.25000000000001 111.25000000000001 0 0 1 491.5 401A95.25 95.25 0 0 1 405.75 505.5A103.5 103.5 0 0 1 390.5 505.5A100 100 0 0 1 310 467.5A13.000000000000002 13.000000000000002 0 0 0 290 467.5A100 100 0 0 1 210.25 507.5A95 95 0 0 1 108.25 419A103.00000000000001 103.00000000000001 0 0 1 108.25 403.75A112.25 112.25 0 0 1 115 367.75A12.25 12.25 0 0 0 107.5 351.75A12.5 12.5 0 0 0 91.5 359.25A139.25000000000003 139.25000000000003 0 0 0 83.5 402.25A110 110 0 0 0 83.5 420.5A120.25 120.25 0 0 0 211.25 532.5A125 125 0 0 0 300 494.25A126.5 126.5 0 0 0 389.5 532.5A115.25000000000001 115.25000000000001 0 0 0 408 532.5A120.5 120.5 0 0 0 516.5 400A138.75 138.75 0 0 0 508.5 358A12.5 12.5 0 0 0 496.75 350zM344.75 251.75A9.75 9.75 0 0 0 341 251.75A12.749999999999998 12.749999999999998 0 0 0 333 259L297.25 350L260 292.75A11.749999999999998 11.749999999999998 0 0 0 250.7500000000001 287.25A12.5 12.5 0 0 0 240.7500000000001 291L209.75 323L195 294A12.25 12.25 0 0 0 184 287.25H87.5A12.5 12.5 0 0 0 75 300A12.5 12.5 0 0 0 87.5 312.5H176.25L195.25 350A12.5 12.5 0 0 0 215.5 353L247.75 319.5L289.5 382.75A13.000000000000002 13.000000000000002 0 0 0 301.25 388.25A12.000000000000002 12.000000000000002 0 0 0 311.5 380.5L350 283.5L387.75 310A14.5 14.5 0 0 0 395 312.25H512.5A12.5 12.5 0 0 0 525 299.75A12.5 12.5 0 0 0 512.5 287.25H400L352.5 254A11.749999999999998 11.749999999999998 0 0 0 344.75 251.75z" />
    <glyph glyph-name="outlined-content-lock"
      unicode="&#xEA1D;"
      horiz-adv-x="600" d="M300 66.75A34.74999999999999 34.74999999999999 0 0 0 275 76.5A1183.75 1183.75 0 0 0 141.5 228.2500000000001A12.5 12.5 0 1 0 161.5 243.2500000000001A1192.5000000000002 1192.5000000000002 0 0 1 292.2500000000001 94.5A10.000000000000002 10.000000000000002 0 0 1 306.2500000000001 94.5A1192.5000000000002 1192.5000000000002 0 0 1 437.0000000000001 243.25A12.5 12.5 0 0 0 457.0000000000001 228.25A1183.75 1183.75 0 0 0 325 76.5A34.74999999999999 34.74999999999999 0 0 0 300 66.75zM496.75 350A11.749999999999998 11.749999999999998 0 0 0 492.5 350A12.25 12.25 0 0 0 484.9999999999999 366A111.25000000000001 111.25000000000001 0 0 1 491.5 401A95.25 95.25 0 0 1 405.75 505.5A103.5 103.5 0 0 1 390.5 505.5A100 100 0 0 1 310 467.5A13.000000000000002 13.000000000000002 0 0 0 290 467.5A100 100 0 0 1 210.25 507.5A95 95 0 0 1 108.25 419A103.00000000000001 103.00000000000001 0 0 1 108.25 403.75A112.25 112.25 0 0 1 115 367.75A12.25 12.25 0 0 0 107.5 351.75A12.5 12.5 0 0 0 91.5 359.25A139.25000000000003 139.25000000000003 0 0 0 83.5 402.25A110 110 0 0 0 83.5 420.5A120.25 120.25 0 0 0 211.25 532.5A125 125 0 0 0 300 494.25A126.5 126.5 0 0 0 389.5 532.5A115.25000000000001 115.25000000000001 0 0 0 408 532.5A120.5 120.5 0 0 0 516.5 400A138.75 138.75 0 0 0 508.5 358A12.5 12.5 0 0 0 496.75 350zM344.75 251.75A9.75 9.75 0 0 0 341 251.75A12.749999999999998 12.749999999999998 0 0 0 333 259L297.25 350L260 292.75A11.749999999999998 11.749999999999998 0 0 0 250.7500000000001 287.25A12.5 12.5 0 0 0 240.7500000000001 291L209.75 323L195 294A12.25 12.25 0 0 0 184 287.25H87.5A12.5 12.5 0 0 0 75 300A12.5 12.5 0 0 0 87.5 312.5H176.25L195.25 350A12.5 12.5 0 0 0 215.5 353L247.75 319.5L289.5 382.75A13.000000000000002 13.000000000000002 0 0 0 301.25 388.25A12.000000000000002 12.000000000000002 0 0 0 311.5 380.5L350 283.5L387.75 310A14.5 14.5 0 0 0 395 312.25H512.5A12.5 12.5 0 0 0 525 299.75A12.5 12.5 0 0 0 512.5 287.25H400L352.5 254A11.749999999999998 11.749999999999998 0 0 0 344.75 251.75z" />
    <glyph glyph-name="outlined-content-magic"
      unicode="&#xEA1E;"
      horiz-adv-x="600" d="M473.0000000000001 146.75A22.500000000000004 22.500000000000004 0 0 0 463.25 149.2500000000001L438.25 161.7500000000001L413.25 149.2500000000001A21 21 0 0 0 403.5 146.75A17.249999999999996 17.249999999999996 0 0 0 390.75 152.25A19.75 19.75 0 0 0 387 168L391.5 195L375 213.75A18 18 0 0 0 369.5 232.5A17.749999999999996 17.749999999999996 0 0 0 385 244.5L411.75 248.5L423.75 273.5A17.749999999999996 17.749999999999996 0 0 0 455.9999999999999 273.5L468.2499999999999 248.5L494.9999999999999 244.75A18.5 18.5 0 0 0 510.4999999999999 232.75A18.249999999999996 18.249999999999996 0 0 0 505 214L485.4999999999999 195.2499999999999L489.9999999999999 168.4999999999999A18.75 18.75 0 0 0 486.4999999999999 152.7499999999999A16.5 16.5 0 0 0 472.9999999999999 146.75zM401.75 221.75L413 210.7500000000001A19.75 19.75 0 0 0 418.75 194.0000000000001L416 178L430 185.25A21 21 0 0 0 447.75 185.25L462.2499999999999 177.75L459.7499999999999 193.25A20.000000000000004 20.000000000000004 0 0 0 464.7499999999999 210L476.4999999999999 221.5000000000001L460.9999999999998 225.0000000000001A21.5 21.5 0 0 0 446.4999999999999 235.2500000000001L439.25 250.0000000000001L432.2499999999999 235.7500000000001A21 21 0 0 0 418.25 225.2500000000001zM254.7500000000001 366A23.25 23.25 0 0 0 244.5000000000001 368.75L220.7500000000001 381.25L195.7500000000001 368.75A22.25 22.25 0 0 0 186.2500000000001 366A16.25 16.25 0 0 0 175.0000000000001 371.75A18.249999999999996 18.249999999999996 0 0 0 171.25 387.5000000000001L175 414.25L155.75 433.25A18 18 0 0 0 150 452A18.5 18.5 0 0 0 165.5 464L192.5 467.75L204.5 492.75A17.499999999999996 17.499999999999996 0 0 0 236.75 492.75L249 467.75L275 464A19.25 19.25 0 0 0 290.75 452A18 18 0 0 0 285 433.25L265.75 414.25L270.25 387.5A20.000000000000004 20.000000000000004 0 0 0 266.75 371.75A17.499999999999996 17.499999999999996 0 0 0 254.75 366zM220.75 406.75A18 18 0 0 0 229 405L244 397.25L241.5 412.75A20.499999999999996 20.499999999999996 0 0 0 246.25 429.5L258.25 441.25L242.7500000000001 443.5A21.25 21.25 0 0 0 228.2500000000001 453.5L221 468.5L214.0000000000001 454.2499999999999A22 22 0 0 0 200.0000000000001 443.5L184.0000000000001 441.25L195.2500000000001 430.25A21.5 21.5 0 0 0 200.0000000000001 413.5L197.25 397.25L211.25 404.75A25 25 0 0 0 220.7500000000001 406.75zM100 83A12.25 12.25 0 0 0 91.25 86.5A12.749999999999998 12.749999999999998 0 0 0 91.25 104.2500000000001L322.25 335.2500000000001A12.5 12.5 0 1 0 340.0000000000001 317.5000000000001L109 86.5A12.5 12.5 0 0 0 100 83zM475 375A22.500000000000004 22.500000000000004 0 0 0 465.25 377.5L440.25 390L415.25 377.5A19 19 0 0 0 406 375A17.249999999999996 17.249999999999996 0 0 0 393 380.5A20.000000000000004 20.000000000000004 0 0 0 389.25 396.25L394 423.25L375 441A18.5 18.5 0 0 0 369.5 459.75A18 18 0 0 0 385 471.75L412.7500000000001 475L425 500A18.249999999999996 18.249999999999996 0 0 0 441.25 511A17.749999999999996 17.749999999999996 0 0 0 457.4999999999999 500L469.4999999999999 475L496.2499999999999 471.25A18.5 18.5 0 0 0 511.75 459.25A18.249999999999996 18.249999999999996 0 0 0 506.25 440.5L486.75 421.75L491.5 395A19 19 0 0 0 487.7500000000001 379.25A16.25 16.25 0 0 0 475 375zM403.75 450L415 439A21.5 21.5 0 0 0 420.75 422.25L417.75 406L432 413.5A21 21 0 0 0 449.75 413.5L463.9999999999999 406L461.4999999999999 421.5A20.499999999999996 20.499999999999996 0 0 0 466.4999999999999 438.25L478.2499999999999 450H462.9999999999999A20.499999999999996 20.499999999999996 0 0 0 448.5 460.25L441 475L433.9999999999999 460.75A21 21 0 0 0 420 450.25z" />
    <glyph glyph-name="outlined-content-medal"
      unicode="&#xEA1F;"
      horiz-adv-x="600" d="M340.5 323.25H248A12.749999999999998 12.749999999999998 0 0 0 236.5 330.75L138.5 557.5A12.25 12.25 0 0 0 138.5 569.25A12.000000000000002 12.000000000000002 0 0 0 150 575H239.5A12.5 12.5 0 0 0 250.75 567.5L350.75 340.75A11.749999999999998 11.749999999999998 0 0 0 350.75 329A12.5 12.5 0 0 0 340.5 323.25zM256.25 348.25H321.25L231.25 550H169zM350 323.25H259.5A12.749999999999998 12.749999999999998 0 0 0 247 335.75A12.5 12.5 0 0 0 259.5 348.25H341L430.75 550H366L341 489A12.5 12.5 0 0 0 317.75 498.75L346.75 567.25A12.25 12.25 0 0 0 357.75 575H450A12.5 12.5 0 0 0 460.5000000000001 569.25A12.25 12.25 0 0 0 460.5000000000001 557.5L360.5000000000001 330.75A12.749999999999998 12.749999999999998 0 0 0 350.0000000000001 323.25zM389.5 225A12.5 12.5 0 0 0 377 237.5V317.5H217.25V237.5A12.5 12.5 0 0 0 204.75 225A12.749999999999998 12.749999999999998 0 0 0 192.25 237.5V330A12.5 12.5 0 0 0 204.75 342.5H389.5A12.5 12.5 0 0 0 402 330V237.5A12.749999999999998 12.749999999999998 0 0 0 389.5 225zM297 25A131.75 131.75 0 0 0 297 288.5A131.75 131.75 0 0 0 297 25zM297 263.5A106.75 106.75 0 0 1 297 50A106.75 106.75 0 0 1 297 263.5z" />
    <glyph glyph-name="outlined-content-menu"
      unicode="&#xEA20;"
      horiz-adv-x="600" d="M550 113.25H50A12.5 12.5 0 0 0 37.5 125.75A12.5 12.5 0 0 0 50 138.25H550A12.5 12.5 0 0 0 562.5 125.75A12.5 12.5 0 0 0 550 113.25zM517.25 134.5A12.5 12.5 0 0 0 504.7500000000001 147V181A206.75 206.75 0 0 1 300 385.75A206.75 206.75 0 0 1 95.25 181.0000000000001V147.0000000000001A12.5 12.5 0 0 0 70.25 147.0000000000001V181.0000000000001A232 232 0 0 0 300 410.75A232 232 0 0 0 529.75 181.0000000000001V147.0000000000001A12.5 12.5 0 0 0 517.25 134.5000000000001zM262 382.25A12.749999999999998 12.749999999999998 0 0 0 249.5 394.75V412A51.50000000000001 51.50000000000001 0 0 0 301.25 462A50 50 0 0 0 351.25 412V396A12.749999999999998 12.749999999999998 0 0 0 338.75 383.5A12.5 12.5 0 0 0 326.25 396V412A25 25 0 0 1 301.25 437A25 25 0 0 1 276.25 412V395A12.5 12.5 0 0 0 262 382.25z" />
    <glyph glyph-name="outlined-content-mirror"
      unicode="&#xEA21;"
      horiz-adv-x="600" d="M443.5 71.5H166.75A12.749999999999998 12.749999999999998 0 0 0 154.25 84A12.5 12.5 0 0 0 166.75 96.5H443.5000000000001A12.5 12.5 0 0 0 456.0000000000001 84A12.5 12.5 0 0 0 443.5000000000001 71.5zM305.25 71.5A12.5 12.5 0 0 0 292.75 84V125A12.5 12.5 0 0 0 317.75 125V83.75A12.5 12.5 0 0 0 305.25 71.5000000000001zM305.25 113A227.25000000000003 227.25000000000003 0 0 0 78 340A12.5 12.5 0 0 0 90.5 352.5A12.5 12.5 0 0 0 103 340A202.25 202.25 0 0 1 305.25 138A202.00000000000003 202.00000000000003 0 0 1 507.25 340A12.5 12.5 0 0 0 519.75 352.5A12.5 12.5 0 0 0 532.25 340A227.25000000000003 227.25000000000003 0 0 0 305.25 113zM305.25 157.25A182.75 182.75 0 1 0 488 340A183 183 0 0 0 305.25 157.25zM305.25 497.7499999999999A157.75 157.75 0 1 1 463 340A158 158 0 0 1 305.25 497.7499999999999zM305.25 448.25A11.749999999999998 11.749999999999998 0 0 0 296.5000000000001 452A9 9 0 0 0 293.7500000000001 456A10.249999999999998 10.249999999999998 0 0 0 293.7500000000001 460.75A10.75 10.75 0 0 0 293.7500000000001 465.5A9 9 0 0 0 296.5000000000001 469.5A7.75 7.75 0 0 0 300.0000000000001 472.2500000000001A12.5 12.5 0 0 0 309.5000000000001 472.2500000000001A9 9 0 0 0 313.5000000000001 469.5A12.749999999999998 12.749999999999998 0 0 0 317.2500000000001 460.75A14.5 14.5 0 0 0 317.2500000000001 456A9 9 0 0 0 314.5000000000001 452A10.5 10.5 0 0 0 310.0000000000001 450A10.75 10.75 0 0 0 305.2500000000001 448.25zM184.5 327.5A12.5 12.5 0 0 0 172 340A133.5 133.5 0 0 0 270 468.5A12.5 12.5 0 1 0 276.75 443.5A108.74999999999999 108.74999999999999 0 0 1 197 340A12.5 12.5 0 0 0 184.5 327.5z" />
    <glyph glyph-name="outlined-content-produtivity"
      unicode="&#xEA22;"
      horiz-adv-x="600" d="M375 322.5A64.75 64.75 0 1 0 439.75 387A64.75 64.75 0 0 0 375 322.5zM375 426.75A39.75 39.75 0 1 1 414.75 387A39.75 39.75 0 0 1 375 426.75zM398 237.75H348A19.75 19.75 0 0 0 334 243.5A20.499999999999996 20.499999999999996 0 0 0 328.5 257.25V284.5A3.0000000000000004 3.0000000000000004 0 0 1 326.75 287A119 119 0 0 0 309.5 297A3.2500000000000004 3.2500000000000004 0 0 1 306.5 297L283.25 283.7500000000001A20.000000000000004 20.000000000000004 0 0 0 256.75 290.0000000000001L229.75 336.7500000000001A20.000000000000004 20.000000000000004 0 0 0 236 363.2500000000001L261 377.0000000000001A2 2 0 0 1 262.5 379.5000000000001V388.7500000000001A45.75 45.75 0 0 0 262.5 394.0000000000001V397.2500000000001C262.5 398.2500000000001 262.5 400.7500000000001 260.75 401.2500000000001L237.75 414.5000000000001A20.000000000000004 20.000000000000004 0 0 0 230.75 441.7500000000001L255.75 485.5000000000001A20.25 20.25 0 0 0 272.25 494.7500000000001A16.5 16.5 0 0 0 283.5 490.5000000000001L305.25 478.2500000000001A5.000000000000001 5.000000000000001 0 0 1 309.5 478.2500000000001A168.50000000000003 168.50000000000003 0 0 0 325.5 487.7500000000001C327.25 487.7500000000001 328 489.5000000000001 328 490.5000000000001V518.0000000000001A18.75 18.75 0 0 0 333.75 531.7500000000001A19 19 0 0 0 347.5 537.5000000000001H397.5A19.75 19.75 0 0 0 411.5 531.7500000000001A20.499999999999996 20.499999999999996 0 0 0 417 517.7500000000001V490A2.75 2.75 0 0 1 418.75 487.5A129.5 129.5 0 0 0 436.0000000000001 477.5A3.2500000000000004 3.2500000000000004 0 0 1 439.0000000000001 477.5L462.2500000000001 490.75A20.000000000000004 20.000000000000004 0 0 0 488.75 484.5L513.75 440A20.000000000000004 20.000000000000004 0 0 0 507.7500000000001 413.25L482.7500000000001 399.5L481.0000000000001 396.5V387.75A48.5 48.5 0 0 0 481.0000000000001 381.75V375.5L508 360A19.25 19.25 0 0 0 510.25 333L485.25 291A20.499999999999996 20.499999999999996 0 0 0 458 284.25L435 297.5A3.0000000000000004 3.0000000000000004 0 0 1 431.75 297.5A108 108 0 0 0 415 288A3.5000000000000004 3.5000000000000004 0 0 1 413 285.25V258.25A19.75 19.75 0 0 0 407.25 244.25A20.000000000000004 20.000000000000004 0 0 0 398 237.75zM352.75 257.25zM307.25 322.5A28.249999999999996 28.249999999999996 0 0 0 323.25 317.5A75 75 0 0 1 336 310A27.750000000000007 27.750000000000007 0 0 0 352.75 285V263H392.5V284.5A28.000000000000004 28.000000000000004 0 0 0 409.5 309.5A107.25 107.25 0 0 1 422 316.7499999999999A27.5 27.5 0 0 0 451.4999999999999 318.25L470.7499999999999 307.5L491.4999999999999 341.9999999999999L472.9999999999999 352.4999999999999A26.750000000000004 26.750000000000004 0 0 0 459 379.7499999999999A15.25 15.25 0 0 0 459 384.2499999999999A8.500000000000002 8.500000000000002 0 0 1 459 386.7499999999999V395.7499999999999A26.750000000000004 26.750000000000004 0 0 0 473.4999999999999 420.7499999999999L491.7499999999999 430.9999999999999L471.2499999999999 465.7499999999999L452.2499999999999 454.9999999999999A28.249999999999996 28.249999999999996 0 0 0 422.4999999999999 454.9999999999999A67.50000000000001 67.50000000000001 0 0 1 409.4999999999999 462.4999999999999A27.750000000000007 27.750000000000007 0 0 0 392.9999999999999 487.4999999999999V512.4999999999999H353.7499999999999V490.7499999999999A27.5 27.5 0 0 0 336.7499999999999 465.7499999999999A140.25 140.25 0 0 1 323.9999999999999 458.2499999999999A29.500000000000004 29.500000000000004 0 0 0 293.9999999999999 456.7499999999999L275 467.25L255 433.5L273.5 423A28.249999999999996 28.249999999999996 0 0 0 287.75 396.5A53.74999999999999 53.74999999999999 0 0 0 287.75 390.75V381A26.750000000000004 26.750000000000004 0 0 0 273.25 356L255 345.75L275 308L294 318.75A28.499999999999996 28.499999999999996 0 0 0 307.25 322.5zM398 262.75zM475 305.25zM270.25 305.25zM495.2500000000001 346.5zM252.7500000000001 349zM252.7500000000001 429zM477.7500000000001 468.7499999999999zM348.25 512.5zM393.5 518zM277.5 59.25A43.5 43.5 0 0 0 266.25 60.75L172.25 105.75A18.75 18.75 0 0 1 164 107.5H141.75V200L145.75 203.75C175 231.75 182.5 231.75 186 231.75H278.5L374.75 218.75A39 39 0 0 0 401.5 206.25A39.75 39.75 0 0 0 410.5 191L477.75 225A38.5 38.5 0 0 0 506.4999999999999 230.5A39.75 39.75 0 0 0 531.5 213.5L534.5 208A46 46 0 0 0 509.5 153.25L434.5 114.5L290 60.2499999999999A51.75 51.75 0 0 0 277.5 59.2499999999999zM166.75 132.5A40.25 40.25 0 0 0 183 128.25L275 84A31.500000000000004 31.500000000000004 0 0 1 283.25 84L425 138.25L500 176.75A21.5 21.5 0 0 1 512.75 200.5A15.5 15.5 0 0 1 503 207A15.25 15.25 0 0 1 491.7500000000001 204.5L407.5 160.5A45.75 45.75 0 0 0 360.25 141.75L275 153.5A12.5 12.5 0 0 0 264.25 167.5A13.000000000000002 13.000000000000002 0 0 0 278.5 178.25L362.25 166.25A21.75 21.75 0 0 1 387.25 178A15.5 15.5 0 0 1 372.5 193.7499999999999L276.5 206.7499999999999H186S175.75 198.5 166.75 190.5zM141.75 88.25H87.5A25 25 0 0 0 62.5 113.25V220.5A25 25 0 0 0 87.5 245.5H141.75A25 25 0 0 0 166.75 220.5V113.25A25 25 0 0 0 141.75 88.25zM87.5 220.5V113.25H141.75V220.5zM87.5 233V220.5z" />
    <glyph glyph-name="outlined-content-store"
      unicode="&#xEA23;"
      horiz-adv-x="600" d="M398.5 272.75H201.5A27 27 0 0 1 175 245.75V175A27.25 27.25 0 0 1 201.5 150H398.5000000000001A27.5 27.5 0 0 1 425 175V245.75A27.5 27.5 0 0 1 398.5 272.75zM202.5 175V244.5L397 245.75V177.5000000000001zM482.5 473.25A42 42 0 0 1 443.5 500H156.5A41.75 41.75 0 0 1 117.75 473.25L78.75 371.25A56.00000000000001 56.00000000000001 0 0 1 81 325A50 50 0 0 1 108 300V130.5A42 42 0 0 1 150 90.25H450A41.5 41.5 0 0 1 491.5 131.75V300A50 50 0 0 1 518.75 325A56.00000000000001 56.00000000000001 0 0 1 521 370.25zM463.75 132A13.5 13.5 0 0 0 450.5 118.5000000000001H150A13.5 13.5 0 0 0 136.75 132V298.2500000000001A54.24999999999999 54.24999999999999 0 0 1 170.75 318.5000000000001A55 55 0 0 1 247.75 309.2500000000001A66.75 66.75 0 0 1 257.25 318.5000000000001A54.75 54.75 0 0 1 334.25 309.2500000000001A64.75 64.75 0 0 1 343.5 318.5000000000001A55 55 0 0 1 420.5 309.2500000000001A54 54 0 0 1 429.7500000000001 318.5000000000001A55.25000000000001 55.25000000000001 0 0 1 464.0000000000001 298.2500000000001zM494.0000000000001 338.75A23 23 0 0 0 479.7500000000001 327A27 27 0 0 0 447.0000000000001 346.5A25 25 0 0 0 447.0000000000001 352.5V360.5A16.75 16.75 0 1 1 413.7500000000001 360.5V352.25A26.5 26.5 0 0 0 360.7500000000001 352.25V360.5A16.75 16.75 0 0 1 344.0000000000001 377.25A16.5 16.5 0 0 1 327.5000000000001 360.5V352.5A26.750000000000004 26.750000000000004 0 0 0 274.2500000000001 352.5V360.75A16.5 16.5 0 0 1 256.7500000000001 376.5A16.75 16.75 0 0 1 241.0000000000001 360.75V352.5A26.5 26.5 0 0 0 188.0000000000001 352.5V360.5A16.5 16.5 0 0 1 169.75 375A16.75 16.75 0 0 1 154 359.25V351A27.25 27.25 0 0 0 120.5 326A22 22 0 0 0 106.5 337.75A28.249999999999996 28.249999999999996 0 0 0 106.5 360.25L144.25 463A13.5 13.5 0 0 0 156.75 471.75H443.75A13.5 13.5 0 0 0 456.25 463L495.2499999999999 361A27.5 27.5 0 0 0 493.9999999999999 338.75z" />
    <glyph glyph-name="outlined-content-wifi"
      unicode="&#xEA24;"
      horiz-adv-x="600" d="M264.5 159.75A34.74999999999999 34.74999999999999 0 0 1 334.0000000000001 159.75A34.74999999999999 34.74999999999999 0 0 1 264.5 159.75M562.5 353A11.749999999999998 11.749999999999998 0 0 0 553.75 356.75A359.75 359.75 0 0 1 46.2499999999999 358.25A12.5 12.5 0 0 0 28.7499999999999 358.25A12.5 12.5 0 0 0 28.7499999999999 376A384.5 384.5 0 0 0 571.25 375A12.5 12.5 0 0 0 571.25 357.25A12.25 12.25 0 0 0 562.4999999999999 353zM498.0000000000001 288.25A13.5 13.5 0 0 0 489.0000000000001 291.75A269.25 269.25 0 0 1 111.0000000000001 293.25A12.749999999999998 12.749999999999998 0 0 0 93.2500000000001 311.25A295 295 0 0 0 506.7500000000001 309.5A12.5 12.5 0 0 0 498.0000000000001 288.25zM431.75 220.25A11.5 11.5 0 0 0 423 223.75A175 175 0 0 1 178.75 225A12.5 12.5 0 1 0 161.25 243A200 200 0 0 0 440.5 241.25A12.5 12.5 0 0 0 431.75 220z" />
    <glyph glyph-name="outlined-finance-bag"
      unicode="&#xEA25;"
      horiz-adv-x="600" d="M150 75A37.5 37.5 0 0 0 112.5 113.5V116.25L135.75 418A12.5 12.5 0 0 0 148.25 429.5H451.75A12.5 12.5 0 0 0 464.25 418L487.5 116.4999999999999A38 38 0 0 0 452.75 75H150zM450 100V87.5V100A12.000000000000002 12.000000000000002 0 0 1 458.7500000000001 104.5A12.25 12.25 0 0 1 461.7500000000001 113.75L439.5000000000001 403.75H159.75L137.5 114.5A12.749999999999998 12.749999999999998 0 0 1 141.25 104.5A12.000000000000002 12.000000000000002 0 0 1 150 100H450zM375 348A12.5 12.5 0 0 0 362.5 360.5V450A63.5 63.5 0 1 1 236.5000000000001 450V360.5A12.5 12.5 0 0 0 224 348A12.749999999999998 12.749999999999998 0 0 0 211.5 360.5V450A88.5 88.5 0 1 0 388.5 450V360.5A12.749999999999998 12.749999999999998 0 0 0 375 348z" />
    <glyph glyph-name="outlined-finance-cards"
      unicode="&#xEA26;"
      horiz-adv-x="600" d="M369.75 123.75H81.25A44.25 44.25 0 0 0 37.5 167.75V377.75A44.25 44.25 0 0 0 81.25 421.75H371.25A44 44 0 0 0 415.25 377.75V167.75A46.75 46.75 0 0 0 370.25 123.75zM371.25 396.75H81.25A19 19 0 0 1 62.5 377.75V167.75A19.25 19.25 0 0 1 81.5 148.75H369.75A21.5 21.5 0 0 1 390.25 168.75V377.75A19 19 0 0 1 371.25 396.75zM391.75 316.75H50A12.5 12.5 0 0 0 37.5 329.25A12.5 12.5 0 0 0 50 341.75H391.75A12.5 12.5 0 0 0 404.2500000000001 329.25A12.5 12.5 0 0 0 391.7500000000001 316.75zM354.25 269.75H98.5A12.5 12.5 0 0 0 86 282.25A12.749999999999998 12.749999999999998 0 0 0 98.5 294.75H354.25A12.749999999999998 12.749999999999998 0 0 0 366.75 282.25A12.5 12.5 0 0 0 354.25 269.75zM219.25 221H98.5A12.749999999999998 12.749999999999998 0 0 0 86 233.5A12.5 12.5 0 0 0 98.5 246H219.25A12.5 12.5 0 0 0 231.75 233.5A12.5 12.5 0 0 0 219.25 221zM493.75 189.75H450A12.749999999999998 12.749999999999998 0 0 0 437.5 202.25A12.5 12.5 0 0 0 450 214.75H493.75A19 19 0 0 1 512.5 233.75V443.75A19 19 0 0 1 493.4999999999999 462.5H203.75A16 16 0 0 1 186 450A12.5 12.5 0 0 0 171 440.5A12.25 12.25 0 0 0 161.5 455.25A40.25 40.25 0 0 0 204.75 487.5H493.75A44 44 0 0 0 537.5 443.75V233.75A44 44 0 0 0 493.75 189.75zM514 384H445.75A12.5 12.5 0 0 0 433.25 396.5A12.5 12.5 0 0 0 445.75 409H514A12.5 12.5 0 0 0 526.5 396.5A12.5 12.5 0 0 0 514 384zM477.9999999999999 337H445.75A12.5 12.5 0 0 0 433.25 349.5A12.5 12.5 0 0 0 445.75 362H477.9999999999999A12.5 12.5 0 0 0 490.4999999999999 349.5A12.5 12.5 0 0 0 477.9999999999999 337z" />
    <glyph glyph-name="outlined-finance-charging"
      unicode="&#xEA27;"
      horiz-adv-x="600" d="M150 140.0000000000001A63.25 63.25 0 0 0 87.5 203.25V375A64.5 64.5 0 0 0 150 437.5H456.25A63.25 63.25 0 0 0 519.5 375V203.75A62 62 0 0 0 459.75 140.5H150zM150 412.5A39 39 0 0 1 112.5 375V203A38.5 38.5 0 0 1 150 165.0000000000001H459.2499999999999A36.74999999999999 36.74999999999999 0 0 1 494.4999999999999 203V375A38 38 0 0 1 456.2499999999999 412.5H150zM247.25 200A18.5 18.5 0 0 0 228.5 218.75V359.5A18.75 18.75 0 1 0 266 359.5V218A18.75 18.75 0 0 0 247.25 200zM394.25 200A18.75 18.75 0 0 0 375.5 218.75V359.5A18.75 18.75 0 0 0 413 359.5V218A18.5 18.5 0 0 0 394.25 200zM196.25 205.5A12.5 12.5 0 0 0 183.75 218V359.5A12.5 12.5 0 0 0 196.25 372A12.5 12.5 0 0 0 208.75 359.5V218A12.5 12.5 0 0 0 196.25 205.5zM341.75 205.5A12.5 12.5 0 0 0 329.25 218V359.5A12.5 12.5 0 0 0 341.75 372A12.5 12.5 0 0 0 354.25 359.5V218A12.5 12.5 0 0 0 341.75 205.5zM441.5 205.5A12.5 12.5 0 0 0 429 218V359.5A12.5 12.5 0 0 0 441.5 372A12.5 12.5 0 0 0 454 359.5V218A12.5 12.5 0 0 0 441.5 205.5zM298 208.5A9.25 9.25 0 0 0 288.75 218V359.5A9.25 9.25 0 0 0 298 369A9.5 9.5 0 0 0 307.5 359.5V218A9.5 9.5 0 0 0 298 208.5zM160 211.75A6.25 6.25 0 0 0 153.75 218V359.5A6.25 6.25 0 0 0 166.25 359.5V218A6.25 6.25 0 0 0 160 211.75z" />
    <glyph glyph-name="outlined-finance-creditcard"
      unicode="&#xEA28;"
      horiz-adv-x="600" d="M483 114.5H115A53.25 53.25 0 0 0 62.5 167V435A53.25 53.25 0 0 0 115 487.5H484.9999999999999A53.25 53.25 0 0 0 537.5 435V167A56.00000000000001 56.00000000000001 0 0 0 483.2499999999999 114.5zM484.9999999999999 462.5H115A27.750000000000007 27.750000000000007 0 0 1 87.5 435V167A27.750000000000007 27.750000000000007 0 0 1 115 139.5H482.7500000000001A30.75 30.75 0 0 1 512.5000000000001 168V435A27.750000000000007 27.750000000000007 0 0 1 485.0000000000001 462.5zM509.75 362.5H75A12.5 12.5 0 0 0 75 387.5H509.75A12.5 12.5 0 0 0 509.75 362.5zM457.5 302.5H142.5A12.749999999999998 12.749999999999998 0 0 0 130 315A12.5 12.5 0 0 0 142.5 327.5H457.5A12.5 12.5 0 0 0 470 315A12.749999999999998 12.749999999999998 0 0 0 457.5 302.5zM302.0000000000001 240.5H134A12.5 12.5 0 0 0 134 265.5H302A12.5 12.5 0 0 0 302 240.5z" />
    <glyph glyph-name="outlined-finance-debit"
      unicode="&#xEA29;"
      horiz-adv-x="600" d="M188 353A12.749999999999998 12.749999999999998 0 0 0 177.75 358L147.75 400A22.500000000000004 22.500000000000004 0 0 0 143 417A23 23 0 0 0 151.75 433.25L282.25 533.25A22.75 22.75 0 0 0 300 537.25A25 25 0 0 0 315.75 528.5L381 443.75A23.499999999999996 23.499999999999996 0 0 0 385.75 426.5A22.25 22.25 0 0 0 377 411L305.25 355.5A12.5 12.5 0 0 0 287.7500000000001 357.75A12.5 12.5 0 0 0 289.7500000000001 375.25L360.5000000000001 430.25L295.5000000000001 512.75L167.2500000000001 412.75L198.0000000000001 372.75A12.749999999999998 12.749999999999998 0 0 0 195.25 355.25A13.000000000000002 13.000000000000002 0 0 0 188 353zM369 353.75A12.000000000000002 12.000000000000002 0 0 0 358.5 359.5A12.25 12.25 0 0 0 362.25 376.75L405.75 405A4.5 4.5 0 0 1 407.5 411.25L361.0000000000001 492.75A4.250000000000001 4.250000000000001 0 0 1 355.25 492.75L347 488.5A12.5 12.5 0 0 0 330 493.5A12.5 12.5 0 0 0 335.2500000000001 510.5L343.5000000000001 515A30 30 0 0 0 382.5000000000001 504.5L429.5000000000001 422A29.500000000000004 29.500000000000004 0 0 0 419.0000000000001 382.75L375 355.75A13.25 13.25 0 0 0 369 353.75zM136.25 114.75A25 25 0 0 0 111.25 137.7500000000001V381.75A12.5 12.5 0 0 0 136.25 381.75V138.5L433.5 139.75V200A12.5 12.5 0 0 0 446 212.5A12.5 12.5 0 0 0 458.5 200V138A25 25 0 0 0 433.5 114.25H136.25zM447 281A12.5 12.5 0 0 0 434.5 293.5V354L145.25 352.5A12.5 12.5 0 0 0 145.25 377.5H434.75A25 25 0 0 0 459.75 354.75V293.5A12.5 12.5 0 0 0 447 281zM142.5 352.75A31.500000000000004 31.500000000000004 0 0 0 112.5 388A35.49999999999999 35.49999999999999 0 0 0 139.5 423.75A12.749999999999998 12.749999999999998 0 0 0 154.75 414.5A12.5 12.5 0 0 0 145.5 399.5A10.5 10.5 0 0 1 137.5 388.75C137.5 385.75 137.5 377.75 142.5 377.75A12.5 12.5 0 0 0 155 365.25A12.5 12.5 0 0 0 142.5 352.75zM283.5 167.75A46.25000000000001 46.25000000000001 0 0 0 263.5 172.5000000000001A45.25 45.25 0 0 0 241 197.5000000000001A46.99999999999999 46.99999999999999 0 0 0 238.75 211.7500000000001A12.5 12.5 0 0 0 251.25 224.2500000000001A12.5 12.5 0 0 0 263.75 211.7500000000001A19.5 19.5 0 0 1 263.75 205.2500000000001A19.25 19.25 0 0 1 273.75 194.0000000000001A18.5 18.5 0 0 1 288.75 192.75A21 21 0 0 1 302.25 212.7500000000001A11.5 11.5 0 0 1 295.75 223.5000000000001L260.25 240.75A39.5 39.5 0 0 0 238.5000000000001 276A43.5 43.5 0 0 0 263.5 316A45.00000000000001 45.00000000000001 0 0 0 328.25 275.5A12.5 12.5 0 0 0 303.25 275.5A20.499999999999996 20.499999999999996 0 0 1 275 294.5A18.5 18.5 0 0 1 264.75 277.25A14.5 14.5 0 0 1 272.75 264L307.75 247A36 36 0 0 0 328.5 213.5A45.75 45.75 0 0 0 298.25 170.2500000000001A42.24999999999999 42.24999999999999 0 0 0 283.5 167.75zM283.75 150A12.5 12.5 0 0 0 271.25 162.5V179A12.5 12.5 0 0 0 283.75 191.5A12.5 12.5 0 0 0 296.25 179V162.5A12.5 12.5 0 0 0 283.75 150zM283.75 296.5A12.5 12.5 0 0 0 271.25 309V325A12.5 12.5 0 0 0 283.75 337.5A12.5 12.5 0 0 0 296.25 325V309A12.749999999999998 12.749999999999998 0 0 0 283.75 296.5zM463.9999999999999 196.75H392.5A23.499999999999996 23.499999999999996 0 0 0 369 220.25V273.75A25 25 0 0 0 392.25 297.25H463.9999999999999A25 25 0 0 0 487.5 273.75V220.25A25 25 0 0 0 463.9999999999999 196.75zM462.5 273.75L392.5 272.25L394 220.25L462.5 221.75zM463.9999999999999 221.75z" />
    <glyph glyph-name="outlined-finance-discount"
      unicode="&#xEA2A;"
      horiz-adv-x="600" d="M537.25 269.75A32.5 32.5 0 0 1 537.25 310.75L513.7499999999999 342C513.7499999999999 344 511.9999999999999 344 511.9999999999999 345.75L515.7499999999999 385A32 32 0 0 1 494.2499999999999 420L459.2499999999999 435.5A2 2 0 0 0 457.25 437.5L441.5 472.75A39 39 0 0 1 406.5000000000001 494.25L367.5 490.25C365.5 490.25 365.5 490.25 363.5 492.25L330.25 517.25A32.5 32.5 0 0 1 289.25 517.25L258 493.7500000000001C256 493.7500000000001 256 491.7500000000001 254 491.7500000000001L215 496.25A37 37 0 0 1 178 476.75L162.25 439.5S162.25 437.75 160.5 437.5L123.25 422A37 37 0 0 1 103.75 385L107.75 346C107.75 344 107.75 344 105.75 342L82.25 310.75A32.5 32.5 0 0 1 82.25 269.75L105.75 238.5C105.75 236.5 107.75 236.5 107.75 234.5L103.75 195.5A32.25 32.25 0 0 1 125 160.25L160.25 144.75A1.7500000000000002 1.7500000000000002 0 0 0 162 143L177.75 108A36.74999999999999 36.74999999999999 0 0 1 213 86.5L252 90.25C253.75 90.25 253.75 90.25 255.75 88.25L287 64.75A38.75 38.75 0 0 1 308.5 59A43.25 43.25 0 0 1 330 64.75L361.25 88.25C363.25 88.25 363.25 90.25 365.25 90.25L404.25 86.25A32.25 32.25 0 0 1 439.5 107.7499999999999L455 143A2 2 0 0 0 456.75 145L491.7499999999999 160.5A38.5 38.5 0 0 1 513.2499999999999 195.75L509.5 234.75C509.5 236.75 509.5 236.75 511.4999999999999 238.75zM484.5 230.75L488.5 191.5C488.5 189.75 486.5 187.7500000000001 484.5 185.75L450 170A34.99999999999999 34.99999999999999 0 0 1 432.5 152.5000000000001L416.7500000000001 117.5000000000001C416.7500000000001 115.5000000000001 412.7500000000001 113.5000000000001 410.7500000000001 113.5000000000001L371.7500000000001 117.5000000000001A48.00000000000001 48.00000000000001 0 0 1 348.2500000000001 111.7500000000001L317.0000000000001 88.25A3.2500000000000004 3.2500000000000004 0 0 0 312.0000000000001 88.25L280.7500000000001 111.7500000000001A40.74999999999999 40.74999999999999 0 0 1 259.2500000000001 117.5000000000001H255.5000000000001L216.2500000000001 113.5000000000001C214.2500000000001 113.5000000000001 212.2500000000001 115.5 210.5000000000001 117.5000000000001L191.0000000000001 152.5000000000001A39.5 39.5 0 0 1 173.5000000000001 170L135.0000000000001 185.75C133.0000000000001 187.75 131.0000000000001 189.75 131.0000000000001 191.5L135.0000000000001 230.75A44.5 44.5 0 0 1 129.2500000000001 254L105.7500000000001 285.25A4 4 0 0 0 105.7500000000001 290.5L129.2500000000001 321.75A47.5 47.5 0 0 1 137 350L133 388.75C133 390.75 135 392.75 137 394.75L172 410.25A37.25 37.25 0 0 1 189.5 427.75L205.25 465C205.25 467 209.25 469 211.25 469L250 465A45.5 45.5 0 0 1 275 470.75L306.25 494.25A3.5000000000000004 3.5000000000000004 0 0 0 311.25 494.25L342.5 470.75A53 53 0 0 1 370 463L409 467C411 467 413 465 414.75 463L430.5 427.75A38.25 38.25 0 0 1 448 410.25L482.9999999999999 394.75C484.9999999999999 392.75 486.9999999999999 390.75 486.9999999999999 389L482.5 350A45.5 45.5 0 0 1 488.25 326.5L511.7500000000001 295.25A3.5000000000000004 3.5000000000000004 0 0 0 511.7500000000001 290.2500000000001L488.25 259.0000000000001A46.5 46.5 0 0 1 484.5000000000001 230.75zM404.5 383L400 379L403.75 383A15.5 15.5 0 0 1 382.25 383L215 215A15.5 15.5 0 0 1 215 193.5A27.25 27.25 0 0 1 226.75 191.5A15 15 0 0 1 236.5000000000001 195.5L404.5 363.5A13.000000000000002 13.000000000000002 0 0 1 404.5 381.75zM297.25 355.5A54.75 54.75 0 0 1 242.7500000000001 410.25A52.75 52.75 0 0 1 189.75 357.25V355.5A53.25 53.25 0 0 1 241.75 300H244.5A55.25000000000001 55.25000000000001 0 0 1 297.25 355.5zM268 355.5A25 25 0 1 0 243.0000000000001 380.5A25 25 0 0 0 268 355.5V353.75zM377.25 277.5000000000001A54.5 54.5 0 0 1 322.5 223.0000000000001A53.25 53.25 0 0 1 375 168.25H377.75A53.25 53.25 0 0 1 432.25 220.25V222.75A54.24999999999999 54.24999999999999 0 0 1 377.75 277.5zM402.25 222.7500000000001A25 25 0 1 0 377.25 247.7500000000001A25 25 0 0 0 402.5000000000001 222.7500000000001z" />
    <glyph glyph-name="outlined-finance-littlemachine"
      unicode="&#xEA2B;"
      horiz-adv-x="600" d="M343.25 92.2500000000001H164.5A38.75 38.75 0 0 0 125 130V450A39 39 0 0 0 163.75 487.5H341.75A38.75 38.75 0 0 0 381 450V130.25A38 38 0 0 0 343.25 92.2500000000001zM341.75 117.2500000000001V104.7500000000001L343.25 117.2500000000001A13.000000000000002 13.000000000000002 0 0 1 352.25 121.2500000000001A12.000000000000002 12.000000000000002 0 0 1 356 130.25V450A13.5 13.5 0 0 1 342 463H164.5A13.75 13.75 0 0 1 150 450V130.25A14.249999999999998 14.249999999999998 0 0 1 164 117.2500000000001zM309 310.75H198.5A37.74999999999999 37.74999999999999 0 0 0 162.5 350V406.25A37.5 37.5 0 0 0 198.25 444.5H308.75A37.5 37.5 0 0 0 344.75 406V350A36.74999999999999 36.74999999999999 0 0 0 309.25 311.75zM309 419.5H200A12.25 12.25 0 0 1 188.75 406.75V348.75A12.25 12.25 0 0 1 200.5 335.75H309.5A12.000000000000002 12.000000000000002 0 0 1 321 348.5V406.5A12.25 12.25 0 0 1 308.25 419.5zM463.25 216.75H368.5000000000001V241.75H456.7500000000001V419.5H368.5000000000001V444.5H462.5000000000001A18.249999999999996 18.249999999999996 0 0 0 481.7500000000001 426.75V236.0000000000001A18.75 18.75 0 0 0 464.0000000000001 216.7500000000001zM456.75 236zM462.5 419.5zM409.75 432H434.75V229.2500000000001H409.75zM192.5 254.75A17.749999999999996 17.749999999999996 0 0 0 175 272.25A18 18 0 0 0 192.5 289.75A17.749999999999996 17.749999999999996 0 0 0 210 272.25A17.499999999999996 17.499999999999996 0 0 0 192.5 254.75zM192.5 198.25A17.749999999999996 17.749999999999996 0 0 0 175 215.75A18 18 0 0 0 192.5 233.25A17.749999999999996 17.749999999999996 0 0 0 210 215.75A17.499999999999996 17.499999999999996 0 0 0 192.5 198.25zM192.5 143A18 18 0 0 0 175 160.5A17.749999999999996 17.749999999999996 0 0 0 192.5 178A17.499999999999996 17.499999999999996 0 0 0 210 160.5A17.749999999999996 17.749999999999996 0 0 0 192.5 143zM253.0000000000001 254.75A17.749999999999996 17.749999999999996 0 0 0 235.5000000000001 272.25A18 18 0 0 0 253.0000000000001 289.7499999999999A17.749999999999996 17.749999999999996 0 0 0 270.5 272.25A17.499999999999996 17.499999999999996 0 0 0 253.0000000000001 254.75zM253.0000000000001 198.25A17.749999999999996 17.749999999999996 0 0 0 235.5000000000001 215.75A18 18 0 0 0 253.0000000000001 233.25A17.749999999999996 17.749999999999996 0 0 0 270.5 215.75A17.499999999999996 17.499999999999996 0 0 0 253.0000000000001 198.25zM253.0000000000001 143A18 18 0 0 0 235.5000000000001 160.5A17.749999999999996 17.749999999999996 0 0 0 253.0000000000001 178A17.499999999999996 17.499999999999996 0 0 0 270.5 160.5A17.749999999999996 17.749999999999996 0 0 0 253.0000000000001 143zM314.7500000000001 254.75A17.749999999999996 17.749999999999996 0 0 0 297.2500000000001 272.25A18 18 0 0 0 314.7500000000001 289.7499999999999A17.749999999999996 17.749999999999996 0 0 0 332.25 272.25A17.499999999999996 17.499999999999996 0 0 0 314.7500000000001 254.75zM314.7500000000001 198.25A17.749999999999996 17.749999999999996 0 0 0 297.2500000000001 215.75A18 18 0 0 0 314.7500000000001 233.25A17.749999999999996 17.749999999999996 0 0 0 332.25 215.75A17.499999999999996 17.499999999999996 0 0 0 314.7500000000001 198.25zM314.7500000000001 143A18 18 0 0 0 297.2500000000001 160.5A17.749999999999996 17.749999999999996 0 0 0 314.7500000000001 178A17.499999999999996 17.499999999999996 0 0 0 332.25 160.5A17.749999999999996 17.749999999999996 0 0 0 314.7500000000001 143z" />
    <glyph glyph-name="outlined-finance-money"
      unicode="&#xEA2C;"
      horiz-adv-x="600" d="M300 62.5A237.49999999999997 237.49999999999997 0 1 0 537.5 300A237.75 237.75 0 0 0 300 62.5zM300 512.5A212.49999999999997 212.49999999999997 0 1 1 512.5 300A212.75 212.75 0 0 1 300 512.5zM300 172.75A70.25 70.25 0 0 0 268.5 180.25A68.75 68.75 0 0 0 233.75 220.7500000000001A66.5 66.5 0 0 0 230.25 242.7500000000001A12.5 12.5 0 0 0 242.75 255.2500000000001A12.749999999999998 12.749999999999998 0 0 0 255.25 242.7500000000001A46.99999999999999 46.99999999999999 0 0 1 257.5 228.5000000000001A45.75 45.75 0 0 1 279.75 203.5000000000001A44.74999999999999 44.74999999999999 0 0 1 314.25 201.0000000000001A46 46 0 0 1 345 245.2500000000001A31.500000000000004 31.500000000000004 0 0 1 327 274.0000000000001L264.25 304.2500000000001A60 60 0 0 0 230.2500000000001 357.5A68.00000000000001 68.00000000000001 0 0 0 268.5 420A68.75 68.75 0 0 0 300 427.25A71.5 71.5 0 0 0 350 407A70.25 70.25 0 0 0 370.75 357A12.5 12.5 0 0 0 358.25 344.5A12.5 12.5 0 0 0 345.75 357A45.75 45.75 0 0 1 332.5 389A46.5 46.5 0 0 1 300 402.25A46 46 0 0 1 280.25 397.5A42.74999999999999 42.74999999999999 0 0 1 255.2500000000001 357.75A34.99999999999999 34.99999999999999 0 0 1 275 325L338 294.75A56.49999999999999 56.49999999999999 0 0 0 370 244.75A70.75 70.75 0 0 0 322.25 175A68.00000000000001 68.00000000000001 0 0 0 300 172.75zM300 143.75A12.5 12.5 0 0 0 287.5 156.25V185.5000000000001A12.5 12.5 0 0 0 312.5 185.5000000000001V156.25A12.5 12.5 0 0 0 300 143.75zM300 402A12.5 12.5 0 0 0 287.5 414.5V443.75A12.5 12.5 0 0 0 312.5 443.75V414.5A12.5 12.5 0 0 0 300 402z" />
    <glyph glyph-name="outlined-finance-moneypaper"
      unicode="&#xEA2D;"
      horiz-adv-x="600" d="M166 37.5A54.24999999999999 54.24999999999999 0 0 0 128.5 52.75A53.50000000000001 53.50000000000001 0 0 0 112.5 90.5V508.5A52.75 52.75 0 0 0 127.75 546.5A53.50000000000001 53.50000000000001 0 0 0 165.5 562.5H355.75A52.5 52.5 0 0 0 391.25 547.25L491.2499999999999 442.25A56.49999999999999 56.49999999999999 0 0 0 506.25 408V91.5A52.75 52.75 0 0 0 491 53.5A53.50000000000001 53.50000000000001 0 0 0 453.25 37.5H166zM355.5 537.5H165.75A27.5 27.5 0 0 1 145.75 529A28.499999999999996 28.499999999999996 0 0 1 137.5 508.5V90.75A27.5 27.5 0 0 1 146 70.75A30.5 30.5 0 0 1 166.5 62.5H453A27.5 27.5 0 0 1 473.0000000000001 71A28.499999999999996 28.499999999999996 0 0 1 481.25 91.5V406.75A30 30 0 0 1 473.0000000000001 425L373.0000000000001 529.75A27 27 0 0 1 355.5000000000001 537.5zM478.7499999999999 411.25H411.5A53.74999999999999 53.74999999999999 0 0 0 358.25 465.5V540.5A12.749999999999998 12.749999999999998 0 0 0 370.75 553A12.5 12.5 0 0 0 383.25 540.5V465.25A29 29 0 0 1 411.75 436.25H478.7499999999999A12.5 12.5 0 0 0 478.7499999999999 411.25zM307.5 167.2500000000001A63.00000000000001 63.00000000000001 0 0 0 252 198.5000000000001A64.75 64.75 0 0 0 243.75 227.2500000000001A12.5 12.5 0 1 0 268.75 228.5000000000001A40.25 40.25 0 0 1 273.75 210.7500000000001A37 37 0 0 1 306 192.2500000000001A37.74999999999999 37.74999999999999 0 0 1 345 229.5000000000001A37.25 37.25 0 0 1 307.75 266.7500000000001A62.5 62.5 0 1 0 306 391.7500000000001H309.5A59.00000000000001 59.00000000000001 0 0 0 363.5 360.0000000000001A50 50 0 0 0 371.75 330.2500000000002A12.749999999999998 12.749999999999998 0 0 0 358.75 318.2500000000002A12.5 12.5 0 0 0 346.75 331.2500000000001A25 25 0 0 1 342.25 347.0000000000001A35.49999999999999 35.49999999999999 0 0 1 309.75 366.5000000000001H306A37.5 37.5 0 0 1 306 291.5000000000001A62.25000000000001 62.25000000000001 0 1 0 307.75 166.5000000000001zM307.75 133.7500000000001A12.5 12.5 0 0 0 295.25 146.2500000000001V181.25A12.5 12.5 0 0 0 320.25 181.25V146.2500000000001A12.5 12.5 0 0 0 307.75 133.7500000000001zM307.75 371.5A12.5 12.5 0 0 0 295.25 384V418.75A12.5 12.5 0 0 0 320.25 418.75V384A12.5 12.5 0 0 0 307.75 371.5z" />
    <glyph glyph-name="outlined-finance-promotion"
      unicode="&#xEA2E;"
      horiz-adv-x="600" d="M290.25 78.75C191.5 78.75 111.25 138.75 111.25 212.5S162.75 460.25 290.25 460.25S469.25 285.25 469.25 212.5S389 78.75 290.25 78.75zM290.25 432.75C183.75 432.75 138.75 275.25 138.75 212.5C138.75 153.9999999999999 206.75 106.25 290.25 106.25S441.75 154 441.75 212.5C441.75 275 396.75 432.75 290.25 432.75zM246 425A13.75 13.75 0 0 0 233.75 432.5L200 496.75A13.5 13.5 0 0 0 203.5 513.5L228.5 535.5A13.5 13.5 0 0 0 245.75 535.5L262.5 522.25L282.5 536A13.5 13.5 0 0 0 298 536L318 522.25L334.75 535.5A13.5 13.5 0 0 0 352 535.5L377 513.5A13.5 13.5 0 0 0 380.5 496.75L350 432A13.75 13.75 0 1 0 325 444.5L353.5 500L344.2500000000001 507.75L328.5 495.25A13.5 13.5 0 0 0 312.25 495.25L291.5 509.25L271 495.25A14.000000000000002 14.000000000000002 0 0 0 254.5 495.25L238.75 507.75L229.5 500L258.25 445A13.75 13.75 0 0 0 252.25 426.5A14.249999999999998 14.249999999999998 0 0 0 246 425zM290.75 183A50 50 0 0 0 254.75 197.25A50 50 0 0 0 240.25 232.25A13.5 13.5 0 0 0 254 246.0000000000001A13.75 13.75 0 0 0 267.75 232.25A21.25 21.25 0 0 1 289.5 210.5000000000001A22.500000000000004 22.500000000000004 0 1 1 289.5 255.25A50 50 0 0 0 288 355.25A50 50 0 0 0 340 305.25A13.75 13.75 0 0 0 326.25 291.5A13.75 13.75 0 0 0 312.5 305.25A23 23 0 0 1 290 327.7500000000001A23.499999999999996 23.499999999999996 0 0 1 265 305.25A23 23 0 0 1 287.5 281.7500000000001A50 50 0 0 0 339 231.7500000000001A50 50 0 0 0 289 181.7500000000001zM290.25 157.75A13.75 13.75 0 0 0 276.5 171.5V196.5A13.75 13.75 0 1 0 304 196.5V171.5A13.75 13.75 0 0 0 290.25 157.75zM290.25 328.75A13.75 13.75 0 0 0 276.5 342.5V367.5A13.75 13.75 0 0 0 304 367.5V342.5A13.75 13.75 0 0 0 290.25 328.75z" />
    <glyph glyph-name="outlined-finance-shoppingcart"
      unicode="&#xEA2F;"
      horiz-adv-x="600" d="M442.75 180.5H260.25A37.5 37.5 0 0 0 225 207.75L164.5 414.5A13.000000000000002 13.000000000000002 0 0 0 166.5 425A12.000000000000002 12.000000000000002 0 0 0 176.5 430H493.25A36.49999999999999 36.49999999999999 0 0 0 519.75 419A37.5 37.5 0 0 0 530.75 392.5A34.99999999999999 34.99999999999999 0 0 0 529.25 382.25L479.2500000000001 207.25A38 38 0 0 0 442.75 180.5zM192.75 405.5L248.0000000000001 214.5A12.5 12.5 0 0 1 260.0000000000001 205.5H442.5000000000001A12.5 12.5 0 0 1 454.5000000000001 214.5L504.5000000000001 389.5A19.5 19.5 0 0 1 504.5000000000001 393A12.25 12.25 0 0 1 500.7500000000001 402A12.5 12.5 0 0 1 492.0000000000001 405.5zM176.5 405.5A12.5 12.5 0 0 0 164.5 414.75C156.5 445 136.5 487.5 117.5 487.5H75A12.5 12.5 0 0 0 75 512.5H117.5C163 512.5 186 430.5 188.5 421.25A12.25 12.25 0 0 0 179.75 406zM283.25 62.75A50 50 0 1 0 333.25 112.75A50 50 0 0 0 283.25 62.75zM283.25 137.75A25 25 0 1 1 308.25 112.75A25 25 0 0 1 283.25 137.75zM423.25 62.75A50 50 0 1 0 473.25 112.75A50 50 0 0 0 423.25 62.75zM423.25 137.75A25 25 0 1 1 448.25 112.75A25 25 0 0 1 423.25 137.75z" />
    <glyph glyph-name="outlined-finance-shoppingcartproduct"
      unicode="&#xEA30;"
      horiz-adv-x="600" d="M442.75 180.5H260.25A37.5 37.5 0 0 0 225 207.75L164.5 414.5A12.25 12.25 0 0 0 166.75 425A11.749999999999998 11.749999999999998 0 0 0 176.5 430H493.25A37.25 37.25 0 0 0 530.75 392.5A46 46 0 0 0 529.5 382.25L479.5 207.25A37.5 37.5 0 0 0 442.75 180.5zM192.75 405.5L247.75 214.5A12.5 12.5 0 0 1 259.75 205.5H442.2500000000001A12.5 12.5 0 0 1 454.2500000000001 214.5L504.2500000000001 389.5A9 9 0 0 1 504.2500000000001 393A12.000000000000002 12.000000000000002 0 0 1 491.7500000000001 405.5zM176.5 405.5A12.5 12.5 0 0 0 164.5 414.75C156.5 445 136.5 487.5 117.5 487.5H75A12.5 12.5 0 0 0 75 512.5H117.5C163 512.5 186 430.5 188.5 421.25A12.25 12.25 0 0 0 179.75 406zM283.25 62.75A50 50 0 1 0 333.25 112.75A50 50 0 0 0 283.25 62.75zM283.25 137.75A25 25 0 1 1 308.25 112.75A25 25 0 0 1 283.25 137.75zM423.25 62.75A50 50 0 1 0 473.25 112.75A50 50 0 0 0 423.25 62.75zM423.25 137.75A25 25 0 1 1 448.25 112.75A25 25 0 0 1 423.25 137.75zM346.75 248A12.5 12.5 0 0 0 334.25 260.5V360.5A12.5 12.5 0 0 0 346.75 373A12.5 12.5 0 0 0 359.25 360.5V260.5A12.749999999999998 12.749999999999998 0 0 0 346.75 248zM396.75 298H296.75A12.5 12.5 0 0 0 284.25 310.5A12.5 12.5 0 0 0 296.75 323H396.75A12.5 12.5 0 0 0 409.25 310.5A12.749999999999998 12.749999999999998 0 0 0 396.75 298z" />
    <glyph glyph-name="outlined-finance-tagdiscount"
      unicode="&#xEA31;"
      horiz-adv-x="600" d="M244 64.25A46.5 46.5 0 0 0 210.5 78.25L76.5 212A47.75000000000001 47.75000000000001 0 0 0 76.5 279.25L315.5 518.25A46 46 0 0 0 345.7500000000001 532L425 537.5A48.25 48.25 0 0 0 461.75 523.5L525 462A47.25 47.25 0 0 0 537.5 425L530.5 347.75A46.5 46.5 0 0 0 516.75 318.25L277.5 78.2500000000001A46.25000000000001 46.25000000000001 0 0 0 244 64.2500000000001zM428.25 512.5H426.75L347.5 507.25A23 23 0 0 1 333 500.5L94 261.5A22.75 22.75 0 0 1 94 229.5L228.0000000000001 95.7499999999999A22 22 0 0 1 243.7500000000001 89.2499999999999A23.25 23.25 0 0 1 259.7500000000001 95.7499999999999L500 335A22 22 0 0 1 506.75 349L513.5 426.5A21.75 21.75 0 0 1 506.9999999999999 444.25L444.2499999999999 506A22.500000000000004 22.500000000000004 0 0 1 428.2499999999999 512.5zM432.75 396.5A38 38 0 1 0 470.5 434.5A38 38 0 0 0 432.75 396.5zM432.75 446.5A13.000000000000002 13.000000000000002 0 1 1 445.5 433.75A12.749999999999998 12.749999999999998 0 0 1 432.75 447.25z" />
    <glyph glyph-name="outlined-finance-transfermoney"
      unicode="&#xEA32;"
      horiz-adv-x="600" d="M483.5 280.75A12.5 12.5 0 0 0 471.5 293.75A170 170 0 0 1 139.5 352.25A12.749999999999998 12.749999999999998 0 0 0 123.75 344.25A12.25 12.25 0 0 0 115.75 360A196 196 0 0 0 307.75 494.5A195.50000000000003 195.50000000000003 0 0 0 496 292.75A12.5 12.5 0 0 0 483.5 280.75zM127.5 343.75A11 11 0 0 0 122 345A12.000000000000002 12.000000000000002 0 0 0 115.75 352.25L95 414A12.749999999999998 12.749999999999998 0 0 0 103 429.75A12.25 12.25 0 0 0 118.75 422L135.5 372L185.5 389.5A12.749999999999998 12.749999999999998 0 0 0 201.5 382A12.5 12.5 0 0 0 194 365.9999999999999L132.25 343.9999999999999zM300 105H293.5A194.5 194.5 0 0 0 105.75 305A12.25 12.25 0 0 0 118.5 317A12.5 12.5 0 0 0 130.75 304.25A168.99999999999997 168.99999999999997 0 0 1 294.5 129.2500000000001A170.99999999999997 170.99999999999997 0 0 1 461.0000000000001 245.5000000000001A12.25 12.25 0 0 0 476.75 253.5000000000001A12.5 12.5 0 0 0 484.75 237.7500000000001A196 196 0 0 0 300 105zM495.5 168.25A12.5 12.5 0 0 0 483.7500000000001 176.5L466 226.5L416 208.75A12.749999999999998 12.749999999999998 0 0 0 400 216.5A12.5 12.5 0 0 0 407.5 232.5L469.25 254.25A14.5 14.5 0 0 0 479 254.25A12.749999999999998 12.749999999999998 0 0 0 485.25 247L507 185.25A12.25 12.25 0 0 0 499.5 169.5A12.749999999999998 12.749999999999998 0 0 0 495.5 168.25zM297.75 198.75A54 54 0 0 0 246.25 236.5A54.75 54.75 0 0 0 243.5 253.25A12.5 12.5 0 1 0 268.5 253.25A25 25 0 0 1 270 244.25A29.249999999999996 29.249999999999996 0 0 1 307 225.25A29.75 29.75 0 0 1 326.5 254A20.000000000000004 20.000000000000004 0 0 1 315.2500000000001 272L269.75 294.0000000000001A46.25000000000001 46.25000000000001 0 0 0 244.7500000000001 336.5A52.75 52.75 0 0 0 273.5000000000001 384.75A61.25 61.25 0 0 0 297.25 390.5A55.75 55.75 0 0 0 352.7500000000001 336.25A12.5 12.5 0 0 0 340.2500000000001 323.75A13.25 13.25 0 0 0 327.7500000000001 336.0000000000001A30 30 0 0 1 298.0000000000001 365.5A33.25 33.25 0 0 1 285.2500000000001 362.25A27.750000000000007 27.750000000000007 0 0 1 270.2500000000001 337.25A21.5 21.5 0 0 1 282.2500000000001 317L327.7500000000001 295.25A45.75 45.75 0 0 0 352.7500000000001 254.7500000000001A55 55 0 0 0 316.2500000000001 202.0000000000001A59.25 59.25 0 0 0 297.7500000000001 198.7500000000001zM297 177A12.749999999999998 12.749999999999998 0 0 0 284.5 189.5V211.5A12.749999999999998 12.749999999999998 0 0 0 297 224A12.5 12.5 0 0 0 309.5 211.5V189.5A12.5 12.5 0 0 0 297 177zM297 365.5A12.5 12.5 0 0 0 284.5 378V400A12.749999999999998 12.749999999999998 0 0 0 297 412.5A12.5 12.5 0 0 0 309.5 400V379A12.5 12.5 0 0 0 297 365.5z" />
    <glyph glyph-name="outlined-media-app"
      unicode="&#xEA33;"
      horiz-adv-x="600" d="M292.25 168.25A22.500000000000004 22.500000000000004 0 1 1 314.75 145.7500000000001A21.75 21.75 0 0 1 293.5 168.25zM379.25 500H205.5A57.5 57.5 0 0 1 150 442.75V140.5A57.75000000000001 57.75000000000001 0 0 1 207.25 83H382.25A57.75000000000001 57.75000000000001 0 0 1 439.5 140.5V442.75A60.25 60.25 0 0 1 379.25 500zM408.7500000000001 442.75V140.5A29 29 0 0 0 379.7500000000001 111.0000000000001H205.5A29.249999999999996 29.249999999999996 0 0 0 175 140.0000000000001V442.75A29.500000000000004 29.500000000000004 0 0 0 205 472.25H380A27.5 27.5 0 0 0 409.5 447.25A10.75 10.75 0 0 0 408.75 442.75zM280.25 348.75H305.25A7.5 7.5 0 0 1 312.25 355.75V380.75A7.5 7.5 0 0 1 305.25 387.75H280.25A7.5 7.5 0 0 1 273.2500000000001 380.75V355.75A7.75 7.75 0 0 1 280.25 348.75zM377.5000000000001 387H352.5000000000001A7.5 7.5 0 0 1 345.5000000000001 380V355A7.5 7.5 0 0 1 352.5000000000001 348H377.5000000000001A7.5 7.5 0 0 1 384.5 355V380A7.5 7.5 0 0 1 377.5000000000001 387zM233.2500000000001 387H208.2500000000001A7.5 7.5 0 0 1 201.2500000000001 380V355A7.5 7.5 0 0 1 208.2500000000001 348H233.2500000000001A7.5 7.5 0 0 1 240.2500000000001 355V380A11 11 0 0 1 233.2500000000001 387zM280.25 284.5H305.25A7.5 7.5 0 0 1 312.25 291.5V316.5A7.5 7.5 0 0 1 305.25 323.5H280.25A7.5 7.5 0 0 1 273.2500000000001 316.5V291.5A7.5 7.5 0 0 1 280.25 284.5zM377.5000000000001 322.75H352.5000000000001A7.5 7.5 0 0 1 345.5000000000001 315.75V290.75A7.5 7.5 0 0 1 352.5000000000001 283.75H377.5000000000001A7.5 7.5 0 0 1 384.5 290.75V315.75A7.75 7.75 0 0 1 377.5000000000001 322.75zM233.2500000000001 322.75H208.2500000000001A7.5 7.5 0 0 1 201.2500000000001 315.75V290.75A7.5 7.5 0 0 1 208.2500000000001 283.75H233.2500000000001A7.5 7.5 0 0 1 240.2500000000001 290.75V315.75A15.25 15.25 0 0 1 233.2500000000001 322.75zM280.25 220.25H305.25A7.5 7.5 0 0 1 312.25 227.25V252.25A7.5 7.5 0 0 1 305.25 259.25H280.25A7.5 7.5 0 0 1 273.2500000000001 252.25V227.25A6.500000000000001 6.500000000000001 0 0 1 279.0000000000001 220.25zM233.2500000000001 258.5H208.2500000000001A7.5 7.5 0 0 1 201.2500000000001 251.5V226.5A7.5 7.5 0 0 1 208.2500000000001 219.5H233.2500000000001A7.5 7.5 0 0 1 242.0000000000001 225V250A11.5 11.5 0 0 1 233.2500000000001 258.5z" />
    <glyph glyph-name="outlined-media-camera"
      unicode="&#xEA34;"
      horiz-adv-x="600" d="M298.5 383A100 100 0 0 1 196.5 285A100 100 0 0 1 298.5 187A100 100 0 0 1 400 285A100 100 0 0 1 298.5000000000001 383zM375 285A75 75 0 0 0 225 285A75 75 0 0 0 375 285zM435 415.75H413.25A22.75 22.75 0 0 0 398.25 426L391.75 446.25A41.75 41.75 0 0 1 353.25 475H245.0000000000001A41.75 41.75 0 0 1 206.75 448L198.25 425A16.75 16.75 0 0 0 183.25 414.75H163.25A63.25 63.25 0 0 1 100 353.25V189.25A63.74999999999999 63.74999999999999 0 0 1 163.25 125H436.75A63.74999999999999 63.74999999999999 0 0 1 500 189.25V353.25A66 66 0 0 1 435 415.75zM471.7499999999999 353.25V187.5A37 37 0 0 0 435 152H163.25A37.25 37.25 0 0 0 126.75 189.25V353.25A36 36 0 0 0 161.75 390.5H183.25A42 42 0 0 1 221.75 417.5L228.25 437.75A17.249999999999996 17.249999999999996 0 0 0 243.25 448H351.75A22.75 22.75 0 0 0 366.75 437.75L373.25 417.5A50 50 0 0 1 413.25 390.5H435A37.5 37.5 0 0 0 471.7499999999999 353.25z" />
    <glyph glyph-name="outlined-media-monitor"
      unicode="&#xEA35;"
      horiz-adv-x="600" d="M442.2500000000001 487.25H162A50 50 0 0 1 110.75 437.25V225A50 50 0 0 1 160.75 175H243.75A60.25 60.25 0 0 0 190.75 132H187.5C186 132 186 130.5000000000001 184.5 130.5000000000001C182.75 129.0000000000001 182.75 129.0000000000001 182.75 127.2500000000001S182.75 125.7500000000001 181.25 124.2500000000001V122.5000000000001C181.25 121.0000000000001 181.25 121.0000000000001 182.75 119.2500000000001A3.75 3.75 0 0 1 186 116.0000000000001L189.25 113.0000000000001H414.25A3.2500000000000004 3.2500000000000004 0 0 1 417.5 116.0000000000001C419.25 117.7500000000001 419.25 117.7500000000001 419.25 119.2500000000001S419.25 122.5000000000001 420.75 122.5000000000001A5.5 5.5 0 0 1 419.25 127.2500000000001A3.75 3.75 0 0 1 416 130.5000000000001C414.25 132 414.25 132 412.7500000000001 132H408A66.75 66.75 0 0 0 355.75 175H437.5A50 50 0 0 1 488.75 225V436.5A43.75 43.75 0 0 1 452.0000000000001 486.5A41.75 41.75 0 0 1 442.2500000000001 487.25zM362.2500000000001 130.25H243.75A90.5 90.5 0 0 1 268.75 173.0000000000001H337.75A82.25 82.25 0 0 1 362.75 130.25zM471.2500000000001 220.7500000000001A27.25 27.25 0 0 0 444.0000000000001 195.7500000000001H162A25 25 0 0 0 134.75 220.7500000000001zM471.2500000000001 436.5000000000001V244.5000000000001H134.75V436.5A28.499999999999996 28.499999999999996 0 0 0 163.25 465H444.0000000000001A29.500000000000004 29.500000000000004 0 0 0 471.2500000000001 436.5z" />
    <glyph glyph-name="outlined-media-play"
      unicode="&#xEA36;"
      horiz-adv-x="600" d="M127 63A42.24999999999999 42.24999999999999 0 0 0 114.5 65A40.00000000000001 40.00000000000001 0 0 0 87.5 105.9999999999999V494.5A38.25 38.25 0 0 0 96.75 522.75A40.25 40.25 0 0 0 125 536.75A39.25 39.25 0 0 0 145.75 533.25L491 340A45.00000000000001 45.00000000000001 0 0 0 505.75 278A46 46 0 0 0 492 264L145.5 67.5A41.25 41.25 0 0 0 127 63zM127 513H125A14.5 14.5 0 0 1 115 507.5A13.5 13.5 0 0 1 111.5 496.75V104.2500000000001A14.750000000000002 14.750000000000002 0 0 1 132.75 89.5000000000001L478 285.5000000000001A17.499999999999996 17.499999999999996 0 0 1 483.5 291.2500000000001A19.75 19.75 0 0 1 477.25 318.5000000000001L133 511A15.5 15.5 0 0 1 127.5 512zM100 105.5z" />
    <glyph glyph-name="outlined-navigation-arrowbottom"
      unicode="&#xEA37;"
      horiz-adv-x="600" d="M294.25 219.75A16 16 0 0 0 284 223.25L166.25 341.25A12.25 12.25 0 0 0 183.75 358.75L293.5 250L403.25 359.5A12.25 12.25 0 0 0 420.75 342L303 224A12.5 12.5 0 0 0 294.25 219.75z" />
    <glyph glyph-name="outlined-navigation-arrowleft"
      unicode="&#xEA38;"
      horiz-adv-x="600" d="M250 175A11.749999999999998 11.749999999999998 0 0 0 241.25 178.75A12.000000000000002 12.000000000000002 0 0 0 241.25 196.25L350 306.5L241.25 416.25A12.25 12.25 0 0 0 258.75 433.75L376.75 316A12.5 12.5 0 0 0 380.25 307.25A16 16 0 0 0 376.75 297L258.7500000000001 179.2500000000001A12.25 12.25 0 0 0 250 175z" />
    <glyph glyph-name="outlined-navigation-arrowright"
      unicode="&#xEA39;"
      horiz-adv-x="600" d="M367.75 175A12.5 12.5 0 0 0 359.0000000000001 178.75L241.2500000000001 297A11.749999999999998 11.749999999999998 0 0 0 237.5000000000001 305.75A14.750000000000002 14.750000000000002 0 0 0 241.2500000000001 316L359.0000000000001 433.75A12.5 12.5 0 0 0 376.7500000000001 433.75A12.5 12.5 0 0 0 376.7500000000001 416.25L267.0000000000001 306.5L376.7500000000001 196.75A12.5 12.5 0 0 0 376.7500000000001 179.25A12.749999999999998 12.749999999999998 0 0 0 367.7500000000001 174.9999999999999z" />
    <glyph glyph-name="outlined-navigation-arrowtop"
      unicode="&#xEA3A;"
      horiz-adv-x="600" d="M412 219.75A11.5 11.5 0 0 0 403.25 223.25L293.5 333L183.75 223.25A12.5 12.5 0 0 0 166.25 223.25A12.5 12.5 0 0 0 166.25 241L284 358.75A14.5 14.5 0 0 0 303 358.75L420.75 241A12.5 12.5 0 0 0 420.75 223.25A11.5 11.5 0 0 0 412 219.75z" />
    <glyph glyph-name="outlined-navigation-close"
      unicode="&#xEA3B;"
      horiz-adv-x="600" d="M150 118A11.749999999999998 11.749999999999998 0 0 0 141.25 121.5A12.5 12.5 0 0 0 141.25 139.25L460.75 459A12.749999999999998 12.749999999999998 0 0 0 478.5 459A12.5 12.5 0 0 0 478.5 441.25L158.75 121.5A11.5 11.5 0 0 0 150 118zM469.75 118A12.5 12.5 0 0 0 460.75 121.5L141.25 441.25A12.5 12.5 0 0 0 141.25 459A12.5 12.5 0 0 0 158.75 459L478.5 139.25A12.5 12.5 0 0 0 478.5 121.5A11.749999999999998 11.749999999999998 0 0 0 469.75 118zM469.75 118A12.5 12.5 0 0 0 460.75 121.5L141.25 441.25A12.5 12.5 0 0 0 141.25 459A12.5 12.5 0 0 0 158.75 459L478.5 139.25A12.5 12.5 0 0 0 478.5 121.5A11.749999999999998 11.749999999999998 0 0 0 469.75 118z" />
    <glyph glyph-name="outlined-navigation-directionbottom"
      unicode="&#xEA3C;"
      horiz-adv-x="600" d="M288 106.5000000000001A12.5 12.5 0 0 0 275.5 119.0000000000001V500A12.5 12.5 0 0 0 288 512.5A12.5 12.5 0 0 0 300 500V119A12.5 12.5 0 0 0 288 106.4999999999999zM288 104.7500000000001A12.749999999999998 12.749999999999998 0 0 0 279 108.5L91.25 296.25A12.5 12.5 0 0 0 91.25 314A12.5 12.5 0 0 0 108.75 314L296.75 125A12.5 12.5 0 0 0 288 103.7499999999999zM288 104.7500000000001A12.749999999999998 12.749999999999998 0 0 0 279 108.5A12.5 12.5 0 0 0 279 126L467 314A12.5 12.5 0 0 0 484.5 314A12.5 12.5 0 0 0 484.5 296.25L296.75 108.4999999999999A12.5 12.5 0 0 0 288 104.7499999999999z" />
    <glyph glyph-name="outlined-navigation-directionleft"
      unicode="&#xEA3D;"
      horiz-adv-x="600" d="M480.9999999999999 300H100A12.5 12.5 0 0 0 87.5 312.5A12.5 12.5 0 0 0 100 325H481.0000000000001A12.5 12.5 0 0 0 493.5000000000001 312.5A12.5 12.5 0 0 0 481.0000000000001 300zM294.75 111.75A12.5 12.5 0 0 0 286 133L475 321A12.5 12.5 0 0 0 492.5 321A12.5 12.5 0 0 0 492.5 303.25L304.75 115.5A12.749999999999998 12.749999999999998 0 0 0 294.75 111.75zM482.7499999999999 300A11.5 11.5 0 0 0 473.9999999999999 303.5L286 491.25A12.5 12.5 0 0 0 286 508.75A12.5 12.5 0 0 0 303.75 508.75L491.4999999999999 321A12.5 12.5 0 0 0 491.4999999999999 303.25A11.5 11.5 0 0 0 482.7499999999999 300z" />
    <glyph glyph-name="outlined-navigation-directionright"
      unicode="&#xEA3E;"
      horiz-adv-x="600" d="M482.7499999999999 300H101.75A12.5 12.5 0 0 0 89.25 312.5A12.5 12.5 0 0 0 101.75 325H482.7500000000001A12.5 12.5 0 0 0 495.2500000000001 312.5A12.5 12.5 0 0 0 482.7500000000001 300zM100 300A11.749999999999998 11.749999999999998 0 0 0 91.25 303.75A12.5 12.5 0 0 0 91.25 321.5L279 509.25A12.5 12.5 0 0 0 296.75 509.25A12.5 12.5 0 0 0 296.75 491.75L108.75 303.25A11.749999999999998 11.749999999999998 0 0 0 100 300zM288 111.75A13.5 13.5 0 0 0 279 115.25L91.25 303.25A12.5 12.5 0 0 0 91.25 321A12.5 12.5 0 0 0 108.75 321L296.75 133A12.749999999999998 12.749999999999998 0 0 0 296.75 115.25A13.5 13.5 0 0 0 288.0000000000001 111.75z" />
    </font>
</defs>
</svg>
