<?xml version="1.0" standalone="no"?>
<!DOCTYPE svg PUBLIC "-//W3C//DTD SVG 1.1//EN" "http://www.w3.org/Graphics/SVG/1.1/DTD/svg11.dtd" >
<svg xmlns="http://www.w3.org/2000/svg">
<defs>
  <font id="natds-icons" horiz-adv-x="600">
    <font-face font-family="natds-icons"
      units-per-em="600" ascent="600"
      descent="0" />
    <missing-glyph horiz-adv-x="0" />
    <glyph glyph-name="filled-action-add"
      unicode="&#xEA01;"
      horiz-adv-x="600" d="M300 125A25 25 0 0 0 275 150V275H150A25 25 0 1 0 150 325H275V450A25 25 0 1 0 325 450V325H450A25 25 0 1 0 450 275H325V150A25 25 0 0 0 300 125z" />
    <glyph glyph-name="filled-action-cancel"
      unicode="&#xEA02;"
      horiz-adv-x="600" d="M300 525A225 225 0 1 1 525 300A225 225 0 0 1 300 525zM408.7500000000001 208.75A12.000000000000002 12.000000000000002 0 0 0 408.7500000000001 191.25A12.000000000000002 12.000000000000002 0 0 0 391.2500000000001 191.25L300 282.25L208.75 191.25A12.000000000000002 12.000000000000002 0 0 0 191.25 191.25A12.000000000000002 12.000000000000002 0 0 0 191.25 208.75L282.25 300L191.25 391.25A12.25 12.25 0 0 0 208.75 408.75L300 317.75L391.25 408.75A12.25 12.25 0 0 0 408.7500000000001 391.2500000000001L317.75 300z" />
    <glyph glyph-name="filled-action-check"
      unicode="&#xEA03;"
      horiz-adv-x="600" d="M300 525A225 225 0 1 1 525 300A225 225 0 0 1 300 525zM458.7500000000001 391.25L269.7500000000001 202A12.749999999999998 12.749999999999998 0 0 0 260.7500000000001 198.25A12.25 12.25 0 0 0 252.0000000000001 202L141.2500000000001 312.75A12.5 12.5 0 0 0 141.2500000000001 330.5A12.5 12.5 0 0 0 158.7500000000001 330.5L260.7500000000001 228.5L441.2500000000001 408.75A12.25 12.25 0 1 0 458.7500000000001 391.25z" />
    <glyph glyph-name="filled-action-rating"
      unicode="&#xEA04;"
      horiz-adv-x="600" d="M313.5 509.75L367 403.25A12.749999999999998 12.749999999999998 0 0 1 378.25 396L498.25 379.5A14.249999999999998 14.249999999999998 0 0 0 509.9999999999999 363.75A15.5 15.5 0 0 0 505.7499999999999 355.5L419 271A11 11 0 0 1 415.25 258.25L435.5 138.75A13.5 13.5 0 0 0 424.25 122.75A12.5 12.5 0 0 0 415.25 124L308 179A14.249999999999998 14.249999999999998 0 0 1 295.25 179L188 125A14.000000000000002 14.000000000000002 0 0 0 169.25 130.75A12.749999999999998 12.749999999999998 0 0 0 167.75 139.75L188 257.25A17.499999999999996 17.499999999999996 0 0 1 184.25 270.25L97.25 353.75A14.000000000000002 14.000000000000002 0 0 0 97.25 373.25A12.749999999999998 12.749999999999998 0 0 0 105.5 377.5L225 394A16.25 16.25 0 0 1 236.25 401.5L289.75 509.75A12.749999999999998 12.749999999999998 0 0 0 306.25 517.25A12.5 12.5 0 0 0 313.5 509.75z" />
    <glyph glyph-name="filled-action-subtract"
      unicode="&#xEA05;"
      horiz-adv-x="600" d="M450 275H150A25 25 0 0 0 150 325H450A25 25 0 0 0 450 275z" />
    <glyph glyph-name="filled-brand-naturarosacea"
      unicode="&#xEA06;"
      horiz-adv-x="600" d="M462 375A392.75 392.75 0 0 0 443.75 319.25S443.75 317.75 443.75 319.25C449.75 322 476.4999999999999 335.25 504.7500000000001 347.25S585.5 358.75 572.0000000000001 301S490.5000000000001 209.25 483.7500000000001 205.75S469.0000000000001 199 465.7500000000001 197S463.7500000000001 195.25 465.7500000000001 194.75C473.0000000000001 192.75 497.2500000000001 194.75 497.0000000000001 184S479.0000000000001 155.25 432.2500000000001 135.5A165.25 165.25 0 0 0 328.7500000000001 126S302.2500000000001 101 235.5000000000001 112C187.2500000000001 120.25 175.25 125 164.5000000000001 137A16.25 16.25 0 0 0 164.5000000000001 155.5V159A200 200 0 0 0 31.7500000000001 248.5A27.25 27.25 0 0 0 30.2500000000001 279C36.0000000000001 287.5 55.2500000000001 288.25 75.2500000000001 283.25L114.5000000000001 273.25C116.2500000000001 273.25 116.2500000000001 273.25 114.5000000000001 274.5A541.2499999999999 541.2499999999999 0 0 0 79.0000000000001 322C62.2500000000001 347 41.2500000000001 417 96.0000000000001 445.5C156.5000000000001 477 209.2500000000001 420.5 221.0000000000001 407.25S252.0000000000001 366.7500000000001 253.7500000000001 364S257.5000000000001 364 257.5000000000001 364A551.25 551.25 0 0 0 284.5000000000001 439A101.75000000000001 101.75000000000001 0 0 0 390.5000000000001 492.5C465.5000000000001 478.75 467.7500000000001 403.75 461.7500000000002 376.5000000000001M386.7500000000002 436.0000000000001C344.5000000000002 448.7500000000001 318.2500000000002 417.7500000000001 306.0000000000001 378.2500000000001C296.2500000000001 346.5000000000001 294.2500000000001 338.0000000000001 288.5000000000002 321.5000000000001C280.5000000000002 298.2500000000001 261.0000000000002 296.5000000000001 245.7500000000002 314.5000000000001S204.25 365 191 380C175 400 132.75 416.25 112 390.75C80.5 352 122.25 308.7500000000001 144.25 282.75C159.5 264.5 177.75 251.75 171.75 241.5C169.5 237.5 164.75 236.25 158.5 236.5A738.75 738.75 0 0 0 80.75 252.5000000000001C70.5 254.2500000000001 63 253.7500000000001 60.25 246.2500000000001S69.5 211.7500000000001 102.5 194.7500000000001A386.75000000000006 386.75000000000006 0 0 1 193.5000000000001 168.5000000000001C212.75 164.5000000000001 208.75 155.25 204.5 150.5000000000001S194.7500000000001 142.5000000000001 195.7500000000001 138.0000000000001C198.5000000000001 125.7500000000001 224.7500000000001 123.2500000000001 240.2500000000001 120.7500000000001A96.75000000000001 96.75000000000001 0 0 1 288.75 122.5000000000001C302.25 127.7500000000001 303 135.0000000000001 312.25 138.75S329 138.75 355.5 134.25A162 162 0 0 1 419.25 140.5C450 150.75 462.7499999999999 160.5000000000001 462.7499999999999 165.5S457.4999999999999 170.5 451.9999999999999 171.2500000000001A120.99999999999999 120.99999999999999 0 0 0 415.5 180.75C408 185.5000000000001 413.5 194.25 429.25 200.5A363.24999999999994 363.24999999999994 0 0 1 514 244.25C532.75 261 550.7499999999999 289 534.7499999999999 305.25S491.4999999999999 305.25 476.4999999999999 297.75A625 625 0 0 0 412.9999999999999 269.25C403.2499999999999 267.25 384.9999999999999 267.75 393.5 289.75C403.9999999999999 316.75 409.25 333.25 415.5 349.75C423.7499999999999 370 435.2499999999999 419.75 385.5 434.75" />
    <glyph glyph-name="filled-media-pause"
      unicode="&#xEA07;"
      horiz-adv-x="600" d="M350 525H450A25 25 0 0 0 475 500V100A25 25 0 0 0 450 75H350A25 25 0 0 0 325 100V500A25 25 0 0 0 350 525zM150 525H250A25 25 0 0 0 275 500V100A25 25 0 0 0 250 75H150A25 25 0 0 0 125 100V500A25 25 0 0 0 150 525z" />
    <glyph glyph-name="filled-media-play"
      unicode="&#xEA08;"
      horiz-adv-x="600" d="M100 105.5V494.5A27.25 27.25 0 0 0 125 525A25 25 0 0 0 139.25 522.5L484.9999999999999 330A32.25 32.25 0 0 0 494.9999999999999 285.5A28.75 28.75 0 0 0 485.2499999999999 275.5L139.25 78.25A27.5 27.5 0 0 0 100 105.5z" />
    <glyph glyph-name="filled-navigation-directionleft"
      unicode="&#xEA09;"
      horiz-adv-x="600" d="M482.7499999999999 263H160.25L305.5 117.75A25 25 0 1 0 270.25 82.25L82.25 270.25A25 25 0 0 0 82.4 305.65L270.25 493.5A25 25 0 0 0 305.5 458.25L160.45 313H482.7499999999999A25 25 0 1 0 482.7499999999999 263z" />
    <glyph glyph-name="filled-navigation-directionright"
      unicode="&#xEA0A;"
      horiz-adv-x="600" d="M117.25 287A25 25 0 1 0 117.25 337H439.75L294.5 482.25A25 25 0 0 0 329.7500000000001 517.75L513.6750000000001 333.825A24.925 24.925 0 0 0 524.725 316.825C526.6500000000001 306.7750000000001 522.225 296.025 513.0500000000001 290.55L329.75 107.25A24.975 24.975 0 0 0 312 100A25 25 0 0 0 294.5 142.5L438.8 287z" />
    <glyph glyph-name="filled-navigation-directiontbottom"
      unicode="&#xEA0B;"
      horiz-adv-x="600" d="M287 482.75A25 25 0 1 0 337 482.75V160.25L482.25 305.5A25 25 0 0 0 517.75 270.25L330.825 83.3249999999999A24.75 24.75 0 0 0 312 75A24.625 24.625 0 0 0 293.7750000000001 82.975L106.5 270.25A25 25 0 1 0 142 305.5L287 160.5000000000001z" />
    <glyph glyph-name="filled-navigation-directiontop"
      unicode="&#xEA0C;"
      horiz-adv-x="600" d="M475 287A25 25 0 0 0 457.25 294.5L313 439.3250000000001V117.2500000000001A25 25 0 0 0 263 117.2500000000001V439.75L117.75 294.5A25 25 0 1 0 82.25 329.7500000000001L270.1 517.6L270.25 517.75A25 25 0 0 0 305.6500000000001 517.6L493.5000000000001 329.7500000000001A25 25 0 0 0 475.0000000000001 287z" />
    <glyph glyph-name="filled-navigation-menu"
      unicode="&#xEA0D;"
      horiz-adv-x="600" d="M500 375H100A25 25 0 0 0 100 425H500A25 25 0 0 0 500 375zM500 275H100A25 25 0 0 0 100 325H500A25 25 0 0 0 500 275zM500 175H100A25 25 0 0 0 100 225H500A25 25 0 0 0 500 175z" />
    <glyph glyph-name="filled-navigation-more"
      unicode="&#xEA0E;"
      horiz-adv-x="600" d="M250 150A50 50 0 1 0 300 100A50 50 0 0 0 250 150zM250 300A50 50 0 1 0 300 250A50 50 0 0 0 250 300zM250 450A50 50 0 1 0 300 400A50 50 0 0 0 250 450z" />
    <glyph glyph-name="outlined-action-add"
      unicode="&#xEA0F;"
      horiz-adv-x="600" d="M450 287.5H312.5V150A12.5 12.5 0 0 0 287.5 150V287.5H150A12.5 12.5 0 0 0 150 312.5H287.5V450A12.5 12.5 0 0 0 312.5 450V312.5H450A12.5 12.5 0 0 0 450 287.5z" />
    <glyph glyph-name="outlined-action-attachment"
      unicode="&#xEA10;"
      horiz-adv-x="600" d="M306.5 56.75A157.75 157.75 0 0 0 150 213V408C154.15 497.975 254.15 549.7 330 501.1A116.99999999999999 116.99999999999999 0 0 0 383.75 408V244.25C383.75 184.6 319.175 147.3 267.5 177.125A77.5 77.5 0 0 0 228.75 244.2500000000001V369.25A12.749999999999998 12.749999999999998 0 0 0 241.25 381.75A12.5 12.5 0 0 0 253.75 369.25V244.2500000000001C253.75 203.8250000000001 297.5 178.5750000000001 332.5 198.775A52.5 52.5 0 0 1 358.75 244.25V408C362.45 478.725 288.175 526.925 225.1 494.75A91.95 91.95 0 0 1 175 408V213C179.425 111.8750000000001 291.6500000000001 53.425 377.025 107.825A131.47500000000002 131.47500000000002 0 0 1 437.75 213V368.75A12.5 12.5 0 0 0 450.25 381.25A12.749999999999998 12.749999999999998 0 0 0 462.7499999999999 368.75V213A157.75 157.75 0 0 0 306.5 56.75z" />
    <glyph glyph-name="outlined-action-autofilter"
      unicode="&#xEA11;"
      horiz-adv-x="600" d="M265.75 97A24.975 24.975 0 0 0 246 107.25A25 25 0 0 0 241.5 120.5V256.75L116.75 425A25 25 0 0 0 113.75 445.25A24.975 24.975 0 0 0 125 459.5C128.425 461.25 132.175 462.275 136 462.5H463.75C470.2500000000001 462.35 476.45 459.65 481.0000000000001 455A23.25 23.25 0 0 0 487.5000000000001 437.75A21.75 21.75 0 0 0 483.2500000000001 424.7500000000001L362.5000000000001 256.0000000000001V170A21 21 0 0 0 350.0000000000001 150L279.2500000000001 100A24.875000000000004 24.875000000000004 0 0 0 265.7500000000001 97zM137.75 437.5L262.75 270.75A20.499999999999996 20.499999999999996 0 0 0 267.75 257V120.75L338.75 170.75V256.75A19.5 19.5 0 0 0 342 268L343.5 270.7499999999999L464.0000000000001 438.9999999999999zM337.75 169.5z" />
    <glyph glyph-name="outlined-action-calendar"
      unicode="&#xEA12;"
      horiz-adv-x="600" d="M322.5 254.75V253.5A20.25 20.25 0 1 0 282.25 254.75V256.5A19.25 19.25 0 0 0 302.5000000000001 275A20.000000000000004 20.000000000000004 0 0 0 322.5000000000001 254.75zM322.5 183.25A1.475 1.475 0 0 0 322.5 181.75A20.25 20.25 0 1 0 282.25 183.25V184.75A19.5 19.5 0 0 0 302.5000000000001 203.5A20.499999999999996 20.499999999999996 0 0 0 322.5000000000001 183.25zM209.5 203.5A19.5 19.5 0 0 0 228.2500000000001 183.25V181.75A19.5 19.5 0 0 0 208 163H206.25A19.25 19.25 0 0 0 187.75 183.25V184.75A19.5 19.5 0 0 0 208 203.5zM396.75 275A19.75 19.75 0 0 0 415.5 254.75A20.499999999999996 20.499999999999996 0 0 0 395.75 235.25A20.000000000000004 20.000000000000004 0 0 0 375 254.75V256.5A19.25 19.25 0 0 0 395.25 275zM505.75 375V158A56.25 56.25 0 0 0 450 102.25H154.25A55.25000000000001 55.25000000000001 0 0 0 100 158V377.75A53.74999999999999 53.74999999999999 0 0 0 155.75 429.5H171C173.5 429.75 175.3 432 175 434.5V451.5A22 22 0 0 0 197.75 473.25H240A20.25 20.25 0 0 0 260.25 453V435A4.5 4.5 0 0 1 265.25 431.25H337.25C339.75 431.5 341.55 433.75 341.25 436.25V453A22.25 22.25 0 0 0 363 475H405.25A22.25 22.25 0 0 0 427.2499999999999 453V435A4.250000000000001 4.250000000000001 0 0 1 432.2499999999999 431.25H447.4999999999999A58.75 58.75 0 0 0 505.75 375zM233.25 446.25H204.5C202.75 446.25 202.75 446.25 202.75 444.75V431.25H233.25zM401.75 431.25V444.75C401.75 446.25 401.75 446.25 400 446.25H371.5C370 446.25 370 446.25 370 444.75V431.25zM475 375A29.249999999999996 29.249999999999996 0 0 1 450 404.25H155.75A29.500000000000004 29.500000000000004 0 0 1 127 375V157.5A29.525000000000002 29.525000000000002 0 0 1 155.75 128.7500000000001H447.5A29.525000000000002 29.525000000000002 0 0 1 476.2499999999999 157.5V375zM226.5 333.25L218 325L225.25 316.25A6.75 6.75 0 0 0 225.25 307.75A7.25 7.25 0 0 0 215.25 306.25L207 314.75L198.75 306.5A8.049999999999999 8.049999999999999 0 0 0 190 306.5A7.25 7.25 0 0 0 190 316.5L198.25 325L190 333.5A6.75 6.75 0 0 0 190 342A7.25 7.25 0 0 0 200 343.5L209 335L217.5 343.5A6.500000000000001 6.500000000000001 0 0 0 226.5 343.5A10.799999999999999 10.799999999999999 0 0 0 226.5 333.25zM225.5000000000001 262.5L217 254L225.2500000000001 245.5A6.75 6.75 0 0 0 225.2500000000001 237A7.25 7.25 0 0 0 215.25 235.5L207 244L198.75 235.75A8.049999999999999 8.049999999999999 0 0 0 190 235.75A7.000000000000001 7.000000000000001 0 0 0 190 245.75L198.25 254.25L190 262.75A6.75 6.75 0 0 0 190 271.25A7.5 7.5 0 0 0 200.0000000000001 272.75L209 264.25L217.5 272.75A6.500000000000001 6.500000000000001 0 0 0 226.5 272.75A10.774999999999999 10.774999999999999 0 0 0 225.5000000000001 262.5zM321.0000000000001 333.25L312.5000000000001 325L322.0000000000001 316.5A4.3 4.3 0 0 0 323.5000000000001 315A7.5 7.5 0 0 0 322.0000000000001 305A7.5 7.5 0 0 0 312.0000000000001 306.5L303.5000000000001 315L295.0000000000001 306.5A7.5249999999999995 7.5249999999999995 0 0 0 286.5000000000001 306.5A7.5 7.5 0 0 0 285.0000000000001 316.5L293.5000000000001 325L285.0000000000001 333.5A7.5249999999999995 7.5249999999999995 0 0 0 285.0000000000001 342A7.25 7.25 0 0 0 295.0000000000001 343.5L303.5000000000001 335L312.0000000000001 343.5A6.500000000000001 6.500000000000001 0 0 0 321.0000000000001 343.5A10.799999999999999 10.799999999999999 0 0 0 321.0000000000001 333.25zM415.2500000000001 333.5L406.7500000000001 325L416.2500000000001 316.5C418.0000000000001 313.95 418.0000000000001 310.55 416.2500000000001 308A7.5 7.5 0 0 0 406.2500000000001 306.5L397.7500000000001 315L389.5000000000001 306.5A7.5249999999999995 7.5249999999999995 0 0 0 381.0000000000001 306.5A7.000000000000001 7.000000000000001 0 0 0 379.5000000000001 316.5L387.7500000000001 325L377.7500000000001 333.5L376.2500000000001 335A7.5 7.5 0 0 0 377.7500000000001 345A7.25 7.25 0 0 0 387.7500000000001 343.5L396.2500000000001 335L404.7500000000001 343.5A6.500000000000001 6.500000000000001 0 0 0 413.7500000000001 343.5C417.0000000000001 341.75 417.0000000000001 336.75 415.2500000000001 333.5z" />
    <glyph glyph-name="outlined-action-cancel"
      unicode="&#xEA13;"
      horiz-adv-x="600" d="M300 62C116.8 62 2.275 260.325 93.875 419C185.5 577.675 414.5 577.675 506.125 419A238.12500000000003 238.12500000000003 0 0 0 538 300A238.275 238.275 0 0 0 300 62zM300 512C136.8 512 34.8 335.325 116.4 194C198 52.675 402 52.675 483.6 194A212.025 212.025 0 0 1 300 512zM187.5 175A11.700000000000001 11.700000000000001 0 0 0 178.75 178.75A12.000000000000002 12.000000000000002 0 0 0 178.75 196.25L282.5 300L178.75 403.75A12.375 12.375 0 0 0 196.25 421.25L300 317.5L403.75 421.25A12.375 12.375 0 0 0 421.25 403.75L317.5 300L421.2500000000001 196.2500000000001A12.000000000000002 12.000000000000002 0 0 0 421.2500000000001 178.7500000000001A11.700000000000001 11.700000000000001 0 0 0 412.5 175.0000000000001A11.700000000000001 11.700000000000001 0 0 0 403.75 178.7500000000001L300 282.5L196.25 178.75A11.700000000000001 11.700000000000001 0 0 0 187.5 175z" />
    <glyph glyph-name="outlined-action-change"
      unicode="&#xEA14;"
      horiz-adv-x="600" d="M337 278.875A12.5 12.5 0 0 0 328.25 300.375L424.4 395.65L145.125 399.375A12.549999999999999 12.549999999999999 0 0 0 133 412.125A11.525 11.525 0 0 0 146.325 424.375L422.9250000000001 421.6L328.2500000000001 515.625A12.5 12.5 0 1 0 345.7500000000001 533.125L463.25 416.875A13.775 13.775 0 0 0 467 407.875A12.774999999999999 12.774999999999999 0 0 0 463.25 399.125L345.5 282.625A12.15 12.15 0 0 0 337 278.875zM263 61.875A12.674999999999999 12.674999999999999 0 0 0 254 65.625L136.5 181.875A13.625 13.625 0 0 0 133 190.875A12.5 12.5 0 0 0 136.5 199.375L254 315.875A12.549999999999999 12.549999999999999 0 0 0 271.75 298.125L176.125 203.375H453.525C462.95 203.375 468.8000000000001 192.9499999999999 464.1250000000001 184.625A12.175 12.175 0 0 0 453.525 178.375H175.575L271.75 82.875A12.25 12.25 0 0 0 263 61.875z" />
    <glyph glyph-name="outlined-action-check"
      unicode="&#xEA15;"
      horiz-adv-x="600" d="M279.175 205H276.925A25 25 0 0 0 259.175 214.25L198.1750000000001 287.25A12.749999999999998 12.749999999999998 0 0 0 200.1750000000001 305A12.25 12.25 0 0 0 217.675 303.25L278.925 230.5L381.925 389.25A12.5 12.5 0 0 0 402.925 375.75L300.175 217A36.975 36.975 0 0 0 294.925 211.25A24.900000000000002 24.900000000000002 0 0 0 279.175 205zM300.175 62.5C117.35 62.5 3.075 260.425 94.5 418.75C185.9 577.075 414.45 577.075 505.85 418.75A237.42499999999998 237.42499999999998 0 0 0 537.6750000000001 300A237.77499999999998 237.77499999999998 0 0 0 300.175 62.5zM300.175 512.5C136.6 512.5 34.35 335.425 116.15 193.75C197.925 52.0749999999999 402.425 52.0749999999999 484.2 193.75A212.49999999999997 212.49999999999997 0 0 1 512.6750000000001 300A212.75 212.75 0 0 1 300.175 512.5z" />
    <glyph glyph-name="outlined-action-closedbox"
      unicode="&#xEA16;"
      horiz-adv-x="600" d="M487.525 357.05H474.7500000000001V147.9250000000001A27.750000000000007 27.750000000000007 0 0 0 449.7500000000001 118.925L149.7500000000001 118.175A28.000000000000004 28.000000000000004 0 0 0 124.7500000000001 148.175V357.05H112.5250000000001A25 25 0 0 0 87.5250000000001 383.55V456.8A25 25 0 0 0 112.5250000000001 481.8H487.525A25 25 0 0 0 512.525 456.8V383.3A25 25 0 0 0 487.525 358.3zM112.525 457.05V382.05H487.525V456.8zM149.75 147.9250000000001C149.75 145.425 149.75 143.925 152 143.925H449.7500000000001A4.15 4.15 0 0 1 449.7500000000001 146.9250000000001V357.05H149.7500000000001zM299.75 194.425A12.5 12.5 0 0 0 287.25 206.925V249.175H245.0000000000001A12.5 12.5 0 0 0 245.0000000000001 274.175H287.25V316.175A12.5 12.5 0 0 0 312.25 316.175V274.175H353.75A12.5 12.5 0 0 0 353.75 249.175H312.25V207.175A12.749999999999998 12.749999999999998 0 0 0 299.75 194.425z" />
    <glyph glyph-name="outlined-action-copy"
      unicode="&#xEA17;"
      horiz-adv-x="600" d="M374.975 62.475H149.975A37.5 37.5 0 0 0 112.475 99.975V424.975A37.5 37.5 0 0 0 149.975 462.475H187.475V499.975A37.5 37.5 0 0 0 224.975 537.4749999999999H374A11.749999999999998 11.749999999999998 0 0 0 383.725 533.7249999999999L483.725 433.725A11.749999999999998 11.749999999999998 0 0 0 487.475 424V174.975A37.5 37.5 0 0 0 449.975 137.475H412.475V99.975A37.5 37.5 0 0 0 374.975 62.475zM149.975 437.475A12.5 12.5 0 0 1 137.475 424.975V99.975A12.5 12.5 0 0 1 149.975 87.475H374.975A12.5 12.5 0 0 1 387.475 99.975V137.475H224.975A37.5 37.5 0 0 0 187.475 174.975V437.475zM224.975 512.4749999999999A12.5 12.5 0 0 1 212.475 499.975V174.975A12.5 12.5 0 0 1 224.975 162.475H449.9750000000001A12.5 12.5 0 0 1 462.4750000000001 174.975V412.475H399.9750000000001A37.5 37.5 0 0 0 362.4750000000001 449.975V512.4749999999999zM374.975 339.975H249.975A12.5 12.5 0 0 0 249.975 364.975H374.975A12.5 12.5 0 0 0 374.975 339.975zM399.975 279.975H249.975A12.5 12.5 0 0 0 249.975 304.975H399.975A12.5 12.5 0 0 0 399.975 279.975zM399.975 219.725H249.975A12.5 12.5 0 0 0 249.975 244.725H399.975A12.5 12.5 0 0 0 399.975 219.725zM387.475 449.975A12.5 12.5 0 0 1 399.975 437.475H444.725L387.4750000000001 494.725z" />
    <glyph glyph-name="outlined-action-cycle"
      unicode="&#xEA18;"
      horiz-adv-x="600" d="M298.2000000000001 77.875A219.25 219.25 0 0 0 87.7 255.625A12.749999999999998 12.749999999999998 0 0 0 112.7 260.375A194 194 0 0 1 298.9500000000001 102.8749999999999A188.25000000000003 188.25000000000003 0 0 1 476.35 230.5L425.2000000000001 207.875A12.5 12.5 0 0 0 408.7000000000001 214.125A12.25 12.25 0 0 0 415.2000000000001 230.625L487.4500000000001 262.875A11.450000000000001 11.450000000000001 0 0 0 496.9500000000001 262.875A12.749999999999998 12.749999999999998 0 0 0 503.9500000000001 256.375L536.9500000000002 181.3750000000001A12.749999999999998 12.749999999999998 0 0 0 530.45 164.8750000000001A11.200000000000001 11.200000000000001 0 0 0 525.2 163.8750000000001A12.5 12.5 0 0 0 513.7 171.3750000000001L495.95 211.4500000000001A213.225 213.225 0 0 0 298.2000000000001 77.875zM492.2 344.375A12.5 12.5 0 0 0 479.9500000000001 353.875A191.25000000000003 191.25000000000003 0 0 1 297.9500000000001 497.125A187.14999999999998 187.14999999999998 0 0 1 129.8500000000001 390.65L175.2000000000001 411.375A12.5 12.5 0 0 0 191.7000000000001 405.125A12.25 12.25 0 0 0 185.7000000000001 388.625L110.7000000000001 354.125A13.575 13.575 0 0 0 106.2000000000001 352.875A10.875 10.875 0 0 0 101.4500000000001 352.875A13.75 13.75 0 0 0 94.4500000000001 359.625L63.7000000000001 438.375A12.5 12.5 0 1 0 86.7000000000001 447.625L106.0000000000001 397.275A212.725 212.725 0 0 0 297.9500000000001 522.125A216 216 0 0 0 504.2 359.625A12.5 12.5 0 0 0 495.2000000000001 344.375z" />
    <glyph glyph-name="outlined-action-delete"
      unicode="&#xEA19;"
      horiz-adv-x="600" d="M285.375 159.75V337.25A13.75 13.75 0 0 0 312.625 337.25V159.25A12.5 12.5 0 0 0 299.125 147.5000000000001A14.000000000000002 14.000000000000002 0 0 0 285.375 159.75zM469.125 415V404A32 32 0 0 0 437.625 371.75L425.875 151.75A56.00000000000001 56.00000000000001 0 0 0 370.875 100H229.1250000000001A56.00000000000001 56.00000000000001 0 0 0 174.125 150L162.625 370A34.25000000000001 34.25000000000001 0 0 0 130.875 403.25V413.25A33.5 33.5 0 0 0 164.125 446.75H214.125V466.75A33.5 33.5 0 0 0 247.625 500H352.625A33.5 33.5 0 0 0 385.875 466.75V448.25H435.8750000000001A35.49999999999999 35.49999999999999 0 0 0 469.125 415zM187.625 371.75L199.125 153.25A30.725 30.725 0 0 1 229.125 125H370.875A32 32 0 0 1 400.875 153.25L412.625 371.75zM239.125 446.75H360.875V467.5A7.75 7.75 0 0 1 352.625 475H246.625A8 8 0 0 1 239.125 466.75zM444.125 416A7.75 7.75 0 0 1 435.8750000000001 423.25H163.3750000000001A7.75 7.75 0 0 1 155.8750000000001 415V405C155.8750000000001 400 159.1250000000001 395 164.1250000000001 396.75H435.8750000000001C439.1250000000001 396.75 444.125 400 444.125 403.25zM240.375 160.2499999999999L234.625 337.7499999999999A13.000000000000002 13.000000000000002 0 0 0 248.1250000000001 349.7499999999999C257.8750000000001 349.7499999999999 263.625 344.2499999999999 263.625 337.25L269.625 160A13.5 13.5 0 0 0 265.625 151A14.925 14.925 0 0 0 255.875 147.5A16.25 16.25 0 0 0 240.375 160.25zM334.875 150.9999999999999A12.549999999999999 12.549999999999999 0 0 0 330.875 159.9999999999999L335.875 337.7499999999999A12.749999999999998 12.749999999999998 0 0 0 349.375 349.4999999999999A14.925 14.925 0 0 0 359.125 345.9999999999999A13.049999999999999 13.049999999999999 0 0 0 363.125 337.2499999999999L357.375 159.9999999999999A16.25 16.25 0 0 0 341.875 147.4999999999999C337.875 147.4999999999999 334.125 149.9999999999999 334.875 150.9999999999999z" />
    <glyph glyph-name="outlined-action-done"
      unicode="&#xEA1A;"
      horiz-adv-x="600" d="M247.75 161.4499999999999A11.700000000000001 11.700000000000001 0 0 0 239 165.1999999999999L91.25 312.95A12.375 12.375 0 0 0 108.75 330.45L247.75 191.6999999999999L491.2499999999999 434.95A12.375 12.375 0 0 0 508.7499999999999 417.45L256.5 165.1999999999999A11.700000000000001 11.700000000000001 0 0 0 247.75 161.4499999999999z" />
    <glyph glyph-name="outlined-action-download"
      unicode="&#xEA1B;"
      horiz-adv-x="600" d="M299.875 219.625A12.3 12.3 0 0 0 291.125 223.375A11.200000000000001 11.200000000000001 0 0 0 289.25 225.75L185.375 329.6250000000001A12.5 12.5 0 0 0 202.875 347.3750000000001L287.875 262.1750000000001V465.875A12.5 12.5 0 0 0 312.875 465.875V262.875L397.375 347.375A12.549999999999999 12.549999999999999 0 0 0 415.125 329.625L311.3000000000001 226.025A12.749999999999998 12.749999999999998 0 0 0 309.1250000000001 223.125A11.825 11.825 0 0 0 300.3750000000001 219.625H299.8750000000001zM432.375 121.6250000000001H167.625A50 50 0 0 0 117.625 171.6250000000001V187.375A12.5 12.5 0 0 0 142.625 187.375V171.6250000000001A25 25 0 0 1 167.625 146.6250000000001H432.3750000000001A25 25 0 0 1 457.3750000000001 171.6250000000001V187.375A12.5 12.5 0 0 0 482.3750000000001 187.375V171.6250000000001A50 50 0 0 0 432.3750000000001 121.6250000000001z" />
    <glyph glyph-name="outlined-action-edit"
      unicode="&#xEA1C;"
      horiz-adv-x="600" d="M440.0000000000001 347.775L250.5250000000001 158.3A12.25 12.25 0 0 0 248.2500000000001 155.025L232.5000000000001 139.525A177.375 177.375 0 0 0 138.25 89.525L113.25 85.275A13.875000000000004 13.875000000000004 0 0 0 107.25 85.525A20.25 20.25 0 0 0 88 100.775A16.5 16.5 0 0 0 88 107.775L91 132.775A178.8 178.8 0 0 0 142.75 238.0250000000001L154 249.275A12.7 12.7 0 0 0 157.8000000000001 251.825L340.975 435A11.725 11.725 0 0 0 344.5 441.275L399.75 496.525C424.75 521.05 464.75 521.05 489.75 496.525L494.0000000000001 492.275A64 64 0 0 0 494.0000000000001 402.5250000000001L442.1 350.625A12.7 12.7 0 0 0 440.0000000000001 347.775zM354.0000000000001 414.025L180.6250000000001 240.4L238.8750000000001 182.15L413.2250000000001 355.025L355.7500000000001 412.3zM162.0000000000001 223.525L159.5000000000001 221.275A154.25 154.25 0 0 1 115.0000000000001 130.775L112.7500000000001 111.525L133.0000000000001 115.025A152.025 152.025 0 0 1 214.0000000000001 158.025L220.7500000000001 164.7749999999999zM476.0000000000001 420.025A38.75 38.75 0 0 1 476.0000000000001 474.525L471.75 477.525A38.75 38.75 0 0 1 417.2500000000001 477.525L371.3250000000001 432.825L430.55 374.5750000000001z" />
    <glyph glyph-name="outlined-action-favorite"
      unicode="&#xEA1D;"
      horiz-adv-x="600" d="M421.125 116.125A19.550000000000004 19.550000000000004 0 0 0 409.375 120.125L301.875 193.875L191.375 121.375A20.25 20.25 0 0 0 160.625 137.625V377.625A12.5 12.5 0 0 0 173.125 390.125H428.125A12.5 12.5 0 0 0 440.625 377.625V136.375A18.249999999999996 18.249999999999996 0 0 0 436.625 123.875A18.75 18.75 0 0 0 423.875 116.375zM301.875 219.875A21.674999999999997 21.674999999999997 0 0 0 311.375 217.375L415.625 146.375V365.125H185.625V146.375L289.875 216.125A23.25 23.25 0 0 0 301.875 219.875zM448.125 406.375H151.875A12.5 12.5 0 0 0 139.375 418.875V471.375A12.5 12.5 0 0 0 151.875 483.875H448.125A12.5 12.5 0 0 0 460.625 471.375V418.875A12.5 12.5 0 0 0 448.125 406.375zM164.375 431.375H435.625V458.875H164.375z" />
    <glyph glyph-name="outlined-action-filter"
      unicode="&#xEA1E;"
      horiz-adv-x="600" d="M481.25 167.425A12.749999999999998 12.749999999999998 0 0 0 468.75 154.925H341.55L341.05 152.85C329.8 110.15 276.575 95.625 245.2 126.7000000000001A57.2 57.2 0 0 0 229.4 155.9H131.25A12.749999999999998 12.749999999999998 0 0 0 118.75 168.4A12.5 12.5 0 0 0 131.25 180.9H229.85L230.125 182.025C241.35 224.7250000000001 294.575 239.2500000000001 325.95 208.1750000000001C333.875 200.3000000000001 339.2 190.4750000000001 341.55 179.9250000000001H467.75A12.5 12.5 0 0 0 481.25 167.4250000000001zM276.5 200.675A34.449999999999996 34.449999999999996 0 1 1 294.675 134.2A34.449999999999996 34.449999999999996 0 0 1 276.5 200.675zM481.25 301.65A12.5 12.5 0 0 0 468.75 289.15H433.6C433.425 288.275 433.2000000000001 287.4 432.9750000000001 286.525C421.75 243.825 368.5000000000001 229.3 337.1500000000001 260.375A57.32500000000001 57.32500000000001 0 0 0 321.4250000000001 289.15H132.25A12.5 12.5 0 0 0 119.75 301.65A12.749999999999998 12.749999999999998 0 0 0 132.25 314.15H321.675C321.7750000000001 314.675 321.925 315.175 322.05 315.7C333.2750000000001 358.4 386.5250000000001 372.925 417.8750000000001 341.85C425.6750000000002 334.125 430.9500000000001 324.4749999999999 433.3750000000001 314.1499999999999H467.7500000000001A12.749999999999998 12.749999999999998 0 0 0 481.2500000000001 301.6499999999999zM368.45 334.35A34.425 34.425 0 1 1 386.575 267.875A34.425 34.425 0 1 1 368.45 334.35zM468.75 445.075A12.749999999999998 12.749999999999998 0 0 0 481.25 432.575A12.5 12.5 0 0 0 468.75 420.075H271.95L271.45 418C260.225 375.3 206.975 360.775 175.625 391.825A57.42500000000001 57.42500000000001 0 0 0 160 420.175V420.0750000000001H132.25A12.5 12.5 0 0 0 119.75 432.5750000000001A12.749999999999998 12.749999999999998 0 0 0 132.25 445.0750000000001H160.025L160.525 447.175C171.75 489.85 225 504.4 256.35 473.325C264.275 465.45 269.6 455.625 271.95 445.075zM206.925 465.8A34.449999999999996 34.449999999999996 0 1 1 225.05 399.35A34.425 34.425 0 1 1 206.925 465.8z" />
    <glyph glyph-name="outlined-action-gridsquare"
      unicode="&#xEA1F;"
      horiz-adv-x="600" d="M250 325H100A25 25 0 0 0 75 350V500A25 25 0 0 0 100 525H250A25 25 0 0 0 275 500V350A25 25 0 0 0 250 325zM100 500V350H250V500zM500 325H350A25 25 0 0 0 325 350V500A25 25 0 0 0 350 525H500A25 25 0 0 0 525 500V350A25 25 0 0 0 500 325zM350 500V350H500V500zM250 75H100A25 25 0 0 0 75 100V250A25 25 0 0 0 100 275H250A25 25 0 0 0 275 250V100A25 25 0 0 0 250 75zM100 250V100H250V250zM500 75H350A25 25 0 0 0 325 100V250A25 25 0 0 0 350 275H500A25 25 0 0 0 525 250V100A25 25 0 0 0 500 75zM350 250V100H500V250z" />
    <glyph glyph-name="outlined-action-help"
      unicode="&#xEA20;"
      horiz-adv-x="600" d="M300.175 62.5C117.35 62.5 3.075 260.425 94.5 418.75C185.9 577.075 414.45 577.075 505.85 418.75A237.42499999999998 237.42499999999998 0 0 0 537.6750000000001 300A237.77499999999998 237.77499999999998 0 0 0 300.175 62.5zM300.175 512.5C136.6 512.5 34.35 335.425 116.15 193.75C197.925 52.0749999999999 402.425 52.0749999999999 484.2 193.75A212.49999999999997 212.49999999999997 0 0 1 512.6750000000001 300A212.75 212.75 0 0 1 300.175 512.5zM300.175 233.5A12.5 12.5 0 0 0 287.675 246A95 95 0 0 0 328.425 322.75C344.675 337.25 353.425 346.25 353.425 362.75A54.5 54.5 0 0 1 300.175 417.25A54.75 54.75 0 0 1 245.6750000000001 368.75A12.749999999999998 12.749999999999998 0 0 0 231.925 357.5A12.5 12.5 0 0 0 220.9250000000001 371.25A79.5 79.5 0 0 0 300.175 442.25A79.5 79.5 0 0 0 379.675 362.75A76.5 76.5 0 0 0 345.6750000000001 304.0000000000001A71.75 71.75 0 0 1 313.4250000000001 246.0000000000001A12.749999999999998 12.749999999999998 0 0 0 300.1750000000001 233.5000000000001zM300.175 157.75A33 33 0 1 0 300.175 223.75A33 33 0 0 0 300.175 157.75zM300.175 198.75A8.225 8.225 0 0 1 292.175 190.75A8 8 0 0 1 308.175 190.75A8.225 8.225 0 0 1 300.175 198.75z" />
    <glyph glyph-name="outlined-action-history"
      unicode="&#xEA21;"
      horiz-adv-x="600" d="M81.05 175.95A12.5 12.5 0 1 0 103.05 187.9500000000001C180.9 43.8750000000001 385.55 38.1 471.4 177.5750000000001C557.2500000000001 317.0250000000001 459.9250000000001 497.15 296.225 501.7500000000001A212.725 212.725 0 0 1 110.6500000000001 403.1750000000001L234.175 423.6500000000001A12.5 12.5 0 0 0 248.4250000000001 413.4000000000001A12.25 12.25 0 0 0 238.175 399.1500000000001L88.175 374.1500000000001L86.175 373.9000000000001A11.700000000000001 11.700000000000001 0 0 0 77.425 377.6500000000001A11.5 11.5 0 0 0 73.925 388.4000000000001L98.925 538.4000000000001A12.65 12.65 0 1 0 123.925 534.4000000000001L108.425 443.0000000000001C206.1 558.1750000000001 395.1500000000001 555.3750000000001 485.675 421.2500000000001A237.47500000000002 237.47500000000002 0 0 0 289.45 50.95A237.45 237.45 0 0 0 81.05 175.9500000000001zM250.3 273.7V373.7000000000001A12.5 12.5 0 0 0 275.3 373.7000000000001V278.9500000000001L342.3 211.9500000000001A12.5 12.5 0 0 0 342.3 194.2000000000001A11.825 11.825 0 0 0 333.55 190.7A12.525 12.525 0 0 0 324.55 194.2000000000001L255.2750000000001 263.725A12.450000000000001 12.450000000000001 0 0 0 250.3000000000001 273.7z" />
    <glyph glyph-name="outlined-action-like"
      unicode="&#xEA22;"
      horiz-adv-x="600" d="M137.05 141.25A25 25 0 0 0 120.3 148A24.950000000000003 24.950000000000003 0 0 0 113.3 164.75V335A25 25 0 0 0 136.8 358.75H183.3A23.499999999999996 23.499999999999996 0 0 0 208.3 335.25L209.5500000000001 166.25A24.950000000000003 24.950000000000003 0 0 0 202.5500000000001 149.5A22.75 22.75 0 0 0 185.8000000000001 142.4999999999999zM182.05 335L137.05 333.75V165H182.05zM381.05 103.7499999999999H302.05A45.95 45.95 0 0 0 280.05 110.75L232.3 144.75A13.000000000000002 13.000000000000002 0 0 0 227.05 155V347.5A12.5 12.5 0 0 0 239.55 360A25 25 0 0 1 265.8 385V472.5C265.9 478.85 268.4 484.925 272.8 489.5A25 25 0 0 0 289.55 496.25A82.5 82.5 0 0 0 372.05 415V360H408.3A80.2 80.2 0 0 0 461.5499999999999 339.25A79.25 79.25 0 0 0 482.5499999999999 256L436.0499999999999 142.75A57.75000000000001 57.75000000000001 0 0 0 381.05 103.7499999999999zM252.05 161.5L294.3 131.5A18 18 0 0 1 302.8 128.75H381.05A33.25 33.25 0 0 1 412.8 151.5L459.3 264.75A54.75 54.75 0 0 1 444.8000000000001 321A55.70000000000001 55.70000000000001 0 0 1 408.3 335H358.3A12.5 12.5 0 0 0 345.8 347.5V415A56.99999999999999 56.99999999999999 0 0 1 289.3 471.25L290.8 385A50.025000000000006 50.025000000000006 0 0 0 252.05 335z" />
    <glyph glyph-name="outlined-action-list"
      unicode="&#xEA23;"
      horiz-adv-x="600" d="M500 325H100A25 25 0 0 0 75 350V500A25 25 0 0 0 100 525H500A25 25 0 0 0 525 500V350A25 25 0 0 0 500 325zM100 500V350H500V500zM500 75H100A25 25 0 0 0 75 100V250A25 25 0 0 0 100 275H500A25 25 0 0 0 525 250V100A25 25 0 0 0 500 75zM100 250V100H500V250z" />
    <glyph glyph-name="outlined-action-love"
      unicode="&#xEA24;"
      horiz-adv-x="600" d="M299.825 112.8250000000001A12.3 12.3 0 0 0 291.325 116.3250000000001L124.825 275.3250000000001L120.075 280.0750000000001A121.24999999999999 121.24999999999999 0 0 0 124.825 450.3250000000001A132.75 132.75 0 0 0 299.825 457.825A132.75 132.75 0 0 0 474.825 450.3250000000001L481.075 444.0750000000001A120.5 120.5 0 0 0 474.825 275.3250000000001L309.3250000000001 117.075A12.950000000000001 12.950000000000001 0 0 0 299.825 112.8249999999999zM216.825 462.825A106.5 106.5 0 0 1 141.825 433.0750000000001A96.25 96.25 0 0 1 138.075 296.5750000000001L141.825 292.8250000000001L298.825 142.8250000000001L455.825 292.8250000000001A95.50000000000001 95.50000000000001 0 0 1 461.075 428.0750000000001C459.325 429.8250000000001 457.825 431.5750000000001 456.075 433.0750000000001A107.00000000000001 107.00000000000001 0 0 1 307.8250000000001 433.0750000000001A12.749999999999998 12.749999999999998 0 0 0 290.5750000000001 433.0750000000001A106.72500000000001 106.72500000000001 0 0 1 216.8250000000001 462.825z" />
    <glyph glyph-name="outlined-action-mic"
      unicode="&#xEA25;"
      horiz-adv-x="600" d="M297.25 253.35H301.825A61.75 61.75 0 0 1 359.675 318.5V472.15C356.725 521.675 301.225 549.425 259.8 522.125A64.60000000000001 64.60000000000001 0 0 1 230.95 472.15V318.05A66.32499999999999 66.32499999999999 0 0 1 297.25 253.35zM297.25 230.5A89.375 89.375 0 0 0 208.1000000000001 317.8250000000001V472.15C211.525 539.275 286.375 577.5 342.8 540.975A87.4 87.4 0 0 0 382.525 472.15V320.125A84.37500000000001 84.37500000000001 0 0 0 303.2 230.725H297.25zM308.925 67.725H407.225A11.450000000000001 11.450000000000001 0 0 0 407.225 44.875H185.925A11.425 11.425 0 1 0 185.925 67.725H286.05V164.1A160.1 160.1 0 0 0 139.975 322.4000000000001V396A11.450000000000001 11.450000000000001 0 1 0 162.825 396V322.4000000000001A137.15 137.15 0 0 1 298.85 186.3750000000001H301.3750000000001C376.3750000000001 186.3750000000001 437.1750000000001 247.1750000000001 437.1750000000001 322.1750000000001V396A11.425 11.425 0 1 0 460.0250000000001 396V322.175A158.9 158.9 0 0 0 308.9250000000001 163.7000000000001z" />
    <glyph glyph-name="outlined-action-micrec"
      unicode="&#xEA26;"
      horiz-adv-x="600" d="M175 295.25V400A12.5 12.5 0 0 0 200 400V294.5C200 240.8750000000001 240.425 201.25 287.5 195.1750000000001V226.5H285A62.5 62.5 0 0 0 222.5 289V470.25A62.749999999999986 62.749999999999986 0 0 0 285 532.75H315A62.749999999999986 62.749999999999986 0 0 0 377.5 470.25V289A62.5 62.5 0 0 0 315 226.5H312.5V195.125A100.15 100.15 0 0 1 350 207.9A99.95000000000002 99.95000000000002 0 0 1 400 294.5V400A12.5 12.5 0 0 0 425 400V294.5A124.97499999999998 124.97499999999998 0 0 0 312.5 170.875V92.2500000000001H384.5A12.5 12.5 0 0 0 397 79.75A12.749999999999998 12.749999999999998 0 0 0 384.5 67.25H215.5A12.749999999999998 12.749999999999998 0 0 0 203 79.75A12.5 12.5 0 0 0 215.5 92.2500000000001H287.5V170.875A125.02500000000002 125.02500000000002 0 0 0 175 295.25zM285 507.75A37.74999999999999 37.74999999999999 0 0 1 247.5 470.25V392H352.5000000000001V470.25A37.74999999999999 37.74999999999999 0 0 1 315.0000000000001 507.75zM247.5 367V289A37.5 37.5 0 0 1 285 251.5H315A37.5 37.5 0 0 1 352.5 289V367z" />
    <glyph glyph-name="outlined-action-newrequest"
      unicode="&#xEA27;"
      horiz-adv-x="600" d="M87.5 385.75V481.5A16.75 16.75 0 0 0 105.25 497.25H494.75A19.25 19.25 0 0 0 512.5 479.5V385.25A17.000000000000004 17.000000000000004 0 0 0 494.75 369.75H485.75V256.5000000000001A14.274999999999999 14.274999999999999 0 0 0 457.5 256.5000000000001V369.75H144.25V164.25H358.5A14.274999999999999 14.274999999999999 0 0 0 358.5 136.0000000000001H131.5A16.75 16.75 0 0 0 115.75 153.7500000000001V369.75H105.25A18.725 18.725 0 0 0 87.5 385.75zM115.75 397.25H484.25V469.75H115.75zM511.75 200.2500000000001A14.5 14.5 0 0 0 497.9999999999999 185.5000000000001H428.9999999999999V114.5000000000001A13.25 13.25 0 0 0 414.7499999999999 102.7500000000001A14.000000000000002 14.000000000000002 0 0 0 400.9999999999999 117.0000000000001V186.0000000000001H329.4999999999999A13.000000000000002 13.000000000000002 0 0 0 317.7499999999999 200.2500000000001A14.249999999999998 14.249999999999998 0 0 0 331.9999999999999 214.0000000000002H401.25V285.5000000000001A13.25 13.25 0 0 0 415.5 297.2500000000002A14.249999999999998 14.249999999999998 0 0 0 429.25 283.0000000000001V214.0000000000002H498.25A14.5 14.5 0 0 0 511.75 200.2500000000001z" />
    <glyph glyph-name="outlined-action-order"
      unicode="&#xEA28;"
      horiz-adv-x="600" d="M400.225 369.875A12.025 12.025 0 0 0 391.225 373.875L300.225 467.875L209.225 373.875A12.5 12.5 0 1 0 191.225 391.125L291.225 494.625A13.25 13.25 0 0 0 309.225 494.625L409.225 391.125A12.5 12.5 0 0 0 409.225 373.375A13.625 13.625 0 0 0 400.225 369.875zM300.225 101.875A11.700000000000001 11.700000000000001 0 0 0 291.475 105.6249999999999L191.475 205.625A12.5 12.5 0 0 0 208.975 223.375L300.225 132.125L391.475 223.375A12.5 12.5 0 0 0 408.975 205.6250000000001L308.975 105.6250000000001A11.700000000000001 11.700000000000001 0 0 0 300.2250000000001 101.8750000000001z" />
    <glyph glyph-name="outlined-action-phone"
      unicode="&#xEA29;"
      horiz-adv-x="600" d="M418.6 106.125A73.39999999999999 73.39999999999999 0 0 0 393.6 110.3750000000001L373.1 117.8750000000001A438.75 438.75 0 0 0 109.35 395.8750000000001A69.475 69.475 0 0 0 125.6 465.1250000000001L139.6 479.6250000000001A46.75 46.75 0 0 0 205.35 481.1250000000001L235.85 450.125A75 75 0 0 0 256.35 379.8750000000001L254.85 372.375A49.900000000000006 49.900000000000006 0 0 1 260.85 335.125A206.1 206.1 0 0 1 330.35 264.625L336.1 261.125A50 50 0 0 1 376.1 255.625A76.525 76.525 0 0 0 449.85 235.875L480.6 206.125A46.75 46.75 0 0 0 480.6 140.875L468.1 128.1249999999999A68.97500000000001 68.97500000000001 0 0 0 418.6 106.1249999999999zM172.85 468.625A21.75 21.75 0 0 1 157.6 462.125L143.6 447.625A45.00000000000001 45.00000000000001 0 0 1 133.1 403.375A413 413 0 0 1 383.1 141.375L403.6 133.875C420.1 127.8750000000001 438.575 132.0750000000001 450.85 144.625L463.35 157.625A21.5 21.5 0 0 1 463.35 187.625L432.85 218.125A51.50000000000001 51.50000000000001 0 0 1 382.85 231.375A75.02499999999999 75.02499999999999 0 0 0 323.6 239.625L318.6 243.375A227.09999999999997 227.09999999999997 0 0 0 241.35 320.875A77.30000000000001 77.30000000000001 0 0 0 231.6 377.875L233.35 385.125A50 50 0 0 1 218.6 431.125L188.6 461.1249999999999A21.175 21.175 0 0 1 172.85 468.6249999999999z" />
    <glyph glyph-name="outlined-action-print"
      unicode="&#xEA2A;"
      horiz-adv-x="600" d="M484.6250000000001 201.625A8.25 8.25 0 0 1 492.875 209.875V374.375A8.500000000000002 8.500000000000002 0 0 1 484.6250000000001 382.875H115.375A8.500000000000002 8.500000000000002 0 0 1 107.125 374.375V209.875C107.125 205.325 110.825 201.625 115.375 201.625H174.625V261.375C174.625 279.75 189.5 294.625 207.875 294.625H392.375A33.5 33.5 0 0 0 425.625 261.375V201.625zM115.3750000000001 176.625A33.5 33.5 0 0 0 82.125 209.875V374.375A33.5 33.5 0 0 0 115.3750000000001 407.875H174.6250000000001V479.8749999999999A33 33 0 0 0 207.3750000000001 513.125H392.3750000000001C410.7500000000001 513.125 425.6250000000001 498.2499999999999 425.6250000000001 479.8749999999999V407.875H484.6250000000001A33.5 33.5 0 0 0 517.8750000000001 374.375V209.875A33.25 33.25 0 0 0 484.8750000000001 176.625H425.6250000000001V121.125A33.5 33.5 0 0 0 392.3750000000001 86.875H207.875A33.25 33.25 0 0 0 174.625 121.125V176.625zM207.875 269.625A8.25 8.25 0 0 1 199.625 261.375V121.125C199.625 116.575 203.325 112.875 207.875 112.875H392.375A8.25 8.25 0 0 1 400.625 121.125V261.375A8.25 8.25 0 0 1 392.375 269.625zM400.6250000000001 479.8749999999999A8.25 8.25 0 0 1 392.3750000000001 488.125H207.6250000000001A8 8 0 0 1 199.6250000000001 479.8749999999999V407.875H400.6250000000001zM445.6250000000001 317.875H439.1250000000001A12.5 12.5 0 0 0 439.1250000000001 342.875H445.6250000000001A12.5 12.5 0 0 0 445.6250000000001 317.875zM407.1250000000001 317.875H372.6250000000001A12.5 12.5 0 0 0 372.6250000000001 342.875H407.1250000000001A12.5 12.5 0 0 0 407.1250000000001 317.875z" />
    </font>
</defs>
</svg>
