<svg xmlns="http://www.w3.org/2000/svg" viewBox="0 0 24 24">
  <defs>
    <style>
      .cls-1 {
        fill-rule: evenodd;
      }
    </style>
  </defs>
  <g id="Closed">
    <path class="cls-1" d="M18.38,5.62a9,9,0,0,0-15.3,6.3,8.82,8.82,0,0,0,1.19,4.46L3,21l4.75-1.24A9.1,9.1,0,0,0,12,20.85h0a9,9,0,0,0,9-8.92A8.83,8.83,0,0,0,18.38,5.62ZM12,19.34h0a7.54,7.54,0,0,1-3.79-1L8,18.14l-2.82.74.75-2.73-.17-.29a7.32,7.32,0,0,1-1.14-3.94A7.45,7.45,0,1,1,12,19.34Zm4.08-5.55c-.22-.11-1.32-.65-1.53-.73s-.35-.11-.5.11-.58.73-.71.88-.26.16-.48,0A6,6,0,0,1,11.09,13a6.62,6.62,0,0,1-1.24-1.55c-.13-.22,0-.34.1-.45s.22-.26.33-.39a2.06,2.06,0,0,0,.23-.37.44.44,0,0,0,0-.39c-.06-.12-.51-1.21-.69-1.66s-.37-.38-.51-.38H8.86a.83.83,0,0,0-.59.28,2.46,2.46,0,0,0-.79,1.86,4.34,4.34,0,0,0,.92,2.3,10,10,0,0,0,3.82,3.37,12.27,12.27,0,0,0,1.28.47,3.18,3.18,0,0,0,1.41.09,2.31,2.31,0,0,0,1.51-1.06,1.79,1.79,0,0,0,.13-1.06C16.5,14,16.35,13.9,16.12,13.79Z"/>
  </g>
</svg>
