<svg xmlns="http://www.w3.org/2000/svg" viewBox="0 0 24 24">
  <g id="Curves">
    <path d="M6.05,19.09a2.67,2.67,0,0,0,2.6,2.41h6.7A2.66,2.66,0,0,0,18,19l.5-9.49H5.55ZM14,11a.5.5,0,0,1,.53-.47A.51.51,0,0,1,15,11l-.5,9a.51.51,0,0,1-.5.47h0A.51.51,0,0,1,13.5,20Zm-2.5,0a.5.5,0,0,1,1,0v9a.5.5,0,0,1-1,0Zm-2-.5A.51.51,0,0,1,10,11l.5,9a.51.51,0,0,1-.47.53h0A.51.51,0,0,1,9.5,20L9,11A.51.51,0,0,1,9.47,10.5ZM20,7.09V6.6A1.72,1.72,0,0,0,18.42,5H16.06V4.11A1.6,1.6,0,0,0,14.48,2.5h-5A1.6,1.6,0,0,0,7.94,4.11v1H5.58A1.61,1.61,0,0,0,4,6.68v.49A1.63,1.63,0,0,0,5.2,8.69H18.5A1.53,1.53,0,0,0,20,7.13Zm-5.12-3v1H9.12v-1a.38.38,0,0,1,.35-.4h5a.37.37,0,0,1,.4.35Z"/>
  </g>
</svg>
