<svg xmlns="http://www.w3.org/2000/svg" viewBox="0 0 24 24">
  <path d="M12,2.5A9.51,9.51,0,0,0,2.5,12a9.4,9.4,0,0,0,1,4.23l-1,4.67a.51.51,0,0,0,.14.45A.47.47,0,0,0,3,21.5h.1l4.67-1a9.4,9.4,0,0,0,4.23,1,9.5,9.5,0,0,0,0-19Zm1.48,12.94-1.05,1a3.48,3.48,0,0,1-4.92-4.92l1.05-1.05a.51.51,0,0,1,.71,0,.5.5,0,0,1,0,.71l-1,1a2.47,2.47,0,0,0,3.5,3.5l1-1a.5.5,0,0,1,.71,0A.51.51,0,0,1,13.48,15.44Zm.67-4.89-3.74,3.74a.48.48,0,0,1-.7,0,.48.48,0,0,1,0-.7l3.74-3.74a.49.49,0,1,1,.7.7Zm2.34,1.88-1,1.05a.54.54,0,0,1-.36.14.52.52,0,0,1-.35-.14.5.5,0,0,1,0-.71l1-1a2.47,2.47,0,0,0-3.5-3.5l-1,1a.5.5,0,0,1-.71,0,.51.51,0,0,1,0-.71l1.05-1.05a3.59,3.59,0,0,1,4.92,0A3.49,3.49,0,0,1,16.49,12.43Z"/>
</svg>
