<svg xmlns="http://www.w3.org/2000/svg" width="24" height="24" viewBox="0 0 24 24"><path d="M21.53,7.35v9.5a2.8,2.8,0,0,1-2.8,2.8H14.37l3.33-.9a3.56,3.56,0,0,0,2.52-4.35L17.78,5.32a3.48,3.48,0,0,0-.32-.77h1.27A2.8,2.8,0,0,1,21.53,7.35ZM9,7.48l.27.92L10.94,8,10.69,7ZM19.49,14.6,17.06,5.52a2.82,2.82,0,0,0-3.44-2L4.54,6a2.83,2.83,0,0,0-1.7,1.31A2.76,2.76,0,0,0,2.57,9.4L5,18.48a2.81,2.81,0,0,0,2.71,2.08,2.55,2.55,0,0,0,.72-.1L17.51,18A2.81,2.81,0,0,0,19.49,14.6ZM9.77,17.9l-.72.19c-.19.06-.67.19-.82-.35L8,17a.89.89,0,0,1-.24-.42l-.94-2.95a.91.91,0,0,0-.12-.31l-.47-.87a1.33,1.33,0,0,1,0-.19,1.13,1.13,0,0,1-.12-.21l-.2-.7a.66.66,0,0,1,.32-.83l1.37-.37a.24.24,0,0,1,.29.16.24.24,0,0,1-.17.29L6.42,11a.12.12,0,0,0-.09.15v0l.22.76,1.38-.38a.44.44,0,0,1,.55.31l1.6,5.42A.54.54,0,0,1,9.77,17.9Zm4.46-1.2-3.13.86h0a.53.53,0,0,1-.6-.46l-1.36-4.9a5.47,5.47,0,0,1-.17-2.38,2.94,2.94,0,0,0-.21-1,.25.25,0,0,1,0-.19.19.19,0,0,1,.15-.11l-.25-.91-.83.23-.08,0a.24.24,0,0,1-.26-.21.24.24,0,0,1,.21-.26l3.47-1h0a.23.23,0,0,1,.12.45l-.13,0,.26.91a.22.22,0,0,1,.19,0,.23.23,0,0,1,.1.15h0a3,3,0,0,0,.41,1,5.47,5.47,0,0,1,1.05,2.1L14.52,16v0A.53.53,0,0,1,14.23,16.7Zm2.24-.63-1.28.35a.22.22,0,0,1-.29-.16l-1-4.72a.24.24,0,0,1,.16-.29L14.9,11l-.25-.92a.2.2,0,0,0-.12-.15l-.07,0-.56.66h0a.22.22,0,0,1-.32,0,.24.24,0,0,1,0-.33l.57-.66a.39.39,0,0,1,.27-.15.5.5,0,0,1,.32,0,.66.66,0,0,1,.4.46l.29,1a.68.68,0,0,1,.27.39l.36,1.3a.92.92,0,0,1,.19.33l.62,2.24h0A.61.61,0,0,1,16.47,16.07Z"/></svg>