<?xml version="1.0" encoding="utf-8"?>
<!-- Generator: Adobe Illustrator 24.2.3, SVG Export Plug-In . SVG Version: 6.00 Build 0)  -->
<svg version="1.1" id="Layer_1" xmlns="http://www.w3.org/2000/svg" xmlns:xlink="http://www.w3.org/1999/xlink" x="0px" y="0px"
	 viewBox="0 0 24 24" style="enable-background:new 0 0 24 24;" xml:space="preserve">
<style type="text/css">
	.st0{fill:#1F140F;}
</style>
<path class="st0" d="M12,21.5c-0.1,0-0.3-0.1-0.4-0.1l-9-9c-0.2-0.2-0.2-0.5,0-0.7c0,0,0,0,0,0l9-9c0.2-0.2,0.5-0.2,0.7,0
	c0,0,0,0,0,0l9,9c0.2,0.2,0.2,0.5,0,0.7c0,0,0,0,0,0l-9,9C12.3,21.4,12.1,21.5,12,21.5z"/>
</svg>
