<svg xmlns="http://www.w3.org/2000/svg" viewBox="0 0 24 24">
  <path d="M 11.48 4.69 C 11.48 3.92 12.313 3.439 12.98 3.824 C 13.289 4.003 13.48 4.333 13.48 4.69 L 13.48 17.59 L 19.29 11.78 C 19.681 11.386 20.319 11.386 20.71 11.78 C 21.098 12.17 21.098 12.8 20.71 13.19 L 13.233 20.667 C 13.111 20.804 12.948 20.911 12.749 20.965 C 12.661 20.989 12.571 21.001 12.48 21 C 12.182 20.999 11.928 20.873 11.751 20.681 L 4.26 13.19 C 3.872 12.8 3.872 12.17 4.26 11.78 C 4.651 11.386 5.289 11.386 5.68 11.78 L 11.48 17.58 Z" style=""></path>
</svg>
