<svg viewBox="0 0 24 24" xmlns="http://www.w3.org/2000/svg">
  <path d="M 19.31 13.48 C 19.302 13.48 10.698 13.48 6.41 13.48 L 12.22 19.29 C 12.767 19.832 12.521 20.763 11.779 20.965 C 11.694 20.988 11.607 21 11.52 21 C 11.254 21.002 10.999 20.897 10.81 20.71 L 3.29 13.19 C 2.902 12.8 2.902 12.17 3.29 11.78 C 3.292 11.778 3.294 11.776 3.296 11.774 L 10.81 4.26 C 11.395 3.759 12.302 4.079 12.443 4.836 C 12.499 5.133 12.417 5.44 12.22 5.67 L 6.418 11.48 L 19.31 11.48 C 20.08 11.48 20.561 12.313 20.176 12.98 C 19.997 13.289 19.667 13.48 19.31 13.48 Z"/>
</svg>
