<svg xmlns="http://www.w3.org/2000/svg" width="24" height="24" viewBox="0 0 24 24"><path d="M22.7,10.8,20.37,8.37a1.52,1.52,0,0,0-1.08-.46H18V7.6a1.74,1.74,0,0,0-1.74-1.75H9.09A1.75,1.75,0,0,0,7.34,7.6v.31H3.47a.51.51,0,0,0-.5.5.5.5,0,0,0,.5.5H7.34V14H5.13a.5.5,0,0,0-.5.5.51.51,0,0,0,.5.5H7.34v1.27a.51.51,0,0,0,.5.5H9.55a1.88,1.88,0,0,0,3.64,0h4.7a1.89,1.89,0,0,0,1.82,1.39,1.91,1.91,0,0,0,1.83-1.39h.09a1.5,1.5,0,0,0,1.49-1.5V11.84A1.49,1.49,0,0,0,22.7,10.8ZM8.34,7.6a.76.76,0,0,1,.75-.75h7.12A.75.75,0,0,1,17,7.6V13H8.34V7.6Zm3,9.55a.9.9,0,1,1,0-1.8.9.9,0,1,1,0,1.8Zm8.34,0a.9.9,0,1,1,.9-.89A.89.89,0,0,1,19.71,17.14Zm2.41-1.89a.49.49,0,0,1-.49.5h-.09a1.89,1.89,0,0,0-3.65,0h-4.7a1.88,1.88,0,0,0-3.64,0H8.34V14h9.11a.5.5,0,0,0,.5-.5V8.91h1.34a.52.52,0,0,1,.36.16L22,11.49a.52.52,0,0,1,.14.35Z"/><path d="M6.16,11.44a.5.5,0,0,0-.5-.5H1.38a.5.5,0,0,0-.5.5.5.5,0,0,0,.5.5H5.66A.5.5,0,0,0,6.16,11.44Z"/><path d="M3.62,14H3.18a.5.5,0,0,0-.5.5.5.5,0,0,0,.5.5h.44a.51.51,0,0,0,.5-.5A.5.5,0,0,0,3.62,14Z"/></svg>