<svg xmlns="http://www.w3.org/2000/svg" viewBox="0 0 24 24">
  <title>outlined-navigation-arrowright</title>
  <g>
    <g style="opacity: 0">
      <rect width="24" height="24"/>
    </g>
    <g>
      <g style="opacity: 0">
        <g>
          <circle cx="12" cy="12" r="9"/>
          <path d="M12,21.5A9.5,9.5,0,1,1,21.5,12,9.51,9.51,0,0,1,12,21.5Zm0-18A8.5,8.5,0,1,0,20.5,12,8.51,8.51,0,0,0,12,3.5Z"/>
        </g>
      </g>
      <path d="M14.71,17a.5.5,0,0,1-.35-.15L9.65,12.12a.47.47,0,0,1-.15-.35.59.59,0,0,1,.15-.41l4.71-4.71a.5.5,0,0,1,.71,0,.5.5,0,0,1,0,.7l-4.39,4.39,4.39,4.39a.5.5,0,0,1,0,.7A.51.51,0,0,1,14.71,17Z"/>
    </g>
  </g>
</svg>
