<svg xmlns="http://www.w3.org/2000/svg" viewBox="0 0 24 24">
  <title>outlined-navigation-arrowleft</title>
  <g>
    <g style="opacity: 0">
      <rect width="24" height="24"/>
    </g>
    <g>
      <g style="opacity: 0">
        <g>
          <circle cx="12" cy="12" r="9"/>
          <path d="M12,21.5A9.5,9.5,0,1,1,21.5,12,9.51,9.51,0,0,1,12,21.5Zm0-18A8.5,8.5,0,1,0,20.5,12,8.51,8.51,0,0,0,12,3.5Z"/>
        </g>
      </g>
      <path d="M10,17a.47.47,0,0,1-.35-.15.48.48,0,0,1,0-.7L14,11.74,9.65,7.35a.49.49,0,0,1,.7-.7l4.72,4.71a.5.5,0,0,1,.14.35.64.64,0,0,1-.14.41l-4.72,4.71A.49.49,0,0,1,10,17Z"/>
    </g>
  </g>
</svg>
