<svg xmlns="http://www.w3.org/2000/svg" viewBox="0 0 24 24">
  <title>outlined-navigation-arrowbottom</title>
  <g>
    <g style="opacity: 0">
      <rect width="24" height="24"/>
    </g>
    <g>
      <g style="opacity: 0">
        <g>
          <circle cx="12" cy="12" r="9"/>
          <path d="M12,21.5A9.5,9.5,0,1,1,21.5,12,9.51,9.51,0,0,1,12,21.5Zm0-18A8.5,8.5,0,1,0,20.5,12,8.51,8.51,0,0,0,12,3.5Z"/>
        </g>
      </g>
      <path d="M11.77,15.21a.64.64,0,0,1-.41-.14L6.65,10.35a.49.49,0,0,1,.7-.7L11.74,14l4.39-4.38a.49.49,0,0,1,.7.7l-4.71,4.72A.5.5,0,0,1,11.77,15.21Z"/>
    </g>
  </g>
</svg>
