<svg xmlns="http://www.w3.org/2000/svg" viewBox="0 0 24 24"><path d="M6.05 19.09a2.67 2.67 0 0 0 2.6 2.41h6.7A2.66 2.66 0 0 0 18 19l.5-9.49H5.55zM14 11a.5.5 0 0 1 .53-.47.51.51 0 0 1 .47.47l-.5 9a.51.51 0 0 1-.5.47.51.51 0 0 1-.5-.47zm-2.5 0a.5.5 0 0 1 1 0v9a.5.5 0 0 1-1 0zm-2-.5a.51.51 0 0 1 .5.5l.5 9a.51.51 0 0 1-.47.53.51.51 0 0 1-.53-.53L9 11a.51.51 0 0 1 .47-.5zM20 7.09V6.6A1.72 1.72 0 0 0 18.42 5h-2.36v-.89a1.6 1.6 0 0 0-1.58-1.61h-5a1.6 1.6 0 0 0-1.54 1.61v1H5.58A1.61 1.61 0 0 0 4 6.68v.49a1.63 1.63 0 0 0 1.2 1.52h13.3A1.53 1.53 0 0 0 20 7.13zm-5.12-3v1H9.12v-1a.38.38 0 0 1 .35-.4h5a.37.37 0 0 1 .4.35z"/></svg>