<svg xmlns="http://www.w3.org/2000/svg" viewBox="0 0 24 24"><path d="M8.08 21.44a7.22 7.22 0 0 1-2.3-.44 4.5 4.5 0 0 1-1.68-1.1A4.5 4.5 0 0 1 3 18.22a7.22 7.22 0 0 1-.44-2.3c-.05-1-.06-1.36-.06-3.92s0-2.9.06-3.92A6.66 6.66 0 0 1 3 5.78 4.6 4.6 0 0 1 4.09 4.1 4.67 4.67 0 0 1 5.77 3a6.76 6.76 0 0 1 2.31-.44c1-.05 1.36-.06 3.92-.06s2.9 0 3.92.06a6.71 6.71 0 0 1 2.3.44 4.6 4.6 0 0 1 1.68 1.09A4.67 4.67 0 0 1 21 5.77a6.76 6.76 0 0 1 .44 2.31c0 1 .06 1.35.06 3.92s0 2.9-.06 3.91a6.76 6.76 0 0 1-.44 2.31A4.82 4.82 0 0 1 18.22 21a6.66 6.66 0 0 1-2.3.44c-1 0-1.35.06-3.92.06s-2.9-.01-3.92-.06zm.08-17.17a5 5 0 0 0-1.76.32 3 3 0 0 0-1.1.71 3.11 3.11 0 0 0-.71 1.1 5 5 0 0 0-.32 1.76c0 1-.06 1.3-.06 3.84s0 2.84.06 3.84a5.07 5.07 0 0 0 .32 1.76 3.16 3.16 0 0 0 .71 1.09 2.86 2.86 0 0 0 1.1.71 5.28 5.28 0 0 0 1.76.33c1 0 1.32.05 3.84.05s2.82 0 3.84-.05a5.28 5.28 0 0 0 1.76-.33 3.13 3.13 0 0 0 1.8-1.8 5.33 5.33 0 0 0 .33-1.76c.05-1 .06-1.32.06-3.84s0-2.83-.06-3.84a5.28 5.28 0 0 0-.33-1.76 2.86 2.86 0 0 0-.71-1.1 2.94 2.94 0 0 0-1.09-.71 5 5 0 0 0-1.76-.32c-1 0-1.3-.06-3.84-.06s-2.84 0-3.84.06zM7.12 12A4.89 4.89 0 1 1 12 16.88 4.88 4.88 0 0 1 7.12 12zm1.71 0A3.17 3.17 0 1 0 12 8.83 3.17 3.17 0 0 0 8.83 12zm7.1-5.07a1.15 1.15 0 1 1 1.15 1.14 1.15 1.15 0 0 1-1.15-1.14z"/></svg>