<svg xmlns="http://www.w3.org/2000/svg" viewBox="0 0 24 24"><path d="M20.32 8.8A12.1 12.1 0 0 1 19 13.58a11.57 11.57 0 0 1-11.21 6.47 12.11 12.11 0 0 1-6.32-2.21c.32.05.66.09 1 .11a8.44 8.44 0 0 0 5.3-1.52A4.21 4.21 0 0 1 4 13.33a4.07 4.07 0 0 0 1.9 0A4.13 4.13 0 0 1 2.76 9.1V9a4.25 4.25 0 0 0 1.87.63A4.21 4.21 0 0 1 3.6 4 12.07 12.07 0 0 0 12 8.84a3.83 3.83 0 0 1-.06-1 4.2 4.2 0 0 1 7.4-2.44 8.54 8.54 0 0 0 2.72-.86 4.18 4.18 0 0 1-2 2.19 7.62 7.62 0 0 0 2.44-.53 8.26 8.26 0 0 1-2.2 2.05 5 5 0 0 1 0 .55z"/></svg>