<svg xmlns="http://www.w3.org/2000/svg" viewBox="0 0 24 24"><path d="M21.53 7.35v9.5a2.8 2.8 0 0 1-2.8 2.8h-4.36l3.33-.9a3.56 3.56 0 0 0 2.52-4.35l-2.44-9.08a3.48 3.48 0 0 0-.32-.77h1.27a2.8 2.8 0 0 1 2.8 2.8zM9 7.48l.27.92 1.67-.4-.25-1zm10.49 7.12l-2.43-9.08a2.82 2.82 0 0 0-3.44-2L4.54 6a2.83 2.83 0 0 0-1.7 1.31 2.76 2.76 0 0 0-.27 2.09L5 18.48a2.81 2.81 0 0 0 2.71 2.08 2.55 2.55 0 0 0 .72-.1L17.51 18a2.81 2.81 0 0 0 1.98-3.4zm-9.72 3.3l-.72.19c-.19.06-.67.19-.82-.35L8 17a.89.89 0 0 1-.24-.42l-.94-2.95a.91.91 0 0 0-.12-.31l-.47-.87a1.33 1.33 0 0 1 0-.19 1.13 1.13 0 0 1-.12-.21l-.2-.7a.66.66 0 0 1 .32-.83l1.37-.37a.24.24 0 0 1 .29.16.24.24 0 0 1-.17.29l-1.3.4a.12.12 0 0 0-.09.15l.22.76 1.38-.38a.44.44 0 0 1 .55.31l1.6 5.42a.54.54 0 0 1-.31.64zm4.46-1.2l-3.13.86a.53.53 0 0 1-.6-.46l-1.36-4.9a5.47 5.47 0 0 1-.17-2.38 2.94 2.94 0 0 0-.21-1 .25.25 0 0 1 0-.19.19.19 0 0 1 .15-.11l-.25-.91-.83.23h-.08a.24.24 0 0 1-.26-.21.24.24 0 0 1 .21-.26l3.47-1a.23.23 0 0 1 .12.45h-.13l.26.91a.22.22 0 0 1 .19 0 .23.23 0 0 1 .1.15 3 3 0 0 0 .41 1 5.47 5.47 0 0 1 1.05 2.1L14.52 16a.53.53 0 0 1-.29.7zm2.24-.63l-1.28.35a.22.22 0 0 1-.29-.16l-1-4.72a.24.24 0 0 1 .16-.29l.84-.25-.25-.92a.2.2 0 0 0-.12-.15h-.07l-.56.66a.22.22 0 0 1-.32 0 .24.24 0 0 1 0-.33l.57-.66a.39.39 0 0 1 .27-.15.5.5 0 0 1 .32 0 .66.66 0 0 1 .4.46l.29 1a.68.68 0 0 1 .27.39l.36 1.3a.92.92 0 0 1 .19.33l.62 2.24a.61.61 0 0 1-.4.9z"/></svg>