<svg xmlns="http://www.w3.org/2000/svg" viewBox="0 0 24 24"><path d="M10.24 3.14H3.52a.5.5 0 0 0-.5.5v7.28a.5.5 0 0 0 .5.5h2.77a9.75 9.75 0 0 1-.94 3.86 5.22 5.22 0 0 1-2.57 2.18.49.49 0 0 0-.3.31.52.52 0 0 0 0 .42l1.54 2.44a.49.49 0 0 0 .42.23.52.52 0 0 0 .21 0A10.79 10.79 0 0 0 7.57 19a9.28 9.28 0 0 0 2-2.58c.78-1.46 1.17-3.81 1.17-7V3.64a.5.5 0 0 0-.5-.5zM21 3.14h-6.68a.5.5 0 0 0-.5.5v7.28a.5.5 0 0 0 .5.5h2.77a9.79 9.79 0 0 1-.94 3.86 5.11 5.11 0 0 1-2.57 2.17.49.49 0 0 0-.29.31.5.5 0 0 0 .05.43l1.53 2.44a.49.49 0 0 0 .42.23.45.45 0 0 0 .2 0A10.69 10.69 0 0 0 18.37 19a9.28 9.28 0 0 0 2-2.58c.78-1.47 1.17-3.82 1.17-7V3.64a.5.5 0 0 0-.54-.5z"/></svg>