<svg xmlns="http://www.w3.org/2000/svg" viewBox="0 0 24 24"><path d="M8 10.56a.75.75 0 0 0-.75-.75H4.8v-1.4A.22.22 0 0 1 5 8.2h2.27a.4.4 0 0 0 .4-.4.39.39 0 0 0-.4-.39H4.88A1.08 1.08 0 0 0 4 8.61v1.22a1.27 1.27 0 0 0 .06.39.91.91 0 0 0 0 .34l.36 1.65a3.09 3.09 0 0 1 .07.52l.17 5.2a1.5 1.5 0 0 0 .21.78v1.35c0 .94.83.94 1.18.94h1.31a.9.9 0 0 0 .8-.92L8 10.57zm7-4.76a.4.4 0 0 0-.1-.31.39.39 0 0 0-.29-.13V3.79h.22a.4.4 0 0 0 0-.79H8.68a.4.4 0 1 0 0 .79h1.41v1.57a.41.41 0 0 0-.29.13.38.38 0 0 0-.1.31 5.11 5.11 0 0 1-.12 1.72 9.37 9.37 0 0 0-.79 3.93V20a.89.89 0 0 0 .82 1h5.47a.88.88 0 0 0 .79-1v-8.54a9.06 9.06 0 0 0-.77-3.88 5.08 5.08 0 0 1-.17-1.78zm-1.2-.44h-2.92V3.79h2.85zm6.11 10V13.1a1.18 1.18 0 0 0-.27-.76v-1.8a1.14 1.14 0 0 0-.44-.93.89.89 0 0 0-.52-.17.77.77 0 0 0-.51.13l-1.21.82a.39.39 0 1 0 .44.65l1.19-.81h.13a.32.32 0 0 1 .13.29v1.59h-1.52a.39.39 0 0 0-.4.39l-.53 8.08a.39.39 0 0 0 .39.4h2.25a1.06 1.06 0 0 0 .95-1.1V16a1.25 1.25 0 0 0-.15-.61zm-.78-2.21L19 13a.29.29 0 0 1 0 .09z"/></svg>