<svg xmlns="http://www.w3.org/2000/svg" data-name="Layer 1" viewBox="0 0 24 24"><path d="M12 22a10 10 0 1 1 10-10 10 10 0 0 1-10 10zm-1.73-6.66a9.7 9.7 0 0 1 5.2 1.37.61.61 0 0 0 .91-.53.64.64 0 0 0-.29-.53 11 11 0 0 0-5.83-1.54 16.76 16.76 0 0 0-3.73.45.62.62 0 0 0-.51.7.61.61 0 0 0 .64.51h.14a15.71 15.71 0 0 1 3.48-.43zm-.09-3.06a12.48 12.48 0 0 1 6.37 1.64.77.77 0 0 0 .81-1.3 13.8 13.8 0 0 0-7.18-1.88 13.5 13.5 0 0 0-3.94.56.73.73 0 0 0-.45.37.77.77 0 0 0 .31 1 .73.73 0 0 0 .35.09h.23a11.91 11.91 0 0 1 3.46-.49zm.23-3.23a14.71 14.71 0 0 1 7.27 1.69 1 1 0 0 0 .47.12.9.9 0 0 0 .91-.91.92.92 0 0 0-.45-.8 16.76 16.76 0 0 0-8.18-1.94 16.84 16.84 0 0 0-4.79.61.91.91 0 0 0-.18 1.7.93.93 0 0 0 .71.07 14.53 14.53 0 0 1 4.19-.54z"/></svg>