<svg xmlns="http://www.w3.org/2000/svg" viewBox="0 0 24 24"><path d="M18.75 6H5.25A2.29 2.29 0 0 0 3 8.15v7.63A2.25 2.25 0 0 0 5.25 18h13.64A2.17 2.17 0 0 0 21 15.78V8.22A2.25 2.25 0 0 0 18.75 6zM5.92 14.86a.27.27 0 1 1-.54 0V9.14a.27.27 0 1 1 .54 0zm1.87 0a.54.54 0 1 1-1.07 0V9.14a.54.54 0 1 1 1.07 0zm2.48 0a.76.76 0 0 1-.76.77.77.77 0 0 1-.77-.77V9.14a.77.77 0 0 1 .77-.77.76.76 0 0 1 .76.77zm1.87 0a.38.38 0 1 1-.76 0V9.14a.38.38 0 1 1 .76 0zm2.08 0a.54.54 0 1 1-1.07 0V9.14a.54.54 0 1 1 1.07 0zm2.56 0a.77.77 0 1 1-1.53 0V9.14a.77.77 0 1 1 1.53 0zm1.86 0a.54.54 0 1 1-1.07 0V9.14a.54.54 0 1 1 1.07 0z"/></svg>