<svg xmlns="http://www.w3.org/2000/svg" viewBox="0 0 24 24"><path d="M12 2a10 10 0 0 0-3.64 19.3 9.54 9.54 0 0 1 0-2.87c.18-.78 1.17-5 1.17-5A3.7 3.7 0 0 1 9.27 12c0-1.39.8-2.42 1.81-2.42A1.26 1.26 0 0 1 12.35 11a19.51 19.51 0 0 1-.84 3.33A1.46 1.46 0 0 0 13 16.1c1.78 0 3.14-1.87 3.14-4.57A3.94 3.94 0 0 0 12 7.47a4.33 4.33 0 0 0-4.56 4.33 3.9 3.9 0 0 0 .74 2.28.29.29 0 0 1 .06.29c-.07.31-.24 1-.28 1.13s-.14.23-.33.13c-1.26-.58-2-2.4-2-3.87 0-3.15 2.29-6 6.62-6a5.87 5.87 0 0 1 6.17 5.77c0 3.45-2.18 6.22-5.19 6.22a2.66 2.66 0 0 1-2.29-1.15s-.51 1.9-.63 2.37A11 11 0 0 1 9 21.56a10.29 10.29 0 0 0 3 .44 10 10 0 0 0 0-20z"/></svg>