<svg xmlns="http://www.w3.org/2000/svg" viewBox="0 0 24 24"><path d="M18.48 9a15.71 15.71 0 0 1-.73 2.23s0 .06 0 0c.24-.11 1.31-.64 2.44-1.12s3.23-.46 2.69 1.85-3.26 3.67-3.53 3.81-.59.27-.72.35-.08.07 0 .09c.29.08 1.26 0 1.25.43s-.72 1.15-2.59 1.94a6.61 6.61 0 0 1-4.14.38s-1.06 1-3.73.56c-1.93-.33-2.41-.52-2.84-1a.65.65 0 0 1 0-.74v-.14a8 8 0 0 1-5.31-3.58 1.09 1.09 0 0 1-.06-1.22c.23-.34 1-.37 1.8-.17l1.57.4c.07 0 .07 0 0-.05a21.65 21.65 0 0 1-1.42-1.9c-.67-1-1.51-3.8.68-4.94 2.42-1.26 4.53 1 5 1.53s1.24 1.62 1.31 1.73.15 0 .15 0a22.05 22.05 0 0 1 1.08-3 4.07 4.07 0 0 1 4.24-2.14c3 .55 3.09 3.55 2.85 4.64m-3-2.38c-1.69-.51-2.74.73-3.23 2.31-.39 1.27-.47 1.61-.7 2.27-.32.93-1.1 1-1.71.28S8.17 9.4 7.64 8.8C7 8 5.31 7.35 4.48 8.37c-1.26 1.55.41 3.28 1.29 4.32.61.73 1.34 1.24 1.1 1.65-.09.16-.28.21-.53.2a29.55 29.55 0 0 1-3.11-.64c-.41-.07-.71-.05-.82.25s.37 1.38 1.69 2.06a15.47 15.47 0 0 0 3.64 1.05c.77.16.61.53.44.72s-.39.32-.35.5c.11.49 1.16.59 1.78.69a3.87 3.87 0 0 0 1.94-.07c.54-.21.57-.5.94-.65s.67 0 1.73.18a6.48 6.48 0 0 0 2.55-.25c1.23-.41 1.74-.8 1.74-1s-.21-.2-.43-.23a4.84 4.84 0 0 1-1.46-.38c-.3-.19-.08-.54.55-.79a14.53 14.53 0 0 0 3.39-1.75c.75-.67 1.47-1.79.83-2.44s-1.73 0-2.33.3a25 25 0 0 1-2.54 1.14c-.39.08-1.12.06-.78-.82.42-1.08.63-1.74.88-2.4.33-.81.79-2.8-1.2-3.4"/></svg>