<svg xmlns="http://www.w3.org/2000/svg" viewBox="0 0 24 24"><path d="M17.2 19.745h-2.68a1 1 0 0 1-1-1v-2.49a1.59 1.59 0 1 0-3.18 0v2.49a1 1 0 0 1-1 1H6.81a1.002 1.002 0 0 1-.72-.3 1.061 1.061 0 0 1-.28-.7v-5.67h-1.3a1 1 0 0 1-1-1v-1.05a1.52 1.52 0 0 1 .22-.65l.11-.13 6.92-5.61a1.798 1.798 0 0 1 2.21 0l7.12 5.62c.233.199.377.483.4.79v1.05a1 1 0 0 1-1 1h-1.3v5.65a1 1 0 0 1-.99 1zm-5.27-6a2.599 2.599 0 0 1 2.59 2.59v2.41h2.67v-5.66a1 1 0 0 1 1-1h1.32v-1l-7.16-5.67a.8.8 0 0 0-1 0l-6.8 5.55a.706.706 0 0 0 0 .13v1h1.27a1 1 0 0 1 1 1v5.65h2.52v-2.49a2.61 2.61 0 0 1 2.59-2.59z"/></svg>