<svg xmlns="http://www.w3.org/2000/svg" viewBox="0 0 24 24"><path d="M7.129 20.452a1.788 1.788 0 0 1-1.18-.46 1.808 1.808 0 0 1-.63-1.48l1.08-8.21a1.91 1.91 0 0 1 1.95-1.58h.667l-.337-1.65a2.16 2.16 0 0 1 .83-2.41h.09l2.38-1a1.16 1.16 0 0 1 1 0c.502.303.846.811.94 1.39l.821 3.67h.919a1.87 1.87 0 0 1 1.92 1.55l1.08 8.18c.083.444-.042.901-.34 1.24a2.07 2.07 0 0 1-1.59.73h-9.6zm1.17-10.74a.92.92 0 0 0-.92.75l-1.07 8.12a.889.889 0 0 0 .3.64.76.76 0 0 0 .61.2h9.51c.313.01.613-.127.81-.37a.52.52 0 0 0 .14-.43l-1.08-8.17a.89.89 0 0 0-.93-.71h-7.37zm4.7-4.55a1.001 1.001 0 0 0-.4-.69.15.15 0 0 0-.16 0l-2.35 1a1.209 1.209 0 0 0-.42 1.32l.405 1.93h3.634z"/></svg>