<svg xmlns="http://www.w3.org/2000/svg" viewBox="0 0 24 24"><path d="M12.03 21.245a.551.551 0 0 1-.36-.15c-.28-.29-7-7.12-7-11 0-5.643 6.108-9.169 10.995-6.348a7.33 7.33 0 0 1 3.665 6.348c0 3.93-6.69 10.76-7 11a.554.554 0 0 1-.3.15zm0-17.53a6.33 6.33 0 0 0-6.33 6.36c0 3.05 4.94 8.5 6.33 10 1.38-1.47 6.33-6.93 6.33-10a6.33 6.33 0 0 0-6.33-6.33zm0 9.53c-2.417-.023-3.903-2.654-2.674-4.736s4.25-2.053 5.438.052c.261.462.401.983.406 1.514a3.15 3.15 0 0 1-3.17 3.17zm0-5.28c-1.647.023-2.652 1.821-1.808 3.236.844 1.415 2.903 1.386 3.706-.052.184-.328.277-.699.272-1.074a2.14 2.14 0 0 0-2.17-2.14z"/></svg>