<svg xmlns="http://www.w3.org/2000/svg" viewBox="0 0 24 24"><defs><clipPath id="a"><path d="M0 0h24v24H0z"/></clipPath></defs><path d="M3.64 18.54a.47.47 0 0 1-.28-.09.49.49 0 0 1-.22-.45l.21-2.33a6.27 6.27 0 0 1-1.85-4.4C1.5 7.53 5 4.5 9.25 4.5s7.69 3.06 7.69 6.81-3.47 6.76-7.75 6.76a9.27 9.27 0 0 1-3.25-.65l-2.07 1.06a.49.49 0 0 1-.23.06zm5.61-13C5.53 5.5 2.5 8.08 2.5 11.26a5.28 5.28 0 0 0 1.71 3.84.52.52 0 0 1 .16.41l-.15 1.67 1.47-.75a.5.5 0 0 1 .43 0 8.14 8.14 0 0 0 3.08.66c3.72 0 6.74-2.58 6.74-5.76s-3-5.83-6.69-5.83z"/><path d="M20.83 17.43a.59.59 0 0 1-.23-.05l-1.37-.72a6.25 6.25 0 0 1-2.26.42 5.59 5.59 0 0 1-1.47-.19.5.5 0 0 1-.36-.61.51.51 0 0 1 .61-.36 4.59 4.59 0 0 0 1.22.16 5.22 5.22 0 0 0 2.09-.43.51.51 0 0 1 .42 0l.76.4-.08-.9a.47.47 0 0 1 .16-.42 3.55 3.55 0 0 0 1.18-2.57 4.09 4.09 0 0 0-3.91-3.81 1.92 1.92 0 0 0-.59-.04.52.52 0 0 1-.53-.47.5.5 0 0 1 .47-.53 2.62 2.62 0 0 1 .79.07 5.07 5.07 0 0 1 4.77 4.78 4.54 4.54 0 0 1-1.32 3.15l.15 1.57a.51.51 0 0 1-.22.47.54.54 0 0 1-.28.08z"/></svg>