<svg xmlns="http://www.w3.org/2000/svg" viewBox="0 0 24 24"><path d="M12 13a2.5 2.5 0 1 1 2.5-2.5A2.51 2.51 0 0 1 12 13zm0-4a1.5 1.5 0 1 0 1.5 1.5A1.5 1.5 0 0 0 12 9z"/><path d="M12 21a.5.5 0 0 1-.5-.5v-8a.5.5 0 0 1 1 0v8a.5.5 0 0 1-.5.5zm-5-2.61a.57.57 0 0 1-.28-.08 9.33 9.33 0 0 1-2.65-2.66A9.45 9.45 0 0 1 6.72 2.58a.5.5 0 0 1 .56.84A8.43 8.43 0 0 0 4.9 15.1a8.27 8.27 0 0 0 2.38 2.37.51.51 0 0 1 .14.7.52.52 0 0 1-.42.22zm10 0a.52.52 0 0 1-.42-.22.51.51 0 0 1 .14-.7A8.43 8.43 0 0 0 19.1 5.79a8.27 8.27 0 0 0-2.38-2.37.5.5 0 0 1 .56-.84 9.45 9.45 0 0 1 0 15.73.57.57 0 0 1-.28.08z"/><path d="M15 16.73a.51.51 0 0 1-.45-.27.5.5 0 0 1 .22-.67 6 6 0 0 0 0-10.69.5.5 0 0 1-.22-.67.51.51 0 0 1 .68-.22 7 7 0 0 1 3.05 3.05 7 7 0 0 1-3.05 9.42.48.48 0 0 1-.23.05zm-6 0a.48.48 0 0 1-.23-.05 7 7 0 0 1-3-3 7 7 0 0 1 3-9.47.51.51 0 0 1 .68.22.5.5 0 0 1-.22.67 6 6 0 0 0 0 10.69.5.5 0 0 1 .22.67.51.51 0 0 1-.45.27z"/></svg>