<svg xmlns="http://www.w3.org/2000/svg" viewBox="0 0 24 24"><path d="M6.18 21.5a1.61 1.61 0 0 1-1.6-1.63v-6.656a.476.476 0 0 1-.179-.106 1.592 1.592 0 0 1-.981-1.438V9.55a1.62 1.62 0 0 1 1.59-1.61h1.78a4.092 4.092 0 0 1-.37-.46 2.592 2.592 0 0 1-.27-2.08 2.89 2.89 0 0 1 2.77-2.15c.254-.006.507.028.75.1a3.91 3.91 0 0 1 2.25 2.17 4.877 4.877 0 0 1 2.76-2.91c.268-.072.543-.109.82-.11a3.2 3.2 0 0 1 3.08 2.37 2.82 2.82 0 0 1-.3 2.28 4.425 4.425 0 0 1-.69.8h1.42a1.59 1.59 0 0 1 1.57 1.6v2.09a1.6 1.6 0 0 1-1.15 1.54v6.72a1.62 1.62 0 0 1-1.61 1.6zM5.01 8.94a.62.62 0 0 0-.6.61v2.11c.01.29.222.529.499.58h5.101V8.998H8.55A.512.512 0 0 1 8.34 9l-.111-.002h-.923v-.017zm14.017 3.3a.61.61 0 0 0 .573-.6V9.55a.6.6 0 0 0-.59-.55h-3.16c-.017 0-.034 0-.051-.002H14.22v3.242h4.807zM5.57 19.88a.6.6 0 0 0 .6.62h3.84v-7.26H5.57zm12.27.62a.61.61 0 0 0 .61-.61v-6.65h-4.23v7.26zm-.4-13.87c.263-.443.329-.976.18-1.47a2.19 2.19 0 0 0-2.11-1.66c-.195.003-.39.026-.58.07-.866.235-1.724 1.296-2.389 3.089a2.742 2.742 0 0 1 1.721 1.339h1.423A3.667 3.667 0 0 0 17.44 6.63zM9.41 4.31a1.75 1.75 0 0 0-.4-.06 1.92 1.92 0 0 0-1.9 1.42c-.127.426-.073.886.15 1.27.314.469.757.836 1.275 1.058h1.237a3.248 3.248 0 0 1 1.61-1.253c-.555-1.389-1.255-2.237-1.972-2.435zm1.6 7.93h2.21V8.998h-2.21zm0 8.26h2.21v-7.26h-2.21zm1.07-12.909a2.249 2.249 0 0 0-.945.407h1.818a2.001 2.001 0 0 0-.873-.407z"/></svg>