<svg xmlns="http://www.w3.org/2000/svg" viewBox="0 0 24 24"><path d="M11.92 21.27a8.77 8.77 0 0 1-8.42-7.11.5.5 0 1 1 1-.19 7.76 7.76 0 0 0 7.45 6.3 7.53 7.53 0 0 0 7.19-5.4.49.49 0 0 1 .62-.34.51.51 0 0 1 .34.62 8.53 8.53 0 0 1-8.18 6.12zm7.76-10.66a.5.5 0 0 1-.49-.38 7.65 7.65 0 0 0-7.28-5.73A7.49 7.49 0 0 0 5 9.18a.5.5 0 0 1-.9-.38 8.51 8.51 0 0 1 7.81-5.3 8.64 8.64 0 0 1 8.25 6.5.5.5 0 0 1-.36.61z"/><path d="M21 17.83a.5.5 0 0 1-.46-.3L19.42 15 17 16.07a.5.5 0 0 1-.66-.25.49.49 0 0 1 .26-.66l2.89-1.29a.46.46 0 0 1 .38 0 .51.51 0 0 1 .28.26l1.32 3a.51.51 0 0 1-.26.66.45.45 0 0 1-.21.04zM4.24 10.27a.43.43 0 0 1-.19 0 .55.55 0 0 1-.28-.27L2.54 6.85a.5.5 0 1 1 .92-.37l1 2.61L7 7.93a.5.5 0 0 1 .66.25.49.49 0 0 1-.24.66l-3 1.38a.54.54 0 0 1-.18.05z"/></svg>