<svg xmlns="http://www.w3.org/2000/svg" viewBox="0 0 24 24"><path d="M19.34 12.77a.5.5 0 0 1-.48-.52c.23-5.23-5.287-8.748-9.931-6.332a6.788 6.788 0 0 0-2.952 3.007L7.42 8.42a.51.51 0 0 1 .64.3.5.5 0 0 1-.3.64l-2.47.88-.111.006a.491.491 0 0 1-.568-.391L3.8 7.44a.51.51 0 0 1 .32-.63.49.49 0 0 1 .63.31l.414 1.235A7.841 7.841 0 0 1 12.31 4.22a7.82 7.82 0 0 1 7.53 8.07.5.5 0 0 1-.5.48zM12 19.8h-.26a7.78 7.78 0 0 1-7.51-8 .49.49 0 0 1 .51-.48.5.5 0 0 1 .49.51 6.76 6.76 0 0 0 6.55 7 6.839 6.839 0 0 0 6.242-3.671l-1.382.491a.51.51 0 0 1-.64-.31.5.5 0 0 1 .3-.64l2.47-.87a.58.58 0 0 1 .39 0 .514.514 0 0 1 .25.29l.87 2.47a.49.49 0 0 1-.3.63.523.523 0 0 1-.16.05.5.5 0 0 1-.47-.33l-.46-1.295A7.839 7.839 0 0 1 12 19.8zm-2.15-5.26a2.207 2.207 0 0 1-.11-.67.5.5 0 0 1 1 0c-.002.123.018.245.06.36.148.467.561.777 1.02.815a.405.405 0 0 1 .146.002c.105-.004.21-.023.314-.057a1.19 1.19 0 0 0 .78-1.15.802.802 0 0 0-.45-.72l-1.82-.88a1.85 1.85 0 0 1-1-1.7 2.11 2.11 0 0 1 1.15-1.93c.142-.067.289-.119.44-.157V8a.51.51 0 0 1 .5-.5.5.5 0 0 1 .5.5v.436a2.23 2.23 0 0 1 1.73 2.114.5.5 0 0 1-.5.5.53.53 0 0 1-.5-.49 1.2 1.2 0 0 0-1.19-1.18 1.33 1.33 0 0 0-.51.13 1.11 1.11 0 0 0-.6 1 .86.86 0 0 0 .48.81l1.82.87c.61.31.996.935 1 1.62a2.2 2.2 0 0 1-1.73 2.186v.424a.5.5 0 0 1-.5.5.51.51 0 0 1-.5-.5v-.436a2.158 2.158 0 0 1-1.53-1.444z"/></svg>