<svg xmlns="http://www.w3.org/2000/svg" viewBox="0 0 24 24"><defs><clipPath id="a"><rect width="24" height="24"/></clipPath></defs><path d="M6.64 22.5a2.17 2.17 0 0 1-1.5-.61 2.14 2.14 0 0 1-.64-1.51V3.66a2.11 2.11 0 0 1 .61-1.52 2.14 2.14 0 0 1 1.51-.64h7.61a2.1 2.1 0 0 1 1.42.61l4 4.2a2.26 2.26 0 0 1 .6 1.37v12.66a2.11 2.11 0 0 1-.61 1.52 2.14 2.14 0 0 1-1.51.64H6.64zm7.58-20H6.63a1.1 1.1 0 0 0-.8.34 1.14 1.14 0 0 0-.33.82v16.71a1.1 1.1 0 0 0 .34.8 1.22 1.22 0 0 0 .82.33h11.46a1.1 1.1 0 0 0 .8-.34 1.14 1.14 0 0 0 .33-.82V7.73a1.2 1.2 0 0 0-.33-.73l-4-4.19a1.08 1.08 0 0 0-.7-.31z"/><path d="M19.15 7.55h-2.69a2.15 2.15 0 0 1-2.13-2.17v-3a.51.51 0 0 1 .5-.5.5.5 0 0 1 .5.5v3.01a1.16 1.16 0 0 0 1.14 1.16h2.68a.5.5 0 0 1 0 1z"/><path d="M12.3 17.31a2.52 2.52 0 0 1-2.22-1.25 2.59 2.59 0 0 1-.33-1.15.5.5 0 1 1 1-.05 1.61 1.61 0 0 0 .2.71 1.48 1.48 0 0 0 1.29.74 1.51 1.51 0 0 0 1.56-1.49 1.49 1.49 0 0 0-1.49-1.49 2.5 2.5 0 1 1-.07-5h.14a2.36 2.36 0 0 1 2.16 1.27 2 2 0 0 1 .33 1.19.51.51 0 0 1-.52.48.5.5 0 0 1-.48-.52 1 1 0 0 0-.18-.63 1.42 1.42 0 0 0-1.3-.78h-.15a1.5 1.5 0 0 0 0 3 2.49 2.49 0 1 1 .07 5z"/><path d="M12.31 18.65a.5.5 0 0 1-.5-.5v-1.4a.5.5 0 0 1 1 0v1.4a.5.5 0 0 1-.5.5z"/><path d="M12.31 9.14a.5.5 0 0 1-.5-.5V7.25a.5.5 0 0 1 1 0v1.39a.5.5 0 0 1-.5.5z"/></svg>