<svg xmlns="http://www.w3.org/2000/svg" viewBox="0 0 24 24"><path d="M12.93 14.37a2.48 2.48 0 1 1 2.48-2.48 2.49 2.49 0 0 1-2.48 2.48zm0-4a1.48 1.48 0 1 0 1.48 1.48 1.48 1.48 0 0 0-1.48-1.44z"/><path d="M9.18 17.7a.51.51 0 0 1-.47-.53 4 4 0 0 1 4.29-3.8 4 4 0 0 1 4.22 3.8.5.5 0 0 1-.47.53.49.49 0 0 1-.53-.47A3.06 3.06 0 0 0 13 14.37a3.08 3.08 0 0 0-3.28 2.86.49.49 0 0 1-.54.47z"/><g><path d="M17.09 20.5H6.31a2.51 2.51 0 0 1-2.5-2.5V6.31a2.51 2.51 0 0 1 2.5-2.5h10.78a2.5 2.5 0 0 1 2.5 2.5V18a2.5 2.5 0 0 1-2.5 2.5zM6.31 4.81a1.5 1.5 0 0 0-1.5 1.5V18a1.5 1.5 0 0 0 1.5 1.5h10.78a1.5 1.5 0 0 0 1.5-1.5V6.31a1.5 1.5 0 0 0-1.5-1.5z"/><path d="M7.14 18.82a.5.5 0 0 1-.5-.5V6a.5.5 0 0 1 .5-.5.51.51 0 0 1 .5.5v12.32a.5.5 0 0 1-.5.5z"/></g></svg>