<svg xmlns="http://www.w3.org/2000/svg" viewBox="0 0 24 24"><path d="M20.354 6.849H7.994a.5.5 0 0 1 0-1h12.36a.5.5 0 0 1 0 1zm-14.47-1.91a.5.5 0 0 1 .71 0 .51.51 0 0 1 0 .71l-1.58 1.64a.507.507 0 0 1-.37.14.458.458 0 0 1-.34-.14l-1-1a.5.5 0 0 1 .7-.71l.647.647zm14.47 7.8H7.994a.5.5 0 0 1 0-1h12.36a.5.5 0 0 1 .5.5.51.51 0 0 1-.5.5zm-16.06.41a.576.576 0 0 1-.056-.066l-.944-.944a.5.5 0 0 1 0-.71.48.48 0 0 1 .7 0l.65.65 1.24-1.28a.5.5 0 0 1 .72.69l-1.59 1.68a.514.514 0 0 1-.37.12.515.515 0 0 1-.35-.14zm16.06 5.47H7.994a.5.5 0 0 1 0-1h12.36a.51.51 0 0 1 .5.5.5.5 0 0 1-.5.5zm-16.06.45a.576.576 0 0 1-.056-.066l-.944-.944a.495.495 0 0 1 .7-.7l.645.645 1.245-1.285a.5.5 0 0 1 .71 0 .51.51 0 0 1 0 .71l-1.58 1.62a.479.479 0 0 1-.37.16.515.515 0 0 1-.35-.14z"/></svg>