<svg xmlns="http://www.w3.org/2000/svg" viewBox="0 0 24 24"><path d="M3 8.14a.5.5 0 0 0 .5-.49v-4a.12.12 0 0 1 .13-.13h4.04A.5.5 0 0 0 8.16 3a.49.49 0 0 0-.49-.49h-4A1.12 1.12 0 0 0 2.5 3.65v4a.49.49 0 0 0 .5.49z"/><path d="M10.42 5.15H6.07a.86.86 0 0 0-.85.85v4.35a.86.86 0 0 0 .85.85h4.35a.86.86 0 0 0 .86-.85V6a.86.86 0 0 0-.86-.85zm-.13 5.07H6.21V6.14h4.08zM13.65 11.2H18a.85.85 0 0 0 .85-.85V6a.85.85 0 0 0-.85-.85h-4.35a.85.85 0 0 0-.85.85v4.35a.85.85 0 0 0 .85.85zm.13-5.06h4.08v4.08h-4.08zM10.42 12.7H6.07a.86.86 0 0 0-.85.86v4.35a.86.86 0 0 0 .85.85h4.35a.86.86 0 0 0 .86-.85v-4.35a.87.87 0 0 0-.86-.86zm-.13 5.07H6.21v-4.08h4.08z"/><rect width="2.67" height="2.68" x="14.5" y="14.31" rx=".59"/><path d="M18.37 12.69a.49.49 0 0 0-.49.49v5.07a.49.49 0 0 0 1 0v-5.07a.49.49 0 0 0-.51-.49zM16.68 12.69H13.3a.49.49 0 0 0 0 1h3.38a.49.49 0 0 0 0-1zM17.17 18.25a.49.49 0 0 0-.49-.49H13.3a.49.49 0 1 0 0 1h3.38a.49.49 0 0 0 .49-.51zM12.9 14.87v1.69a.5.5 0 0 0 1 0v-1.69a.5.5 0 0 0-1 0z"/><rect width="2.67" height="2.68" x="6.9" y="14.38" rx=".59"/><rect width="2.67" height="2.68" x="6.9" y="6.78" rx=".59"/><rect width="2.67" height="2.68" x="14.5" y="6.78" rx=".59"/><path d="M16.36 3.49h4a.13.13 0 0 1 .13.13v4.05a.49.49 0 1 0 1 0v-4a1.12 1.12 0 0 0-1.13-1.17h-4a.5.5 0 0 0 0 1zM21 15.86a.5.5 0 0 0-.5.49v4a.12.12 0 0 1-.13.13h-4.04a.5.5 0 0 0-.49.5.49.49 0 0 0 .49.49h4.05a1.12 1.12 0 0 0 1.12-1.12v-4a.49.49 0 0 0-.5-.49zM7.64 20.51h-4a.13.13 0 0 1-.13-.13v-4.05a.49.49 0 1 0-1 0v4.05a1.12 1.12 0 0 0 1.13 1.12h4a.5.5 0 0 0 0-1z"/></svg>