<svg xmlns="http://www.w3.org/2000/svg" viewBox="0 0 24 24"><path d="M8.846 5.875a14.631 14.631 0 0 0-2.77-1.62l-.34-.1-.15.3a13.82 13.82 0 0 0-1.52 2.8 9.388 9.388 0 0 0-.54 6.07 9.504 9.504 0 0 0 3.74 4.8 14.627 14.627 0 0 0 2.77 1.58l.34.14.21-.29a15.34 15.34 0 0 0 1.47-2.85 9.524 9.524 0 0 0 .53-6.04 9.418 9.418 0 0 0-3.74-4.79zm1.51 12.38l-1.86-6.37a.46.46 0 0 0-.57-.31.46.46 0 0 0-.3.57h-.04l1.87 6.32c-1.47-.78-4.28-2.6-5.1-5.37a8.679 8.679 0 0 1 .5-5.46c.332-.83.74-1.626 1.22-2.38.794.389 1.551.851 2.26 1.38a8.66 8.66 0 0 1 3.39 4.31 8.725 8.725 0 0 1-.5 5.45c-.242.64-.529 1.261-.86 1.86zm9.66-8.69l-.14-.31h-.36c-.17 0-4.09.76-5.62 3.56-1.53 2.8 0 6.5.06 6.65l.14.34.36-.07c.301-.053.599-.127.89-.22a7.901 7.901 0 0 0 4.73-3.26c1.51-2.85.01-6.54-.06-6.69zm-2.81 4.58a.44.44 0 0 0-.61.17l-2.12 3.87a7 7 0 0 1 .22-4.9c1.07-2 3.65-2.78 4.61-3 .32.94 1 3.55 0 5.51a6.901 6.901 0 0 1-4 2.85l2.11-3.87a.46.46 0 0 0-.17-.62z"/></svg>