<svg xmlns="http://www.w3.org/2000/svg" viewBox="0 0 24 24"><path d="M13.57 12.24v-1.43a.49.49 0 0 0-.42-.48l1.53-8.66a.5.5 0 0 0-.4-.58.49.49 0 0 0-.58.4L12.48 8.4V1.5a.5.5 0 0 0-1 0v6.9l-1.22-6.91a.5.5 0 1 0-1 .18l1.52 8.66a.49.49 0 0 0-.41.48v1.43A1.5 1.5 0 0 0 9 13.74v7.76a1.5 1.5 0 0 0 1.5 1.5h3.08A1.5 1.5 0 0 0 15 21.5v-7.76a1.5 1.5 0 0 0-1.43-1.5zM14 21.5a.5.5 0 0 1-.5.5h-3.04a.5.5 0 0 1-.5-.5v-7.76a.5.5 0 0 1 .5-.5h3.08a.5.5 0 0 1 .5.5z"/><rect width="3.17" height="4.69" x="10.39" y="14.04" rx=".5"/></svg>