<svg xmlns="http://www.w3.org/2000/svg" viewBox="0 0 24 24"><path d="M7 12.19V8a.5.5 0 0 1 1 0v4.22c0 2.145 1.617 3.73 3.5 3.973V14.94h-.1a2.5 2.5 0 0 1-2.5-2.5V5.19a2.51 2.51 0 0 1 2.5-2.5h1.2a2.51 2.51 0 0 1 2.5 2.5v7.25a2.5 2.5 0 0 1-2.5 2.5h-.1v1.255a4.006 4.006 0 0 0 1.5-.511 3.998 3.998 0 0 0 2-3.464V8a.5.5 0 0 1 1 0v4.22a4.999 4.999 0 0 1-4.5 4.945v3.145h2.88a.5.5 0 0 1 .5.5.51.51 0 0 1-.5.5H8.62a.51.51 0 0 1-.5-.5.5.5 0 0 1 .5-.5h2.88v-3.145A5.001 5.001 0 0 1 7 12.19zm4.4-8.5a1.51 1.51 0 0 0-1.5 1.5v3.13h4.2V5.19a1.51 1.51 0 0 0-1.5-1.5zM9.9 9.32v3.12a1.5 1.5 0 0 0 1.5 1.5h1.2a1.5 1.5 0 0 0 1.5-1.5V9.32z"/></svg>