<svg xmlns="http://www.w3.org/2000/svg" viewBox="0 0 24 24"><path d="M5.91 8l-.006-.008a.487.487 0 0 1-.084.028.42.42 0 0 0-.32.43c0 .12 0 .44.2.44.034 0 .068.003.1.01h.753zm.16-1.33l5.22-4a.908.908 0 0 1 .71-.16.998.998 0 0 1 .63.35l.639.83a.496.496 0 0 1 .141-.11l.33-.18a1.201 1.201 0 0 1 1.56.42l1.88 3.3a1.18 1.18 0 0 1-.42 1.57l-.342.21h.972a1 1 0 0 1 1 .91v2.3h.17c.506.03.91.434.94.94v2.14c-.03.506-.434.91-.94.94h-.22v2.35a1 1 0 0 1-1 .95H5.45v-.02a1 1 0 0 1-1-.92V8.73c0-.077.017-.148.046-.211A.515.515 0 0 1 4.5 8.48a1.421 1.421 0 0 1 1.08-1.43.512.512 0 0 1 .206-.005.917.917 0 0 1 .284-.375zm11.31 3.17l-5.349.028a.504.504 0 0 1-.247.001L5.81 9.9a.49.49 0 0 1-.102-.01H5.7a1.357 1.357 0 0 1-.25-.035v8.605l11.89-.05v-2.28H15.7a.94.94 0 0 1-.94-.94v-2.14a1 1 0 0 1 .93-.94h1.69zM16.23 7.8a.18.18 0 0 0 .07-.25l-1.86-3.26a.17.17 0 0 0-.23 0l-.33.17-.013.007L15.24 6.25a.94.94 0 0 1 .19.69.89.89 0 0 1-.35.62L13.348 8.9h1.188zm-1.81-1.01l-2.6-3.3-5.13 4L7.774 8.9h3.932zM10.54 17.1a1.808 1.808 0 0 1-.9-1 1.871 1.871 0 0 1-.09-.57.5.5 0 0 1 1 0 .757.757 0 0 0 0 .26.77.77 0 0 0 .4.45.74.74 0 0 0 .6.05.84.84 0 0 0 .54-.8.46.46 0 0 0-.26-.43l-1.42-.69a1.58 1.58 0 0 1-.87-1.41 1.74 1.74 0 0 1 1-1.6c.102-.05.206-.089.31-.119V11a.5.5 0 0 1 1 0v.253c.718.219 1.281.88 1.28 1.727a.5.5 0 0 1-1 0 .82.82 0 0 0-1.13-.76.74.74 0 0 0-.41.69.58.58 0 0 0 .32.53l1.4.68c.518.242.844.768.83 1.34a1.83 1.83 0 0 1-1.21 1.73c-.026.01-.053.018-.08.027v.283a.5.5 0 0 1-1 0v-.281c-.106-.03-.21-.07-.31-.119zm7.96-4.05l-2.8.06.06 2.08 2.74-.06z"/></svg>