<svg xmlns="http://www.w3.org/2000/svg" viewBox="0 0 24 24"><path d="M21 17.07l-1.25-2.86a.47.47 0 0 0-.63-.24l-2.78 1.23a.47.47 0 0 0-.24.62.48.48 0 0 0 .63.24l1.9-.85a7.12 7.12 0 0 1-6.7 4.84 7.36 7.36 0 0 1-7-6 .49.49 0 0 0-.56-.38.48.48 0 0 0-.37.56 8.32 8.32 0 0 0 8 6.75 8.08 8.08 0 0 0 7.49-5.11l.68 1.56a.48.48 0 0 0 .44.29.72.72 0 0 0 .19 0 .48.48 0 0 0 .2-.65zM4.47 9.39h.18a.48.48 0 0 0 .2 0l2.81-1.32a.47.47 0 0 0-.4-.86L5.6 8a7.07 7.07 0 0 1 6.31-4 7.22 7.22 0 0 1 6.9 5.44.48.48 0 0 0 .46.35h.12a.48.48 0 0 0 .34-.58A8.18 8.18 0 0 0 11.92 3a8 8 0 0 0-7.25 4.73l-.76-1.9a.47.47 0 0 0-.61-.27.49.49 0 0 0-.3.62l1.21 2.94a.49.49 0 0 0 .26.27z"/><path d="M12 7.38a1 1 0 0 0-1 1 1.1 1.1 0 0 0 1 1 1.12 1.12 0 0 0 1-1 1 1 0 0 0-1-1zM12 10.08a.71.71 0 0 0-.72.7v5.14a.72.72 0 0 0 1.43 0v-5.13a.85.85 0 0 0-.71-.71z"/></svg>