<svg xmlns="http://www.w3.org/2000/svg" viewBox="0 0 24 24"><defs><clipPath id="a"><path d="M0 0h24v24H0z"/></clipPath></defs><path d="M12.05 16.14a3.85 3.85 0 1 1 3.85-3.85 3.85 3.85 0 0 1-3.85 3.85zm0-6.7a2.85 2.85 0 1 0 2.85 2.85 2.86 2.86 0 0 0-2.85-2.85z"/><path d="M13.68 22h-3.42a1 1 0 0 1-1-1v-1.77a.53.53 0 0 0-.26-.48 7 7 0 0 1-1.1-.63.54.54 0 0 0-.56 0l-1.6.88a1 1 0 0 1-1.36-.33l-1.74-3.13A1 1 0 0 1 3 14.19l1.6-.91a.49.49 0 0 0 .27-.5v-.59a1.8 1.8 0 0 1 0-.31 2.45 2.45 0 0 0 0-.27.59.59 0 0 0-.27-.61L3 10.16a1 1 0 0 1-.35-1.37l1.78-2.95a1 1 0 0 1 .82-.46.77.77 0 0 1 .54.22l1.51.85a.62.62 0 0 0 .63 0 10.93 10.93 0 0 1 1-.6.57.57 0 0 0 .36-.5V3.47a1 1 0 0 1 1-1h3.42a1 1 0 0 1 1 1v1.89a.55.55 0 0 0 .32.49 7 7 0 0 1 1.1.63.54.54 0 0 0 .56 0l1.57-.89a1 1 0 0 1 1.36.32l1.74 3a1 1 0 0 1-.36 1.34l-1.6.9a.49.49 0 0 0-.27.5v1a1.5 1.5 0 0 0 0 .22.51.51 0 0 0 .25.55l1.58.9a1.25 1.25 0 0 1 .24.16.93.93 0 0 1 .06 1.29l-1.68 2.87a1 1 0 0 1-1.36.33l-1.57-.89a.58.58 0 0 0-.57 0 6.43 6.43 0 0 1-1.08.62.57.57 0 0 0-.34.5v1.85a1 1 0 0 1-.98.95zm-6.11-5a1.55 1.55 0 0 1 .88.27 5 5 0 0 0 .92.53 1.54 1.54 0 0 1 .92 1.4v1.84h3.39v-1.81a1.54 1.54 0 0 1 .94-1.41 4.83 4.83 0 0 0 .9-.53 1.57 1.57 0 0 1 1.63-.08l1.59.9 1.73-2.92-1.56-.88a1.48 1.48 0 0 1-.77-1.49 1.89 1.89 0 0 1 0-.3 1.5 1.5 0 0 0 0-.22v-.58a1.47 1.47 0 0 1 .86-1.45l1.56-.88-1.8-2.93-1.58.91a1.53 1.53 0 0 1-1.63-.08 6.46 6.46 0 0 0-.92-.53 1.51 1.51 0 0 1-.92-1.4V3.47h-3.39v1.81a1.53 1.53 0 0 1-.94 1.4 11 11 0 0 0-.92.54 1.62 1.62 0 0 1-1.66.08l-1.58-.9-1.66 2.89 1.55.89a1.57 1.57 0 0 1 .77 1.47 2.49 2.49 0 0 1 0 .36 1.41 1.41 0 0 0 0 .18v.53A1.47 1.47 0 0 1 5 14.16L3.48 15l1.76 3.11 1.58-.93a1.52 1.52 0 0 1 .75-.18zm12.93-1.78z"/></svg>