<svg xmlns="http://www.w3.org/2000/svg" viewBox="0 0 24 24"><path d="M11.75 11.76c-.106 0-.211-.004-.314-.011A6.27 6.27 0 0 0 5.5 18a.5.5 0 0 1-1 0c0-3.22 2.096-5.95 4.999-6.901-1.736-1.133-2.49-3.518-1.326-5.534 1.59-2.753 5.564-2.753 7.154 0a4.128 4.128 0 0 1-1.335 5.534A7.273 7.273 0 0 1 19 18a.51.51 0 0 1-.5.5.5.5 0 0 1-.5-.5 6.27 6.27 0 0 0-5.94-6.251 4.563 4.563 0 0 1-.31.011zm0-7.26c-2.409 0-3.915 2.608-2.711 4.695a3.092 3.092 0 0 0 2.414 1.551 7.319 7.319 0 0 1 .591.001 3.096 3.096 0 0 0 2.417-1.552 3.139 3.139 0 0 0 .419-1.565 3.14 3.14 0 0 0-3.13-3.13z"/></svg>