<svg xmlns="http://www.w3.org/2000/svg" viewBox="0 0 24 24"><path d="M17.6 19.1H6.41a2 2 0 0 1-2.1-1.94v-6.4a.937.937 0 0 1 .14-.5.997.997 0 0 1 1.36-.32l.34.19.12.06V6.64a1.58 1.58 0 0 1 1.45-1.75h8.44a1.65 1.65 0 0 1 1.45 1.8v3.492l.54-.292a.844.844 0 0 1 .54-.15 1 1 0 0 1 1 1v6.37a2 2 0 0 1-2 2zm-8.94-7.71l3 1.61a.791.791 0 0 0 .73 0l4.23-2.284V6.64a.68.68 0 0 0-.54-.76H7.72c-.25 0-.45.33-.45.75v4.062zM6.38 18.1H17.6a1 1 0 0 0 1-1v-6.34l-.35.24-5.44 2.92a1.78 1.78 0 0 1-1.68 0l-3-1.61-2.82-1.51v6.34a.998.998 0 0 0 .33.69c.199.187.467.285.74.27zm8.53-9.65H8.98a.5.5 0 0 1 0-1h5.93a.5.5 0 0 1 0 1zm0 2.26H8.98a.5.5 0 0 1 0-1h5.93a.51.51 0 0 1 .5.5.5.5 0 0 1-.5.5z"/></svg>