<svg xmlns="http://www.w3.org/2000/svg" viewBox="0 0 24 24"><path d="M6 18.4a2.53 2.53 0 0 1-2.5-2.53V9A2.58 2.58 0 0 1 6 6.5h12.25A2.53 2.53 0 0 1 20.78 9v6.85a2.48 2.48 0 0 1-2.39 2.53H6zM6 7.5A1.56 1.56 0 0 0 4.5 9v6.88A1.54 1.54 0 0 0 6 17.4h12.37a1.47 1.47 0 0 0 1.41-1.52V9a1.52 1.52 0 0 0-1.53-1.5zM9.89 16a.739.739 0 0 1-.75-.75V9.62a.75.75 0 0 1 1.5 0v5.66a.75.75 0 0 1-.75.72zm5.88 0a.75.75 0 0 1-.75-.75V9.62a.75.75 0 0 1 1.5 0v5.66a.74.74 0 0 1-.75.72zm-7.92-.22a.5.5 0 0 1-.5-.5V9.62a.5.5 0 0 1 1 0v5.66a.5.5 0 0 1-.5.5zm5.82 0a.5.5 0 0 1-.5-.5V9.62a.5.5 0 0 1 1 0v5.66a.5.5 0 0 1-.5.5zm3.99 0a.5.5 0 0 1-.5-.5V9.62a.5.5 0 0 1 1 0v5.66a.5.5 0 0 1-.5.5zm-5.74-.12a.37.37 0 0 1-.37-.38V9.62a.37.37 0 0 1 .37-.38c.21 0 .38.17.38.38v5.66c0 .21-.17.38-.38.38zm-5.52-.13a.25.25 0 0 1-.25-.25V9.62a.25.25 0 0 1 .5 0v5.66a.25.25 0 0 1-.25.25z"/></svg>