<svg xmlns="http://www.w3.org/2000/svg" viewBox="0 0 24 24"><defs><clipPath id="a"><path d="M0 0h24v24H0z"/></clipPath></defs><path d="M15 11.1a2.59 2.59 0 1 1 2.59-2.58A2.59 2.59 0 0 1 15 11.1zm0-4.17a1.59 1.59 0 1 0 1.59 1.59A1.59 1.59 0 0 0 15 6.93z"/><path d="M15.92 14.49h-2a.79.79 0 0 1-.56-.23.82.82 0 0 1-.22-.55v-1.09a.12.12 0 0 0-.07-.1 4.76 4.76 0 0 1-.69-.4.13.13 0 0 0-.12 0l-.93.53a.8.8 0 0 1-1.06-.25l-1.08-1.87a.8.8 0 0 1 .25-1.06l1-.55a.08.08 0 0 0 .06-.1v-.37a1.83 1.83 0 0 1 0-.21v-.13c0-.04 0-.14-.07-.16l-.92-.53a.8.8 0 0 1-.28-1.09l1-1.75a.81.81 0 0 1 .66-.37.66.66 0 0 1 .45.17l.87.49a.2.2 0 0 0 .17 0 6.74 6.74 0 0 1 .64-.38c.07 0 .1-.07.1-.11v-1.1a.75.75 0 0 1 .23-.55.76.76 0 0 1 .55-.23h2a.79.79 0 0 1 .56.23.82.82 0 0 1 .22.56V4.4a.11.11 0 0 0 .07.1 5.18 5.18 0 0 1 .69.4.13.13 0 0 0 .12 0l.93-.53a.8.8 0 0 1 1.06.25l1 1.78a.8.8 0 0 1-.24 1.07l-1 .55-.07.12v.35a1.94 1.94 0 0 1 0 .24v.25l1.08.62a.77.77 0 0 1 .09 1.08l-1 1.68a.82.82 0 0 1-1.09.27l-.92-.53a.12.12 0 0 0-.13 0 4.32 4.32 0 0 1-.67.38.14.14 0 0 0-.08.11v1.08a.79.79 0 0 1-.23.56.8.8 0 0 1-.37.26zm-1.81-.78zm-1.82-2.61a1.13 1.13 0 0 1 .64.2 3 3 0 0 0 .51.3 1.11 1.11 0 0 1 .67 1v.88h1.59v-.86a1.12 1.12 0 0 1 .68-1 4.29 4.29 0 0 0 .5-.29 1.1 1.1 0 0 1 1.18-.06l.77.43.83-1.38-.74-.42a1.07 1.07 0 0 1-.56-1.09.61.61 0 0 1 0-.18.34.34 0 0 0 0-.1v-.36a1.07 1.07 0 0 1 .58-1l.73-.41-.82-1.39-.76.43a1.13 1.13 0 0 1-1.19 0 2.7 2.7 0 0 0-.52-.3 1.11 1.11 0 0 1-.66-1v-1h-1.57v.87a1.1 1.1 0 0 1-.68 1 5.61 5.61 0 0 0-.51.3 1.18 1.18 0 0 1-1.2.06L11 5.31l-.8 1.35.74.42a1.13 1.13 0 0 1 .57 1.06 2.15 2.15 0 0 1 0 .23v.39a1.07 1.07 0 0 1-.58 1l-.73.41.8 1.51.76-.43a1.14 1.14 0 0 1 .53-.15zm3.63 2.39zm3.08-1.7zm-8.19 0zm9-1.65zm-9.7-.1zm0-3.2zm9-1.59zM13.93 3.5zm1.81-.22z"/><g><path d="M11.1 21.63a1.74 1.74 0 0 1-.45-.06l-3.76-1.8a.75.75 0 0 0-.33-.07h-.89V16l.16-.15C7 14.73 7.3 14.73 7.44 14.73h3.7l3.85.52a1.56 1.56 0 0 1 1.07.5 1.59 1.59 0 0 1 .36.61L19.11 15a1.54 1.54 0 0 1 1.15-.22 1.59 1.59 0 0 1 1 .68l.12.22a1.84 1.84 0 0 1-1 2.19l-3 1.55-5.78 2.17a2.07 2.07 0 0 1-.5.04zM6.67 18.7a1.61 1.61 0 0 1 .65.17L11 20.64a1.26 1.26 0 0 0 .33 0L17 18.47l3-1.54a.86.86 0 0 0 .51-.95.62.62 0 0 0-.39-.26.61.61 0 0 0-.45.1l-3.37 1.76a1.83 1.83 0 0 1-1.89.75L11 17.86a.5.5 0 0 1-.43-.56.52.52 0 0 1 .57-.43l3.35.48a.87.87 0 0 0 1-.47.62.62 0 0 0-.59-.63l-3.84-.52H7.44s-.41.33-.77.65z"/><path d="M5.67 20.47H3.5a1 1 0 0 1-1-1v-4.29a1 1 0 0 1 1-1h2.17a1 1 0 0 1 1 1v4.29a1 1 0 0 1-1 1zM3.5 15.18v4.29h2.17v-4.29zm0-.5v.5z"/></g></svg>