<svg xmlns="http://www.w3.org/2000/svg" viewBox="0 0 24 24"><path d="M10.85 20a.5.5 0 0 1-.5-.5.5.5 0 0 1 .5-.5 7.73 7.73 0 0 0 3.38-14.73A7.73 7.73 0 0 0 3.9 7.84.5.5 0 0 1 3 7.4a8.72 8.72 0 0 1 11.67-4A8.73 8.73 0 0 1 10.85 20z"/><path d="M3.45 8.12A.47.47 0 0 1 3.17 8 .47.47 0 0 1 3 7.63l-.12-2.78a.52.52 0 0 1 .49-.51.49.49 0 0 1 .51.49l.05 2.08 1.95-.72a.5.5 0 0 1 .35.94l-2.61 1z"/><path d="M11.2 11.73a.51.51 0 0 1-.5-.5V9a.51.51 0 0 1 .5-.5.5.5 0 0 1 .5.5v2.2a.5.5 0 0 1-.5.53z"/><path d="M13.4 11.73h-2.2a.51.51 0 0 1-.5-.5.5.5 0 0 1 .5-.5h2.2a.5.5 0 0 1 .5.5.51.51 0 0 1-.5.5z"/><path d="M11.23 16.35a5.13 5.13 0 1 1 5.12-5.12 5.13 5.13 0 0 1-5.12 5.12zm0-9.25a4.13 4.13 0 1 0 4.12 4.13 4.13 4.13 0 0 0-4.12-4.13z"/><g><path d="M21 20H3a.5.5 0 0 1 0-1h18a.5.5 0 0 1 0 1z"/><path d="M18.46 21.77a.49.49 0 0 1-.41-.21.5.5 0 0 1 .12-.7l2-1.41-2-1.41a.51.51 0 0 1-.11-.7.5.5 0 0 1 .69-.11L21.29 19a.51.51 0 0 1 0 .82l-2.54 1.82a.52.52 0 0 1-.29.13z"/></g></svg>