<svg xmlns="http://www.w3.org/2000/svg" viewBox="0 0 24 24"><path d="M15 14.61H3.07v2.77a.36.36 0 0 0 .36.34h1.005c.048-.201.126-.401.238-.595.843-1.46 2.951-1.46 3.794 0 .108.187.187.387.235.595h7.103c.048-.201.126-.401.238-.595.843-1.46 2.951-1.46 3.794 0 .108.187.187.387.235.595h.508a.37.37 0 0 0 .35-.36v-5.44a1.16 1.16 0 0 0-.27-.69l-2.79-2.79a.999.999 0 0 0-.69-.3h-1.67v6a.5.5 0 0 1-.51.47zM3.42 18.72a1.37 1.37 0 0 1-1.35-1.33V6a2.41 2.41 0 0 1 2.38-2.41h8.67A2.4 2.4 0 0 1 15.51 6v1.14h1.69a2 2 0 0 1 1.38.6l2.81 2.81c.328.375.519.852.54 1.35v5.48a1.37 1.37 0 0 1-1.34 1.34h-.517a2.19 2.19 0 0 1-2.133 1.69 2.186 2.186 0 0 1-2.134-1.69H8.703a2.19 2.19 0 0 1-2.133 1.69 2.186 2.186 0 0 1-2.134-1.69zm11.09-5.11V7.74a.471.471 0 0 1 0-.2V6a1.39 1.39 0 0 0-1.4-1.38H4.45A1.41 1.41 0 0 0 3.07 6l-.01 7.451c.007.032.01.065.01.099v.06zm-7.94 3.42a1.191 1.191 0 0 0-1.031 1.785 1.191 1.191 0 0 0 2.218-.51.495.495 0 0 1 .002-.18A1.19 1.19 0 0 0 6.57 17zm11.37 0a1.191 1.191 0 0 0-1.031 1.785 1.191 1.191 0 0 0 2.221-.627A1.19 1.19 0 0 0 17.94 17z"/></svg>