<svg xmlns="http://www.w3.org/2000/svg" viewBox="0 0 24 24"><defs><clipPath id="a"><path d="M0 0h24v24H0z"/></clipPath></defs><path d="M13.66 12.82a.5.5 0 0 1-.35-.86l4.34-4.3-4.34-4.31a.5.5 0 1 1 .7-.7l4.7 4.65a.55.55 0 0 1 .15.36.51.51 0 0 1-.15.35L14 12.67a.49.49 0 0 1-.34.15z"/><path d="M18.35 8.16L6 8a.51.51 0 0 1-.5-.51.47.47 0 0 1 .55-.49l12.31.12a.5.5 0 0 1 0 1z"/><g><path d="M10.7 21.5a.51.51 0 0 1-.36-.15l-4.7-4.65a.54.54 0 0 1-.14-.36.5.5 0 0 1 .14-.34l4.7-4.66a.5.5 0 1 1 .71.71l-4.34 4.3 4.34 4.31a.49.49 0 0 1 0 .7.49.49 0 0 1-.35.14z"/><path d="M18.31 16.84H6a.5.5 0 0 1 0-1h12.31a.5.5 0 0 1 0 1z"/></g></svg>