<svg xmlns="http://www.w3.org/2000/svg" viewBox="0 0 24 24"><path d="M17.585 16.614a6.589 6.589 0 0 1-2-.31 6.504 6.504 0 0 1-3.57-3 6.504 6.504 0 0 1-3.57 3 8.128 8.128 0 0 1-5.8-.61.5.5 0 0 1-.01-.87 7.216 7.216 0 0 0 3.34-4.58c.08-.36.15-.58.15-.58a3.002 3.002 0 0 1 1.94-2.17c1.51-.44 3.24.61 3.94 1.11.7-.5 2.43-1.56 3.94-1.11a3 3 0 0 1 1.93 2.17s.07.22.15.59a7.19 7.19 0 0 0 3.34 4.57.5.5 0 0 1 .25.44.517.517 0 0 1-.27.43 8.665 8.665 0 0 1-3.76.92zm-5.58-4.91c.191 0 .366.109.45.28a5.997 5.997 0 0 0 3.42 3.37 6.626 6.626 0 0 0 4.2-.2 8.242 8.242 0 0 1-3-4.69c-.06-.3-.12-.48-.12-.49a2.073 2.073 0 0 0-1.28-1.52c-1.16-.34-2.81.72-3.34 1.17a.509.509 0 0 1-.64 0c-.54-.44-2.18-1.51-3.34-1.17a2.073 2.073 0 0 0-1.28 1.52s-.06.19-.13.49a8.14 8.14 0 0 1-3 4.69 6.664 6.664 0 0 0 4.21.2 6 6 0 0 0 3.43-3.37.492.492 0 0 1 .42-.28z"/></svg>