<svg xmlns="http://www.w3.org/2000/svg" viewBox="0 0 24 24"><path d="M7.32 20a1.79 1.79 0 0 1-1.18-.46 1.81 1.81 0 0 1-.63-1.26 1.61 1.61 0 0 1 0-.22l1.08-8.21a1.91 1.91 0 0 1 1.95-1.58h7.31a1.87 1.87 0 0 1 1.92 1.55L18.85 18a1.47 1.47 0 0 1-.34 1.24 2.07 2.07 0 0 1-1.59.73h-9.6zM8.49 9.26a.92.92 0 0 0-.92.75L6.5 18.13a.89.89 0 0 0 .3.64.76.76 0 0 0 .61.2h9.51a1 1 0 0 0 .81-.37.52.52 0 0 0 .14-.43L16.79 10a.89.89 0 0 0-.93-.71H8.49z"/><path d="M9.82 9.27a.51.51 0 0 1-.49-.4l-.46-2.25a2.16 2.16 0 0 1 .83-2.41h.09l2.38-1a1.16 1.16 0 0 1 1 0 2 2 0 0 1 .94 1.39L15 8.58a.5.5 0 0 1-1 .2l-.81-4.07a1 1 0 0 0-.4-.69.15.15 0 0 0-.16 0l-2.35 1a1.21 1.21 0 0 0-.42 1.32l.48 2.29a.49.49 0 0 1-.39.59z"/></svg>