<svg xmlns="http://www.w3.org/2000/svg" viewBox="0 0 24 24"><path d="M12.9 13.81v.05a.81.81 0 1 1-1.61-.05v-.07a.77.77 0 0 1 .81-.74.8.8 0 0 1 .8.81zm0 2.86a.059.059 0 0 1 0 .06.81.81 0 1 1-1.61-.06v-.06a.78.78 0 0 1 .81-.75.82.82 0 0 1 .8.81zm-4.52-.81a.78.78 0 0 1 .75.81v.06a.78.78 0 0 1-.81.75h-.07a.77.77 0 0 1-.74-.81v-.06a.78.78 0 0 1 .81-.75zM15.87 13a.79.79 0 0 1 .75.81.82.82 0 0 1-.79.78.8.8 0 0 1-.83-.78v-.07a.77.77 0 0 1 .81-.74zm4.36-4v8.68A2.25 2.25 0 0 1 18 19.91H6.17A2.21 2.21 0 0 1 4 17.68V8.89a2.15 2.15 0 0 1 2.23-2.07h.61c.1-.01.172-.1.16-.2v-.68a.88.88 0 0 1 .91-.87H9.6a.81.81 0 0 1 .81.81v.72a.18.18 0 0 0 .2.15h2.88c.1-.01.172-.1.16-.2v-.67a.89.89 0 0 1 .87-.88h1.69a.89.89 0 0 1 .88.88v.72a.17.17 0 0 0 .2.15h.61A2.35 2.35 0 0 1 20.23 9zM9.33 6.15H8.18c-.07 0-.07 0-.07.06v.54h1.22zm6.74.6v-.54c0-.06 0-.06-.07-.06h-1.14c-.06 0-.06 0-.06.06v.54zM19 9a1.17 1.17 0 0 0-1-1.17H6.23A1.18 1.18 0 0 0 5.08 9v8.7a1.181 1.181 0 0 0 1.15 1.15H17.9a1.181 1.181 0 0 0 1.15-1.15V9zm-9.94 1.67l-.34.33.29.35a.27.27 0 0 1 0 .34.29.29 0 0 1-.4.06l-.33-.34-.33.33a.322.322 0 0 1-.35 0 .29.29 0 0 1 0-.4l.33-.34-.33-.34a.27.27 0 0 1 0-.34.29.29 0 0 1 .4-.06l.36.34.34-.34a.26.26 0 0 1 .36 0 .432.432 0 0 1 0 .41zm-.04 2.83l-.34.34.33.34a.27.27 0 0 1 0 .34.29.29 0 0 1-.4.06l-.33-.34-.33.33a.322.322 0 0 1-.35 0 .28.28 0 0 1 0-.4l.33-.34-.33-.34a.27.27 0 0 1 0-.34.3.3 0 0 1 .4-.06l.36.34.34-.34a.26.26 0 0 1 .36 0 .431.431 0 0 1-.04.41zm3.82-2.83l-.34.33.38.34a.172.172 0 0 1 .06.06.3.3 0 0 1-.06.4.3.3 0 0 1-.4-.06l-.34-.34-.34.34a.301.301 0 0 1-.34 0 .3.3 0 0 1-.06-.4l.34-.34-.34-.34a.301.301 0 0 1 0-.34.29.29 0 0 1 .4-.06l.34.34.34-.34a.26.26 0 0 1 .36 0 .432.432 0 0 1 0 .41zm3.77-.01l-.34.34.38.34c.07.102.07.238 0 .34a.3.3 0 0 1-.4.06l-.34-.34-.33.34a.301.301 0 0 1-.34 0 .28.28 0 0 1-.06-.4l.33-.34-.4-.34-.06-.06a.3.3 0 0 1 .06-.4.29.29 0 0 1 .4.06l.34.34.34-.34a.26.26 0 0 1 .36 0c.13.07.13.27.06.4z"/></svg>