<svg xmlns="http://www.w3.org/2000/svg" viewBox="0 0 24 24"><path d="M12 21.5a9.5 9.5 0 1 1 9.5-9.5 9.51 9.51 0 0 1-9.5 9.5zm0-18a8.5 8.5 0 1 0 8.5 8.5A8.51 8.51 0 0 0 12 3.5z"/><path d="M12 17.09a2.81 2.81 0 0 1-1.26-.3 2.75 2.75 0 0 1-1.39-1.62 2.66 2.66 0 0 1-.14-.88.5.5 0 0 1 .5-.5.51.51 0 0 1 .5.5 1.88 1.88 0 0 0 .09.57 1.83 1.83 0 0 0 .89 1 1.79 1.79 0 0 0 1.38.1 1.84 1.84 0 0 0 1.23-1.77 1.26 1.26 0 0 0-.72-1.15l-2.51-1.21A2.4 2.4 0 0 1 9.21 9.7a2.72 2.72 0 0 1 1.53-2.5A2.75 2.75 0 0 1 12 6.91a2.86 2.86 0 0 1 2 .81 2.81 2.81 0 0 1 .83 2 .5.5 0 0 1-.5.5.5.5 0 0 1-.5-.5 1.83 1.83 0 0 0-.53-1.28 1.86 1.86 0 0 0-1.3-.53 1.84 1.84 0 0 0-.79.19 1.71 1.71 0 0 0-1 1.59A1.4 1.4 0 0 0 11 11l2.52 1.21a2.26 2.26 0 0 1 1.28 2A2.83 2.83 0 0 1 12.89 17a2.72 2.72 0 0 1-.89.09z"/><path d="M12 18.25a.5.5 0 0 1-.5-.5v-1.17a.5.5 0 0 1 1 0v1.17a.5.5 0 0 1-.5.5z"/><path d="M12 7.92a.5.5 0 0 1-.5-.5V6.25a.5.5 0 0 1 1 0v1.17a.5.5 0 0 1-.5.5z"/></svg>