<svg xmlns="http://www.w3.org/2000/svg" viewBox="0 0 24 24"><path d="M10.5 13.092a1.5 1.5 0 0 1 3 0v4.136h3v-4.8a4.34 4.34 0 0 0-4.5-4.25 4.38 4.38 0 0 0-4.47 4.28l.05 4.77h2.92zm7.43 4.15a2.33 2.33 0 0 1 2.33 2.25v1.49a.5.5 0 0 1-.5.5H4.24a.5.5 0 0 1-.5-.5v-1.48a2.31 2.31 0 0 1 2.34-2.26h.49v-4.794A5.41 5.41 0 0 1 12 7.178a5.37 5.37 0 0 1 5.47 5.24v4.824zm-6.43-.05h1v-4.1a.53.53 0 0 0-.51-.47.51.51 0 0 0-.49.49zm-6.74 3.29h14.5v-1a1.33 1.33 0 0 0-1.32-1.26h-.89a.426.426 0 0 1-.05.006H7.07a.405.405 0 0 1-.07-.006h-.93a1.31 1.31 0 0 0-1.33 1.28zM12 6.078a.5.5 0 0 1-.5-.5v-2.56a.5.5 0 0 1 1 0v2.56a.5.5 0 0 1-.5.5zm-5.28 2.1a.47.47 0 0 1-.35-.16l-1.83-1.81a.49.49 0 0 1 0-.7.5.5 0 0 1 .71 0l1.82 1.81a.5.5 0 0 1 0 .71.468.468 0 0 1-.35.15zm10.56 0a.487.487 0 0 1-.35-.16.5.5 0 0 1 0-.71l1.83-1.82a.5.5 0 0 1 .71 0 .49.49 0 0 1 0 .7l-1.84 1.83a.47.47 0 0 1-.35.16zm3.72 5.05h-1.59a.5.5 0 0 1 0-1H21a.5.5 0 0 1 0 1zm-16.41 0H3a.5.5 0 0 1 0-1h1.59a.5.5 0 0 1 0 1z"/></svg>