<svg xmlns="http://www.w3.org/2000/svg" viewBox="0 0 24 24"><path d="M19.851 8.716v13a1.321 1.321 0 0 1-1.3 1.3h-13.1a1.32 1.32 0 0 1-1.3-1.26v-3c0-.1.2-.2.4-.2h.08a.26.26 0 0 1 .22.3v3a.65.65 0 0 0 .6.6h13.1a.65.65 0 0 0 .6-.6V8.776a.27.27 0 0 1 .3-.22.49.49 0 0 1 .4.16zm-4.6 2.64c-.2 0-.3.1-.4.1l1.1.9a1 1 0 0 1 .3.9 1.214 1.214 0 0 1-.7.7c0 .1-.1.1-.2.1l1 .8a.936.936 0 0 1 .26.41 1.09 1.09 0 0 1-.66 1.39c-.79.212-1.591.379-2.4.5l.2 1.3a.78.78 0 0 1-.6.9 5.371 5.371 0 0 1-1.2.1 5.371 5.371 0 0 1-1.2-.1.78.78 0 0 1-.6-.9l.3-1.4a21.567 21.567 0 0 1-2.4-.5 1 1 0 0 1-.7-.8.9.9 0 0 1 .3-1l1-.8c0-.1-.1-.1-.2-.1a.997.997 0 0 1-.7-.7.8.8 0 0 1 .3-.9l1.1-.9c-.2 0-.3-.1-.4-.1a1.05 1.05 0 0 1-.6-.7c-.01-.296.098-.583.3-.8l2.8-2.4c.418-.3.982-.3 1.4 0l2.8 2.3a.862.862 0 0 1 .3.9 1.608 1.608 0 0 1-.5.8zm-2.1 7.2l-.3-1.4h-1.8l-.2 1.4a.1.1 0 0 0 .1.1c.696.1 1.404.1 2.1 0zm1.1-4.34c-1.643.4-3.357.4-5 0l-1.4 1.1c-.1.1-.2.2-.1.4s.2.3.3.3c.842.284 1.715.466 2.6.54h.1c.73.1 1.47.1 2.2 0h.1a12.181 12.181 0 0 0 2.6-.5c.2-.1.2-.1.3-.3.1-.2 0-.3-.1-.4zm-.2-2.66c-.661.112-1.33.178-2 .2a14.906 14.906 0 0 1-2-.2l-1.5 1.2a.37.37 0 0 0-.1.3c0 .11.09.2.2.2.3.1.5.1.8.2 1.677.4 3.423.4 5.1 0 .276-.02.547-.088.8-.2a.22.22 0 0 0 .2-.2.37.37 0 0 0-.1-.3zm.9-1.3l-2.8-2.4a.45.45 0 0 0-.5 0l-2.8 2.4a.298.298 0 0 0-.1.2.22.22 0 0 0 .2.2c.323.112.659.179 1 .2 1.35.3 2.75.3 4.1 0a3.09 3.09 0 0 0 .9-.2c.2-.1.2-.2.2-.2s0-.1-.2-.2zm-6.4-4.1l-.5.5.5.5a.45.45 0 0 1 0 .5c0 .1-.1.1-.2.1s-.1 0-.2-.1l-.6-.4-.5.5c0 .1-.1.1-.2.1s-.1 0-.2-.1a.45.45 0 0 1 0-.5l.5-.6-.6-.5a.45.45 0 0 1 0-.5.45.45 0 0 1 .5 0l.6.6.5-.6a.45.45 0 0 1 .5 0c.1.1.1.3-.1.5zm7.5 1.7l.5-.5-.5-.5a.45.45 0 0 1 0-.5.45.45 0 0 1 .5 0l.5.5.5-.5a.45.45 0 0 1 .5 0 .45.45 0 0 1 0 .5l-.5.5.5.5a.45.45 0 0 1 0 .5c0 .1-.1.1-.2.1s-.1 0-.2-.1l-.5-.5-.5.5c0 .1-.1.1-.2.1s-.1 0-.2-.1c-.1-.2-.1-.4-.2-.5zm2.7-4.39a1.11 1.11 0 0 1 .9 1.29v2.1a.3.3 0 0 1-.6 0v-2.1a.65.65 0 0 0-.6-.6h-13.1a.65.65 0 0 0-.6.6v12.17a.27.27 0 0 1-.3.23h-.08a.27.27 0 0 1-.22-.3v-12.1a1.18 1.18 0 0 1 1-1.2l11.8-2.54a1.13 1.13 0 0 1 1.1.34c.301.289.48.683.5 1.1v1zm-.8-1.11a.61.61 0 0 0-.3-.6 1.235 1.235 0 0 0-.6-.1l-8.6 1.8h9.5zm-9.4 16.7l-.5.5.5.5a.45.45 0 0 1 0 .5c0 .1-.1.1-.2.1s-.1 0-.2-.1l-.6-.5-.5.5c0 .1-.1.1-.2.1s-.1 0-.2-.1a.45.45 0 0 1 0-.5l.5-.5-.5-.5a.45.45 0 0 1 0-.5.45.45 0 0 1 .5 0l.5.5.5-.5a.45.45 0 0 1 .5 0c.1.1.1.3-.1.5zm-2.2-5.84l.3-.3a.45.45 0 0 1 .5 0 .45.45 0 0 1 0 .5l-.4.3.3.3a.45.45 0 0 1 0 .5c0 .1-.1.1-.2.1s-.1 0-.2-.1l-.3-.3-.3.3c0 .1-.1.1-.2.1s-.1 0-.2-.1a.45.45 0 0 1 0-.5l.3-.2-.3-.3a.45.45 0 0 1 0-.5.45.45 0 0 1 .5 0zm11.2-1.16l-.3-.3-.3.3c0 .1-.1.1-.2.1s-.1 0-.2-.1a.45.45 0 0 1 0-.5l.3-.3-.3-.3a.45.45 0 0 1 0-.5.45.45 0 0 1 .5 0l.3.3.3-.3a.45.45 0 0 1 .5 0 .45.45 0 0 1 0 .5l-.4.3.3.3a.45.45 0 0 1 0 .5c0 .1-.1.1-.2.1a.412.412 0 0 0-.3-.1zm-2 7.32a.25.25 0 0 1 0-.32l.5-.5-.5-.5a.356.356 0 0 1-.092-.342c.071-.262.4-.35.592-.158l.5.5.3-.6a.356.356 0 0 1 .342-.092c.262.071.35.4.158.592l-.5.5.5.5a.45.45 0 0 1 0 .5c0 .1-.1.1-.2.1s-.1 0-.2-.1l-.5-.5-.5.5c0 .1-.1.1-.2.1s-.1 0-.2-.1a.122.122 0 0 0 0-.08z"/></svg>