<svg xmlns="http://www.w3.org/2000/svg" viewBox="0 0 24 24"><path d="M6.83 15.09a2.83 2.83 0 112.84-2.83 2.83 2.83 0 01-2.84 2.83zm0-4.66a1.83 1.83 0 101.84 1.83 1.83 1.83 0 00-1.84-1.83zM15.39 10.17a2.84 2.84 0 112.83-2.84 2.84 2.84 0 01-2.83 2.84zm0-4.67a1.84 1.84 0 101.83 1.83 1.83 1.83 0 00-1.83-1.83zM15.39 20a2.83 2.83 0 112.83-2.83A2.83 2.83 0 0115.39 20zm0-4.66a1.83 1.83 0 101.83 1.83 1.83 1.83 0 00-1.83-1.88z"/><path d="M8.91 11.27a.5.5 0 01-.22-.95L13 8.24a.5.5 0 01.67.24.49.49 0 01-.23.66l-4.32 2.08a.54.54 0 01-.21.05zM13.25 16.32a.44.44 0 01-.22-.05l-4.34-2.14a.5.5 0 11.44-.89l4.34 2.14a.49.49 0 01.23.66.5.5 0 01-.45.28z"/></svg>