<svg xmlns="http://www.w3.org/2000/svg" viewBox="0 0 24 24"><path d="M8.92 21.13A1 1 0 0 1 8 20v-8.75a9.82 9.82 0 0 1 .8-4.06 5.09 5.09 0 0 0 .12-1.72.51.51 0 0 1 .08-.39.53.53 0 0 1 .38-.16H14a.51.51 0 0 1 .37.16.52.52 0 0 1 .13.39 5.2 5.2 0 0 0 .13 1.8 9.49 9.49 0 0 1 .8 4V20a1 1 0 0 1-.9 1.1zm1-15.21a5.8 5.8 0 0 1-.2 1.6A8.92 8.92 0 0 0 9 11.25V20a.41.41 0 0 0 0 .14h5.44v-8.89a8.69 8.69 0 0 0-.74-3.66 6.61 6.61 0 0 1-.22-1.67z"/><line x1="8" x2="14.19" y1="3" y2="3"/><path d="M14.19 3.42H8a.42.42 0 0 1 0-.84h6.19a.42.42 0 0 1 0 .84z"/><line x1="13.57" x2="13.57" y1="5.26" y2="3.04"/><path d="M13.57 5.74a.47.47 0 0 1-.48-.48V3A.48.48 0 1 1 14 3v2.26a.47.47 0 0 1-.43.48z"/><g><line x1="9.84" x2="9.84" y1="5.26" y2="3.04"/><path d="M9.84 5.74a.47.47 0 0 1-.47-.48V3a.48.48 0 0 1 .47-.48.49.49 0 0 1 .48.48v2.26a.48.48 0 0 1-.48.48z"/></g></svg>