<svg xmlns="http://www.w3.org/2000/svg" viewBox="0 0 24 24"><defs><clipPath id="a"><path d="M0 0h24v24H0z"/></clipPath></defs><path d="M7.4 17.25A4.51 4.51 0 0 1 4.75 9.1a3.56 3.56 0 0 1 .82-2.16 3.51 3.51 0 0 1 4.54-.71A4.55 4.55 0 0 1 14 4a4.47 4.47 0 0 1 3.18 1.32 4.42 4.42 0 0 1 1.31 3.18v.12a4.5 4.5 0 0 1-1.95 8.55.5.5 0 0 1-.5-.5.5.5 0 0 1 .5-.5 3.49 3.49 0 0 0 1.25-6.76.51.51 0 0 1-.32-.5v-.44A3.51 3.51 0 0 0 16.5 6 3.44 3.44 0 0 0 14 5a3.53 3.53 0 0 0-3.27 2.24.51.51 0 0 1-.8.19l-.11-.1a2.5 2.5 0 0 0-3.51.31 2.5 2.5 0 0 0-.56 1.56v.11a.49.49 0 0 1-.23.47 3.51 3.51 0 0 0 1.88 6.47.5.5 0 0 1 .5.5.5.5 0 0 1-.5.5z"/><path d="M15 14a.54.54 0 0 1-.35-.14L12 11.19l-2.66 2.65a.5.5 0 0 1-.71-.71l3-3a.5.5 0 0 1 .71 0l3 3a.51.51 0 0 1 0 .71.54.54 0 0 1-.34.16z"/><path d="M12 20a.5.5 0 0 1-.5-.5v-9a.5.5 0 0 1 .5-.5.51.51 0 0 1 .5.5v9a.5.5 0 0 1-.5.5z"/></svg>