<svg xmlns="http://www.w3.org/2000/svg" viewBox="0 0 24 24"><defs><clipPath id="a"><path d="M0 0h24v24H0z"/></clipPath></defs><path d="M17.79 18.71H6.6a2 2 0 0 1-2.1-1.94v-6.4a.94.94 0 0 1 .14-.5 1 1 0 0 1 .62-.44 1 1 0 0 1 .74.12l.34.19L8.85 11l3 1.61a.79.79 0 0 0 .73 0l5.76-3.11a.84.84 0 0 1 .54-.15 1 1 0 0 1 1 1v6.37a2 2 0 0 1-2 2zm-11.22-1h11.22a1 1 0 0 0 1-1v-6.34l-.35.24L13 13.53a1.78 1.78 0 0 1-1.68 0l-3-1.61-2.82-1.51v6.34a1 1 0 0 0 .33.69 1 1 0 0 0 .74.27z"/><path d="M17.31 11a.5.5 0 0 1-.5-.5V6.25a.68.68 0 0 0-.54-.76H7.91c-.25 0-.45.33-.45.75v4.22a.5.5 0 0 1-1 0V6.25A1.58 1.58 0 0 1 7.91 4.5h8.44a1.65 1.65 0 0 1 1.45 1.8v4.17a.5.5 0 0 1-.49.53z"/><path d="M15.1 8.06H9.17a.5.5 0 010-1h5.93a.5.5 0 110 1zM15.1 10.32H9.17a.5.5 0 01-.5-.5.5.5 0 01.5-.5h5.93a.51.51 0 01.5.5.5.5 0 01-.5.5z"/></svg>