<svg xmlns="http://www.w3.org/2000/svg" viewBox="0 0 24 24"><path d="M11.92 16.78a.8.8 0 1 0 .79.8.8.8 0 0 0-.79-.8z"/><path d="M15.52 3H8.31A2.38 2.38 0 0 0 6 5.31v12.55a2.32 2.32 0 0 0 2.31 2.31h7.14a2.32 2.32 0 0 0 2.31-2.31V5.31A2.22 2.22 0 0 0 15.63 3zm1.23 2.31v12.55a1.21 1.21 0 0 1-1.21 1.23H8.31a1.22 1.22 0 0 1-1.23-1.21V5.31a1.23 1.23 0 0 1 1.21-1.23h7.16a1.28 1.28 0 0 1 1.3 1.23z"/><path d="M14.66 5.46H9.25a1.36 1.36 0 0 0-1.37 1.36v7.93a1.39 1.39 0 0 0 1.22 1.38h.29a1 1 0 0 0 .94-.93v-2.6c0-.08.07-.22.29-.37a2.26 2.26 0 0 1 1.38-.36h.07a2.45 2.45 0 0 1 1.37.36.82.82 0 0 1 .29.37v2.6a1 1 0 0 0 .87 1h.29a1.35 1.35 0 0 0 1.22-1.38V6.9a1.54 1.54 0 0 0-1.45-1.44zm.65 9.37a.65.65 0 0 1-.65.65h-.07a.3.3 0 0 1-.29-.29v-2.6a1.49 1.49 0 0 0-.51-.93 2.7 2.7 0 0 0-1.8-.51h-.07a2.68 2.68 0 0 0-1.8.51 1 1 0 0 0-.51.86v2.6a.3.3 0 0 1-.29.29h-.07a.65.65 0 0 1-.65-.64V6.83a.65.65 0 0 1 .64-.65h5.42a.64.64 0 0 1 .65.64z"/><path d="M11.92 7.19a1.52 1.52 0 1 0 1.51 1.51A1.47 1.47 0 0 0 12 7.19zm0 2.31a.8.8 0 0 1-.8-.8.8.8 0 0 1 1.59 0 .81.81 0 0 1-.79.8z"/></svg>