<svg xmlns="http://www.w3.org/2000/svg" viewBox="0 0 24 24"><defs><clipPath id="a"><path d="M0 0h24v24H0z"/></clipPath></defs><path d="M4 17.77h-.82A1.74 1.74 0 011.5 16v-3.2A1.75 1.75 0 013.23 11h.92V4.37a.93.93 0 01.62-.81A.5.5 0 015 3.5h5.31a.86.86 0 01.8.56L13.48 11h.92a1.82 1.82 0 011.28.61 1.79 1.79 0 01.45 1.14h2.6a.5.5 0 01.5.5.51.51 0 01-.5.5h-3.1a.5.5 0 01-.5-.5v-.37a.84.84 0 00-.2-.61.79.79 0 00-.55-.27h-1.26a.51.51 0 01-.47-.34L10.22 4.5H5.15v7a.5.5 0 01-.5.5H3.24a.74.74 0 00-.74.73V16a.74.74 0 00.7.79H4a.51.51 0 01.5.5.5.5 0 01-.5.48zM14.39 17.87h-.71a.51.51 0 01-.5-.5.5.5 0 01.5-.5h.71a.74.74 0 00.74-.74.55.55 0 01.5-.55h3.1a.5.5 0 01.5.5.5.5 0 01-.5.5h-2.67a1.73 1.73 0 01-1.67 1.29z"/><path d="M15.13 13.22h1v2.86h-1zM7.4 16.87h2.57v1H7.4zM12.92 12H3.68a.51.51 0 01-.5-.5.5.5 0 01.5-.5h9.24a.5.5 0 01.5.5.5.5 0 01-.5.5z"/><path d="M5.63 19.71a2.16 2.16 0 010-4.32 2.16 2.16 0 010 4.32zm0-3.32a1.16 1.16 0 000 2.32 1.16 1.16 0 000-2.32zM11.73 19.71a2.16 2.16 0 112.1-2.16 2.13 2.13 0 01-2.1 2.16zm0-3.32a1.16 1.16 0 101.1 1.16 1.13 1.13 0 00-1.1-1.16zM22 18.79h-3.77V4.55a.5.5 0 01.5-.5.51.51 0 01.5.5v13.24H22a.5.5 0 01.5.5.5.5 0 01-.5.5z"/></svg>