<svg xmlns="http://www.w3.org/2000/svg" viewBox="0 0 24 24"><path d="M12 19.18a9.69 9.69 0 0 1-4-.86.5.5 0 0 1-.26-.66.51.51 0 0 1 .66-.25 8.79 8.79 0 0 0 3.6.77 9 9 0 0 0 8.38-5.87 1.38 1.38 0 0 0 0-.94A9 9 0 0 0 18.08 8a.5.5 0 0 1 .69-.73A10.31 10.31 0 0 1 21.28 11a2.43 2.43 0 0 1 0 1.64A10 10 0 0 1 12 19.18zm-6.41-2.51a.48.48 0 0 1-.34-.14 10.11 10.11 0 0 1-2.6-3.87 2.32 2.32 0 0 1 0-1.64A10 10 0 0 1 12 4.5a10 10 0 0 1 4.13.91.49.49 0 0 1 .24.66.51.51 0 0 1-.66.25A8.84 8.84 0 0 0 12 5.5a9 9 0 0 0-8.37 5.87 1.27 1.27 0 0 0 0 .94 9.08 9.08 0 0 0 2.3 3.49.5.5 0 0 1 0 .71.52.52 0 0 1-.34.16z"/><path d="M8.45 13.78a.51.51 0 0 1-.45-.31 4.24 4.24 0 0 1 .07-3.26A4.19 4.19 0 0 1 10.4 8a4.25 4.25 0 0 1 3.08 0 .5.5 0 1 1-.37.93 3.24 3.24 0 0 0-4.19 4.17.5.5 0 0 1-.29.65zm3.49 2.39a4.11 4.11 0 0 1-1.57-.31.49.49 0 0 1-.28-.64.5.5 0 0 1 .65-.29 3.24 3.24 0 0 0 2.41 0A3.25 3.25 0 0 0 15 10.71a.5.5 0 1 1 .93-.38 4.26 4.26 0 0 1-2.37 5.53 4.32 4.32 0 0 1-1.62.31zm-6.38 2.56a.52.52 0 0 1-.35-.14.5.5 0 0 1 0-.71L17.93 5.16a.5.5 0 0 1 .71 0 .51.51 0 0 1 0 .71L5.91 18.59a.5.5 0 0 1-.35.14z"/></svg>