<svg xmlns="http://www.w3.org/2000/svg" viewBox="0 0 24 24"><defs><clipPath id="a"><path d="M0 0h24v24H0z"/></clipPath></defs><path d="M12.34 21.5a9.5 9.5 0 0 1-8.35-5 .5.5 0 0 1 .88-.48 8.51 8.51 0 1 0-.16-7.78.5.5 0 0 1-.71.26.49.49 0 0 1-.23-.66 9.49 9.49 0 1 1 17.07 8.32 9.5 9.5 0 0 1-8.54 5.34z"/><path d="M4 8.5a.47.47 0 0 1-.35-.15.46.46 0 0 1-.14-.43l1-6a.5.5 0 0 1 1 .16l-.9 5.31 5.31-.88a.5.5 0 0 1 .57.41.49.49 0 0 1-.41.57l-6 1z"/><g><path d="M11.26 13.09a.5.5 0 0 1-.5-.5v-4a.5.5 0 0 1 1 0v4a.5.5 0 0 1-.5.5z"/><path d="M14.09 15.91a.5.5 0 0 1-.36-.14l-2.82-2.83a.5.5 0 0 1 0-.71.5.5 0 0 1 .7 0l2.83 2.83a.5.5 0 0 1 0 .71.47.47 0 0 1-.35.14z"/></g></svg>