<svg xmlns="http://www.w3.org/2000/svg" viewBox="0 0 24 24"><path d="M4.6 19.42a2.13 2.13 0 0 1-2.1-2.1V9.022a.353.353 0 0 1 0-.046V6.6a2.13 2.13 0 0 1 2.1-2.1h14.8a2.13 2.13 0 0 1 2.1 2.1v10.72a2.24 2.24 0 0 1-2.17 2.1zM19.4 5.5H4.6a1.11 1.11 0 0 0-1.1 1.1v1.9h16.89c.038 0 .075.004.11.012V6.6a1.11 1.11 0 0 0-1.1-1.1zM3.5 17.32a1.11 1.11 0 0 0 1.1 1.1h14.71a1.23 1.23 0 0 0 1.19-1.14V9.488a.508.508 0 0 1-.11.012H3.5zm14.8-5.42H5.7a.51.51 0 0 1-.5-.5.5.5 0 0 1 .5-.5h12.6a.5.5 0 0 1 .5.5.51.51 0 0 1-.5.5zm-6.22 2.48H5.36a.5.5 0 0 1 0-1h6.72a.5.5 0 0 1 0 1z"/></svg>