<svg xmlns="http://www.w3.org/2000/svg" viewBox="0 0 24 24"><path d="M9.752 21.467a1.856 1.856 0 0 1-1.34-.56l-5.36-5.35a1.91 1.91 0 0 1 0-2.69l9.56-9.56a1.838 1.838 0 0 1 1.21-.55l3.17-.22a1.928 1.928 0 0 1 1.47.56l2.53 2.46c.372.398.555.938.5 1.48l-.28 3.09a1.86 1.86 0 0 1-.55 1.18l-9.57 9.6a1.848 1.848 0 0 1-1.34.56zm7.37-17.93h-.06l-3.17.21a.925.925 0 0 0-.58.27l-9.56 9.56a.91.91 0 0 0 0 1.28l5.36 5.35a.882.882 0 0 0 .63.26.927.927 0 0 0 .64-.26l9.61-9.57a.883.883 0 0 0 .27-.56l.27-3.1a.872.872 0 0 0-.26-.71l-2.51-2.47a.901.901 0 0 0-.64-.26zm.18 4.64a1.52 1.52 0 0 1-1.331-2.271 1.52 1.52 0 1 1 1.331 2.271zm0-2a.52.52 0 1 0 .51.51.51.51 0 0 0-.51-.54z"/></svg>