<svg xmlns="http://www.w3.org/2000/svg" viewBox="0 0 24 24"><defs><clipPath id="a"><rect width="24" height="24"/></clipPath></defs><path d="M11.68 22a7.09 7.09 0 0 1-3.45-.91C6.38 19.65 6 17.45 7.17 15a1.6 1.6 0 0 0 0-1.25 3.72 3.72 0 0 1 0-2.65 3.52 3.52 0 0 1 .17-.39 8.34 8.34 0 0 1 1-1.65l.5-.62h7l.15.17a9.35 9.35 0 0 1 2.27 5.88c.13 3.24-.85 5.81-2.62 6.88a7.82 7.82 0 0 1-3.46.62zM9.34 9.42l-.21.26a8.21 8.21 0 0 0-.93 1.46c0 .1-.09.2-.12.3a2.76 2.76 0 0 0 0 2 2.56 2.56 0 0 1-.06 2c-1 2-.7 3.75.71 4.88a6.26 6.26 0 0 0 3.39.72 7 7 0 0 0 3-.52c1.4-.85 2.21-3.09 2.09-6a8.45 8.45 0 0 0-1.9-5.12z"/><path d="M15.47 6.51l-.88-.14a3.25 3.25 0 0 0 0-.44 2.27 2.27 0 0 0-.5-1.68 2.22 2.22 0 0 0-1.52-.8 2.23 2.23 0 0 0-2.45 2v.15a1.4 1.4 0 0 0 0 .29 2.25 2.25 0 0 0 0 .46l-.88.14a3.66 3.66 0 0 1-.05-.57 2.16 2.16 0 0 1 0-.36 1.28 1.28 0 0 1 0-.19 3.14 3.14 0 0 1 1.12-2.12A3.14 3.14 0 0 1 15.51 6a3.49 3.49 0 0 1-.04.51z"/><path d="M14.73 9.37H10a1.55 1.55 0 1 1 0-3.09h4.69a1.55 1.55 0 1 1 0 3.09zM10 7.17a.66.66 0 0 0 0 1.32h4.69a.66.66 0 0 0 0-1.32z"/></svg>