<svg xmlns="http://www.w3.org/2000/svg" viewBox="0 0 24 24"><path d="M11.868 9.194a.85.85 0 0 1-1.69 0 .85.85 0 0 1 .85-.85c.46 0 .835.37.84.83zm4.55 0a.85.85 0 0 1-1.69 0 .85.85 0 0 1 .85-.85.8.8 0 0 1 .84.76zm-8.09 11.51a2.1 2.1 0 0 1-1.894-2.983 6.077 6.077 0 0 1-.596-.247 7.477 7.477 0 0 1-3.2-2.42.51.51 0 0 1-.06-.1 1.151 1.151 0 0 1-.1-.48c0-.077.021-.153.06-.22a.74.74 0 0 1 .71-.47c1.32 0 1.6-.76 1.77-3 .023-.497.079-.991.17-1.48.68-3.52 4.07-5.52 6.93-5.95a8.679 8.679 0 0 1 8 3.37 6.998 6.998 0 0 1 1 6.55 7.91 7.91 0 0 1-3.959 4.354c.506.941.241 2.208-.796 2.806a2.09 2.09 0 0 1-1.055.28v-.01a2.12 2.12 0 0 1-2.079-2.048 8.031 8.031 0 0 1-1.411.128 7.967 7.967 0 0 1-1.397-.126 2.079 2.079 0 0 1-.283 1.001 2.088 2.088 0 0 1-1.81 1.045zm0-4.18c.809 0 1.465.44 1.816 1.055a6.857 6.857 0 0 0 3.362-.003c.548-.943 1.802-1.371 2.857-.762a.419.419 0 0 1 .028.017 6.902 6.902 0 0 0 3.747-3.937 6.11 6.11 0 0 0-.84-5.62 7.709 7.709 0 0 0-7-3c-2.56.41-5.54 2.18-6.13 5.22-.094.449-.157.903-.19 1.36-.12 1.66-.27 3.67-2.3 3.94a6.408 6.408 0 0 0 2.51 1.76c.304.145.621.258.948.338a2.07 2.07 0 0 1 1.192-.368zm-1.09 2.09a1.09 1.09 0 1 0 2.17 0 1.08 1.08 0 0 0-1.08-1.09 1.09 1.09 0 0 0-1.09 1.09zm6.99-.01a1.13 1.13 0 0 0 1.1 1.1 1.09 1.09 0 0 0 .763-1.86.505.505 0 0 1-.16-.134 1.093 1.093 0 0 0-1.703.894zm-.91-4.15a3.69 3.69 0 0 1-3.51-2.51.5.5 0 0 1 .94-.32 2.71 2.71 0 0 0 2.57 1.83 2.77 2.77 0 0 0 2.66-1.84.49.49 0 0 1 .64-.3.5.5 0 0 1 .3.64 3.77 3.77 0 0 1-3.54 2.5z"/></svg>