<svg xmlns="http://www.w3.org/2000/svg" viewBox="0 0 24 24"><path d="M13.48 12.845a.5.5 0 0 1-.35-.86l3.846-3.811-11.171-.149a.502.502 0 0 1-.485-.51.461.461 0 0 1 .533-.49l11.064.111-3.787-3.761a.5.5 0 1 1 .7-.7l4.7 4.65a.551.551 0 0 1 .15.36.511.511 0 0 1-.15.35l-4.71 4.66a.486.486 0 0 1-.34.15zm-2.96 8.68a.507.507 0 0 1-.36-.15l-4.7-4.65a.545.545 0 0 1-.14-.36.5.5 0 0 1 .14-.34l4.7-4.66a.502.502 0 0 1 .71.71l-3.825 3.79h11.096c.377 0 .611.417.424.75a.487.487 0 0 1-.424.25H7.023l3.847 3.82a.49.49 0 0 1-.35.84z"/></svg>