<svg xmlns="http://www.w3.org/2000/svg" viewBox="0 0 24 24"><path d="M12.055 16.055a4 4 0 1 1 4-4 4 4 0 0 1-1.17 2.85 4 4 0 0 1-2.83 1.15zm-3.2-4c.046 2.455 2.733 3.94 4.836 2.672 2.103-1.268 2.046-4.337-.104-5.524a3.194 3.194 0 0 0-1.532-.398 3.19 3.19 0 0 0-3.24 3.25zm3.2-5.2a.46.46 0 0 1-.46-.46v-3.34a.46.46 0 0 1 .46-.46.47.47 0 0 1 .46.46v3.34a.47.47 0 0 1-.46.46zm0 14.55a.45.45 0 0 1-.46-.46v-3.34a.46.46 0 0 1 .46-.46.47.47 0 0 1 .46.46v3.34a.46.46 0 0 1-.46.46zm-5.66-8.94h-3.34a.47.47 0 0 1 0-.93h3.34a.47.47 0 0 1 0 .93zm14.55 0h-3.34a.47.47 0 0 1 0-.93h3.34a.47.47 0 0 1 0 .93zm-15.3 6.36a.47.47 0 0 1-.32-.14.46.46 0 0 1 0-.65l2.35-2.36a.49.49 0 0 1 .66 0 .47.47 0 0 1 0 .66l-2.36 2.35a.47.47 0 0 1-.33.14zm10.35-10.34a.47.47 0 0 1-.33-.14.46.46 0 0 1 0-.65l2.39-2.36a.46.46 0 1 1 .65.65l-2.39 2.36a.47.47 0 0 1-.32.14zm-7.94-.01a.44.44 0 0 1-.32-.13l-2.41-2.36a.46.46 0 0 1 .65-.65l2.36 2.36a.46.46 0 0 1-.213.768c-.022.005-.044.01-.067.012zm10.3 10.35a.47.47 0 0 1-.33-.14l-2.36-2.36a.46.46 0 0 1 0-.65.469.469 0 0 1 .66 0l2.35 2.38a.46.46 0 0 1 0 .65.452.452 0 0 1-.32.12z"/></svg>