<svg xmlns="http://www.w3.org/2000/svg" viewBox="0 0 24 24"><defs><clipPath id="a"><path d="M0 0h24v24H0z"/></clipPath></defs><path d="M9.26 5.62A14.63 14.63 0 006.49 4l-.34-.1-.15.3A13.83 13.83 0 004.48 7a9.39 9.39 0 00-.54 6.07 9.5 9.5 0 003.74 4.8 14.58 14.58 0 002.77 1.58l.34.14.21-.29a15.37 15.37 0 001.47-2.85 9.52 9.52 0 00.53-6.04 9.42 9.42 0 00-3.74-4.79zM10.77 18l-1.86-6.37a.46.46 0 00-.57-.31.46.46 0 00-.3.57H8l1.87 6.32c-1.47-.78-4.28-2.6-5.1-5.37a8.68 8.68 0 01.5-5.46A14.35 14.35 0 016.49 5a14.36 14.36 0 012.26 1.38 8.66 8.66 0 013.39 4.31 8.72 8.72 0 01-.5 5.45 14.3 14.3 0 01-.86 1.86zM20.43 9.31L20.29 9h-.36c-.17 0-4.09.76-5.62 3.56s0 6.5.06 6.65l.14.34.36-.07a6.8 6.8 0 00.89-.22A7.9 7.9 0 0020.49 16c1.51-2.85.01-6.54-.06-6.69zm-2.81 4.58a.44.44 0 00-.61.17l-2.12 3.87a7 7 0 01.22-4.9c1.07-2 3.65-2.78 4.61-3 .32.94 1 3.55 0 5.51a6.9 6.9 0 01-4 2.85l2.11-3.87a.46.46 0 00-.17-.62z"/></svg>