<svg xmlns="http://www.w3.org/2000/svg" viewBox="0 0 24 24"><path d="M12.007 21.55c-7.352 0-11.946-7.958-8.271-14.325 3.676-6.367 12.866-6.367 16.542 0A9.553 9.553 0 0 1 21.557 12a9.56 9.56 0 0 1-9.55 9.55zm0-18c-6.505 0-10.57 7.042-7.318 12.675 3.252 5.633 11.384 5.633 14.636 0A8.448 8.448 0 0 0 20.457 12a8.46 8.46 0 0 0-8.45-8.45zm0 10.55a.5.5 0 0 1-.5-.5 3.828 3.828 0 0 1 1.64-3.07c.62-.56 1-.93 1-1.58a2.19 2.19 0 0 0-2.14-2.2 2.16 2.16 0 0 0-2.2 1.95.51.51 0 0 1-.55.45.5.5 0 0 1-.45-.55 3.15 3.15 0 0 1 3.2-2.85A3.18 3.18 0 0 1 15.157 9a3.06 3.06 0 0 1-1.35 2.33 2.87 2.87 0 0 0-1.3 2.32.5.5 0 0 1-.5.45zm0 1.9a.795.795 0 0 1 .8.8.8.8 0 1 1-1.513-.364l.037-.065a.795.795 0 0 1 .676-.371z"/></svg>