<svg xmlns="http://www.w3.org/2000/svg" viewBox="0 0 24 24"><path d="M12.988 3.381l2.152 4.281.004-.002.051.007 4.801.661c.343.09.719.372.831.648.112.275.038.74-.146 1.043-.033.041-.066.08-.105.117l-3.482 3.394.01.058.812 4.773c.021.354-.131.801-.359.993-.228.193-.704.263-1.05.183a1.426 1.426 0 0 1-.124-.056l-4.261-2.188c-.064-.051-.023-.064-.087-.012l-4.277 2.195c-.33.131-.803.127-1.057-.03-.254-.156-.469-.575-.502-.929.003-.052.008-.108.015-.154l.809-4.672c.03-.085.028-.087-.043-.146l-.044-.038-3.383-3.289c-.23-.27-.377-.718-.311-1.008.066-.29.403-.632.727-.776a1.56 1.56 0 0 1 .156-.033l4.801-.661c.08.014.044.059.062-.021l2.125-4.291c.159-.299.505-.595.786-.64.28-.046.702.125.947.359.06.08.106.15.142.234zm-.913.403V3.77a.069.069 0 0 1-.017.005l-.013.001.002.008-2.163 4.379c-.172.242-.534.503-.824.568l-4.799.66c-.002 0-.002 0-.001-.001l-.007.003a.145.145 0 0 1-.042-.014c.004.003.014.018.006.054-.008.034-.023.043-.029.045.005 0 .018 0 .045.006l3.488 3.392.031.03.012.017c.159.231.265.599.253.882L7.2 18.533c-.002.006-.002.001-.002-.002-.043.073-.037.024.027.064.066.04.011.074.057.001l4.297-2.205c.266-.094.681-.107.947-.012l4.313 2.212c.006.004.002.004.017.009.057.065-.002.039.056-.01.059-.05.074.013.02-.055l-.812-4.766.022.075c-.05-.173-.068-.43-.021-.591.046-.162.198-.369.332-.49l-.063.056 3.488-3.399c.005-.003.006-.002.009-.008.079-.033.042.01.014-.06-.014-.034-.006-.05-.003-.055a.116.116 0 0 1-.04.021l-4.235-.583-.509-.073a1.4 1.4 0 0 1-.886-.588l-2.134-4.243c-.004-.02-.01-.042-.019-.047z"/></svg>