<svg xmlns="http://www.w3.org/2000/svg" viewBox="0 0 24 24"><path d="M14.94 9.42l-.31-.1V7.23l1.85-1a.51.51 0 0 0 .26-.44V3a.5.5 0 0 0-.5-.5H8a.5.5 0 0 0-.5.5v2.75a.52.52 0 0 0 .25.44l1.86 1v2a4.2 4.2 0 0 0-1.36.56 7.64 7.64 0 0 0-4.78 7.08V21a.5.5 0 0 0 .5.5h16.3a.5.5 0 0 0 .5-.5v-4.16a7.66 7.66 0 0 0-5.83-7.42zm3 6.67a1.14 1.14 0 0 1-1.13 1.13A1.16 1.16 0 0 1 15.67 16l-.91-5.58c2.53 1.25 3.18 5.67 3.18 5.67zm-3.27 0a1.13 1.13 0 1 1-2.26 0v-5.9H13.71zM13.6 7.44v1.75h-3V7.44h3zm-2.49-1v-1.5h2v1.5zm-2.64-1v-2h7.27v2l-1.64.93V4.44a.5.5 0 0 0-.5-.5h-3a.5.5 0 0 0-.5.5v1.95zm1.62 4.82a6.64 6.64 0 0 1 1-.09h.32v5.9a1.14 1.14 0 0 1-2.27 0zm-1.41.37l.32-.11-.9 5.57a1.14 1.14 0 0 1-2.27 0c.1-.37.73-4.04 2.85-5.44zm-4.24 6.21a6.62 6.62 0 0 1 1.36-4 13.33 13.33 0 0 0-.93 3.26 1.1 1.1 0 0 1-.43.86zm15.33 3.66H4.44v-2.41a2.14 2.14 0 0 0 .93-.63 2.11 2.11 0 0 0 1.63.76 2.14 2.14 0 0 0 1.64-.77 2.11 2.11 0 0 0 1.63.77 2.15 2.15 0 0 0 1.64-.78 2.09 2.09 0 0 0 3.26 0 2.12 2.12 0 0 0 3.27 0 2.15 2.15 0 0 0 1.33.73zm0-3.34a1.15 1.15 0 0 1-.83-1V16a12.89 12.89 0 0 0-1.41-4.14 6.63 6.63 0 0 1 2.24 5z"/></svg>