<svg xmlns="http://www.w3.org/2000/svg" viewBox="0 0 24 24"><path d="M11.69 17.27a.9.9 0 1 0 .9.9.87.87 0 0 0-.85-.9z"/><path d="M15.17 4H8.22A2.3 2.3 0 0 0 6 6.29v12.09a2.31 2.31 0 0 0 2.29 2.3h7a2.31 2.31 0 0 0 2.29-2.3V6.29A2.41 2.41 0 0 0 15.17 4zm1.18 2.29v12.09a1.16 1.16 0 0 1-1.16 1.18H8.22A1.17 1.17 0 0 1 7 18.4V6.29a1.18 1.18 0 0 1 1.2-1.18h7a1.1 1.1 0 0 1 1.18 1 .43.43 0 0 1-.03.18z"/><path d="M11.21 10.05h1a.3.3 0 0 0 .28-.28v-1a.3.3 0 0 0-.28-.28h-1a.3.3 0 0 0-.28.28v1a.31.31 0 0 0 .28.28z"/><path d="M15.1 8.52h-1a.3.3 0 0 0-.28.28v1a.3.3 0 0 0 .28.28h1a.3.3 0 0 0 .28-.28v-1a.3.3 0 0 0-.28-.28z"/><path d="M9.33 8.52h-1a.3.3 0 0 0-.28.28v1a.3.3 0 0 0 .28.28h1a.3.3 0 0 0 .28-.28v-1a.44.44 0 0 0-.28-.28z"/><path d="M11.21 12.62h1a.3.3 0 0 0 .28-.28v-1a.3.3 0 0 0-.28-.28h-1a.3.3 0 0 0-.28.28v1a.3.3 0 0 0 .28.28z"/><path d="M15.1 11.09h-1a.3.3 0 0 0-.28.28v1a.3.3 0 0 0 .28.28h1a.3.3 0 0 0 .28-.28v-1a.31.31 0 0 0-.28-.28z"/><path d="M9.33 11.09h-1a.3.3 0 0 0-.28.28v1a.3.3 0 0 0 .28.28h1a.3.3 0 0 0 .28-.28v-1a.61.61 0 0 0-.28-.28z"/><path d="M11.21 15.19h1a.3.3 0 0 0 .28-.28v-1a.3.3 0 0 0-.28-.28h-1a.3.3 0 0 0-.28.28v1a.26.26 0 0 0 .23.28z"/><path d="M9.33 13.66h-1a.3.3 0 0 0-.28.28v1a.3.3 0 0 0 .28.28h1a.3.3 0 0 0 .35-.22v-1a.46.46 0 0 0-.35-.34z"/></svg>