<svg xmlns="http://www.w3.org/2000/svg" viewBox="0 0 24 24"><path d="M12.21 6.07a.468.468 0 0 1-.35-.15.355.355 0 0 1-.11-.16.407.407 0 0 1 0-.19.435.435 0 0 1 0-.19.355.355 0 0 1 .11-.16.309.309 0 0 1 .14-.11.5.5 0 0 1 .38 0 .355.355 0 0 1 .16.11.511.511 0 0 1 .15.35c.01.063.01.127 0 .19a.355.355 0 0 1-.29.24.434.434 0 0 1-.19.07zM7.38 10.9a.5.5 0 0 1-.5-.5 5.34 5.34 0 0 1 3.92-5.14.518.518 0 0 1 .27 1 4.35 4.35 0 0 0-3.19 4.14.5.5 0 0 1-.5.5zm-4.26-.5a.5.5 0 0 1 1 0 8.09 8.09 0 0 0 8.09 8.08 8.08 8.08 0 0 0 8.08-8.08.5.5 0 0 1 1 0 9.092 9.092 0 0 1-8.58 9.066v.674h5.03a.5.5 0 0 1 0 1H6.67a.51.51 0 0 1-.5-.5.5.5 0 0 1 .5-.5h5.04v-.674A9.09 9.09 0 0 1 3.12 10.4zm9.09 7.31c-5.627 0-9.144-6.092-6.331-10.965 2.814-4.873 9.848-4.873 12.662 0a7.315 7.315 0 0 1 .979 3.655 7.32 7.32 0 0 1-7.31 7.31zm0-13.62c-4.857 0-7.893 5.258-5.465 9.465 2.429 4.207 8.501 4.207 10.93 0a6.316 6.316 0 0 0 .845-3.155 6.32 6.32 0 0 0-6.31-6.31z"/></svg>