<svg xmlns="http://www.w3.org/2000/svg" viewBox="0 0 24 24"><defs><clipPath id="a"><path d="M0 0h24v24H0z"/></clipPath></defs><path d="M5.45 17.35a1 1 0 01-.67-.27 1 1 0 01-.28-.67V9.6a1 1 0 01.94-.95H7.3a.94.94 0 011 .94l.05 6.76a1 1 0 01-.28.67.91.91 0 01-.67.28zm1.8-7.75l-1.8.05v6.75h1.8zM15.21 18.85h-3.16a1.83 1.83 0 01-.88-.28l-1.91-1.36a.52.52 0 01-.21-.41V9.1a.5.5 0 01.5-.5 1 1 0 001.05-1V4.1a1 1 0 01.28-.68 1 1 0 01.67-.27 3.3 3.3 0 013.3 3.25v2.2h1.45a3.21 3.21 0 012.13.83 3.17 3.17 0 01.84 3.33l-1.86 4.53a2.31 2.31 0 01-2.2 1.56zm-5.16-2.31l1.69 1.2a.72.72 0 00.34.11h3.13a1.33 1.33 0 001.27-.91l1.86-4.53a2.19 2.19 0 00-.58-2.25 2.23 2.23 0 00-1.46-.56h-2a.5.5 0 01-.5-.5V6.4a2.28 2.28 0 00-2.26-2.25l.06 3.45a2 2 0 01-1.55 2z"/></svg>