<svg xmlns="http://www.w3.org/2000/svg" viewBox="0 0 24 24"><path d="M10.395 21.495a2.003 2.003 0 0 1-1.49-.7c-1.53-1.67-2.46-6.38-2.5-12.65a.479.479 0 0 1 .15-.36.511.511 0 0 1 .35-.15h1.661l.219-1.55a.51.51 0 0 1 .5-.42h.36v-2.66a.5.5 0 0 1 .5-.5h3.7a.5.5 0 0 1 .5.5v2.66h.36a.49.49 0 0 1 .49.42l.219 1.55h1.681a.511.511 0 0 1 .5.51c-.05 6.34-1 11-2.48 12.66-.38.438-.93.69-1.51.69zm-3-12.86c.11 6.78 1.22 10.37 2.23 11.5a1 1 0 0 0 .77.36h3.21c.292 0 .57-.128.76-.35 1-1.14 2.12-4.75 2.22-11.51zm5.95-5.13h-2.7v2.16h2.7zm.92 3.16h-4.098a.353.353 0 0 1-.046 0h-.396l-.138.97h4.816z"/></svg>