<svg xmlns="http://www.w3.org/2000/svg" viewBox="0 0 24 24"><defs><clipPath id="a"><rect width="24" height="24"/></clipPath></defs><path d="M12 22.5A10.5 10.5 0 1 1 22.5 12 10.51 10.51 0 0 1 12 22.5zm0-20a9.5 9.5 0 1 0 9.5 9.5A9.51 9.51 0 0 0 12 2.5z"/><circle cx="12" cy="12" r="1.5"/><path d="M12 13.5a1.5 1.5 0 1 1 1.5-1.5 1.5 1.5 0 0 1-1.5 1.5zm0-2a.5.5 0 1 0 .5.5.5.5 0 0 0-.5-.5z"/><g><path d="M18.41 11.48a.5.5 0 0 1-.49-.42 6 6 0 0 0-11.84 0 .5.5 0 0 1-1-.16 7 7 0 0 1 13.82 0 .51.51 0 0 1-.42.57z"/><path d="M18.41 11.5a.47.47 0 0 1-.3-.1l-2-1.49a.51.51 0 0 1-.1-.7.5.5 0 0 1 .7-.1l1.47 1.09.64-1.72a.5.5 0 1 1 .93.35l-.87 2.34a.49.49 0 0 1-.33.31z"/><path d="M12 19a7 7 0 0 1-6.91-5.9.5.5 0 0 1 1-.16 6 6 0 0 0 11.84 0 .5.5 0 0 1 .57-.41.51.51 0 0 1 .42.57 7 7 0 0 1-5.82 5.81A6.77 6.77 0 0 1 12 19z"/><path d="M4.69 15.85h-.18a.5.5 0 0 1-.29-.65l.91-2.33a.47.47 0 0 1 .33-.3.5.5 0 0 1 .44.09l2 1.52a.5.5 0 1 1-.61.79l-1.47-1.15-.67 1.71a.48.48 0 0 1-.46.32z"/></g></svg>