<svg xmlns="http://www.w3.org/2000/svg" viewBox="0 0 24 24"><path d="M11.89 13.866h.183a2.47 2.47 0 0 0 2.314-2.606V5.114c-.118-1.981-2.338-3.091-3.995-1.999a2.584 2.584 0 0 0-1.154 1.999v6.164a2.653 2.653 0 0 0 2.652 2.588zm0 .914a3.575 3.575 0 0 1-3.566-3.493V5.114C8.461 2.429 11.455.9 13.712 2.361a3.496 3.496 0 0 1 1.589 2.753v6.081a3.375 3.375 0 0 1-3.173 3.576h-.238zm.467 6.511h3.932a.458.458 0 0 1 0 .914H7.437a.457.457 0 1 1 0-.914h4.005v-3.855a6.404 6.404 0 0 1-5.843-6.332V8.16a.458.458 0 1 1 .914 0v2.944a5.486 5.486 0 0 0 5.441 5.441h.101c3 0 5.432-2.432 5.432-5.432V8.16a.457.457 0 1 1 .914 0v2.953a6.356 6.356 0 0 1-6.044 6.339z"/></svg>