<svg xmlns="http://www.w3.org/2000/svg" viewBox="0 0 24 24"><path d="M11.95 16.93a.87.87 0 0 1 .85.9.9.9 0 1 1-.9-.9zm5.84-10.98v12.09a2.31 2.31 0 0 1-2.29 2.3h-7a2.31 2.31 0 0 1-2.29-2.3V5.95a2.3 2.3 0 0 1 2.22-2.29h6.95a2.41 2.41 0 0 1 2.41 2.29zm-1.2-.18a1.1 1.1 0 0 0-1.18-1h-7a1.18 1.18 0 0 0-1.2 1.18v12.11a1.17 1.17 0 0 0 1.22 1.16h6.97a1.16 1.16 0 0 0 1.16-1.18V5.95a.427.427 0 0 0 .03-.18zm-5.45 3.66v-1c.01-.15.13-.27.28-.28h1c.15.01.27.13.28.28v1c-.01.15-.13.27-.28.28h-1a.31.31 0 0 1-.28-.28zm4.45-.97v1c-.01.15-.13.27-.28.28h-1a.301.301 0 0 1-.28-.28v-1c.01-.15.13-.27.28-.28h1c.15.01.27.13.28.28zm-5.77 0v1c-.01.15-.13.27-.28.28h-1a.301.301 0 0 1-.28-.28v-1c.01-.15.13-.27.28-.28h1a.443.443 0 0 1 .28.28zM11.14 12v-1c.01-.15.13-.27.28-.28h1c.15.01.27.13.28.28v1c-.01.15-.13.27-.28.28h-1a.301.301 0 0 1-.28-.28zm4.45-.97v1c-.01.15-.13.27-.28.28h-1a.301.301 0 0 1-.28-.28v-1c.01-.15.13-.27.28-.28h1a.31.31 0 0 1 .28.28zm-5.77 0v1c-.01.15-.13.27-.28.28h-1a.301.301 0 0 1-.28-.28v-1c.01-.15.13-.27.28-.28h1c.122.06.22.158.28.28zm1.55 3.82a.26.26 0 0 1-.23-.28v-1c.01-.15.13-.27.28-.28h1c.15.01.27.13.28.28v1c-.01.15-.13.27-.28.28zm-1.48-1.19v1a.3.3 0 0 1-.35.22h-1a.301.301 0 0 1-.28-.28v-1c.01-.15.13-.27.28-.28h1a.46.46 0 0 1 .35.34z"/></svg>