<svg xmlns="http://www.w3.org/2000/svg" viewBox="0 0 19.06 17.12"><defs><clipPath id="a" transform="translate(-2.01 -3.01)"><path d="M0 0h24v24H0z"/></clipPath></defs><g clip-path="url(#a)"><path d="M16.27 16.21h-6.8v-1h6.8a1.81 1.81 0 0 0 1.8-1.8v-9.5a1.8 1.8 0 0 0-1.8-1.8h-2.28v-1h2.3a2.8 2.8 0 0 1 2.8 2.8v9.5a2.81 2.81 0 0 1-2.82 2.8zM5.6 2.58l-.67-.74a2.77 2.77 0 0 1 2-.73h.79v1h-.8a1.81 1.81 0 0 0-1.32.47z"/><path d="M5.24 17.12a2.82 2.82 0 0 1-2.71-2.08L.1 5.99a2.81 2.81 0 0 1 2-3.43L11.18.13a2.81 2.81 0 0 1 3.43 2l2.38 9.03a2.82 2.82 0 0 1-2 3.43l-9 2.4a2.55 2.55 0 0 1-.75.13zM11.88.99a1.47 1.47 0 0 0-.46.07L2.34 3.5a1.8 1.8 0 0 0-1.27 2.2l2.43 9.08a1.8 1.8 0 0 0 2.21 1.28l9.07-2.44a1.79 1.79 0 0 0 1.28-2.2l-2.44-9.08A1.79 1.79 0 0 0 11.88.99z"/><path d="M12.76 12.99a.37.37 0 0 1-.18-.05.38.38 0 0 1-.18-.23l-.7-2.61a.38.38 0 0 1 .27-.46l1.93-.52a.34.34 0 0 1 .28 0 .38.38 0 0 1 .18.23l.44 1.64a1.3 1.3 0 0 1-.14 1 1.38 1.38 0 0 1-.83.65l-1 .25zm-.24-2.72l.47 1.86.6-.16a.62.62 0 0 0 .38-.29.56.56 0 0 0 .06-.47l-.34-1.28z"/><path d="M13.77 9.88a.37.37 0 0 1-.36-.27l-.4-1.4-.75.26a.38.38 0 0 1-.19-.73l.8-.2a.8.8 0 0 1 .82.38l.44 1.48a.39.39 0 0 1-.26.47z"/><path d="M13.07 8.18a.38.38 0 0 1-.36-.26l-.32-1-.26.26a.375.375 0 0 1-.53-.53l.7-.7a.39.39 0 0 1 .36-.1.38.38 0 0 1 .26.25l.5 1.61a.37.37 0 0 1-.24.47zm-7.7-3.5a.38.38 0 0 1-.38-.28.37.37 0 0 1 .28-.41l3.4-.91a.38.38 0 1 1 .19.73l-3.4.9z"/><path d="M6.37 5.08a.38.38 0 0 1-.38-.25l-.2-.6a.39.39 0 0 1 .26-.49l2.3-.6a.4.4 0 0 1 .3 0 .39.39 0 0 1 .17.26l.1.6a.39.39 0 0 1-.31.43.38.38 0 0 1-.43-.31v-.2l-1.51.4.07.22a.37.37 0 0 1-.23.47.25.25 0 0 1-.14.07zm2.3 8.91h-.4a.37.37 0 0 1-.31-.16l-.7-1A5.78 5.78 0 0 1 6.19 9.4V7.99a3 3 0 0 0-.62-1.87.4.4 0 0 1-.08-.23v-.2a.38.38 0 0 1 .29-.37l4-1a.41.41 0 0 1 .32.07.37.37 0 0 1 .14.3v.2a.28.28 0 0 1 0 .09 2.91 2.91 0 0 0 .18 2l.57 1.01a5.74 5.74 0 0 1 .75 3.52v1.26a.78.78 0 0 1-.59.66l-1.09.3a.39.39 0 0 1-.26 0h-.07l-1 .26zm-.21-.75h.16l1-.28a.33.33 0 0 1 .26 0l.11.03 1-.26v-1.24a5 5 0 0 0-.65-3.11l-.6-1.11a3.71 3.71 0 0 1-.31-2.09l-3.06.81a3.68 3.68 0 0 1 .62 2v1.4a5 5 0 0 0 .93 3zm-3.39.64a.38.38 0 0 1-.37-.28l-.9-3.4-.18-.45-.58-.95a.38.38 0 0 1 0-.33v-.06l-.32-.74a.37.37 0 0 1 0-.31.39.39 0 0 1 .25-.2l1.59-.4a.39.39 0 0 1 .43.23.37.37 0 0 1-.27.45l-1.18.29.13.3 1.16-.32a.39.39 0 0 1 .46.27.39.39 0 0 1-.25.46l-1.15.35.36.59.22.56.83 3.09.94-.22a.37.37 0 0 1 .45.28.37.37 0 0 1-.28.45l-1.3.3z"/><path d="M5.99 14.78a.78.78 0 0 1-.68-.39l-.23-.78a.36.36 0 0 1 .25-.46.37.37 0 0 1 .47.25l.2.7.75-.26a.38.38 0 0 1 .45.28.37.37 0 0 1-.27.45l-.8.2z"/></g></svg>