<svg xmlns="http://www.w3.org/2000/svg" viewBox="0 0 24 24"><path d="M11.822 7.624c1.306-2.277 4.587-2.287 5.906-.018a3.408 3.408 0 0 1-.98 4.499 6.002 6.002 0 0 1 3.962 5.485.5.5 0 0 1-.49.5h-.04a.5.5 0 0 1-.5-.49 4.93 4.93 0 0 0-4.89-4.85h-.07a4.9 4.9 0 0 0-4.85 4.85.5.5 0 0 1-.5.49.5.5 0 0 1-.49-.5 5.892 5.892 0 0 1 3.907-5.498c-1.334-.966-1.889-2.857-.965-4.468zm2.968-.704c-1.855-.008-3.023 1.996-2.102 3.606.921 1.611 3.24 1.62 4.174.018A2.41 2.41 0 0 0 14.79 6.92zm-8 6.64a.5.5 0 0 1-.5-.5v-2.45h-2.5a.5.5 0 0 1 0-1h2.5v-2.5a.5.5 0 0 1 1 0v2.5h2.5a.51.51 0 0 1 .5.5.5.5 0 0 1-.5.5h-2.5v2.5a.5.5 0 0 1-.5.45z"/></svg>