<svg xmlns="http://www.w3.org/2000/svg" viewBox="0 0 24 24"><path d="M3.5 8.57V4.74a.67.67 0 0 1 .71-.63h15.58a.77.77 0 0 1 .71.71v3.77a.68.68 0 0 1-.71.62h-.36v4.53a.571.571 0 0 1-1.13 0V9.21H5.77v8.22h8.57a.571.571 0 0 1 0 1.13H5.26a.67.67 0 0 1-.63-.71V9.21h-.42a.749.749 0 0 1-.71-.64zm1.13-.46h14.74v-2.9H4.63zm15.84 7.88a.58.58 0 0 1-.55.59h-2.76v2.84a.53.53 0 0 1-.57.47.56.56 0 0 1-.55-.57v-2.76h-2.86a.52.52 0 0 1-.47-.57.57.57 0 0 1 .57-.55h2.77v-2.86a.53.53 0 0 1 .57-.47.57.57 0 0 1 .55.57v2.76h2.76a.58.58 0 0 1 .54.55z"/></svg>