<svg xmlns="http://www.w3.org/2000/svg" viewBox="0 0 24 24"><defs><clipPath id="a"><path d="M0 0h24v24H0z"/></clipPath></defs><g clip-path="url(#a)"><path d="M17.75 18.12H6.12a2.63 2.63 0 0 1-2.63-2.63V8.12a2.63 2.63 0 0 1 2.63-2.63h11.64a2.63 2.63 0 0 1 2.62 2.63v7.37a2.63 2.63 0 0 1-2.63 2.63zM6.12 6.51a1.61 1.61 0 0 0-1.61 1.61v7.37a1.61 1.61 0 0 0 1.61 1.61h11.63a1.61 1.61 0 0 0 1.61-1.61V8.12a1.61 1.61 0 0 0-1.6-1.61z"/><path d="M11.94 13a2.52 2.52 0 0 1-1.69-.65L4.29 7 5 6.25l6 5.38a1.51 1.51 0 0 0 2 0l6-5.39.67.74-6 5.39a2.52 2.52 0 0 1-1.73.63z"/></g></svg>