<svg xmlns="http://www.w3.org/2000/svg" viewBox="0 0 24 24"><path d="M11.167 15.8h-.09a1 1 0 0 1-.71-.37l-2.44-2.92a.51.51 0 0 1 .08-.71.49.49 0 0 1 .7.07l2.45 2.91 4.12-6.35a.5.5 0 0 1 .84.54l-4.11 6.35a1.479 1.479 0 0 1-.21.23.996.996 0 0 1-.63.25zm.84 5.7C4.694 21.5.123 13.583 3.78 7.25 7.436.917 16.578.917 20.234 7.25A9.497 9.497 0 0 1 21.507 12a9.511 9.511 0 0 1-9.5 9.5zm0-18c-6.543 0-10.633 7.083-7.361 12.75 3.271 5.667 11.451 5.667 14.722 0A8.5 8.5 0 0 0 20.507 12a8.51 8.51 0 0 0-8.5-8.5z"/></svg>