<svg xmlns="http://www.w3.org/2000/svg" viewBox="0 0 24 24"><path d="M20.71 6.56H8.35a.5.5 0 0 1 0-1h12.36a.5.5 0 0 1 0 1zM5 7.14A.47.47 0 0 1 4.66 7a.49.49 0 0 1 0-.7l1.58-1.65a.5.5 0 0 1 .71 0 .51.51 0 0 1 0 .71L5.37 7a.51.51 0 0 1-.37.14z"/><path d="M5 7.14A.46.46 0 0 1 4.66 7l-1-1a.5.5 0 0 1 0-.71.5.5 0 0 1 .7 0l1 1a.5.5 0 0 1 0 .71.47.47 0 0 1-.36.14zm15.71 5.31H8.35a.5.5 0 0 1-.5-.5.5.5 0 0 1 .5-.5h12.36a.5.5 0 0 1 .5.5.51.51 0 0 1-.5.5zM5 13a.52.52 0 0 1-.35-.14.5.5 0 0 1 0-.71l1.59-1.64a.5.5 0 0 1 .72.69l-1.59 1.68A.51.51 0 0 1 5 13z"/><path d="M5 13a.47.47 0 0 1-.35-.15l-1-1a.5.5 0 0 1 0-.71.48.48 0 0 1 .7 0l1 1A.5.5 0 0 1 5 13zm15.71 5.33H8.35a.5.5 0 0 1-.5-.5.5.5 0 0 1 .5-.5h12.36a.51.51 0 0 1 .5.5.5.5 0 0 1-.5.5zM5 18.92a.52.52 0 0 1-.35-.14.5.5 0 0 1 0-.71l1.59-1.64a.5.5 0 0 1 .71 0 .51.51 0 0 1 0 .71l-1.58 1.62a.48.48 0 0 1-.37.16z"/><path d="M5 18.92a.47.47 0 0 1-.35-.15l-1-1a.49.49 0 0 1 .7-.7l1 1a.5.5 0 0 1 0 .71.49.49 0 0 1-.35.14z"/></svg>