<svg xmlns="http://www.w3.org/2000/svg" viewBox="0 0 24 24"><path d="M19.49 9.53h-15a1 1 0 0 1-1-1.06V5.54a1 1 0 0 1 1-1h15a1 1 0 0 1 1 1v2.94a1 1 0 0 1-1 1zm-15-4v3h15V5.54z"/><path d="M6 19.05a1.12 1.12 0 0 1-1-1.2V9a.5.5 0 0 1 .5-.5.5.5 0 0 1 .5.5v8.86c0 .1 0 .16.09.16H18a.17.17 0 0 0 0-.12V9a.5.5 0 0 1 .5-.5.5.5 0 0 1 .5.5v8.86a1.11 1.11 0 0 1-1 1.16z"/><path d="M12 16a.5.5 0 0 1-.5-.5v-4.37a.5.5 0 0 1 .5-.5.5.5 0 0 1 .5.5v4.36a.51.51 0 0 1-.5.51z"/><path d="M14.16 13.81H9.81a.5.5 0 0 1 0-1h4.35a.5.5 0 0 1 0 1z"/></svg>