<svg xmlns="http://www.w3.org/2000/svg" viewBox="0 0 24 24"><path d="M10.982 13.986h-.843a.509.509 0 0 1-.007.14l-1 5.42a.84.84 0 0 1-.88.82h-1.51a2.25 2.25 0 0 1-2.06-2.45v-3.93h-.53a.5.5 0 0 1-.5-.5v-.515c-1.754-.325-2.754-2.329-1.812-3.96a2.672 2.672 0 0 1 1.812-1.288v-.587a.5.5 0 0 1 .5-.5h6.83a.5.5 0 0 1 .5.5v.347a9.67 9.67 0 0 0 6.9-3.427 1.26 1.26 0 0 1 2.2.78V7.95c1.563.282 2.456 2.066 1.618 3.516a2.37 2.37 0 0 1-1.618 1.145v3.095a1.23 1.23 0 0 1-1.218 1.25h.008a1.257 1.257 0 0 1-1-.45 9.756 9.756 0 0 0-6.89-3.415v.375a.509.509 0 0 1-.5.52zm-6.31-1h5.81v-.388a.353.353 0 0 1 0-.046V8.018a.353.353 0 0 1 0-.046v-.316h-5.83zm-1.966-1.805c.212.368.552.635.946.759V8.75c-.979.303-1.501 1.471-.946 2.431zm18.782-.87a1.381 1.381 0 0 0-.906-1.317v2.577c.519-.187.893-.679.906-1.26zM5.682 17.916a1.27 1.27 0 0 0 1.12 1.4h1.33l.991-5.33H5.682zm2.44 1.53a.106.106 0 0 0 0 .05zm11.07-3.58a.242.242 0 0 0 .17.09.201.201 0 0 0 .18-.05.251.251 0 0 0 .09-.2V4.866a.25.25 0 0 0-.28-.23.253.253 0 0 0-.18.08 10.62 10.62 0 0 1-7.69 3.771v3.6a10.745 10.745 0 0 1 7.71 3.779z"/></svg>