<svg xmlns="http://www.w3.org/2000/svg" viewBox="0 0 24 24"><defs><clipPath id="a"><path d="M0 0h24v24H0z"/></clipPath></defs><path d="M17.19 20h-2.68a1 1 0 0 1-1-1v-2.49a1.59 1.59 0 1 0-3.18 0V19a1 1 0 0 1-1 1H6.8a1 1 0 0 1-.72-.3 1.06 1.06 0 0 1-.28-.7v-5.67H4.5a1 1 0 0 1-1-1v-1.05a1.52 1.52 0 0 1 .22-.65l.11-.13 6.92-5.61a1.8 1.8 0 0 1 2.21 0l7.12 5.62a1.15 1.15 0 0 1 .4.79v1.05a1 1 0 0 1-1 1h-1.3V19a1 1 0 0 1-.99 1zm-5.27-6a2.6 2.6 0 0 1 2.59 2.59V19h2.67v-5.66a1 1 0 0 1 1-1h1.32v-1l-7.16-5.67a.8.8 0 0 0-1 0l-6.8 5.55a.65.65 0 0 0 0 .13v1h1.27a1 1 0 0 1 1 1V19h2.52v-2.49a2.61 2.61 0 0 1 2.59-2.59z"/></svg>