<svg xmlns="http://www.w3.org/2000/svg" viewBox="0 0 24 24"><defs><clipPath id="a"><path d="M0 0h24v24H0z"/></clipPath></defs><path d="M11.44 14.38h.2a2.7 2.7 0 002.53-2.85V4.81a2.82 2.82 0 00-5.63 0v6.74a2.9 2.9 0 002.9 2.83m0 1a3.91 3.91 0 01-3.9-3.82V4.81a3.82 3.82 0 017.63 0v6.65a3.69 3.69 0 01-3.47 3.91h-.26zM10.95 17.72h1V23h-1z"/><path d="M16.25 23.5H6.57a.5.5 0 010-1h9.68a.5.5 0 010 1zM11.56 18.31a7 7 0 01-7-6.95V8.14a.5.5 0 01.5-.5.5.5 0 01.5.5v3.22a6 6 0 005.95 5.95h.11a5.94 5.94 0 005.94-5.94V8.14a.5.5 0 01.5-.5.5.5 0 01.5.5v3.23a6.95 6.95 0 01-6.94 6.94z"/></svg>