<svg xmlns="http://www.w3.org/2000/svg" viewBox="0 0 24 24"><path d="M22.1 5.65h-4.21L17 4.25a1.38 1.38 0 0 0-1.17-.64h-7.6a1.4 1.4 0 0 0-1.18.64l-1 1.43H1.91a1.4 1.4 0 0 0-1.4 1.4V19a1.41 1.41 0 0 0 1.41 1.4H22.1a1.41 1.41 0 0 0 1.39-1.4V7.06a1.41 1.41 0 0 0-1.39-1.41zM22.49 19a.41.41 0 0 1-.4.41H1.9a.4.4 0 0 1-.4-.4V7.09a.4.4 0 0 1 .4-.4h4.18A1.07 1.07 0 0 0 7 6.2l.91-1.41a.42.42 0 0 1 .34-.18h7.55a.42.42 0 0 1 .34.18l.91 1.41a1.07 1.07 0 0 0 .9.48h4.15a.4.4 0 0 1 .4.41z"/><path d="M14.7 15.36a4 4 0 0 1-6.67-3v-.32l.78.78a.49.49 0 0 0 .35.15.51.51 0 0 0 .36-.15.51.51 0 0 0 0-.71l-1.63-1.65a.5.5 0 0 0-.71 0l-1.66 1.65a.51.51 0 0 0 0 .71.5.5 0 0 0 .71 0l.83-.82v.37a5 5 0 0 0 5 5 5 5 0 0 0 3.32-1.27.5.5 0 1 0-.66-.74zM17.77 11.29L17 12a5 5 0 0 0-7.62-3.88.5.5 0 1 0 .53.88A4 4 0 0 1 16 12.15l-.86-.86a.5.5 0 0 0-.71 0 .5.5 0 0 0 0 .7l1.66 1.66a.49.49 0 0 0 .35.15.51.51 0 0 0 .36-.15L18.47 12a.49.49 0 0 0-.7-.7z"/></svg>