<svg xmlns="http://www.w3.org/2000/svg" viewBox="0 0 24 24"><path d="M17.6 10.089l-7.579 7.579a.49.49 0 0 1-.091.131l-.63.62a7.095 7.095 0 0 1-3.77 2l-1 .17a.555.555 0 0 1-.24-.01.81.81 0 0 1-.77-.61.66.66 0 0 1 0-.28l.12-1a7.152 7.152 0 0 1 2.07-4.21l.45-.45a.508.508 0 0 1 .152-.102L13.639 6.6a.469.469 0 0 1 .141-.251l2.21-2.21c1-.981 2.6-.981 3.6 0l.17.17a2.56 2.56 0 0 1 0 3.59l-2.076 2.076a.508.508 0 0 1-.084.114zm-3.44-2.65l-6.935 6.945 2.33 2.33 6.974-6.915-2.299-2.291zm-7.68 7.62l-.1.09a6.17 6.17 0 0 0-1.78 3.62l-.09.77.81-.14a6.081 6.081 0 0 0 3.24-1.72l.27-.27zm12.56-7.86a1.55 1.55 0 0 0 0-2.18l-.17-.12a1.55 1.55 0 0 0-2.18 0l-1.837 1.788 2.369 2.33z"/></svg>