<svg xmlns="http://www.w3.org/2000/svg" viewBox="0 0 24 24"><defs><clipPath id="a"><path d="M0 0h24v24H0z"/></clipPath></defs><g clip-path="url(#a)"><path d="M19.23 9.7H19A6.72 6.72 0 0 0 12.36 4a6.89 6.89 0 0 0-6.79 5.7h-.15A2.64 2.64 0 0 0 3 12.5a2.64 2.64 0 0 0 2.42 2.81h1.4v-4.45a5.54 5.54 0 0 1 11.08 0v5a2.46 2.46 0 0 1-2.19 2.42 1.79 1.79 0 0 0-1.56-.78 1.71 1.71 0 0 0-1.79 1.5 1.67 1.67 0 0 0 1.79 1.48 1.77 1.77 0 0 0 1.56-.86 3.75 3.75 0 0 0 3.44-3.74v-.55h.07a2.64 2.64 0 0 0 2.43-2.81 2.65 2.65 0 0 0-2.42-2.82zM4.17 12.5c0-.94.55-1.64 1.25-1.64h.08v3.28h-.08c-.7 0-1.25-.7-1.25-1.64zm10 6.79c-.39 0-.63-.16-.63-.31s.24-.32.63-.32.62.16.62.32-.31.31-.62.31zm5.07-5.15h-.08v-3.28h.08c.62 0 1.25.78 1.25 1.64s-.55 1.64-1.25 1.64z"/></g></svg>