<svg xmlns="http://www.w3.org/2000/svg" viewBox="0 0 24 24"><defs><clipPath id="a"><path d="M0 0h24v24H0z"/></clipPath></defs><path d="M18.25 21.5H5.75A1.75 1.75 0 0 1 4 19.75v-7.47a1.75 1.75 0 0 1 1.75-1.75h12.5A1.75 1.75 0 0 1 20 12.27v7.48a1.75 1.75 0 0 1-1.75 1.75zm-12.5-1h12.5a.75.75 0 0 0 .75-.75v-7.47a.75.75 0 0 0-.75-.75H5.75a.75.75 0 0 0-.75.75v7.47a.75.75 0 0 0 .75.75z"/><path d="M18.25 21.5H5.75A1.75 1.75 0 0 1 4 19.75v-7.47a1.75 1.75 0 0 1 1.75-1.75h2v-1A4.25 4.25 0 0 1 12 5.26a4.25 4.25 0 0 1 4.25 4.24v1h2A1.75 1.75 0 0 1 20 12.27v7.48a1.75 1.75 0 0 1-1.75 1.75zm-12.5-1h12.5a.75.75 0 0 0 .75-.75v-7.47a.75.75 0 0 0-.75-.75h-3v-2A3.24 3.24 0 0 0 12 6.26 3.25 3.25 0 0 0 8.75 9.5v2h-3a.75.75 0 0 0-.75.75v7.47a.75.75 0 0 0 .75.75z"/><path d="M18.25 21.5H5.75A1.75 1.75 0 0 1 4 19.75v-7.47a1.76 1.76 0 0 1 1.25-1.68V9.23A6.75 6.75 0 0 1 12 2.5a6.75 6.75 0 0 1 6.74 6.73v1.37A1.75 1.75 0 0 1 20 12.27v7.48a1.75 1.75 0 0 1-1.75 1.75zm-12.5-1h12.5a.75.75 0 0 0 .75-.75v-7.47a.75.75 0 0 0-.75-.75h-.5v-2.3A5.74 5.74 0 0 0 12 3.5a5.75 5.75 0 0 0-5.75 5.73v2.3h-.5a.75.75 0 0 0-.75.75v7.47a.75.75 0 0 0 .75.75z"/><g><ellipse cx="12" cy="14.75" rx="1.88" ry="1.87"/><path d="M12 16.62a1.87 1.87 0 1 1 1.88-1.87A1.88 1.88 0 0 1 12 16.62zm0-2a.12.12 0 0 0-.12.13.12.12 0 0 0 .24 0 .12.12 0 0 0-.12-.13z"/><g><rect width="2.5" height="3.74" x="10.75" y="14.75" rx="1.25"/><path d="M12 18.49a1.25 1.25 0 0 1-1.25-1.24V16A1.25 1.25 0 0 1 12 14.75 1.25 1.25 0 0 1 13.25 16v1.25A1.25 1.25 0 0 1 12 18.49zm-.42-1.87a.77.77 0 0 0 .84 0 .79.79 0 0 0-.84 0z"/></g></g></svg>