<svg xmlns="http://www.w3.org/2000/svg" viewBox="0 0 24 24"><path d="M13.79 13.93c-.05.01-.1.01-.15 0a.512.512 0 0 1-.32-.29L11.89 10l-1.49 2.29a.47.47 0 0 1-.37.22.502.502 0 0 1-.4-.15l-1.24-1.28-.59 1.16a.49.49 0 0 1-.44.27H3.5A.5.5 0 0 1 3 12a.5.5 0 0 1 .5-.5h3.55l.76-1.5a.5.5 0 0 1 .81-.12l1.29 1.34 1.67-2.53a.518.518 0 0 1 .47-.22.48.48 0 0 1 .41.31L14 12.66l1.51-1.06a.585.585 0 0 1 .29-.09h4.7a.5.5 0 0 1 0 1H16l-1.9 1.33a.464.464 0 0 1-.31.09zM12 21.33a1.39 1.39 0 0 1-1-.39 47.322 47.322 0 0 1-5.34-6.07.5.5 0 1 1 .8-.6 47.698 47.698 0 0 0 5.23 5.95.4.4 0 0 0 .56 0 47.698 47.698 0 0 0 5.23-5.95.5.5 0 0 1 .8.6A47.42 47.42 0 0 1 13 20.94a1.39 1.39 0 0 1-1 .39zM19.87 10a.485.485 0 0 1-.17 0 .49.49 0 0 1-.3-.64c.161-.45.249-.922.26-1.4a3.81 3.81 0 0 0-3.43-4.18 4.14 4.14 0 0 0-.61 0A4 4 0 0 0 12.4 5.3a.52.52 0 0 1-.8 0 4 4 0 0 0-3.19-1.6 3.8 3.8 0 0 0-4.08 3.54 4.14 4.14 0 0 0 0 .61c.011.492.102.978.27 1.44a.49.49 0 0 1-.3.64.5.5 0 0 1-.64-.3 5.545 5.545 0 0 1-.32-1.72 4.448 4.448 0 0 1 0-.73A4.81 4.81 0 0 1 8.45 2.7 4.998 4.998 0 0 1 12 4.23a5.06 5.06 0 0 1 3.58-1.53c.246-.02.494-.02.74 0A4.82 4.82 0 0 1 20.66 8a5.538 5.538 0 0 1-.32 1.68.5.5 0 0 1-.47.32z"/></svg>