<svg xmlns="http://www.w3.org/2000/svg" viewBox="0 0 24 24"><defs><clipPath id="a"><path d="M0 0h24v24H0z"/></clipPath></defs><path d="M11.92 21.27a8.77 8.77 0 01-8.42-7.11.5.5 0 111-.19 7.76 7.76 0 007.45 6.3 7.53 7.53 0 007.19-5.4.49.49 0 01.62-.34.51.51 0 01.34.62 8.53 8.53 0 01-8.18 6.12zM19.68 10.61a.5.5 0 01-.49-.38 7.65 7.65 0 00-7.28-5.73A7.49 7.49 0 005 9.18a.5.5 0 01-.9-.38 8.51 8.51 0 017.81-5.3 8.64 8.64 0 018.25 6.5.5.5 0 01-.36.61z"/><path d="M21 17.83a.5.5 0 01-.46-.3L19.42 15 17 16.07a.5.5 0 01-.66-.25.49.49 0 01.26-.66l2.89-1.29a.46.46 0 01.38 0 .51.51 0 01.28.26l1.32 3a.51.51 0 01-.26.66.45.45 0 01-.21.04zM4.24 10.27a.43.43 0 01-.19 0 .55.55 0 01-.28-.27L2.54 6.85a.5.5 0 11.92-.37l1 2.61L7 7.93a.5.5 0 01.66.25.49.49 0 01-.24.66l-3 1.38a.54.54 0 01-.18.05z"/></svg>