<svg xmlns="http://www.w3.org/2000/svg" viewBox="0 0 24 24"><defs><clipPath id="a"><path d="M0 0h24v24H0z"/></clipPath></defs><path d="M12 17.19a5 5 0 01-5-5V8a.5.5 0 111 0v4.22a4 4 0 108 0V8a.5.5 0 111 0v4.22a5 5 0 01-5 4.97zM15.38 21.31H8.62a.51.51 0 01-.5-.5.5.5 0 01.5-.5h6.76a.5.5 0 01.5.5.51.51 0 01-.5.5z"/><path d="M12.6 14.94h-1.2a2.5 2.5 0 0 1-2.5-2.5V5.19a2.51 2.51 0 0 1 2.5-2.5h1.2a2.51 2.51 0 0 1 2.5 2.5v7.25a2.5 2.5 0 0 1-2.5 2.5zM11.4 3.69a1.51 1.51 0 0 0-1.5 1.5v7.25a1.5 1.5 0 0 0 1.5 1.5h1.2a1.5 1.5 0 0 0 1.5-1.5V5.19a1.51 1.51 0 0 0-1.5-1.5z"/><path d="M12.6 14.94h-1.2a2.5 2.5 0 0 1-2.5-2.5V8.32h6.2v4.12a2.5 2.5 0 0 1-2.5 2.5zM9.9 9.32v3.12a1.5 1.5 0 0 0 1.5 1.5h1.2a1.5 1.5 0 0 0 1.5-1.5V9.32z"/><path d="M11.5 14.06h1v6.75h-1z"/></svg>