<svg xmlns="http://www.w3.org/2000/svg" viewBox="0 0 24 24"><path d="M17.468 16.568h-7.184a1.476 1.476 0 0 1-1.388-1.072L6.515 7.358a.566.566 0 0 1-.008-.04c-.32-1.189-1.1-2.834-1.842-2.834H2.992a.492.492 0 0 1 0-.984h1.673c1.518 0 2.4 2.318 2.693 3.247h12.098a1.48 1.48 0 0 1 1.476 1.477c0 .136-.02.272-.059.403l-1.969 6.889a1.494 1.494 0 0 1-1.436 1.052zM7.627 7.712l2.175 7.518c.061.21.254.354.472.354h7.184a.492.492 0 0 0 .472-.354l1.968-6.888a.795.795 0 0 0 0-.138.49.49 0 0 0-.492-.492zm3.562 13.491c-1.515 0-2.462-1.64-1.704-2.952.758-1.312 2.651-1.312 3.409 0a1.967 1.967 0 0 1-1.705 2.952zm0-2.952a.984.984 0 1 0 0 1.968.984.984 0 0 0 0-1.968zm5.511 2.952c-1.515 0-2.462-1.64-1.704-2.952.757-1.312 2.651-1.312 3.409 0a1.967 1.967 0 0 1-1.705 2.952zm0-2.952a.984.984 0 0 0-.852 1.476.983.983 0 0 0 1.836-.492.985.985 0 0 0-.984-.984z"/></svg>