<svg xmlns="http://www.w3.org/2000/svg" viewBox="0 0 24 24"><defs><clipPath id="a"><rect width="24" height="24"/></clipPath></defs><path d="M4 17.77h-.82A1.74 1.74 0 0 1 1.5 16v-3.2A1.75 1.75 0 0 1 3.23 11h.92V4.37a.93.93 0 0 1 .62-.81A.5.5 0 0 1 5 3.5h5.31a.86.86 0 0 1 .8.56L13.48 11h.92a1.82 1.82 0 0 1 1.28.61 1.79 1.79 0 0 1 .45 1.14h2.6a.5.5 0 0 1 .5.5.51.51 0 0 1-.5.5h-3.1a.5.5 0 0 1-.5-.5v-.37a.84.84 0 0 0-.2-.61.79.79 0 0 0-.55-.27h-1.26a.51.51 0 0 1-.47-.34L10.22 4.5H5.15v7a.5.5 0 0 1-.5.5H3.24a.74.74 0 0 0-.74.73V16a.74.74 0 0 0 .7.79H4a.51.51 0 0 1 .5.5.5.5 0 0 1-.5.48z"/><path d="M14.39 17.87h-.71a.51.51 0 0 1-.5-.5.5.5 0 0 1 .5-.5h.71a.74.74 0 0 0 .74-.74.55.55 0 0 1 .5-.55h3.1a.5.5 0 0 1 .5.5.5.5 0 0 1-.5.5h-2.67a1.73 1.73 0 0 1-1.67 1.29z"/><rect width="1" height="2.86" x="15.13" y="13.22"/><rect width="2.57" height="1" x="7.4" y="16.87"/><path d="M12.92 12H3.68a.51.51 0 0 1-.5-.5.5.5 0 0 1 .5-.5h9.24a.5.5 0 0 1 .5.5.5.5 0 0 1-.5.5z"/><path d="M5.63 19.71a2.16 2.16 0 0 1 0-4.32 2.16 2.16 0 0 1 0 4.32zm0-3.32a1.16 1.16 0 0 0 0 2.32 1.16 1.16 0 0 0 0-2.32z"/><path d="M11.73 19.71a2.16 2.16 0 1 1 2.1-2.16 2.13 2.13 0 0 1-2.1 2.16zm0-3.32a1.16 1.16 0 1 0 1.1 1.16 1.13 1.13 0 0 0-1.1-1.16z"/><path d="M22 18.79h-3.77V4.55a.5.5 0 0 1 .5-.5.51.51 0 0 1 .5.5v13.24H22a.5.5 0 0 1 .5.5.5.5 0 0 1-.5.5z"/></svg>