<svg xmlns="http://www.w3.org/2000/svg" viewBox="0 0 24 24"><path d="M13.36 17.86a1.39 1.39 0 1 1-2.78 0 1.39 1.39 0 0 1 2.78 0zm9.14-7.73a.468.468 0 0 1-.35-.15c-5.597-5.603-14.67-5.629-20.3-.06a.5.5 0 0 1-.7-.71c6.011-5.962 15.711-5.944 21.7.04a.5.5 0 0 1 0 .71.488.488 0 0 1-.35.17zm-2.58 2.59a.545.545 0 0 1-.36-.14c-4.177-4.149-10.911-4.176-15.12-.06a.51.51 0 0 1-.71-.72c4.61-4.491 11.968-4.46 16.54.07a.5.5 0 0 1-.35.85zm-2.65 2.72a.46.46 0 0 1-.35-.14 7 7 0 0 0-9.77-.05.502.502 0 0 1-.7-.72 8 8 0 0 1 11.17.07.5.5 0 0 1-.35.85z"/></svg>