<svg xmlns="http://www.w3.org/2000/svg" viewBox="0 0 24 24"><path d="M16.744 19.755a2.936 2.936 0 0 1-1-.17l-.82-.3a17.55 17.55 0 0 1-10.55-11.12 2.779 2.779 0 0 1 .65-2.77l.56-.58a1.87 1.87 0 0 1 2.63-.06l1.22 1.24a3 3 0 0 1 .82 2.81l-.06.3a1.996 1.996 0 0 0 .24 1.49 8.244 8.244 0 0 0 2.78 2.82l.23.14a2 2 0 0 0 1.6.22 3.061 3.061 0 0 1 2.95.79l1.23 1.19a1.87 1.87 0 0 1 0 2.61l-.5.51a2.759 2.759 0 0 1-1.98.88zm-9.83-14.5a.87.87 0 0 0-.61.26l-.56.58a1.8 1.8 0 0 0-.42 1.77 16.52 16.52 0 0 0 10 10.48l.82.3c.66.24 1.399.072 1.89-.43l.5-.52a.86.86 0 0 0 0-1.2l-1.22-1.22a2.06 2.06 0 0 0-2-.53 3.001 3.001 0 0 1-2.37-.33l-.2-.15a9.084 9.084 0 0 1-3.09-3.1 3.092 3.092 0 0 1-.39-2.28l.07-.29a2 2 0 0 0-.59-1.84l-1.2-1.2a.847.847 0 0 0-.63-.3z"/></svg>