<svg xmlns="http://www.w3.org/2000/svg" viewBox="0 0 24 24"><path d="M20.48 3.54a4.27 4.27 0 0 0-4.14-.87 10.1 10.1 0 0 0-4.71 2.78 12.56 12.56 0 0 0-1.39 1.71L8.78 9.1l-2.47-.93a.53.53 0 0 0-.5.08l-3.15 2.6a.49.49 0 0 0-.17.47.51.51 0 0 0 .33.39l3.35 1.11a1.59 1.59 0 0 0 .41 1.49l3.13 3.13a1.59 1.59 0 0 0 1.12.46 2 2 0 0 0 .34 0l1.11 3.31a.48.48 0 0 0 .38.33h.09a.53.53 0 0 0 .39-.18l2.59-3.15a.53.53 0 0 0 .08-.5l-.92-2.42L16.56 14l.47-.35a11.05 11.05 0 0 0 1.54-1.26 10.1 10.1 0 0 0 2.78-4.71 4.27 4.27 0 0 0-.87-4.14zM6.23 9.21l1.93.73-1.5 2L4 11zm8.54 8.54L12.94 20l-.88-2.61 2-1.5zm5.6-10.29a9.22 9.22 0 0 1-2.5 4.23 11.08 11.08 0 0 1-1.43 1.15l-.44.36-4.79 3.59a.58.58 0 0 1-.75-.06L7.28 13.6a.59.59 0 0 1 0-.76L10.83 8l.22-.3a13.92 13.92 0 0 1 1.28-1.59 9.13 9.13 0 0 1 4.23-2.5 5.09 5.09 0 0 1 1.18-.15 2.75 2.75 0 0 1 2 .75 3.31 3.31 0 0 1 .63 3.25z"/><path d="M9 18.23c-1.62.85-3 1-3.56.44s-.4-2 .47-3.6a.5.5 0 0 0-.21-.67.51.51 0 0 0-.68.2c-1.11 2.11-1.21 3.85-.28 4.78a2.33 2.33 0 0 0 1.68.62 6.77 6.77 0 0 0 3-.89.51.51 0 0 0 .21-.68.5.5 0 0 0-.63-.2z"/></svg>