<svg xmlns="http://www.w3.org/2000/svg" viewBox="0 0 24 24"><defs><clipPath id="a"><path d="M0 0h24v24H0z"/></clipPath></defs><path d="M11.94 8.68a4 4 0 0 0-4.08 3.92 4 4 0 0 0 4.08 3.92A4 4 0 0 0 16 12.6a4 4 0 0 0-4.06-3.92zM15 12.6a3 3 0 0 1-6 0 3 3 0 0 1 6 0z"/><path d="M17.4 7.37h-.87a.91.91 0 0 1-.6-.41l-.26-.81A1.67 1.67 0 0 0 14.13 5H9.8a1.67 1.67 0 0 0-1.53 1.08L7.93 7a.67.67 0 0 1-.6.41h-.8A2.53 2.53 0 0 0 4 9.87v6.56A2.55 2.55 0 0 0 6.53 19h10.94A2.55 2.55 0 0 0 20 16.43V9.87a2.64 2.64 0 0 0-2.6-2.5zm1.47 2.5v6.63a1.48 1.48 0 0 1-1.47 1.42H6.53a1.49 1.49 0 0 1-1.46-1.49V9.87a1.44 1.44 0 0 1 1.4-1.49h.86A1.68 1.68 0 0 0 8.87 7.3l.26-.81a.69.69 0 0 1 .6-.41h4.34a.91.91 0 0 1 .6.41l.26.81a2 2 0 0 0 1.6 1.08h.87a1.5 1.5 0 0 1 1.47 1.49z"/></svg>