<svg xmlns="http://www.w3.org/2000/svg" viewBox="0 0 24 24"><path d="M17.69 4.51H6.48a2 2 0 0 0-2.05 2V15a2 2 0 0 0 2 2h3.32a2.41 2.41 0 0 1-2.12 1.72H7.5c-.06 0-.06.06-.12.06-.07.06-.07.06-.07.13s0 .06-.06.12v.07c0 .06 0 .06.06.13a.15.15 0 0 0 .13.13l.13.12h9a.13.13 0 0 0 .13-.12c.07-.07.07-.07.07-.13s0-.13.06-.13a.22.22 0 0 0-.06-.19.15.15 0 0 0-.13-.13c-.07-.06-.07-.06-.13-.06h-.19A2.67 2.67 0 0 1 14.23 17h3.27a2 2 0 0 0 2.05-2V6.54a1.75 1.75 0 0 0-1.47-2 1.67 1.67 0 0 0-.39-.03zm-3.2 14.28H9.75a3.62 3.62 0 0 0 1-1.71h2.76a3.29 3.29 0 0 0 1 1.71zm4.36-3.62a1.09 1.09 0 0 1-1.09 1H6.48a1 1 0 0 1-1.09-1zm0-8.63v7.68H5.39V6.54A1.14 1.14 0 0 1 6.53 5.4h11.23a1.18 1.18 0 0 1 1.09 1.14z"/></svg>