<svg xmlns="http://www.w3.org/2000/svg" viewBox="0 0 24 24"><path d="M6.583 21.918a2.05 2.05 0 0 1-1.416-.576 2.021 2.021 0 0 1-.605-1.426V4.122a1.99 1.99 0 0 1 .576-1.435c.376-.383.89-.601 1.427-.605h7.188c.504.014.983.221 1.341.576l3.778 3.967c.331.355.53.811.567 1.295v11.958a1.99 1.99 0 0 1-.576 1.435c-.376.383-.89.601-1.426.605zm7.16-18.891H6.574a1.044 1.044 0 0 0-.756.321 1.072 1.072 0 0 0-.311.774v15.784c-.001.285.115.558.321.756.209.197.486.308.774.311h10.825c.285.001.558-.115.756-.321.204-.206.316-.484.311-.774V7.967a1.03 1.03 0 0 0-.028-.175.477.477 0 0 1-.066.005h-2.541a2.033 2.033 0 0 1-2.012-2.05V3.038a.894.894 0 0 0-.104-.011zm1.049 2.729c0 .598.479 1.086 1.077 1.096h1.908l-2.985-3.127zM9.833 15.835a2.455 2.455 0 0 1-.312-1.086.473.473 0 0 1 .945-.047 1.397 1.397 0 0 0 1.407 1.369 1.426 1.426 0 0 0 1.474-1.407c0-.778-.63-1.408-1.408-1.408-1.818.026-2.981-1.927-2.095-3.513a2.366 2.366 0 0 1 1.557-1.155v-.996a.472.472 0 1 1 .944 0v.958c.72.09 1.36.528 1.701 1.183.22.333.328.726.311 1.124a.482.482 0 0 1-.491.454.473.473 0 0 1-.453-.492.95.95 0 0 0-.17-.595 1.345 1.345 0 0 0-1.228-.737h-.142a1.417 1.417 0 0 0 0 2.834 2.362 2.362 0 0 1 .472 4.681v.886a.472.472 0 1 1-.944 0v-.922a2.381 2.381 0 0 1-1.568-1.131z"/></svg>