<svg xmlns="http://www.w3.org/2000/svg" viewBox="0 0 24 24"><path d="M7.438 17.25c-3.472-.01-5.631-3.774-3.887-6.776A4.517 4.517 0 0 1 4.788 9.1a3.562 3.562 0 0 1 .82-2.16 3.51 3.51 0 0 1 4.54-.71A4.55 4.55 0 0 1 14.038 4a4.47 4.47 0 0 1 3.18 1.32 4.42 4.42 0 0 1 1.31 3.18v.12c3.118 1.51 3.432 5.829.565 7.774a4.501 4.501 0 0 1-2.515.776.5.5 0 0 1 0-1c2.686.024 4.391-2.87 3.069-5.208a3.494 3.494 0 0 0-1.819-1.552.51.51 0 0 1-.32-.5v-.44a3.512 3.512 0 0 0-.97-2.47 3.441 3.441 0 0 0-2.5-1 3.529 3.529 0 0 0-3.27 2.24.51.51 0 0 1-.8.19l-.11-.1a2.5 2.5 0 0 0-3.51.31 2.497 2.497 0 0 0-.56 1.56v.11a.49.49 0 0 1-.23.47c-2.279 1.452-2.131 4.826.266 6.074a3.516 3.516 0 0 0 1.614.396.5.5 0 0 1 0 1zm7.6-3.25a.54.54 0 0 1-.35-.14l-2.15-2.166V19.5a.5.5 0 0 1-1 0v-7.812l-2.16 2.152a.502.502 0 0 1-.71-.71l3-3a.5.5 0 0 1 .71 0l3 3a.51.51 0 0 1 0 .71.543.543 0 0 1-.34.16z"/></svg>