<svg xmlns="http://www.w3.org/2000/svg" viewBox="0 0 24 24"><defs><clipPath id="a"><rect width="24" height="24"/></clipPath></defs><path d="M17.71 16.73a6.6 6.6 0 0 1-2-.31 6.51 6.51 0 0 1-3.57-3 6.51 6.51 0 0 1-3.57 3 8.13 8.13 0 0 1-5.8-.61.49.49 0 0 1-.26-.43.5.5 0 0 1 .25-.44 7.22 7.22 0 0 0 3.34-4.58c.08-.36.15-.58.15-.58a3 3 0 0 1 1.94-2.17c1.51-.44 3.24.61 3.94 1.11.7-.5 2.43-1.56 3.94-1.11A3 3 0 0 1 18 9.78s.07.22.15.59a7.19 7.19 0 0 0 3.34 4.57.5.5 0 0 1 .25.44.52.52 0 0 1-.27.43 8.67 8.67 0 0 1-3.76.92zm-5.58-4.91a.5.5 0 0 1 .45.28A6 6 0 0 0 16 15.47a6.63 6.63 0 0 0 4.2-.2 8.24 8.24 0 0 1-3-4.69c-.06-.3-.12-.48-.12-.49a2.07 2.07 0 0 0-1.28-1.52c-1.16-.34-2.81.72-3.34 1.17a.51.51 0 0 1-.64 0c-.54-.44-2.18-1.51-3.34-1.17a2.07 2.07 0 0 0-1.28 1.52s-.06.19-.13.49a8.14 8.14 0 0 1-3 4.69 6.67 6.67 0 0 0 4.21.2 6 6 0 0 0 3.43-3.37.49.49 0 0 1 .42-.28z"/></svg>