<svg xmlns="http://www.w3.org/2000/svg" viewBox="0 0 24 24"><path d="M9.165 6.679a2.73 2.73 0 0 1 1.57-2.56l2.56-1.54c.344-.236.79-.263 1.16-.07.432.371.669.921.64 1.49 0 0-.05 2-.05 2.34l.05 4.281a2.1 2.1 0 0 1 1.08 1.739l.03 9.26h-8.41v-9.26a2.153 2.153 0 0 1 1.37-1.857zm4.88-.35c0-.33.05-2.33.05-2.33a1.142 1.142 0 0 0-.16-.63l-.15.08-2.63 1.55a1.769 1.769 0 0 0-1 1.66v3.7h3.84l.097-.002zm-5.25 14.29h6.41v-1.96h-6.41zm6.41-8.26a1.12 1.12 0 0 0-1.17-1h-4.06a1.1 1.1 0 0 0-1.18 1.03v5.27h6.41z"/></svg>