<svg xmlns="http://www.w3.org/2000/svg" viewBox="0 0 24 24"><path d="M12.005 20.41a.44.44 0 0 1-.44-.44V4.03a.44.44 0 0 1 .88 0v15.94a.44.44 0 0 1-.44.44zm-7.03-.02a2.29 2.29 0 0 1-2.28-2.27V5.89a2.25 2.25 0 0 1 .68-1.62 2.288 2.288 0 0 1 1.6-.66h4.86a.5.5 0 0 1 0 1h-4.85c-.348.01-.676.162-.91.42-.245.235-.383.56-.38.9v12.18a1.289 1.289 0 0 0 1.28 1.28h4.52a.5.5 0 0 1 .5.5.51.51 0 0 1-.5.5h-4.52zm11.88-.51a.5.5 0 0 1 1 0 .5.5 0 1 1-1 0zm-3 0a.5.5 0 0 1 1 0 .5.5 0 1 1-1 0zm6-.13a.51.51 0 0 1 .04-.72.49.49 0 0 1 .71 0 .51.51 0 0 1-.03.71.544.544 0 0 1-.34.13.514.514 0 0 1-.37-.12zm.45-3.17a.5.5 0 1 1 .5.5.5.5 0 0 1-.49-.5zm0-3a.51.51 0 0 1 .5-.5.5.5 0 0 1 0 1 .5.5 0 0 1-.49-.5zm0-3a.51.51 0 0 1 .5-.5.5.5 0 0 1 0 1 .5.5 0 0 1-.49-.5zm0-3a.5.5 0 1 1 .5.5.5.5 0 0 1-.49-.5zm-.32-2.55a.456.456 0 0 1-.13-.33.448.448 0 0 1 .16-.37.49.49 0 0 1 .7 0 .57.57 0 0 1 .14.34.508.508 0 0 1-.5.5.477.477 0 0 1-.37-.14zm-3-.92a.51.51 0 0 1 .5-.5.5.5 0 0 1 0 1 .5.5 0 0 1-.47-.5zm-3 0a.51.51 0 0 1 .5-.5.5.5 0 0 1 0 1 .5.5 0 0 1-.47-.5z"/></svg>