<svg xmlns="http://www.w3.org/2000/svg" viewBox="0 0 24 24"><path d="M22.632 16.087a2.14 2.14 0 0 1-1.79.95h-.28a2.24 2.24 0 0 1-2.17 1.7 2.15 2.15 0 0 1-2.17-1.7h-9a2.216 2.216 0 0 1-.709 1.165c-1.294 1.117-3.311.414-3.631-1.265a2.22 2.22 0 0 1-1.89-2.16v-7.36a2.21 2.21 0 0 1 2.26-2.16h15.94a2.26 2.26 0 0 1 2.08 1.42v.09l1.6 7.26a2.34 2.34 0 0 1-.24 2.06zm-2.03-8.18h-2.83v3.12h3.5zm-15.48 9.99a1.32 1.32 0 1 0-.08-2.64 1.32 1.32 0 0 0 0 2.64zm13.19 0a1.29 1.29 0 0 0 1.25-1.32 1.32 1.32 0 1 0-1.32 1.32zm3.52-2.32a1.13 1.13 0 0 0 .09-1.32v-.14l-.47-2.26h-4.2a.46.46 0 0 1-.42-.48v-4.1a.45.45 0 0 1 .47-.42h3.12a1.37 1.37 0 0 0-1.23-.75H3.252a1.37 1.37 0 0 0-1.37 1.41v7.27a1.32 1.32 0 0 0 1 1.31 2.32 2.32 0 0 1 2.16-1.7 2.14 2.14 0 0 1 2.17 1.7h8.87a2.32 2.32 0 0 1 2.17-1.7 2.14 2.14 0 0 1 2.17 1.7h.28c.451.035.885-.18 1.13-.56zM11.196 6.913a.39.39 0 0 1 .28.46v4.11a.46.46 0 0 1-.47.42h-3.26a.45.45 0 0 1-.42-.48v-4.1a.43.43 0 0 1 .47-.42h3.3zm-.57.94h-2.36v3.1h2.36zm5.175-.935a.44.44 0 0 1 .42.47v4.1a.46.46 0 0 1-.47.42h-3.26a.43.43 0 0 1-.42-.47v-4.1a.43.43 0 0 1 .47-.42zm-.52.95h-2.36v3.1h2.36zM6.342 6.93a.44.44 0 0 1 .42.47v4.1a.46.46 0 0 1-.47.42h-3.26a.43.43 0 0 1-.42-.47v-4.1a.43.43 0 0 1 .47-.42zm-.52.95h-2.36v3.1h2.36z"/></svg>