<svg xmlns="http://www.w3.org/2000/svg" viewBox="0 0 24 24"><defs><clipPath id="a"><rect width="24" height="24"/></clipPath></defs><path d="M14.79 19.05H3.25a1.77 1.77 0 0 1-1.75-1.76v-8.4a1.77 1.77 0 0 1 1.75-1.76h11.6a1.76 1.76 0 0 1 1.76 1.76v8.4a1.87 1.87 0 0 1-1.8 1.76zm.06-10.92H3.25a.76.76 0 0 0-.75.76v8.4a.77.77 0 0 0 .76.76h11.53a.86.86 0 0 0 .82-.8V8.89a.76.76 0 0 0-.76-.76z"/><path d="M15.67 11.33H2a.5.5 0 0 1-.5-.5.5.5 0 0 1 .5-.5h13.67a.5.5 0 0 1 .5.5.5.5 0 0 1-.5.5z"/><path d="M14.17 13.21H3.94a.5.5 0 0 1-.5-.5.51.51 0 0 1 .5-.5h10.23a.51.51 0 0 1 .5.5.5.5 0 0 1-.5.5z"/><path d="M8.77 15.16H3.94a.51.51 0 0 1-.5-.5.5.5 0 0 1 .5-.5h4.83a.5.5 0 0 1 .5.5.5.5 0 0 1-.5.5z"/><path d="M19.75 16.41H18a.51.51 0 0 1-.5-.5.5.5 0 0 1 .5-.5h1.75a.76.76 0 0 0 .75-.76v-8.4a.76.76 0 0 0-.76-.75H8.15a.64.64 0 0 0-.71.5.5.5 0 0 1-.6.38.49.49 0 0 1-.38-.59A1.61 1.61 0 0 1 8.19 4.5h11.56a1.76 1.76 0 0 1 1.75 1.75v8.4a1.76 1.76 0 0 1-1.75 1.76z"/><path d="M20.56 8.64h-2.73a.5.5 0 0 1-.5-.5.5.5 0 0 1 .5-.5h2.73a.5.5 0 0 1 .5.5.5.5 0 0 1-.5.5z"/><path d="M19.12 10.52h-1.29a.5.5 0 0 1-.5-.5.5.5 0 0 1 .5-.5h1.29a.5.5 0 0 1 .5.5.5.5 0 0 1-.5.5z"/></svg>