<svg xmlns="http://www.w3.org/2000/svg" viewBox="0 0 24 24"><path d="M16.982 21.49a.5.5 0 0 1 0-1h2.3a.2.2 0 0 0 .11-.21v-4.11-.01h-1.86a.5.5 0 0 1 0-1h1.7v-2.01a.297.297 0 0 0-.036-.158.487.487 0 0 1-.134.018h-1.53a.5.5 0 0 1 0-1h1.42v-1.54a.26.26 0 0 0-.1-.24l-1.27.84a.5.5 0 0 1-.56-.83l1.26-.85a.837.837 0 0 1 .59-.15.91.91 0 0 1 .59.19c.324.25.507.641.49 1.05v1.85c.19.234.289.529.28.83v2.36c.108.199.163.423.16.65v4.07a1.17 1.17 0 0 1-1.06 1.24zm-7.53 0a1 1 0 0 1-.94-1.14v-8.92a9.888 9.888 0 0 1 .83-4.15 5.285 5.285 0 0 0 .12-1.75.509.509 0 0 1 .12-.39.522.522 0 0 1 .31-.13v-1.5h-1.38a.5.5 0 0 1 0-1h1.858a.353.353 0 0 1 .046 0h3.754a.353.353 0 0 1 .046 0h.606a.5.5 0 0 1 0 1h-.13v1.505c.114.016.22.07.3.155a.522.522 0 0 1 .13.39 5.394 5.394 0 0 0 .14 1.83 9.905 9.905 0 0 1 .8 4.05v8.94a1 1 0 0 1-.91 1.11zm1.03-15.48a6.018 6.018 0 0 1-.2 1.63 9.178 9.178 0 0 0-.77 3.81v9a.411.411 0 0 0 0 .14h5.56V11.5a9.105 9.105 0 0 0-.75-3.75 6.446 6.446 0 0 1-.26-1.74zm-4.65 15.48a1.42 1.42 0 0 1-1.31-1.48v-1a1.793 1.793 0 0 1-.22-.85l-.18-5.42a2.34 2.34 0 0 0-.06-.5l-.39-1.73a1.223 1.223 0 0 1-.011-.242.49.49 0 0 1-.022-.25 1.544 1.544 0 0 1-.027-.288V8.46a1.22 1.22 0 0 1 1-1.33h2.45a.5.5 0 0 1 0 1h-2.42a.292.292 0 0 0-.08.24V9.6h2.38a.5.5 0 0 1 .5.5.51.51 0 0 1-.5.5H4.659l.403 1.41c.046.234.073.472.08.71l.18 5.44c0 .079.013.156.037.23h1.393a.5.5 0 0 1 0 1h-1.21v.62a.43.43 0 0 0 .37.49h1.15a.5.5 0 0 1 .44-.55.47.47 0 0 1 .53.44 1 1 0 0 1-.92 1.1zm5.06-16.48h2.8v-1.5h-2.8z"/></svg>