<svg xmlns="http://www.w3.org/2000/svg" viewBox="0 0 24 24"><path d="M8.51 9.75l-.77.78-.2-.28a.5.5 0 1 0-.81.58l.54.76a.5.5 0 0 0 .36.21.51.51 0 0 0 .37-.15l1.19-1.19a.5.5 0 0 0 0-.71.51.51 0 0 0-.68 0zm0 3l-.77.78-.2-.28a.51.51 0 0 0-.7-.12.5.5 0 0 0-.11.7l.54.76a.47.47 0 0 0 .36.21.51.51 0 0 0 .37-.13l1.19-1.19a.5.5 0 0 0 0-.71.51.51 0 0 0-.68 0zm0 3l-.77.78-.2-.28a.52.52 0 0 0-.7-.12.5.5 0 0 0-.11.7l.54.76a.47.47 0 0 0 .36.21.51.51 0 0 0 .37-.11l1.22-1.19a.5.5 0 0 0 0-.71.51.51 0 0 0-.71 0zm8.49.45h-6a.5.5 0 0 0-.5.5.5.5 0 0 0 .5.5h6a.5.5 0 0 0 .5-.5.5.5 0 0 0-.5-.46zm2.49-8.7v-.06a.4.4 0 0 0-.12-.23l-5.11-5.06A.44.44 0 0 0 14 2H6a1.5 1.5 0 0 0-1.5 1.5v17A1.5 1.5 0 0 0 6 22h12a1.5 1.5 0 0 0 1.5-1.5V7.57s-.01-.05-.01-.07zM14.4 3.7l3.39 3.37H14.9a.5.5 0 0 1-.5-.5zm4.1 16.8a.5.5 0 0 1-.5.5H6a.5.5 0 0 1-.5-.5v-17A.5.5 0 0 1 6 3h7.4v3.57a1.5 1.5 0 0 0 1.5 1.5h3.6zm-8-6.78a.5.5 0 0 0 .5.5h6a.5.5 0 0 0 .5-.5.5.5 0 0 0-.5-.5h-6a.5.5 0 0 0-.5.5zm0-3a.5.5 0 0 0 .5.5h4a.5.5 0 0 0 .5-.5.5.5 0 0 0-.5-.5h-4a.5.5 0 0 0-.5.48z"/></svg>