<svg xmlns="http://www.w3.org/2000/svg" viewBox="0 0 24 24"><path d="M17.009 13.975v2.83a1.1 1.1 0 0 1-1.06 1h-7.88a1.09 1.09 0 0 1-1.06-1v-2.83a1.08 1.08 0 0 1 1.06-1.08h7.88a1.1 1.1 0 0 1 1.06 1.08zm-1.12 2.73v-2.73l-7.78.05v2.78zm4.96-7.71a2.24 2.24 0 0 1-.09 1.81 2 2 0 0 1-1.09 1v6.73a1.66 1.66 0 0 1-1.66 1.66h-12a1.68 1.68 0 0 1-1.68-1.61v-6.78a2.003 2.003 0 0 1-1.08-1 2.243 2.243 0 0 1-.09-1.85l1.56-4.08a1.67 1.67 0 0 1 1.55-1.07h11.48c.69.002 1.309.427 1.56 1.07zm-2.28 2.88a2.207 2.207 0 0 1-1.37-.81 2.2 2.2 0 0 1-3.45 0 2.19 2.19 0 0 1-3.45 0c-.114.136-.241.26-.38.37a2.2 2.2 0 0 1-3.08-.37 2.168 2.168 0 0 1-1.36.81v6.65a.54.54 0 0 0 .53.54h12.02a.54.54 0 0 0 .53-.54zm1.25-2.51l-1.56-4.08a.539.539 0 0 0-.5-.35H6.279a.539.539 0 0 0-.5.35l-1.51 4.11a1.127 1.127 0 0 0 0 .9c.11.23.314.402.56.47a1.09 1.09 0 0 0 1.34-1v-.33a.671.671 0 0 1 .63-.63.66.66 0 0 1 .73.58v.32a1.06 1.06 0 1 0 2.12 0v-.33a.671.671 0 0 1 .63-.63.66.66 0 0 1 .7.63v.33a1.07 1.07 0 0 0 2.13 0v-.32a.66.66 0 0 1 .66-.67c.37 0 .67.3.67.67v.33a1.06 1.06 0 1 0 2.12 0v-.33a.67.67 0 1 1 1.33 0v.32c-.01.08-.01.16 0 .24a1.08 1.08 0 0 0 1.31.78.922.922 0 0 0 .57-.47c.142-.276.16-.6.05-.89z"/></svg>