<svg xmlns="http://www.w3.org/2000/svg" viewBox="0 0 24 24"><path d="M20 12.27v7.48a1.75 1.75 0 0 1-1.75 1.75H5.75a1.75 1.75 0 0 1-1.6-1.8v-7.47c.004-.174.034-.346.09-.51a.227.227 0 0 1 0-.09c.059-.152.136-.297.23-.43v-.06c.095-.127.21-.238.34-.33.135-.092.284-.162.44-.21V9.23A6.75 6.75 0 0 1 12 2.5a6.75 6.75 0 0 1 6.8 6.73v1.42h.05c.156.048.305.118.44.21.13.092.245.203.34.33l.05.06c.092.131.169.272.23.42a.28.28 0 0 1 0 .1c.055.161.085.33.09.5zM6.25 10.5h1.5v-1A4.25 4.25 0 0 1 12 5.26a4.25 4.25 0 0 1 4.24 4.27v1h1.5v-1.3A5.74 5.74 0 0 0 12 3.5a5.75 5.75 0 0 0-5.75 5.73zM12 6.26A3.25 3.25 0 0 0 8.75 9.5v1h6.5v-1A3.24 3.24 0 0 0 12 6.26zm6.9 6.07a.674.674 0 0 0-.06-.29v-.07a.752.752 0 0 0-.28-.28l-.08-.05a.72.72 0 0 0-.29-.06H5.69a.72.72 0 0 0-.29.06.706.706 0 0 0-.34.36.674.674 0 0 0-.06.28v7.47a.679.679 0 0 0 .06.25c.023.073.06.141.11.2l.1.12a.72.72 0 0 0 .48.18h12.5c.1 0 .199-.02.29-.06.049-.026.096-.057.14-.09a.671.671 0 0 0 .21-.23c.05-.03.05-.08.05-.08a.674.674 0 0 0 .06-.29zm-5.03 2.42a1.871 1.871 0 0 1-.63 1.39v1.17a1.25 1.25 0 0 1-.75 1.08c-.154.07-.321.104-.49.1a1.24 1.24 0 0 1-1.25-1.26v-1.11a1.87 1.87 0 0 1-.62-1.39 1.87 1.87 0 0 1 3.74.02z"/></svg>