<svg xmlns="http://www.w3.org/2000/svg" viewBox="0 0 24 24"><path d="M18 13.56a10.7 10.7 0 0 1-.29-1.87 5.73 5.73 0 0 0-3.37-5.22 1.65 1.65 0 0 0 .11-.36 2.54 2.54 0 1 0-5-.57 2.44 2.44 0 0 0 .18.93 5.73 5.73 0 0 0-3.37 5.22A11.74 11.74 0 0 1 6 13.56a7.19 7.19 0 0 1-1.2 2.09 1 1 0 0 0-.22.64v1.26a1 1 0 0 0 1 1h3.21a3.33 3.33 0 0 0 6.42 0h3.2a1 1 0 0 0 1-1v-1.26a1 1 0 0 0-.23-.64A7.16 7.16 0 0 1 18 13.56zm.4 4h-3.59a.5.5 0 0 0-.49.42 2.35 2.35 0 0 1-4.65 0 .49.49 0 0 0-.48-.42H5.56v-1.28a8.29 8.29 0 0 0 1.34-2.37 11.16 11.16 0 0 0 .35-2.22 4.74 4.74 0 0 1 3.24-4.5l.13-.06a.5.5 0 0 0 .11-.69A1.55 1.55 0 0 1 11 4.33 1.52 1.52 0 0 1 12 4a2.21 2.21 0 0 1 .37 0 1.53 1.53 0 0 1 .55.25 1.55 1.55 0 0 1 .36 2.17.54.54 0 0 0-.07.13.49.49 0 0 0 .31.62 4.76 4.76 0 0 1 3.24 4.5 11 11 0 0 0 .35 2.21 8.64 8.64 0 0 0 1.34 2.39z"/><path d="M13.45 17.54h-2.9a.25.25 0 0 0-.19.09.24.24 0 0 0-.06.2 1.72 1.72 0 0 0 3.4 0 .25.25 0 0 0-.25-.29zM4.94 8.54a.54.54 0 0 0 .46-.26 8.11 8.11 0 0 1 2.86-2.87.55.55 0 0 0 .19-.73.54.54 0 0 0-.74-.2 9.25 9.25 0 0 0-3.24 3.25.54.54 0 0 0 .19.74.64.64 0 0 0 .28.07z"/><path d="M7.74 4a.54.54 0 0 0-.48-1 9.16 9.16 0 0 0-4.2 4.21.52.52 0 0 0 .24.79.53.53 0 0 0 .7-.25A8.13 8.13 0 0 1 7.74 4zM16.28 4.48a.53.53 0 0 0-.74.19.55.55 0 0 0 .19.74 8.11 8.11 0 0 1 2.87 2.86.53.53 0 0 0 .46.27.68.68 0 0 0 .28-.07.56.56 0 0 0 .19-.75 9.25 9.25 0 0 0-3.25-3.24z"/><path d="M20.94 7.27a9.16 9.16 0 0 0-4.2-4.21.56.56 0 0 0-.74.24.55.55 0 0 0 .25.73A8.13 8.13 0 0 1 20 7.75a.53.53 0 0 0 .7.25.52.52 0 0 0 .24-.73z"/></svg>