<svg xmlns="http://www.w3.org/2000/svg" viewBox="0 0 24 24"><path d="M12.026 7.76c-.062 0-.124-.003-.184-.008-.37.027-.745.136-1.101.342a2.571 2.571 0 0 0-1.285 2.226.5.5 0 0 1-1 0c0-1.476.858-2.655 2.022-3.217a2.144 2.144 0 0 1-.314-2.568c.828-1.433 2.896-1.433 3.724 0a2.148 2.148 0 0 1-.314 2.567 3.57 3.57 0 0 1 2.022 3.218.51.51 0 0 1-.5.5.5.5 0 0 1-.5-.5c0-1.432-1.122-2.475-2.391-2.567a2.125 2.125 0 0 1-.179.007zm0-3.3a1.15 1.15 0 0 0-.165 2.289c.11-.006.221-.006.332-.001a1.15 1.15 0 0 0 .983-1.138 1.16 1.16 0 0 0-1.15-1.15zm6.56 10.97c-.062 0-.124-.003-.184-.008-.37.027-.745.136-1.101.342a2.571 2.571 0 0 0-1.285 2.226.5.5 0 0 1-1 0c0-1.476.858-2.655 2.022-3.217a2.144 2.144 0 0 1-.314-2.568c.828-1.433 2.896-1.433 3.724 0a2.148 2.148 0 0 1-.314 2.567 3.57 3.57 0 0 1 2.022 3.218.51.51 0 0 1-.5.5.5.5 0 0 1-.5-.5c0-1.432-1.122-2.475-2.391-2.567a2.125 2.125 0 0 1-.179.007zm0-3.3a1.15 1.15 0 0 0-.162 2.289 3.3 3.3 0 0 1 .33-.001 1.15 1.15 0 0 0-.168-2.288zm-15.012.075c.828-1.433 2.896-1.433 3.724 0a2.148 2.148 0 0 1-.327 2.58l.062.031a3.57 3.57 0 0 1 1.946 3.371.5.5 0 0 1-.5.5.51.51 0 0 1-.5-.5c.134-1.974-1.918-3.353-3.695-2.482a2.568 2.568 0 0 0-1.435 2.452.5.5 0 1 1-1 .03c-.082-1.554.806-2.829 2.037-3.416a2.143 2.143 0 0 1-.312-2.566zm1.862-.075a1.15 1.15 0 0 0-.119 2.294c.076-.002.153-.002.229.001a1.15 1.15 0 0 0-.11-2.295zm6.09 7.04a8.443 8.443 0 0 1-1.23-.1.506.506 0 1 1 .16-1 6.69 6.69 0 0 0 1.874.039l-.864-.399a.52.52 0 0 1-.25-.67.5.5 0 0 1 .67-.24l2.21 1a.49.49 0 0 1 .28.36.51.51 0 0 1-.046.32.504.504 0 0 1-.126.164l-1.638 1.716a.522.522 0 0 1-.37.18.518.518 0 0 1-.35-.14.5.5 0 0 1 0-.71l.552-.575c-.289.034-.58.053-.872.055zm7.92-10.16a.5.5 0 0 1-.47-.33 6.911 6.911 0 0 0-.882-1.664l.072.944a.51.51 0 0 1-.47.54l-.03.02a.5.5 0 0 1-.5-.47l-.16-2.29a.5.5 0 0 1 .676-.642l2.294.612a.48.48 0 0 1 .35.61.5.5 0 0 1-.61.36l-.761-.204c.4.567.724 1.187.961 1.844a.51.51 0 0 1-.3.64zm-14.69-.72a.502.502 0 0 1-.336-.469L4.086 5.45a.505.505 0 1 1 1-.14l.123.758A7.801 7.801 0 0 1 6.516 4.49a.5.5 0 0 1 .71 0 .51.51 0 0 1 0 .71 6.702 6.702 0 0 0-1.268 1.518l.908-.478a.5.5 0 0 1 .67.22.49.49 0 0 1-.17.67l-2.22 1.11a.59.59 0 0 1-.23.05.43.43 0 0 1-.16 0z"/></svg>