<svg xmlns="http://www.w3.org/2000/svg" viewBox="0 0 24 24"><path d="M5.54 1.7a.49.49 0 0 1 0-.47A.48.48 0 0 1 6 1h3.58a.5.5 0 0 1 .45.3l3.739 8.479L17.23 2h-2.59l-1 2.44a.504.504 0 1 1-.93-.39l1.16-2.74a.49.49 0 0 1 .44-.31H18a.5.5 0 0 1 .42.23.49.49 0 0 1 0 .47l-3.793 8.6h.953a.5.5 0 0 1 .5.5v3.7a.297.297 0 0 1-.003.042c1.205 1.594 1.507 3.848.367 5.823A5.268 5.268 0 0 1 11.88 23c-4.057 0-6.592-4.392-4.564-7.905.114-.197.239-.386.376-.564a.323.323 0 0 1-.002-.031v-3.7a.5.5 0 0 1 .5-.5h1.067zm9.54 9.6H8.69v2.235a5.266 5.266 0 0 1 3.19-1.075c1.237 0 2.332.408 3.2 1.075zm-4.83-1.23h2.6L9.25 2H6.76zm1.63 3.39c-3.287 0-5.341 3.558-3.698 6.405A4.27 4.27 0 0 0 11.88 22c3.287 0 5.341-3.558 3.698-6.405a4.27 4.27 0 0 0-3.698-2.135z"/></svg>