<svg xmlns="http://www.w3.org/2000/svg" viewBox="0 0 24 24"><path d="M3.18 18.165a1.74 1.74 0 0 1-1.68-1.77v-3.2a1.75 1.75 0 0 1 1.73-1.8h.92v-6.63a.93.93 0 0 1 .62-.81.502.502 0 0 1 .23-.06h5.31a.86.86 0 0 1 .8.56l2.37 6.94h.92a1.82 1.82 0 0 1 1.28.61c.279.315.439.719.45 1.14h2.1v-8.2a.5.5 0 0 1 .5-.5.51.51 0 0 1 .5.5v13.24H22a.5.5 0 0 1 0 1h-3.77v-2.21h-2.17a1.73 1.73 0 0 1-1.67 1.29h-.579a2.132 2.132 0 0 1-2.081 1.84 2.16 2.16 0 0 1-2.199-1.84H7.77a2.168 2.168 0 0 1-.269.76 2.161 2.161 0 0 1-4.023-.86zm12.95-4.02v1.83h2.1v-1.83zm-1.74 3.12a.74.74 0 0 0 .74-.74l.002-.05h-.002v-3.2a.838.838 0 0 0-.2-.61.791.791 0 0 0-.55-.27h-1.26a.6.6 0 0 1-.095-.011.52.52 0 0 1-.105.011H3.24a.74.74 0 0 0-.74.73v3.27a.74.74 0 0 0 .7.79h.407a2.165 2.165 0 0 1 2.023-1.4 2.15 2.15 0 0 1 2.051 1.48h1.938c.039-.117.089-.233.151-.347.791-1.462 2.869-1.52 3.74-.104.087.142.158.294.21.451zm-9.89.42a.526.526 0 0 1-.025.138 1.162 1.162 0 0 0 1.155 1.282A1.16 1.16 0 1 0 4.5 17.68v.005zm5.72-12.79H5.15v6.5h7.276zm1.51 11.89a1.16 1.16 0 1 0 1.1 1.16 1.13 1.13 0 0 0-1.1-1.16z"/></svg>