<svg xmlns="http://www.w3.org/2000/svg" viewBox="0 0 24 24"><path d="M7.26 19.6a1.1 1.1 0 0 1-.31 0 1 1 0 0 1-.62-.51 1 1 0 0 1-.12-.69L7 13.66a.33.33 0 0 0 0-.12l-3.46-3.33a1.05 1.05 0 0 1 0-1.48 1 1 0 0 1 .62-.33l4.8-.66 2.21-4.36a1 1 0 0 1 1.29-.54 1 1 0 0 1 .54.56l2.13 4.24 4.87.69a1 1 0 0 1 .69.41 1 1 0 0 1 .2.78 1.09 1.09 0 0 1-.32.63l-3.46 3.37.81 4.84a1 1 0 0 1-.18.79 1.05 1.05 0 0 1-.68.44 1.09 1.09 0 0 1-.69-.11l-4.27-2.2H12l-4.25 2.2a1 1 0 0 1-.49.12zm-.06-1.07l.09.06 4.29-2.2a1.17 1.17 0 0 1 .95 0l4.31 2.21.09-.06-.81-4.77a.91.91 0 0 1 .33-1l3.43-3.34.05-.6-.07.5-4.8-.66a1 1 0 0 1-.83-.59l-2.14-4.25v-.05L9.88 8.16a1.09 1.09 0 0 1-.82.57l-4.8.66v.1l3.48 3.39a1.24 1.24 0 0 1 .3.93l-.84 4.72z"/></svg>