<svg xmlns="http://www.w3.org/2000/svg" viewBox="0 0 24 24"><path d="M6 18.4a2.53 2.53 0 0 1-2.5-2.53V9A2.58 2.58 0 0 1 6 6.5h12.25A2.53 2.53 0 0 1 20.78 9v6.85a2.48 2.48 0 0 1-2.39 2.53H6zM6 7.5A1.56 1.56 0 0 0 4.5 9v6.88A1.54 1.54 0 0 0 6 17.4h12.37a1.47 1.47 0 0 0 1.41-1.52V9a1.52 1.52 0 0 0-1.53-1.5H6z"/><path d="M9.89 16a.74.74 0 0 1-.75-.75V9.62a.75.75 0 1 1 1.5 0v5.66a.75.75 0 0 1-.75.72z"/><path d="M15.77 16a.75.75 0 0 1-.75-.75V9.62a.75.75 0 0 1 1.5 0v5.66a.74.74 0 0 1-.75.72z"/><path d="M7.85 15.78a.5.5 0 0 1-.5-.5V9.62a.5.5 0 0 1 .5-.5.5.5 0 0 1 .5.5v5.66a.5.5 0 0 1-.5.5z"/><path d="M13.67 15.78a.5.5 0 0 1-.5-.5V9.62a.5.5 0 0 1 .5-.5.5.5 0 0 1 .5.5v5.66a.5.5 0 0 1-.5.5z"/><path d="M17.66 15.78a.5.5 0 0 1-.5-.5V9.62a.5.5 0 0 1 .5-.5.5.5 0 0 1 .5.5v5.66a.5.5 0 0 1-.5.5z"/><path d="M11.92 15.66a.37.37 0 0 1-.37-.38V9.62a.37.37 0 0 1 .37-.38.38.38 0 0 1 .38.38v5.66a.38.38 0 0 1-.38.38z"/><path d="M6.4 15.53a.25.25 0 0 1-.25-.25V9.62a.25.25 0 0 1 .5 0v5.66a.25.25 0 0 1-.25.25z"/></svg>