<svg xmlns="http://www.w3.org/2000/svg" viewBox="0 0 24 24"><path d="M17.141 16.42h-7.028a1.446 1.446 0 0 1-1.356-1.061l-2.33-8.046a.382.382 0 0 1-.008-.039c-.313-1.176-1.076-2.801-1.802-2.801H2.981a.487.487 0 0 1 0-.973h1.636c1.486 0 2.349 2.292 2.635 3.211h11.833a1.442 1.442 0 0 1 1.444 1.459 1.786 1.786 0 0 1-.049.399l-1.924 6.81a1.446 1.446 0 0 1-1.415 1.041zM7.515 7.664l2.117 7.432c.06.208.249.351.463.351h7.026a.483.483 0 0 0 .462-.351l1.925-6.81a.346.346 0 0 0 0-.136.463.463 0 0 0-.481-.486zM11 21.002c-1.483 0-2.409-1.622-1.668-2.918a1.915 1.915 0 0 1 3.334 0c.17.295.258.631.258.972A1.934 1.934 0 0 1 11 21.002zm0-2.918c-.741 0-1.205.81-.834 1.459a.956.956 0 0 0 1.666 0 .976.976 0 0 0 .13-.487.967.967 0 0 0-.962-.972zm5.39 2.918c-1.483 0-2.409-1.622-1.668-2.918a1.916 1.916 0 0 1 3.335 0c.17.295.257.631.257.972a1.934 1.934 0 0 1-1.924 1.946zm0-2.918c-.742 0-1.204.81-.834 1.459a.957.957 0 0 0 1.667 0 .975.975 0 0 0 .129-.487.968.968 0 0 0-.962-.972zm-2.946-4.291a.484.484 0 0 1-.481-.487v-1.459h-1.444a.483.483 0 0 1-.481-.486c0-.269.215-.486.481-.486h1.444v-1.46c0-.268.216-.486.481-.486.266 0 .482.218.482.486v1.46h1.443c.266 0 .481.217.481.486a.491.491 0 0 1-.481.486h-1.443v1.459a.494.494 0 0 1-.482.487z"/></svg>