<svg xmlns="http://www.w3.org/2000/svg" viewBox="0 0 24 24"><path d="M18 10.58h-3.5v-5.5a2.5 2.5 0 0 0-2.5-2.5H6a2.5 2.5 0 0 0-2.5 2.5v16.5h17v-8.5a2.5 2.5 0 0 0-2.5-2.5zM4.5 5.08A1.5 1.5 0 0 1 6 3.58h6a1.5 1.5 0 0 1 1.5 1.5v15.5h-2v-3.5a2.5 2.5 0 0 0-5 0v3.5h-2zm6 15.5h-3v-3.5a1.5 1.5 0 0 1 3 0zm9 0h-5v-9H18a1.5 1.5 0 0 1 1.5 1.5z"/><path d="M9.25 11.08a.78.78 0 0 1-1-.49.67.67 0 0 1 0-.24.5.5 0 1 0-1 0 1.71 1.71 0 0 0 .09.55A1.77 1.77 0 0 0 8.5 12v.22a.5.5 0 0 0 1 0V12h.07a1.79 1.79 0 0 0 1.2-1.73A1.5 1.5 0 0 0 9.94 9l-1.4-.7a.55.55 0 0 1-.31-.51.72.72 0 0 1 .42-.67A.94.94 0 0 1 9 7a.77.77 0 0 1 .54.22.76.76 0 0 1 .23.55.5.5 0 0 0 .5.5.5.5 0 0 0 .5-.5 1.76 1.76 0 0 0-.53-1.26 1.68 1.68 0 0 0-.74-.43v-.19a.5.5 0 0 0-1 0v.22a1.45 1.45 0 0 0-.29.11 1.74 1.74 0 0 0-1 1.58 1.54 1.54 0 0 0 .88 1.4l1.39.67a.49.49 0 0 1 .27.44.8.8 0 0 1-.5.77z"/></svg>