<svg xmlns="http://www.w3.org/2000/svg" viewBox="0 0 24 24"><path d="M17.69 4.516H6.48a2 2 0 0 0-2.05 2v8.49a2 2 0 0 0 2 2h3.32a2.412 2.412 0 0 1-2.12 1.72H7.5c-.06 0-.06.06-.12.06-.07.06-.07.06-.07.13s0 .06-.06.12v.07c0 .06 0 .06.06.13a.15.15 0 0 0 .13.13l.13.12h9a.13.13 0 0 0 .13-.12c.07-.07.07-.07.07-.13s0-.13.06-.13a.221.221 0 0 0-.06-.19.15.15 0 0 0-.13-.13c-.07-.06-.07-.06-.13-.06h-.19a2.669 2.669 0 0 1-2.09-1.72h3.27a2 2 0 0 0 2.05-2v-8.46a1.75 1.75 0 0 0-1.47-2 1.6 1.6 0 0 0-.39-.03zm-3.2 14.28H9.75a3.628 3.628 0 0 0 1-1.71h2.76a3.28 3.28 0 0 0 1 1.71zm4.36-3.62a1.09 1.09 0 0 1-1.09 1H6.48a1 1 0 0 1-1.09-1zm0-8.63v7.68H5.39v-7.68c0-.63.51-1.14 1.14-1.14h11.23a1.18 1.18 0 0 1 1.09 1.14z"/></svg>