<svg xmlns="http://www.w3.org/2000/svg" viewBox="0 0 24 24"><path d="M5.885 11.7a1.64 1.64 0 0 1-.122-.004 2.29 2.29 0 0 0-2.278 2.134.5.5 0 0 1-.5.47.5.5 0 0 1-.47-.53 3.269 3.269 0 0 1 1.861-2.757A1.99 1.99 0 0 1 4.153 8.7c.77-1.333 2.694-1.333 3.464 0a1.998 1.998 0 0 1-.226 2.317c.389.176.747.423 1.054.733a.502.502 0 0 1-.72.7 2.414 2.414 0 0 0-1.768-.751l-.061.001h-.011zm0-3a1 1 0 0 0-.071 1.998l.091.002h.003a.991.991 0 0 0 .843-.5 1 1 0 0 0-.866-1.5zm12.2 3l-.09-.002a2.44 2.44 0 0 0-1.75.752.502.502 0 1 1-.72-.7 3.455 3.455 0 0 1 1.047-.741 1.99 1.99 0 0 1-.219-2.309c.77-1.333 2.694-1.333 3.464 0a1.995 1.995 0 0 1-.212 2.3 3.26 3.26 0 0 1 1.88 2.77.5.5 0 0 1-.47.53h-.03a.5.5 0 0 1-.5-.47 2.29 2.29 0 0 0-2.377-2.13h-.023zm0-3a1 1 0 1 0 .01 2l.055-.002a.988.988 0 0 0 .801-.498 1 1 0 0 0-.866-1.5zm-6.1 4.2c-.077 0-.154-.003-.229-.008a4.25 4.25 0 0 0-4.271 3.938.49.49 0 0 1-.5.47.5.5 0 0 1-.47-.53 5.244 5.244 0 0 1 3.49-4.581C8.913 11.277 8.494 9.646 9.3 8.25c1.194-2.067 4.176-2.067 5.37 0a3.1 3.1 0 0 1-.701 3.932 5.21 5.21 0 0 1 3.486 4.588.5.5 0 0 1-.47.53.5.5 0 0 1-.5-.47 4.23 4.23 0 0 0-4.26-3.939 3.168 3.168 0 0 1-.24.009zm0-5.2c-1.617 0-2.627 1.75-1.819 3.15a2.076 2.076 0 0 0 1.977 1.044 2.076 2.076 0 0 0 1.661-1.044 2.101 2.101 0 0 0-1.819-3.15z"/></svg>