<svg xmlns="http://www.w3.org/2000/svg" viewBox="0 0 24 24"><circle cx="11.97" cy="17.61" r="1.39"/><path d="M22.5 9.88a.47.47 0 0 1-.35-.15 14.39 14.39 0 0 0-20.3-.06.5.5 0 0 1-.7 0 .5.5 0 0 1 0-.71 15.38 15.38 0 0 1 21.7.04.5.5 0 0 1 0 .71.49.49 0 0 1-.35.17z"/><path d="M19.92 12.47a.54.54 0 0 1-.36-.14 10.77 10.77 0 0 0-15.12-.06.51.51 0 0 1-.71-.72 11.8 11.8 0 0 1 16.54.07.5.5 0 0 1-.35.85z"/><path d="M17.27 15.19a.46.46 0 0 1-.35-.14A7 7 0 0 0 7.15 15a.5.5 0 1 1-.7-.72 8 8 0 0 1 11.17.07.5.5 0 0 1-.35.85z"/></svg>