<svg xmlns="http://www.w3.org/2000/svg" viewBox="0 0 24 24"><defs><style></style></defs><path d="M9.9 13h-.8A1.1 1.1 0 0 0 8 14.1v2.3a1.1 1.1 0 0 0 1.1 1.1h.8a1.1 1.1 0 0 0 1.1-1.1v-2.3A1.1 1.1 0 0 0 9.9 13zm.1 3.4a.09.09 0 0 1-.1.1h-.8a.1.1 0 0 1-.1-.1v-2.3a.1.1 0 0 1 .1-.1h.8a.09.09 0 0 1 .1.1zm9.6-13.9H7.4A1.4 1.4 0 0 0 6 3.9l-.35.13-1.76.66a1.44 1.44 0 0 0-.83 1.76l2 6.8 1 3.3v3.55a1.4 1.4 0 0 0 1.4 1.4H19.6a1.4 1.4 0 0 0 1.4-1.4V3.9a1.4 1.4 0 0 0-1.4-1.4zM6 13L4 6.2a.46.46 0 0 1 .22-.54L6 5zm14 7.1a.4.4 0 0 1-.4.4H7.4a.4.4 0 0 1-.4-.4V3.9a.4.4 0 0 1 .4-.4h12.2a.4.4 0 0 1 .4.4zM17.9 6.5h-.8A1.1 1.1 0 0 0 16 7.6v8.8a1.1 1.1 0 0 0 1.1 1.1h.8a1.1 1.1 0 0 0 1.1-1.1V7.6a1.1 1.1 0 0 0-1.1-1.1zm.1 9.9a.09.09 0 0 1-.1.1h-.8a.1.1 0 0 1-.1-.1V7.6a.1.1 0 0 1 .1-.1h.8a.09.09 0 0 1 .1.1zm-4.1-6.9h-.8a1.1 1.1 0 0 0-1.1 1.1v5.8a1.1 1.1 0 0 0 1.1 1.1h.8a1.1 1.1 0 0 0 1.1-1.1v-5.8a1.1 1.1 0 0 0-1.1-1.1zm.1 6.9a.09.09 0 0 1-.1.1h-.8a.1.1 0 0 1-.1-.1v-5.8a.1.1 0 0 1 .1-.1h.8a.09.09 0 0 1 .1.1z"/></svg>