<svg xmlns="http://www.w3.org/2000/svg" viewBox="0 0 24 24"><path d="M3.25 19.05a1.77 1.77 0 0 1-1.75-1.76v-8.4a1.77 1.77 0 0 1 1.75-1.76h11.6c.972 0 1.76.788 1.76 1.76v8.4a1.87 1.87 0 0 1-1.8 1.76zm11.6-10.92H3.25a.76.76 0 0 0-.75.76v1.44h13.11V8.89a.76.76 0 0 0-.76-.76zM2.5 17.29a.77.77 0 0 0 .76.76h11.53a.86.86 0 0 0 .82-.8v-5.92H2.5zm11.67-4.08H3.94a.5.5 0 0 1-.5-.5.51.51 0 0 1 .5-.5h10.23a.51.51 0 0 1 .5.5.5.5 0 0 1-.5.5zm-5.4 1.95H3.94a.51.51 0 0 1-.5-.5.5.5 0 0 1 .5-.5h4.83a.5.5 0 0 1 0 1zm10.98 1.25H18a.51.51 0 0 1-.5-.5.5.5 0 0 1 .5-.5h1.75a.76.76 0 0 0 .75-.76V8.64h-2.67a.5.5 0 0 1 0-1h2.67V6.25a.76.76 0 0 0-.76-.75H8.15a.64.64 0 0 0-.71.5.5.5 0 0 1-.6.38.49.49 0 0 1-.38-.59A1.61 1.61 0 0 1 8.19 4.5h11.56a1.76 1.76 0 0 1 1.75 1.75v8.4a1.76 1.76 0 0 1-1.75 1.76zm-.63-5.89h-1.29a.5.5 0 0 1 0-1h1.29a.5.5 0 0 1 0 1z"/></svg>