<svg xmlns="http://www.w3.org/2000/svg" viewBox="0 0 24 24"><path d="M4 13.44a5.06 5.06 0 0 0 5.05 5.06H19a.38.38 0 1 0 0-.75H9a4.32 4.32 0 0 1 0-8.63h9.67l-4 2.3a.39.39 0 0 0-.19.38.38.38 0 0 0 .46.31.17.17 0 0 0 .1 0l5.27-3a.5.5 0 0 0 .06-.69l-.06-.06-5.25-2.94a.38.38 0 0 0-.52.12.38.38 0 0 0 .11.52l4 2.3H9.06a5.06 5.06 0 0 0-5.06 5z"/><path d="M19 18.6H9a5.16 5.16 0 0 1-5.1-5.16 5.16 5.16 0 0 1 5.16-5.16h9.28l-3.7-2.11a.47.47 0 0 1 .51-.8l5.27 2.95a.3.3 0 0 1 .08.08.58.58 0 0 1-.07.83l-5.28 3h-.13a.48.48 0 0 1-.37-.07.51.51 0 0 1-.21-.32.48.48 0 0 1 .24-.48l3.7-2.12H9.06a4.22 4.22 0 1 0 0 8.43H19a.48.48 0 1 1 0 1zM9.06 8.48a5 5 0 0 0-5 4.95 5 5 0 0 0 5 5H19a.28.28 0 1 0 0-.55H9A4.42 4.42 0 0 1 9 9h10.09l-4.35 2.49a.27.27 0 0 0 0 .46.29.29 0 0 0 .22 0L15 12l5.26-3a.42.42 0 0 0 .12-.26.37.37 0 0 0-.09-.28v-.05L15 5.51a.29.29 0 0 0-.39.08.28.28 0 0 0 .09.38l4.35 2.49z"/></svg>