<svg xmlns="http://www.w3.org/2000/svg" viewBox="0 0 24 24"><path d="M20.5 13.44a5.06 5.06 0 0 1-5.05 5.06h-10a.38.38 0 1 1 0-.75h10a4.32 4.32 0 0 0 0-8.63H5.79l4 2.3a.39.39 0 0 1 .19.38.38.38 0 0 1-.46.31.17.17 0 0 1-.1 0l-5.27-3a.5.5 0 0 1-.06-.69l.06-.06 5.29-2.94a.38.38 0 0 1 .52.12.38.38 0 0 1-.11.52l-4 2.3h9.65a5.06 5.06 0 0 1 5.06 5z"/><path d="M15.45 18.6h-10a.48.48 0 1 1 0-1h10a4.22 4.22 0 0 0 0-8.43H6.16l3.7 2.12a.48.48 0 0 1 .24.48.51.51 0 0 1-.21.32.48.48 0 0 1-.37.07H9.4l-5.28-3a.62.62 0 0 1-.22-.36.6.6 0 0 1 .1-.43l.07-.07 5.28-3a.47.47 0 1 1 .51.8h-.05L6.16 8.28h9.28a5.16 5.16 0 0 1 5.16 5.15 5.16 5.16 0 0 1-5.15 5.16zm-10-.75a.28.28 0 1 0 0 .55h10a5 5 0 0 0 5-5 5 5 0 0 0-5-4.95h-10L9.76 6a.31.31 0 0 0 .12-.18.26.26 0 0 0 0-.21.29.29 0 0 0-.39-.08l-5.27 3a.37.37 0 0 0-.09.28.4.4 0 0 0 .14.27L9.49 12h.07a.3.3 0 0 0 .22 0 .27.27 0 0 0 0-.46L5.41 9h10a4.42 4.42 0 1 1 0 8.83h-10z"/></svg>