<svg xmlns="http://www.w3.org/2000/svg" viewBox="0 0 24 24"><defs><clipPath id="a"><rect width="24" height="24"/></clipPath></defs><path d="M19.34 12.77a.5.5 0 0 1-.48-.52A6.8 6.8 0 0 0 5.58 9.91a.51.51 0 0 1-.63.32.49.49 0 0 1-.32-.63 7.84 7.84 0 0 1 7.68-5.38 7.82 7.82 0 0 1 7.53 8.07.5.5 0 0 1-.5.48z"/><path d="M5.1 10.25a.44.44 0 0 1-.22-.05.48.48 0 0 1-.25-.29L3.8 7.44a.51.51 0 0 1 .32-.63.49.49 0 0 1 .63.31l.67 2 2-.7a.51.51 0 0 1 .64.3.5.5 0 0 1-.3.64l-2.47.88z"/><path d="M12 19.8h-.26a7.78 7.78 0 0 1-7.51-8 .49.49 0 0 1 .51-.48.5.5 0 0 1 .49.51 6.76 6.76 0 0 0 6.55 7 6.84 6.84 0 0 0 6.66-4.65.49.49 0 0 1 .63-.32.5.5 0 0 1 .32.63A7.84 7.84 0 0 1 12 19.8z"/><path d="M19.82 17.27a.5.5 0 0 1-.47-.33l-.71-2-2 .71a.51.51 0 0 1-.64-.31.5.5 0 0 1 .3-.64l2.47-.87a.58.58 0 0 1 .39 0 .51.51 0 0 1 .25.29l.87 2.47a.49.49 0 0 1-.3.63.51.51 0 0 1-.16.05z"/><path d="M11.91 16.05a2.16 2.16 0 0 1-2.06-1.51 2.19 2.19 0 0 1-.11-.67.5.5 0 1 1 1 0 1 1 0 0 0 .06.36 1.17 1.17 0 0 0 1.48.76 1.19 1.19 0 0 0 .78-1.15.8.8 0 0 0-.45-.72l-1.82-.88a1.85 1.85 0 0 1-1-1.7 2.11 2.11 0 0 1 1.15-1.93 2.45 2.45 0 0 1 .95-.23 2.23 2.23 0 0 1 2.22 2.17.5.5 0 0 1-.5.5.53.53 0 0 1-.5-.49 1.2 1.2 0 0 0-1.19-1.18 1.33 1.33 0 0 0-.51.13 1.11 1.11 0 0 0-.6 1 .86.86 0 0 0 .48.81l1.82.87a1.83 1.83 0 0 1 1 1.62 2.2 2.2 0 0 1-1.46 2.11 2.37 2.37 0 0 1-.74.13z"/><path d="M11.88 16.92a.51.51 0 0 1-.5-.5v-.88a.51.51 0 0 1 .5-.5.5.5 0 0 1 .5.5v.88a.5.5 0 0 1-.5.5z"/><path d="M11.88 9.38a.5.5 0 0 1-.5-.5V8a.51.51 0 0 1 .5-.5.5.5 0 0 1 .5.5v.84a.5.5 0 0 1-.5.54z"/></svg>