<svg xmlns="http://www.w3.org/2000/svg" viewBox="0 0 24 24"><path d="M14.2 7.09a6.28 6.28 0 0 0-3 .75 6.05 6.05 0 0 0-.2-.63 5.36 5.36 0 0 1-.15-1.91.52.52 0 0 0-.13-.39.47.47 0 0 0-.34-.15V3.12h.18a.43.43 0 1 0 0-.85H4a.43.43 0 0 0 0 .85h1.47v1.64A.47.47 0 0 0 5 5.3a5.48 5.48 0 0 1-.13 1.83A10.17 10.17 0 0 0 4 11.41v9.23a1 1 0 0 0 1 1.16h5.91a1 1 0 0 0 .92-1.13v-1.45a6.19 6.19 0 0 0 2.4.48 6.31 6.31 0 0 0 0-12.61zm-7.78-4h3v1.66h-3zm4.38 17.6v.11l-5.8.03a.51.51 0 0 1 0-.16V11.4a9.29 9.29 0 0 1 .79-3.94A6.17 6.17 0 0 0 6 5.75h3.79A7 7 0 0 0 10 7.53a7.43 7.43 0 0 1 .32.88 6.29 6.29 0 0 0 .48 10.29zm3.4-2a5.31 5.31 0 1 1 5.3-5.31 5.31 5.31 0 0 1-5.3 5.32z"/><path d="M16.75 12.89H14.7v-2.06a.51.51 0 0 0-.5-.5.5.5 0 0 0-.5.5v2.06h-2.06a.5.5 0 0 0-.5.5.5.5 0 0 0 .5.5h2.06V16a.5.5 0 0 0 .5.5.5.5 0 0 0 .5-.5v-2.11h2.05a.5.5 0 0 0 .5-.5.5.5 0 0 0-.5-.5z"/></svg>