<svg xmlns="http://www.w3.org/2000/svg" viewBox="0 0 24 24"><path d="M13.73 20.31H6.58A1.55 1.55 0 0 1 5 18.8V6a1.56 1.56 0 0 1 1.55-1.5h7.12A1.55 1.55 0 0 1 15.24 6v.22h3.26a.73.73 0 0 1 .77.71v7.63a.75.75 0 0 1-.71.77h-3.32v3.46a1.52 1.52 0 0 1-1.51 1.52zm.36-1.16a.479.479 0 0 0 .15-.36V6a.54.54 0 0 0-.56-.52h-7.1A.55.55 0 0 0 6 6v12.79a.57.57 0 0 0 .56.52h6.136v-.003h1.076a.522.522 0 0 0 .318-.157zm-1.73-7.58H7.94A1.51 1.51 0 0 1 6.5 10V7.75a1.5 1.5 0 0 1 1.43-1.53h4.42a1.5 1.5 0 0 1 1.44 1.54V10a1.47 1.47 0 0 1-1.42 1.53zM8 7.22a.49.49 0 0 0-.45.51v2.32a.49.49 0 0 0 .47.52h4.36a.48.48 0 0 0 .46-.51V7.74a.49.49 0 0 0-.51-.52zm10.27 7.11V7.22h-.88v7.11zm-3.03-7.11v7.11h1.15V7.22zM7.7 13.81a.71.71 0 0 1-.7-.7.72.72 0 0 1 .7-.7.71.71 0 0 1 .7.7.7.7 0 0 1-.7.7zm0 2.26a.71.71 0 0 1-.7-.7.72.72 0 0 1 .7-.7.71.71 0 0 1 .7.7.7.7 0 0 1-.7.7zm0 2.21a.72.72 0 0 1-.7-.7.71.71 0 0 1 .7-.7.7.7 0 0 1 .7.7.71.71 0 0 1-.7.7zm2.42-4.47a.71.71 0 0 1-.7-.7.72.72 0 0 1 .7-.7.71.71 0 0 1 .7.7.7.7 0 0 1-.7.7zm0 2.26a.71.71 0 0 1-.7-.7.72.72 0 0 1 .7-.7.71.71 0 0 1 .7.7.7.7 0 0 1-.7.7zm0 2.21a.72.72 0 0 1-.7-.7.71.71 0 0 1 .7-.7.7.7 0 0 1 .7.7.71.71 0 0 1-.7.7zm2.47-4.47a.71.71 0 0 1-.7-.7.72.72 0 0 1 .7-.7.71.71 0 0 1 .7.7.7.7 0 0 1-.7.7zm0 2.26a.71.71 0 0 1-.7-.7.72.72 0 0 1 .7-.7.71.71 0 0 1 .7.7.7.7 0 0 1-.7.7zm0 2.21a.72.72 0 0 1-.7-.7.71.71 0 0 1 .7-.7.7.7 0 0 1 .7.7.71.71 0 0 1-.7.7z"/></svg>