<svg xmlns="http://www.w3.org/2000/svg" viewBox="0 0 24 24"><path d="M11.89 9.41a.85.85 0 0 1-1.69 0 .85.85 0 0 1 .85-.85.84.84 0 0 1 .84.83m4.55.02a.85.85 0 0 1-1.69 0 .85.85 0 0 1 .85-.85.8.8 0 0 1 .84.76v.09M8.35 20.92a2.1 2.1 0 0 1-2.09-2.09 2.08 2.08 0 0 1 2.09-2.09 2.09 2.09 0 0 1 0 4.18zm-1.09-2.09a1.09 1.09 0 1 0 2.17 0 1.08 1.08 0 0 0-1.08-1.09 1.09 1.09 0 0 0-1.09 1.09zm8.07 2.09a2.12 2.12 0 0 1-2.08-2.08 2.09 2.09 0 1 1 2.08 2.09zm-1.08-2.1a1.13 1.13 0 0 0 1.1 1.1 1.09 1.09 0 1 0-1.1-1.1zm-.91-4.15a3.69 3.69 0 0 1-3.51-2.51.5.5 0 0 1 .94-.32 2.71 2.71 0 0 0 2.57 1.83A2.77 2.77 0 0 0 16 11.83a.49.49 0 0 1 .64-.3.5.5 0 0 1 .3.64 3.77 3.77 0 0 1-3.54 2.5z"/><path d="M11.84 19a7.91 7.91 0 0 1-2.15-.3.49.49 0 0 1-.34-.61.5.5 0 0 1 .61-.35 6.86 6.86 0 0 0 3.76 0 .5.5 0 0 1 .61.35.49.49 0 0 1-.34.61 7.91 7.91 0 0 1-2.15.3z"/><path d="M16.44 18.11a.5.5 0 0 1-.18-1 6.9 6.9 0 0 0 3.9-4 6.11 6.11 0 0 0-.84-5.62 7.71 7.71 0 0 0-7-3c-2.56.41-5.54 2.18-6.13 5.22A10.29 10.29 0 0 0 6 11.07c-.12 1.66-.27 3.67-2.3 3.94a6.42 6.42 0 0 0 2.51 1.76 4.86 4.86 0 0 0 1 .35.52.52 0 0 1 .35.62.5.5 0 0 1-.61.35 6.2 6.2 0 0 1-1.09-.4 7.47 7.47 0 0 1-3.2-2.42.53.53 0 0 1-.06-.1 1.15 1.15 0 0 1-.1-.48.43.43 0 0 1 .06-.22.74.74 0 0 1 .71-.47c1.32 0 1.6-.76 1.77-3a10.83 10.83 0 0 1 .17-1.48C5.89 6 9.28 4 12.14 3.57a8.68 8.68 0 0 1 8 3.37 7 7 0 0 1 1 6.55 7.91 7.91 0 0 1-4.47 4.58.41.41 0 0 1-.23.04zM3.27 15z"/></svg>