<svg xmlns="http://www.w3.org/2000/svg" viewBox="0 0 24 24"><path d="M19.3 8.54a.27.27 0 0 0-.3.22v13.08a.65.65 0 0 1-.6.6H5.3a.65.65 0 0 1-.6-.6v-3a.26.26 0 0 0-.22-.3H4.4c-.2 0-.4.1-.4.2v3A1.32 1.32 0 0 0 5.3 23h13.1a1.32 1.32 0 0 0 1.3-1.3v-13a.49.49 0 0 0-.4-.16z"/><path d="M15.6 10.54a.86.86 0 0 0-.3-.9l-2.8-2.3a1.2 1.2 0 0 0-1.4 0l-2.8 2.4a1.12 1.12 0 0 0-.3.8 1.05 1.05 0 0 0 .6.7c.1 0 .2.1.4.1l-1.1.9a.8.8 0 0 0-.3.9 1 1 0 0 0 .7.7c.1 0 .2 0 .2.1l-1 .8a.9.9 0 0 0-.3 1 1 1 0 0 0 .7.8 21.75 21.75 0 0 0 2.4.5l-.3 1.4a.78.78 0 0 0 .6.9 5.36 5.36 0 0 0 1.2.1 5.36 5.36 0 0 0 1.2-.1.78.78 0 0 0 .6-.9l-.2-1.3a21.75 21.75 0 0 0 2.4-.5 1.09 1.09 0 0 0 .66-1.39.93.93 0 0 0-.26-.41l-1-.8c.1 0 .2 0 .2-.1a1.21 1.21 0 0 0 .7-.7 1 1 0 0 0-.3-.9l-1.1-.9c.1 0 .2-.1.4-.1a1.61 1.61 0 0 0 .5-.8zm-2.7 8.1a7.39 7.39 0 0 1-2.1 0 .1.1 0 0 1-.1-.1l.2-1.4h1.8l.3 1.4zm2.8-3.3c.1.1.2.2.1.4s-.1.2-.3.3a12.19 12.19 0 0 1-2.6.5h-.1a8.1 8.1 0 0 1-2.2 0h-.1A11 11 0 0 1 7.9 16q-.15 0-.3-.3c-.1-.2 0-.3.1-.4l1.4-1.1a10.57 10.57 0 0 0 5 0zm-.4-2.6a.37.37 0 0 1 .1.3.22.22 0 0 1-.2.2 2.41 2.41 0 0 1-.8.2 11 11 0 0 1-5.1 0c-.3-.1-.5-.1-.8-.2a.2.2 0 0 1-.2-.2.37.37 0 0 1 .1-.3l1.5-1.2a14.89 14.89 0 0 0 2 .2 14.89 14.89 0 0 0 2-.2zm-.3-2.3s0 .1-.2.2a3.09 3.09 0 0 1-.9.2 9.45 9.45 0 0 1-4.1 0 3.78 3.78 0 0 1-1-.2.22.22 0 0 1-.2-.2.3.3 0 0 1 .1-.2l2.8-2.4a.45.45 0 0 1 .5 0l2.8 2.4c.2.1.2.2.2.2zm-6.5-4.8a.45.45 0 0 0-.5 0l-.5.6-.6-.6a.45.45 0 0 0-.5 0 .45.45 0 0 0 0 .5l.6.5-.5.6a.45.45 0 0 0 0 .5c.1.1.1.1.2.1s.2 0 .2-.1l.5-.5.6.4c.1.1.1.1.2.1s.2 0 .2-.1a.45.45 0 0 0 0-.5l-.5-.5.5-.5c.2-.2.2-.4.1-.5zm7.6 2.7c.1.1.1.1.2.1s.2 0 .2-.1l.5-.5.5.5c.1.1.1.1.2.1s.2 0 .2-.1a.45.45 0 0 0 0-.5l-.5-.5.5-.5a.45.45 0 0 0 0-.5.45.45 0 0 0-.5 0l-.5.5-.5-.5a.45.45 0 0 0-.5 0 .45.45 0 0 0 0 .5l.5.5-.5.5c.1.1.1.3.2.5z"/><path d="M18.4 3.44v-1a1.63 1.63 0 0 0-.5-1.1A1.13 1.13 0 0 0 16.8 1L5 3.54a1.18 1.18 0 0 0-1 1.2v12.1a.27.27 0 0 0 .22.3h.08a.27.27 0 0 0 .3-.23V4.74a.65.65 0 0 1 .6-.6h13.1a.65.65 0 0 1 .6.6v2.1a.3.3 0 0 0 .6 0v-2.1a1.11 1.11 0 0 0-.9-1.29zm-.6 0H8.3l8.6-1.8a1.23 1.23 0 0 1 .6.1.61.61 0 0 1 .3.6zm-9.3 15.1a.45.45 0 0 0-.5 0l-.5.5-.5-.5a.45.45 0 0 0-.5 0 .45.45 0 0 0 0 .5l.5.5-.5.5a.45.45 0 0 0 0 .5c.1.1.1.1.2.1s.2 0 .2-.1l.5-.5.6.5c.1.1.1.1.2.1s.2 0 .2-.1a.45.45 0 0 0 0-.5l-.5-.5.5-.5c.2-.2.2-.4.1-.5z"/><path d="M6 13a.45.45 0 0 0-.5 0 .45.45 0 0 0 0 .5l.3.3-.3.2a.45.45 0 0 0 0 .5c.1.1.1.1.2.1s.2 0 .2-.1l.3-.3.3.3c.1.1.1.1.2.1s.2 0 .2-.1a.45.45 0 0 0 0-.5l-.3-.3.4-.3a.45.45 0 0 0 0-.5.45.45 0 0 0-.5 0l-.3.3zm11.7-.86c.1 0 .2 0 .2-.1a.45.45 0 0 0 0-.5l-.3-.3.4-.3a.45.45 0 0 0 0-.5.45.45 0 0 0-.5 0l-.3.3-.3-.3a.45.45 0 0 0-.5 0 .45.45 0 0 0 0 .5l.3.3-.3.3a.45.45 0 0 0 0 .5c.1.1.1.1.2.1s.2 0 .2-.1l.3-.3.3.3a.41.41 0 0 1 .3.1zm-2.3 7.3c.1.1.1.1.2.1s.2 0 .2-.1l.5-.5.5.5c.1.1.1.1.2.1s.2 0 .2-.1a.45.45 0 0 0 0-.5l-.5-.5.5-.5a.35.35 0 0 0-.5-.5l-.3.6-.5-.5a.35.35 0 0 0-.5.5l.5.5-.5.5a.25.25 0 0 0 0 .32.12.12 0 0 1 0 .08z"/></svg>