<svg xmlns="http://www.w3.org/2000/svg" viewBox="0 0 24 24"><path d="M19 20a1 1 0 0 0 1-1V9a1.05 1.05 0 0 0-.29-.71l-4.05-4A1 1 0 0 0 15 4H5a1 1 0 0 0-1 1v14a1 1 0 0 0 1 1zm0 1H5a2 2 0 0 1-2-2V5a2 2 0 0 1 2-2h10c.528 0 1.035.208 1.41.58l4.05 4c.36.384.554.894.54 1.42v10a2 2 0 0 1-2 2zM14 9H6a1 1 0 0 1-1-1V6a1 1 0 0 1 1-1h8a1 1 0 0 1 1 1v2a1 1 0 0 1-1 1zM6 6v2h8V6zm6 12c-2.309 0-3.753-2.5-2.598-4.5 1.155-2 4.041-2 5.196 0A3 3 0 0 1 12 18zm0-5c-1.54 0-2.502 1.667-1.732 3 .77 1.333 2.694 1.333 3.464 0A2 2 0 0 0 12 13z"/></svg>