<svg xmlns="http://www.w3.org/2000/svg" viewBox="0 0 24 24"><path d="M6.67 14.84a.474.474 0 0 1-.67.67l-2.73-2.77A1.416 1.416 0 0 1 3 12a1 1 0 0 1 .34-.73l2.79-2.76a.53.53 0 0 1 .74 0c.06.14.13.2.13.34a.513.513 0 0 1-.16.33l-2.29 2.3h8.22a.5.5 0 0 1 .46.54.54.54 0 0 1-.54.53H4.55zM17 4a2.07 2.07 0 0 1 2 2.15v11.71A2.169 2.169 0 0 1 16.8 20h-6.66a2.18 2.18 0 0 1-2.15-2.14v-2.3a.49.49 0 0 1 .54-.45.53.53 0 0 1 .53.53v2.23A1.13 1.13 0 0 0 10.2 19h6.68A1.15 1.15 0 0 0 18 17.86V6.13A1.14 1.14 0 0 0 16.86 5h-6.68a1.13 1.13 0 0 0-1.13 1.15v2.29a.47.47 0 0 1-.53.47.52.52 0 0 1-.52-.53V6.15A2.23 2.23 0 0 1 10.2 4z"/></svg>