<svg xmlns="http://www.w3.org/2000/svg" viewBox="0 0 24 24"><path d="M9.73 11.65a3.58 3.58 0 1 1 3.58-3.57 3.57 3.57 0 0 1-3.58 3.57zm0-6.15a2.58 2.58 0 1 0 2.58 2.58A2.58 2.58 0 0 0 9.73 5.5z"/><path d="M4 17.33a.5.5 0 0 1-.5-.5 6.21 6.21 0 0 1 6.23-6.23A6.21 6.21 0 0 1 16 16.83h-1a5.22 5.22 0 0 0-5.27-5.23 5.22 5.22 0 0 0-5.23 5.23.5.5 0 0 1-.5.5z"/><path d="M16.46 10.5a2.38 2.38 0 1 1 2.37-2.37 2.38 2.38 0 0 1-2.37 2.37zm0-3.75a1.38 1.38 0 1 0 1.37 1.38 1.38 1.38 0 0 0-1.37-1.38z"/><path d="M20 14a.5.5 0 0 1-.5-.51 3 3 0 0 0-5.23-2.06.49.49 0 0 1-.7 0 .5.5 0 0 1 0-.71 4 4 0 0 1 7 2.74.5.5 0 0 1-.57.54z"/></svg>