<svg xmlns="http://www.w3.org/2000/svg" viewBox="0 0 24 24"><path d="M12.73 11.19a1.55 1.55 0 0 0 .37 0 2.14 2.14 0 1 0-2.48-1.73 2.15 2.15 0 0 0 2.11 1.73zm-.94-2.8a1.14 1.14 0 0 1 .74-.47h.2a1.15 1.15 0 0 1 1.13.94 1.14 1.14 0 0 1-2.25.39 1.11 1.11 0 0 1 .18-.86z"/><path d="M20.54 9a2.13 2.13 0 0 0-1.46-.85l-2.74-.35-.17-1a2.26 2.26 0 0 0-.92-1.44A2.11 2.11 0 0 0 13.6 5L4.78 6.59A2.23 2.23 0 0 0 3 9.21l1.11 6.27a2.21 2.21 0 0 0 .91 1.44 2.15 2.15 0 0 0 1.26.41 1.72 1.72 0 0 0 .39 0l.81-.14a2.13 2.13 0 0 0 1.32.69L17.77 19H18a2.12 2.12 0 0 0 1.33-.47 2.23 2.23 0 0 0 .8-1.45l.82-6.4A2.22 2.22 0 0 0 20.54 9zM4 9a1.23 1.23 0 0 1 1-1.42L13.78 6H14a1.19 1.19 0 0 1 .67.22 1.31 1.31 0 0 1 .52.81l1.11 6.34-1.46-1.09a2.14 2.14 0 0 0-1.65-.38 2.25 2.25 0 0 0-1.44.9l-.21.28-2.41-1.8a2.23 2.23 0 0 0-3.1.52l-1.22 1.67zm2.51 7.28a1.18 1.18 0 0 1-.89-.2 1.26 1.26 0 0 1-.51-.81L5 14.82l1.8-2.39a1.21 1.21 0 0 1 1.69-.31l3.5 2.6.59-.8-.28-.21.21-.28a1.23 1.23 0 0 1 .81-.51 1.12 1.12 0 0 1 .89.2L16 14.41a1.18 1.18 0 0 1-.58.34zm12.66.72a1.24 1.24 0 0 1-.44.8 1.06 1.06 0 0 1-.83.24l-8.78-1.17 6.45-1.14a2.18 2.18 0 0 0 1.72-2.54l-.76-4.32 2.47.32a1.09 1.09 0 0 1 .79.45 1.26 1.26 0 0 1 .25.92z"/></svg>