<svg xmlns="http://www.w3.org/2000/svg" viewBox="0 0 24 24"><path d="M12.008 22.5c-8.083 0-13.135-8.75-9.093-15.75 4.041-7 14.145-7 18.186 0A10.496 10.496 0 0 1 22.508 12c-.006 5.797-4.703 10.494-10.5 10.5zm0-20C4.695 2.5.124 10.417 3.781 16.75c3.656 6.333 12.798 6.333 16.454 0A9.497 9.497 0 0 0 21.508 12a9.511 9.511 0 0 0-9.5-9.5zm-1.267 10.302a1.48 1.48 0 0 1-.009-1.591 1.5 1.5 0 1 1 .009 1.591zM8.202 7.398a5.999 5.999 0 0 0-2.114 3.662.506.506 0 1 1-1-.16c.861-5.319 7.158-7.711 11.334-4.306a7.001 7.001 0 0 1 2.066 2.801l.34-.915a.5.5 0 1 1 .93.35l-.87 2.34a.49.49 0 0 1-.33.31l-.14.02a.47.47 0 0 1-.3-.1l-2-1.49a.51.51 0 0 1-.1-.7.5.5 0 0 1 .7-.1l.834.618c-1.475-3.593-6.149-4.957-9.35-2.33zM12.008 19a7.001 7.001 0 0 1-6.491-4.386l-.359.916a.481.481 0 0 1-.46.32h-.18a.5.5 0 0 1-.29-.65l.864-2.213a.507.507 0 0 1 .934-.237l1.882 1.43a.5.5 0 1 1-.61.79l-.791-.618c1.512 3.533 6.14 4.857 9.317 2.25a5.999 5.999 0 0 0 2.114-3.662.5.5 0 0 1 .57-.41.51.51 0 0 1 .42.57 7 7 0 0 1-5.82 5.81c-.364.06-.732.09-1.1.09z"/></svg>