<svg xmlns="http://www.w3.org/2000/svg" viewBox="0 0 24 24"><path d="M5.755 21.415a1 1 0 0 1-1-1l.71-13.4a1 1 0 0 1 1-.93h2.12a3.74 3.74 0 0 1 3.38-3.5h.12a3.75 3.75 0 0 1 3.325 3.5h2.155a1 1 0 0 1 1 .93l.68 13.38a1 1 0 0 1-.94 1H5.755zm11.77-14.33H6.445l-.66 13.36h12.46zm-5.56-3.5a2.731 2.731 0 0 0-2.392 2.5h4.836a2.76 2.76 0 0 0-2.444-2.5zm-2.92 13.64a.49.49 0 0 1-.35-.14.5.5 0 0 1 0-.71l5.9-5.79a.49.49 0 0 1 .7 0 .5.5 0 0 1 0 .71l-5.9 5.79a.498.498 0 0 1-.35.14zm.8-3.85c-1.259-.099-1.939-1.523-1.224-2.563.28-.409.73-.668 1.224-.707a1.65 1.65 0 0 1 1.66 1.61c.014.434-.153.853-.46 1.16a1.6 1.6 0 0 1-1.15.5zm0-2.27a.631.631 0 0 0-.64.65.597.597 0 0 0 .19.44.65.65 0 0 0 .46.18.597.597 0 0 0 .44-.19.65.65 0 0 0 .18-.46.63.63 0 0 0-.62-.64zm4.27 6.48h.02zm-1.15-.5a1.65 1.65 0 0 1-.5-1.15 1.67 1.67 0 0 1 .5-1.12 1.644 1.644 0 0 1 1.15-.5c1.259.099 1.939 1.523 1.224 2.563-.28.409-.729.668-1.223.707a1.618 1.618 0 0 1-1.151-.5zm1.17-1.77a.64.64 0 0 0-.46.19.63.63 0 0 0 .45 1.08.64.64 0 0 0 .63-.65.63.63 0 0 0-.61-.62z"/></svg>