<svg xmlns="http://www.w3.org/2000/svg" viewBox="0 0 24 24"><path d="M21.49 13.21a1.3 1.3 0 0 0 0-1.64l-.94-1.25c0-.08-.07-.08-.07-.15l.15-1.57a1.28 1.28 0 0 0-.86-1.4l-1.4-.62a.08.08 0 0 1-.08-.08l-.63-1.41a1.56 1.56 0 0 0-1.4-.86l-1.56.16c-.08 0-.08 0-.16-.08l-1.33-1a1.3 1.3 0 0 0-1.64 0l-1.25.94c-.08 0-.08.08-.16.08L8.6 4.15a1.48 1.48 0 0 0-1.48.78l-.63 1.49s0 .07-.07.08l-1.49.62a1.48 1.48 0 0 0-.78 1.48l.16 1.56c0 .08 0 .08-.08.16l-.94 1.25a1.3 1.3 0 0 0 0 1.64l.94 1.25c0 .08.08.08.08.16l-.16 1.56A1.29 1.29 0 0 0 5 17.59l1.41.62a.07.07 0 0 1 .07.07l.63 1.4a1.47 1.47 0 0 0 1.41.86l1.56-.15c.07 0 .07 0 .15.08l1.25.94a1.55 1.55 0 0 0 .86.23 1.73 1.73 0 0 0 .86-.23l1.25-.94c.08 0 .08-.08.16-.08l1.56.16a1.29 1.29 0 0 0 1.41-.86l.62-1.41a.08.08 0 0 1 .07-.08l1.4-.62a1.54 1.54 0 0 0 .86-1.41l-.15-1.56c0-.08 0-.08.08-.16zm-2.11 1.56l.16 1.57c0 .07-.08.15-.16.23L18 17.2a1.4 1.4 0 0 0-.7.7l-.63 1.4c0 .08-.16.16-.24.16l-1.56-.16a1.92 1.92 0 0 0-.94.23l-1.25.94a.13.13 0 0 1-.2 0l-1.25-.94a1.63 1.63 0 0 0-.86-.23h-.15l-1.57.16c-.08 0-.16-.08-.23-.16l-.78-1.4a1.58 1.58 0 0 0-.7-.7l-1.54-.63c-.08-.08-.16-.16-.16-.23l.16-1.57a1.78 1.78 0 0 0-.23-.93l-.94-1.25a.16.16 0 0 1 0-.21l.94-1.25A1.9 1.9 0 0 0 5.48 10l-.16-1.55c0-.08.08-.16.16-.24l1.4-.62a1.49 1.49 0 0 0 .7-.7l.63-1.49c0-.08.16-.16.24-.16L10 5.4a1.82 1.82 0 0 0 1-.23l1.25-.94a.14.14 0 0 1 .2 0l1.25.94a2.12 2.12 0 0 0 1.1.31l1.56-.16c.08 0 .16.08.23.16l.63 1.41a1.53 1.53 0 0 0 .7.7l1.4.62c.08.08.16.16.16.23L19.3 10a1.82 1.82 0 0 0 .23.94l.94 1.25a.14.14 0 0 1 0 .2l-.94 1.25a1.86 1.86 0 0 0-.15 1.13z"/><path d="M16.18 8.68l-.18.16.15-.16a.62.62 0 00-.86 0L8.6 15.4a.62.62 0 000 .86 1.09 1.09 0 00.47.08.6.6 0 00.39-.16l6.72-6.72a.52.52 0 000-.73zM11.89 9.78a2.19 2.19 0 00-2.18-2.19 2.11 2.11 0 00-2.12 2.12v.07A2.13 2.13 0 009.67 12h.11a2.21 2.21 0 002.11-2.22zm-1.17 0a1 1 0 11-1-1 1 1 0 011 1v.07zM15.09 12.9a2.18 2.18 0 00-2.19 2.18 2.13 2.13 0 002.1 2.19h.11a2.13 2.13 0 002.18-2.08v-.1a2.17 2.17 0 00-2.18-2.19zm1 2.19a1 1 0 11-1-1 1 1 0 011.01 1z"/></svg>