<svg xmlns="http://www.w3.org/2000/svg" viewBox="0 0 24 24"><path d="M13.23 14.215c-.063 0-.126-.002-.187-.007a3.08 3.08 0 0 0-3.023 2.867.49.49 0 0 1-.54.47.51.51 0 0 1-.47-.53 4 4 0 0 1 2.478-3.513 2.473 2.473 0 0 1-.406-3.007c.955-1.653 3.341-1.653 4.296 0 .217.377.332.805.332 1.24-.002.682-.28 1.3-.726 1.748a4.001 4.001 0 0 1 2.536 3.532.5.5 0 0 1-.47.53.49.49 0 0 1-.53-.47 3.06 3.06 0 0 0-3.22-2.86l-.013-.001-.057.001zm0-4a1.48 1.48 0 1 0 1.48 1.48 1.48 1.48 0 0 0-1.48-1.44zm4.16 10.13H6.61a2.51 2.51 0 0 1-2.5-2.5V6.155a2.51 2.51 0 0 1 2.5-2.5h10.78a2.5 2.5 0 0 1 2.5 2.5v11.69a2.5 2.5 0 0 1-2.5 2.5zM6.61 4.655a1.5 1.5 0 0 0-1.5 1.5v11.69a1.5 1.5 0 0 0 1.5 1.5h10.78a1.5 1.5 0 0 0 1.5-1.5V6.155a1.5 1.5 0 0 0-1.5-1.5zm.83 14.01a.5.5 0 0 1-.5-.5V5.845a.5.5 0 0 1 .5-.5.51.51 0 0 1 .5.5v12.32a.5.5 0 0 1-.5.5z"/></svg>