<svg xmlns="http://www.w3.org/2000/svg" viewBox="0 0 24 24"><path d="M14.999 21.501h-9a1.5 1.5 0 0 1-1.5-1.5v-13a1.5 1.5 0 0 1 1.5-1.5h1.5v-1.5a1.5 1.5 0 0 1 1.5-1.5h5.961a.47.47 0 0 1 .389.15l4 4a.47.47 0 0 1 .15.389v9.961a1.5 1.5 0 0 1-1.5 1.5h-1.5v1.5a1.5 1.5 0 0 1-1.5 1.5zm-9-15a.5.5 0 0 0-.5.5v13a.5.5 0 0 0 .5.5h9a.5.5 0 0 0 .5-.5v-1.5h-6.5a1.5 1.5 0 0 1-1.5-1.5v-10.5zm3-3a.5.5 0 0 0-.5.5v13a.5.5 0 0 0 .5.5h9a.5.5 0 0 0 .5-.5v-9.5h-2.5a1.5 1.5 0 0 1-1.5-1.5v-2.5zm6 6.9h-5a.5.5 0 0 1 0-1h5a.5.5 0 0 1 0 1zm1 2.4h-6a.5.5 0 0 1 0-1h6a.5.5 0 0 1 0 1zm0 2.41h-6a.5.5 0 0 1 0-1h6a.5.5 0 0 1 0 1zm-.5-9.21a.5.5 0 0 0 .5.5h1.79l-2.29-2.29z"/></svg>