<svg xmlns="http://www.w3.org/2000/svg" viewBox="0 0 24 24"><path d="M11.293 21.773a7.093 7.093 0 0 1-3.45-.91c-1.85-1.44-2.23-3.64-1.06-6.09a1.604 1.604 0 0 0 0-1.25 3.723 3.723 0 0 1 0-2.65 3.65 3.65 0 0 1 .17-.39 8.306 8.306 0 0 1 1-1.65l.272-.337a1.539 1.539 0 0 1-.137-1.563c.16-.336.43-.595.753-.744a3.739 3.739 0 0 1-.038-.496c-.01-.12-.01-.24 0-.36a1.205 1.205 0 0 1 0-.19 3.14 3.14 0 0 1 1.12-2.12c1.807-1.606 4.674-.654 5.162 1.714.07.341.083.691.038 1.036-.001.142-.01.283-.028.424a1.552 1.552 0 0 1 .6 2.294 9.35 9.35 0 0 1 2.178 5.772c.13 3.24-.85 5.81-2.62 6.88a7.808 7.808 0 0 1-3.46.62zm-2.34-12.58l-.21.26a8.224 8.224 0 0 0-.93 1.46c0 .1-.09.2-.12.3a2.76 2.76 0 0 0 0 2c.252.647.23 1.369-.06 2-1 2-.7 3.75.71 4.88a6.261 6.261 0 0 0 3.39.72 7.004 7.004 0 0 0 3-.52c1.4-.85 2.21-3.09 2.09-6a8.445 8.445 0 0 0-1.9-5.12zm5.25-3.49a2.27 2.27 0 0 0-.5-1.68 2.221 2.221 0 0 0-1.52-.8 2.23 2.23 0 0 0-2.45 2v.15c-.01.096-.01.194 0 .29-.014.13-.016.26-.006.39h4.481a3.141 3.141 0 0 0-.005-.35zm-4.59 1.24a.66.66 0 0 0-.252 1.27h5.197a.662.662 0 0 0-.255-1.27z"/></svg>