<svg xmlns="http://www.w3.org/2000/svg" viewBox="0 0 24 24"><path d="M20.46 14.45c-.08.08-.08.08-.08.16l.15 1.56a1.54 1.54 0 0 1-.86 1.41l-1.4.62a.08.08 0 0 0-.07.08l-.62 1.41a1.29 1.29 0 0 1-1.41.86l-1.56-.16c-.08 0-.08.08-.16.08l-1.25.94a1.73 1.73 0 0 1-.86.23 1.551 1.551 0 0 1-.86-.23l-1.25-.94c-.08-.08-.08-.08-.15-.08l-1.56.15a1.47 1.47 0 0 1-1.41-.86l-.63-1.4a.07.07 0 0 0-.07-.07L5 17.59a1.291 1.291 0 0 1-.85-1.41l.16-1.56c0-.08-.08-.08-.08-.16l-.94-1.25a1.3 1.3 0 0 1 0-1.64l.94-1.25c.08-.08.08-.08.08-.16L4.15 8.6a1.479 1.479 0 0 1 .78-1.48l1.49-.62c.07-.01.07-.08.07-.08l.63-1.49a1.479 1.479 0 0 1 1.48-.78l1.56.18c.08 0 .08-.08.16-.08l1.25-.94a1.3 1.3 0 0 1 1.64 0l1.33 1c.08.08.08.08.16.08l1.56-.16a1.561 1.561 0 0 1 1.4.86l.63 1.41c0 .044.036.08.08.08l1.4.62c.588.197.95.787.86 1.4l-.15 1.57c0 .07.07.07.07.15l.94 1.25a1.3 1.3 0 0 1 0 1.64zm-.93-.81l.94-1.25a.14.14 0 0 0 0-.2l-.94-1.25a1.818 1.818 0 0 1-.23-.94l.18-1.56c0-.07-.08-.15-.16-.23l-1.4-.62a1.531 1.531 0 0 1-.7-.7l-.63-1.41c-.07-.08-.15-.16-.23-.16l-1.56.16a2.123 2.123 0 0 1-1.1-.31l-1.25-.94a.14.14 0 0 0-.2 0L11 5.17a1.819 1.819 0 0 1-1 .23l-1.55-.16c-.08 0-.24.08-.24.16l-.63 1.49a1.495 1.495 0 0 1-.7.7l-1.4.62c-.08.08-.16.16-.16.24L5.48 10c.018.4-.09.795-.31 1.13l-.94 1.25a.16.16 0 0 0 0 .21l.94 1.25c.16.283.24.605.23.93l-.16 1.57c0 .07.08.15.16.23l1.54.63c.302.152.548.398.7.7l.78 1.4c.07.08.15.16.23.16l1.57-.16h.15c.302-.005.6.075.86.23l1.25.94a.13.13 0 0 0 .2 0l1.25-.94c.289-.156.612-.235.94-.23l1.56.16c.08 0 .24-.08.24-.16l.63-1.4c.14-.311.389-.56.7-.7l1.38-.63c.08-.08.16-.16.16-.23l-.16-1.57a1.864 1.864 0 0 1 .15-1.13zm-3.35-4.91c.2.202.2.528 0 .73l-6.72 6.72a.596.596 0 0 1-.39.16 1.095 1.095 0 0 1-.47-.08.62.62 0 0 1 0-.86l6.69-6.72a.62.62 0 0 1 .86 0l-.15.16.18-.16zM9.78 12h-.11a2.13 2.13 0 0 1-2.08-2.22v-.07a2.11 2.11 0 0 1 2.12-2.12 2.19 2.19 0 0 1 2.18 2.19A2.21 2.21 0 0 1 9.78 12zm.94-2.22a1 1 0 1 0-2 0 1 1 0 0 0 2 0zm4.39 3.12a2.17 2.17 0 0 1 2.18 2.19v.1a2.13 2.13 0 0 1-2.18 2.08H15a2.13 2.13 0 0 1-2.1-2.19 2.18 2.18 0 0 1 2.19-2.18zm.99 2.19a1 1 0 0 0-1.01-1 1 1 0 1 0 1 1z"/></svg>