<svg xmlns="http://www.w3.org/2000/svg" viewBox="0 0 24 24"><path d="M14 12.31a3.41 3.41 0 1 1 3.4-3.41 3.41 3.41 0 0 1-3.4 3.41zm0-5.81a2.41 2.41 0 1 0 2.4 2.4A2.41 2.41 0 0 0 14 6.5z"/><path d="M19.39 17.67a.5.5 0 0 1-.5-.49A4.93 4.93 0 0 0 14 12.33h-.07a4.9 4.9 0 0 0-4.85 4.85.5.5 0 0 1-.5.49.5.5 0 0 1-.49-.5 5.89 5.89 0 0 1 5.83-5.84 6 6 0 0 1 6 5.84.5.5 0 0 1-.49.5zM6 13.14a.5.5 0 0 1-.5-.5V6.69a.5.5 0 0 1 .5-.5.5.5 0 0 1 .5.5v6a.5.5 0 0 1-.5.45z"/><path d="M9 10.19H3a.5.5 0 0 1-.5-.5.5.5 0 0 1 .5-.5h6a.51.51 0 0 1 .5.5.5.5 0 0 1-.5.5z"/></svg>