<svg xmlns="http://www.w3.org/2000/svg" viewBox="0 0 24 24"><path d="M12 22.5c-4.137 0-7.48-2.292-9.216-5.468l-.026-.048c-1.589-2.943-1.803-6.635-.001-9.965a9.085 9.085 0 0 1 .15-.269c4.041-7 14.145-7 18.186 0a11.434 11.434 0 0 1 .152.272 10.506 10.506 0 0 1 1.255 5.004 10.465 10.465 0 0 1-1.298 5.027 10.506 10.506 0 0 1-9.197 5.447H12zM4.095 6.73h4.138c.389-1.709.969-3.092 1.68-4.006-2.479.544-4.51 2.039-5.818 4.006zm15.805 0a9.523 9.523 0 0 0-5.805-3.996c.708.914 1.284 2.293 1.672 3.996zm-16.387 1A9.544 9.544 0 0 0 2.5 11.5h5.194c.024-1.351.142-2.62.34-3.77zm17.974 3.77a9.452 9.452 0 0 0-1.003-3.77h-4.518c.198 1.15.316 2.419.34 3.77zm-18.988 1a9.4 9.4 0 0 0 1.014 3.77h4.521a24.963 24.963 0 0 1-.34-3.77zm17.987 3.77a9.49 9.49 0 0 0 1.001-3.77h-5.181a24.963 24.963 0 0 1-.34 3.77zm-16.391 1a9.35 9.35 0 0 0 5.814 4.001c-.709-.913-1.288-2.295-1.676-4.001zm15.81 0h-4.138c-.388 1.706-.967 3.088-1.676 4.001a9.35 9.35 0 0 0 5.814-4.001zM12 2.5c-1.007 0-2.083 1.603-2.726 4.23h5.452c-.642-2.624-1.718-4.227-2.723-4.23H12zm0 19c1.007 0 2.083-1.603 2.726-4.23H9.274c.643 2.627 1.719 4.23 2.726 4.23zm-3.305-10h6.61a23.088 23.088 0 0 0-.365-3.77H9.06a23.088 23.088 0 0 0-.365 3.77zm.365 4.77h5.88c.208-1.122.34-2.39.365-3.77h-6.61c.025 1.38.157 2.648.365 3.77z"/></svg>