<svg xmlns="http://www.w3.org/2000/svg" viewBox="0 0 24 24"><path d="M18.42 2.47H5.56A1.53 1.53 0 0 0 4 4v16a1.54 1.54 0 0 0 1.57 1.5h12.85A1.55 1.55 0 0 0 20 20V4a1.54 1.54 0 0 0-1.58-1.53zM19 20a.55.55 0 0 1-.57.5H5.56A.54.54 0 0 1 5 20V4a.53.53 0 0 1 .57-.5h12.85A.54.54 0 0 1 19 4z"/><path d="M6.71 13.59c-.12.39-.26.84.11 1.1a.59.59 0 0 0 .34.12 1.44 1.44 0 0 0 .77-.35c.49-.34.61-.41.7-.47l.37-.24s.2-.15.19-.17a2.36 2.36 0 0 1 .27.17c.25.18.32.22.43.29s.23.14.65.43c.27.19.73.5 1.12.22s.25-.74.09-1.28l-.06-.2c-.17-.63-.61-2.24-.77-2.85a2.5 2.5 0 1 0-3.36 0c-.18.66-.63 2.34-.73 2.85zM9.2 7a1.5 1.5 0 1 1-1.5 1.5A1.5 1.5 0 0 1 9.2 7zm0 4a2.36 2.36 0 0 0 .8-.14c.19.69.51 1.88.68 2.48l-.29-.18-.39-.22a1.12 1.12 0 0 0-1.63 0l-.29.2-.29.19c.12-.52.44-1.72.62-2.43a2.49 2.49 0 0 0 .79.1zM17 6.2h-3.71a.5.5 0 0 0-.5.5.5.5 0 0 0 .5.5H17a.5.5 0 0 0 .5-.5.5.5 0 0 0-.5-.5zM17 8.7h-3.71a.5.5 0 0 0-.5.5.5.5 0 0 0 .5.5H17a.5.5 0 0 0 .5-.5.5.5 0 0 0-.5-.5zM17 11.2h-3.71a.5.5 0 0 0-.5.5.5.5 0 0 0 .5.5H17a.5.5 0 0 0 .5-.5.5.5 0 0 0-.5-.5zM17 13.7h-3.71a.5.5 0 0 0-.5.5.5.5 0 0 0 .5.5H17a.5.5 0 0 0 .5-.5.5.5 0 0 0-.5-.5zM16.92 16.59H6.76a.5.5 0 0 0 0 1h10.16a.5.5 0 0 0 0-1z"/></svg>