<svg xmlns="http://www.w3.org/2000/svg" viewBox="0 0 24 24"><path d="M3.64 19.02a.468.468 0 0 1-.28-.09.49.49 0 0 1-.22-.45l.21-2.33a6.266 6.266 0 0 1-1.85-4.4c0-3.74 3.5-6.77 7.75-6.77s7.69 3.06 7.69 6.81c0 3.75-3.47 6.76-7.75 6.76a9.277 9.277 0 0 1-3.25-.65l-2.07 1.06a.49.49 0 0 1-.23.06zm5.61-13C5.53 5.98 2.5 8.56 2.5 11.74a5.279 5.279 0 0 0 1.71 3.84.52.52 0 0 1 .16.41l-.15 1.67 1.47-.75a.498.498 0 0 1 .43 0c.974.418 2.02.643 3.08.66 3.72 0 6.74-2.58 6.74-5.76 0-3.18-3-5.83-6.69-5.83zm11.58 11.89a.59.59 0 0 1-.23-.05l-1.37-.72a6.238 6.238 0 0 1-2.26.42 5.61 5.61 0 0 1-1.47-.19.5.5 0 0 1-.36-.61.51.51 0 0 1 .61-.36c.398.108.808.162 1.22.16a5.218 5.218 0 0 0 2.09-.43.513.513 0 0 1 .42 0l.76.4-.08-.9a.472.472 0 0 1 .16-.42 3.55 3.55 0 0 0 1.18-2.57 4.09 4.09 0 0 0-3.91-3.81 1.916 1.916 0 0 0-.59-.04.52.52 0 0 1-.53-.47.5.5 0 0 1 .47-.53c.265-.017.532.007.79.07a5.07 5.07 0 0 1 4.77 4.78 4.54 4.54 0 0 1-1.32 3.15l.15 1.57a.509.509 0 0 1-.22.47.542.542 0 0 1-.28.08z"/></svg>