<svg xmlns="http://www.w3.org/2000/svg" viewBox="0 0 24 24"><path d="M12 16a4 4 0 0 1-4-4 4 4 0 0 1 4-4 4 4 0 0 1 4 4 4 4 0 0 1-1.17 2.85A4 4 0 0 1 12 16zm-3.2-4A3.19 3.19 0 1 0 12 8.75 3.19 3.19 0 0 0 8.76 12zM12 6.8a.46.46 0 0 1-.46-.46V3a.46.46 0 0 1 .46-.46.47.47 0 0 1 .46.46v3.34a.47.47 0 0 1-.46.46zm0 14.55a.45.45 0 0 1-.46-.46v-3.34a.46.46 0 0 1 .46-.46.47.47 0 0 1 .46.46v3.34a.46.46 0 0 1-.46.46zm-5.66-8.94H3a.47.47 0 0 1 0-.93h3.34a.47.47 0 0 1 0 .93zm14.55 0h-3.34a.47.47 0 0 1 0-.93h3.34a.47.47 0 0 1 0 .93zm-15.3 6.36a.47.47 0 0 1-.32-.14.46.46 0 0 1 0-.65l2.35-2.36a.49.49 0 0 1 .66 0 .47.47 0 0 1 0 .66l-2.36 2.35a.47.47 0 0 1-.33.14zM15.94 8.43a.47.47 0 0 1-.33-.14.46.46 0 0 1 0-.65L18 5.28a.46.46 0 1 1 .65.65l-2.39 2.36a.47.47 0 0 1-.32.14zM8 8.42a.44.44 0 0 1-.32-.13L5.27 5.93a.46.46 0 0 1 .65-.65l2.36 2.36a.46.46 0 0 1-.28.78zm10.3 10.35a.47.47 0 0 1-.33-.14l-2.36-2.36a.46.46 0 0 1 0-.65.47.47 0 0 1 .66 0L18.62 18a.46.46 0 0 1 0 .65.45.45 0 0 1-.32.12z"/></svg>