<svg xmlns="http://www.w3.org/2000/svg" viewBox="0 0 24 24"><path d="M8.39 4.477a.54.54 0 0 1 .14-.67l1-.88a.54.54 0 0 1 .69 0l.67.53.8-.55a.542.542 0 0 1 .62 0l.8.55.67-.53a.54.54 0 0 1 .69 0l1 .88a.54.54 0 0 1 .14.67l-1.012 2.149c3.214 1.837 4.562 6.867 4.562 9.221 0 2.91-3.21 5.35-7.16 5.35s-7.16-2.4-7.16-5.35c0-2.408 1.373-7.488 4.651-9.273zm6.14-.13l-.37-.31-.63.5a.54.54 0 0 1-.65 0l-.83-.56-.82.56a.561.561 0 0 1-.66 0l-.63-.5-.37.31.942 1.802A5.23 5.23 0 0 1 12 5.937c.566 0 1.095.086 1.588.244zm-3.95 12.11a2.001 2.001 0 0 1-.58-1.4.54.54 0 0 1 .55-.55.55.55 0 0 1 .55.55.85.85 0 0 0 .87.87.9.9 0 1 0 0-1.79c-1.54.023-2.527-1.629-1.777-2.974a1.999 1.999 0 0 1 1.257-.965v-.551a.55.55 0 0 1 1.1 0v.568a2 2 0 0 1 1.44 1.922.55.55 0 1 1-1.1 0 .92.92 0 0 0-.9-.9.94.94 0 0 0-1 .9.92.92 0 0 0 .9.94 2 2 0 0 1 .66 3.909v.501a.55.55 0 1 1-1.1 0v-.531a1.995 1.995 0 0 1-.87-.499zM12 7.037c-4.26 0-6.06 6.3-6.06 8.81 0 2.34 2.72 4.25 6.06 4.25 3.34 0 6.06-1.91 6.06-4.25 0-2.5-1.8-8.81-6.06-8.81z"/></svg>