<svg xmlns="http://www.w3.org/2000/svg" viewBox="0 0 24 24"><path d="M12.008 22.5c-8.083 0-13.135-8.75-9.093-15.75 4.041-7 14.145-7 18.186 0A10.496 10.496 0 0 1 22.508 12c-.006 5.797-4.703 10.494-10.5 10.5zm0-20C4.695 2.5.124 10.417 3.781 16.75c3.656 6.333 12.798 6.333 16.454 0A9.497 9.497 0 0 0 21.508 12a9.511 9.511 0 0 0-9.5-9.5zm-1.47 13.67a2 2 0 0 1-2-2V9.92c.004-.352.1-.697.28-1a2 2 0 0 1 1.19-.92 2.07 2.07 0 0 1 1.54.21l3.6 2.07c.359.188.652.481.84.84a2 2 0 0 1-.84 2.74l-3.6 2.07a2.053 2.053 0 0 1-1 .27zm-.27-7.26a.998.998 0 0 0-.63.48.996.996 0 0 0-.14.51v4.23a1 1 0 0 0 .31.72 1 1 0 0 0 .72.29 1 1 0 0 0 .5-.14l3.65-2a1 1 0 0 0 .45-1.39 1.007 1.007 0 0 0-.32-.36l-3.74-2.2a1.08 1.08 0 0 0-.52-.14z"/></svg>