<svg xmlns="http://www.w3.org/2000/svg" viewBox="0 0 24 24"><path d="M14.93 2.67A6.55 6.55 0 0 0 8.37 9.2a6.15 6.15 0 0 0 .31 1.8l-6.15 6.11v4.38h3.7l1.38-1.18v-1h1.57v-.81H10V17h1.43l1.66-1.52.18.08a6.86 6.86 0 0 0 1.63.2 6.53 6.53 0 1 0 0-13.06zm0 12.06a6 6 0 0 1-1.32-.15l-.71-.29L11.08 16h-2v1.56h-.85v.79H6.67v1.6l-.76.65H3.53v-.27l5.16-5.1L10 13.9l-.69-.73-5.78 5.65v-1.29l6.29-6.28-.1-.25a6.32 6.32 0 0 1-.35-1.8 5.56 5.56 0 1 1 5.56 5.53z"/><path d="M17.25 5.66A1.55 1.55 0 1 0 18.8 7.2a1.55 1.55 0 0 0-1.55-1.54zm0 2.09a.55.55 0 1 1 .55-.55.55.55 0 0 1-.55.55z"/></svg>