<svg xmlns="http://www.w3.org/2000/svg" viewBox="0 0 24 24"><path d="M13.73 20.31H6.58A1.55 1.55 0 0 1 5 18.8V6a1.56 1.56 0 0 1 1.55-1.5h7.12A1.55 1.55 0 0 1 15.24 6v12.79a1.52 1.52 0 0 1-1.51 1.52zm-.06-1v.5l.06-.5a.52.52 0 0 0 .36-.16.48.48 0 0 0 .15-.36V6a.54.54 0 0 0-.56-.52h-7.1A.55.55 0 0 0 6 6v12.79a.57.57 0 0 0 .56.52z"/><path d="M12.36 11.57H7.94A1.51 1.51 0 0 1 6.5 10V7.75a1.5 1.5 0 0 1 1.43-1.53h4.42a1.5 1.5 0 0 1 1.44 1.54V10a1.47 1.47 0 0 1-1.42 1.53zm0-4.35H8a.49.49 0 0 0-.45.51v2.32a.49.49 0 0 0 .47.52h4.36a.48.48 0 0 0 .46-.51V7.74a.49.49 0 0 0-.51-.52z"/><path d="M18.53 15.33h-3.79v-1h3.53V7.22h-3.53v-1h3.76a.73.73 0 0 1 .77.71v7.63a.75.75 0 0 1-.71.77zm-.26-.77zm.23-7.34z"/><rect width="1" height="8.11" x="16.39" y="6.72"/><path d="M7.7 13.81a.71.71 0 0 1-.7-.7.72.72 0 0 1 .7-.7.71.71 0 0 1 .7.7.7.7 0 0 1-.7.7z"/><path d="M7.7 16.07a.71.71 0 0 1-.7-.7.72.72 0 0 1 .7-.7.71.71 0 0 1 .7.7.7.7 0 0 1-.7.7z"/><path d="M7.7 18.28a.72.72 0 0 1-.7-.7.71.71 0 0 1 .7-.7.7.7 0 0 1 .7.7.71.71 0 0 1-.7.7z"/><path d="M10.12 13.81a.71.71 0 0 1-.7-.7.72.72 0 0 1 .7-.7.71.71 0 0 1 .7.7.7.7 0 0 1-.7.7z"/><path d="M10.12 16.07a.71.71 0 0 1-.7-.7.72.72 0 0 1 .7-.7.71.71 0 0 1 .7.7.7.7 0 0 1-.7.7z"/><path d="M10.12 18.28a.72.72 0 0 1-.7-.7.71.71 0 0 1 .7-.7.7.7 0 0 1 .7.7.71.71 0 0 1-.7.7z"/><path d="M12.59 13.81a.71.71 0 0 1-.7-.7.72.72 0 0 1 .7-.7.71.71 0 0 1 .7.7.7.7 0 0 1-.7.7z"/><path d="M12.59 16.07a.71.71 0 0 1-.7-.7.72.72 0 0 1 .7-.7.71.71 0 0 1 .7.7.7.7 0 0 1-.7.7z"/><path d="M12.59 18.28a.72.72 0 0 1-.7-.7.71.71 0 0 1 .7-.7.7.7 0 0 1 .7.7.71.71 0 0 1-.7.7z"/></svg>