<svg xmlns="http://www.w3.org/2000/svg" viewBox="0 0 24 24"><path d="M12.049 15.905c-2.964 0-4.816-3.208-3.334-5.775 1.482-2.567 5.186-2.567 6.668 0a3.848 3.848 0 0 1-3.334 5.775zm0-6.7c-2.194 0-3.565 2.375-2.468 4.275 1.097 1.9 3.839 1.9 4.936 0 .25-.433.382-.925.382-1.425a2.859 2.859 0 0 0-2.85-2.85zm1.63 12.56h-3.42a1 1 0 0 1-1-1v-1.77a.53.53 0 0 0-.26-.48 6.968 6.968 0 0 1-1.1-.63.542.542 0 0 0-.56 0l-1.6.88a1 1 0 0 1-1.36-.33l-1.74-3.13a1 1 0 0 1 .36-1.35l1.6-.91a.49.49 0 0 0 .27-.5v-.59a1.783 1.783 0 0 1 0-.31c.005-.09.005-.18 0-.27a.59.59 0 0 0-.27-.61l-1.6-.84a1 1 0 0 1-.35-1.37l1.78-2.95a1 1 0 0 1 .82-.46c.202 0 .396.079.54.22l1.51.85a.618.618 0 0 0 .63 0c.322-.218.656-.418 1-.6a.57.57 0 0 0 .36-.5v-1.88a1 1 0 0 1 1-1h3.42a1 1 0 0 1 1 1v1.89a.55.55 0 0 0 .32.49c.385.176.753.387 1.1.63a.542.542 0 0 0 .56 0l1.57-.89a1 1 0 0 1 1.36.32l1.74 3a1 1 0 0 1-.36 1.34l-1.6.9a.49.49 0 0 0-.27.5v1a1.615 1.615 0 0 0 0 .22.51.51 0 0 0 .25.55l1.58.9c.086.044.166.098.24.16a.93.93 0 0 1 .06 1.29l-1.68 2.87a1 1 0 0 1-1.36.33l-1.57-.89a.579.579 0 0 0-.57 0 6.427 6.427 0 0 1-1.08.62.57.57 0 0 0-.34.5v1.85a1 1 0 0 1-.98.95zm-6.11-5a1.55 1.55 0 0 1 .88.27c.287.209.595.386.92.53.556.244.916.793.92 1.4v1.84h3.39v-1.81a1.54 1.54 0 0 1 .94-1.41c.318-.144.62-.321.9-.53a1.57 1.57 0 0 1 1.63-.08l1.59.9 1.73-2.92-1.56-.88a1.48 1.48 0 0 1-.77-1.49c-.008-.1-.008-.2 0-.3a1.615 1.615 0 0 0 0-.22v-.58a1.47 1.47 0 0 1 .86-1.45l1.56-.88-1.8-2.93-1.58.91a1.53 1.53 0 0 1-1.63-.08 6.416 6.416 0 0 0-.92-.53 1.51 1.51 0 0 1-.92-1.4v-1.89h-3.39v1.81a1.53 1.53 0 0 1-.94 1.4 11 11 0 0 0-.92.54 1.62 1.62 0 0 1-1.66.08l-1.58-.9-1.66 2.89 1.55.89c.516.303.814.873.77 1.47.009.12.009.24 0 .36-.004.06-.004.12 0 .18v.53a1.47 1.47 0 0 1-.88 1.44l-1.52.84 1.76 3.11 1.58-.93a1.53 1.53 0 0 1 .75-.18z"/></svg>