<svg xmlns="http://www.w3.org/2000/svg" viewBox="0 0 24 24"><path d="M15.92 14.49h-2a.789.789 0 0 1-.56-.23.822.822 0 0 1-.22-.55v-1.09a.118.118 0 0 0-.07-.1 4.783 4.783 0 0 1-.69-.4.128.128 0 0 0-.12 0l-.93.53a.8.8 0 0 1-1.06-.25l-1.08-1.87a.8.8 0 0 1 .25-1.06l1-.55a.08.08 0 0 0 .06-.1v-.37a1.839 1.839 0 0 1 0-.21v-.13c0-.04 0-.14-.07-.16l-.92-.53a.8.8 0 0 1-.28-1.09l1-1.75a.81.81 0 0 1 .66-.37.66.66 0 0 1 .45.17l.87.49a.202.202 0 0 0 .17 0c.206-.138.42-.265.64-.38.07 0 .1-.07.1-.11v-1.1a.75.75 0 0 1 .23-.55.763.763 0 0 1 .55-.23h2a.789.789 0 0 1 .56.23.82.82 0 0 1 .22.56V4.4a.11.11 0 0 0 .07.1c.24.115.471.249.69.4.038.02.082.02.12 0l.93-.53a.8.8 0 0 1 1.06.25l1 1.78a.8.8 0 0 1-.24 1.07l-1 .55-.07.12v.35c.005.08.005.16 0 .24v.25l1.08.62a.77.77 0 0 1 .09 1.08l-1 1.68a.82.82 0 0 1-1.09.27l-.92-.53a.118.118 0 0 0-.13 0 4.341 4.341 0 0 1-.67.38.14.14 0 0 0-.08.11v1.08a.789.789 0 0 1-.23.56.801.801 0 0 1-.37.26zm-3.63-3.39c.229 0 .452.07.64.2.16.117.331.217.51.3.4.173.662.564.67 1v.88h1.59v-.86a1.12 1.12 0 0 1 .68-1 4.22 4.22 0 0 0 .5-.29 1.1 1.1 0 0 1 1.18-.06l.77.43.83-1.38-.74-.42a1.07 1.07 0 0 1-.56-1.09.603.603 0 0 1 0-.18.335.335 0 0 0 0-.1v-.36a1.07 1.07 0 0 1 .58-1l.73-.41-.82-1.39-.76.43a1.13 1.13 0 0 1-1.19 0 2.691 2.691 0 0 0-.52-.3 1.111 1.111 0 0 1-.66-1v-1h-1.57v.87a1.101 1.101 0 0 1-.68 1 5.673 5.673 0 0 0-.51.3c-.359.237-.819.26-1.2.06L11 5.31l-.8 1.35.74.42c.378.214.6.626.57 1.06.004.077.004.153 0 .23v.39a1.07 1.07 0 0 1-.58 1l-.73.41.8 1.51.76-.43c.162-.093.344-.144.53-.15zm2.71 0c-1.994 0-3.24-2.158-2.243-3.885.997-1.727 3.489-1.727 4.486 0A2.589 2.589 0 0 1 15 11.1zm0-4.17a1.59 1.59 0 1 0 0 3.18 1.59 1.59 0 0 0 0-3.18zm-3.9 14.7c-.152 0-.303-.02-.45-.06l-3.76-1.8a.762.762 0 0 0-.247-.067 1 1 0 0 1-.973.767H3.5a1 1 0 0 1-1-1v-4.29a1 1 0 0 1 1-1h2.17a1 1 0 0 1 .998.934c.498-.384.674-.384.772-.384h3.7l3.85.52c.408.02.793.2 1.07.5a1.6 1.6 0 0 1 .36.61L19.11 15a1.54 1.54 0 0 1 1.15-.22c.41.086.769.33 1 .68l.12.22a1.84 1.84 0 0 1-1 2.19l-3 1.55-5.78 2.17a2.044 2.044 0 0 1-.5.04zm-3.78-2.76L11 20.64c.11.014.22.014.33 0L17 18.47l3-1.54a.86.86 0 0 0 .51-.95.62.62 0 0 0-.39-.26.609.609 0 0 0-.45.1l-3.37 1.76a1.83 1.83 0 0 1-1.89.75L11 17.86a.5.5 0 0 1-.43-.56.52.52 0 0 1 .57-.43l3.35.48a.87.87 0 0 0 1-.47.62.62 0 0 0-.59-.63l-3.84-.52H7.44s-.41.33-.77.65v2.32a1.6 1.6 0 0 1 .65.17zM3.5 15.18v4.29h2.17v-4.29z"/></svg>