<svg xmlns="http://www.w3.org/2000/svg" viewBox="0 0 24 24"><path d="M18.507 9.253v6.23a6.579 6.579 0 0 1-1.841 4.41 6.588 6.588 0 0 1-4.415 1.84c-1.686-.03-3.307-.738-4.41-1.84C6.739 18.79 6.031 17.166 6 15.48V7.677a5.004 5.004 0 0 1 1.375-3.3A5.022 5.022 0 0 1 10.68 3c1.252.029 2.48.559 3.298 1.376.817.818 1.347 2.049 1.376 3.301v6.542c-.042 1.14-.709 2.169-1.55 2.684-.868.471-2.092.534-3.1.001a3.427 3.427 0 0 1-1.134-1.135 3.43 3.43 0 0 1-.416-1.55V9.253h1v4.966a1.83 1.83 0 0 0 .282 1.05c.186.338.419.578.768.769.726.467 1.45.404 2.1-.001.675-.359 1.092-.956 1.05-1.818V7.677c.015-1.05-.391-1.901-1.084-2.593-.692-.693-1.543-1.099-2.593-1.084-1.049-.014-1.913.381-2.594 1.084C7.379 5.766 6.984 6.633 7 7.683v7.797c-.013 1.484.571 2.728 1.549 3.705.977.978 2.221 1.562 3.705 1.548 1.482.012 2.739-.56 3.705-1.548.988-.966 1.561-2.224 1.548-3.708V9.253z"/></svg>