<svg xmlns="http://www.w3.org/2000/svg" viewBox="0 0 24 24"><path d="M19.385 15.935a.33.33 0 0 0 .33-.33v-6.58a.34.34 0 0 0-.33-.34H4.615a.34.34 0 0 0-.33.34v6.58c0 .182.148.33.33.33h2.37v-2.39c0-.735.595-1.33 1.33-1.33h7.38a1.34 1.34 0 0 1 1.33 1.33v2.39zm-14.77 1a1.34 1.34 0 0 1-1.33-1.33v-6.58a1.34 1.34 0 0 1 1.33-1.34h2.37v-2.88a1.32 1.32 0 0 1 1.31-1.33h7.4c.735 0 1.33.595 1.33 1.33v2.88h2.36a1.34 1.34 0 0 1 1.33 1.34v6.58a1.33 1.33 0 0 1-1.32 1.33h-2.37v2.22a1.34 1.34 0 0 1-1.33 1.37h-7.38a1.33 1.33 0 0 1-1.33-1.37v-2.22zm3.7-3.72a.33.33 0 0 0-.33.33v5.61c0 .182.148.33.33.33h7.38a.33.33 0 0 0 .33-.33v-5.61a.33.33 0 0 0-.33-.33zm7.71-8.41a.33.33 0 0 0-.33-.33h-7.39a.32.32 0 0 0-.32.33v2.88h8.04zm1.8 6.48h-.26a.5.5 0 0 1 0-1h.26a.5.5 0 0 1 0 1zm-1.54 0h-1.38a.5.5 0 0 1 0-1h1.38a.5.5 0 0 1 0 1z"/></svg>