<svg xmlns="http://www.w3.org/2000/svg" viewBox="0 0 24 24"><path d="M19.32 19.42H4.6a2.13 2.13 0 0 1-2.1-2.1V6.6a2.13 2.13 0 0 1 2.1-2.1h14.8a2.13 2.13 0 0 1 2.1 2.1v10.72a2.24 2.24 0 0 1-2.17 2.1zM19.4 5.5H4.6a1.11 1.11 0 0 0-1.1 1.1v10.72a1.11 1.11 0 0 0 1.1 1.1h14.71a1.23 1.23 0 0 0 1.19-1.14V6.6a1.11 1.11 0 0 0-1.1-1.1z"/><path d="M20.39 9.5H3a.5.5 0 0 1 0-1h17.39a.5.5 0 0 1 0 1zm-2.09 2.4H5.7a.51.51 0 0 1-.5-.5.5.5 0 0 1 .5-.5h12.6a.5.5 0 0 1 .5.5.51.51 0 0 1-.5.5zm-6.22 2.48H5.36a.5.5 0 0 1 0-1h6.72a.5.5 0 0 1 0 1z"/></svg>