<svg xmlns="http://www.w3.org/2000/svg" viewBox="0 0 24 24"><path d="M4.164 17.63c0 .4.2.79.66.79a.561.561 0 0 0 .39-.16l.4-.2a5.115 5.115 0 0 1 2.36-.58 8.003 8.003 0 0 1 3.08.78l.46.2c.166.077.346.121.53.13a.944.944 0 0 0 .46-.13l.46-.2a8.006 8.006 0 0 1 3.09-.75 4.799 4.799 0 0 1 2.37.59l.39.2a.569.569 0 0 0 .4.13.73.73 0 0 0 .65-.79V7.18a1.008 1.008 0 0 0-.26-.66 4.47 4.47 0 0 0-.66-.39 6.312 6.312 0 0 0-2.89-.72 8.646 8.646 0 0 0-4 1 10.156 10.156 0 0 0-4.08-1 6.252 6.252 0 0 0-2.92.72 7.187 7.187 0 0 1-.66.39c-.16.184-.251.417-.26.66zm8.35-10.32a9.14 9.14 0 0 1 3.54-.92 5 5 0 0 1 2.37.59c.137.078.268.169.39.27v9.8a5.756 5.756 0 0 0-2.76-.66 9.906 9.906 0 0 0-3.48.79V7.31zm-6.9-.26a4.997 4.997 0 0 1 2.37-.59 8.513 8.513 0 0 1 3.55.92v9.88a9.998 9.998 0 0 0-3.48-.81 5.542 5.542 0 0 0-2.76.66v-9.8c0-.06.13-.2.33-.26z"/></svg>