<svg xmlns="http://www.w3.org/2000/svg" viewBox="0 0 24 24"><defs><clipPath id="a"><path d="M0 0h24v24H0z"/></clipPath></defs><path d="M12 19.18a9.69 9.69 0 01-4-.86.5.5 0 01-.26-.66.51.51 0 01.66-.25 8.79 8.79 0 003.6.77 9 9 0 008.38-5.87 1.38 1.38 0 000-.94A9 9 0 0018.08 8a.5.5 0 01.69-.73A10.31 10.31 0 0121.28 11a2.43 2.43 0 010 1.64A10 10 0 0112 19.18zM5.59 16.67a.48.48 0 01-.34-.14 10.11 10.11 0 01-2.6-3.87 2.32 2.32 0 010-1.64A10 10 0 0112 4.5a10 10 0 014.13.91.49.49 0 01.24.66.51.51 0 01-.66.25A8.84 8.84 0 0012 5.5a9 9 0 00-8.37 5.87 1.27 1.27 0 000 .94 9.08 9.08 0 002.3 3.49.5.5 0 010 .71.52.52 0 01-.34.16z"/><path d="M8.45 13.78a.51.51 0 01-.45-.31 4.24 4.24 0 01.07-3.26A4.19 4.19 0 0110.4 8a4.25 4.25 0 013.08 0 .5.5 0 11-.37.93 3.24 3.24 0 00-4.19 4.17.5.5 0 01-.29.65zM11.94 16.17a4.11 4.11 0 01-1.57-.31.49.49 0 01-.28-.64.5.5 0 01.65-.29 3.24 3.24 0 002.41 0A3.25 3.25 0 0015 10.71a.5.5 0 11.93-.38 4.26 4.26 0 01-2.37 5.53 4.32 4.32 0 01-1.62.31zM5.56 18.73a.52.52 0 01-.35-.14.5.5 0 010-.71L17.93 5.16a.5.5 0 01.71 0 .51.51 0 010 .71L5.91 18.59a.5.5 0 01-.35.14z"/></svg>