<svg xmlns="http://www.w3.org/2000/svg" viewBox="0 0 24 24"><path d="M11.928 20.885a8.77 8.77 0 0 1-8.42-7.11.51.51 0 0 1 1-.19 7.76 7.76 0 0 0 7.45 6.3 7.53 7.53 0 0 0 7.096-5.105l-2.046.905a.5.5 0 0 1-.66-.25.49.49 0 0 1 .26-.66l2.89-1.29a.458.458 0 0 1 .38 0 .51.51 0 0 1 .28.26l1.32 3a.51.51 0 0 1-.26.66.448.448 0 0 1-.21.04.5.5 0 0 1-.46-.3l-.71-1.603a8.529 8.529 0 0 1-7.91 5.343zm7.76-10.66a.5.5 0 0 1-.49-.38 7.65 7.65 0 0 0-7.28-5.73 7.486 7.486 0 0 0-6.724 4.259l1.814-.829a.5.5 0 0 1 .66.25.49.49 0 0 1-.24.66l-3 1.38a.543.543 0 0 1-.18.05.435.435 0 0 1-.19 0 .55.55 0 0 1-.28-.27l-1.23-3.15a.5.5 0 1 1 .92-.37l.772 2.014a8.509 8.509 0 0 1 7.678-4.994 8.64 8.64 0 0 1 8.25 6.5.5.5 0 0 1-.36.61z"/></svg>