<svg xmlns="http://www.w3.org/2000/svg" viewBox="0 0 24 24"><path d="M12.039 19.34a9.698 9.698 0 0 1-4-.86.5.5 0 0 1-.26-.66.51.51 0 0 1 .66-.25 8.792 8.792 0 0 0 3.6.77 8.999 8.999 0 0 0 8.38-5.87 1.38 1.38 0 0 0 0-.94 8.993 8.993 0 0 0-2.3-3.37.502.502 0 1 1 .69-.73 10.31 10.31 0 0 1 2.51 3.73c.19.53.19 1.11 0 1.64a10 10 0 0 1-9.28 6.54zm-6.41-2.51a.481.481 0 0 1-.34-.14 10.111 10.111 0 0 1-2.6-3.87c-.2-.528-.2-1.112 0-1.64a9.999 9.999 0 0 1 9.35-6.52 9.997 9.997 0 0 1 4.13.91.49.49 0 0 1 .24.66.51.51 0 0 1-.66.25 8.84 8.84 0 0 0-3.71-.82 9 9 0 0 0-8.37 5.87c-.12.302-.12.638 0 .94a9.083 9.083 0 0 0 2.3 3.49.5.5 0 0 1 0 .71.519.519 0 0 1-.34.16zm2.86-2.89a.509.509 0 0 1-.45-.31 4.24 4.24 0 0 1 .07-3.26 4.19 4.19 0 0 1 2.33-2.21 4.251 4.251 0 0 1 3.08 0 .5.5 0 1 1-.37.93c-2.329-.892-4.751 1.072-4.359 3.535.035.217.091.43.169.635a.5.5 0 0 1-.29.65zm3.49 2.39a4.104 4.104 0 0 1-1.57-.31.49.49 0 0 1-.28-.64.5.5 0 0 1 .65-.29c.773.31 1.637.31 2.41 0a3.25 3.25 0 0 0 1.85-4.22.503.503 0 0 1 .93-.38 4.26 4.26 0 0 1-2.37 5.53 4.321 4.321 0 0 1-1.62.31zm-6.38 2.56a.518.518 0 0 1-.35-.14.5.5 0 0 1 0-.71l12.72-12.72a.5.5 0 0 1 .71 0 .51.51 0 0 1 0 .71L5.949 18.75a.498.498 0 0 1-.35.14z"/></svg>