<svg xmlns="http://www.w3.org/2000/svg" viewBox="0 0 24 24"><path d="M20.42 16.88a9.62 9.62 0 0 0 0-9.76 1.53 1.53 0 0 0 0-2.15l-1.37-1.41a1.53 1.53 0 0 0-2.15 0 9.93 9.93 0 0 0-9.76 0 1.57 1.57 0 0 0-2.14 0L3.56 5a1.53 1.53 0 0 0 0 2.15 9.62 9.62 0 0 0 0 9.76 1.53 1.53 0 0 0 0 2.15L5 20.44a1.53 1.53 0 0 0 2.15 0 9.62 9.62 0 0 0 9.76 0 1.53 1.53 0 0 0 2.15 0l1.39-1.39a1.53 1.53 0 0 0 0-2.15zm.33-4.88a8.65 8.65 0 0 1-1.05 4.16l-3.06-3.06a4.72 4.72 0 0 0 0-2.2l3.06-3.06A8.65 8.65 0 0 1 20.75 12zm-6.34 1L13 14.41a1.49 1.49 0 0 0-.41 1.31 4.16 4.16 0 0 1-1.22 0 1.49 1.49 0 0 0-.37-1.31L9.59 13a1.48 1.48 0 0 0-1.3-.41 3.15 3.15 0 0 1-.06-.59 4.18 4.18 0 0 1 0-.61 2 2 0 0 0 .24 0A1.48 1.48 0 0 0 9.59 11L11 9.59a1.49 1.49 0 0 0 .41-1.31 3.57 3.57 0 0 1 1.22 0A1.49 1.49 0 0 0 13 9.59L14.41 11a1.48 1.48 0 0 0 1.07.45 2 2 0 0 0 .24 0 3.75 3.75 0 0 1 0 1.22 1.49 1.49 0 0 0-1.31.33zM18 4.12a.51.51 0 0 1 .37.15l1.39 1.39a.52.52 0 0 1 0 .73l-2.1 2.07-1.88 1.87a.53.53 0 0 1-.67-.05l-1.39-1.39a.56.56 0 0 1 0-.74l3.6-3.6.29-.28a.51.51 0 0 1 .39-.15zm-1.81.18L13.1 7.36a4.68 4.68 0 0 0-2.2 0L7.84 4.3a8.88 8.88 0 0 1 8.32 0zM4.27 5.66l1.39-1.39A.51.51 0 0 1 6 4.12a.51.51 0 0 1 .36.15l3.94 4a.53.53 0 0 1-.05.67l-1.36 1.34a.55.55 0 0 1-.74 0l-3.6-3.6-.28-.29a.52.52 0 0 1 0-.73zM3.25 12a8.65 8.65 0 0 1 1-4.16l3.11 3.06a4.72 4.72 0 0 0 0 2.2L4.3 16.16A8.65 8.65 0 0 1 3.25 12zm2.41 7.73l-1.39-1.39a.52.52 0 0 1 0-.73l2.07-2.07 1.88-1.87a.47.47 0 0 1 .3-.1.53.53 0 0 1 .37.15l1.39 1.39a.53.53 0 0 1 .05.67s-.05 0-.06.07l-3.6 3.6-.29.28a.52.52 0 0 1-.72 0zm2.18 0l3.06-3.06a4.81 4.81 0 0 0 2.2 0l3.06 3.06a8.88 8.88 0 0 1-8.32-.03zm11.89-1.36l-1.39 1.39a.52.52 0 0 1-.73 0l-3.94-4a.53.53 0 0 1 .05-.67l1.39-1.39a.5.5 0 0 1 .35-.14.72.72 0 0 1 .39.14l3.6 3.6.28.29a.52.52 0 0 1 0 .75z"/></svg>