<svg xmlns="http://www.w3.org/2000/svg" viewBox="0 0 24 24"><path d="M11.415 17.61v-7.1a.55.55 0 0 1 1.09 0v7.12a.5.5 0 0 1-.54.47.56.56 0 0 1-.55-.49zm7.35-10.21v.44a1.28 1.28 0 0 1-1.26 1.29l-.47 8.8a2.24 2.24 0 0 1-2.2 2.07h-5.67a2.24 2.24 0 0 1-2.2-2l-.46-8.8a1.37 1.37 0 0 1-1.27-1.33v-.4a1.34 1.34 0 0 1 1.33-1.34h2v-.8A1.34 1.34 0 0 1 9.905 4h4.2a1.34 1.34 0 0 1 1.33 1.33v.74h2a1.42 1.42 0 0 1 1.33 1.33zM7.505 9.13l.46 8.74a1.229 1.229 0 0 0 1.2 1.13h5.67a1.28 1.28 0 0 0 1.2-1.13l.47-8.74zm2.06-3h4.87V5.3a.31.31 0 0 0-.33-.3h-4.24a.32.32 0 0 0-.3.33zm8.2 1.23a.31.31 0 0 0-.33-.29h-10.9a.31.31 0 0 0-.3.33v.4c0 .2.13.4.33.33h10.87c.13 0 .33-.13.33-.26zm-8.15 10.23l-.23-7.1a.52.52 0 0 1 .54-.48c.39 0 .62.22.62.5l.24 7.09a.54.54 0 0 1-.16.36.597.597 0 0 1-.39.14.65.65 0 0 1-.62-.51zm3.78.37a.502.502 0 0 1-.16-.36l.2-7.11a.51.51 0 0 1 .54-.47.597.597 0 0 1 .39.14.522.522 0 0 1 .16.35l-.23 7.09a.65.65 0 0 1-.62.5c-.16 0-.31-.1-.28-.14z"/></svg>