<svg xmlns="http://www.w3.org/2000/svg" viewBox="0 0 24 24"><path d="M16.6 5.58A6.42 6.42 0 1 0 23 12a6.43 6.43 0 0 0-6.4-6.42zm0 11.84A5.42 5.42 0 1 1 22 12a5.43 5.43 0 0 1-5.4 5.42z"/><path d="M17.1 12V8.75a.5.5 0 0 0-.5-.5.5.5 0 0 0-.5.5v3.48a.5.5 0 0 0 .14.35l2.12 2.11a.47.47 0 0 0 .35.15.5.5 0 0 0 .35-.85zM5.14 9h3.41a.51.51 0 0 0 .5-.5.5.5 0 0 0-.5-.5H5.14a.5.5 0 0 0-.5.5.51.51 0 0 0 .5.5zM8.56 11.44a.5.5 0 0 0-.5-.5H1.48a.5.5 0 0 0 0 1h6.58a.5.5 0 0 0 .5-.5zM4.26 14.34H3a.5.5 0 0 0 0 1h1.3a.5.5 0 1 0 0-1zM9 14.36H5.86a.5.5 0 0 0-.5.5.51.51 0 0 0 .5.5H9a.5.5 0 0 0 .5-.5.5.5 0 0 0-.5-.5z"/></svg>