<svg xmlns="http://www.w3.org/2000/svg" viewBox="0 0 24 24"><path d="M12.015 19.36a10 10 0 0 1-9.35-6.54c-.2-.532-.2-1.118 0-1.65a10 10 0 0 1 9.35-6.53 10 10 0 0 1 9.32 6.5c.2.532.2 1.118 0 1.65a9.91 9.91 0 0 1-5.93 5.93 10.098 10.098 0 0 1-3.39.64zm0-13.72a9 9 0 0 0-8.4 5.88c-.12.305-.12.645 0 .95 2.344 6.462 10.804 7.964 15.229 2.704a8.946 8.946 0 0 0 1.561-2.704 1.351 1.351 0 0 0 0-.95 9 9 0 0 0-8.39-5.88zm0 10.69c-3.279 0-5.329-3.55-3.689-6.39 1.639-2.84 5.739-2.84 7.378 0a4.26 4.26 0 0 1 .571 2.13 4.27 4.27 0 0 1-4.26 4.26zm0-7.52c-2.51 0-4.078 2.717-2.823 4.89 1.255 2.173 4.391 2.173 5.646 0a3.263 3.263 0 0 0 .437-1.63 3.27 3.27 0 0 0-3.26-3.26z"/></svg>