<svg xmlns="http://www.w3.org/2000/svg" viewBox="0 0 24 24"><defs><clipPath id="a"><rect width="24" height="24"/></clipPath></defs><path d="M17.71 16.78h-7.3A1.5 1.5 0 0 1 9 15.69L6.58 7.42A.49.49 0 0 1 6.67 7a.47.47 0 0 1 .39-.2h12.67a1.49 1.49 0 0 1 1.5 1.5 1.84 1.84 0 0 1-.05.41l-2 7a1.5 1.5 0 0 1-1.47 1.07zm-10-9l2.2 7.64a.5.5 0 0 0 .48.36h7.3a.5.5 0 0 0 .48-.36l2-7a.36.36 0 0 0 0-.14.48.48 0 0 0-.5-.5z"/><path d="M7.06 7.78a.5.5 0 0 1-.48-.37C6.26 6.2 5.46 4.5 4.7 4.5H3a.5.5 0 0 1 0-1h1.7c1.82 0 2.74 3.28 2.84 3.65a.49.49 0 0 1-.35.61z"/><path d="M11.33 21.49a2 2 0 1 1 2-2 2 2 0 0 1-2 2zm0-3a1 1 0 1 0 1 1 1 1 0 0 0-1-1z"/><path d="M16.93 21.49a2 2 0 1 1 2-2 2 2 0 0 1-2 2zm0-3a1 1 0 1 0 1 1 1 1 0 0 0-1-1z"/><path d="M13.87 14.08a.5.5 0 0 1-.5-.5v-4a.5.5 0 0 1 .5-.5.5.5 0 0 1 .5.5v4a.51.51 0 0 1-.5.5z"/><path d="M15.87 12.08h-4a.5.5 0 0 1-.5-.5.5.5 0 0 1 .5-.5h4a.5.5 0 0 1 .5.5.51.51 0 0 1-.5.5z"/></svg>