<svg xmlns="http://www.w3.org/2000/svg" viewBox="0 0 24 24"><path d="M18.71 16.85h-5.16a2.2 2.2 0 01.09.58 3 3 0 010 .42h5.11a.51.51 0 00.5-.5.5.5 0 00-.54-.5zM9.25 16.85h-4a.5.5 0 00-.5.5.51.51 0 00.5.5H9.2a3 3 0 010-.42 2.2 2.2 0 01.05-.58zM12.93 11.52H5.29a.51.51 0 00-.5.5.5.5 0 00.5.5h7.59a1.84 1.84 0 010-.41 2 2 0 01.05-.59zM18.71 11.52h-1.48a2.27 2.27 0 01.09.59 2.71 2.71 0 010 .41h1.43a.5.5 0 00.5-.5.51.51 0 00-.54-.5zM10.85 6.74a2.71 2.71 0 010 .41h7.9a.5.5 0 00.5-.5.51.51 0 00-.5-.5h-8a2.27 2.27 0 01.09.59zM5.29 7.15H6.4a2.71 2.71 0 010-.41 2.34 2.34 0 01.09-.59h-1.2a.51.51 0 00-.5.5.5.5 0 00.5.5zM11.4 16.19a1.21 1.21 0 011.07.66h1.08a2.22 2.22 0 00-4.3 0h1.07a1.24 1.24 0 011.08-.66zM11.4 18.67a1.25 1.25 0 01-1.16-.82h-1a2.24 2.24 0 004.4 0h-1a1.22 1.22 0 01-1.24.82z"/><path d="M13.55 16.85h-1.08a1.13 1.13 0 01.17.58 1.22 1.22 0 01-.09.42h1a3 3 0 000-.42 2.2 2.2 0 000-.58zM10.16 17.43a1.22 1.22 0 01.16-.58H9.25a2.2 2.2 0 00-.09.58 3 3 0 000 .42h1a1.49 1.49 0 010-.42zM15.08 13.35a1.22 1.22 0 01-1.16-.83h-1a2.24 2.24 0 004.4 0h-1.09a1.22 1.22 0 01-1.15.83zM15.08 10.87a1.22 1.22 0 011.07.65h1.08a2.23 2.23 0 00-2.15-1.65 2.23 2.23 0 00-2.15 1.65H14a1.24 1.24 0 011.08-.65zM13.84 12.11a1.3 1.3 0 01.16-.59h-1.07a2 2 0 00-.09.59 1.84 1.84 0 000 .41h1a1.11 1.11 0 010-.41zM17.32 12.11a2.27 2.27 0 00-.09-.59h-1.08a1.19 1.19 0 01.17.59 1.12 1.12 0 01-.09.41h1.05a2.71 2.71 0 000-.41zM8.6 5.5a1.23 1.23 0 011.08.65h1.08a2.23 2.23 0 00-4.31 0h1.08A1.22 1.22 0 018.6 5.5zM8.61 8a1.23 1.23 0 01-1.16-.83h-1a2.24 2.24 0 004.41 0h-1.1A1.23 1.23 0 018.61 8zM9.85 6.74a1.12 1.12 0 01-.09.41h1.05a2.71 2.71 0 000-.41 2.27 2.27 0 00-.09-.59H9.68a1.19 1.19 0 01.17.59zM6.4 7.15h1a1.12 1.12 0 01-.09-.41 1.19 1.19 0 01.17-.59H6.45a2.34 2.34 0 00-.09.59 2.71 2.71 0 00.04.41z"/></svg>