<svg xmlns="http://www.w3.org/2000/svg" viewBox="0 0 24 24"><path d="M7.67 14.48a.5.5 0 0 1 0-1h4.66c.033 0 .065.003.095.009 1.323-1.07 3.144-1.272 4.655-.606V4.14a.676.676 0 0 0-.19-.47.66.66 0 0 0-.47-.19H5.92c-.37 0-.67.3-.67.67v14a.628.628 0 0 0 .2.47.633.633 0 0 0 .47.19h5.21a4.444 4.444 0 0 1 .223-4.06c.054-.093.11-.183.168-.27zm7-2.81h-7a.5.5 0 0 1 0-1h7a.5.5 0 0 1 0 1zm0-2.81h-7a.5.5 0 0 1 0-1h7a.51.51 0 0 1 .5.5.5.5 0 0 1-.5.5zM5.91 19.83a1.66 1.66 0 0 1-1.66-1.66v-14A1.67 1.67 0 0 1 5.91 2.5h10.5a1.66 1.66 0 0 1 1.67 1.64v9.353A4.545 4.545 0 0 1 19.75 17a4.5 4.5 0 0 1-4.5 4.5 4.442 4.442 0 0 1-3.516-1.69H5.91zm9.34-6.33c-2.694 0-4.378 2.917-3.031 5.25s4.715 2.333 6.062 0a3.5 3.5 0 0 0-3.031-5.25zm1.75 4h-1.25v1.24a.5.5 0 1 1-1 0V17.5H13.5a.5.5 0 0 1 0-1h1.25v-1.26a.5.5 0 0 1 1 0v1.26H17a.5.5 0 0 1 0 1z"/></svg>