<svg xmlns="http://www.w3.org/2000/svg" viewBox="0 0 24 24"><defs><style>.a{fill:none}</style></defs><path d="M11.5 5A7 7 0 0 0 5 11.5h6.5zM19 11.5A7 7 0 0 0 12.5 5v6.5zM5 12.5a7 7 0 0 0 6.5 6.5v-6.5zM12.5 12.5V19a7 7 0 0 0 6.5-6.5z" class="a"/><path d="M23 11.5h-3v1h3a.5.5 0 0 0 0-1zM11.5 20v3a.5.5 0 0 0 1 0v-3H12zM4 11.5H1a.5.5 0 0 0 0 1h3v-.49-.51zM12.5 4V1a.5.5 0 0 0-1 0v3h.5zM20 11.5A8 8 0 0 0 12.5 4h-1A8 8 0 0 0 4 11.5v1a8 8 0 0 0 7.5 7.5h.99A8 8 0 0 0 20 12.5v-.49-.51zM12.5 19h-1.01A7 7 0 0 1 5 12.5v-.49-.51A7 7 0 0 1 11.5 5h.99A7 7 0 0 1 19 11.5a4.36 4.36 0 0 1 0 .5v.49A7 7 0 0 1 12.5 19z"/><circle cx="12.01" cy="12.01" r="3.53"/></svg>