<svg xmlns="http://www.w3.org/2000/svg" viewBox="0 0 24 24"><path d="M5.482 18.35a1 1 0 0 1-.67-.27.998.998 0 0 1-.28-.67V10.6a1 1 0 0 1 .94-.95h1.86a.94.94 0 0 1 1 .94l.05 6.76a.998.998 0 0 1-.28.67.91.91 0 0 1-.67.28zm1.8-7.75l-1.8.05v6.75h1.8zm7.96 9.25h-3.16a1.838 1.838 0 0 1-.88-.28l-1.91-1.36a.52.52 0 0 1-.21-.41v-7.7a.5.5 0 0 1 .5-.5 1 1 0 0 0 1.05-1V5.1c.004-.254.104-.497.28-.68a1 1 0 0 1 .67-.27 3.3 3.3 0 0 1 3.3 3.25v2.2h1.45a3.208 3.208 0 0 1 2.13.83 3.17 3.17 0 0 1 .84 3.33l-1.86 4.53a2.31 2.31 0 0 1-2.2 1.56zm-5.16-2.31l1.69 1.2a.72.72 0 0 0 .34.11h3.13a1.33 1.33 0 0 0 1.27-.91l1.86-4.53a2.19 2.19 0 0 0-.58-2.25 2.228 2.228 0 0 0-1.46-.56h-2a.5.5 0 0 1-.5-.5V7.4a2.28 2.28 0 0 0-2.26-2.25l.06 3.45a2.001 2.001 0 0 1-1.55 2z"/></svg>