<svg xmlns="http://www.w3.org/2000/svg" viewBox="0 0 24 24"><defs><clipPath id="a"><path d="M0 0h24v24H0z"/></clipPath></defs><path d="M10.49 21.08a2 2 0 01-1.49-.7C7.47 18.71 6.54 14 6.5 7.73a.48.48 0 01.15-.36.51.51 0 01.35-.15h10.19a.51.51 0 01.35.15.51.51 0 01.15.36c-.05 6.34-1 11-2.48 12.66a2 2 0 01-1.51.69zm-3-12.86C7.6 15 8.71 18.59 9.72 19.72a1 1 0 00.77.36h3.21a1 1 0 00.76-.35c1-1.14 2.12-4.75 2.22-11.51zM13.94 6.25a.5.5 0 01-.5-.5V3.09h-2.7v2.66a.5.5 0 01-1 0V2.59a.5.5 0 01.5-.5h3.7a.5.5 0 01.5.5v3.16a.5.5 0 01-.5.5z"/><path d="M15.06 8.08a.51.51 0 0 1-.5-.42l-.2-1.41H9.82l-.2 1.41a.5.5 0 0 1-1-.15l.26-1.84a.51.51 0 0 1 .5-.42h5.42a.49.49 0 0 1 .49.42l.26 1.84a.5.5 0 0 1-.42.57z"/></svg>