<svg xmlns="http://www.w3.org/2000/svg" viewBox="0 0 24 24"><path d="M5.405 20.25a.468.468 0 0 1-.28-.09.489.489 0 0 1-.22-.46l.23-2.79a7.39 7.39 0 0 1-2.23-5.23c0-4.38 4.08-7.93 9.09-7.93s9.1 3.55 9.1 7.92-4.08 7.92-9.09 7.92a10.675 10.675 0 0 1-3.86-.75l-2.51 1.3a.498.498 0 0 1-.23.11zm6.59-15.5c-4.46 0-8.09 3.1-8.09 6.92a6.374 6.374 0 0 0 2.08 4.58.47.47 0 0 1 .16.41l-.17 2.14 1.91-1a.498.498 0 0 1 .43 0c1.159.5 2.408.759 3.67.76 4.47 0 8.1-3.1 8.1-6.92s-3.63-6.89-8.09-6.89z" clip-path="url(#a)"/></svg>