<svg xmlns="http://www.w3.org/2000/svg" viewBox="0 0 24 24"><path d="M12 21.52c-7.328 0-11.909-7.933-8.245-14.28C7.42.893 16.58.893 20.245 7.24A9.525 9.525 0 0 1 21.52 12 9.531 9.531 0 0 1 12 21.52zm0-18c-6.528 0-10.608 7.067-7.344 12.72 3.264 5.653 11.424 5.653 14.688 0A8.481 8.481 0 0 0 12 3.52zM7.5 17a.468.468 0 0 1-.35-.15.48.48 0 0 1 0-.7L11.3 12 7.15 7.85a.495.495 0 0 1 .7-.7L12 11.3l4.15-4.15a.495.495 0 0 1 .7.7L12.7 12l4.15 4.15a.48.48 0 0 1 0 .7.468.468 0 0 1-.35.15.468.468 0 0 1-.35-.15L12 12.7l-4.15 4.15a.468.468 0 0 1-.35.15z"/></svg>