<svg xmlns="http://www.w3.org/2000/svg" viewBox="0 0 24 24"><path d="M11.998 13.58a1.258 1.258 0 0 1-.67-.19l-3.96-1.902v4.332a.48.48 0 0 0 .29.44l4.15 2a.322.322 0 0 0 .35 0l4.25-2a.667.667 0 0 0 .23-.48v-4.285l-4.01 1.925a1.18 1.18 0 0 1-.63.16zm-8.73-4.2a.62.62 0 0 1 .17-.67l.13-.1 7.8-3.79c.4-.241.9-.241 1.3 0l7.66 3.75h.39l.05.58a.57.57 0 0 1-.39.55l-2.74 1.315v4.805a1.66 1.66 0 0 1-.75 1.32l-4.26 2a1.172 1.172 0 0 1-.63.22 1.403 1.403 0 0 1-.68-.19l-4.07-1.93a1.45 1.45 0 0 1-.88-1.35v-4.883l-2.08-.999v5.432a.5.5 0 0 1-1 0V9.415zm1.51-.25l7 3.38a.322.322 0 0 0 .35 0l7.07-3.4-7-3.44a.322.322 0 0 0-.35 0z"/></svg>