<svg xmlns="http://www.w3.org/2000/svg" viewBox="0 0 24 24"><defs><clipPath id="a"><path d="M0 0h24v24H0z"/></clipPath></defs><path d="M12 13a2.5 2.5 0 1 1 2.5-2.5A2.51 2.51 0 0 1 12 13zm0-4a1.5 1.5 0 1 0 1.5 1.5A1.5 1.5 0 0 0 12 9z"/><path d="M12 21a.5.5 0 01-.5-.5v-8a.5.5 0 011 0v8a.5.5 0 01-.5.5zM7 18.39a.57.57 0 01-.28-.08 9.33 9.33 0 01-2.65-2.66A9.45 9.45 0 016.72 2.58a.5.5 0 01.56.84A8.43 8.43 0 004.9 15.1a8.27 8.27 0 002.38 2.37.51.51 0 01.14.7.52.52 0 01-.42.22zM17 18.39a.52.52 0 01-.42-.22.51.51 0 01.14-.7A8.43 8.43 0 0019.1 5.79a8.27 8.27 0 00-2.38-2.37.5.5 0 01.56-.84 9.45 9.45 0 010 15.73.57.57 0 01-.28.08z"/><g><path d="M15 16.73a.51.51 0 01-.45-.27.5.5 0 01.22-.67 6 6 0 000-10.69.5.5 0 01-.22-.67.51.51 0 01.68-.22 7 7 0 013.05 3.05 7 7 0 01-3.05 9.42.48.48 0 01-.23.05zM9 16.73a.48.48 0 01-.23-.05 7 7 0 01-3-3 7 7 0 013-9.47.51.51 0 01.68.22.5.5 0 01-.22.67 6 6 0 000 10.69.5.5 0 01.22.67.51.51 0 01-.45.27z"/></g></svg>