<svg xmlns="http://www.w3.org/2000/svg" viewBox="0 0 24 24"><path d="M18.506 4.484a2.8 2.8 0 0 1 2.8 2.8v9.5a2.81 2.81 0 0 1-2.8 2.8h-6.697l-3.124.836a2.539 2.539 0 0 1-.75.16 2.82 2.82 0 0 1-2.71-2.08l-2.43-9.08a2.81 2.81 0 0 1 1.98-3.46l2.831-.761-.002-.002a2.83 2.83 0 0 1 1.93-.73h.797l3.524-.947a2.54 2.54 0 0 1 .72-.1 2.819 2.819 0 0 1 2.193 1.064zm-6.8 14.1h.053l5.716-1.544a1.79 1.79 0 0 0 1.28-2.2l-2.44-9.08a1.799 1.799 0 0 0-.096-.276h-.013v-.028a1.79 1.79 0 0 0-1.631-1.036 1.468 1.468 0 0 0-.46.08l-9.08 2.43a1.8 1.8 0 0 0-1.27 2.2l2.43 9.08a1.79 1.79 0 0 0 1.74 1.34c.158-.001.316-.021.47-.06l3.301-.892zm6.8 0a1.811 1.811 0 0 0 1.8-1.8v-9.5a1.8 1.8 0 0 0-1.8-1.8h-1.228l.007.026 2.48 9.05a2.82 2.82 0 0 1-2 3.43l-2.22.594zm-1.581-5.954a.38.38 0 0 1 .18.23l.44 1.64c.09.339.04.699-.14 1-.18.318-.478.552-.83.65l-1 .25h-.1a.38.38 0 0 1-.36-.28l-.661-2.463c.055.437.059.88.011 1.323v1.19a.78.78 0 0 1-.59.66l-1.09.3h-.09a.327.327 0 0 1-.17 0h-.07l-1 .26h-.49a.368.368 0 0 1-.31-.16l-.7-1a5.777 5.777 0 0 1-1.07-3.42v-1.39a3.004 3.004 0 0 0-.62-1.86.398.398 0 0 1-.08-.23v-.2a.38.38 0 0 1 .29-.37l4-1h.08l-.01-.01c.086.001.17.029.24.08a.371.371 0 0 1 .14.3v.2c.005.03.005.06 0 .09a2.913 2.913 0 0 0 .18 2l.58 1c.358.599.602 1.255.724 1.934a.38.38 0 0 1 .276-.304l1.309-.365-.299-1.045-.75.26h-.09a.378.378 0 0 1-.37-.28.38.38 0 0 1 .27-.46l.549-.137-.219-.683-.26.26a.338.338 0 0 1-.26.11.352.352 0 0 1-.27-.11.37.37 0 0 1 0-.53l.7-.7a.388.388 0 0 1 .27-.11l.09.01a.38.38 0 0 1 .26.25l.484 1.558a.778.778 0 0 1 .276.282l.346 1.164c.077.013.149.05.204.106zm-.64 2.73a.62.62 0 0 0 .38-.29.557.557 0 0 0 .06-.47l-.34-1.28-1.21.32.51 1.88zm-4.458-8.777a.397.397 0 0 1-.19.607l.048.29a.39.39 0 0 1-.4.45h-.06a.38.38 0 0 1-.37-.31v-.2l-1.51.39.07.22a.37.37 0 0 1-.23.47.244.244 0 0 1-.12 0 .38.38 0 0 1-.36-.25l-.088-.265-.472.125h-.09a.378.378 0 0 1-.37-.28.37.37 0 0 1 .28-.41l.68-.2a.376.376 0 0 1 .12-.06l.743-.194 1.857-.546h.1a.398.398 0 0 1 .362.163zm.294 2.076l-3.026.761c.378.598.576 1.292.57 2v1.44a5.003 5.003 0 0 0 .93 3l.59.84h.16l1-.28h.1a.477.477 0 0 1 .16 0h.08l1-.24v-1.24a5 5 0 0 0-.65-3.11l-.6-1.11a3.711 3.711 0 0 1-.314-2.061zM7.315 10.13a.37.37 0 0 1 .37.29.37.37 0 0 1-.23.47l-1.18.29.13.3 1.16-.32h.12a.382.382 0 1 1 .09.76l-1.15.35.36.59.22.56.83 3.05.94-.22h.11a.372.372 0 0 1 .08.74l-.595.137.115.403.79-.28h.08a.37.37 0 0 1 .37.29.37.37 0 0 1-.27.45l-.8.2h-.14a.779.779 0 0 1-.68-.39l-.152-.514-.018.004h-.08a.378.378 0 0 1-.37-.28l-.9-3.4-.18-.45-.58-.95a.382.382 0 0 1 0-.33v-.06l-.32-.74a.373.373 0 0 1 0-.31.392.392 0 0 1 .25-.2l1.58-.41h.09z"/></svg>