<svg xmlns="http://www.w3.org/2000/svg" viewBox="0 0 24 24"><path d="M14.6 20.49a2.32 2.32 0 0 1-1.7-.73l-9-9a2.33 2.33 0 0 1-.12-3.27L9 2.32a.5.5 0 1 1 .66.68L4.51 8.18A1.33 1.33 0 0 0 4.6 10l9 9a1.34 1.34 0 0 0 1.89.09L20.65 14a.5.5 0 0 1 .71 0 .51.51 0 0 1 0 .71l-5.16 5.16a2.34 2.34 0 0 1-1.6.62zM7.46 9l4.06-4.06"/><path d="M7.46 9.5a.49.49 0 0 1-.35-.15.5.5 0 0 1 0-.71l4.05-4.05a.5.5 0 0 1 .71 0 .5.5 0 0 1 0 .7l-4 4.06a.51.51 0 0 1-.41.15zM5.43 7l11.3 11.3"/><path d="M16.73 18.77a.49.49 0 0 1-.35-.15L5.08 7.32a.48.48 0 0 1 0-.7.5.5 0 0 1 .71 0l11.3 11.29a.51.51 0 0 1 0 .71.51.51 0 0 1-.36.15zm-6.89-7.39l4.06-4.06"/><path d="M9.84 11.88a.52.52 0 0 1-.35-.14.5.5 0 0 1 0-.71L13.55 7a.5.5 0 0 1 .7 0 .5.5 0 0 1 0 .71l-4.05 4.03a.54.54 0 0 1-.36.14zm2.33 1.83l4.06-4.06m-4.06 4.56a.5.5 0 0 1-.35-.85l4.06-4.06a.5.5 0 0 1 .7 0 .5.5 0 0 1 0 .71l-4 4.05a.51.51 0 0 1-.41.15zM14.46 16l4.06-4.06m-4.06 4.56a.47.47 0 0 1-.35-.15.48.48 0 0 1 0-.7l4.05-4.06a.5.5 0 0 1 .71 0 .51.51 0 0 1 0 .71l-4.06 4.05a.49.49 0 0 1-.35.15z"/></svg>