<svg xmlns="http://www.w3.org/2000/svg" viewBox="0 0 24 24"><path d="M20.19 18.12v-1.36A8.27 8.27 0 0 0 12 8.57a8.418 8.418 0 0 0-1.259.107.498.498 0 0 1-.211.038 8.27 8.27 0 0 0-6.72 8.045v1.36a.492.492 0 0 1-.143.35h16.666a.5.5 0 0 1-.143-.35zm-17.38 0v-1.36a9.283 9.283 0 0 1 7.17-8.949V7.52a2.06 2.06 0 0 1 2.07-2 2 2 0 0 1 2 2v.298a9.283 9.283 0 0 1 7.14 8.942v1.36a.5.5 0 0 1-.143.35H22a.5.5 0 0 1 0 1H2a.5.5 0 0 1 0-1h.953a.496.496 0 0 1-.143-.35zM12 7.57c.355.003.705.027 1.05.069V7.52a1 1 0 0 0-2 0v.107A9.3 9.3 0 0 1 12 7.57z"/></svg>