<svg xmlns="http://www.w3.org/2000/svg" viewBox="0 0 24 24"><path d="M16.77 12.81a2.11 2.11 0 0 0-.3-1.09l-2.39-4.06v-.83a.5.5 0 0 0 .42-.49V3.57a.5.5 0 0 0-.5-.5h-.06V1.56a.5.5 0 0 0-.5-.5H9a.5.5 0 0 0-.5.5.5.5 0 0 0 .5.5h1v1a.5.5 0 0 0-.45.49v2.79a.5.5 0 0 0 .42.49v.89l-2.39 4a2.08 2.08 0 0 0-.3 1.09v7.85a2.25 2.25 0 0 0 2.25 2.27h5a2.25 2.25 0 0 0 2.25-2.27v-7.85zM10.5 4.07h3v1.77h-3zm.45-2h2v1H11zm4.79 18.63a1.25 1.25 0 0 1-1.25 1.25h-5a1.25 1.25 0 0 1-1.25-1.26v-7.86a1.18 1.18 0 0 1 .16-.58l2.4-4a1.11 1.11 0 0 0 .13-.54v-.87h2.16v.81a1.22 1.22 0 0 0 .15.58l2.38 4a1.21 1.21 0 0 1 .16.58c-.02 1.33-.05 5.29-.04 7.88z"/></svg>