<svg xmlns="http://www.w3.org/2000/svg" viewBox="0 0 24 24"><path d="M9.412 21.275a1 1 0 0 1-.92-1.13v-8.75a9.815 9.815 0 0 1 .8-4.06 5.08 5.08 0 0 0 .12-1.72.513.513 0 0 1 .08-.39.534.534 0 0 1 .37-.16v-1.5h-1.37a.42.42 0 0 1 0-.84h6.19a.42.42 0 0 1 0 .84h-.199v1.5h.009c.14 0 .274.058.37.16a.522.522 0 0 1 .13.39 5.196 5.196 0 0 0 .13 1.8 9.504 9.504 0 0 1 .8 4v8.73a1 1 0 0 1-.9 1.1zm4.161-16.21v-1.5h-2.761v1.5zm-3.161 1a5.798 5.798 0 0 1-.2 1.6 8.913 8.913 0 0 0-.72 3.73v8.75a.411.411 0 0 0 0 .14h5.44v-8.89a8.697 8.697 0 0 0-.74-3.66 6.628 6.628 0 0 1-.22-1.67z"/></svg>