<svg xmlns="http://www.w3.org/2000/svg" viewBox="0 0 24 24"><path d="M15.25 21.6h-6.5a.5.5 0 0 0 0 1h6.5a.5.5 0 0 0 0-1zM15.9 19.85H8.09a.5.5 0 0 0-.5.5.51.51 0 0 0 .5.5h7.81a.5.5 0 0 0 .5-.5.5.5 0 0 0-.5-.5zM12.5 18.87v-5a.5.5 0 1 0-1 0v5a.5.5 0 0 0 1 0z"/><path d="M14.5 4.05a7.17 7.17 0 0 0-5 0 6.9 6.9 0 0 0-4.07 8.41c.18.65.32 1.27.44 1.88.49 2.32 1 4.51 4.39 5a.5.5 0 1 0 .15-1c-2.75-.4-3.07-1.93-3.56-4.24-.13-.62-.27-1.27-.46-2A5.9 5.9 0 0 1 9.85 5a6.23 6.23 0 0 1 4.3 0 5.9 5.9 0 0 1 3.46 7.2c-.19.68-.33 1.34-.46 2-.48 2.3-.79 3.83-3.56 4.23a.49.49 0 0 0-.42.56.51.51 0 0 0 .5.43h.07c3.45-.49 3.91-2.69 4.39-5 .13-.61.26-1.25.44-1.9a6.89 6.89 0 0 0-4.07-8.47zM12 2.9a.5.5 0 0 0 .5-.5v-1a.5.5 0 0 0-1 0v1a.5.5 0 0 0 .5.5zM6 5.35a.47.47 0 0 0 .35-.15.48.48 0 0 0 0-.7l-.72-.71a.5.5 0 0 0-.7 0 .5.5 0 0 0 0 .71l.72.71a.46.46 0 0 0 .35.14zM18.37 3.79l-.72.71a.49.49 0 0 0 0 .7.51.51 0 0 0 .36.15.47.47 0 0 0 .35-.14l.72-.71a.5.5 0 0 0 0-.71.5.5 0 0 0-.71 0zM21.5 10.27h-1a.5.5 0 0 0-.5.5.5.5 0 0 0 .5.5h1a.5.5 0 0 0 .5-.5.5.5 0 0 0-.5-.5zM3.51 10.27h-1a.5.5 0 0 0-.5.5.5.5 0 0 0 .5.5h1a.5.5 0 0 0 .5-.5.5.5 0 0 0-.5-.5z"/></svg>