<svg xmlns="http://www.w3.org/2000/svg" viewBox="0 0 24 24"><path d="M14.264 21.22a2.319 2.319 0 0 1-1.7-.73l-9-9a2.33 2.33 0 0 1-.12-3.27l5.22-5.17a.5.5 0 1 1 .66.68L5.59 7.486l1.535 1.533 3.699-3.699a.5.5 0 0 1 .71.7L7.858 9.752l1.654 1.653 3.702-3.675a.5.5 0 0 1 .7.71l-3.692 3.674 1.62 1.618 3.702-3.702a.5.5 0 0 1 .7.71l-3.674 3.72 1.562 1.561 3.692-3.701a.5.5 0 0 1 .71 0 .51.51 0 0 1 0 .71l-3.701 3.692 1.72 1.718 3.761-3.71a.5.5 0 0 1 .71 0 .51.51 0 0 1 0 .71l-5.16 5.16a2.341 2.341 0 0 1-1.6.62zM4.174 8.91a1.33 1.33 0 0 0 .09 1.82l9 9a1.34 1.34 0 0 0 1.89.09l.685-.675-2.04-2.04a.295.295 0 0 1-.025-.025l-.021-.021-2.245-2.245a.681.681 0 0 1-.038-.038l-2.261-2.261a.489.489 0 0 1-.111-.111l-2.313-2.313-.011-.011-.002-.002-1.885-1.885z"/></svg>