<svg xmlns="http://www.w3.org/2000/svg" viewBox="0 0 24 24"><path d="M17.74 21.14H6.67a.51.51 0 0 1-.5-.5.5.5 0 0 1 .5-.5h11.07a.5.5 0 0 1 .5.5.5.5 0 0 1-.5.5z"/><path d="M12.21 21.14a.5.5 0 0 1-.5-.5V19a.5.5 0 0 1 1 0v1.65a.5.5 0 0 1-.5.49z"/><path d="M12.21 19.48a9.09 9.09 0 0 1-9.09-9.08.5.5 0 0 1 .5-.5.5.5 0 0 1 .5.5 8.09 8.09 0 0 0 8.09 8.08 8.08 8.08 0 0 0 8.08-8.08.5.5 0 0 1 .5-.5.5.5 0 0 1 .5.5 9.09 9.09 0 0 1-9.08 9.08z"/><path d="M12.21 17.71a7.31 7.31 0 1 1 7.31-7.31 7.32 7.32 0 0 1-7.31 7.31zm0-13.62a6.31 6.31 0 1 0 6.31 6.31 6.32 6.32 0 0 0-6.31-6.31z"/><path d="M12.21 6.07a.47.47 0 0 1-.35-.15.36.36 0 0 1-.11-.16.41.41 0 0 1 0-.19.43.43 0 0 1 0-.19.36.36 0 0 1 .11-.16.31.31 0 0 1 .14-.11.5.5 0 0 1 .38 0 .36.36 0 0 1 .16.11.51.51 0 0 1 .15.35.58.58 0 0 1 0 .19.36.36 0 0 1-.11.16.42.42 0 0 1-.18.08.43.43 0 0 1-.19.07zM7.38 10.9a.5.5 0 0 1-.5-.5 5.34 5.34 0 0 1 3.92-5.14.5.5 0 1 1 .27 1 4.35 4.35 0 0 0-3.19 4.14.5.5 0 0 1-.5.5z"/></svg>