<svg xmlns="http://www.w3.org/2000/svg" viewBox="0 0 24 24"><path d="M15.29 13.55a.5.5 0 0 0-.5-.5H7.21a.5.5 0 0 0 0 1h7.58a.5.5 0 0 0 .5-.5zm-5.48 7.2H5.5a.5.5 0 0 1-.5-.5v-17a.5.5 0 0 1 .5-.5h7.4v3.57a1.5 1.5 0 0 0 1.5 1.5H18v3.31a.5.5 0 1 0 1 0V7.32v-.07a.13.13 0 0 1 0-.06.48.48 0 0 0-.15-.19l-5.09-5.1a.44.44 0 0 0-.24-.13h-8A1.5 1.5 0 0 0 4 3.25v17a1.5 1.5 0 0 0 1.5 1.5h4.31a.5.5 0 1 0 0-1zm4.09-17.3l3.39 3.37H14.4a.5.5 0 0 1-.5-.5zM7.21 16.1a.5.5 0 0 0 0 1h5.58a.5.5 0 0 0 0-1zm0-5.1h6.6a.5.5 0 0 0 .5-.5.5.5 0 0 0-.5-.5h-6.6a.5.5 0 0 0-.5.5.5.5 0 0 0 .5.5zm14.29 1.39a1.77 1.77 0 0 0-2.44 0l-1.2 1.2-4.32 4.32a7.37 7.37 0 0 0-1.74 2.72l-.1.26a1 1 0 0 0 .93 1.35 1 1 0 0 0 .35-.06l.27-.1A7.44 7.44 0 0 0 16 20.36L20.3 16l1.2-1.2a1.73 1.73 0 0 0 0-2.41zm-8.6 8.76l-.26.1.1-.27a6.37 6.37 0 0 1 1.17-2l1 1a6.49 6.49 0 0 1-2.01 1.17zm2.72-1.86l-1-1 3.61-3.61 1 1zm5.17-5.17l-.85.85-1-1 .85-.84a.72.72 0 1 1 1 1z"/></svg>