<svg xmlns="http://www.w3.org/2000/svg" viewBox="0 0 24 24"><path d="M11 13.35a6.14 6.14 0 0 0 9.5-7.3.42.42 0 0 0-.16-.33 6.16 6.16 0 0 0-2.61-2.57h-.07a6.14 6.14 0 0 0-8.87 4.92.5.5 0 0 0 0 .21v.32A6.13 6.13 0 0 0 11 13.35zM9.81 9.1a2.41 2.41 0 0 1 .41.46 2.63 2.63 0 0 0 .75.77 3.88 3.88 0 0 0-.24 1.28 5.09 5.09 0 0 1-.92-2.51zm9.64-2.86c-.14.39-.36.78-.51.74a.73.73 0 0 1-.57-.45A1.37 1.37 0 0 0 18 5.46 2.83 2.83 0 0 0 15.77 5a1.43 1.43 0 0 0 .29-.73 3.45 3.45 0 0 1 1.22-.19 5.19 5.19 0 0 1 2.17 2.16zM16.72 9.4a1.46 1.46 0 0 0-1.25-1c-.29 0-1-.09-1.19-.38a.63.63 0 0 1-.1-.52.4.4 0 0 1 .17-.3 1.56 1.56 0 0 1 .82-.2 3.18 3.18 0 0 1 .66.07 3.37 3.37 0 0 0 .89.09h.71a3 3 0 0 0 .85 1.6 4.56 4.56 0 0 0-1 2.14c0 .21-.08.29-.11.31a.65.65 0 0 1-.38.14.47.47 0 0 1-.26-.14c0-.05 0-.18.08-.4a2 2 0 0 0 .11-1.41zM15.64 6a3.23 3.23 0 0 1 1.52.11h-.48a2.07 2.07 0 0 1-.61-.06 3.87 3.87 0 0 0-.43-.05zm-.72-2.53h.42a.66.66 0 0 0-.28.7s0 .19-.49.62a.72.72 0 0 0-.15.82.67.67 0 0 0 .39.35 2.24 2.24 0 0 0-1 .33 1.4 1.4 0 0 0-.59 1 1.61 1.61 0 0 0 .28 1.31 2.63 2.63 0 0 0 1.86.76.44.44 0 0 1 .39.3 1 1 0 0 1-.06.68 1.39 1.39 0 0 0 0 1.31 1.4 1.4 0 0 0 1 .64h.06a1.65 1.65 0 0 0 1.09-.39 1.39 1.39 0 0 0 .43-1 4.79 4.79 0 0 1 1.1-1.9.5.5 0 0 0 .11-.42.53.53 0 0 0-.25-.35A.87.87 0 0 1 19 8a1.22 1.22 0 0 0 1-.52 5.07 5.07 0 0 1 .15 1.17 5.13 5.13 0 0 1-8.3 4.06A3.49 3.49 0 0 1 12 10.6a.79.79 0 0 0 0-.6.77.77 0 0 0-.42-.45A1.44 1.44 0 0 1 11 9a3.28 3.28 0 0 0-1.16-1.1 5.15 5.15 0 0 1 5.08-4.42z"/><path d="M21.62 17.94a1.8 1.8 0 0 0-.93-1.13c-1.25-.63-3.38-.14-4.52.2a1.76 1.76 0 0 0-1.5-1.35 16.42 16.42 0 0 1-3.35-1.16 6.59 6.59 0 0 0-3.9-.21.48.48 0 0 0-.27-.21L3.3 13a.53.53 0 0 0-.44.08.49.49 0 0 0-.2.4v6.16a.5.5 0 0 0 .5.5H6a.51.51 0 0 0 .49-.4l.07-.38 4.88 1.85a5 5 0 0 0 1.73.32 4.88 4.88 0 0 0 1.83-.38l6.3-2.61a.52.52 0 0 0 .32-.6zm-18 1.19v-5l2.77.79-.86 4.21zm11 1.09a3.93 3.93 0 0 1-2.88.05l-5-1.91.62-3a5.71 5.71 0 0 1 3.54.08 17.34 17.34 0 0 0 3.57 1.23c.55.1.76.43.72.71s-.19.41-.57.37a22.39 22.39 0 0 1-4.2-.86.5.5 0 1 0-.33.95 23.22 23.22 0 0 0 4.42.9h.2a1.43 1.43 0 0 0 1.16-.57c.95-.34 3.31-1 4.35-.46l.19.13z"/></svg>