<svg xmlns="http://www.w3.org/2000/svg" viewBox="0 0 24 24"><defs><clipPath id="a"><path d="M0 0h24v24H0z"/></clipPath></defs><path d="M5.08 21.48a1.69 1.69 0 0 1-.5-.08 1.6 1.6 0 0 1-1.08-1.64V4.22a1.53 1.53 0 0 1 .37-1.13A1.61 1.61 0 0 1 5 2.53a1.57 1.57 0 0 1 .83.14l13.81 7.73a1.8 1.8 0 0 1 .59 2.48 1.84 1.84 0 0 1-.55.56L5.82 21.3a1.65 1.65 0 0 1-.74.18zm0-18H5a.58.58 0 0 0-.4.22.54.54 0 0 0-.14.43v15.7a.59.59 0 0 0 .85.59l13.81-7.84a.7.7 0 0 0 .22-.23.79.79 0 0 0-.25-1.09L5.32 3.56a.62.62 0 0 0-.22-.04zM4 19.78z"/></svg>