<svg xmlns="http://www.w3.org/2000/svg" viewBox="0 0 24 24"><path d="M22.7 10.8l-2.33-2.43a1.52 1.52 0 0 0-1.08-.46H18V7.6a1.74 1.74 0 0 0-1.74-1.75H9.09A1.75 1.75 0 0 0 7.34 7.6v.31H3.47a.51.51 0 0 0-.5.5.5.5 0 0 0 .5.5h3.87V14H5.13a.5.5 0 0 0-.5.5.51.51 0 0 0 .5.5h2.21v1.27a.51.51 0 0 0 .5.5h1.71a1.88 1.88 0 0 0 3.64 0h4.7a1.89 1.89 0 0 0 1.82 1.39 1.91 1.91 0 0 0 1.83-1.39h.09a1.5 1.5 0 0 0 1.49-1.5v-3.43a1.49 1.49 0 0 0-.42-1.04zM8.34 7.6a.76.76 0 0 1 .75-.75h7.12a.75.75 0 0 1 .79.75V13H8.34V7.6zm3 9.55a.9.9 0 1 1 0-1.8.9.9 0 1 1 0 1.8zm8.34 0a.9.9 0 1 1 .9-.89.89.89 0 0 1-.87.88zm2.41-1.89a.49.49 0 0 1-.49.5h-.09a1.89 1.89 0 0 0-3.65 0h-4.7a1.88 1.88 0 0 0-3.64 0H8.34V14h9.11a.5.5 0 0 0 .5-.5V8.91h1.34a.52.52 0 0 1 .36.16L22 11.49a.52.52 0 0 1 .14.35z"/><path d="M6.16 11.44a.5.5 0 0 0-.5-.5H1.38a.5.5 0 0 0-.5.5.5.5 0 0 0 .5.5h4.28a.5.5 0 0 0 .5-.5zM3.62 14h-.44a.5.5 0 0 0-.5.5.5.5 0 0 0 .5.5h.44a.51.51 0 0 0 .5-.5.5.5 0 0 0-.5-.5z"/></svg>