<svg xmlns="http://www.w3.org/2000/svg" viewBox="0 0 24 24"><path d="M11.106 10.45c.954-1.653 3.341-1.653 4.295 0a2.477 2.477 0 0 1-.434 3.027 4 4 0 0 1 2.553 3.538.5.5 0 0 1-.47.53.49.49 0 0 1-.53-.47 3.06 3.06 0 0 0-3.22-2.86 3.08 3.08 0 0 0-3.28 2.86.49.49 0 0 1-.54.47.51.51 0 0 1-.47-.53 4 4 0 0 1 2.527-3.533 2.473 2.473 0 0 1-.431-3.032zm2.147-.28a1.48 1.48 0 0 0-1.281 2.22 1.48 1.48 0 0 0 2.761-.74 1.48 1.48 0 0 0-1.48-1.44zm4.137 10.175H6.61a2.51 2.51 0 0 1-2.5-2.5V6.155a2.51 2.51 0 0 1 2.5-2.5h10.78a2.5 2.5 0 0 1 2.5 2.5v11.69a2.5 2.5 0 0 1-2.5 2.5zM6.61 4.655a1.5 1.5 0 0 0-1.5 1.5v11.69a1.5 1.5 0 0 0 1.5 1.5h10.78a1.5 1.5 0 0 0 1.5-1.5V6.155a1.5 1.5 0 0 0-1.5-1.5zm.83 14.01a.5.5 0 0 1-.5-.5V5.845a.5.5 0 0 1 .5-.5.51.51 0 0 1 .5.5v12.32a.5.5 0 0 1-.5.5z"/></svg>