<svg xmlns="http://www.w3.org/2000/svg" viewBox="0 0 24 24"><path d="M19.25 17.303a.51.51 0 0 1-.5.5h-5.088l-.02.083c-.45 1.708-2.579 2.289-3.834 1.046a2.288 2.288 0 0 1-.632-1.168H5.25a.51.51 0 0 1-.5-.5.5.5 0 0 1 .5-.5h3.944l.011-.045c.449-1.708 2.578-2.289 3.833-1.046.317.315.53.708.624 1.13h5.048a.5.5 0 0 1 .54.5zm-8.19-1.33a1.378 1.378 0 1 0 .727 2.659 1.378 1.378 0 0 0-.727-2.659zm8.19-4.039a.5.5 0 0 1-.5.5h-1.406c-.007.035-.016.07-.025.105-.449 1.708-2.579 2.289-3.833 1.046a2.293 2.293 0 0 1-.629-1.151H5.29a.5.5 0 0 1-.5-.5.51.51 0 0 1 .5-.5h7.577c.004-.021.01-.041.015-.062.449-1.708 2.579-2.289 3.833-1.046.312.309.523.695.62 1.108h1.375a.51.51 0 0 1 .54.5zm-4.512-1.308a1.377 1.377 0 1 0 .725 2.659 1.377 1.377 0 1 0-.725-2.659zm4.012-4.429a.51.51 0 0 1 .5.5.5.5 0 0 1-.5.5h-7.872l-.02.083c-.449 1.708-2.579 2.289-3.833 1.047A2.297 2.297 0 0 1 6.4 7.193v.004H5.29a.5.5 0 0 1-.5-.5.51.51 0 0 1 .5-.5h1.111l.02-.084C6.87 4.406 9 3.824 10.254 5.067c.317.315.53.708.624 1.13zM8.277 5.368a1.378 1.378 0 1 0 .725 2.658 1.377 1.377 0 1 0-.725-2.658z"/></svg>