<svg xmlns="http://www.w3.org/2000/svg" viewBox="0 0 24 24"><path d="M16.73 21.5H7.27a.5.5 0 0 1-.5-.5v-2.79a.5.5 0 0 1 .5-.5h2.34V7.28H6.29v1.24a.5.5 0 0 1-.5.5H3a.5.5 0 0 1-.5-.5V3a.5.5 0 0 1 .5-.5h18a.5.5 0 0 1 .5.5v5.52A.5.5 0 0 1 21 9h-2.79a.5.5 0 0 1-.5-.5V7.28h-3.32v10.43h2.34a.5.5 0 0 1 .5.5V21a.5.5 0 0 1-.5.5zm-9-1h8.46v-1.79h-2.3a.5.5 0 0 1-.5-.5V6.78a.51.51 0 0 1 .5-.5h4.32a.5.5 0 0 1 .5.5V8h1.79V3.5h-17V8h1.79V6.78a.5.5 0 0 1 .5-.5h4.32a.51.51 0 0 1 .5.5v11.43a.5.5 0 0 1-.5.5H7.77z"/></svg>