<svg xmlns="http://www.w3.org/2000/svg" viewBox="0 0 24 24"><path d="M17.815 18.315H6.185a2.63 2.63 0 0 1-2.63-2.63v-7.37a2.63 2.63 0 0 1 2.63-2.63h11.64a2.63 2.63 0 0 1 2.62 2.63v7.37a2.63 2.63 0 0 1-2.63 2.63zM6.185 6.705c-.238 0-.465.052-.668.145l5.548 4.975a1.51 1.51 0 0 0 2 0l5.496-4.937a1.585 1.585 0 0 0-.736-.183zm-1.61 1.61v7.37c0 .889.721 1.61 1.61 1.61h11.63a1.61 1.61 0 0 0 1.61-1.61v-7.37a1.6 1.6 0 0 0-.166-.712l-5.524 4.962a2.519 2.519 0 0 1-1.73.63 2.519 2.519 0 0 1-1.69-.65L4.762 7.561a1.607 1.607 0 0 0-.187.754z" clip-path="url(#a)"/></svg>