<svg xmlns="http://www.w3.org/2000/svg" viewBox="0 0 24 24"><defs><clipPath id="a"><path d="M0 0h24v24H0z"/></clipPath></defs><path d="M17.71 16.78h-7.3A1.5 1.5 0 0 1 9 15.69L6.58 7.42A.52.52 0 0 1 6.66 7a.48.48 0 0 1 .4-.2h12.67a1.46 1.46 0 0 1 1.06.44 1.5 1.5 0 0 1 .44 1.06 1.4 1.4 0 0 1-.06.41l-2 7a1.52 1.52 0 0 1-1.46 1.07zm-10-9l2.21 7.64a.5.5 0 0 0 .48.36h7.3a.5.5 0 0 0 .48-.36l2-7a.78.78 0 0 0 0-.14.49.49 0 0 0-.15-.36.5.5 0 0 0-.35-.14z"/><path d="M7.06 7.78a.5.5 0 01-.48-.37C6.26 6.2 5.46 4.5 4.7 4.5H3a.5.5 0 010-1h1.7c1.82 0 2.74 3.28 2.84 3.65a.49.49 0 01-.35.61zM11.33 21.49a2 2 0 112-2 2 2 0 01-2 2zm0-3a1 1 0 101 1 1 1 0 00-1-1zM16.93 21.49a2 2 0 112-2 2 2 0 01-2 2zm0-3a1 1 0 101 1 1 1 0 00-1-1z"/></svg>