<svg xmlns="http://www.w3.org/2000/svg" viewBox="0 0 24 24"><path d="M17 20a2.94 2.94 0 0 1-1-.17l-.82-.3A17.55 17.55 0 0 1 4.63 8.41a2.78 2.78 0 0 1 .65-2.77l.56-.58A1.87 1.87 0 0 1 8.47 5l1.22 1.24a3 3 0 0 1 .82 2.81l-.06.3a2 2 0 0 0 .24 1.49 8.25 8.25 0 0 0 2.78 2.82l.23.14a2 2 0 0 0 1.6.22 3.06 3.06 0 0 1 2.95.79L19.48 16a1.87 1.87 0 0 1 0 2.61l-.5.51A2.76 2.76 0 0 1 17 20zM7.17 5.5a.87.87 0 0 0-.61.26L6 6.34a1.8 1.8 0 0 0-.42 1.77 16.52 16.52 0 0 0 10 10.48l.82.3a1.79 1.79 0 0 0 1.89-.43l.5-.52a.86.86 0 0 0 0-1.2l-1.22-1.22a2.06 2.06 0 0 0-2-.53 3 3 0 0 1-2.37-.33l-.2-.15a9.08 9.08 0 0 1-3.09-3.1 3.09 3.09 0 0 1-.39-2.28l.07-.29A2 2 0 0 0 9 7L7.8 5.8a.85.85 0 0 0-.63-.3z"/></svg>