<svg xmlns="http://www.w3.org/2000/svg" viewBox="0 0 24 24"><path d="M20.24 3.76A2.68 2.68 0 0 0 18.42 3H5.53A2.61 2.61 0 0 0 3 5.65V18.4a2.68 2.68 0 0 0 .76 1.84 2.57 2.57 0 0 0 1.82.76h12.94A2.53 2.53 0 0 0 21 18.43V5.6a2.66 2.66 0 0 0-.76-1.84zM20 18.44A1.52 1.52 0 0 1 18.52 20H5.57a1.67 1.67 0 0 1-1.1-.46A1.65 1.65 0 0 1 4 18.39V5.65A1.6 1.6 0 0 1 5.54 4h12.9a1.52 1.52 0 0 1 1.09.46A1.62 1.62 0 0 1 20 5.61z"/><path d="M16.5 9h-1a.5.5 0 0 1-.5-.5v-1A1.5 1.5 0 0 0 13.5 6h-3A1.5 1.5 0 0 0 9 7.5v1a.5.5 0 0 1-.5.5h-1A1.5 1.5 0 0 0 6 10.5v3A1.5 1.5 0 0 0 7.5 15h1a.5.5 0 0 1 .5.5v1a1.5 1.5 0 0 0 1.5 1.5h3a1.5 1.5 0 0 0 1.5-1.5v-1a.5.5 0 0 1 .5-.5h1a1.5 1.5 0 0 0 1.5-1.5v-3A1.5 1.5 0 0 0 16.5 9zm.5 4.5a.5.5 0 0 1-.5.5h-1a1.5 1.5 0 0 0-1.5 1.5v1a.5.5 0 0 1-.5.5h-3a.5.5 0 0 1-.5-.5v-1A1.5 1.5 0 0 0 8.5 14h-1a.5.5 0 0 1-.5-.5v-3a.5.5 0 0 1 .5-.5h1A1.5 1.5 0 0 0 10 8.5v-1a.5.5 0 0 1 .5-.5h3a.5.5 0 0 1 .5.5v1a1.5 1.5 0 0 0 1.5 1.5h1a.5.5 0 0 1 .5.5z"/></svg>