<svg xmlns="http://www.w3.org/2000/svg" viewBox="0 0 24 24"><path d="M3.242 16.962a.5.5 0 1 1 .88-.48c3.114 5.763 11.3 5.994 14.734.415 3.434-5.578-.459-12.783-7.007-12.967a8.509 8.509 0 0 0-7.423 3.943l4.941-.819a.5.5 0 0 1 .57.41.49.49 0 0 1-.41.57l-6 1-.08.01a.468.468 0 0 1-.35-.15.46.46 0 0 1-.14-.43l1-6a.506.506 0 1 1 1 .16l-.62 3.656c3.907-4.607 11.469-4.495 15.09.87a9.499 9.499 0 0 1-7.849 14.812 9.498 9.498 0 0 1-8.336-5zm6.77-3.91v-4a.5.5 0 0 1 1 0v3.79l2.68 2.68a.5.5 0 0 1 0 .71.473.473 0 0 1-.35.14.501.501 0 0 1-.36-.14l-2.771-2.781a.498.498 0 0 1-.199-.399z"/></svg>