<svg xmlns="http://www.w3.org/2000/svg" viewBox="0 0 24 24"><path d="M12.007 21.5C4.694 21.5.123 13.583 3.78 7.25 7.436.917 16.578.917 20.234 7.25A9.497 9.497 0 0 1 21.507 12a9.511 9.511 0 0 1-9.5 9.5zm0-18c-6.543 0-10.633 7.083-7.361 12.75 3.271 5.667 11.451 5.667 14.722 0A8.5 8.5 0 0 0 20.507 12a8.51 8.51 0 0 0-8.5-8.5zm0 11.16a.5.5 0 0 1-.5-.5 3.8 3.8 0 0 1 1.63-3.07c.65-.58 1-.94 1-1.6a2.18 2.18 0 0 0-2.13-2.18 2.19 2.19 0 0 0-2.18 1.94.51.51 0 0 1-.55.45.5.5 0 0 1-.44-.55 3.18 3.18 0 0 1 3.17-2.84 3.18 3.18 0 0 1 3.18 3.18 3.06 3.06 0 0 1-1.36 2.35 2.87 2.87 0 0 0-1.29 2.32.51.51 0 0 1-.53.5zm0 3.03a1.32 1.32 0 1 1 0-2.64 1.32 1.32 0 0 1 0 2.64zm0-1.64a.329.329 0 0 0-.32.32.32.32 0 0 0 .64 0 .329.329 0 0 0-.32-.32z"/></svg>