<svg xmlns="http://www.w3.org/2000/svg" viewBox="0 0 24 24"><defs><clipPath id="a"><path d="M0 0h24v24H0z"/></clipPath></defs><path d="M15 21.5H6A1.5 1.5 0 0 1 4.5 20V7A1.5 1.5 0 0 1 6 5.5h2v1H6a.5.5 0 0 0-.5.5v13a.5.5 0 0 0 .5.5h9a.5.5 0 0 0 .5-.5v-2h1v2a1.5 1.5 0 0 1-1.5 1.5z"/><path d="M18 18.5H9A1.5 1.5 0 0 1 7.5 17V4A1.5 1.5 0 0 1 9 2.5h6a.47.47 0 0 1 .35.15l4 4a.47.47 0 0 1 .15.35v10a1.5 1.5 0 0 1-1.5 1.5zm-9-15a.5.5 0 0 0-.5.5v13a.5.5 0 0 0 .5.5h9a.5.5 0 0 0 .5-.5V7.21L14.79 3.5z"/><path d="M15 10.4h-5a.5.5 0 01-.5-.5.5.5 0 01.5-.5h5a.5.5 0 01.5.5.5.5 0 01-.5.5zM16 12.8h-6a.5.5 0 01-.5-.5.5.5 0 01.5-.5h6a.5.5 0 01.5.5.5.5 0 01-.5.5zM16 15.21h-6a.5.5 0 010-1h6a.5.5 0 010 1zM19 7.5h-3A1.5 1.5 0 0114.5 6V3a.5.5 0 01.31-.46.47.47 0 01.54.11l4 4a.47.47 0 01.11.54.5.5 0 01-.46.31zm-3.5-3.29V6a.5.5 0 00.5.5h1.79z"/></svg>