<svg xmlns="http://www.w3.org/2000/svg" viewBox="0 0 24 24"><path d="M5.79 21.33a1 1 0 0 1-1-1l.71-13.4a1 1 0 0 1 1-.93h11.1a1 1 0 0 1 1 .93l.68 13.38a1 1 0 0 1-.94 1H5.79zM17.56 7H6.48l-.66 13.36h12.46z"/><path d="M15.44 6.52h-1A2.76 2.76 0 0 0 12 3.5a2.73 2.73 0 0 0-2.39 2.94h-.99A3.74 3.74 0 0 1 12 2.5h.12a3.75 3.75 0 0 1 3.32 4.02zM9.08 17.14a.49.49 0 0 1-.35-.14.5.5 0 0 1 0-.71l5.9-5.79a.49.49 0 0 1 .7 0 .5.5 0 0 1 0 .71L9.43 17a.5.5 0 0 1-.35.14zm.8-3.85a1.64 1.64 0 0 1 0-3.27 1.65 1.65 0 0 1 1.66 1.61 1.57 1.57 0 0 1-.46 1.16 1.6 1.6 0 0 1-1.15.5zm0-2.27a.63.63 0 0 0-.46.19.65.65 0 0 0-.18.46.6.6 0 0 0 .19.44.65.65 0 0 0 .46.18.6.6 0 0 0 .44-.19.65.65 0 0 0 .18-.46.63.63 0 0 0-.62-.64zm4.29 6.48A1.62 1.62 0 0 1 13 17a1.65 1.65 0 0 1-.5-1.15 1.67 1.67 0 0 1 .5-1.12 1.64 1.64 0 0 1 1.15-.5 1.64 1.64 0 0 1 0 3.27zm0-2.27a.64.64 0 0 0-.46.19.63.63 0 0 0 0 .9.63.63 0 0 0 .45.18.64.64 0 0 0 .63-.65.63.63 0 0 0-.61-.62z"/></svg>