<svg xmlns="http://www.w3.org/2000/svg" viewBox="0 0 17.54 14.74"><defs><clipPath id="a" transform="translate(-3.23 -4.8)"><path d="M0 0h24v24H0z"/></clipPath></defs><g clip-path="url(#a)"><path d="M8.77 8.96a1.26 1.26 0 0 1-.67-.19L.44 5.09H.23l-.19-.33a.62.62 0 0 1 .17-.67l.13-.1L8.14.2a1.26 1.26 0 0 1 1.3 0l7.66 3.75h.39l.05.58a.57.57 0 0 1-.39.55L9.4 8.8a1.18 1.18 0 0 1-.63.16zM1.55 4.51l7 3.38a.32.32 0 0 0 .35 0l7.07-3.4-7-3.44a.32.32 0 0 0-.35 0z"/><path d="M8.77 14.74a1.4 1.4 0 01-.68-.19l-4.07-1.93a1.45 1.45 0 01-.88-1.35V6.2h1v5a.48.48 0 00.29.44l4.15 2a.32.32 0 00.35 0l4.25-2a.67.67 0 00.23-.48V6.2h1v5a1.66 1.66 0 01-.75 1.32l-4.26 2a1.17 1.17 0 01-.63.22zM.56 11.32a.5.5 0 01-.5-.5V4.59a.5.5 0 011 0v6.23a.5.5 0 01-.5.5z"/></g></svg>