<svg xmlns="http://www.w3.org/2000/svg" viewBox="0 0 24 24"><path d="M17.697 7.356a7.73 7.73 0 0 0-3.467-3.225A7.732 7.732 0 0 0 4.61 6.52l1.27-.469a.502.502 0 1 1 .35.94l-2.61 1-.157-.009a.498.498 0 0 1-.472-.701l-.111-2.57a.52.52 0 0 1 .49-.51.49.49 0 0 1 .51.49l.026 1.101A8.724 8.724 0 0 1 14.67 3.261c6.058 2.908 6.696 11.285 1.148 15.077a8.754 8.754 0 0 1-.87.523h4.584l-1.362-.96a.51.51 0 0 1-.11-.7.5.5 0 0 1 .69-.11l2.54 1.77a.505.505 0 0 1 .206.436.497.497 0 0 1-.455.562l-2.291 1.642a.517.517 0 0 1-.29.13.5.5 0 0 1-.29-.91l1.22-.86H3a.5.5 0 0 1 0-1h8.068c5.824-.078 9.5-6.377 6.629-11.505zM10.7 8.861a.51.51 0 0 1 .5-.5.5.5 0 0 1 .5.5v1.73h1.7a.5.5 0 0 1 .5.5.51.51 0 0 1-.5.5h-2.2a.51.51 0 0 1-.5-.5zm.53 7.35c-3.949.008-6.426-4.262-4.458-7.686 1.968-3.424 6.905-3.434 8.886-.018a5.132 5.132 0 0 1-4.428 7.704zm0-9.25c-3.179-.008-5.175 3.429-3.592 6.186 1.583 2.757 5.557 2.767 7.154.018a4.13 4.13 0 0 0-3.562-6.204z"/></svg>