<svg xmlns="http://www.w3.org/2000/svg" viewBox="0 0 24 24"><path d="M12.26 21.73A6.31 6.31 0 0 1 6 15.48v-7.8c.166-3.599 4.166-5.668 7.2-3.724a4.68 4.68 0 0 1 2.15 3.724v6.55c0 2.386-2.583 3.878-4.65 2.685a3.1 3.1 0 0 1-1.55-2.685v-5a.51.51 0 0 1 .5-.5.5.5 0 0 1 .5.5v5c0 1.617 1.75 2.627 3.15 1.819a2.1 2.1 0 0 0 1.05-1.819V7.68c.148-2.829-2.823-4.757-5.346-3.47A3.678 3.678 0 0 0 7 7.68v7.8c.177 4.045 4.666 6.383 8.081 4.207a5.259 5.259 0 0 0 2.429-4.207V9.25a.5.5 0 0 1 .5-.5.51.51 0 0 1 .5.5v6.23a6.31 6.31 0 0 1-6.25 6.25z"/></svg>