<svg xmlns="http://www.w3.org/2000/svg" viewBox="0 0 24 24"><path d="M5 9.14L5.21 9a1.68 1.68 0 0 0 .59.56 1.66 1.66 0 0 0 .69.15 1.69 1.69 0 0 0 .6-.11L8.34 9a2.17 2.17 0 0 0 1.71 1 1.24 1.24 0 0 0 .61-.15l1.26-.61 4.33 1.39a1.5 1.5 0 0 0 .48.08 1.25 1.25 0 0 0 .66-.17l3.5-1.8a.5.5 0 0 0 .21-.67l-1.93-3.74a.48.48 0 0 0-.31-.26.49.49 0 0 0-.39 0 3.55 3.55 0 0 1-.78.35L12.22 2.7a1.51 1.51 0 0 0-1.09 0c-.33.15-6.74 3.44-7.46 3.81a1.61 1.61 0 0 0-.79.91 1.41 1.41 0 0 0 .17 1.11A1.42 1.42 0 0 0 5 9.14zm1.7-.41a.64.64 0 0 1-.45 0 .44.44 0 0 1-.14-.13L8 7.58a1.62 1.62 0 0 0 .18.42zm3.51.27c-.15.07-.46 0-.82-.3h.8l.36.11zM3.84 7.72a.59.59 0 0 1 .28-.3C7 6 11.31 3.72 11.54 3.62a.5.5 0 0 1 .34 0l5.5 1.78a1.79 1.79 0 0 0 1.13-.19L20 8.11l-3.09 1.6a.4.4 0 0 1-.33 0l-6.14-2h-.92a.67.67 0 0 1-.62-.59c0-.44.51-.52.56-.53h1.62a1.34 1.34 0 0 1 .35 0l2 .68.32-.94-2-.68a2.53 2.53 0 0 0-.68-.11H9.41a1.79 1.79 0 0 0-1.35.81L4.54 8.27c-.11.06-.4.16-.63-.23-.11-.19-.08-.29-.07-.32zM21 15.61v-.11a1.46 1.46 0 0 0-2-.64l-.18.09a1.61 1.61 0 0 0-1.89-.59l-1.26.64c-.92-1.2-1.92-1.11-2.32-.87l-1.25.61-4.31-1.39a1.34 1.34 0 0 0-1.16.08l-3.5 1.8a.51.51 0 0 0-.22.68l1.93 3.77a.55.55 0 0 0 .31.25.49.49 0 0 0 .39-.05 3 3 0 0 1 .79-.34l5.48 1.77a1.48 1.48 0 0 0 .51.09 1.63 1.63 0 0 0 .57-.1c.33-.15 6.74-3.45 7.44-3.81a1.41 1.41 0 0 0 .67-1.88zm-3.72-.33a.56.56 0 0 1 .44 0 .45.45 0 0 1 .16.12l-1.89 1a1.41 1.41 0 0 0-.21-.38zM13.8 15c.16-.08.46-.06.83.3H13.83l-.36-.12zm6.1 1.57c-2.86 1.47-7.19 3.69-7.4 3.78a.5.5 0 0 1-.36 0l-5.51-1.77a1.09 1.09 0 0 0-.26 0 2.23 2.23 0 0 0-.86.22L4 15.89l3.08-1.58a.38.38 0 0 1 .35 0L12 15.75l1.62.52a.4.4 0 0 0 .15 0h.75a.7.7 0 0 1 .61.6c0 .43-.51.52-.56.53h-1.64a1.7 1.7 0 0 1-.35-.06l-2-.68-.32.95s1.72.58 2 .68a2.76 2.76 0 0 0 .65.11h1.69a1.81 1.81 0 0 0 1.34-.81l2.9-1.54.65-.34a.42.42 0 0 1 .33 0c.12 0 .2.12.3.31a.43.43 0 0 1-.22.57z"/></svg>