<svg xmlns="http://www.w3.org/2000/svg" viewBox="0 0 24 24"><path d="M9 15.5H2.66a.49.49 0 0 1-.49-.5V7.83h9.35a.5.5 0 0 0 .5-.5.5.5 0 0 0-.5-.5H2.17V5.48A.49.49 0 0 1 2.66 5h14.1a.49.49 0 0 1 .49.48v.46a.5.5 0 0 0 .5.5.5.5 0 0 0 .5-.5v-.46A1.49 1.49 0 0 0 16.76 4H2.66a1.49 1.49 0 0 0-1.49 1.48V15a1.49 1.49 0 0 0 1.49 1.5H9a.5.5 0 0 0 .5-.5.5.5 0 0 0-.5-.5z"/><path d="M9.5 10.49A.5.5 0 0 0 9 10H3.42a.5.5 0 0 0-.5.5.5.5 0 0 0 .5.5H9a.5.5 0 0 0 .5-.51zM3.42 11.64a.5.5 0 0 0-.5.5.5.5 0 0 0 .5.5h4.44a.5.5 0 0 0 .5-.5.5.5 0 0 0-.5-.5z"/><path d="M16 6.64a6.7 6.7 0 1 0 6.7 6.7 6.7 6.7 0 0 0-6.7-6.7zm3.56 4.88l-4.34 4.34a.51.51 0 0 1-.36.15.5.5 0 0 1-.35-.15l-2.09-2.09a.5.5 0 0 1 0-.71.51.51 0 0 1 .71 0l1.73 1.74 4-4a.51.51 0 0 1 .71 0 .5.5 0 0 1 0 .72z"/></svg>