<svg xmlns="http://www.w3.org/2000/svg" viewBox="0 0 24 24"><path d="M18.77 2.5H5.23A1.32 1.32 0 0 0 4 3.89v16.22a1.32 1.32 0 0 0 1.23 1.39h7.67a.5.5 0 0 0 0-1H5.23c-.11 0-.23-.17-.23-.39V3.89c0-.22.12-.39.23-.39h13.54c.11 0 .23.17.23.38v9.43a.5.5 0 1 0 1 0V3.88a1.31 1.31 0 0 0-1.23-1.38z"/><circle cx="7.59" cy="7.97" r=".75"/><path d="M9.77 8.51h6.56a.5.5 0 0 0 0-1H9.77a.5.5 0 0 0 0 1z"/><circle cx="7.59" cy="12" r=".75"/><path d="M16.83 12a.5.5 0 0 0-.5-.5H9.77a.5.5 0 0 0-.5.5.5.5 0 0 0 .5.5h6.56a.5.5 0 0 0 .5-.5z"/><circle cx="7.59" cy="15.97" r=".75"/><path d="M9.77 15.51a.5.5 0 0 0-.5.5.5.5 0 0 0 .5.5h2.4a.5.5 0 0 0 .5-.5.5.5 0 0 0-.5-.5zM18.6 19.26a2.72 2.72 0 1 0-2.24 1.18 2.7 2.7 0 0 0 1.53-.44L19 21.11a.5.5 0 1 0 .73-.69zm-4-1.54a1.72 1.72 0 1 1 1.72 1.72 1.72 1.72 0 0 1-1.68-1.72z"/></svg>