<svg xmlns="http://www.w3.org/2000/svg" viewBox="0 0 24 24"><path d="M11.73 18.1a.5.5 0 0 0 .54-.47v-7.12a.55.55 0 0 0-1.09 0v7.1a.56.56 0 0 0 .55.49z"/><path d="M17.2 6.07h-2v-.74A1.34 1.34 0 0 0 13.87 4h-4.2a1.34 1.34 0 0 0-1.34 1.33v.8h-2A1.34 1.34 0 0 0 5 7.47v.4A1.37 1.37 0 0 0 6.27 9.2l.46 8.8a2.24 2.24 0 0 0 2.2 2h5.67a2.24 2.24 0 0 0 2.2-2.07l.47-8.8a1.28 1.28 0 0 0 1.26-1.29V7.4a1.42 1.42 0 0 0-1.33-1.33zm-.93 3.06l-.47 8.74A1.28 1.28 0 0 1 14.6 19H8.93a1.23 1.23 0 0 1-1.2-1.13l-.46-8.74zM9.33 6.07v-.74a.32.32 0 0 1 .3-.33h4.24a.31.31 0 0 1 .33.3v.83H9.33zm8.2 1.8c0 .13-.2.26-.33.26H6.33C6.13 8.2 6 8 6 7.8v-.4a.31.31 0 0 1 .3-.33h10.9a.31.31 0 0 1 .33.29v.51z"/><path d="M10 18.1a.6.6 0 00.39-.14.54.54 0 00.16-.36l-.24-7.09c0-.28-.23-.5-.62-.5a.52.52 0 00-.54.48l.23 7.1a.65.65 0 00.62.51zM13.44 18.1a.65.65 0 00.62-.5l.23-7.09a.52.52 0 00-.16-.35.6.6 0 00-.39-.14.51.51 0 00-.54.47L13 17.6a.5.5 0 00.16.36c-.03.04.12.14.28.14z"/></svg>