<svg xmlns="http://www.w3.org/2000/svg" viewBox="0 0 24 24"><path d="M13.354 20.49a1.7 1.7 0 0 1-1.65-1.29l-1.3-5.23a.691.691 0 0 0-.52-.48l-5.06-1.18a1.66 1.66 0 0 1-1.2-1 1.7 1.7 0 0 1 .94-2.2l13.6-5.48c1.226-.478 2.511.55 2.312 1.852a1.75 1.75 0 0 1-.092.348l-5.46 13.59a1.692 1.692 0 0 1-1.16 1 1.965 1.965 0 0 1-.41.07zm5.45-16a.757.757 0 0 0-.26 0l-13.61 5.53a.69.69 0 0 0-.38.9c.079.214.265.37.49.41l5.06 1.16a1.67 1.67 0 0 1 1.27 1.24l1.29 5.23a.69.69 0 0 0 1.32.09l5.47-13.56a.7.7 0 0 0-.39-.9.807.807 0 0 0-.26-.1z"/></svg>