<svg xmlns="http://www.w3.org/2000/svg" viewBox="0 0 24 24"><path d="M16.46 16.78a.5.5 0 0 1-.5-.5.5.5 0 0 1 .5-.5h2.83a.33.33 0 0 0 .33-.33V8.87a.34.34 0 0 0-.33-.34H4.52a.34.34 0 0 0-.33.34v6.58a.33.33 0 0 0 .33.33h2.84a.51.51 0 0 1 .5.5.5.5 0 0 1-.5.5H4.52a1.34 1.34 0 0 1-1.33-1.33V8.87a1.34 1.34 0 0 1 1.33-1.34h14.77a1.34 1.34 0 0 1 1.33 1.34v6.58a1.33 1.33 0 0 1-1.32 1.33z"/><path d="M15.6 20.37H8.22A1.33 1.33 0 016.89 19v-5.61a1.33 1.33 0 011.33-1.33h7.38a1.34 1.34 0 011.33 1.33V19a1.34 1.34 0 01-1.33 1.37zm-7.38-7.31a.33.33 0 00-.33.33V19a.33.33 0 00.33.33h7.38a.33.33 0 00.33-.33v-5.61a.33.33 0 00-.33-.33zM16.43 8.3a.5.5 0 01-.5-.5V4.65a.33.33 0 00-.33-.33H8.21a.32.32 0 00-.32.33V7.8a.5.5 0 01-.5.5.5.5 0 01-.5-.5V4.65A1.32 1.32 0 018.2 3.32h7.4a1.33 1.33 0 011.33 1.33V7.8a.5.5 0 01-.5.5zM17.73 11.13h-.26a.5.5 0 010-1h.26a.5.5 0 010 1zM16.19 11.13h-1.38a.5.5 0 010-1h1.38a.5.5 0 010 1z"/></svg>