<svg xmlns="http://www.w3.org/2000/svg" viewBox="0 0 24 24"><path d="M6 21a1.5 1.5 0 0 1-1.5-1.54v-.11l.93-12.07a.5.5 0 0 1 .5-.46h2.533V6c0-2.725 2.95-4.428 5.31-3.066A3.541 3.541 0 0 1 15.543 6v.82h2.527a.5.5 0 0 1 .5.46l.93 12.06A1.52 1.52 0 0 1 18.11 21zm12.35-1.18a.49.49 0 0 0 .12-.37l-.89-11.6h-2.037v1.73a.51.51 0 0 1-.54.5.5.5 0 0 1-.5-.5V7.85h-5.04v1.73a.5.5 0 0 1-.5.5.51.51 0 0 1-.5-.5V7.85H6.39L5.5 19.42a.51.51 0 0 0 .15.4A.481.481 0 0 0 6 20h12a.481.481 0 0 0 .35-.18zM14.503 6c.245-1.94-1.702-3.417-3.504-2.66A2.54 2.54 0 0 0 9.463 6v.82h5.04z"/></svg>