<svg xmlns="http://www.w3.org/2000/svg" viewBox="0 0 24 24"><path d="M16 12.6a4 4 0 0 1-4.06 3.92 4 4 0 0 1-4.08-3.92 4 4 0 0 1 4.08-3.92A4 4 0 0 1 16 12.6zm-2.5-2.598c-2-1.155-4.5.289-4.5 2.598a3 3 0 0 0 1.5 2.598c2 1.155 4.5-.289 4.5-2.598a3 3 0 0 0-1.5-2.598zM20 9.87v6.56A2.55 2.55 0 0 1 17.47 19H6.53A2.55 2.55 0 0 1 4 16.43V9.87a2.53 2.53 0 0 1 2.53-2.46h.8a.67.67 0 0 0 .6-.41l.34-.92A1.67 1.67 0 0 1 9.8 5h4.33a1.67 1.67 0 0 1 1.54 1.15l.26.81a.909.909 0 0 0 .6.41h.87a2.64 2.64 0 0 1 2.6 2.5zm-2.6-1.49h-.87a2 2 0 0 1-1.6-1.08l-.26-.81a.909.909 0 0 0-.6-.41H9.73a.69.69 0 0 0-.6.41l-.26.81a1.68 1.68 0 0 1-1.54 1.08h-.86a1.44 1.44 0 0 0-1.4 1.49v6.56a1.49 1.49 0 0 0 1.46 1.49H17.4a1.48 1.48 0 0 0 1.47-1.42V9.87a1.5 1.5 0 0 0-1.47-1.49z"/></svg>