<svg xmlns="http://www.w3.org/2000/svg" viewBox="0 0 24 24"><path d="M12 21.5C4.687 21.5.116 13.583 3.773 7.25 7.429.917 16.571.917 20.227 7.25A9.497 9.497 0 0 1 21.5 12a9.511 9.511 0 0 1-9.5 9.5zm0-18c-6.543 0-10.633 7.083-7.361 12.75 3.271 5.667 11.451 5.667 14.722 0A8.5 8.5 0 0 0 20.5 12 8.51 8.51 0 0 0 12 3.5zm-1.26 13.29a2.748 2.748 0 0 1-1.39-1.62 2.658 2.658 0 0 1-.14-.88.5.5 0 0 1 .5-.5.51.51 0 0 1 .5.5c0 .193.031.386.09.57.16.434.478.791.89 1a1.79 1.79 0 0 0 1.38.1 1.839 1.839 0 0 0 1.23-1.77 1.258 1.258 0 0 0-.72-1.15l-2.51-1.21A2.4 2.4 0 0 1 9.21 9.7a2.72 2.72 0 0 1 1.53-2.5 2.78 2.78 0 0 1 .76-.25v-.7a.5.5 0 0 1 1 0v.703a2.862 2.862 0 0 1 1.5.767c.533.529.832 1.249.83 2a.5.5 0 0 1-1 0 1.828 1.828 0 0 0-.53-1.28 1.86 1.86 0 0 0-1.211-.528.526.526 0 0 1-.172.001 1.851 1.851 0 0 0-.707.187 1.709 1.709 0 0 0-1 1.59c-.02.555.29 1.069.79 1.31l2.52 1.21a2.26 2.26 0 0 1 1.28 2A2.83 2.83 0 0 1 12.89 17c-.128.035-.259.06-.39.076v.674a.5.5 0 0 1-1 0v-.706a2.788 2.788 0 0 1-.76-.254z"/></svg>