<svg xmlns="http://www.w3.org/2000/svg" viewBox="0 0 24 24"><path d="M8.07 15.45a.82.82 0 0 0-.86.79v.06a.83.83 0 0 0 .79.86h.07a.82.82 0 0 0 .85-.79v-.07a.82.82 0 0 0-.79-.85zm.78-5.91c-.07-.15-.28-.15-.42 0l-.36.35-.36-.35a.26.26 0 0 0-.37-.06v.06a.27.27 0 0 0-.06.37l.06.05.35.36-.35.36a.26.26 0 0 0-.06.37h.06a.27.27 0 0 0 .37.06v-.06l.36-.35.36.35a.27.27 0 0 0 .37.06v-.06a.27.27 0 0 0 .06-.37l-.06-.05-.35-.36.4-.27c.15-.18.15-.39 0-.46zm0 2.99a.27.27 0 0 0-.37-.06l-.05.06-.36.35-.36-.35a.27.27 0 0 0-.37-.06v.06a.27.27 0 0 0-.06.37l.06.06.35.35-.35.36a.26.26 0 0 0-.06.37l.06.06a.27.27 0 0 0 .37.05v-.05l.36-.36.36.36a.27.27 0 0 0 .37.05v-.05a.28.28 0 0 0 .06-.38l-.06-.05-.35-.36.4-.31c.15-.19.15-.4 0-.47zm3.28-1.43a.27.27 0 0 0 .37.06l.06-.06a.27.27 0 0 0 0-.37v-.05l-.43-.36.36-.36a.27.27 0 0 0 0-.37v-.05a.28.28 0 0 0-.38-.06v.06l-.36.35-.35-.35a.28.28 0 0 0-.4-.06l-.05.06a.26.26 0 0 0-.05.37l.05.05.35.36-.35.36a.26.26 0 0 0-.05.37h.05a.27.27 0 0 0 .37.06l.06-.06.35-.35z"/><path d="M10.78 18.23H5.93A1.25 1.25 0 0 1 4.72 17V7.75a1.25 1.25 0 0 1 1.21-1.21H17a1.24 1.24 0 0 1 1.21 1.21v3a.64.64 0 0 0 .29.5.8.8 0 0 0 .57 0 .61.61 0 0 0 .28-.5v-3A2.37 2.37 0 0 0 17 5.4h-.35a.19.19 0 0 1-.22-.16v-.76a.94.94 0 0 0-.92-.93h-1.74a1.08 1.08 0 0 0-.93 1v.72a.18.18 0 0 1-.16.21h-2.4a.2.2 0 0 1-.22-.16v-.77a.94.94 0 0 0-.92-.92H7.36a1 1 0 0 0-.93.92v.72a.19.19 0 0 1-.16.21h-.34a2.31 2.31 0 0 0-2.35 2.27V17a2.38 2.38 0 0 0 2.35 2.36h4.85a.56.56 0 0 0 .5-.29.58.58 0 0 0 0-.57.71.71 0 0 0-.5-.27zM7.57 5.48v-.65c0-.07 0-.07.07-.07h1.21c.07 0 .07 0 .07.07v.57H7.57zm6.41 0v-.65c0-.07 0-.07.07-.07h1.21c.07 0 .07 0 .07.07v.57H14z"/><path d="M16 11.46A4.56 4.56 0 1 0 20.53 16 4.59 4.59 0 0 0 16 11.46zM19.39 16A3.42 3.42 0 1 1 16 12.6a3.46 3.46 0 0 1 3.39 3.4z"/><path d="M16.4 15.73v-2a.33.33 0 0 0-.31-.36.34.34 0 0 0-.36.32v2.39l1.85 1.85a.44.44 0 0 0 .57 0 .42.42 0 0 0 0-.57z"/></svg>