<svg xmlns="http://www.w3.org/2000/svg" viewBox="0 0 24 24"><path d="M9.836 9.503c.962-1.667 3.368-1.667 4.33 0 .219.38.335.811.335 1.25a2.51 2.51 0 0 1-2 2.448v7.552a.5.5 0 0 1-1 0v-7.549c-1.623-.322-2.541-2.184-1.665-3.701zm2.165-.25a1.5 1.5 0 1 0 0 3 1.5 1.5 0 0 0 0-3zm-5 9.39a.575.575 0 0 1-.28-.08 9.45 9.45 0 0 1 0-15.73.505.505 0 0 1 .56.84 8.43 8.43 0 0 0-2.38 11.68 8.28 8.28 0 0 0 2.38 2.37.51.51 0 0 1 .14.7.52.52 0 0 1-.42.22zm10 0a.52.52 0 0 1-.42-.22.51.51 0 0 1 .14-.7 8.43 8.43 0 0 0 2.38-11.68 8.28 8.28 0 0 0-2.38-2.37.505.505 0 1 1 .56-.84c5.615 3.74 5.615 11.99 0 15.73a.575.575 0 0 1-.28.08zm-2-1.66a.511.511 0 0 1-.45-.27.5.5 0 0 1 .22-.67c4.115-2.098 4.415-7.864.54-10.378a6.047 6.047 0 0 0-.54-.312.5.5 0 0 1-.22-.67.51.51 0 0 1 .68-.22 7 7 0 0 1 0 12.47.48.48 0 0 1-.23.05zm-6 0a.48.48 0 0 1-.23-.05 7.007 7.007 0 0 1-3-3 7 7 0 0 1 3-9.47.51.51 0 0 1 .68.22.5.5 0 0 1-.22.67c-4.115 2.098-4.415 7.864-.54 10.378.175.113.355.218.54.312a.5.5 0 0 1 .22.67.511.511 0 0 1-.45.27z"/></svg>