<svg xmlns="http://www.w3.org/2000/svg" viewBox="0 0 24 24"><path d="M18.92 18.13a.9.9 0 0 1-.39-.1l-1-.5-1 .5a.84.84 0 0 1-.39.1.69.69 0 0 1-.51-.22.79.79 0 0 1-.15-.63l.18-1.08-.66-.75a.72.72 0 0 1-.22-.75.71.71 0 0 1 .62-.48l1.07-.16.48-1a.71.71 0 0 1 1.29 0l.49 1 1.07.15a.74.74 0 0 1 .62.48.73.73 0 0 1-.22.75l-.78.75.18 1.07a.75.75 0 0 1-.14.63.66.66 0 0 1-.54.24zm-2.85-3l.45.44a.79.79 0 0 1 .23.67l-.11.64.56-.29a.84.84 0 0 1 .71 0l.58.3-.1-.62a.8.8 0 0 1 .2-.67l.47-.46-.62-.14a.86.86 0 0 1-.58-.41l-.29-.59-.28.57a.84.84 0 0 1-.56.42zm-5.88-5.77a.93.93 0 0 1-.41-.11l-.95-.5-1 .5a.89.89 0 0 1-.38.11.65.65 0 0 1-.45-.23.73.73 0 0 1-.15-.63L7 7.43l-.77-.76A.72.72 0 0 1 6 5.92a.74.74 0 0 1 .62-.48l1.08-.15.48-1a.7.7 0 0 1 1.29 0l.49 1 1.04.15a.77.77 0 0 1 .63.48.72.72 0 0 1-.23.75l-.77.76.18 1.07a.8.8 0 0 1-.14.63.7.7 0 0 1-.48.23zM8.83 7.73a.72.72 0 0 1 .33.07l.6.31-.1-.62a.82.82 0 0 1 .19-.67l.48-.47-.62-.09a.85.85 0 0 1-.58-.4l-.29-.6-.28.57a.88.88 0 0 1-.56.43l-.64.09.45.44a.86.86 0 0 1 .19.67l-.11.65.56-.3a1 1 0 0 1 .38-.08zM4 20.68a.49.49 0 0 1-.35-.14.51.51 0 0 1 0-.71l9.24-9.24a.5.5 0 1 1 .71.71l-9.24 9.24a.5.5 0 0 1-.36.14zM19 9a.9.9 0 0 1-.39-.1l-1-.5-1 .5a.76.76 0 0 1-.37.1.69.69 0 0 1-.52-.22.8.8 0 0 1-.15-.63l.19-1.08-.76-.71a.74.74 0 0 1-.22-.75.72.72 0 0 1 .62-.48L16.51 5 17 4a.73.73 0 0 1 .65-.44.71.71 0 0 1 .65.44l.48 1 1.07.15a.74.74 0 0 1 .62.48.73.73 0 0 1-.22.75l-.78.75.19 1.07a.76.76 0 0 1-.15.63A.65.65 0 0 1 19 9zm-2.85-3l.45.44a.86.86 0 0 1 .23.67l-.12.65.57-.3a.84.84 0 0 1 .71 0l.57.3-.1-.62a.82.82 0 0 1 .2-.67l.47-.47h-.61a.82.82 0 0 1-.58-.41l-.3-.59-.28.57a.84.84 0 0 1-.56.42z"/></svg>