<svg xmlns="http://www.w3.org/2000/svg" viewBox="0 0 24 24"><path d="M12.1 13a.77.77 0 00-.81.74v.07a.81.81 0 101.61.05v-.05a.8.8 0 00-.8-.81zM12.1 15.86a.78.78 0 00-.81.75v.06a.81.81 0 101.61.06.06.06 0 000-.06.82.82 0 00-.8-.81zM8.32 15.86a.78.78 0 00-.81.75v.06a.77.77 0 00.74.81h.07a.78.78 0 00.81-.75v-.06a.78.78 0 00-.75-.81zM15.81 13a.77.77 0 00-.81.74v.07a.8.8 0 00.83.78.82.82 0 00.79-.78.79.79 0 00-.75-.81z"/><path d="M17.9 6.75h-.61a.17.17 0 0 1-.2-.15v-.72a.89.89 0 0 0-.88-.88h-1.69a.89.89 0 0 0-.87.88v.67a.18.18 0 0 1-.16.2h-2.88a.18.18 0 0 1-.2-.15v-.72a.81.81 0 0 0-.81-.81H7.91a.88.88 0 0 0-.91.87v.68a.18.18 0 0 1-.16.2h-.61A2.15 2.15 0 0 0 4 8.89v8.79a2.21 2.21 0 0 0 2.17 2.23H18a2.25 2.25 0 0 0 2.23-2.23V9a2.35 2.35 0 0 0-2.33-2.25zm-8.57-.54v.54H8.11v-.54c0-.06 0-.06.07-.06h1.15v.06zm5.47.54v-.54c0-.06 0-.06.06-.06H16c.07 0 .07 0 .07.06v.54zM19.05 9v8.7a1.18 1.18 0 0 1-1.15 1.15H6.23a1.18 1.18 0 0 1-1.15-1.15V9a1.18 1.18 0 0 1 1.15-1.17H18A1.17 1.17 0 0 1 19 9z"/><path d="M9.06 10.26a.26.26 0 00-.36 0l-.34.34-.36-.34a.29.29 0 00-.4.06.27.27 0 000 .34l.33.34-.33.34a.29.29 0 000 .4.32.32 0 00.35 0l.33-.33.33.34a.29.29 0 00.4-.06.27.27 0 000-.34L8.72 11l.34-.33a.43.43 0 000-.41zM9.06 13.09a.26.26 0 00-.36 0l-.34.34-.36-.34a.3.3 0 00-.4.06.27.27 0 000 .34l.33.34-.33.34a.28.28 0 000 .4.32.32 0 00.35 0l.33-.33.33.34a.29.29 0 00.4-.06.27.27 0 000-.34l-.33-.34.34-.34a.43.43 0 00.04-.41zM12.84 10.26a.26.26 0 00-.36 0l-.34.34-.34-.34a.29.29 0 00-.4.06.3.3 0 000 .34l.34.34-.34.34a.3.3 0 00.06.4.3.3 0 00.34 0l.34-.34.34.34a.3.3 0 00.4.06.3.3 0 00.06-.4.17.17 0 00-.06-.06L12.5 11l.34-.33a.43.43 0 000-.41zM16.55 10.26a.26.26 0 00-.36 0l-.34.34-.34-.34a.29.29 0 00-.4-.06.3.3 0 00-.06.4l.06.06.4.34-.33.34a.28.28 0 00.06.4.3.3 0 00.34 0l.33-.34.34.34a.3.3 0 00.4-.06.3.3 0 000-.34l-.38-.34.34-.34c.07-.13.07-.33-.06-.4z"/></svg>