<svg xmlns="http://www.w3.org/2000/svg" viewBox="0 0 24 24"><path d="M17.31 3.69A2.32 2.32 0 0 0 15.67 3H8.29A2.35 2.35 0 0 0 6 5.4v13.24a2.39 2.39 0 0 0 .69 1.67 2.24 2.24 0 0 0 1.62.69h7.44A2.29 2.29 0 0 0 18 18.68V5.35a2.38 2.38 0 0 0-.69-1.66zm-.31 15A1.29 1.29 0 0 1 15.75 20l-.08.5V20H8.33a1.37 1.37 0 0 1-.93-.39 1.42 1.42 0 0 1-.4-1V5.39A1.36 1.36 0 0 1 8.33 4h7.34a1.27 1.27 0 0 1 .93.39 1.42 1.42 0 0 1 .4 1z"/><path d="M14.39 5h-4.8A1.62 1.62 0 0 0 8 6.65v7c0 .72.81 1.19 1 1.31a1.28 1.28 0 0 0 .53.15A1.13 1.13 0 0 0 10.7 14v-2.56a11.3 11.3 0 0 1 2.6 0v2.63a1.17 1.17 0 0 0 .12.52 1.1 1.1 0 0 0 .65.55 1.12 1.12 0 0 0 .32 0 1 1 0 0 0 .46-.11c.29-.13 1.15-.51 1.15-1.33V6.62a1.66 1.66 0 0 0-.49-1.17A1.7 1.7 0 0 0 14.39 5zm.61 8.74c0 .08-.15.23-.55.42h-.12a.13.13 0 0 1 0-.06v-2.88a.91.91 0 0 0-.56-.71h-.13a12.24 12.24 0 0 0-3.2 0 .8.8 0 0 0-.7.84V14a.19.19 0 0 1 0 .1h-.23a1.09 1.09 0 0 1-.51-.43v-7A.62.62 0 0 1 9.61 6h4.78a.82.82 0 0 1 .42.17.66.66 0 0 1 .19.48zM12 16.42a1.5 1.5 0 1 0 1.5 1.5 1.5 1.5 0 0 0-1.5-1.5zm0 2a.5.5 0 0 1-.5-.5.5.5 0 0 1 1 0 .5.5 0 0 1-.5.5z"/><path d="M12 6.19a2 2 0 1 0 2 2 2 2 0 0 0-2-2zm0 3a1 1 0 1 1 1-1 1 1 0 0 1-1 1z"/></svg>