<svg xmlns="http://www.w3.org/2000/svg" viewBox="0 0 24 24"><defs><clipPath id="a"><path d="M0 0h24v24H0z"/></clipPath></defs><path d="M4.71 9.1h.42v8.64a.67.67 0 0 0 .63.71h9.08a.57.57 0 0 0 0-1.13H6.27V9.1H18.8v4.53a.57.57 0 0 0 1.13 0V9.1h.36a.68.68 0 0 0 .71-.62V4.71a.77.77 0 0 0-.71-.71H4.71a.67.67 0 0 0-.71.63v3.83a.75.75 0 0 0 .71.64zm.42-4h14.74V8H5.13z"/><path d="M20.43 15.33h-2.76v-2.76a.57.57 0 0 0-.55-.57.53.53 0 0 0-.57.47v2.86h-2.77a.57.57 0 0 0-.57.55.52.52 0 0 0 .47.57h2.86v2.76a.56.56 0 0 0 .55.57.53.53 0 0 0 .57-.47v-2.84h2.76a.58.58 0 0 0 .55-.59.58.58 0 0 0-.54-.55z"/></svg>