<svg xmlns="http://www.w3.org/2000/svg" viewBox="0 0 24 24"><path d="M7.707 14.84c-2.179-.008-3.532-2.371-2.436-4.254.963-1.654 3.183-1.847 4.442-.586l3.9-1.882a2.803 2.803 0 0 1 .18-2.449c1.086-1.897 3.819-1.907 4.918-.018a2.84 2.84 0 0 1-2.444 4.269 2.8 2.8 0 0 1-2.127-.945l-3.851 1.854a2.829 2.829 0 0 1 .023 2.312l3.84 1.893c1.236-1.408 3.582-1.258 4.58.457a2.84 2.84 0 0 1-2.444 4.269c-2.044.007-3.379-2.056-2.655-3.875l-3.877-1.912a2.82 2.82 0 0 1-2.049.867zm0-4.66c-1.409.008-2.281 1.537-1.57 2.754.711 1.216 2.472 1.206 3.17-.018a1.83 1.83 0 0 0-1.6-2.736zm8.56-4.93c-1.416-.008-2.31 1.521-1.608 2.751.701 1.231 2.472 1.24 3.187.018.166-.285.253-.609.251-.939a1.83 1.83 0 0 0-1.83-1.83zm.021 9.84c-1.416-.008-2.31 1.521-1.608 2.751.701 1.231 2.472 1.24 3.187.018.166-.285.253-.609.251-.939a1.83 1.83 0 0 0-1.83-1.83z"/></svg>