<svg xmlns="http://www.w3.org/2000/svg" viewBox="0 0 24 24"><path d="M3.06 21.505a.5.5 0 0 1 0-1h.55v-3.17c0-.022.001-.043.004-.064A2.169 2.169 0 0 1 2.5 15.365v-2a2 2 0 0 1 2-2h.87v-2.85a.51.51 0 0 1 .5-.5h1.84a.51.51 0 0 1 .5.5v2.85h2.37v-3.55a.5.5 0 0 1 .5-.5h1.84a.5.5 0 0 1 .5.5v3.55h2.35v-2.85a.5.5 0 0 1 .5-.5h1.83a.5.5 0 0 1 .5.5v2.85h.9a2 2 0 0 1 2 2v2.43a2 2 0 0 1-.59 1.47c-.122.13-.26.242-.41.334v2.906h.44a.51.51 0 0 1 .5.5.5.5 0 0 1-.5.5zm1.55-1H19.5v-2.61h-.06a2.079 2.079 0 0 1-2.09-2.09v-1.29a.37.37 0 0 0-.37-.38.38.38 0 0 0-.39.38v.39c0 1.57-1.7 2.552-3.06 1.767a2.041 2.041 0 0 1-1.02-1.767v-.39a.37.37 0 0 0-.11-.27.46.46 0 0 0-.6 0 .4.4 0 0 0-.11.27v1.87a2.06 2.06 0 0 1-2.05 2.05 2.06 2.06 0 0 1-2.05-2.07v-1.86a.388.388 0 0 0-.11-.27.38.38 0 0 0-.53 0 .352.352 0 0 0-.11.27v.85a2.162 2.162 0 0 1-.63 1.54c-.4.416-.953.651-1.53.65l-.07-.001zm2.6-7.38a1.34 1.34 0 0 1 1 .41c.264.265.409.626.4 1v1.87a1.045 1.045 0 0 0 2.09 0v-1.89a1.38 1.38 0 0 1 1.38-1.39c.375-.002.734.146 1 .41.263.265.408.626.4 1v.39a1.06 1.06 0 0 0 1 1.06c.279.004.547-.108.74-.31.192-.202.3-.471.3-.75v-.39a1.38 1.38 0 0 1 2.76 0v1.22c-.003.29.113.568.32.77a.999.999 0 0 0 .76.32 1.07 1.07 0 0 0 .76-.32c.199-.207.31-.483.31-.77v-2.44a1 1 0 0 0-1-1h-15a1 1 0 0 0-1 1v2c-.001.311.121.609.34.83.216.227.517.353.83.35a1.18 1.18 0 0 0 1.17-1.18v-.86a1.37 1.37 0 0 1 1.44-1.33zm4.37-1.81h.84v-3h-.84zm.52-4.18h-.2a1.14 1.14 0 0 1-.33 0 1.592 1.592 0 0 1-1-.67 1.638 1.638 0 0 1-.24-1.2v-.09a13.72 13.72 0 0 1 1.24-2.41.501.501 0 0 1 .43-.27.5.5 0 0 1 .42.23c.502.791.927 1.628 1.27 2.5a.33.33 0 0 1 0 .14c.01.113.01.227 0 .34a1.631 1.631 0 0 1-1.59 1.43zm-.18-1a.75.75 0 0 0 .57-.14.655.655 0 0 0 .23-.42.206.206 0 0 0 0-.07 14.496 14.496 0 0 0-.72-1.51c-.271.48-.508.978-.71 1.49a.545.545 0 0 0 .1.41.563.563 0 0 0 .38.25.266.266 0 0 0 .15-.02zm4.85 5.18h.83v-2.32h-.83zm.51-3.49h-.2a.75.75 0 0 1-.32 0 1.6 1.6 0 0 1-1.26-1.91.272.272 0 0 1 0-.09c.333-.845.748-1.656 1.24-2.42a.5.5 0 0 1 .84 0c.506.789.931 1.626 1.27 2.5a.818.818 0 0 1 0 .14c.01.116.01.234 0 .35a1.64 1.64 0 0 1-1.57 1.43zm-.17-1a.67.67 0 0 0 .8-.55v-.08a12.824 12.824 0 0 0-.73-1.54c-.267.482-.504.979-.71 1.49a.6.6 0 0 0 .48.66zm-10.74 4.49h.84v-2.32h-.84zm.52-3.49h-.2a.75.75 0 0 1-.32 0 1.61 1.61 0 0 1-1.27-1.91v-.09c.342-.847.768-1.657 1.27-2.42a.5.5 0 0 1 .84 0c.502.791.927 1.628 1.27 2.5a.366.366 0 0 1 0 .14c.01.113.01.227 0 .34a1.66 1.66 0 0 1-.62 1.09 1.595 1.595 0 0 1-.97.35zm-.17-1a.699.699 0 0 0 .55-.13.59.59 0 0 0 .24-.42.165.165 0 0 0 0-.07 14.635 14.635 0 0 0-.73-1.54c-.271.48-.508.978-.71 1.49a.6.6 0 0 0 .48.66z"/></svg>