<svg xmlns="http://www.w3.org/2000/svg" viewBox="0 0 24 24"><defs><clipPath id="a"><rect width="24" height="24"/></clipPath></defs><path d="M16.92 21.48a.5.5 0 0 1-.5-.5.5.5 0 0 1 .5-.5h2.3a.2.2 0 0 0 .11-.21v-4.11a.32.32 0 0 0-.06-.2.49.49 0 0 1-.1-.3v-2.52a.3.3 0 0 0-.1-.24.53.53 0 0 1-.18-.38v-2.06a.26.26 0 0 0-.1-.24l-1.27.84a.5.5 0 1 1-.56-.83l1.26-.85a.84.84 0 0 1 .59-.15.91.91 0 0 1 .59.19 1.26 1.26 0 0 1 .49 1.05v1.85a1.26 1.26 0 0 1 .28.83v2.36a1.33 1.33 0 0 1 .16.65v4.07a1.17 1.17 0 0 1-1.06 1.24z"/><path d="M9.39 21.48a1 1 0 0 1-.94-1.14v-8.92a9.9 9.9 0 0 1 .83-4.15 5.27 5.27 0 0 0 .12-1.75.51.51 0 0 1 .12-.39.52.52 0 0 1 .37-.13h4.67a.51.51 0 0 1 .37.16.52.52 0 0 1 .13.39 5.38 5.38 0 0 0 .14 1.83 9.91 9.91 0 0 1 .8 4.05v8.94a1 1 0 0 1-.91 1.11zM10.42 6a6 6 0 0 1-.2 1.63 9.18 9.18 0 0 0-.77 3.81v9a.41.41 0 0 0 0 .14h5.56v-9.09a9.11 9.11 0 0 0-.75-3.75A6.43 6.43 0 0 1 14 6z"/><path d="M5.77 21.48A1.42 1.42 0 0 1 4.46 20v-1a1.79 1.79 0 0 1-.22-.85l-.18-5.42a2.33 2.33 0 0 0-.06-.5l-.39-1.73a1.23 1.23 0 0 1 0-.35 1.54 1.54 0 0 1-.06-.43V8.45a1.22 1.22 0 0 1 1-1.33H7a.5.5 0 0 1 .5.5.5.5 0 0 1-.5.5H4.58a.29.29 0 0 0-.08.24v1.36a.78.78 0 0 0 0 .21.44.44 0 0 1 0 .2.49.49 0 0 0 0 .12L5 12a4.29 4.29 0 0 1 .08.71l.18 5.44a.75.75 0 0 0 .13.42.52.52 0 0 1 .09.29V20a.43.43 0 0 0 .37.49H7a.5.5 0 0 1 .44-.55.47.47 0 0 1 .53.44 1 1 0 0 1-.92 1.1z"/><line x1="8.45" x2="14.76" y1="3" y2="3"/><path d="M14.76 3.5H8.45a.5.5 0 0 1 0-1h6.31a.5.5 0 0 1 0 1z"/><line x1="14.13" x2="14.13" y1="5.31" y2="3.04"/><path d="M14.13 5.81a.5.5 0 0 1-.5-.5V3a.5.5 0 0 1 1 0v2.31a.5.5 0 0 1-.5.5z"/><line x1="10.33" x2="10.33" y1="5.31" y2="3.04"/><path d="M10.33 5.81a.5.5 0 0 1-.5-.5V3a.5.5 0 0 1 1 0v2.31a.5.5 0 0 1-.5.5z"/><line x1="4.07" x2="6.88" y1="10.09" y2="10.09"/><path d="M6.88 10.59H4.07a.5.5 0 0 1-.5-.5.5.5 0 0 1 .5-.5h2.81a.5.5 0 0 1 .5.5.51.51 0 0 1-.5.5z"/><g><line x1="4.95" x2="6.7" y1="18.88" y2="18.88"/><path d="M6.69 19.38H5a.5.5 0 1 1 0-1h1.69a.5.5 0 1 1 0 1z"/></g><g><line x1="19.04" x2="17.47" y1="12.52" y2="12.52"/><path d="M19 13h-1.53a.5.5 0 0 1-.5-.5.5.5 0 0 1 .5-.5H19a.5.5 0 0 1 .5.5.5.5 0 0 1-.5.5z"/></g><g><line x1="19.67" x2="17.47" y1="15.65" y2="15.65"/><path d="M19.67 16.15h-2.2a.5.5 0 0 1-.5-.5.5.5 0 0 1 .5-.5h2.2a.5.5 0 0 1 .5.5.5.5 0 0 1-.5.5z"/></g></svg>