<svg xmlns="http://www.w3.org/2000/svg" xmlns:xlink="http://www.w3.org/1999/xlink" viewBox="0 0 24 24">
  <defs>
    <clipPath id="a">
      <rect width="24" height="24"/>
    </clipPath>
  </defs>
  <title>outlined-action-micrec</title>
  <g>
    <g style="opacity: 0">
      <g>
        <rect width="24" height="24"/>
        <g style="clip-path: url(#a)">
          <g>
            <rect width="24" height="24"/>
            <path d="M12,21.5A9.5,9.5,0,1,1,21.5,12,9.51,9.51,0,0,1,12,21.5Zm0-18A8.5,8.5,0,1,0,20.5,12,8.51,8.51,0,0,0,12,3.5Z"/>
          </g>
        </g>
      </g>
    </g>
    <g>
      <g style="opacity: 0">
        <rect width="24" height="24"/>
      </g>
      <g>
        <path d="M12,17.19a5,5,0,0,1-5-5V8A.5.5,0,1,1,8,8v4.22a4,4,0,1,0,8,0V8a.5.5,0,1,1,1,0v4.22A5,5,0,0,1,12,17.19Z"/>
        <path d="M15.38,21.31H8.62a.51.51,0,0,1-.5-.5.5.5,0,0,1,.5-.5h6.76a.5.5,0,0,1,.5.5A.51.51,0,0,1,15.38,21.31Z"/>
        <path d="M12.6,14.94H11.4a2.5,2.5,0,0,1-2.5-2.5V5.19a2.51,2.51,0,0,1,2.5-2.5h1.2a2.51,2.51,0,0,1,2.5,2.5v7.25A2.5,2.5,0,0,1,12.6,14.94ZM11.4,3.69a1.51,1.51,0,0,0-1.5,1.5v7.25a1.5,1.5,0,0,0,1.5,1.5h1.2a1.5,1.5,0,0,0,1.5-1.5V5.19a1.51,1.51,0,0,0-1.5-1.5Z"/>
        <path d="M12.6,14.94H11.4a2.5,2.5,0,0,1-2.5-2.5V8.32h6.2v4.12A2.5,2.5,0,0,1,12.6,14.94ZM9.9,9.32v3.12a1.5,1.5,0,0,0,1.5,1.5h1.2a1.5,1.5,0,0,0,1.5-1.5V9.32Z"/>
        <rect x="11.5" y="14.06" width="1" height="6.75"/>
      </g>
    </g>
  </g>
</svg>
