<svg xmlns="http://www.w3.org/2000/svg" viewBox="0 0 24 24"><path d="M15 21.5H6A1.5 1.5 0 0 1 4.5 20V7A1.5 1.5 0 0 1 6 5.5h2v1H6a.5.5 0 0 0-.5.5v13a.5.5 0 0 0 .5.5h9a.5.5 0 0 0 .5-.5v-2h1v2a1.5 1.5 0 0 1-1.5 1.5z"/><path d="M18 18.5H9A1.5 1.5 0 0 1 7.5 17V4A1.5 1.5 0 0 1 9 2.5h6a.47.47 0 0 1 .35.15l4 4a.47.47 0 0 1 .15.35v10a1.5 1.5 0 0 1-1.5 1.5zm-9-15a.5.5 0 0 0-.5.5v13a.5.5 0 0 0 .5.5h9a.5.5 0 0 0 .5-.5V7.21L14.79 3.5z"/><path d="M15 10.4h-5a.5.5 0 0 1-.5-.5.5.5 0 0 1 .5-.5h5a.5.5 0 0 1 .5.5.5.5 0 0 1-.5.5zm1 2.4h-6a.5.5 0 0 1-.5-.5.5.5 0 0 1 .5-.5h6a.5.5 0 0 1 .5.5.5.5 0 0 1-.5.5zm0 2.41h-6a.5.5 0 0 1 0-1h6a.5.5 0 0 1 0 1zm3-7.71h-3A1.5 1.5 0 0 1 14.5 6V3a.5.5 0 0 1 .31-.46.47.47 0 0 1 .54.11l4 4a.47.47 0 0 1 .11.54.5.5 0 0 1-.46.31zm-3.5-3.29V6a.5.5 0 0 0 .5.5h1.79z"/></svg>