<svg xmlns="http://www.w3.org/2000/svg" viewBox="0 0 24 24"><path d="M12 21.5a9.5 9.5 0 1 1 9.5-9.5 9.51 9.51 0 0 1-9.5 9.5zm0-18a8.5 8.5 0 1 0 8.5 8.5A8.51 8.51 0 0 0 12 3.5z"/><path d="M12 14.66a.5.5 0 0 1-.5-.5 3.8 3.8 0 0 1 1.63-3.07c.65-.58 1-.94 1-1.6A2.18 2.18 0 0 0 12 7.31a2.19 2.19 0 0 0-2.18 1.94.51.51 0 0 1-.55.45.5.5 0 0 1-.44-.55A3.18 3.18 0 0 1 12 6.31a3.18 3.18 0 0 1 3.18 3.18 3.06 3.06 0 0 1-1.36 2.35 2.87 2.87 0 0 0-1.29 2.32.51.51 0 0 1-.53.5zm0 3.03a1.32 1.32 0 1 1 1.32-1.32A1.32 1.32 0 0 1 12 17.69zm0-1.64a.33.33 0 0 0-.32.32.32.32 0 0 0 .64 0 .33.33 0 0 0-.32-.32z"/></svg>