<svg xmlns="http://www.w3.org/2000/svg" xmlns:xlink="http://www.w3.org/1999/xlink" viewBox="0 0 24 24">
  <defs>
    <clipPath id="a">
      <rect width="24" height="24"/>
    </clipPath>
  </defs>
  <title>outlined-action-newrequest</title>
  <g>
    <g style="opacity: 0">
      <g>
        <rect width="24" height="24"/>
        <g style="clip-path: url(#a)">
          <g>
            <rect width="24" height="24"/>
            <path d="M12,21.5A9.5,9.5,0,1,1,21.5,12,9.51,9.51,0,0,1,12,21.5Zm0-18A8.5,8.5,0,1,0,20.5,12,8.51,8.51,0,0,0,12,3.5Z"/>
          </g>
        </g>
      </g>
    </g>
    <g>
      <path d="M4.71,9.1h.42v8.64a.67.67,0,0,0,.63.71h9.08a.57.57,0,0,0,0-1.13H6.27V9.1H18.8v4.53a.57.57,0,0,0,1.13,0V9.1h.36A.68.68,0,0,0,21,8.48V4.71A.77.77,0,0,0,20.29,4H4.71A.67.67,0,0,0,4,4.63V8.46A.75.75,0,0,0,4.71,9.1Zm.42-4H19.87V8H5.13Z"/>
      <path d="M20.43,15.33H17.67V12.57a.57.57,0,0,0-.55-.57h0a.53.53,0,0,0-.57.47v2.86H13.78a.57.57,0,0,0-.57.55v0a.52.52,0,0,0,.47.57h2.86v2.76a.56.56,0,0,0,.55.57h0a.53.53,0,0,0,.57-.47V16.47h2.76a.58.58,0,0,0,.55-.59A.58.58,0,0,0,20.43,15.33Z"/>
    </g>
  </g>
</svg>
