<svg xmlns="http://www.w3.org/2000/svg" xmlns:xlink="http://www.w3.org/1999/xlink" viewBox="0 0 24 24">
  <defs>
    <clipPath id="a">
      <rect width="24" height="24"/>
    </clipPath>
  </defs>
  <title>outlined-action-selectedalllines</title>
  <g>
    <g style="opacity: 0">
      <g>
        <rect width="24" height="24"/>
        <g style="clip-path: url(#a)">
          <g>
            <rect width="24" height="24"/>
            <path d="M12,21.5A9.5,9.5,0,1,1,21.5,12,9.51,9.51,0,0,1,12,21.5Zm0-18A8.5,8.5,0,1,0,20.5,12,8.51,8.51,0,0,0,12,3.5Z"/>
          </g>
        </g>
      </g>
    </g>
    <g>
      <g>
        <path d="M20.71,6.56H8.35a.5.5,0,0,1,0-1H20.71a.5.5,0,0,1,0,1Z"/>
        <g>
          <path d="M5,7.14A.47.47,0,0,1,4.66,7a.49.49,0,0,1,0-.7L6.24,4.65a.5.5,0,0,1,.71,0,.51.51,0,0,1,0,.71L5.37,7A.51.51,0,0,1,5,7.14Z"/>
          <path d="M5,7.14A.46.46,0,0,1,4.66,7l-1-1a.5.5,0,0,1,0-.71.5.5,0,0,1,.7,0l1,1a.5.5,0,0,1,0,.71A.47.47,0,0,1,5,7.14Z"/>
        </g>
      </g>
      <g>
        <path d="M20.71,12.45H8.35a.5.5,0,0,1-.5-.5.5.5,0,0,1,.5-.5H20.71a.5.5,0,0,1,.5.5A.51.51,0,0,1,20.71,12.45Z"/>
        <g>
          <path d="M5,13a.52.52,0,0,1-.35-.14.5.5,0,0,1,0-.71l1.59-1.64a.5.5,0,0,1,.72.69L5.37,12.88A.51.51,0,0,1,5,13Z"/>
          <path d="M5,13a.47.47,0,0,1-.35-.15l-1-1a.5.5,0,0,1,0-.71.48.48,0,0,1,.7,0l1,1A.5.5,0,0,1,5,13Z"/>
        </g>
      </g>
      <g>
        <path d="M20.71,18.33H8.35a.5.5,0,0,1-.5-.5.5.5,0,0,1,.5-.5H20.71a.51.51,0,0,1,.5.5A.5.5,0,0,1,20.71,18.33Z"/>
        <g>
          <path d="M5,18.92a.52.52,0,0,1-.35-.14.5.5,0,0,1,0-.71l1.59-1.64a.5.5,0,0,1,.71,0,.51.51,0,0,1,0,.71L5.37,18.76A.48.48,0,0,1,5,18.92Z"/>
          <path d="M5,18.92a.47.47,0,0,1-.35-.15l-1-1a.49.49,0,0,1,.7-.7l1,1a.5.5,0,0,1,0,.71A.49.49,0,0,1,5,18.92Z"/>
        </g>
      </g>
    </g>
  </g>
</svg>
