<svg xmlns="http://www.w3.org/2000/svg" xmlns:xlink="http://www.w3.org/1999/xlink" viewBox="0 0 24 24">
  <defs>
    <clipPath id="a">
      <rect width="24" height="24"/>
    </clipPath>
  </defs>
  <title>outlined-action-love</title>
  <g>
    <g style="opacity: 0">
      <g>
        <rect width="24" height="24"/>
        <g style="clip-path: url(#a)">
          <g>
            <rect width="24" height="24"/>
            <path d="M12,21.5A9.5,9.5,0,1,1,21.5,12,9.51,9.51,0,0,1,12,21.5Zm0-18A8.5,8.5,0,1,0,20.5,12,8.51,8.51,0,0,0,12,3.5Z"/>
          </g>
        </g>
      </g>
    </g>
    <path d="M12,19.5a.49.49,0,0,1-.34-.14L5,13l-.19-.19A4.85,4.85,0,0,1,5,6a5.31,5.31,0,0,1,7-.3A5.31,5.31,0,0,1,19,6l.25.25A4.82,4.82,0,0,1,19,13l-6.62,6.33A.52.52,0,0,1,12,19.5ZM8.68,5.5a4.26,4.26,0,0,0-3,1.19,3.85,3.85,0,0,0-.15,5.46l.15.15,6.28,6,6.28-6a3.82,3.82,0,0,0,.21-5.41c-.07-.07-.13-.14-.2-.2h0a4.28,4.28,0,0,0-5.93,0,.51.51,0,0,1-.69,0A4.27,4.27,0,0,0,8.68,5.5Z"/>
  </g>
</svg>
