<svg xmlns="http://www.w3.org/2000/svg" viewBox="0 0 24 24"><path d="M18.71 16.85h-5.16a2.2 2.2 0 0 1 .09.58 3 3 0 0 1 0 .42h5.11a.51.51 0 0 0 .5-.5.5.5 0 0 0-.54-.5zm-9.46 0h-4a.5.5 0 0 0-.5.5.51.51 0 0 0 .5.5H9.2a3 3 0 0 1 0-.42 2.2 2.2 0 0 1 .05-.58zm3.68-5.33H5.29a.51.51 0 0 0-.5.5.5.5 0 0 0 .5.5h7.59a1.84 1.84 0 0 1 0-.41 2 2 0 0 1 .05-.59zm5.78 0h-1.48a2.27 2.27 0 0 1 .09.59 2.71 2.71 0 0 1 0 .41h1.43a.5.5 0 0 0 .5-.5.51.51 0 0 0-.54-.5zm-7.86-4.78a2.71 2.71 0 0 1 0 .41h7.9a.5.5 0 0 0 .5-.5.51.51 0 0 0-.5-.5h-8a2.27 2.27 0 0 1 .09.59zm-5.56.41H6.4a2.71 2.71 0 0 1 0-.41 2.34 2.34 0 0 1 .09-.59h-1.2a.51.51 0 0 0-.5.5.5.5 0 0 0 .5.5zm6.11 9.04a1.21 1.21 0 0 1 1.07.66h1.08a2.22 2.22 0 0 0-4.3 0h1.07a1.24 1.24 0 0 1 1.08-.66zm0 2.48a1.25 1.25 0 0 1-1.16-.82h-1a2.24 2.24 0 0 0 4.4 0h-1a1.22 1.22 0 0 1-1.24.82z"/><path d="M13.55 16.85h-1.08a1.13 1.13 0 0 1 .17.58 1.22 1.22 0 0 1-.09.42h1a3 3 0 0 0 0-.42 2.2 2.2 0 0 0 0-.58zm-3.39.58a1.22 1.22 0 0 1 .16-.58H9.25a2.2 2.2 0 0 0-.09.58 3 3 0 0 0 0 .42h1a1.49 1.49 0 0 1 0-.42zm4.92-4.08a1.22 1.22 0 0 1-1.16-.83h-1a2.24 2.24 0 0 0 4.4 0h-1.09a1.22 1.22 0 0 1-1.15.83zm0-2.48a1.22 1.22 0 0 1 1.07.65h1.08a2.23 2.23 0 0 0-2.15-1.65 2.23 2.23 0 0 0-2.15 1.65H14a1.24 1.24 0 0 1 1.08-.65zm-1.24 1.24a1.3 1.3 0 0 1 .16-.59h-1.07a2 2 0 0 0-.09.59 1.84 1.84 0 0 0 0 .41h1a1.11 1.11 0 0 1 0-.41zm3.48 0a2.27 2.27 0 0 0-.09-.59h-1.08a1.19 1.19 0 0 1 .17.59 1.12 1.12 0 0 1-.09.41h1.05a2.71 2.71 0 0 0 0-.41zM8.6 5.5a1.23 1.23 0 0 1 1.08.65h1.08a2.23 2.23 0 0 0-4.31 0h1.08A1.22 1.22 0 0 1 8.6 5.5zM8.61 8a1.23 1.23 0 0 1-1.16-.83h-1a2.24 2.24 0 0 0 4.41 0h-1.1A1.23 1.23 0 0 1 8.61 8zm1.24-1.26a1.12 1.12 0 0 1-.09.41h1.05a2.71 2.71 0 0 0 0-.41 2.27 2.27 0 0 0-.09-.59H9.68a1.19 1.19 0 0 1 .17.59zm-3.45.41h1a1.12 1.12 0 0 1-.09-.41 1.19 1.19 0 0 1 .17-.59H6.45a2.34 2.34 0 0 0-.09.59 2.71 2.71 0 0 0 .04.41z"/></svg>