<svg xmlns="http://www.w3.org/2000/svg" viewBox="0 0 24 24">
  <title>Icon Outlined NatIcGrid</title>
  <g>
    <g style="opacity: 0">
      <g>
        <rect width="24" height="24"/>
        <path d="M12,21.5A9.5,9.5,0,1,1,21.5,12,9.51,9.51,0,0,1,12,21.5Zm0-18A8.5,8.5,0,1,0,20.5,12,8.51,8.51,0,0,0,12,3.5Z"/>
      </g>
    </g>
    <g>
      <path d="M10,11H4a1,1,0,0,1-1-1V4A1,1,0,0,1,4,3h6a1,1,0,0,1,1,1v6A1,1,0,0,1,10,11ZM4,4v6h6V4Zm0-.5V4H4Z"/>
      <path d="M20,11H14a1,1,0,0,1-1-1V4a1,1,0,0,1,1-1h6a1,1,0,0,1,1,1v6A1,1,0,0,1,20,11ZM14,4v6h6V4Zm0-.5V4h0Z"/>
      <path d="M10,21H4a1,1,0,0,1-1-1V14a1,1,0,0,1,1-1h6a1,1,0,0,1,1,1v6A1,1,0,0,1,10,21ZM4,14v6h6V14Zm0-.5V14H4Z"/>
      <path d="M20,21H14a1,1,0,0,1-1-1V14a1,1,0,0,1,1-1h6a1,1,0,0,1,1,1v6A1,1,0,0,1,20,21Zm-6-7v6h6V14Zm0-.5V14h0Z"/>
    </g>
  </g>
</svg>
