<svg xmlns="http://www.w3.org/2000/svg" xmlns:xlink="http://www.w3.org/1999/xlink" viewBox="0 0 24 24">
  <defs>
    <clipPath id="a">
      <rect width="24" height="24"/>
    </clipPath>
  </defs>
  <title>outlined-action-request</title>
  <g>
    <g style="opacity: 0">
      <g>
        <rect width="24" height="24"/>
        <g style="clip-path: url(#a)">
          <g>
            <rect width="24" height="24"/>
            <path d="M12,21.5A9.5,9.5,0,1,1,21.5,12,9.51,9.51,0,0,1,12,21.5Zm0-18A8.5,8.5,0,1,0,20.5,12,8.51,8.51,0,0,0,12,3.5Z"/>
          </g>
        </g>
      </g>
    </g>
    <g>
      <path d="M4.5,9.36a1,1,0,0,1-.66-.26,1,1,0,0,1-.34-.7V5.55a1,1,0,0,1,1-1h15a1,1,0,0,1,1.05,1V8.31a1,1,0,0,1-1.05,1H4.5Zm0-3.86,0,2.81,14.93,0a.05.05,0,0,0,.05,0V5.55Z"/>
      <path d="M5.93,19a1,1,0,0,1-.65-.26A1,1,0,0,1,4.93,18V8.36H19.16V18a1.06,1.06,0,0,1-1.05,1H5.93Zm0-9.65V18L18.12,18h0a0,0,0,0,0,0,0V9.36Z"/>
    </g>
  </g>
</svg>
