<svg xmlns="http://www.w3.org/2000/svg" viewBox="0 0 24 24">
  <title>outlined-action-filter</title>
  <g>
    <g style="opacity: 0">
      <rect width="24" height="24"/>
    </g>
    <g>
      <path d="M18.71,16.85H13.55a2.2,2.2,0,0,1,.09.58,3,3,0,0,1,0,.42h5.11a.51.51,0,0,0,.5-.5A.5.5,0,0,0,18.71,16.85Z"/>
      <path d="M9.25,16.85h-4a.5.5,0,0,0-.5.5.51.51,0,0,0,.5.5H9.2a3,3,0,0,1,0-.42A2.2,2.2,0,0,1,9.25,16.85Z"/>
      <path d="M12.93,11.52H5.29a.51.51,0,0,0-.5.5.5.5,0,0,0,.5.5h7.59a1.84,1.84,0,0,1,0-.41A2,2,0,0,1,12.93,11.52Z"/>
      <path d="M18.71,11.52H17.23a2.27,2.27,0,0,1,.09.59h0a2.71,2.71,0,0,1,0,.41h1.43a.5.5,0,0,0,.5-.5A.51.51,0,0,0,18.71,11.52Z"/>
      <path d="M10.85,6.74a2.71,2.71,0,0,1,0,.41h7.9a.5.5,0,0,0,.5-.5.51.51,0,0,0-.5-.5h-8a2.27,2.27,0,0,1,.09.59Z"/>
      <path d="M5.29,7.15H6.4a2.71,2.71,0,0,1,0-.41,2.34,2.34,0,0,1,.09-.59H5.29a.51.51,0,0,0-.5.5A.5.5,0,0,0,5.29,7.15Z"/>
      <path d="M11.4,16.19a1.21,1.21,0,0,1,1.07.66h1.08a2.22,2.22,0,0,0-4.3,0h1.07A1.24,1.24,0,0,1,11.4,16.19Z"/>
      <path d="M11.4,18.67a1.25,1.25,0,0,1-1.16-.82h-1a2.24,2.24,0,0,0,4.4,0h-1A1.22,1.22,0,0,1,11.4,18.67Z"/>
      <path d="M13.55,16.85H12.47a1.13,1.13,0,0,1,.17.58,1.22,1.22,0,0,1-.09.42h1a3,3,0,0,0,0-.42A2.2,2.2,0,0,0,13.55,16.85Z"/>
      <path d="M10.16,17.43a1.22,1.22,0,0,1,.16-.58H9.25a2.2,2.2,0,0,0-.09.58,3,3,0,0,0,0,.42h1A1.49,1.49,0,0,1,10.16,17.43Z"/>
      <path d="M15.08,13.35a1.22,1.22,0,0,1-1.16-.83h-1a2.24,2.24,0,0,0,4.4,0H16.23A1.22,1.22,0,0,1,15.08,13.35Z"/>
      <path d="M15.08,10.87h0a1.22,1.22,0,0,1,1.07.65h1.08a2.23,2.23,0,0,0-2.15-1.65h0a2.23,2.23,0,0,0-2.15,1.65H14A1.24,1.24,0,0,1,15.08,10.87Z"/>
      <path d="M13.84,12.11a1.3,1.3,0,0,1,.16-.59H12.93a2,2,0,0,0-.09.59,1.84,1.84,0,0,0,0,.41h1A1.11,1.11,0,0,1,13.84,12.11Z"/>
      <path d="M17.32,12.11a2.27,2.27,0,0,0-.09-.59H16.15a1.19,1.19,0,0,1,.17.59h0a1.12,1.12,0,0,1-.09.41h1.05a2.71,2.71,0,0,0,0-.41Z"/>
      <path d="M8.6,5.5a1.23,1.23,0,0,1,1.08.65h1.08a2.23,2.23,0,0,0-4.31,0H7.53A1.22,1.22,0,0,1,8.6,5.5Z"/>
      <path d="M8.61,8a1.23,1.23,0,0,1-1.16-.83h-1a2.24,2.24,0,0,0,4.41,0H9.76A1.23,1.23,0,0,1,8.61,8Z"/>
      <path d="M9.85,6.74a1.12,1.12,0,0,1-.09.41h1.05a2.71,2.71,0,0,0,0-.41h0a2.27,2.27,0,0,0-.09-.59H9.68A1.19,1.19,0,0,1,9.85,6.74Z"/>
      <path d="M6.4,7.15h1a1.12,1.12,0,0,1-.09-.41,1.19,1.19,0,0,1,.17-.59H6.45a2.34,2.34,0,0,0-.09.59A2.71,2.71,0,0,0,6.4,7.15Z"/>
    </g>
  </g>
</svg>
