<svg xmlns="http://www.w3.org/2000/svg" xmlns:xlink="http://www.w3.org/1999/xlink" viewBox="0 0 24 24">
  <defs>
    <clipPath id="a">
      <rect width="24" height="24"/>
    </clipPath>
  </defs>
  <title>outlined-action-upload</title>
  <g>
    <g style="opacity: 0">
      <g>
        <rect width="24" height="24"/>
        <g style="clip-path: url(#a)">
          <g>
            <rect width="24" height="24"/>
            <path d="M12,21.5A9.5,9.5,0,1,1,21.5,12,9.51,9.51,0,0,1,12,21.5Zm0-18A8.5,8.5,0,1,0,20.5,12,8.51,8.51,0,0,0,12,3.5Z"/>
          </g>
        </g>
      </g>
    </g>
    <g>
      <path d="M7.4,17.25A4.51,4.51,0,0,1,4.75,9.1a3.56,3.56,0,0,1,.82-2.16,3.51,3.51,0,0,1,4.54-.71A4.55,4.55,0,0,1,14,4a4.47,4.47,0,0,1,3.18,1.32,4.42,4.42,0,0,1,1.31,3.18v.12a4.5,4.5,0,0,1-1.95,8.55h0a.5.5,0,0,1-.5-.5.5.5,0,0,1,.5-.5h0a3.49,3.49,0,0,0,1.25-6.76.51.51,0,0,1-.32-.5l0-.44A3.51,3.51,0,0,0,16.5,6,3.44,3.44,0,0,0,14,5a3.53,3.53,0,0,0-3.27,2.24.51.51,0,0,1-.8.19l-.11-.1a2.5,2.5,0,0,0-3.51.31A2.5,2.5,0,0,0,5.75,9.2v.11a.49.49,0,0,1-.23.47A3.51,3.51,0,0,0,7.4,16.25h0a.5.5,0,0,1,.5.5.5.5,0,0,1-.5.5Z"/>
      <g>
        <path d="M15,14a.54.54,0,0,1-.35-.14L12,11.19,9.34,13.84a.5.5,0,0,1-.71-.71l3-3a.5.5,0,0,1,.71,0l3,3a.51.51,0,0,1,0,.71A.54.54,0,0,1,15,14Z"/>
        <path d="M12,20a.5.5,0,0,1-.5-.5v-9A.5.5,0,0,1,12,10a.51.51,0,0,1,.5.5v9A.5.5,0,0,1,12,20Z"/>
      </g>
    </g>
  </g>
</svg>
