<svg xmlns="http://www.w3.org/2000/svg" viewBox="0 0 24 24">
  <title>outlined-action-delete</title>
  <g>
    <g>
      <g style="opacity: 0">
        <g>
          <rect width="24" height="24"/>
          <g>
            <circle cx="12" cy="12" r="9"/>
            <path d="M12,21.5A9.5,9.5,0,1,1,21.5,12,9.51,9.51,0,0,1,12,21.5Zm0-18A8.5,8.5,0,1,0,20.5,12,8.51,8.51,0,0,0,12,3.5Z"/>
          </g>
        </g>
      </g>
      <g>
        <path d="M11.73,18.1a.5.5,0,0,0,.54-.47V10.51a.55.55,0,0,0-1.09,0v7.1A.56.56,0,0,0,11.73,18.1Z"/>
        <path d="M17.2,6.07h-2V5.33A1.34,1.34,0,0,0,13.87,4H9.67A1.34,1.34,0,0,0,8.33,5.33v.8h-2A1.34,1.34,0,0,0,5,7.47v.4A1.37,1.37,0,0,0,6.27,9.2L6.73,18a2.24,2.24,0,0,0,2.2,2H14.6a2.24,2.24,0,0,0,2.2-2.07l.47-8.8a1.28,1.28,0,0,0,1.26-1.29V7.4A1.42,1.42,0,0,0,17.2,6.07Zm-.93,3.06-.47,8.74A1.28,1.28,0,0,1,14.6,19H8.93a1.23,1.23,0,0,1-1.2-1.13L7.27,9.13ZM9.33,6.07V5.33A.32.32,0,0,1,9.63,5h4.24a.31.31,0,0,1,.33.3v.83H9.33Zm8.2,1.8c0,.13-.2.26-.33.26H6.33C6.13,8.2,6,8,6,7.8V7.4a.31.31,0,0,1,.3-.33H17.2a.31.31,0,0,1,.33.29v.51Z"/>
        <path d="M10,18.1h0a.6.6,0,0,0,.39-.14.54.54,0,0,0,.16-.36l-.24-7.09c0-.28-.23-.5-.62-.5a.52.52,0,0,0-.54.48v0l.23,7.1A.65.65,0,0,0,10,18.1Z"/>
        <path d="M13.44,18.1h0a.65.65,0,0,0,.62-.5l.23-7.09a.52.52,0,0,0-.16-.35.6.6,0,0,0-.39-.14.51.51,0,0,0-.54.47v0L13,17.6a.5.5,0,0,0,.16.36C13.13,18,13.28,18.1,13.44,18.1Z"/>
      </g>
    </g>
    <g style="opacity: 0">
      <rect width="24" height="24"/>
    </g>
  </g>
</svg>
