<svg xmlns="http://www.w3.org/2000/svg" xmlns:xlink="http://www.w3.org/1999/xlink" viewBox="0 0 24 24">
  <defs>
    <clipPath id="a">
      <rect width="24" height="24"/>
    </clipPath>
  </defs>
  <title>outlined-action-visibilityoff</title>
  <g>
    <g style="opacity: 0">
      <g>
        <rect width="24" height="24"/>
        <g style="clip-path: url(#a)">
          <g>
            <rect width="24" height="24"/>
            <path d="M12,21.5A9.5,9.5,0,1,1,21.5,12,9.51,9.51,0,0,1,12,21.5Zm0-18A8.5,8.5,0,1,0,20.5,12,8.51,8.51,0,0,0,12,3.5Z"/>
          </g>
        </g>
      </g>
    </g>
    <g>
      <path d="M12,19.18a9.69,9.69,0,0,1-4-.86.5.5,0,0,1-.26-.66.51.51,0,0,1,.66-.25,8.79,8.79,0,0,0,3.6.77h0a9,9,0,0,0,8.38-5.87,1.38,1.38,0,0,0,0-.94A9,9,0,0,0,18.08,8a.5.5,0,0,1,.69-.73A10.31,10.31,0,0,1,21.28,11a2.43,2.43,0,0,1,0,1.64A10,10,0,0,1,12,19.18Z"/>
      <path d="M5.59,16.67a.48.48,0,0,1-.34-.14,10.11,10.11,0,0,1-2.6-3.87,2.32,2.32,0,0,1,0-1.64A10,10,0,0,1,12,4.5h0a10,10,0,0,1,4.13.91.49.49,0,0,1,.24.66.51.51,0,0,1-.66.25A8.84,8.84,0,0,0,12,5.5h0a9,9,0,0,0-8.37,5.87,1.27,1.27,0,0,0,0,.94A9.08,9.08,0,0,0,5.93,15.8a.5.5,0,0,1,0,.71A.52.52,0,0,1,5.59,16.67Z"/>
      <path d="M8.45,13.78A.51.51,0,0,1,8,13.47a4.24,4.24,0,0,1,.07-3.26A4.19,4.19,0,0,1,10.4,8a4.25,4.25,0,0,1,3.08,0,.5.5,0,1,1-.37.93A3.24,3.24,0,0,0,8.92,13.1a.5.5,0,0,1-.29.65Z"/>
      <path d="M11.94,16.17a4.11,4.11,0,0,1-1.57-.31.49.49,0,0,1-.28-.64.5.5,0,0,1,.65-.29,3.24,3.24,0,0,0,2.41,0A3.25,3.25,0,0,0,15,10.71a.5.5,0,1,1,.93-.38,4.26,4.26,0,0,1-2.37,5.53A4.32,4.32,0,0,1,11.94,16.17Z"/>
      <path d="M5.56,18.73a.52.52,0,0,1-.35-.14.5.5,0,0,1,0-.71L17.93,5.16a.5.5,0,0,1,.71,0,.51.51,0,0,1,0,.71L5.91,18.59A.5.5,0,0,1,5.56,18.73Z"/>
    </g>
  </g>
</svg>
