<svg xmlns="http://www.w3.org/2000/svg" xmlns:xlink="http://www.w3.org/1999/xlink" viewBox="0 0 24 24">
  <defs>
    <clipPath id="a">
      <rect width="24" height="24"/>
    </clipPath>
  </defs>
  <title>outlined-aciton-settings</title>
  <g>
    <g style="opacity: 0">
      <g>
        <rect width="24" height="24"/>
        <g style="clip-path: url(#a)">
          <g>
            <rect width="24" height="24"/>
            <path d="M12,21.5A9.5,9.5,0,1,1,21.5,12,9.51,9.51,0,0,1,12,21.5Zm0-18A8.5,8.5,0,1,0,20.5,12,8.51,8.51,0,0,0,12,3.5Z"/>
          </g>
        </g>
      </g>
    </g>
    <g>
      <path d="M12.05,16.14a3.85,3.85,0,1,1,3.85-3.85A3.85,3.85,0,0,1,12.05,16.14Zm0-6.7a2.85,2.85,0,1,0,2.85,2.85A2.86,2.86,0,0,0,12.05,9.44Z"/>
      <path d="M13.68,22H10.26a1,1,0,0,1-1-1V19.23A.53.53,0,0,0,9,18.75a7,7,0,0,1-1.1-.63.54.54,0,0,0-.56,0L5.74,19a1,1,0,0,1-1.36-.33L2.64,15.54A1,1,0,0,1,3,14.19l1.6-.91a.49.49,0,0,0,.27-.5v-.59a1.8,1.8,0,0,1,0-.31,2.45,2.45,0,0,0,0-.27A.59.59,0,0,0,4.6,11L3,10.16a1,1,0,0,1-.35-1.37L4.43,5.84a1,1,0,0,1,.82-.46h0a.77.77,0,0,1,.54.22l1.51.85a.62.62,0,0,0,.63,0,10.93,10.93,0,0,1,1-.6.57.57,0,0,0,.36-.5V3.47a1,1,0,0,1,1-1h3.42a1,1,0,0,1,1,1V5.36a.55.55,0,0,0,.32.49,7,7,0,0,1,1.1.63.54.54,0,0,0,.56,0l1.57-.89a1,1,0,0,1,1.36.32l1.74,3A1,1,0,0,1,21,10.25l-1.6.9a.49.49,0,0,0-.27.5v.64c0,.13,0,.25,0,.36a1.5,1.5,0,0,0,0,.22.51.51,0,0,0,.25.55l1.58.9a1.25,1.25,0,0,1,.24.16.93.93,0,0,1,.06,1.29l-1.68,2.87a1,1,0,0,1-1.36.33l-1.57-.89a.58.58,0,0,0-.57,0,6.43,6.43,0,0,1-1.08.62.57.57,0,0,0-.34.5v1.85A1,1,0,0,1,13.68,22ZM7.57,17a1.55,1.55,0,0,1,.88.27,5,5,0,0,0,.92.53,1.54,1.54,0,0,1,.92,1.4v1.84l3.39,0,0-1.81a1.54,1.54,0,0,1,.94-1.41,4.83,4.83,0,0,0,.9-.53,1.57,1.57,0,0,1,1.63-.08l1.59.9,1.73-2.92h0l-1.56-.88a1.48,1.48,0,0,1-.77-1.49,1.89,1.89,0,0,1,0-.3,1.5,1.5,0,0,0,0-.22v-.58A1.47,1.47,0,0,1,19,10.27l1.56-.88L18.76,6.46l-1.58.91a1.53,1.53,0,0,1-1.63-.08,6.46,6.46,0,0,0-.92-.53,1.51,1.51,0,0,1-.92-1.4V3.47l-3.39,0,0,1.81a1.53,1.53,0,0,1-.94,1.4c-.3.16-.62.34-.92.54a1.62,1.62,0,0,1-1.66.08l-1.58-.9L3.56,9.29l1.55.89a1.57,1.57,0,0,1,.77,1.47,2.49,2.49,0,0,1,0,.36,1.41,1.41,0,0,0,0,.18v.53A1.47,1.47,0,0,1,5,14.16L3.48,15l1.76,3.11,1.58-.93A1.52,1.52,0,0,1,7.57,17ZM20.5,15.22h0Z"/>
    </g>
  </g>
</svg>
