<svg xmlns="http://www.w3.org/2000/svg" viewBox="0 0 24 24">
  <title>Icon Outlined NatIcPrint</title>
  <g>
    <g style="opacity: 0">
      <g>
        <rect width="24" height="24"/>
        <g>
          <circle cx="12" cy="12" r="9"/>
          <path d="M12,21.5A9.5,9.5,0,1,1,21.5,12,9.51,9.51,0,0,1,12,21.5Zm0-18A8.5,8.5,0,1,0,20.5,12,8.51,8.51,0,0,0,12,3.5Z"/>
        </g>
      </g>
    </g>
    <g>
      <g style="opacity: 0">
        <g style="opacity: 0.200000002980232;isolation: isolate">
          <circle cx="12" cy="12" r="9"/>
        </g>
      </g>
      <path d="M16.46,16.78a.5.5,0,0,1-.5-.5.5.5,0,0,1,.5-.5h2.83a.33.33,0,0,0,.33-.33V8.87a.34.34,0,0,0-.33-.34H4.52a.34.34,0,0,0-.33.34v6.58a.33.33,0,0,0,.33.33H7.36a.51.51,0,0,1,.5.5.5.5,0,0,1-.5.5H4.52a1.34,1.34,0,0,1-1.33-1.33V8.87A1.34,1.34,0,0,1,4.52,7.53H19.29a1.34,1.34,0,0,1,1.33,1.34v6.58a1.33,1.33,0,0,1-1.32,1.33Z"/>
      <path d="M15.6,20.37H8.22A1.33,1.33,0,0,1,6.89,19V13.39a1.33,1.33,0,0,1,1.33-1.33H15.6a1.34,1.34,0,0,1,1.33,1.33V19A1.34,1.34,0,0,1,15.6,20.37ZM8.22,13.06a.33.33,0,0,0-.33.33V19a.33.33,0,0,0,.33.33H15.6a.33.33,0,0,0,.33-.33V13.39a.33.33,0,0,0-.33-.33Z"/>
      <path d="M16.43,8.3a.5.5,0,0,1-.5-.5V4.65a.33.33,0,0,0-.33-.33H8.21a.32.32,0,0,0-.32.33V7.8a.5.5,0,0,1-.5.5.5.5,0,0,1-.5-.5V4.65A1.32,1.32,0,0,1,8.2,3.32h7.4a1.33,1.33,0,0,1,1.33,1.33V7.8A.5.5,0,0,1,16.43,8.3Z"/>
      <path d="M17.73,11.13h-.26a.5.5,0,0,1,0-1h.26a.5.5,0,0,1,0,1Z"/>
      <path d="M16.19,11.13H14.81a.5.5,0,0,1,0-1h1.38a.5.5,0,0,1,0,1Z"/>
    </g>
  </g>
</svg>
