<svg xmlns="http://www.w3.org/2000/svg" xmlns:xlink="http://www.w3.org/1999/xlink" viewBox="0 0 24 24">
  <defs>
    <clipPath id="a">
      <rect width="24" height="24"/>
    </clipPath>
  </defs>
  <title>outlined-action-change</title>
  <g>
    <g style="opacity: 0">
      <g>
        <rect width="24" height="24"/>
        <g style="clip-path: url(#a)">
          <g>
            <rect width="24" height="24"/>
            <path d="M12,21.5A9.5,9.5,0,1,1,21.5,12,9.51,9.51,0,0,1,12,21.5Zm0-18A8.5,8.5,0,1,0,20.5,12,8.51,8.51,0,0,0,12,3.5Z"/>
          </g>
        </g>
      </g>
    </g>
    <g>
      <g>
        <path d="M13.66,12.82a.5.5,0,0,1-.35-.86l4.34-4.3L13.31,3.35a.5.5,0,1,1,.7-.7l4.7,4.65a.55.55,0,0,1,.15.36.51.51,0,0,1-.15.35L14,12.67A.49.49,0,0,1,13.66,12.82Z"/>
        <path d="M18.35,8.16h0L6,8a.51.51,0,0,1-.5-.51A.47.47,0,0,1,6.05,7l12.31.12a.5.5,0,0,1,0,1Z"/>
      </g>
      <g>
        <path d="M10.7,21.5a.51.51,0,0,1-.36-.15L5.64,16.7a.54.54,0,0,1-.14-.36A.5.5,0,0,1,5.64,16l4.7-4.66a.5.5,0,1,1,.71.71l-4.34,4.3,4.34,4.31a.49.49,0,0,1,0,.7A.49.49,0,0,1,10.7,21.5Z"/>
        <path d="M18.31,16.84H6a.5.5,0,0,1,0-1H18.31a.5.5,0,0,1,0,1Z"/>
      </g>
    </g>
  </g>
</svg>
