<svg xmlns="http://www.w3.org/2000/svg" viewBox="0 0 24 24">
  <title>outlined-action-cancel</title>
  <g>
    <g>
      <g style="opacity: 0">
        <g style="opacity: 0.930999994277954">
          <rect width="24" height="24"/>
          <g>
            <circle cx="12" cy="12" r="9"/>
            <path d="M12,21.5A9.5,9.5,0,1,1,21.5,12,9.51,9.51,0,0,1,12,21.5Zm0-18A8.5,8.5,0,1,0,20.5,12,8.51,8.51,0,0,0,12,3.5Z"/>
          </g>
        </g>
      </g>
      <g>
        <path d="M12,21.52A9.52,9.52,0,1,1,21.52,12,9.53,9.53,0,0,1,12,21.52Zm0-18A8.48,8.48,0,1,0,20.48,12,8.48,8.48,0,0,0,12,3.52Z"/>
        <g>
          <path d="M7.5,17a.47.47,0,0,1-.35-.15.48.48,0,0,1,0-.7l9-9a.49.49,0,1,1,.7.7l-9,9A.47.47,0,0,1,7.5,17Z"/>
          <path d="M16.5,17a.47.47,0,0,1-.35-.15l-9-9a.49.49,0,0,1,.7-.7l9,9a.48.48,0,0,1,0,.7A.47.47,0,0,1,16.5,17Z"/>
          <path d="M16.5,17a.47.47,0,0,1-.35-.15l-9-9a.49.49,0,0,1,.7-.7l9,9a.48.48,0,0,1,0,.7A.47.47,0,0,1,16.5,17Z"/>
        </g>
      </g>
    </g>
    <g style="opacity: 0">
      <rect width="24" height="24"/>
    </g>
  </g>
</svg>
