<svg xmlns="http://www.w3.org/2000/svg" viewBox="0 0 24 24"><path d="M11.78 14.85a.5.5 0 0 1-.5-.5V5a.5.5 0 0 1 1 0v9.35a.5.5 0 0 1-.5.5z"/><path d="M11.76 14.85a.49.49 0 0 1-.35-.15.5.5 0 0 1 0-.71l4.25-4.25a.5.5 0 1 1 .71.71l-4.26 4.25a.47.47 0 0 1-.35.15z"/><path d="M11.78 14.85a.47.47 0 0 1-.35-.15l-4.25-4.25a.5.5 0 0 1 0-.71.5.5 0 0 1 .7 0L12.13 14a.5.5 0 0 1 0 .71.47.47 0 0 1-.35.14zm5.28 3.92H6.47a2 2 0 0 1-2-2v-.63a.5.5 0 0 1 .5-.5.5.5 0 0 1 .5.5v.63a1 1 0 0 0 1 1h10.59a1 1 0 0 0 1-1v-.63a.5.5 0 0 1 .5-.5.5.5 0 0 1 .5.5v.63a2 2 0 0 1-2 2z"/></svg>