<svg xmlns="http://www.w3.org/2000/svg" xmlns:xlink="http://www.w3.org/1999/xlink" viewBox="0 0 24 24">
  <defs>
    <clipPath id="a">
      <rect width="24" height="24" style="fill: none"/>
    </clipPath>
  </defs>
  <title>outlined-action-save</title>
  <g>
    <g style="opacity: 0">
      <g style="clip-path: url(#a)">
        <g>
          <rect width="24" height="24" style="fill: #ebebea"/>
          <path d="M12,21.5A9.5,9.5,0,1,1,21.5,12,9.51,9.51,0,0,1,12,21.5Zm0-18A8.5,8.5,0,1,0,20.5,12,8.51,8.51,0,0,0,12,3.5Z" style="fill: #afaeae"/>
        </g>
      </g>
    </g>
    <g>
      <g>
        <path d="M19,21H5a2,2,0,0,1-2-2V5A2,2,0,0,1,5,3H15a2,2,0,0,1,1.41.58l4.05,4A2,2,0,0,1,21,9V19A2,2,0,0,1,19,21Z" style="fill: none"/>
        <path d="M19,20a1,1,0,0,0,1-1V9a1.05,1.05,0,0,0-.29-.71l-4.05-4A1,1,0,0,0,15,4H5A1,1,0,0,0,4,5V19a1,1,0,0,0,1,1H19m0,1H5a2,2,0,0,1-2-2V5A2,2,0,0,1,5,3H15a2,2,0,0,1,1.41.58l4.05,4A2,2,0,0,1,21,9V19A2,2,0,0,1,19,21Z"/>
      </g>
      <g>
        <rect x="4.95" y="5" width="10" height="4" rx="1" style="fill: none"/>
        <path d="M14,9H6A1,1,0,0,1,5,8V6A1,1,0,0,1,6,5h8a1,1,0,0,1,1,1V8A1,1,0,0,1,14,9ZM6,6V8h8V6Zm0-.5V6H6Z"/>
      </g>
      <g>
        <circle cx="11.95" cy="15" r="3" style="fill: none"/>
        <path d="M12,18a3,3,0,1,1,3-3A3,3,0,0,1,12,18Zm0-5a2,2,0,1,0,2,2A2,2,0,0,0,12,13Z"/>
      </g>
    </g>
  </g>
</svg>
