<svg xmlns="http://www.w3.org/2000/svg" viewBox="0 0 24 24">
  <title>outlined-action-add</title>
  <g>
    <g style="opacity: 0">
      <g>
        <rect width="24" height="24"/>
        <g>
          <circle cx="12" cy="12" r="9"/>
          <path d="M12,21.5A9.5,9.5,0,1,1,21.5,12,9.51,9.51,0,0,1,12,21.5Zm0-18A8.5,8.5,0,1,0,20.5,12,8.51,8.51,0,0,0,12,3.5Z"/>
        </g>
      </g>
    </g>
    <g>
      <path d="M18,12.5H6a.5.5,0,0,1,0-1H18a.5.5,0,0,1,0,1Z"/>
      <path d="M12,18.5a.5.5,0,0,1-.5-.5V6a.5.5,0,0,1,1,0V18A.5.5,0,0,1,12,18.5Z"/>
    </g>
  </g>
</svg>
