<svg xmlns="http://www.w3.org/2000/svg" viewBox="0 0 24 24">
  <title>outlined-action-request (2)</title>
  <g>
    <g>
      <g style="opacity: 0">
        <rect width="24" height="24"/>
        <g>
          <circle cx="12" cy="12" r="9"/>
          <path d="M12,21.5A9.5,9.5,0,1,1,21.5,12,9.51,9.51,0,0,1,12,21.5Zm0-18A8.5,8.5,0,1,0,20.5,12,8.51,8.51,0,0,0,12,3.5Z"/>
        </g>
      </g>
      <g>
        <path d="M8.07,15.45h0a.82.82,0,0,0-.86.79v.06h0a.83.83,0,0,0,.79.86h.07a.82.82,0,0,0,.85-.79V16.3h0a.82.82,0,0,0-.79-.85Z"/>
        <path d="M8.85,9.54c-.07-.15-.28-.15-.42,0l-.36.35-.36-.35a.26.26,0,0,0-.37-.06l0,.06a.27.27,0,0,0-.06.37l.06.05.35.36-.35.36a.26.26,0,0,0-.06.37l.06,0a.27.27,0,0,0,.37.06l0-.06.36-.35.36.35a.27.27,0,0,0,.37.06l0-.06a.27.27,0,0,0,.06-.37l-.06-.05-.35-.36L8.85,10C9,9.82,9,9.61,8.85,9.54Z"/>
        <path d="M8.85,12.53a.27.27,0,0,0-.37-.06l-.05.06-.36.35-.36-.35a.27.27,0,0,0-.37-.06l0,.06a.27.27,0,0,0-.06.37l.06.06.35.35-.35.36a.26.26,0,0,0-.06.37l.06.06a.27.27,0,0,0,.37.05l0-.05.36-.36.36.36a.27.27,0,0,0,.37.05l0-.05a.28.28,0,0,0,.06-.38l-.06-.05-.35-.36L8.85,13C9,12.81,9,12.6,8.85,12.53Z"/>
        <path d="M12.13,11.1a.27.27,0,0,0,.37.06l.06-.06a.27.27,0,0,0,0-.37l0-.05-.43-.36.36-.36a.27.27,0,0,0,0-.37l0-.05a.28.28,0,0,0-.38-.06l0,.06-.36.35-.35-.35A.28.28,0,0,0,11,9.48l-.05.06a.26.26,0,0,0-.05.37l.05.05.35.36-.35.36a.26.26,0,0,0-.05.37l.05,0a.27.27,0,0,0,.37.06l.06-.06.35-.35Z"/>
        <path d="M10.78,18.23H5.93A1.25,1.25,0,0,1,4.72,17V7.75A1.25,1.25,0,0,1,5.93,6.54H17a1.24,1.24,0,0,1,1.21,1.21v3a.64.64,0,0,0,.29.5.8.8,0,0,0,.57,0,.61.61,0,0,0,.28-.5v-3A2.37,2.37,0,0,0,17,5.4h-.35a.19.19,0,0,1-.22-.16V4.48a.94.94,0,0,0-.92-.93H13.77a1.08,1.08,0,0,0-.93,1v.72a.18.18,0,0,1-.16.21h-2.4a.2.2,0,0,1-.22-.16V4.55a.94.94,0,0,0-.92-.92H7.36a1,1,0,0,0-.93.92v.72a.19.19,0,0,1-.16.21H5.93A2.31,2.31,0,0,0,3.58,7.75h0V17a2.38,2.38,0,0,0,2.35,2.36h4.85a.56.56,0,0,0,.5-.29.58.58,0,0,0,0-.57A.71.71,0,0,0,10.78,18.23ZM7.57,5.48V4.83c0-.07,0-.07.07-.07H8.85c.07,0,.07,0,.07.07V5.4H7.57Zm6.41,0V4.83c0-.07,0-.07.07-.07h1.21c.07,0,.07,0,.07.07V5.4H14Z"/>
        <path d="M16,11.46A4.56,4.56,0,1,0,20.53,16,4.59,4.59,0,0,0,16,11.46ZM19.39,16A3.42,3.42,0,1,1,16,12.6,3.46,3.46,0,0,1,19.39,16Z"/>
        <path d="M16.4,15.73v-2a.33.33,0,0,0-.31-.36h0a.34.34,0,0,0-.36.32v2.39h0l1.85,1.85a.44.44,0,0,0,.57,0,.42.42,0,0,0,0-.57Z"/>
      </g>
    </g>
    <g style="opacity: 0">
      <rect width="24" height="24"/>
    </g>
  </g>
</svg>
