<svg xmlns="http://www.w3.org/2000/svg" viewBox="0 0 24 24"><path d="M9.56 18a.47.47 0 0 1-.35-.15l-3-3a.5.5 0 0 1 0-.71l7.65-7.65a.5.5 0 0 1 .35-.14.5.5 0 0 1 .35.14l3.05 3a.5.5 0 0 1 0 .7l-7.69 7.69a.49.49 0 0 1-.36.12zm-2.33-3.51l2.33 2.33 7-6.94-2.39-2.34z"/><path d="M4.3 20.68a.81.81 0 0 1-.77-.61.67.67 0 0 1 0-.28l.12-1a7.15 7.15 0 0 1 2.07-4.21l.45-.45a.51.51 0 0 1 .71 0l3.06 3.06a.52.52 0 0 1 .14.36.5.5 0 0 1-.14.35l-.63.62a7.1 7.1 0 0 1-3.77 2l-1 .17a.55.55 0 0 1-.24-.01zm0-1zm2.19-4.52l-.1.09a6.17 6.17 0 0 0-1.78 3.62l-.09.77.81-.14a6.08 6.08 0 0 0 3.24-1.72l.27-.27zm10.71-4.8a.47.47 0 0 1-.35-.15l-3.06-3.05a.49.49 0 0 1-.15-.36.47.47 0 0 1 .15-.35L16 4.24a2.57 2.57 0 0 1 3.6 0l.17.17a2.56 2.56 0 0 1 0 3.59l-2.21 2.21a.47.47 0 0 1-.35.15zM14.85 6.8l2.35 2.35 1.85-1.85a1.55 1.55 0 0 0 0-2.18L18.88 5a1.55 1.55 0 0 0-2.18 0zm4.56.85z"/></svg>