<svg xmlns="http://www.w3.org/2000/svg" viewBox="0 0 24 24">
  <title>outlined-action-share</title>
  <g>
    <g>
      <g style="opacity: 0">
        <g>
          <rect width="24" height="24"/>
          <g>
            <circle cx="12" cy="12" r="9"/>
            <path d="M12,21.5A9.5,9.5,0,1,1,21.5,12,9.51,9.51,0,0,1,12,21.5Zm0-18A8.5,8.5,0,1,0,20.5,12,8.51,8.51,0,0,0,12,3.5Z"/>
          </g>
        </g>
      </g>
      <g>
        <path d="M6.83,15.09a2.83,2.83,0,1,1,2.84-2.83A2.83,2.83,0,0,1,6.83,15.09Zm0-4.66a1.83,1.83,0,1,0,1.84,1.83A1.83,1.83,0,0,0,6.83,10.43Z"/>
        <path d="M15.39,10.17a2.84,2.84,0,1,1,2.83-2.84A2.84,2.84,0,0,1,15.39,10.17Zm0-4.67a1.84,1.84,0,1,0,1.83,1.83A1.83,1.83,0,0,0,15.39,5.5Z"/>
        <path d="M15.39,20a2.83,2.83,0,1,1,2.83-2.83A2.83,2.83,0,0,1,15.39,20Zm0-4.66a1.83,1.83,0,1,0,1.83,1.83A1.83,1.83,0,0,0,15.39,15.29Z"/>
        <path d="M8.91,11.27a.5.5,0,0,1-.22-.95L13,8.24a.5.5,0,0,1,.67.24.49.49,0,0,1-.23.66L9.12,11.22A.54.54,0,0,1,8.91,11.27Z"/>
        <path d="M13.25,16.32a.44.44,0,0,1-.22-.05L8.69,14.13a.5.5,0,1,1,.44-.89l4.34,2.14a.49.49,0,0,1,.23.66A.5.5,0,0,1,13.25,16.32Z"/>
      </g>
    </g>
    <g style="opacity: 0">
      <rect width="24" height="24"/>
    </g>
  </g>
</svg>
