<svg xmlns="http://www.w3.org/2000/svg" xmlns:xlink="http://www.w3.org/1999/xlink" viewBox="0 0 24 24">
  <defs>
    <clipPath id="a">
      <rect width="24" height="24"/>
    </clipPath>
  </defs>
  <title>outlined-action-rating</title>
  <g>
    <g style="opacity: 0">
      <g>
        <rect width="24" height="24"/>
        <g style="clip-path: url(#a)">
          <g>
            <rect width="24" height="24"/>
            <path d="M12,21.5A9.5,9.5,0,1,1,21.5,12,9.51,9.51,0,0,1,12,21.5Zm0-18A8.5,8.5,0,1,0,20.5,12,8.51,8.51,0,0,0,12,3.5Z"/>
          </g>
        </g>
      </g>
    </g>
    <path d="M7.26,19.6a1.1,1.1,0,0,1-.31,0,1,1,0,0,1-.62-.51,1,1,0,0,1-.12-.69L7,13.66a.33.33,0,0,0,0-.12L3.54,10.21a1.05,1.05,0,0,1,0-1.48,1,1,0,0,1,.62-.33l4.8-.66,2.21-4.36a1,1,0,0,1,1.29-.54A1,1,0,0,1,13,3.4l2.13,4.24L20,8.33a1,1,0,0,1,.69.41,1,1,0,0,1,.2.78,1.09,1.09,0,0,1-.32.63l-3.46,3.37.81,4.84a1,1,0,0,1-.18.79,1.05,1.05,0,0,1-.68.44,1.09,1.09,0,0,1-.69-.11l-4.27-2.2H12L7.75,19.48A1,1,0,0,1,7.26,19.6ZM7.2,18.53l.09.06h0l4.29-2.2a1.17,1.17,0,0,1,.95,0l4.31,2.21.09-.06-.81-4.77a.91.91,0,0,1,.33-1l3.43-3.34.05-.6-.07.5-4.8-.66a1,1,0,0,1-.83-.59L12.09,3.83s0,0,0-.05h0L9.88,8.16a1.09,1.09,0,0,1-.82.57l-4.8.66,0,.1,3.48,3.39a1.24,1.24,0,0,1,.3.93L7.2,18.53Z"/>
  </g>
</svg>
