<svg xmlns="http://www.w3.org/2000/svg" xmlns:xlink="http://www.w3.org/1999/xlink" viewBox="0 0 24 24">
  <defs>
    <clipPath id="a">
      <rect width="24" height="24"/>
    </clipPath>
  </defs>
  <title>outlined-action-visibility</title>
  <g>
    <g style="opacity: 0">
      <g>
        <rect width="24" height="24"/>
        <g style="clip-path: url(#a)">
          <g>
            <rect width="24" height="24"/>
            <path d="M12,21.5A9.5,9.5,0,1,1,21.5,12,9.51,9.51,0,0,1,12,21.5Zm0-18A8.5,8.5,0,1,0,20.5,12,8.51,8.51,0,0,0,12,3.5Z"/>
          </g>
        </g>
      </g>
    </g>
    <g>
      <path d="M12,19.22a10,10,0,0,1-9.35-6.54,2.34,2.34,0,0,1,0-1.65A10,10,0,0,1,12,4.5h0A10,10,0,0,1,21.32,11a2.34,2.34,0,0,1,0,1.65,9.91,9.91,0,0,1-5.93,5.93A10.1,10.1,0,0,1,12,19.22ZM12,5.5a9,9,0,0,0-8.4,5.88,1.3,1.3,0,0,0,0,.95,8.93,8.93,0,0,0,16.79,0,1.35,1.35,0,0,0,0-.95A9,9,0,0,0,12,5.5Z"/>
      <path d="M12,16.19a4.26,4.26,0,1,1,4.26-4.26A4.27,4.27,0,0,1,12,16.19Zm0-7.52a3.26,3.26,0,1,0,3.26,3.26A3.27,3.27,0,0,0,12,8.67Z"/>
    </g>
  </g>
</svg>
