<svg xmlns="http://www.w3.org/2000/svg" viewBox="0 0 24 24">
  <title>outlined-action-download</title>
  <g>
    <g>
      <g style="opacity: 0">
        <g>
          <rect width="24" height="24"/>
          <path d="M12,21.5A9.5,9.5,0,1,1,21.5,12,9.51,9.51,0,0,1,12,21.5Zm0-18A8.5,8.5,0,1,0,20.5,12,8.51,8.51,0,0,0,12,3.5Z"/>
        </g>
      </g>
      <g>
        <path d="M11.78,14.85a.5.5,0,0,1-.5-.5V5a.5.5,0,0,1,1,0v9.35A.5.5,0,0,1,11.78,14.85Z"/>
        <path d="M11.76,14.85a.49.49,0,0,1-.35-.15.5.5,0,0,1,0-.71l4.25-4.25a.5.5,0,1,1,.71.71L12.11,14.7A.47.47,0,0,1,11.76,14.85Z"/>
        <path d="M11.78,14.85a.47.47,0,0,1-.35-.15L7.18,10.45a.5.5,0,0,1,0-.71.5.5,0,0,1,.7,0L12.13,14a.5.5,0,0,1,0,.71A.47.47,0,0,1,11.78,14.85Z"/>
        <path d="M17.06,18.77H6.47a2,2,0,0,1-2-2v-.63a.5.5,0,0,1,.5-.5.5.5,0,0,1,.5.5v.63a1,1,0,0,0,1,1H17.06a1,1,0,0,0,1-1v-.63a.5.5,0,0,1,.5-.5.5.5,0,0,1,.5.5v.63A2,2,0,0,1,17.06,18.77Z"/>
      </g>
    </g>
    <g style="opacity: 0">
      <rect width="24" height="24"/>
    </g>
  </g>
</svg>
