<svg xmlns="http://www.w3.org/2000/svg" xmlns:xlink="http://www.w3.org/1999/xlink" viewBox="0 0 24 24">
  <defs>
    <clipPath id="a">
      <rect width="24" height="24"/>
    </clipPath>
  </defs>
  <title>outlined-action-edit</title>
  <g>
    <g style="opacity: 0">
      <g>
        <rect width="24" height="24"/>
        <g style="clip-path: url(#a)">
          <g>
            <rect width="24" height="24"/>
            <path d="M12,21.5A9.5,9.5,0,1,1,21.5,12,9.51,9.51,0,0,1,12,21.5Zm0-18A8.5,8.5,0,1,0,20.5,12,8.51,8.51,0,0,0,12,3.5Z"/>
          </g>
        </g>
      </g>
    </g>
    <g>
      <path d="M9.56,18h0a.47.47,0,0,1-.35-.15l-3-3a.5.5,0,0,1,0-.71l7.65-7.65a.5.5,0,0,1,.35-.14h0a.5.5,0,0,1,.35.14l3.05,3a.5.5,0,0,1,0,.7L9.92,17.88A.49.49,0,0,1,9.56,18ZM7.23,14.49l2.33,2.33,7-6.94L14.17,7.54Z"/>
      <path d="M4.3,20.68a.81.81,0,0,1-.77-.61.67.67,0,0,1,0-.28v0l.12-1a7.15,7.15,0,0,1,2.07-4.21l.45-.45a.51.51,0,0,1,.71,0l3.06,3.06a.52.52,0,0,1,.14.36.5.5,0,0,1-.14.35l-.63.62a7.1,7.1,0,0,1-3.77,2l-1,.17A.55.55,0,0,1,4.3,20.68Zm0-1h0Zm2.19-4.52-.1.09a6.17,6.17,0,0,0-1.78,3.62l-.09.77.81-.14a6.08,6.08,0,0,0,3.24-1.72l.27-.27Z"/>
      <path d="M17.2,10.36a.47.47,0,0,1-.35-.15L13.79,7.16a.49.49,0,0,1-.15-.36.47.47,0,0,1,.15-.35L16,4.24a2.57,2.57,0,0,1,3.6,0l.17.17a2.56,2.56,0,0,1,0,3.59h0l-2.21,2.21a.47.47,0,0,1-.35.15ZM14.85,6.8,17.2,9.15,19.05,7.3a1.55,1.55,0,0,0,0-2.18L18.88,5A1.55,1.55,0,0,0,16.7,5Zm4.56.85h0Z"/>
    </g>
  </g>
</svg>
