<svg xmlns="http://www.w3.org/2000/svg" xmlns:xlink="http://www.w3.org/1999/xlink" viewBox="0 0 24 24">
  <defs>
    <clipPath id="a">
      <rect width="24" height="24"/>
    </clipPath>
  </defs>
  <title>outlined-action-closedbox</title>
  <g>
    <g style="opacity: 0">
      <g>
        <rect width="24" height="24"/>
        <g style="clip-path: url(#a)">
          <g>
            <rect width="24" height="24"/>
            <path d="M12,21.5A9.5,9.5,0,1,1,21.5,12,9.51,9.51,0,0,1,12,21.5Zm0-18A8.5,8.5,0,1,0,20.5,12,8.51,8.51,0,0,0,12,3.5Z"/>
          </g>
        </g>
      </g>
    </g>
    <g>
      <g>
        <path d="M19.49,9.53h-15a1,1,0,0,1-1-1.06V5.54a1,1,0,0,1,1-1h15a1,1,0,0,1,1,1V8.48a1,1,0,0,1-1,1Zm-15-4,0,3,15,0s0,0,0,0V5.54Z"/>
        <path d="M6,19.05a1.12,1.12,0,0,1-1-1.2V9a.5.5,0,0,1,.5-.5.5.5,0,0,1,.5.5v8.86c0,.1,0,.16.09.16H18a.17.17,0,0,0,0-.12V9a.5.5,0,0,1,.5-.5.5.5,0,0,1,.5.5v8.86a1.11,1.11,0,0,1-1,1.16Z"/>
      </g>
      <g>
        <path d="M12,16a.5.5,0,0,1-.5-.5V11.13a.5.5,0,0,1,.5-.5.5.5,0,0,1,.5.5v4.36A.51.51,0,0,1,12,16Z"/>
        <path d="M14.16,13.81H9.81a.5.5,0,0,1,0-1h4.35a.5.5,0,0,1,0,1Z"/>
      </g>
    </g>
  </g>
</svg>
