<svg xmlns="http://www.w3.org/2000/svg" viewBox="0 0 24 24">
  <title>outlined-action-help</title>
  <g>
    <g>
      <g style="opacity: 0">
        <g>
          <rect width="24" height="24"/>
          <path d="M12,21.5A9.5,9.5,0,1,1,21.5,12,9.51,9.51,0,0,1,12,21.5Zm0-18A8.5,8.5,0,1,0,20.5,12,8.51,8.51,0,0,0,12,3.5Z"/>
        </g>
      </g>
      <g>
        <path d="M12,21.5A9.5,9.5,0,1,1,21.5,12,9.51,9.51,0,0,1,12,21.5Zm0-18A8.5,8.5,0,1,0,20.5,12,8.51,8.51,0,0,0,12,3.5Z"/>
        <g>
          <path d="M12,14.66a.5.5,0,0,1-.5-.5,3.8,3.8,0,0,1,1.63-3.07c.65-.58,1-.94,1-1.6A2.18,2.18,0,0,0,12,7.31h0A2.19,2.19,0,0,0,9.82,9.25a.51.51,0,0,1-.55.45.5.5,0,0,1-.44-.55A3.18,3.18,0,0,1,12,6.31h0a3.18,3.18,0,0,1,3.18,3.18,3.06,3.06,0,0,1-1.36,2.35,2.87,2.87,0,0,0-1.29,2.32A.51.51,0,0,1,12,14.66Z"/>
          <path d="M12,17.69a1.32,1.32,0,1,1,1.32-1.32A1.32,1.32,0,0,1,12,17.69Zm0-1.64a.33.33,0,0,0-.32.32.32.32,0,0,0,.64,0A.33.33,0,0,0,12,16.05Z"/>
        </g>
      </g>
    </g>
    <g style="opacity: 0">
      <rect width="24" height="24"/>
    </g>
  </g>
</svg>
