<svg xmlns="http://www.w3.org/2000/svg" xmlns:xlink="http://www.w3.org/1999/xlink" viewBox="0 0 24 24">
  <defs>
    <clipPath id="a">
      <rect width="24" height="24" style="opacity: 0"/>
    </clipPath>
  </defs>
  <title>outlined-action-update</title>
  <g>
    <rect width="24" height="24" style="opacity: 0"/>
    <g style="clip-path: url(#a)">
      <g>
        <g style="opacity: 0">
          <g>
            <rect width="24" height="24"/>
            <path d="M12,21.5A9.5,9.5,0,1,1,21.5,12,9.51,9.51,0,0,1,12,21.5Zm0-18A8.5,8.5,0,1,0,20.5,12,8.51,8.51,0,0,0,12,3.5Z"/>
          </g>
        </g>
        <g>
          <path d="M19.49,10.69h0l-5.19-.51a.5.5,0,0,1-.45-.55.48.48,0,0,1,.54-.44l4.7.46L19.5,5a.5.5,0,1,1,1,.1L20,10.24A.51.51,0,0,1,19.49,10.69Z"/>
          <path d="M12.24,20a7.59,7.59,0,0,1-3-.59A7.73,7.73,0,1,1,19.36,9.22a.5.5,0,0,1-.27.66.49.49,0,0,1-.65-.27,6.74,6.74,0,1,0,0,5.2.5.5,0,0,1,.92.38A7.72,7.72,0,0,1,12.24,20Z"/>
        </g>
      </g>
    </g>
  </g>
</svg>
