<svg xmlns="http://www.w3.org/2000/svg" xmlns:xlink="http://www.w3.org/1999/xlink" viewBox="0 0 24 24">
  <defs>
    <clipPath id="a">
      <rect width="24" height="24"/>
    </clipPath>
  </defs>
  <title>outlined-action-history</title>
  <g>
    <g style="opacity: 0">
      <g>
        <rect width="24" height="24"/>
        <g style="clip-path: url(#a)">
          <g>
            <rect width="24" height="24"/>
            <path d="M12,21.5A9.5,9.5,0,1,1,21.5,12,9.51,9.51,0,0,1,12,21.5Zm0-18A8.5,8.5,0,1,0,20.5,12,8.51,8.51,0,0,0,12,3.5Z"/>
          </g>
        </g>
      </g>
    </g>
    <g>
      <g>
        <path d="M12.34,21.5a9.5,9.5,0,0,1-8.35-5,.5.5,0,0,1,.88-.48,8.51,8.51,0,1,0-.16-7.78A.5.5,0,0,1,4,8.5a.49.49,0,0,1-.23-.66,9.49,9.49,0,1,1,17.07,8.32,9.5,9.5,0,0,1-8.54,5.34Z"/>
        <path d="M4,8.5a.47.47,0,0,1-.35-.15.46.46,0,0,1-.14-.43l1-6a.5.5,0,0,1,1,.16L4.61,7.39l5.31-.88a.5.5,0,0,1,.57.41.49.49,0,0,1-.41.57l-6,1Z"/>
      </g>
      <g>
        <path d="M11.26,13.09a.5.5,0,0,1-.5-.5v-4a.5.5,0,0,1,1,0v4A.5.5,0,0,1,11.26,13.09Z"/>
        <path d="M14.09,15.91a.5.5,0,0,1-.36-.14l-2.82-2.83a.5.5,0,0,1,0-.71.5.5,0,0,1,.7,0l2.83,2.83a.5.5,0,0,1,0,.71A.47.47,0,0,1,14.09,15.91Z"/>
      </g>
    </g>
  </g>
</svg>
