<svg xmlns="http://www.w3.org/2000/svg" viewBox="0 0 24 24">
  <title>outlined-action-order</title>
  <g>
    <g>
      <g style="opacity: 0">
        <g>
          <rect width="24" height="24"/>
          <path d="M12,21.5A9.5,9.5,0,1,1,21.5,12,9.51,9.51,0,0,1,12,21.5Zm0-18A8.5,8.5,0,1,0,20.5,12,8.51,8.51,0,0,0,12,3.5Z"/>
        </g>
      </g>
      <g>
        <path d="M16,9.64a.48.48,0,0,1-.36-.16L12,5.72,8.36,9.48a.5.5,0,1,1-.72-.69l4-4.14a.53.53,0,0,1,.72,0l4,4.14a.5.5,0,0,1,0,.71A.54.54,0,0,1,16,9.64Z"/>
        <path d="M12,20.36a.47.47,0,0,1-.35-.15l-4-4a.5.5,0,0,1,0-.71.5.5,0,0,1,.7,0L12,19.15l3.65-3.65a.5.5,0,0,1,.7,0,.5.5,0,0,1,0,.71l-4,4A.47.47,0,0,1,12,20.36Z"/>
      </g>
    </g>
    <g style="opacity: 0">
      <rect width="24" height="24"/>
    </g>
  </g>
</svg>
