<svg xmlns="http://www.w3.org/2000/svg" xmlns:xlink="http://www.w3.org/1999/xlink" viewBox="0 0 24 24">
  <defs>
    <clipPath id="a">
      <rect width="24" height="24"/>
    </clipPath>
  </defs>
  <title>outlined-action-mic</title>
  <g>
    <g style="opacity: 0">
      <g>
        <rect width="24" height="24"/>
        <g style="clip-path: url(#a)">
          <g>
            <rect width="24" height="24"/>
            <path d="M12,21.5A9.5,9.5,0,1,1,21.5,12,9.51,9.51,0,0,1,12,21.5Zm0-18A8.5,8.5,0,1,0,20.5,12,8.51,8.51,0,0,0,12,3.5Z"/>
          </g>
        </g>
      </g>
    </g>
    <g>
      <path d="M11.44,14.38h.2a2.7,2.7,0,0,0,2.53-2.85V4.81a2.82,2.82,0,0,0-5.63,0v6.74a2.9,2.9,0,0,0,2.9,2.83m0,1a3.91,3.91,0,0,1-3.9-3.82V4.81a3.82,3.82,0,0,1,7.63,0v6.65a3.69,3.69,0,0,1-3.47,3.91h-.26Z"/>
      <rect x="10.95" y="17.72" width="1" height="5.28"/>
      <path d="M16.25,23.5H6.57a.5.5,0,0,1,0-1h9.68a.5.5,0,0,1,0,1Z"/>
      <path d="M11.56,18.31h0a7,7,0,0,1-7-6.95V8.14a.5.5,0,0,1,.5-.5.5.5,0,0,1,.5.5v3.22a6,6,0,0,0,5.95,5.95h.11a5.94,5.94,0,0,0,5.94-5.94V8.14a.5.5,0,0,1,.5-.5.5.5,0,0,1,.5.5v3.23a6.95,6.95,0,0,1-6.94,6.94Z"/>
    </g>
  </g>
</svg>
