<svg xmlns="http://www.w3.org/2000/svg" xmlns:xlink="http://www.w3.org/1999/xlink" viewBox="0 0 24 24">
  <defs>
    <clipPath id="a">
      <rect width="24" height="24"/>
    </clipPath>
  </defs>
  <title>outlined-action-attachment</title>
  <g>
    <g style="opacity: 0">
      <g>
        <rect width="24" height="24"/>
        <g style="clip-path: url(#a)">
          <g>
            <rect width="24" height="24"/>
            <path d="M12,21.5A9.5,9.5,0,1,1,21.5,12,9.51,9.51,0,0,1,12,21.5Zm0-18A8.5,8.5,0,1,0,20.5,12,8.51,8.51,0,0,0,12,3.5Z"/>
          </g>
        </g>
      </g>
    </g>
    <path d="M12.26,21.73A6.31,6.31,0,0,1,6,15.48V7.68a4.68,4.68,0,0,1,9.35,0v6.55a3.1,3.1,0,0,1-6.2,0v-5a.51.51,0,0,1,.5-.5.5.5,0,0,1,.5.5v5a2.1,2.1,0,0,0,4.2,0V7.68A3.68,3.68,0,1,0,7,7.68v7.8a5.26,5.26,0,0,0,10.51,0V9.25a.5.5,0,0,1,.5-.5.51.51,0,0,1,.5.5v6.23A6.31,6.31,0,0,1,12.26,21.73Z"/>
  </g>
</svg>
