<svg xmlns="http://www.w3.org/2000/svg" xmlns:xlink="http://www.w3.org/1999/xlink" viewBox="0 0 24 24">
  <defs>
    <clipPath id="a">
      <rect width="24" height="24"/>
    </clipPath>
  </defs>
  <title>outlined-action-send</title>
  <g>
    <g style="opacity: 0">
      <g>
        <rect width="24" height="24"/>
        <g style="clip-path: url(#a)">
          <g>
            <rect width="24" height="24"/>
            <path d="M12,21.5A9.5,9.5,0,1,1,21.5,12,9.51,9.51,0,0,1,12,21.5Zm0-18A8.5,8.5,0,1,0,20.5,12,8.51,8.51,0,0,0,12,3.5Z"/>
          </g>
        </g>
      </g>
    </g>
    <path d="M12.35,21a1.7,1.7,0,0,1-1.65-1.29L9.4,14.48A.69.69,0,0,0,8.88,14L3.82,12.82a1.66,1.66,0,0,1-1.2-1,1.7,1.7,0,0,1,.94-2.2l13.6-5.48a1.71,1.71,0,0,1,2.22,2.2L13.92,19.93a1.69,1.69,0,0,1-1.16,1A2,2,0,0,1,12.35,21ZM17.8,5a.75.75,0,0,0-.26,0L3.93,10.53a.69.69,0,0,0-.38.9.64.64,0,0,0,.49.41L9.1,13a1.67,1.67,0,0,1,1.27,1.24h0l1.29,5.23a.69.69,0,0,0,1.32.09L18.45,6a.7.7,0,0,0-.39-.9A.8.8,0,0,0,17.8,5Z"/>
  </g>
</svg>
