<svg xmlns="http://www.w3.org/2000/svg" xmlns:xlink="http://www.w3.org/1999/xlink" viewBox="0 0 24 24">
  <defs>
    <clipPath id="a">
      <rect width="24" height="24"/>
    </clipPath>
  </defs>
  <title>outlined-action-cycle</title>
  <g>
    <g style="opacity: 0">
      <g>
        <rect width="24" height="24"/>
        <g style="clip-path: url(#a)">
          <g>
            <rect width="24" height="24"/>
            <path d="M12,21.5A9.5,9.5,0,1,1,21.5,12,9.51,9.51,0,0,1,12,21.5Zm0-18A8.5,8.5,0,1,0,20.5,12,8.51,8.51,0,0,0,12,3.5Z"/>
          </g>
        </g>
      </g>
    </g>
    <g>
      <path d="M11.92,21.27A8.77,8.77,0,0,1,3.5,14.16a.5.5,0,1,1,1-.19,7.76,7.76,0,0,0,7.45,6.3,7.53,7.53,0,0,0,7.19-5.4.49.49,0,0,1,.62-.34.51.51,0,0,1,.34.62A8.53,8.53,0,0,1,11.92,21.27Z"/>
      <path d="M19.68,10.61a.5.5,0,0,1-.49-.38A7.65,7.65,0,0,0,11.91,4.5,7.49,7.49,0,0,0,5,9.18.5.5,0,0,1,4.1,8.8a8.51,8.51,0,0,1,7.81-5.3A8.64,8.64,0,0,1,20.16,10a.5.5,0,0,1-.36.61Z"/>
      <path d="M21,17.83a.5.5,0,0,1-.46-.3L19.42,15,17,16.07a.5.5,0,0,1-.66-.25.49.49,0,0,1,.26-.66l2.89-1.29a.46.46,0,0,1,.38,0,.51.51,0,0,1,.28.26l1.32,3a.51.51,0,0,1-.26.66A.45.45,0,0,1,21,17.83Z"/>
      <path d="M4.24,10.27a.43.43,0,0,1-.19,0A.55.55,0,0,1,3.77,10L2.54,6.85a.5.5,0,1,1,.92-.37l1,2.61L7,7.93a.5.5,0,0,1,.66.25.49.49,0,0,1-.24.66l-3,1.38A.54.54,0,0,1,4.24,10.27Z"/>
    </g>
  </g>
</svg>
