<svg xmlns="http://www.w3.org/2000/svg" viewBox="0 0 24 24"><path d="M19 21H5a2 2 0 0 1-2-2V5a2 2 0 0 1 2-2h10a2 2 0 0 1 1.41.58l4.05 4A2 2 0 0 1 21 9v10a2 2 0 0 1-2 2z"/><path d="M19 20a1 1 0 0 0 1-1V9a1.05 1.05 0 0 0-.29-.71l-4.05-4A1 1 0 0 0 15 4H5a1 1 0 0 0-1 1v14a1 1 0 0 0 1 1h14m0 1H5a2 2 0 0 1-2-2V5a2 2 0 0 1 2-2h10a2 2 0 0 1 1.41.58l4.05 4A2 2 0 0 1 21 9v10a2 2 0 0 1-2 2z"/><rect width="10" height="4" x="4.95" y="5" rx="1"/><path d="M14 9H6a1 1 0 0 1-1-1V6a1 1 0 0 1 1-1h8a1 1 0 0 1 1 1v2a1 1 0 0 1-1 1zM6 6v2h8V6zm0-.5V6z"/><circle cx="11.95" cy="15" r="3"/><path d="M12 18a3 3 0 1 1 3-3 3 3 0 0 1-3 3zm0-5a2 2 0 1 0 2 2 2 2 0 0 0-2-2z"/></svg>