<svg xmlns="http://www.w3.org/2000/svg" xmlns:xlink="http://www.w3.org/1999/xlink" viewBox="0 0 24 24">
  <defs>
    <clipPath id="a">
      <rect width="24" height="24"/>
    </clipPath>
  </defs>
  <title>outlined-action-favorite</title>
  <g>
    <g style="opacity: 0">
      <g>
        <rect width="24" height="24"/>
        <g style="clip-path: url(#a)">
          <g>
            <rect width="24" height="24"/>
            <path d="M12,21.5A9.5,9.5,0,1,1,21.5,12,9.51,9.51,0,0,1,12,21.5Zm0-18A8.5,8.5,0,1,0,20.5,12,8.51,8.51,0,0,0,12,3.5Z"/>
          </g>
        </g>
      </g>
    </g>
    <g>
      <path d="M16.77,19.21a.78.78,0,0,1-.47-.16L12,16.1,7.58,19a.81.81,0,0,1-1.23-.65V8.75a.5.5,0,0,1,.5-.5h10.2a.5.5,0,0,1,.5.5V18.4a.73.73,0,0,1-.16.5.75.75,0,0,1-.51.3Zm-.22-.8v0Zm.32-.18h0ZM12,15.06a.86.86,0,0,1,.38.1L16.55,18V9.25H7.35V18l4.17-2.79A.94.94,0,0,1,12,15.06Z"/>
      <path d="M17.85,7.6H6a.5.5,0,0,1-.5-.5V5A.5.5,0,0,1,6,4.5H17.85a.5.5,0,0,1,.5.5V7.1A.5.5,0,0,1,17.85,7.6ZM6.5,6.6H17.35V5.5H6.5Z"/>
    </g>
  </g>
</svg>
