<svg xmlns="http://www.w3.org/2000/svg" viewBox="0 0 24 24">
  <title>outlined-action-calendar</title>
  <g>
    <g>
      <g style="opacity: 0">
        <rect width="24" height="24"/>
        <g>
          <circle cx="12" cy="12" r="9"/>
          <path d="M12,21.5A9.5,9.5,0,1,1,21.5,12,9.51,9.51,0,0,1,12,21.5Zm0-18A8.5,8.5,0,1,0,20.5,12,8.51,8.51,0,0,0,12,3.5Z"/>
        </g>
      </g>
      <g>
        <path d="M12.1,13h0a.77.77,0,0,0-.81.74v.07h0a.81.81,0,1,0,1.61.05,0,0,0,0,0,0-.05h0A.8.8,0,0,0,12.1,13Z"/>
        <path d="M12.1,15.86h0a.78.78,0,0,0-.81.75v.06h0a.81.81,0,1,0,1.61.06.06.06,0,0,0,0-.06h0A.82.82,0,0,0,12.1,15.86Z"/>
        <path d="M8.32,15.86h0a.78.78,0,0,0-.81.75v.06h0a.77.77,0,0,0,.74.81h.07a.78.78,0,0,0,.81-.75v-.06h0a.78.78,0,0,0-.75-.81Z"/>
        <path d="M15.81,13h0a.77.77,0,0,0-.81.74v.07h0a.8.8,0,0,0,.83.78.82.82,0,0,0,.79-.78h0a.79.79,0,0,0-.75-.81Z"/>
        <path d="M17.9,6.75h-.61a.17.17,0,0,1-.2-.15V5.88A.89.89,0,0,0,16.21,5H14.52a.89.89,0,0,0-.87.88v.67a.18.18,0,0,1-.16.2H10.61a.18.18,0,0,1-.2-.15V5.88a.81.81,0,0,0-.81-.81H7.91A.88.88,0,0,0,7,5.94v.68a.18.18,0,0,1-.16.2H6.23A2.15,2.15,0,0,0,4,8.89v8.79a2.21,2.21,0,0,0,2.17,2.23H18a2.25,2.25,0,0,0,2.23-2.23V9A2.35,2.35,0,0,0,17.9,6.75ZM9.33,6.21v.54H8.11V6.21c0-.06,0-.06.07-.06H9.33v.06Zm5.47.54V6.21c0-.06,0-.06.06-.06H16c.07,0,.07,0,.07.06v.54ZM19.05,9v8.7a1.18,1.18,0,0,1-1.15,1.15H6.23a1.18,1.18,0,0,1-1.15-1.15V9A1.18,1.18,0,0,1,6.23,7.83H18A1.17,1.17,0,0,1,19,9Z"/>
        <path d="M9.06,10.26a.26.26,0,0,0-.36,0l0,0-.34.34L8,10.26a.29.29,0,0,0-.4.06.27.27,0,0,0,0,.34l.33.34-.33.34a.29.29,0,0,0,0,.4.32.32,0,0,0,.35,0l.33-.33.33.34a.29.29,0,0,0,.4-.06.27.27,0,0,0,0-.34L8.72,11l.34-.33A.43.43,0,0,0,9.06,10.26Z"/>
        <path d="M9.06,13.09a.26.26,0,0,0-.36,0l0,0-.34.34L8,13.09a.3.3,0,0,0-.4.06.27.27,0,0,0,0,.34l.33.34-.33.34a.28.28,0,0,0,0,.4.32.32,0,0,0,.35,0l.33-.33.33.34a.29.29,0,0,0,.4-.06.27.27,0,0,0,0-.34l-.33-.34.34-.34A.43.43,0,0,0,9.06,13.09Z"/>
        <path d="M12.84,10.26a.26.26,0,0,0-.36,0l0,0-.34.34-.34-.34a.29.29,0,0,0-.4.06.3.3,0,0,0,0,.34l.34.34-.34.34a.3.3,0,0,0,.06.4.3.3,0,0,0,.34,0l.34-.34.34.34a.3.3,0,0,0,.4.06.3.3,0,0,0,.06-.4.17.17,0,0,0-.06-.06L12.5,11l.34-.33A.43.43,0,0,0,12.84,10.26Z"/>
        <path d="M16.55,10.26a.26.26,0,0,0-.36,0l0,0-.34.34-.34-.34a.29.29,0,0,0-.4-.06.3.3,0,0,0-.06.4l.06.06.4.34-.33.34a.28.28,0,0,0,.06.4.3.3,0,0,0,.34,0l.33-.34.34.34a.3.3,0,0,0,.4-.06.3.3,0,0,0,0-.34L16.27,11l.34-.34C16.68,10.53,16.68,10.33,16.55,10.26Z"/>
      </g>
    </g>
    <g style="opacity: 0">
      <rect width="24" height="24"/>
    </g>
  </g>
</svg>
