<svg xmlns="http://www.w3.org/2000/svg" xmlns:xlink="http://www.w3.org/1999/xlink" viewBox="0 0 24 24">
  <defs>
    <clipPath id="a">
      <rect width="24" height="24"/>
    </clipPath>
  </defs>
  <title>outlined-finance-debit</title>
  <g>
    <g style="opacity: 0">
      <g>
        <rect width="24" height="24"/>
        <g style="clip-path: url(#a)">
          <g>
            <rect width="24" height="24"/>
            <path d="M12,21.5A9.5,9.5,0,1,1,21.5,12,9.51,9.51,0,0,1,12,21.5Zm0-18A8.5,8.5,0,1,0,20.5,12,8.51,8.51,0,0,0,12,3.5Z"/>
          </g>
        </g>
      </g>
    </g>
    <g>
      <path d="M7.52,9.88a.51.51,0,0,1-.41-.2L5.91,8a.9.9,0,0,1-.19-.68.92.92,0,0,1,.35-.65l5.22-4A.91.91,0,0,1,12,2.51a1,1,0,0,1,.63.35l2.61,3.39a.94.94,0,0,1,.19.69.89.89,0,0,1-.35.62L12.21,9.78a.5.5,0,0,1-.7-.09.5.5,0,0,1,.08-.7l2.83-2.2-2.6-3.3-5.13,4L7.92,9.09a.51.51,0,0,1-.11.7A.52.52,0,0,1,7.52,9.88Z"/>
      <path d="M14.76,9.85a.48.48,0,0,1-.42-.23.49.49,0,0,1,.15-.69L16.23,7.8a.18.18,0,0,0,.07-.25L14.44,4.29a.17.17,0,0,0-.23,0l-.33.17a.5.5,0,0,1-.68-.2.5.5,0,0,1,.21-.68l.33-.18a1.2,1.2,0,0,1,1.56.42l1.88,3.3a1.18,1.18,0,0,1-.42,1.57L15,9.77A.53.53,0,0,1,14.76,9.85Z"/>
      <path d="M5.45,19.41a1,1,0,0,1-1-.92V8.73a.5.5,0,0,1,1,0v9.73l11.89-.05V16a.5.5,0,0,1,.5-.5.5.5,0,0,1,.5.5v2.48a1,1,0,0,1-1,.95H5.45Z"/>
      <path d="M17.88,12.76a.5.5,0,0,1-.5-.5V9.84L5.81,9.9a.5.5,0,0,1,0-1H17.39a1,1,0,0,1,1,.91v2.45A.5.5,0,0,1,17.88,12.76Z"/>
      <path d="M5.7,9.89A1.26,1.26,0,0,1,4.5,8.48,1.42,1.42,0,0,1,5.58,7.05a.51.51,0,0,1,.61.37.5.5,0,0,1-.37.6.42.42,0,0,0-.32.43c0,.12,0,.44.2.44a.5.5,0,0,1,.5.5A.5.5,0,0,1,5.7,9.89Z"/>
      <g>
        <path d="M11.34,17.29a1.85,1.85,0,0,1-.8-.19,1.81,1.81,0,0,1-.9-1,1.88,1.88,0,0,1-.09-.57.5.5,0,0,1,.5-.5h0a.5.5,0,0,1,.5.5.78.78,0,0,0,0,.26.77.77,0,0,0,.4.45.74.74,0,0,0,.6.05.84.84,0,0,0,.54-.8.46.46,0,0,0-.26-.43l-1.42-.69a1.58,1.58,0,0,1-.87-1.41,1.74,1.74,0,0,1,1-1.6,1.8,1.8,0,0,1,2.59,1.62.5.5,0,0,1-1,0A.82.82,0,0,0,11,12.22a.74.74,0,0,0-.41.69.58.58,0,0,0,.32.53l1.4.68a1.44,1.44,0,0,1,.83,1.34,1.83,1.83,0,0,1-1.21,1.73A1.69,1.69,0,0,1,11.34,17.29Z"/>
        <path d="M11.35,18a.5.5,0,0,1-.5-.5v-.66a.5.5,0,0,1,.5-.5.5.5,0,0,1,.5.5v.66A.5.5,0,0,1,11.35,18Z"/>
        <path d="M11.35,12.14a.5.5,0,0,1-.5-.5V11a.5.5,0,0,1,.5-.5.5.5,0,0,1,.5.5v.64A.51.51,0,0,1,11.35,12.14Z"/>
      </g>
      <path d="M18.56,16.13H15.7a.94.94,0,0,1-.94-.94V13.05a1,1,0,0,1,.93-.94h2.87a1,1,0,0,1,.94.94v2.14A1,1,0,0,1,18.56,16.13Zm-.06-3.08-2.8.06.06,2.08,2.74-.06Zm.06,2.08h0Z"/>
    </g>
  </g>
</svg>
