<svg xmlns="http://www.w3.org/2000/svg" viewBox="0 0 24 24">
  <title>outlined-finance-creditcard</title>
  <g>
    <g style="opacity: 0">
      <rect width="24" height="24"/>
    </g>
    <g>
      <g style="opacity: 0">
        <g>
          <circle cx="12" cy="12" r="9"/>
          <path d="M12,21.5A9.5,9.5,0,1,1,21.5,12,9.51,9.51,0,0,1,12,21.5Zm0-18A8.5,8.5,0,1,0,20.5,12,8.51,8.51,0,0,0,12,3.5Z"/>
        </g>
      </g>
      <g>
        <path d="M19.32,19.42H4.6a2.13,2.13,0,0,1-2.1-2.1V6.6A2.13,2.13,0,0,1,4.6,4.5H19.4a2.13,2.13,0,0,1,2.1,2.1V17.32a2.24,2.24,0,0,1-2.17,2.1ZM19.4,5.5H4.6A1.11,1.11,0,0,0,3.5,6.6V17.32a1.11,1.11,0,0,0,1.1,1.1H19.31a1.23,1.23,0,0,0,1.19-1.14V6.6A1.11,1.11,0,0,0,19.4,5.5Z"/>
        <path d="M20.39,9.5H3a.5.5,0,0,1,0-1H20.39a.5.5,0,0,1,0,1Z"/>
        <path d="M18.3,11.9H5.7a.51.51,0,0,1-.5-.5.5.5,0,0,1,.5-.5H18.3a.5.5,0,0,1,.5.5A.51.51,0,0,1,18.3,11.9Z"/>
        <path d="M12.08,14.38H5.36a.5.5,0,0,1,0-1h6.72a.5.5,0,0,1,0,1Z"/>
      </g>
    </g>
  </g>
</svg>
