<svg xmlns="http://www.w3.org/2000/svg" viewBox="0 0 24 24">
  <title>outlined-finance-charging</title>
  <g>
    <g style="opacity: 0">
      <rect width="24" height="24"/>
    </g>
    <g>
      <g style="opacity: 0">
        <g>
          <circle cx="12" cy="12" r="9"/>
          <path d="M12,21.5A9.5,9.5,0,1,1,21.5,12,9.51,9.51,0,0,1,12,21.5Zm0-18A8.5,8.5,0,1,0,20.5,12,8.51,8.51,0,0,0,12,3.5Z"/>
        </g>
      </g>
      <g>
        <path d="M6,18.4A2.53,2.53,0,0,1,3.5,15.87V9A2.58,2.58,0,0,1,6,6.5H18.25A2.53,2.53,0,0,1,20.78,9v6.85a2.48,2.48,0,0,1-2.39,2.53H6ZM6,7.5A1.56,1.56,0,0,0,4.5,9v6.88A1.54,1.54,0,0,0,6,17.4H18.37a1.47,1.47,0,0,0,1.41-1.52V9A1.52,1.52,0,0,0,18.25,7.5H6Z"/>
        <path d="M9.89,16a.74.74,0,0,1-.75-.75V9.62a.75.75,0,1,1,1.5,0v5.66A.75.75,0,0,1,9.89,16Z"/>
        <path d="M15.77,16a.75.75,0,0,1-.75-.75V9.62a.75.75,0,0,1,1.5,0v5.66A.74.74,0,0,1,15.77,16Z"/>
        <path d="M7.85,15.78a.5.5,0,0,1-.5-.5V9.62a.5.5,0,0,1,.5-.5.5.5,0,0,1,.5.5v5.66A.5.5,0,0,1,7.85,15.78Z"/>
        <path d="M13.67,15.78a.5.5,0,0,1-.5-.5V9.62a.5.5,0,0,1,.5-.5.5.5,0,0,1,.5.5v5.66A.5.5,0,0,1,13.67,15.78Z"/>
        <path d="M17.66,15.78a.5.5,0,0,1-.5-.5V9.62a.5.5,0,0,1,.5-.5.5.5,0,0,1,.5.5v5.66A.5.5,0,0,1,17.66,15.78Z"/>
        <path d="M11.92,15.66a.37.37,0,0,1-.37-.38V9.62a.37.37,0,0,1,.37-.38.38.38,0,0,1,.38.38v5.66A.38.38,0,0,1,11.92,15.66Z"/>
        <path d="M6.4,15.53a.25.25,0,0,1-.25-.25V9.62a.25.25,0,0,1,.5,0v5.66A.25.25,0,0,1,6.4,15.53Z"/>
      </g>
    </g>
  </g>
</svg>
