<svg xmlns="http://www.w3.org/2000/svg" width="24" height="24" viewBox="0 0 24 24"><path d="M19.69,17.9a6.41,6.41,0,0,1-2.4-5.09c0-4.55-1.54-6.48-3.33-7.2V4.24a2.07,2.07,0,0,0-4.13,0V5.68c-1.72.77-3.16,2.73-3.16,7.13a6.41,6.41,0,0,1-2.4,5.09.52.52,0,0,0-.15.56.5.5,0,0,0,.47.33H19.37a.5.5,0,0,0,.47-.33A.52.52,0,0,0,19.69,17.9ZM10.83,4.24a1.07,1.07,0,0,1,2.13,0V5.32a6.86,6.86,0,0,0-.9-.09H11.9a6.49,6.49,0,0,0-1.07.12Zm1.23,13.55H5.83a7.41,7.41,0,0,0,1.84-5c0-4.39,1.41-6.53,4.31-6.57s4.31,2.18,4.31,6.56a7.42,7.42,0,0,0,1.84,5Z"/><path d="M11.9,20.88a2.07,2.07,0,0,1-2.07-2.07h-1a3.07,3.07,0,0,0,6.14,0H14A2.07,2.07,0,0,1,11.9,20.88Z"/></svg>