<svg xmlns="http://www.w3.org/2000/svg" width="24" height="24" viewBox="0 0 24 24"><title>outlined-content-consistency</title><path d="M12,1.5A10.5,10.5,0,1,0,22.5,12,10.51,10.51,0,0,0,12,1.5Zm0,20A9.5,9.5,0,1,1,21.5,12,9.51,9.51,0,0,1,12,21.5Z"/><circle cx="12" cy="12" r="1.5"/><path d="M19.46,8.19a.49.49,0,0,0-.64.29l-.34.9A7,7,0,0,0,5.09,10.9a.5.5,0,0,0,1,.16A6,6,0,0,1,17.53,9.71l-.82-.6a.5.5,0,0,0-.7.1.51.51,0,0,0,.1.7l2,1.49.11,0h0a.44.44,0,0,0,.15.05l.14,0a.45.45,0,0,0,.26-.21h0a.33.33,0,0,0,.06-.1l.87-2.34A.49.49,0,0,0,19.46,8.19Z"/><path d="M18.49,12.53a.5.5,0,0,0-.57.41,6,6,0,0,1-9.44,3.91,5.87,5.87,0,0,1-2-2.5l.76.59a.5.5,0,1,0,.61-.79l-2-1.52-.09,0-.11-.05H5.46s0,0,0,0l-.14.08,0,0a.54.54,0,0,0-.1.16h0l0,0v0l-.88,2.26a.5.5,0,0,0,.29.65l.18,0a.48.48,0,0,0,.46-.32l.37-.93A7,7,0,0,0,12,19a6.77,6.77,0,0,0,1.09-.09,7,7,0,0,0,5.82-5.81A.51.51,0,0,0,18.49,12.53Z"/></svg>