<svg viewBox="0 0 24 24" xmlns="http://www.w3.org/2000/svg">
  <path d="M 13.36 17.86 C 13.36 18.628 12.738 19.25 11.97 19.25 C 11.202 19.25 10.58 18.628 10.58 17.86 C 10.58 17.092 11.202 16.47 11.97 16.47 C 12.738 16.47 13.36 17.092 13.36 17.86 Z M 22.5 10.13 C 22.367 10.132 22.24 10.077 22.15 9.98 C 16.553 4.377 7.48 4.351 1.85 9.92 C 1.656 10.111 1.344 10.111 1.15 9.92 C 0.953 9.724 0.953 9.406 1.15 9.21 C 7.161 3.248 16.861 3.266 22.85 9.25 C 23.047 9.446 23.047 9.764 22.85 9.96 C 22.762 10.063 22.635 10.124 22.5 10.13 Z M 19.92 12.72 C 19.787 12.719 19.659 12.669 19.56 12.58 C 15.383 8.431 8.649 8.404 4.44 12.52 C 4.127 12.757 3.675 12.565 3.627 12.176 C 3.61 12.042 3.647 11.907 3.73 11.8 C 8.34 7.309 15.698 7.34 20.27 11.87 C 20.539 12.145 20.41 12.608 20.038 12.704 C 19.999 12.714 19.96 12.719 19.92 12.72 Z M 17.27 15.44 C 17.139 15.445 17.011 15.395 16.92 15.3 C 14.215 12.638 9.882 12.615 7.15 15.25 C 6.873 15.519 6.408 15.388 6.313 15.013 C 6.269 14.839 6.321 14.655 6.45 14.53 C 9.576 11.52 14.532 11.551 17.62 14.6 C 17.889 14.875 17.76 15.338 17.388 15.434 C 17.349 15.444 17.31 15.449 17.27 15.45 Z"/>
</svg>
