<svg viewBox="0 0 24 24" xmlns="http://www.w3.org/2000/svg">
  <path d="M 13.23 14.215 C 13.167 14.215 13.104 14.213 13.043 14.208 C 11.459 14.232 10.131 15.466 10.02 17.075 C 10.01 17.358 9.762 17.574 9.48 17.545 C 9.206 17.524 8.998 17.289 9.01 17.015 C 9.086 15.409 10.098 14.073 11.488 13.502 C 10.734 12.753 10.478 11.541 11.082 10.495 C 12.037 8.842 14.423 8.842 15.378 10.495 C 15.595 10.872 15.71 11.3 15.71 11.735 C 15.708 12.417 15.43 13.035 14.984 13.483 C 16.404 14.04 17.441 15.39 17.52 17.015 C 17.537 17.291 17.326 17.529 17.05 17.545 C 16.772 17.568 16.53 17.354 16.52 17.075 C 16.413 15.4 14.976 14.124 13.3 14.215 C 13.296 14.215 13.291 14.214 13.287 14.214 C 13.268 14.215 13.249 14.215 13.23 14.215 Z M 13.23 10.215 C 12.091 10.215 11.379 11.448 11.948 12.435 C 12.518 13.422 13.942 13.422 14.512 12.435 C 14.642 12.21 14.71 11.955 14.71 11.695 C 14.688 10.893 14.032 10.255 13.23 10.255 Z M 17.39 20.345 L 6.61 20.345 C 5.232 20.34 4.115 19.223 4.11 17.845 L 4.11 6.155 C 4.115 4.777 5.232 3.66 6.61 3.655 L 17.39 3.655 C 18.771 3.655 19.89 4.774 19.89 6.155 L 19.89 17.845 C 19.89 19.226 18.771 20.345 17.39 20.345 Z M 6.61 4.655 C 5.782 4.655 5.11 5.327 5.11 6.155 L 5.11 17.845 C 5.11 18.673 5.782 19.345 6.61 19.345 L 17.39 19.345 C 18.218 19.345 18.89 18.673 18.89 17.845 L 18.89 6.155 C 18.89 5.327 18.218 4.655 17.39 4.655 Z M 7.44 18.665 C 7.164 18.665 6.94 18.441 6.94 18.165 L 6.94 5.845 C 6.94 5.569 7.164 5.345 7.44 5.345 C 7.714 5.35 7.935 5.571 7.94 5.845 L 7.94 18.165 C 7.94 18.441 7.716 18.665 7.44 18.665 Z"/>
</svg>
