<svg viewBox="0 0 24 24" xmlns="http://www.w3.org/2000/svg">
  <path d="M 6.583 21.918 C 6.054 21.916 5.547 21.709 5.167 21.342 C 4.784 20.966 4.566 20.452 4.562 19.916 L 4.562 4.122 C 4.553 3.586 4.76 3.068 5.138 2.687 C 5.514 2.304 6.028 2.086 6.565 2.082 L 13.753 2.082 C 14.257 2.096 14.736 2.303 15.094 2.658 L 18.872 6.625 C 19.203 6.98 19.402 7.436 19.439 7.92 L 19.439 19.878 C 19.448 20.414 19.241 20.932 18.863 21.313 C 18.487 21.696 17.973 21.914 17.437 21.918 Z M 13.743 3.027 L 6.574 3.027 C 6.289 3.026 6.016 3.142 5.818 3.348 C 5.614 3.554 5.502 3.832 5.507 4.122 L 5.507 19.906 C 5.506 20.191 5.622 20.464 5.828 20.662 C 6.037 20.859 6.314 20.97 6.602 20.973 L 17.427 20.973 C 17.712 20.974 17.985 20.858 18.183 20.652 C 18.387 20.446 18.499 20.168 18.494 19.878 L 18.494 7.967 C 18.49 7.907 18.48 7.85 18.466 7.792 C 18.444 7.795 18.423 7.797 18.4 7.797 L 15.859 7.797 C 14.738 7.786 13.837 6.868 13.847 5.747 L 13.847 3.038 C 13.813 3.032 13.778 3.029 13.743 3.027 Z M 14.792 5.756 C 14.792 6.354 15.271 6.842 15.869 6.852 L 17.777 6.852 L 14.792 3.725 Z M 9.833 15.835 C 9.646 15.502 9.539 15.13 9.521 14.749 C 9.503 14.385 9.885 14.139 10.209 14.304 C 10.36 14.381 10.457 14.532 10.466 14.702 C 10.476 14.937 10.54 15.166 10.655 15.372 C 10.906 15.807 11.371 16.074 11.873 16.071 C 12.672 16.098 13.336 15.463 13.347 14.664 C 13.347 13.886 12.717 13.256 11.939 13.256 C 10.121 13.282 8.958 11.329 9.844 9.743 C 10.178 9.147 10.748 8.731 11.401 8.588 L 11.401 7.592 C 11.401 7.228 11.795 7 12.109 7.183 C 12.256 7.267 12.345 7.423 12.345 7.592 L 12.345 8.55 C 13.065 8.64 13.705 9.078 14.046 9.733 C 14.266 10.066 14.374 10.459 14.357 10.857 C 14.342 11.116 14.125 11.316 13.866 11.311 C 13.605 11.3 13.402 11.08 13.413 10.819 C 13.424 10.608 13.365 10.398 13.243 10.224 C 13.009 9.762 12.531 9.476 12.015 9.487 L 11.873 9.487 C 10.782 9.487 10.101 10.668 10.646 11.613 C 10.899 12.051 11.367 12.321 11.873 12.321 C 13.691 12.296 14.854 14.248 13.968 15.835 C 13.623 16.451 13.025 16.874 12.345 17.002 L 12.345 17.888 C 12.345 18.148 12.135 18.36 11.873 18.36 C 11.612 18.36 11.401 18.148 11.401 17.888 L 11.401 16.966 C 10.75 16.83 10.176 16.423 9.833 15.835 Z" style=""/>
</svg>
