<svg xmlns="http://www.w3.org/2000/svg" viewBox="0 0 24 24">
  <g id="Curves">
    <path id="Path" d="M23,11.5H20A8,8,0,0,0,12.5,4V1a.5.5,0,0,0-1,0V4A8,8,0,0,0,4,11.5H1a.5.5,0,0,0,0,1H4A8,8,0,0,0,11.5,20v3a.5.5,0,0,0,1,0V20A8,8,0,0,0,20,12.5h3a.5.5,0,0,0,0-1Zm-4,1A7,7,0,0,1,12.5,19L12,19l-.51,0A7,7,0,0,1,5,12.5c0-.16,0-.33,0-.49s0-.34,0-.51A7,7,0,0,1,11.5,5L12,5l.49,0A7,7,0,0,1,19,11.5,4.36,4.36,0,0,1,19,12C19,12.17,19,12.34,19,12.5Zm-7-4A3.53,3.53,0,1,0,15.53,12,3.53,3.53,0,0,0,12,8.48Z"/>
  </g>
</svg>
