<svg xmlns="http://www.w3.org/2000/svg" width="24" height="24" viewBox="0 0 24 24"><path d="M20.29,18.87,15,9.54V6.1h.87a.5.5,0,0,0,.5-.5V3.11a.5.5,0,0,0-.5-.5H8.17a.5.5,0,0,0-.5.5V5.6a.5.5,0,0,0,.5.5H9V9.54L3.71,18.87a1.69,1.69,0,0,0,0,1.71,1.71,1.71,0,0,0,1.48.85H18.81a1.71,1.71,0,0,0,1.48-.85A1.69,1.69,0,0,0,20.29,18.87ZM8.67,5.1V3.61h6.66V5.1H8.67ZM10,9.92A.51.51,0,0,0,10,9.67V6.1H14V9.67a.51.51,0,0,0,.06.25l1.71,3a6.52,6.52,0,0,1-2.11.37A4.59,4.59,0,0,1,12,13a5.56,5.56,0,0,0-1.92-.34,5.27,5.27,0,0,0-1.9.39Zm9.44,10.16a.71.71,0,0,1-.61.35H5.19a.71.71,0,0,1-.61-.35.71.71,0,0,1,0-.72l2.73-4.77a5.71,5.71,0,0,1,2.78-.94,4.59,4.59,0,0,1,1.61.29,5.56,5.56,0,0,0,1.92.34,7.37,7.37,0,0,0,2.61-.49l3.19,5.57A.71.71,0,0,1,19.42,20.08Z"/></svg>