<svg viewBox="0 0 24 24" xmlns="http://www.w3.org/2000/svg">
  <path d="M 12.015 19.36 C 7.838 19.346 4.11 16.739 2.665 12.82 C 2.465 12.288 2.465 11.702 2.665 11.17 C 4.113 7.255 7.841 4.652 12.015 4.64 C 16.17 4.66 19.881 7.247 21.335 11.14 C 21.535 11.672 21.535 12.258 21.335 12.79 C 20.333 15.547 18.162 17.718 15.405 18.72 C 14.32 19.126 13.173 19.343 12.015 19.36 Z M 12.015 5.64 C 8.263 5.657 4.916 8.001 3.615 11.52 C 3.495 11.825 3.495 12.165 3.615 12.47 C 5.959 18.932 14.419 20.434 18.844 15.174 C 19.519 14.371 20.047 13.456 20.405 12.47 C 20.52 12.164 20.52 11.826 20.405 11.52 C 19.106 8.004 15.763 5.662 12.015 5.64 Z M 12.015 16.33 C 8.736 16.33 6.686 12.78 8.326 9.94 C 9.965 7.1 14.065 7.1 15.704 9.94 C 16.078 10.588 16.275 11.322 16.275 12.07 C 16.27 14.42 14.365 16.325 12.015 16.33 Z M 12.015 8.81 C 9.505 8.81 7.937 11.527 9.192 13.7 C 10.447 15.873 13.583 15.873 14.838 13.7 C 15.124 13.204 15.275 12.642 15.275 12.07 C 15.27 10.272 13.813 8.815 12.015 8.81 Z"/>
</svg>
