<svg viewBox="0 0 24 24" xmlns="http://www.w3.org/2000/svg">
  <path d="M 11.998 13.58 C 11.761 13.581 11.529 13.515 11.328 13.39 L 7.368 11.488 L 7.368 15.82 C 7.368 16.011 7.482 16.184 7.658 16.26 L 11.808 18.26 C 11.914 18.329 12.052 18.329 12.158 18.26 L 16.408 16.26 C 16.548 16.139 16.631 15.965 16.638 15.78 L 16.638 11.495 L 12.628 13.42 C 12.437 13.531 12.219 13.587 11.998 13.58 Z M 3.268 9.38 C 3.183 9.143 3.251 8.878 3.438 8.71 L 3.568 8.61 L 11.368 4.82 C 11.768 4.579 12.268 4.579 12.668 4.82 L 20.328 8.57 L 20.718 8.57 L 20.768 9.15 C 20.772 9.399 20.614 9.621 20.378 9.7 L 17.638 11.015 L 17.638 15.82 C 17.616 16.355 17.336 16.847 16.888 17.14 L 12.628 19.14 C 12.444 19.273 12.225 19.349 11.998 19.36 C 11.759 19.356 11.525 19.29 11.318 19.17 L 7.248 17.24 C 6.709 17.009 6.361 16.477 6.368 15.89 L 6.368 11.007 L 4.288 10.008 L 4.288 15.44 C 4.288 15.716 4.064 15.94 3.788 15.94 C 3.512 15.94 3.288 15.716 3.288 15.44 L 3.288 9.415 Z M 4.778 9.13 L 11.778 12.51 C 11.884 12.579 12.022 12.579 12.128 12.51 L 19.198 9.11 L 12.198 5.67 C 12.092 5.601 11.954 5.601 11.848 5.67 Z"/>
</svg>
