<svg viewBox="0 0 24 24" xmlns="http://www.w3.org/2000/svg">
  <path d="M 12 22.5 C 7.863 22.5 4.52 20.208 2.784 17.032 C 2.775 17.016 2.766 17 2.758 16.984 C 1.169 14.041 0.955 10.349 2.757 7.019 C 2.765 7 2.775 6.982 2.786 6.965 C 2.825 6.893 2.866 6.821 2.907 6.75 C 6.948 -0.25 17.052 -0.25 21.093 6.75 C 21.134 6.821 21.174 6.892 21.213 6.963 C 21.225 6.982 21.235 7.001 21.245 7.022 C 22.064 8.543 22.496 10.246 22.5 11.977 C 22.501 11.993 22.501 12.009 22.5 12.026 C 22.494 13.811 22.043 15.491 21.252 16.962 C 21.238 16.994 21.222 17.024 21.202 17.053 C 19.417 20.296 15.968 22.494 12.005 22.5 C 12.003 22.5 12.002 22.5 12 22.5 Z M 4.095 6.73 L 8.233 6.73 C 8.622 5.021 9.202 3.638 9.913 2.724 C 7.434 3.268 5.403 4.763 4.095 6.73 Z M 19.9 6.73 C 18.568 4.739 16.505 3.279 14.095 2.734 C 14.803 3.648 15.379 5.027 15.767 6.73 Z M 3.513 7.73 C 2.926 8.893 2.573 10.177 2.5 11.5 L 7.694 11.5 C 7.718 10.149 7.836 8.88 8.034 7.73 Z M 21.487 11.5 C 21.415 10.149 21.062 8.873 20.484 7.73 L 15.966 7.73 C 16.164 8.88 16.282 10.149 16.306 11.5 Z M 2.499 12.5 C 2.565 13.761 2.89 15.041 3.513 16.27 L 8.034 16.27 C 7.836 15.12 7.718 13.851 7.694 12.5 Z M 20.486 16.27 C 21.077 15.096 21.418 13.813 21.487 12.5 L 16.306 12.5 C 16.282 13.851 16.164 15.12 15.966 16.27 Z M 4.095 17.27 C 5.528 19.434 7.639 20.768 9.909 21.271 C 9.2 20.358 8.621 18.976 8.233 17.27 Z M 19.905 17.27 L 15.767 17.27 C 15.379 18.976 14.8 20.358 14.091 21.271 C 16.361 20.768 18.472 19.434 19.905 17.27 Z M 12 2.5 C 10.993 2.5 9.917 4.103 9.274 6.73 L 14.726 6.73 C 14.084 4.106 13.008 2.503 12.003 2.5 C 12.002 2.5 12.001 2.5 12 2.5 Z M 12 21.5 C 13.007 21.5 14.083 19.897 14.726 17.27 L 9.274 17.27 C 9.917 19.897 10.993 21.5 12 21.5 Z M 8.695 11.5 L 15.305 11.5 C 15.28 10.12 15.148 8.852 14.94 7.73 L 9.06 7.73 C 8.852 8.852 8.72 10.12 8.695 11.5 Z M 9.06 16.27 L 14.94 16.27 C 15.148 15.148 15.28 13.88 15.305 12.5 L 8.695 12.5 C 8.72 13.88 8.852 15.148 9.06 16.27 Z"/>
</svg>
