<svg viewBox="0 0 24 24" xmlns="http://www.w3.org/2000/svg">
  <path d="M 12.21 6.07 C 12.077 6.072 11.95 6.017 11.86 5.92 C 11.809 5.878 11.771 5.822 11.75 5.76 C 11.735 5.698 11.735 5.632 11.75 5.57 C 11.736 5.507 11.736 5.443 11.75 5.38 C 11.771 5.318 11.809 5.262 11.86 5.22 C 11.895 5.17 11.944 5.132 12 5.11 C 12.122 5.06 12.258 5.06 12.38 5.11 C 12.442 5.131 12.498 5.169 12.54 5.22 C 12.633 5.313 12.687 5.438 12.69 5.57 C 12.7 5.633 12.7 5.697 12.69 5.76 C 12.669 5.822 12.631 5.878 12.58 5.92 C 12.527 5.961 12.465 5.988 12.4 6 C 12.343 6.038 12.278 6.062 12.21 6.07 Z M 7.38 10.9 C 7.104 10.9 6.88 10.676 6.88 10.4 C 6.883 8.001 8.487 5.898 10.8 5.26 C 11.185 5.156 11.538 5.508 11.436 5.893 C 11.388 6.072 11.249 6.212 11.07 6.26 C 9.204 6.776 7.903 8.464 7.88 10.4 C 7.88 10.676 7.656 10.9 7.38 10.9 Z M 3.12 10.4 C 3.12 10.124 3.344 9.9 3.62 9.9 C 3.896 9.9 4.12 10.124 4.12 10.4 C 4.126 14.864 7.746 18.48 12.21 18.48 C 16.672 18.48 20.29 14.862 20.29 10.4 C 20.29 10.124 20.514 9.9 20.79 9.9 C 21.066 9.9 21.29 10.124 21.29 10.4 C 21.284 15.244 17.489 19.201 12.71 19.466 L 12.71 20.14 L 17.74 20.14 C 18.016 20.14 18.24 20.364 18.24 20.64 C 18.24 20.916 18.016 21.14 17.74 21.14 L 6.67 21.14 C 6.396 21.135 6.175 20.914 6.17 20.64 C 6.17 20.364 6.394 20.14 6.67 20.14 L 11.71 20.14 L 11.71 19.466 C 6.926 19.207 3.126 15.248 3.12 10.4 Z M 12.21 17.71 C 6.583 17.71 3.066 11.618 5.879 6.745 C 8.693 1.872 15.727 1.872 18.541 6.745 C 19.182 7.856 19.52 9.117 19.52 10.4 C 19.514 14.435 16.245 17.704 12.21 17.71 Z M 12.21 4.09 C 7.353 4.09 4.317 9.348 6.745 13.555 C 9.174 17.762 15.246 17.762 17.675 13.555 C 18.228 12.596 18.52 11.508 18.52 10.4 C 18.514 6.917 15.693 4.096 12.21 4.09 Z"/>
</svg>
