<svg viewBox="0 0 24 24" xmlns="http://www.w3.org/2000/svg">
  <path d="M 12.026 7.76 C 11.964 7.76 11.902 7.757 11.842 7.752 C 11.472 7.779 11.097 7.888 10.741 8.094 C 9.946 8.553 9.456 9.402 9.456 10.32 C 9.456 10.596 9.232 10.82 8.956 10.82 C 8.68 10.82 8.456 10.596 8.456 10.32 C 8.456 8.844 9.314 7.665 10.478 7.103 C 9.854 6.451 9.651 5.424 10.164 4.535 C 10.992 3.102 13.06 3.102 13.888 4.535 C 14.077 4.862 14.176 5.233 14.176 5.61 C 14.176 6.189 13.947 6.715 13.574 7.102 C 13.653 7.141 13.732 7.183 13.811 7.228 C 14.916 7.866 15.596 9.045 15.596 10.32 C 15.591 10.594 15.37 10.815 15.096 10.82 C 14.82 10.82 14.596 10.596 14.596 10.32 C 14.596 8.888 13.474 7.845 12.205 7.753 C 12.146 7.758 12.086 7.76 12.026 7.76 Z M 12.026 4.46 C 11.141 4.46 10.587 5.418 11.03 6.185 C 11.22 6.514 11.532 6.702 11.861 6.749 C 11.971 6.743 12.082 6.743 12.193 6.748 C 12.522 6.701 12.833 6.513 13.022 6.185 C 13.123 6.01 13.176 5.812 13.176 5.61 C 13.171 4.977 12.659 4.465 12.026 4.46 Z M 18.586 15.43 C 18.524 15.43 18.462 15.427 18.402 15.422 C 18.032 15.449 17.657 15.558 17.301 15.764 C 16.506 16.223 16.016 17.072 16.016 17.99 C 16.016 18.266 15.792 18.49 15.516 18.49 C 15.24 18.49 15.016 18.266 15.016 17.99 C 15.016 16.514 15.874 15.335 17.038 14.773 C 16.414 14.121 16.211 13.094 16.724 12.205 C 17.552 10.772 19.62 10.772 20.448 12.205 C 20.637 12.532 20.736 12.903 20.736 13.28 C 20.736 13.859 20.507 14.385 20.134 14.772 C 20.213 14.811 20.292 14.853 20.371 14.898 C 21.476 15.536 22.156 16.715 22.156 17.99 C 22.151 18.264 21.93 18.485 21.656 18.49 C 21.38 18.49 21.156 18.266 21.156 17.99 C 21.156 16.558 20.034 15.515 18.765 15.423 C 18.706 15.428 18.646 15.43 18.586 15.43 Z M 18.586 12.13 C 17.701 12.13 17.147 13.088 17.59 13.855 C 17.768 14.164 18.077 14.369 18.424 14.419 C 18.533 14.413 18.643 14.413 18.754 14.418 C 19.539 14.307 19.996 13.422 19.582 12.705 C 19.377 12.349 18.997 12.13 18.586 12.13 Z M 3.574 12.205 C 4.402 10.772 6.47 10.772 7.298 12.205 C 7.487 12.532 7.586 12.903 7.586 13.28 C 7.586 13.866 7.351 14.397 6.971 14.785 C 6.992 14.795 7.012 14.805 7.033 14.816 C 8.291 15.456 9.054 16.778 8.979 18.187 C 8.979 18.463 8.755 18.687 8.479 18.687 C 8.205 18.682 7.984 18.461 7.979 18.187 C 8.113 16.213 6.061 14.834 4.284 15.705 C 3.356 16.159 2.791 17.125 2.849 18.157 C 2.866 18.445 2.637 18.688 2.349 18.687 C 2.073 18.687 1.849 18.463 1.849 18.187 C 1.767 16.633 2.655 15.358 3.886 14.771 C 3.264 14.119 3.061 13.093 3.574 12.205 Z M 5.436 12.13 C 4.551 12.13 3.997 13.088 4.44 13.855 C 4.625 14.176 4.953 14.386 5.317 14.424 C 5.393 14.422 5.47 14.422 5.546 14.425 C 6.366 14.349 6.856 13.44 6.432 12.705 C 6.227 12.349 5.847 12.13 5.436 12.13 Z M 11.526 19.17 C 11.114 19.167 10.703 19.133 10.296 19.07 C 9.911 19.008 9.737 18.553 9.983 18.251 C 10.097 18.11 10.277 18.041 10.456 18.07 C 11.078 18.171 11.709 18.184 12.33 18.109 L 11.466 17.71 C 11.218 17.589 11.108 17.294 11.216 17.04 C 11.333 16.787 11.635 16.679 11.886 16.8 L 14.096 17.8 C 14.243 17.867 14.348 18.001 14.376 18.16 C 14.396 18.27 14.379 18.382 14.33 18.48 C 14.3 18.542 14.257 18.599 14.204 18.644 L 12.566 20.36 C 12.473 20.468 12.339 20.533 12.196 20.54 C 12.066 20.539 11.941 20.489 11.846 20.4 C 11.649 20.204 11.649 19.886 11.846 19.69 L 12.398 19.115 C 12.109 19.149 11.818 19.168 11.526 19.17 Z M 19.446 9.01 C 19.235 9.01 19.048 8.878 18.976 8.68 C 18.759 8.086 18.461 7.526 18.094 7.016 L 18.166 7.96 C 18.183 8.238 17.974 8.479 17.696 8.5 L 17.666 8.52 C 17.401 8.52 17.182 8.314 17.166 8.05 L 17.006 5.76 C 16.906 5.515 17.013 5.211 17.288 5.104 C 17.418 5.054 17.56 5.06 17.682 5.118 L 19.976 5.73 C 20.248 5.793 20.409 6.074 20.326 6.34 C 20.257 6.608 19.984 6.77 19.716 6.7 L 18.955 6.496 C 19.355 7.063 19.679 7.683 19.916 8.34 C 20.004 8.599 19.872 8.882 19.616 8.98 Z M 4.756 8.29 C 4.551 8.219 4.422 8.026 4.42 7.821 L 4.086 5.45 C 4.032 5.065 4.415 4.766 4.775 4.912 C 4.943 4.98 5.061 5.131 5.086 5.31 L 5.209 6.068 C 5.572 5.489 6.011 4.958 6.516 4.49 C 6.712 4.293 7.03 4.293 7.226 4.49 C 7.418 4.688 7.418 5.002 7.226 5.2 C 6.729 5.642 6.302 6.154 5.958 6.718 L 6.866 6.24 C 7.112 6.117 7.411 6.215 7.536 6.46 C 7.673 6.692 7.597 6.991 7.366 7.13 L 5.146 8.24 C 5.073 8.272 4.995 8.289 4.916 8.29 C 4.863 8.3 4.809 8.3 4.756 8.29 Z"/>
</svg>
