<svg xmlns="http://www.w3.org/2000/svg" viewBox="0 0 24 24"><defs><style>.a{opacity:0.5;}</style></defs><path d="M9.9,13H9.1A1.1,1.1,0,0,0,8,14.1v2.3a1.1,1.1,0,0,0,1.1,1.1h.8A1.1,1.1,0,0,0,11,16.4V14.1A1.1,1.1,0,0,0,9.9,13Zm.1,3.4a.09.09,0,0,1-.1.1H9.1a.1.1,0,0,1-.1-.1V14.1a.1.1,0,0,1,.1-.1h.8a.09.09,0,0,1,.1.1ZM19.6,2.5H7.4A1.4,1.4,0,0,0,6,3.9v0l-.35.13-1.76.66a1.44,1.44,0,0,0-.83,1.76l2,6.8,1,3.3V20.1a1.4,1.4,0,0,0,1.4,1.4H19.6A1.4,1.4,0,0,0,21,20.1V3.9A1.4,1.4,0,0,0,19.6,2.5ZM6,13,4,6.2a.46.46,0,0,1,.22-.54L6,5Zm14,7.1a.4.4,0,0,1-.4.4H7.4a.4.4,0,0,1-.4-.4V3.9a.4.4,0,0,1,.4-.4H19.6a.4.4,0,0,1,.4.4ZM17.9,6.5h-.8A1.1,1.1,0,0,0,16,7.6v8.8a1.1,1.1,0,0,0,1.1,1.1h.8A1.1,1.1,0,0,0,19,16.4V7.6A1.1,1.1,0,0,0,17.9,6.5Zm.1,9.9a.09.09,0,0,1-.1.1h-.8a.1.1,0,0,1-.1-.1V7.6a.1.1,0,0,1,.1-.1h.8a.09.09,0,0,1,.1.1ZM13.9,9.5h-.8A1.1,1.1,0,0,0,12,10.6v5.8a1.1,1.1,0,0,0,1.1,1.1h.8A1.1,1.1,0,0,0,15,16.4V10.6A1.1,1.1,0,0,0,13.9,9.5Zm.1,6.9a.09.09,0,0,1-.1.1h-.8a.1.1,0,0,1-.1-.1V10.6a.1.1,0,0,1,.1-.1h.8a.09.09,0,0,1,.1.1Z"/></svg>