<svg viewBox="0 0 24 24" xmlns="http://www.w3.org/2000/svg">
  <path d="M 18.97 10.416 L 13.78 9.906 C 13.503 9.88 13.301 9.633 13.33 9.356 C 13.351 9.082 13.597 8.881 13.87 8.916 L 17.91 9.311 C 15.897 4.546 9.481 3.731 6.341 7.851 C 3.196 11.978 5.698 17.961 10.844 18.621 C 13.853 19.007 16.75 17.335 17.92 14.536 C 18.1 14.196 18.581 14.179 18.785 14.505 C 18.862 14.628 18.882 14.778 18.84 14.916 C 17.661 17.814 14.849 19.714 11.72 19.726 C 10.69 19.735 9.67 19.534 8.72 19.136 C 3.245 16.804 2.348 9.42 7.105 5.845 C 10.976 2.936 16.496 4.272 18.645 8.529 L 18.98 4.726 C 19.018 4.341 19.459 4.142 19.773 4.368 C 19.919 4.473 19.998 4.647 19.98 4.826 L 19.48 9.966 C 19.449 10.224 19.23 10.418 18.97 10.416 Z" style="clip-path: url(#a);"/>
</svg>
