<svg viewBox="0 0 24 24" xmlns="http://www.w3.org/2000/svg">
  <path d="M 6.67 14.84 C 6.79 14.96 6.836 15.134 6.793 15.298 C 6.698 15.65 6.258 15.768 6 15.51 L 3.27 12.74 C 3.112 12.524 3.018 12.267 3 12 C 3.006 11.72 3.129 11.455 3.34 11.27 L 6.13 8.51 C 6.336 8.309 6.664 8.309 6.87 8.51 C 6.93 8.65 7 8.71 7 8.85 C 6.989 8.976 6.932 9.094 6.84 9.18 L 4.55 11.48 L 12.77 11.48 C 13.047 11.501 13.253 11.744 13.23 12.02 C 13.225 12.314 12.984 12.55 12.69 12.55 L 4.55 12.55 Z M 17 4 C 18.148 4.038 19.045 5.003 19 6.15 L 19 17.86 C 18.984 19.059 17.999 20.017 16.8 20 L 10.14 20 C 8.963 19.984 8.011 19.037 7.99 17.86 L 7.99 15.56 C 8.011 15.285 8.255 15.081 8.53 15.11 C 8.823 15.11 9.06 15.347 9.06 15.64 L 9.06 17.87 C 9.06 18.498 9.572 19.006 10.2 19 L 16.88 19 C 17.5 18.984 17.995 18.48 18 17.86 L 18 6.13 C 17.995 5.504 17.486 5 16.86 5 L 10.18 5 C 9.548 5 9.039 5.518 9.05 6.15 L 9.05 8.44 C 9.051 8.457 9.051 8.473 9.05 8.49 C 9.024 8.755 8.784 8.945 8.52 8.91 C 8.229 8.91 7.994 8.671 8 8.38 L 8 6.15 C 8.043 4.961 9.011 4.015 10.2 4 Z"/>
</svg>
