<svg viewBox="0 0 24 24" xmlns="http://www.w3.org/2000/svg">
  <path d="M 6 18.4 C 4.614 18.384 3.5 17.256 3.5 15.87 L 3.5 9 C 3.542 7.637 4.637 6.542 6 6.5 L 18.25 6.5 C 19.636 6.5 20.764 7.614 20.78 9 L 20.78 15.85 C 20.808 17.205 19.744 18.331 18.39 18.38 L 6 18.38 Z M 6 7.5 C 5.185 7.531 4.531 8.185 4.5 9 L 4.5 15.88 C 4.51 16.707 5.173 17.379 6 17.4 L 18.37 17.4 C 19.178 17.367 19.808 16.688 19.78 15.88 L 19.78 9 C 19.769 8.164 19.086 7.494 18.25 7.5 Z M 9.89 16 C 9.473 16.006 9.134 15.667 9.14 15.25 L 9.14 9.62 C 9.14 9.043 9.765 8.682 10.265 8.97 C 10.497 9.104 10.64 9.352 10.64 9.62 L 10.64 15.28 C 10.624 15.682 10.293 16 9.89 16 Z M 15.77 16 C 15.356 16 15.02 15.664 15.02 15.25 L 15.02 9.62 C 15.02 9.043 15.645 8.682 16.145 8.97 C 16.377 9.104 16.52 9.352 16.52 9.62 L 16.52 15.28 C 16.509 15.685 16.175 16.006 15.77 16 Z M 7.85 15.78 C 7.574 15.78 7.35 15.556 7.35 15.28 L 7.35 9.62 C 7.35 9.344 7.574 9.12 7.85 9.12 C 8.126 9.12 8.35 9.344 8.35 9.62 L 8.35 15.28 C 8.35 15.556 8.126 15.78 7.85 15.78 Z M 13.67 15.78 C 13.394 15.78 13.17 15.556 13.17 15.28 L 13.17 9.62 C 13.17 9.344 13.394 9.12 13.67 9.12 C 13.946 9.12 14.17 9.344 14.17 9.62 L 14.17 15.28 C 14.17 15.556 13.946 15.78 13.67 15.78 Z M 17.66 15.78 C 17.384 15.78 17.16 15.556 17.16 15.28 L 17.16 9.62 C 17.16 9.344 17.384 9.12 17.66 9.12 C 17.936 9.12 18.16 9.344 18.16 9.62 L 18.16 15.28 C 18.16 15.556 17.936 15.78 17.66 15.78 Z M 11.92 15.66 C 11.712 15.66 11.544 15.488 11.55 15.28 L 11.55 9.62 C 11.544 9.412 11.712 9.24 11.92 9.24 C 12.13 9.24 12.3 9.41 12.3 9.62 L 12.3 15.28 C 12.3 15.49 12.13 15.66 11.92 15.66 Z M 6.4 15.53 C 6.262 15.53 6.15 15.418 6.15 15.28 L 6.15 9.62 C 6.15 9.428 6.358 9.307 6.525 9.403 C 6.602 9.448 6.65 9.531 6.65 9.62 L 6.65 15.28 C 6.65 15.418 6.538 15.53 6.4 15.53 Z"/>
</svg>
