<svg xmlns="http://www.w3.org/2000/svg" viewBox="0 0 24 24">
  <path d="M18.507 9.253v6.23c-.031 1.686-.751 3.296-1.841 4.41-1.114 1.09-2.728 1.809-4.415 1.84-1.686-.03-3.307-.738-4.41-1.84C6.739 18.79 6.031 17.166 6 15.48V7.677c.028-1.252.569-2.469 1.375-3.3.83-.806 2.053-1.348 3.305-1.377 1.252.029 2.48.559 3.298 1.376.817.818 1.347 2.049 1.376 3.301v6.542c-.042 1.14-.709 2.169-1.55 2.684-.868.471-2.092.534-3.1.001-.455-.273-.872-.696-1.134-1.135-.249-.447-.407-1.018-.416-1.55V9.253h1v4.966c-.009.398.081.719.282 1.05.186.338.419.578.768.769.726.467 1.45.404 2.1-.001.675-.359 1.092-.956 1.05-1.818V7.677c.015-1.05-.391-1.901-1.084-2.593-.692-.693-1.543-1.099-2.593-1.084-1.049-.014-1.913.381-2.594 1.084C7.379 5.766 6.984 6.633 7 7.683v7.797c-.013 1.484.571 2.728 1.549 3.705.977.978 2.221 1.562 3.705 1.548 1.482.012 2.739-.56 3.705-1.548.988-.966 1.561-2.224 1.548-3.708V9.253z"/>
</svg>
