<svg viewBox="0 0 24 24" xmlns="http://www.w3.org/2000/svg">
  <path d="M 10.982 13.986 L 10.139 13.986 C 10.143 14.032 10.141 14.079 10.132 14.126 L 9.132 19.546 C 9.121 20.018 8.724 20.389 8.252 20.366 L 6.742 20.366 C 5.493 20.266 4.567 19.164 4.682 17.916 L 4.682 13.986 L 4.152 13.986 C 3.876 13.986 3.652 13.762 3.652 13.486 L 3.652 12.971 C 1.898 12.646 0.898 10.642 1.84 9.011 C 2.232 8.332 2.898 7.867 3.652 7.723 L 3.652 7.136 C 3.652 6.86 3.876 6.636 4.152 6.636 L 10.982 6.636 C 11.258 6.636 11.482 6.86 11.482 7.136 L 11.482 7.483 C 14.15 7.346 16.652 6.11 18.382 4.056 C 19.027 3.331 20.214 3.576 20.519 4.497 C 20.556 4.607 20.577 4.721 20.582 4.836 L 20.582 7.95 C 22.145 8.232 23.038 10.016 22.2 11.466 C 21.85 12.072 21.256 12.485 20.582 12.611 L 20.582 15.706 C 20.593 16.39 20.045 16.95 19.364 16.956 L 19.372 16.956 C 18.987 16.967 18.619 16.801 18.372 16.506 C 16.634 14.467 14.142 13.237 11.482 13.091 L 11.482 13.466 C 11.488 13.748 11.264 13.981 10.982 13.986 Z M 4.672 12.986 L 10.482 12.986 L 10.482 12.598 C 10.481 12.583 10.481 12.567 10.482 12.552 L 10.482 8.018 C 10.481 8.003 10.481 7.987 10.482 7.972 L 10.482 7.656 L 4.652 7.656 Z M 2.706 11.181 C 2.918 11.549 3.258 11.816 3.652 11.94 L 3.652 8.75 C 2.673 9.053 2.151 10.221 2.706 11.181 Z M 21.488 10.311 C 21.497 9.709 21.118 9.19 20.582 8.994 L 20.582 11.571 C 21.101 11.384 21.475 10.892 21.488 10.311 Z M 5.682 17.916 C 5.606 18.612 6.107 19.238 6.802 19.316 L 8.132 19.316 L 9.123 13.986 L 5.682 13.986 Z M 8.122 19.446 C 8.118 19.462 8.118 19.48 8.122 19.496 Z M 19.192 15.866 C 19.234 15.918 19.295 15.951 19.362 15.956 C 19.427 15.97 19.494 15.951 19.542 15.906 C 19.601 15.857 19.634 15.783 19.632 15.706 L 19.632 4.866 C 19.622 4.723 19.494 4.618 19.352 4.636 C 19.284 4.637 19.219 4.666 19.172 4.716 C 17.247 7.002 14.453 8.366 11.482 8.487 L 11.482 12.087 C 14.458 12.22 17.254 13.584 19.192 15.866 Z"/>
</svg>
