<svg viewBox="0 0 24 24" xmlns="http://www.w3.org/2000/svg">
  <path d="M 20 8.5 L 4 8.5 C 3.615 8.5 3.375 8.083 3.567 7.75 C 3.656 7.595 3.821 7.5 4 7.5 L 20 7.5 C 20.385 7.5 20.625 7.917 20.433 8.25 C 20.344 8.405 20.179 8.5 20 8.5 Z M 20 12.5 L 4 12.5 C 3.615 12.5 3.375 12.083 3.567 11.75 C 3.656 11.595 3.821 11.5 4 11.5 L 20 11.5 C 20.385 11.5 20.625 11.917 20.433 12.25 C 20.344 12.405 20.179 12.5 20 12.5 Z M 20 16.5 L 4 16.5 C 3.615 16.5 3.375 16.083 3.567 15.75 C 3.656 15.595 3.821 15.5 4 15.5 L 20 15.5 C 20.385 15.5 20.625 15.917 20.433 16.25 C 20.344 16.405 20.179 16.5 20 16.5 Z"/>
</svg>
