<svg xmlns="http://www.w3.org/2000/svg" width="24" height="24" viewBox="0 0 24 24"><path d="M14.94,9.42l-.31-.1V7.23l1.85-1a.51.51,0,0,0,.26-.44V3a.5.5,0,0,0-.5-.5H8a.5.5,0,0,0-.5.5V5.75a.52.52,0,0,0,.25.44l1.86,1v2a4.2,4.2,0,0,0-1.36.56,7.64,7.64,0,0,0-4.78,7.08V21a.5.5,0,0,0,.5.5H20.27a.5.5,0,0,0,.5-.5V16.84A7.66,7.66,0,0,0,14.94,9.42Zm3,6.67a1.14,1.14,0,0,1-1.13,1.13A1.16,1.16,0,0,1,15.67,16l-.91-5.58C17.29,11.67,17.94,16.09,17.94,16.09Zm-3.27,0a1.13,1.13,0,1,1-2.26,0v-5.9h.7c.21,0,.4,0,.6,0ZM13.6,7.44h0V9.19h-3V7.44h3Zm-2.49-1V4.94h2v1.5Zm-2.64-1v-2h7.27v2l-1.64.93V4.44a.5.5,0,0,0-.5-.5h-3a.5.5,0,0,0-.5.5V6.39Zm1.62,4.82a6.64,6.64,0,0,1,1-.09h.32v5.9a1.14,1.14,0,0,1-2.27,0Zm-1.41.37L9,10.52l-.9,5.57a1.14,1.14,0,0,1-2.27,0C5.93,15.72,6.56,12.05,8.68,10.65ZM4.44,16.84a6.62,6.62,0,0,1,1.36-4,13.33,13.33,0,0,0-.93,3.26,1.1,1.1,0,0,1-.43.86ZM19.77,20.5H4.44V18.09a2.14,2.14,0,0,0,.93-.63A2.11,2.11,0,0,0,7,18.22a2.14,2.14,0,0,0,1.64-.77,2.11,2.11,0,0,0,1.63.77,2.15,2.15,0,0,0,1.64-.78,2.09,2.09,0,0,0,3.26,0,2.12,2.12,0,0,0,3.27,0,2.15,2.15,0,0,0,1.33.73Zm0-3.34a1.15,1.15,0,0,1-.83-1v0h0V16a12.89,12.89,0,0,0-1.41-4.14,6.63,6.63,0,0,1,2.24,5Z"/></svg>