<svg xmlns="http://www.w3.org/2000/svg" width="24" height="24" viewBox="0 0 24 24"><title>outlined-action-calendar</title><path d="M12.1,13a.77.77,0,0,0-.81.74v.07a.81.81,0,1,0,1.61.05,0,0,0,0,0,0-.05A.8.8,0,0,0,12.1,13Z"/><path d="M12.1,15.86a.78.78,0,0,0-.81.75v.06a.81.81,0,1,0,1.61.06.06.06,0,0,0,0-.06A.82.82,0,0,0,12.1,15.86Z"/><path d="M8.38,15.86H8.32a.78.78,0,0,0-.81.75v.06a.77.77,0,0,0,.74.81h.07a.78.78,0,0,0,.81-.75v-.06A.78.78,0,0,0,8.38,15.86Z"/><path d="M15.87,13h-.06a.77.77,0,0,0-.81.74v.07a.8.8,0,0,0,.83.78.82.82,0,0,0,.79-.78A.79.79,0,0,0,15.87,13Z"/><path d="M17.9,6.75h-.61a.17.17,0,0,1-.2-.15V5.88A.89.89,0,0,0,16.21,5H14.52a.89.89,0,0,0-.87.88v.67a.18.18,0,0,1-.16.2H10.61a.18.18,0,0,1-.2-.15V5.88a.81.81,0,0,0-.81-.81H7.91A.88.88,0,0,0,7,5.94v.68a.18.18,0,0,1-.16.2H6.23A2.15,2.15,0,0,0,4,8.89v8.79a2.21,2.21,0,0,0,2.17,2.23H18a2.25,2.25,0,0,0,2.23-2.23V9A2.35,2.35,0,0,0,17.9,6.75Zm-3.1-.54c0-.06,0-.06.06-.06H16c.07,0,.07,0,.07.06v.54H14.8Zm-6.68,0c0-.06,0-.06.06-.06H9.33v.06h0v.54H8.12ZM19.05,17.68a1.18,1.18,0,0,1-1.15,1.15H6.23a1.18,1.18,0,0,1-1.15-1.15V9A1.18,1.18,0,0,1,6.23,7.83H18A1.17,1.17,0,0,1,19,9h0Z"/><path d="M7.92,11l-.34.34a.3.3,0,0,0,.06.4.32.32,0,0,0,.35,0l.33-.33.33.34a.29.29,0,0,0,.4-.06.27.27,0,0,0,0-.34L8.72,11l.34-.33a.43.43,0,0,0,0-.41.26.26,0,0,0-.36,0l0,0-.34.34L8,10.26a.29.29,0,0,0-.41.4Z"/><path d="M7.92,13.83l-.34.34a.3.3,0,0,0,.06.4.32.32,0,0,0,.35,0l.33-.33.33.34a.29.29,0,0,0,.4-.06.27.27,0,0,0,0-.34l-.33-.34.34-.34a.43.43,0,0,0,0-.41.26.26,0,0,0-.36,0l0,0-.34.34L8,13.09a.31.31,0,0,0-.41.06.32.32,0,0,0,0,.35Z"/><path d="M12.84,11.34,12.5,11l.34-.33a.43.43,0,0,0,0-.41.26.26,0,0,0-.36,0l0,0-.34.34-.34-.34a.29.29,0,0,0-.4.06.3.3,0,0,0,0,.34l.34.34-.34.34a.3.3,0,0,0,.06.4.3.3,0,0,0,.34,0l.34-.34.34.34a.3.3,0,0,0,.4.06.3.3,0,0,0,.06-.4A.17.17,0,0,0,12.84,11.34Z"/><path d="M16.27,11l.34-.34c.07-.13.07-.33-.06-.4a.26.26,0,0,0-.36,0l0,0-.34.34-.34-.34a.3.3,0,0,0-.4-.06.3.3,0,0,0-.06.4l.06.06.4.34-.33.34a.28.28,0,0,0,.06.4.3.3,0,0,0,.34,0l.33-.34.34.34a.3.3,0,0,0,.4-.06.3.3,0,0,0,0-.34Z"/></svg>