<svg xmlns="http://www.w3.org/2000/svg" viewBox="0 0 24 24"><path d="M15.29,13.55a.5.5,0,0,0-.5-.5H7.21a.5.5,0,0,0,0,1h7.58A.5.5,0,0,0,15.29,13.55Zm-5.48,7.2H5.5a.5.5,0,0,1-.5-.5v-17a.5.5,0,0,1,.5-.5h7.4V6.32a1.5,1.5,0,0,0,1.5,1.5H18v3.31a.5.5,0,1,0,1,0V7.32s0-.05,0-.07a.13.13,0,0,1,0-.06A.48.48,0,0,0,18.85,7L13.76,1.9a.44.44,0,0,0-.24-.13h-8A1.5,1.5,0,0,0,4,3.25v17a1.5,1.5,0,0,0,1.5,1.5H9.81a.5.5,0,1,0,0-1ZM13.9,3.45l3.39,3.37H14.4a.5.5,0,0,1-.5-.5ZM7.21,16.1a.5.5,0,0,0,0,1h5.58a.5.5,0,0,0,0-1Zm0-5.1h6.6a.5.5,0,0,0,.5-.5.5.5,0,0,0-.5-.5H7.21a.5.5,0,0,0-.5.5A.5.5,0,0,0,7.21,11ZM21.5,12.39a1.77,1.77,0,0,0-2.44,0l-1.2,1.2h0l-4.32,4.32h0a7.37,7.37,0,0,0-1.74,2.72l-.1.26a1,1,0,0,0,.93,1.35,1,1,0,0,0,.35-.06l.27-.1A7.44,7.44,0,0,0,16,20.36h0L20.3,16h0l1.2-1.2h0A1.73,1.73,0,0,0,21.5,12.39Zm-8.6,8.76-.26.1.1-.27a6.37,6.37,0,0,1,1.17-2l1,1A6.49,6.49,0,0,1,12.9,21.15Zm2.72-1.86-1-1,3.61-3.61,1,1Zm5.17-5.17h0l-.85.85-1-1,.85-.84a.72.72,0,1,1,1,1Z"/></svg>