<svg viewBox="0 0 24 24" xmlns="http://www.w3.org/2000/svg">
  <path d="M 5.91 8 C 5.908 7.997 5.906 7.995 5.904 7.992 C 5.877 8.004 5.849 8.013 5.82 8.02 C 5.624 8.068 5.489 8.248 5.5 8.45 C 5.5 8.57 5.5 8.89 5.7 8.89 C 5.734 8.89 5.768 8.893 5.8 8.9 C 5.804 8.9 5.807 8.9 5.81 8.9 L 6.553 8.9 Z M 6.07 6.67 L 11.29 2.67 C 11.494 2.52 11.751 2.462 12 2.51 C 12.246 2.544 12.471 2.669 12.63 2.86 L 13.269 3.69 C 13.308 3.646 13.355 3.609 13.41 3.58 L 13.74 3.4 C 14.29 3.117 14.966 3.299 15.3 3.82 L 17.18 7.12 C 17.48 7.672 17.296 8.362 16.76 8.69 L 16.418 8.9 L 17.39 8.9 C 17.909 8.898 18.343 9.293 18.39 9.81 L 18.39 12.11 L 18.56 12.11 C 19.066 12.14 19.47 12.544 19.5 13.05 L 19.5 15.19 C 19.47 15.696 19.066 16.1 18.56 16.13 L 18.34 16.13 L 18.34 18.48 C 18.313 19.013 17.873 19.431 17.34 19.43 L 5.45 19.43 L 5.45 19.41 C 4.928 19.412 4.492 19.011 4.45 18.49 L 4.45 8.73 C 4.45 8.653 4.467 8.582 4.496 8.519 C 4.497 8.506 4.498 8.493 4.5 8.48 C 4.476 7.808 4.927 7.211 5.58 7.05 C 5.65 7.034 5.72 7.033 5.786 7.045 C 5.846 6.899 5.943 6.769 6.07 6.67 Z M 17.38 9.84 L 12.031 9.868 C 11.95 9.889 11.865 9.889 11.784 9.869 L 5.81 9.9 C 5.775 9.9 5.741 9.897 5.708 9.89 C 5.706 9.89 5.703 9.89 5.7 9.89 C 5.614 9.886 5.53 9.874 5.45 9.855 L 5.45 18.46 L 17.34 18.41 L 17.34 16.13 L 15.7 16.13 C 15.181 16.13 14.76 15.709 14.76 15.19 L 14.76 13.05 C 14.789 12.547 15.188 12.144 15.69 12.11 L 17.38 12.11 Z M 16.23 7.8 C 16.32 7.752 16.352 7.638 16.3 7.55 L 14.44 4.29 C 14.375 4.23 14.275 4.23 14.21 4.29 L 13.88 4.46 C 13.876 4.462 13.871 4.465 13.867 4.467 L 15.24 6.25 C 15.392 6.446 15.46 6.694 15.43 6.94 C 15.405 7.186 15.278 7.411 15.08 7.56 L 13.348 8.9 L 14.536 8.9 Z M 14.42 6.79 L 11.82 3.49 L 6.69 7.49 L 7.774 8.9 L 11.706 8.9 Z M 10.54 17.1 C 10.123 16.895 9.8 16.537 9.64 16.1 C 9.581 15.916 9.55 15.723 9.55 15.53 C 9.55 15.254 9.774 15.03 10.05 15.03 C 10.326 15.03 10.55 15.254 10.55 15.53 C 10.535 15.616 10.535 15.704 10.55 15.79 C 10.617 15.988 10.761 16.151 10.95 16.24 C 11.134 16.341 11.352 16.359 11.55 16.29 C 11.881 16.164 12.096 15.844 12.09 15.49 C 12.096 15.308 11.994 15.139 11.83 15.06 L 10.41 14.37 C 9.877 14.102 9.541 13.557 9.54 12.96 C 9.53 12.277 9.921 11.651 10.54 11.36 C 10.642 11.31 10.746 11.271 10.85 11.241 L 10.85 11 C 10.85 10.724 11.074 10.5 11.35 10.5 C 11.626 10.5 11.85 10.724 11.85 11 L 11.85 11.253 C 12.568 11.472 13.131 12.133 13.13 12.98 C 13.13 13.365 12.713 13.605 12.38 13.413 C 12.225 13.324 12.13 13.159 12.13 12.98 C 12.131 12.397 11.54 12 11 12.22 C 10.74 12.349 10.579 12.619 10.59 12.91 C 10.586 13.134 10.71 13.34 10.91 13.44 L 12.31 14.12 C 12.828 14.362 13.154 14.888 13.14 15.46 C 13.143 16.235 12.659 16.928 11.93 17.19 C 11.904 17.2 11.877 17.208 11.85 17.217 L 11.85 17.5 C 11.85 17.776 11.626 18 11.35 18 C 11.074 18 10.85 17.776 10.85 17.5 L 10.85 17.219 C 10.744 17.189 10.64 17.149 10.54 17.1 Z M 18.5 13.05 L 15.7 13.11 L 15.76 15.19 L 18.5 15.13 Z"/>
</svg>
