<svg xmlns="http://www.w3.org/2000/svg" width="24" height="24" viewBox="0 0 24 24"><path d="M16.6,5.58A6.42,6.42,0,1,0,23,12,6.43,6.43,0,0,0,16.6,5.58Zm0,11.84A5.42,5.42,0,1,1,22,12,5.43,5.43,0,0,1,16.6,17.42Z"/><path d="M17.1,12V8.75a.5.5,0,0,0-.5-.5.5.5,0,0,0-.5.5v3.48a.5.5,0,0,0,.14.35l2.12,2.11a.47.47,0,0,0,.35.15.5.5,0,0,0,.35-.85Z"/><path d="M5.14,9H8.55a.51.51,0,0,0,.5-.5.5.5,0,0,0-.5-.5H5.14a.5.5,0,0,0-.5.5A.51.51,0,0,0,5.14,9Z"/><path d="M8.56,11.44a.5.5,0,0,0-.5-.5H1.48a.5.5,0,0,0,0,1H8.06A.5.5,0,0,0,8.56,11.44Z"/><path d="M4.26,14.34H3a.5.5,0,0,0,0,1h1.3a.5.5,0,1,0,0-1Z"/><path d="M9,14.36H5.86a.5.5,0,0,0-.5.5.51.51,0,0,0,.5.5H9a.5.5,0,0,0,.5-.5A.5.5,0,0,0,9,14.36Z"/></svg>