<svg viewBox="0 0 24 24" xmlns="http://www.w3.org/2000/svg">
  <path d="M 17.815 18.315 L 6.185 18.315 C 4.732 18.315 3.555 17.138 3.555 15.685 L 3.555 8.315 C 3.555 6.862 4.732 5.685 6.185 5.685 L 17.825 5.685 C 19.274 5.691 20.445 6.866 20.445 8.315 L 20.445 15.685 C 20.445 17.138 19.268 18.315 17.815 18.315 Z M 6.185 6.705 C 5.947 6.705 5.72 6.757 5.517 6.85 L 11.065 11.825 C 11.636 12.33 12.494 12.33 13.065 11.825 L 18.561 6.888 C 18.341 6.772 18.091 6.706 17.825 6.705 Z M 4.575 8.315 L 4.575 15.685 C 4.575 16.574 5.296 17.295 6.185 17.295 L 17.815 17.295 C 18.704 17.295 19.425 16.574 19.425 15.685 L 19.425 8.315 C 19.425 8.059 19.365 7.817 19.259 7.603 L 13.735 12.565 C 13.258 12.986 12.64 13.211 12.005 13.195 C 11.381 13.195 10.778 12.964 10.315 12.545 L 4.762 7.561 C 4.643 7.786 4.575 8.042 4.575 8.315 Z" style="clip-path: url(#a);"/>
</svg>
