<svg viewBox="0 0 24 24" xmlns="http://www.w3.org/2000/svg">
  <path d="M 17.468 16.568 L 10.284 16.568 C 9.636 16.555 9.074 16.119 8.896 15.496 L 6.515 7.358 C 6.512 7.345 6.509 7.331 6.507 7.318 C 6.187 6.129 5.407 4.484 4.665 4.484 L 2.992 4.484 C 2.613 4.484 2.377 4.074 2.566 3.746 C 2.654 3.593 2.816 3.5 2.992 3.5 L 4.665 3.5 C 6.183 3.5 7.065 5.818 7.358 6.747 L 19.456 6.747 C 19.848 6.744 20.225 6.9 20.499 7.18 C 20.775 7.457 20.932 7.832 20.932 8.224 C 20.932 8.36 20.912 8.496 20.873 8.627 L 18.904 15.516 C 18.71 16.144 18.126 16.572 17.468 16.568 Z M 7.627 7.712 L 9.802 15.23 C 9.863 15.44 10.056 15.584 10.274 15.584 L 17.458 15.584 C 17.676 15.584 17.869 15.44 17.93 15.23 L 19.898 8.342 C 19.902 8.295 19.902 8.25 19.898 8.204 C 19.9 8.07 19.847 7.942 19.751 7.85 C 19.658 7.76 19.534 7.711 19.406 7.712 Z M 11.189 21.203 C 9.674 21.203 8.727 19.563 9.485 18.251 C 10.243 16.939 12.136 16.939 12.894 18.251 C 13.067 18.55 13.157 18.89 13.157 19.235 C 13.157 20.323 12.277 21.203 11.189 21.203 Z M 11.189 18.251 C 10.432 18.251 9.958 19.071 10.337 19.727 C 10.716 20.384 11.663 20.384 12.042 19.727 C 12.128 19.578 12.173 19.409 12.173 19.235 C 12.173 18.692 11.733 18.251 11.189 18.251 Z M 16.7 21.203 C 15.185 21.203 14.238 19.563 14.996 18.251 C 15.753 16.939 17.647 16.939 18.405 18.251 C 18.578 18.55 18.668 18.89 18.668 19.235 C 18.668 20.323 17.788 21.203 16.7 21.203 Z M 16.7 18.251 C 15.942 18.251 15.469 19.071 15.848 19.727 C 16.227 20.384 17.173 20.384 17.552 19.727 C 17.639 19.578 17.684 19.409 17.684 19.235 C 17.684 18.692 17.243 18.251 16.7 18.251 Z" style=""/>
</svg>
