<svg xmlns="http://www.w3.org/2000/svg" width="24" height="24" viewBox="0 0 24 24"><path d="M3,8.14a.5.5,0,0,0,.5-.49v-4a.12.12,0,0,1,.13-.13H7.67A.5.5,0,0,0,8.16,3a.49.49,0,0,0-.49-.49h-4A1.12,1.12,0,0,0,2.5,3.65v4A.49.49,0,0,0,3,8.14Z"/><path d="M10.42,5.15H6.07A.86.86,0,0,0,5.22,6v4.35a.86.86,0,0,0,.85.85h4.35a.86.86,0,0,0,.86-.85V6A.86.86,0,0,0,10.42,5.15Zm-.13,5.07H6.21V6.14h4.08Z"/><path d="M13.65,11.2H18a.85.85,0,0,0,.85-.85V6A.85.85,0,0,0,18,5.15H13.65A.85.85,0,0,0,12.8,6v4.35A.85.85,0,0,0,13.65,11.2Zm.13-5.06h4.08v4.08H13.78Z"/><path d="M10.42,12.7H6.07a.86.86,0,0,0-.85.86v4.35a.86.86,0,0,0,.85.85h4.35a.86.86,0,0,0,.86-.85V13.56A.87.87,0,0,0,10.42,12.7Zm-.13,5.07H6.21V13.69h4.08Z"/><rect x="14.5" y="14.31" width="2.67" height="2.68" rx="0.59"/><path d="M18.37,12.69a.49.49,0,0,0-.49.49v5.07a.49.49,0,0,0,1,0V13.18A.49.49,0,0,0,18.37,12.69Z"/><path d="M16.68,12.69H13.3a.49.49,0,0,0,0,1h3.38a.49.49,0,0,0,0-1Z"/><path d="M17.17,18.25a.49.49,0,0,0-.49-.49H13.3a.49.49,0,1,0,0,1h3.38A.49.49,0,0,0,17.17,18.25Z"/><path d="M12.9,14.87v1.69a.5.5,0,0,0,1,0V14.87a.5.5,0,0,0-1,0Z"/><rect x="6.9" y="14.38" width="2.67" height="2.68" rx="0.59"/><rect x="6.9" y="6.78" width="2.67" height="2.68" rx="0.59"/><rect x="14.5" y="6.78" width="2.67" height="2.68" rx="0.59"/><path d="M16.36,3.49h4a.13.13,0,0,1,.13.13V7.67a.49.49,0,1,0,1,0v-4A1.12,1.12,0,0,0,20.36,2.5h-4a.5.5,0,0,0,0,1Z"/><path d="M21,15.86a.5.5,0,0,0-.5.49v4a.12.12,0,0,1-.13.13H16.33a.5.5,0,0,0-.49.5.49.49,0,0,0,.49.49h4.05a1.12,1.12,0,0,0,1.12-1.12v-4A.49.49,0,0,0,21,15.86Z"/><path d="M7.64,20.51h-4a.13.13,0,0,1-.13-.13V16.33a.49.49,0,1,0-1,0v4.05A1.12,1.12,0,0,0,3.64,21.5h4a.5.5,0,0,0,0-1Z"/></svg>