<svg xmlns="http://www.w3.org/2000/svg" width="24" height="24" viewBox="0 0 24 24"><path d="M18.93,6.27H16.26V5a2.12,2.12,0,0,0-2.12-2.12H9.86A2.12,2.12,0,0,0,7.74,5V6.27H5.07a2.5,2.5,0,0,0-2.5,2.5v9.86a2.5,2.5,0,0,0,2.5,2.5H18.93a2.5,2.5,0,0,0,2.5-2.5V8.77A2.5,2.5,0,0,0,18.93,6.27ZM8.74,5A1.12,1.12,0,0,1,9.86,3.87h4.28A1.12,1.12,0,0,1,15.26,5V6.27H8.74ZM5.07,7.27H18.93a1.5,1.5,0,0,1,1.5,1.5v4.36H14.62a1.37,1.37,0,0,0-1.36-1.37H10.74a1.37,1.37,0,0,0-1.36,1.37H3.57V8.77A1.5,1.5,0,0,1,5.07,7.27Zm8.55,5.85v1.16a.37.37,0,0,1-.36.37H10.74a.37.37,0,0,1-.36-.37V13.12a.37.37,0,0,1,.36-.37h2.52A.37.37,0,0,1,13.62,13.12Zm5.31,7H5.07a1.5,1.5,0,0,1-1.5-1.5v-4.5H9.38v.15a1.36,1.36,0,0,0,1.36,1.37h2.52a1.36,1.36,0,0,0,1.36-1.37v-.15h5.81v4.5A1.5,1.5,0,0,1,18.93,20.13Z"/></svg>