<svg xmlns="http://www.w3.org/2000/svg" viewBox="0 0 24 24">
  <g id="Curves">
    <path id="outlined-action-recycle" d="M12.87,4.67,15.34,9,13.8,8.55a.5.5,0,1,0-.26,1l2.73.73a.3.3,0,0,0,.13,0,.5.5,0,0,0,.48-.37l.73-2.73a.48.48,0,0,0-.35-.61.5.5,0,0,0-.61.35l-.43,1.58L13.73,4.17a2,2,0,0,0-3.46,0L7.53,8.9a.5.5,0,0,0,.19.68A.49.49,0,0,0,8.4,9.4l2.73-4.73A1,1,0,0,1,12.87,4.67ZM10.38,17.83H5.26a1,1,0,0,1-.86-1.5l2.42-4.19.43,1.62a.5.5,0,0,0,.48.37l.13,0a.49.49,0,0,0,.35-.61l-.73-2.73a.5.5,0,0,0-.61-.36l-2.73.73a.5.5,0,0,0,.26,1l1.51-.41L3.53,15.83a2,2,0,0,0,1.73,3h5.12a.5.5,0,0,0,.5-.5A.5.5,0,0,0,10.38,17.83Zm10.09-2-2.65-4.59a.52.52,0,0,0-.69-.19.51.51,0,0,0-.18.69l2.65,4.59a1,1,0,0,1-.86,1.5H13.59l1.14-1.15a.5.5,0,0,0,0-.71.5.5,0,0,0-.7,0l-2,2a.5.5,0,0,0,0,.71l2,2a.48.48,0,0,0,.7,0,.5.5,0,0,0,0-.71l-1.14-1.14h5.15a2,2,0,0,0,1.73-3Z"/>
  </g>
</svg>
