<svg viewBox="0 0 24 24" xmlns="http://www.w3.org/2000/svg">
  <path d="M 5.083 21.479 C 4.914 21.478 4.745 21.451 4.583 21.399 C 3.891 21.164 3.446 20.489 3.503 19.759 L 3.503 4.219 C 3.469 3.808 3.603 3.401 3.873 3.089 C 4.158 2.757 4.566 2.555 5.003 2.529 C 5.288 2.5 5.575 2.548 5.833 2.669 L 19.643 10.399 C 20.492 10.92 20.757 12.032 20.233 12.879 C 20.092 13.103 19.905 13.294 19.683 13.439 L 5.823 21.299 C 5.594 21.416 5.341 21.478 5.083 21.479 Z M 5.083 3.479 L 5.003 3.479 C 4.846 3.495 4.701 3.574 4.603 3.699 C 4.496 3.815 4.445 3.972 4.463 4.129 L 4.463 19.829 C 4.416 20.281 4.875 20.615 5.29 20.43 C 5.298 20.427 5.306 20.423 5.313 20.419 L 19.123 12.579 C 19.213 12.521 19.289 12.442 19.343 12.349 C 19.576 11.979 19.464 11.491 19.093 11.259 L 5.323 3.559 C 5.253 3.533 5.178 3.519 5.103 3.519 Z M 4.003 19.779 Z"/>
</svg>
