<svg viewBox="0 0 24 24" xmlns="http://www.w3.org/2000/svg">
  <path d="M 8.846 5.875 C 7.985 5.235 7.056 4.692 6.076 4.255 L 5.736 4.155 L 5.586 4.455 C 4.973 5.327 4.463 6.266 4.066 7.255 C 3.216 9.162 3.026 11.298 3.526 13.325 C 4.213 15.292 5.527 16.978 7.266 18.125 C 8.129 18.751 9.058 19.281 10.036 19.705 L 10.376 19.845 L 10.586 19.555 C 11.174 18.659 11.667 17.704 12.056 16.705 C 12.886 14.803 13.072 12.682 12.586 10.665 C 11.903 8.699 10.588 7.015 8.846 5.875 Z M 10.356 18.255 L 8.496 11.885 C 8.424 11.642 8.169 11.504 7.926 11.575 C 7.687 11.652 7.554 11.905 7.626 12.145 L 7.586 12.145 L 9.456 18.465 C 7.986 17.685 5.176 15.865 4.356 13.095 C 3.928 11.269 4.104 9.353 4.856 7.635 C 5.188 6.805 5.596 6.009 6.076 5.255 C 6.87 5.644 7.627 6.106 8.336 6.635 C 9.903 7.667 11.093 9.179 11.726 10.945 C 12.148 12.768 11.973 14.679 11.226 16.395 C 10.984 17.035 10.697 17.656 10.366 18.255 Z M 20.016 9.565 L 19.876 9.255 L 19.516 9.255 C 19.346 9.255 15.426 10.015 13.896 12.815 C 12.366 15.615 13.896 19.315 13.956 19.465 L 14.096 19.805 L 14.456 19.735 C 14.757 19.682 15.055 19.608 15.346 19.515 C 17.276 19.06 18.964 17.897 20.076 16.255 C 21.586 13.405 20.086 9.715 20.016 9.565 Z M 17.206 14.145 C 16.991 14.019 16.714 14.096 16.596 14.315 L 14.476 18.185 C 13.956 16.579 14.034 14.838 14.696 13.285 C 15.766 11.285 18.346 10.505 19.306 10.285 C 19.626 11.225 20.306 13.835 19.306 15.795 C 18.367 17.203 16.944 18.218 15.306 18.645 L 17.416 14.775 C 17.537 14.556 17.462 14.281 17.246 14.155 Z"/>
</svg>
