<svg viewBox="0 0 24 24" xmlns="http://www.w3.org/2000/svg">
  <path d="M 18.506 4.484 C 20.052 4.484 21.306 5.737 21.306 7.284 L 21.306 16.784 C 21.3 18.328 20.05 19.578 18.506 19.584 L 11.809 19.584 L 8.685 20.42 C 8.444 20.511 8.192 20.565 7.935 20.58 C 6.667 20.575 5.558 19.724 5.225 18.5 L 2.795 9.42 C 2.381 7.917 3.27 6.364 4.775 5.96 L 7.606 5.199 L 7.604 5.197 C 8.133 4.719 8.822 4.459 9.534 4.467 L 10.331 4.467 L 13.855 3.52 C 14.089 3.452 14.331 3.419 14.575 3.42 C 15.45 3.424 16.248 3.831 16.768 4.484 Z M 11.706 18.584 L 11.759 18.584 L 17.475 17.04 C 18.44 16.791 19.015 15.802 18.755 14.84 L 16.315 5.76 C 16.29 5.664 16.258 5.572 16.219 5.484 L 16.206 5.484 L 16.206 5.456 C 15.916 4.831 15.284 4.417 14.575 4.42 C 14.418 4.422 14.263 4.449 14.115 4.5 L 5.035 6.93 C 4.078 7.189 3.51 8.172 3.765 9.13 L 6.195 18.21 C 6.401 19.002 7.117 19.553 7.935 19.55 C 8.093 19.549 8.251 19.529 8.405 19.49 L 11.706 18.598 Z M 18.506 18.584 C 19.498 18.578 20.3 17.775 20.306 16.784 L 20.306 7.284 C 20.306 6.289 19.5 5.484 18.506 5.484 L 17.278 5.484 C 17.28 5.493 17.283 5.501 17.285 5.51 L 19.765 14.56 C 20.153 16.058 19.26 17.589 17.765 17.99 L 15.545 18.584 Z M 16.925 12.63 C 17.013 12.68 17.078 12.762 17.105 12.86 L 17.545 14.5 C 17.635 14.839 17.585 15.199 17.405 15.5 C 17.225 15.818 16.927 16.052 16.575 16.15 L 15.575 16.4 L 15.475 16.4 C 15.412 16.399 15.35 16.382 15.295 16.35 C 15.207 16.3 15.142 16.218 15.115 16.12 L 14.454 13.657 C 14.509 14.094 14.513 14.537 14.465 14.98 L 14.465 16.17 C 14.424 16.491 14.19 16.754 13.875 16.83 L 12.785 17.13 L 12.695 17.13 C 12.639 17.145 12.581 17.145 12.525 17.13 L 12.455 17.13 L 11.455 17.39 L 10.965 17.39 C 10.841 17.392 10.725 17.332 10.655 17.23 L 9.955 16.23 C 9.245 15.232 8.87 14.035 8.885 12.81 L 8.885 11.42 C 8.892 10.748 8.674 10.093 8.265 9.56 C 8.215 9.494 8.187 9.413 8.185 9.33 L 8.185 9.13 C 8.185 8.954 8.304 8.802 8.475 8.76 L 12.475 7.76 L 12.555 7.76 L 12.545 7.75 C 12.631 7.751 12.715 7.779 12.785 7.83 C 12.876 7.902 12.928 8.014 12.925 8.13 L 12.925 8.33 C 12.93 8.36 12.93 8.39 12.925 8.42 C 12.746 9.087 12.81 9.796 13.105 10.42 L 13.685 11.42 C 14.043 12.019 14.287 12.675 14.409 13.354 C 14.433 13.212 14.537 13.09 14.685 13.05 L 15.994 12.685 L 15.695 11.64 L 14.945 11.9 L 14.855 11.9 C 14.682 11.902 14.53 11.787 14.485 11.62 C 14.434 11.419 14.554 11.214 14.755 11.16 L 15.304 11.023 L 15.085 10.34 L 14.825 10.6 C 14.758 10.673 14.664 10.713 14.565 10.71 C 14.463 10.714 14.365 10.674 14.295 10.6 C 14.146 10.455 14.146 10.215 14.295 10.07 L 14.995 9.37 C 15.067 9.3 15.164 9.26 15.265 9.26 L 15.355 9.27 C 15.478 9.304 15.576 9.398 15.615 9.52 L 16.099 11.078 C 16.212 11.146 16.308 11.242 16.375 11.36 L 16.721 12.524 C 16.798 12.537 16.87 12.574 16.925 12.63 Z M 16.285 15.36 C 16.445 15.318 16.582 15.214 16.665 15.07 C 16.754 14.93 16.776 14.758 16.725 14.6 L 16.385 13.32 L 15.175 13.64 L 15.685 15.52 Z M 11.827 6.583 C 11.987 6.805 11.879 7.106 11.637 7.19 L 11.685 7.48 C 11.723 7.722 11.53 7.939 11.285 7.93 L 11.225 7.93 C 11.043 7.928 10.888 7.798 10.855 7.62 L 10.855 7.42 L 9.345 7.81 L 9.415 8.03 C 9.481 8.223 9.378 8.434 9.185 8.5 C 9.146 8.51 9.104 8.51 9.065 8.5 C 8.904 8.501 8.76 8.401 8.705 8.25 L 8.617 7.985 L 8.145 8.11 L 8.055 8.11 C 7.882 8.112 7.73 7.997 7.685 7.83 C 7.659 7.642 7.78 7.464 7.965 7.42 L 8.645 7.22 C 8.68 7.194 8.72 7.173 8.765 7.16 L 9.508 6.966 L 11.365 6.42 L 11.465 6.42 C 11.606 6.406 11.744 6.468 11.827 6.583 Z M 12.121 8.659 L 9.095 9.42 C 9.473 10.018 9.671 10.712 9.665 11.42 L 9.665 12.86 C 9.645 13.934 9.971 14.986 10.595 15.86 L 11.185 16.7 L 11.345 16.7 L 12.345 16.42 L 12.445 16.42 C 12.498 16.411 12.552 16.411 12.605 16.42 L 12.685 16.42 L 13.685 16.18 L 13.685 14.94 C 13.812 13.86 13.584 12.768 13.035 11.83 L 12.435 10.72 C 12.135 10.077 12.027 9.361 12.121 8.659 Z M 7.315 10.13 C 7.492 10.126 7.647 10.247 7.685 10.42 C 7.751 10.613 7.648 10.824 7.455 10.89 L 6.275 11.18 L 6.405 11.48 L 7.565 11.16 L 7.685 11.16 C 7.821 11.144 7.955 11.201 8.037 11.311 C 8.213 11.547 8.068 11.885 7.775 11.92 L 6.625 12.27 L 6.985 12.86 L 7.205 13.42 L 8.035 16.47 L 8.975 16.25 L 9.085 16.25 C 9.217 16.236 9.347 16.293 9.425 16.4 C 9.595 16.632 9.45 16.959 9.165 16.99 L 8.57 17.127 L 8.685 17.53 L 9.475 17.25 L 9.555 17.25 C 9.732 17.246 9.887 17.367 9.925 17.54 C 9.975 17.739 9.854 17.941 9.655 17.99 L 8.855 18.19 L 8.715 18.19 C 8.435 18.192 8.175 18.043 8.035 17.8 L 7.883 17.286 L 7.865 17.29 L 7.785 17.29 C 7.612 17.292 7.46 17.177 7.415 17.01 L 6.515 13.61 L 6.335 13.16 L 5.755 12.21 C 5.705 12.106 5.705 11.984 5.755 11.88 L 5.755 11.82 L 5.435 11.08 C 5.39 10.982 5.39 10.868 5.435 10.77 C 5.486 10.671 5.577 10.598 5.685 10.57 L 7.265 10.16 L 7.355 10.16 Z"/>
</svg>
