<svg xmlns="http://www.w3.org/2000/svg" width="24" height="24" viewBox="0 0 24 24"><path d="M16.77,12.81a2.11,2.11,0,0,0-.3-1.09L14.08,7.66V6.83a.5.5,0,0,0,.42-.49V3.57a.5.5,0,0,0-.5-.5h-.06V1.56a.5.5,0,0,0-.5-.5H9a.5.5,0,0,0-.5.5.5.5,0,0,0,.5.5h1v1a.5.5,0,0,0-.45.49V6.34a.5.5,0,0,0,.42.49v.89l-2.39,4a2.08,2.08,0,0,0-.3,1.09c0,1.32,0,5.28,0,7.85a2.25,2.25,0,0,0,2.25,2.27h5a2.25,2.25,0,0,0,2.25-2.27c0-2.57,0-6.53,0-7.85ZM10.5,4.07h3V5.84h-3Zm.45-2h2v1H11Zm4.79,18.63a1.25,1.25,0,0,1-1.25,1.25h-5a1.25,1.25,0,0,1-1.25-1.26c0-2.58,0-6.55,0-7.86a1.18,1.18,0,0,1,.16-.58l2.4-4a1.11,1.11,0,0,0,.13-.54V6.84h2.16v.81a1.22,1.22,0,0,0,.15.58l2.38,4a1.21,1.21,0,0,1,.16.58C15.76,14.14,15.73,18.1,15.74,20.69Z"/></svg>