<svg xmlns="http://www.w3.org/2000/svg" width="24" height="24" viewBox="0 0 24 24"><path d="M18.42,2.47H5.56A1.53,1.53,0,0,0,4,4V20a1.54,1.54,0,0,0,1.57,1.5H18.42A1.55,1.55,0,0,0,20,20V4A1.54,1.54,0,0,0,18.42,2.47ZM19,20a.55.55,0,0,1-.57.5H5.56A.54.54,0,0,1,5,20V4a.53.53,0,0,1,.57-.5H18.42A.54.54,0,0,1,19,4Z"/><path d="M6.71,13.59c-.12.39-.26.84.11,1.1a.59.59,0,0,0,.34.12,1.44,1.44,0,0,0,.77-.35c.49-.34.61-.41.7-.47L9,13.75s.2-.15.19-.17a2.36,2.36,0,0,1,.27.17c.25.18.32.22.43.29s.23.14.65.43c.27.19.73.5,1.12.22s.25-.74.09-1.28l-.06-.2c-.17-.63-.61-2.24-.77-2.85a2.5,2.5,0,1,0-3.36,0c-.18.66-.63,2.34-.73,2.85ZM9.2,7a1.5,1.5,0,1,1-1.5,1.5A1.5,1.5,0,0,1,9.2,7Zm0,4a2.36,2.36,0,0,0,.8-.14c.19.69.51,1.88.68,2.48l-.29-.18L10,12.94a1.12,1.12,0,0,0-1.63,0l-.29.2-.29.19c.12-.52.44-1.72.62-2.43A2.49,2.49,0,0,0,9.2,11Z"/><path d="M17,6.2H13.29a.5.5,0,0,0-.5.5.5.5,0,0,0,.5.5H17a.5.5,0,0,0,.5-.5A.5.5,0,0,0,17,6.2Z"/><path d="M17,8.7H13.29a.5.5,0,0,0-.5.5.5.5,0,0,0,.5.5H17a.5.5,0,0,0,.5-.5A.5.5,0,0,0,17,8.7Z"/><path d="M17,11.2H13.29a.5.5,0,0,0-.5.5.5.5,0,0,0,.5.5H17a.5.5,0,0,0,.5-.5A.5.5,0,0,0,17,11.2Z"/><path d="M17,13.7H13.29a.5.5,0,0,0-.5.5.5.5,0,0,0,.5.5H17a.5.5,0,0,0,.5-.5A.5.5,0,0,0,17,13.7Z"/><path d="M16.92,16.59H6.76a.5.5,0,0,0,0,1H16.92a.5.5,0,0,0,0-1Z"/></svg>