<svg xmlns="http://www.w3.org/2000/svg" width="24" height="24" viewBox="0 0 24 24"><path d="M17.11,3.27a1.7,1.7,0,0,0-.19-.19,3.93,3.93,0,0,0-5.05-.29,3.91,3.91,0,0,0-5,.29,3.6,3.6,0,0,0-.14,5.09l.13.14,4.71,4.5a.51.51,0,0,0,.34.14.52.52,0,0,0,.35-.14l4.7-4.5A3.57,3.57,0,0,0,17.11,3.27Zm-5.24,8.48L7.51,7.58l-.1-.1a2.6,2.6,0,0,1,.1-3.67,2.93,2.93,0,0,1,4,0,.51.51,0,0,0,.69,0,2.91,2.91,0,0,1,4,0h0l.14.14a2.58,2.58,0,0,1-.15,3.64Z"/><path d="M20.75,8.47H20.6a1.25,1.25,0,0,0-.89.26,1.27,1.27,0,0,0-.49.83,1.23,1.23,0,0,0,0,.19V14a1.57,1.57,0,0,0-1.58,0l-.29.2c-.08.05-.22.16-1.23.82a6.07,6.07,0,0,0-2.18,3.61l-.59,2.66a.5.5,0,0,0,.38.6h.11a.5.5,0,0,0,.49-.39l.59-2.68a5,5,0,0,1,1.79-3c1-.65,1.15-.76,1.23-.82l.24-.16a.6.6,0,0,1,.55,0c.17.14.12.44.06.64a1.49,1.49,0,0,1-.23.27c-.89,1-1.53,1.59-1.53,1.59a.5.5,0,0,0,.69.72s.65-.63,1.56-1.61a3.13,3.13,0,0,0,.94-2.33V9.72a.28.28,0,0,1,.32-.24h.19a.28.28,0,0,1,.26.29v5.77a2.35,2.35,0,0,1-.73,1.93c-.58.84-2.67,3.74-2.67,3.74l.81.58s2.1-2.91,2.62-3.68a3.24,3.24,0,0,0,1-2.62V9.77A1.27,1.27,0,0,0,20.75,8.47Z"/><path d="M10.08,18.64A6,6,0,0,0,7.86,15c-1-.64-1.11-.75-1.19-.8L6.38,14A1.57,1.57,0,0,0,4.8,14V9.76c0-.06,0-.12,0-.17a1.32,1.32,0,0,0-.5-.85,1.26,1.26,0,0,0-.89-.26H3.25A1.27,1.27,0,0,0,2,9.76v5.67A3.18,3.18,0,0,0,2.93,18c.58.85,2.68,3.76,2.68,3.76l.81-.58s-2.09-2.9-2.73-3.82A2.28,2.28,0,0,1,3,15.48V9.75a.27.27,0,0,1,.31-.27h.14a.31.31,0,0,1,.21,0,.36.36,0,0,1,.12.23v4.38a3.16,3.16,0,0,0,.92,2.34c.93,1,1.58,1.62,1.58,1.62A.5.5,0,0,0,7,17.38s-.64-.62-1.55-1.6a1.71,1.71,0,0,1-.21-.26c-.06-.2-.11-.5.06-.63a.55.55,0,0,1,.55,0l.24.16,1.2.8a5,5,0,0,1,1.82,3l.59,2.67a.5.5,0,0,0,.49.39h.11a.5.5,0,0,0,.38-.59Z"/></svg>