<svg xmlns="http://www.w3.org/2000/svg" width="24" height="24" viewBox="0 0 24 24"><path d="M16.73,21.5H7.27a.5.5,0,0,1-.5-.5V18.21a.5.5,0,0,1,.5-.5H9.61V7.28H6.29V8.52a.5.5,0,0,1-.5.5H3a.5.5,0,0,1-.5-.5V3A.5.5,0,0,1,3,2.5H21a.5.5,0,0,1,.5.5V8.52A.5.5,0,0,1,21,9H18.21a.5.5,0,0,1-.5-.5V7.28H14.39V17.71h2.34a.5.5,0,0,1,.5.5V21A.5.5,0,0,1,16.73,21.5Zm-9-1h8.46V18.71H13.89a.5.5,0,0,1-.5-.5V6.78a.51.51,0,0,1,.5-.5h4.32a.5.5,0,0,1,.5.5V8H20.5V3.5H3.5V8H5.29V6.78a.5.5,0,0,1,.5-.5h4.32a.51.51,0,0,1,.5.5V18.21a.5.5,0,0,1-.5.5H7.77Z"/></svg>