<svg viewBox="0 0 24 24" xmlns="http://www.w3.org/2000/svg">
  <path d="M 15 14.61 L 3.07 14.61 L 3.07 17.38 C 3.081 17.571 3.239 17.72 3.43 17.72 L 4.435 17.72 C 4.483 17.519 4.561 17.319 4.673 17.125 C 5.516 15.665 7.624 15.665 8.467 17.125 C 8.575 17.312 8.654 17.512 8.702 17.72 L 15.805 17.72 C 15.853 17.519 15.931 17.319 16.043 17.125 C 16.886 15.665 18.994 15.665 19.837 17.125 C 19.945 17.312 20.024 17.512 20.072 17.72 L 20.58 17.72 C 20.773 17.71 20.925 17.553 20.93 17.36 L 20.93 11.92 C 20.918 11.667 20.823 11.424 20.66 11.23 L 17.87 8.44 C 17.688 8.254 17.44 8.146 17.18 8.14 L 15.51 8.14 L 15.51 14.14 C 15.494 14.408 15.269 14.616 15 14.61 Z M 3.42 18.72 C 2.686 18.71 2.091 18.123 2.07 17.39 L 2.07 6 C 2.07 4.681 3.131 3.606 4.45 3.59 L 13.12 3.59 C 14.445 3.596 15.516 4.675 15.51 6 L 15.51 7.14 L 17.2 7.14 C 17.721 7.153 18.216 7.368 18.58 7.74 L 21.39 10.55 C 21.718 10.925 21.909 11.402 21.93 11.9 L 21.93 17.38 C 21.914 18.113 21.323 18.704 20.59 18.72 L 20.073 18.72 C 19.847 19.689 18.978 20.41 17.94 20.41 C 16.853 20.41 16.028 19.651 15.806 18.72 L 8.703 18.72 C 8.477 19.689 7.608 20.41 6.57 20.41 C 5.483 20.41 4.658 19.651 4.436 18.72 Z M 14.51 13.61 L 14.51 7.74 C 14.503 7.708 14.5 7.674 14.5 7.64 C 14.5 7.606 14.503 7.572 14.51 7.54 L 14.51 6 C 14.504 5.232 13.878 4.614 13.11 4.62 L 4.45 4.62 C 3.695 4.636 3.086 5.245 3.07 6 L 3.06 13.451 C 3.067 13.483 3.07 13.516 3.07 13.55 L 3.07 13.61 Z M 6.57 17.03 C 5.892 17.03 5.401 17.574 5.379 18.178 C 5.381 18.207 5.381 18.235 5.379 18.264 C 5.385 18.449 5.436 18.637 5.539 18.815 C 5.997 19.608 7.143 19.608 7.601 18.815 C 7.691 18.659 7.744 18.484 7.757 18.305 C 7.747 18.246 7.747 18.185 7.759 18.125 C 7.725 17.499 7.207 17 6.57 17 Z M 17.94 17.03 C 17.262 17.03 16.771 17.574 16.749 18.178 C 16.751 18.207 16.751 18.235 16.749 18.264 C 16.755 18.449 16.806 18.637 16.909 18.815 C 17.367 19.608 18.513 19.608 18.971 18.815 C 19.072 18.64 19.127 18.441 19.13 18.239 C 19.129 18.222 19.129 18.205 19.13 18.188 C 19.13 17.534 18.598 17 17.94 17 Z"/>
</svg>
