<svg viewBox="0 0 24 24" xmlns="http://www.w3.org/2000/svg">
  <path d="M 14.264 21.22 C 13.621 21.223 13.005 20.959 12.564 20.49 L 3.564 11.49 C 2.637 10.616 2.583 9.159 3.444 8.22 L 8.664 3.05 C 8.84 2.708 9.321 2.685 9.529 3.008 C 9.692 3.261 9.596 3.6 9.324 3.73 L 5.59 7.486 L 7.125 9.019 L 10.824 5.32 C 11.02 5.123 11.338 5.123 11.534 5.32 C 11.725 5.514 11.725 5.826 11.534 6.02 L 7.858 9.752 L 9.512 11.405 L 13.214 7.73 C 13.408 7.539 13.72 7.539 13.914 7.73 C 14.111 7.926 14.111 8.244 13.914 8.44 L 10.222 12.114 L 11.842 13.732 L 15.544 10.03 C 15.738 9.839 16.05 9.839 16.244 10.03 C 16.441 10.226 16.441 10.544 16.244 10.74 L 12.57 14.46 L 14.132 16.021 L 17.824 12.32 C 18.02 12.123 18.338 12.123 18.534 12.32 C 18.726 12.518 18.726 12.832 18.534 13.03 L 14.833 16.722 L 16.553 18.44 L 20.314 14.73 C 20.51 14.533 20.828 14.533 21.024 14.73 C 21.216 14.928 21.216 15.242 21.024 15.44 L 15.864 20.6 C 15.428 21.002 14.857 21.223 14.264 21.22 Z M 4.174 8.91 C 3.718 9.445 3.758 10.242 4.264 10.73 L 13.264 19.73 C 13.762 20.276 14.607 20.316 15.154 19.82 L 15.839 19.145 L 13.799 17.105 C 13.79 17.097 13.782 17.089 13.774 17.08 C 13.767 17.073 13.76 17.066 13.753 17.059 L 11.508 14.814 C 11.495 14.802 11.482 14.789 11.47 14.776 L 9.209 12.515 C 9.189 12.501 9.171 12.486 9.154 12.47 C 9.133 12.449 9.115 12.427 9.098 12.404 L 6.785 10.091 C 6.781 10.088 6.778 10.084 6.774 10.08 C 6.773 10.079 6.773 10.079 6.772 10.078 L 4.887 8.193 Z"/>
</svg>
