<svg viewBox="0 0 24 24" xmlns="http://www.w3.org/2000/svg">
  <path d="M 3.64 19.02 C 3.539 19.021 3.441 18.989 3.36 18.93 C 3.21 18.832 3.125 18.659 3.14 18.48 L 3.35 16.15 C 2.177 14.985 1.512 13.403 1.5 11.75 C 1.5 8.01 5 4.98 9.25 4.98 C 13.5 4.98 16.94 8.04 16.94 11.79 C 16.94 15.54 13.47 18.55 9.19 18.55 C 8.076 18.53 6.975 18.31 5.94 17.9 L 3.87 18.96 C 3.799 18.999 3.72 19.019 3.64 19.02 Z M 9.25 6.02 C 5.53 5.98 2.5 8.56 2.5 11.74 C 2.514 13.202 3.133 14.592 4.21 15.58 C 4.321 15.686 4.38 15.836 4.37 15.99 L 4.22 17.66 L 5.69 16.91 C 5.826 16.845 5.984 16.845 6.12 16.91 C 7.094 17.328 8.14 17.553 9.2 17.57 C 12.92 17.57 15.94 14.99 15.94 11.81 C 15.94 8.63 12.94 5.98 9.25 5.98 Z M 20.83 17.91 C 20.751 17.909 20.673 17.892 20.6 17.86 L 19.23 17.14 C 18.509 17.419 17.743 17.561 16.97 17.56 C 16.474 17.562 15.979 17.498 15.5 17.37 C 15.232 17.301 15.07 17.028 15.14 16.76 C 15.213 16.495 15.483 16.336 15.75 16.4 C 16.148 16.508 16.558 16.562 16.97 16.56 C 17.689 16.562 18.4 16.416 19.06 16.13 C 19.194 16.07 19.346 16.07 19.48 16.13 L 20.24 16.53 L 20.16 15.63 C 20.139 15.472 20.199 15.314 20.32 15.21 C 21.052 14.554 21.48 13.623 21.5 12.64 C 21.359 10.559 19.674 8.917 17.59 8.83 C 17.397 8.786 17.198 8.773 17 8.79 C 16.727 8.796 16.496 8.591 16.47 8.32 C 16.453 8.044 16.664 7.806 16.94 7.79 C 17.205 7.773 17.472 7.797 17.73 7.86 C 20.304 8.009 22.357 10.066 22.5 12.64 C 22.487 13.822 22.013 14.952 21.18 15.79 L 21.33 17.36 C 21.348 17.545 21.264 17.725 21.11 17.83 C 21.026 17.882 20.929 17.909 20.83 17.91 Z"/>
</svg>
