<svg viewBox="0 0 24 24" xmlns="http://www.w3.org/2000/svg">
  <path d="M 11.822 7.624 C 13.128 5.347 16.409 5.337 17.728 7.606 C 18.031 8.127 18.19 8.718 18.19 9.32 C 18.19 10.47 17.621 11.487 16.748 12.105 C 19.008 12.92 20.642 15.054 20.71 17.59 C 20.71 17.862 20.492 18.085 20.22 18.09 L 20.18 18.09 C 19.908 18.09 19.685 17.872 19.68 17.6 C 19.637 14.924 17.466 12.771 14.79 12.75 L 14.72 12.75 C 12.053 12.777 9.897 14.933 9.87 17.6 C 9.865 17.872 9.642 18.09 9.37 18.09 C 9.098 18.085 8.88 17.862 8.88 17.59 C 8.901 15.054 10.524 12.901 12.787 12.092 C 11.453 11.126 10.898 9.235 11.822 7.624 Z M 14.79 6.92 C 12.935 6.912 11.767 8.916 12.688 10.526 C 13.609 12.137 15.928 12.146 16.862 10.544 C 17.079 10.172 17.192 9.75 17.19 9.32 C 17.185 7.997 16.113 6.925 14.79 6.92 Z M 6.79 13.56 C 6.514 13.56 6.29 13.336 6.29 13.06 L 6.29 10.61 L 3.79 10.61 C 3.514 10.61 3.29 10.386 3.29 10.11 C 3.29 9.834 3.514 9.61 3.79 9.61 L 6.29 9.61 L 6.29 7.11 C 6.29 6.834 6.514 6.61 6.79 6.61 C 7.066 6.61 7.29 6.834 7.29 7.11 L 7.29 9.61 L 9.79 9.61 C 10.064 9.615 10.285 9.836 10.29 10.11 C 10.29 10.386 10.066 10.61 9.79 10.61 L 7.29 10.61 L 7.29 13.11 C 7.264 13.366 7.048 13.561 6.79 13.56 Z"/>
</svg>
