<svg viewBox="0 0 24 24" xmlns="http://www.w3.org/2000/svg">
  <path d="M 4.164 17.63 C 4.164 18.03 4.364 18.42 4.824 18.42 C 4.969 18.42 5.109 18.362 5.214 18.26 L 5.614 18.06 C 6.342 17.68 7.152 17.481 7.974 17.48 C 9.042 17.531 10.089 17.797 11.054 18.26 L 11.514 18.46 C 11.68 18.537 11.86 18.581 12.044 18.59 C 12.206 18.587 12.364 18.542 12.504 18.46 L 12.964 18.26 C 13.933 17.806 14.984 17.551 16.054 17.51 C 16.881 17.499 17.698 17.702 18.424 18.1 L 18.814 18.3 C 18.925 18.393 19.069 18.439 19.214 18.43 C 19.609 18.388 19.899 18.037 19.864 17.64 L 19.864 7.18 C 19.86 6.936 19.768 6.701 19.604 6.52 C 19.395 6.371 19.175 6.241 18.944 6.13 C 18.052 5.663 17.061 5.416 16.054 5.41 C 14.659 5.416 13.287 5.759 12.054 6.41 C 10.778 5.796 9.388 5.455 7.974 5.41 C 6.956 5.409 5.954 5.656 5.054 6.13 C 4.841 6.272 4.62 6.402 4.394 6.52 C 4.234 6.704 4.143 6.937 4.134 7.18 Z M 12.514 7.31 C 13.62 6.768 14.824 6.455 16.054 6.39 C 16.88 6.388 17.695 6.59 18.424 6.98 C 18.561 7.058 18.692 7.149 18.814 7.25 L 18.814 17.05 C 17.963 16.603 17.014 16.376 16.054 16.39 C 14.855 16.441 13.676 16.708 12.574 17.18 L 12.574 7.31 Z M 5.614 7.05 C 6.343 6.66 7.157 6.458 7.984 6.46 C 9.22 6.505 10.431 6.819 11.534 7.38 L 11.534 17.26 C 10.432 16.783 9.253 16.509 8.054 16.45 C 7.092 16.427 6.141 16.654 5.294 17.11 L 5.294 7.31 C 5.294 7.25 5.424 7.11 5.624 7.05 Z"/>
</svg>
