<svg xmlns="http://www.w3.org/2000/svg" width="24" height="24" viewBox="0 0 24 24"><path d="M18.77,2.5H5.23A1.32,1.32,0,0,0,4,3.89V20.11A1.32,1.32,0,0,0,5.23,21.5H12.9a.5.5,0,0,0,0-1H5.23c-.11,0-.23-.17-.23-.39V3.89c0-.22.12-.39.23-.39H18.77c.11,0,.23.17.23.38v9.43a.5.5,0,1,0,1,0V3.88A1.31,1.31,0,0,0,18.77,2.5Z"/><circle cx="7.59" cy="7.97" r="0.75"/><path d="M9.77,8.51h6.56a.5.5,0,0,0,0-1H9.77a.5.5,0,0,0,0,1Z"/><circle cx="7.59" cy="12" r="0.75"/><path d="M16.83,12a.5.5,0,0,0-.5-.5H9.77a.5.5,0,0,0-.5.5.5.5,0,0,0,.5.5h6.56A.5.5,0,0,0,16.83,12Z"/><circle cx="7.59" cy="15.97" r="0.75"/><path d="M9.77,15.51a.5.5,0,0,0-.5.5.5.5,0,0,0,.5.5h2.4a.5.5,0,0,0,.5-.5.5.5,0,0,0-.5-.5Z"/><path d="M18.6,19.26a2.72,2.72,0,1,0-2.24,1.18A2.7,2.7,0,0,0,17.89,20L19,21.11a.5.5,0,1,0,.73-.69Zm-4-1.54a1.72,1.72,0,1,1,1.72,1.72A1.72,1.72,0,0,1,14.64,17.72Z"/></svg>