<svg viewBox="0 0 24 24" xmlns="http://www.w3.org/2000/svg">
  <path d="M 5.54 1.7 C 5.46 1.554 5.46 1.376 5.54 1.23 C 5.636 1.071 5.815 0.981 6 1 L 9.58 1 C 9.776 1.003 9.952 1.121 10.03 1.3 L 13.769 9.779 L 17.23 2 L 14.64 2 L 13.64 4.44 C 13.49 4.798 13.009 4.859 12.774 4.55 C 12.665 4.407 12.64 4.216 12.71 4.05 L 13.87 1.31 C 13.942 1.128 14.115 1.006 14.31 1 L 18 1 C 18.17 1 18.328 1.087 18.42 1.23 C 18.5 1.376 18.5 1.554 18.42 1.7 L 14.627 10.3 L 15.58 10.3 C 15.856 10.3 16.08 10.524 16.08 10.8 L 16.08 14.5 C 16.08 14.514 16.079 14.528 16.077 14.542 C 17.282 16.136 17.584 18.39 16.444 20.365 C 15.503 21.996 13.763 23 11.88 23 C 7.823 23 5.288 18.608 7.316 15.095 C 7.43 14.898 7.555 14.709 7.692 14.531 C 7.691 14.521 7.69 14.51 7.69 14.5 L 7.69 10.8 C 7.69 10.524 7.914 10.3 8.19 10.3 L 9.257 10.3 Z M 15.08 11.3 L 8.69 11.3 L 8.69 13.535 C 9.593 12.848 10.709 12.46 11.88 12.46 C 13.117 12.46 14.212 12.868 15.08 13.535 Z M 10.25 10.07 L 12.85 10.07 L 9.25 2 L 6.76 2 Z M 11.88 13.46 C 8.593 13.46 6.539 17.018 8.182 19.865 C 8.945 21.186 10.354 22 11.88 22 C 15.167 22 17.221 18.442 15.578 15.595 C 14.815 14.274 13.406 13.46 11.88 13.46 Z"/>
</svg>
