<svg viewBox="0 0 24 24" xmlns="http://www.w3.org/2000/svg">
  <path d="M 20.46 14.45 C 20.38 14.53 20.38 14.53 20.38 14.61 L 20.53 16.17 C 20.541 16.767 20.206 17.316 19.67 17.58 L 18.27 18.2 C 18.23 18.205 18.2 18.239 18.2 18.28 L 17.58 19.69 C 17.379 20.279 16.786 20.641 16.17 20.55 L 14.61 20.39 C 14.53 20.39 14.53 20.47 14.45 20.47 L 13.2 21.41 C 12.938 21.56 12.642 21.64 12.34 21.64 C 12.037 21.649 11.738 21.569 11.48 21.41 L 10.23 20.47 C 10.15 20.39 10.15 20.39 10.08 20.39 L 8.52 20.54 C 7.918 20.569 7.359 20.229 7.11 19.68 L 6.48 18.28 C 6.48 18.241 6.449 18.21 6.41 18.21 L 5 17.59 C 4.415 17.385 4.058 16.793 4.15 16.18 L 4.31 14.62 C 4.31 14.54 4.23 14.54 4.23 14.46 L 3.29 13.21 C 2.902 12.732 2.902 12.048 3.29 11.57 L 4.23 10.32 C 4.31 10.24 4.31 10.24 4.31 10.16 L 4.15 8.6 C 4.079 7.993 4.389 7.405 4.93 7.12 L 6.42 6.5 C 6.49 6.49 6.49 6.42 6.49 6.42 L 7.12 4.93 C 7.405 4.389 7.993 4.079 8.6 4.15 L 10.16 4.33 C 10.24 4.33 10.24 4.25 10.32 4.25 L 11.57 3.31 C 12.048 2.922 12.732 2.922 13.21 3.31 L 14.54 4.31 C 14.62 4.39 14.62 4.39 14.7 4.39 L 16.26 4.23 C 16.852 4.228 17.394 4.561 17.66 5.09 L 18.29 6.5 C 18.29 6.544 18.326 6.58 18.37 6.58 L 19.77 7.2 C 20.358 7.397 20.72 7.987 20.63 8.6 L 20.48 10.17 C 20.48 10.24 20.55 10.24 20.55 10.32 L 21.49 11.57 C 21.878 12.048 21.878 12.732 21.49 13.21 Z M 19.53 13.64 L 20.47 12.39 C 20.526 12.335 20.526 12.245 20.47 12.19 L 19.53 10.94 C 19.37 10.653 19.29 10.328 19.3 10 L 19.48 8.44 C 19.48 8.37 19.4 8.29 19.32 8.21 L 17.92 7.59 C 17.616 7.441 17.369 7.194 17.22 6.89 L 16.59 5.48 C 16.52 5.4 16.44 5.32 16.36 5.32 L 14.8 5.48 C 14.412 5.479 14.031 5.372 13.7 5.17 L 12.45 4.23 C 12.395 4.174 12.305 4.174 12.25 4.23 L 11 5.17 C 10.696 5.341 10.348 5.421 10 5.4 L 8.45 5.24 C 8.37 5.24 8.21 5.32 8.21 5.4 L 7.58 6.89 C 7.433 7.196 7.186 7.443 6.88 7.59 L 5.48 8.21 C 5.4 8.29 5.32 8.37 5.32 8.45 L 5.48 10 C 5.498 10.4 5.39 10.795 5.17 11.13 L 4.23 12.38 C 4.178 12.44 4.178 12.53 4.23 12.59 L 5.17 13.84 C 5.33 14.123 5.41 14.445 5.4 14.77 L 5.24 16.34 C 5.24 16.41 5.32 16.49 5.4 16.57 L 6.94 17.2 C 7.242 17.352 7.488 17.598 7.64 17.9 L 8.42 19.3 C 8.49 19.38 8.57 19.46 8.65 19.46 L 10.22 19.3 L 10.37 19.3 C 10.672 19.295 10.97 19.375 11.23 19.53 L 12.48 20.47 C 12.532 20.533 12.628 20.533 12.68 20.47 L 13.93 19.53 C 14.219 19.374 14.542 19.295 14.87 19.3 L 16.43 19.46 C 16.51 19.46 16.67 19.38 16.67 19.3 L 17.3 17.9 C 17.44 17.589 17.689 17.34 18 17.2 L 19.38 16.57 C 19.46 16.49 19.54 16.41 19.54 16.34 L 19.38 14.77 C 19.311 14.387 19.363 13.992 19.53 13.64 Z M 16.18 8.73 C 16.38 8.932 16.38 9.258 16.18 9.46 L 9.46 16.18 C 9.354 16.279 9.215 16.336 9.07 16.34 C 8.909 16.348 8.749 16.321 8.6 16.26 C 8.369 16.02 8.369 15.64 8.6 15.4 L 15.29 8.68 C 15.53 8.449 15.91 8.449 16.15 8.68 L 16 8.84 L 16.18 8.68 Z M 9.78 12 L 9.67 12 C 8.477 11.973 7.539 10.972 7.59 9.78 L 7.59 9.71 C 7.584 8.537 8.537 7.584 9.71 7.59 C 10.916 7.596 11.89 8.574 11.89 9.78 C 11.897 10.966 10.965 11.946 9.78 12 Z M 10.72 9.78 C 10.72 9.228 10.272 8.78 9.72 8.78 C 9.544 8.78 9.372 8.826 9.22 8.914 C 8.553 9.299 8.553 10.261 9.22 10.646 C 9.887 11.031 10.72 10.55 10.72 9.78 Z M 15.11 12.9 C 16.32 12.894 17.301 13.88 17.29 15.09 L 17.29 15.19 C 17.263 16.367 16.286 17.298 15.11 17.27 L 15 17.27 C 13.812 17.254 12.866 16.268 12.9 15.08 C 12.9 13.872 13.882 12.894 15.09 12.9 Z M 16.1 15.09 C 16.1 14.534 15.646 14.084 15.09 14.09 C 14.914 14.09 14.742 14.136 14.59 14.224 C 13.923 14.609 13.923 15.571 14.59 15.956 C 15.257 16.341 16.09 15.86 16.09 15.09 Z"/>
</svg>
