<svg viewBox="0 0 24 24" xmlns="http://www.w3.org/2000/svg">
  <path d="M 17.6 19.1 L 6.41 19.1 C 5.29 19.157 4.342 18.281 4.31 17.16 L 4.31 10.76 C 4.309 10.583 4.357 10.41 4.45 10.26 C 4.591 10.037 4.813 9.879 5.07 9.82 C 5.323 9.763 5.588 9.806 5.81 9.94 L 6.15 10.13 L 6.27 10.19 L 6.27 6.64 C 6.171 5.752 6.829 4.958 7.72 4.89 L 16.16 4.89 C 17.053 4.995 17.698 5.795 17.61 6.69 L 17.61 10.182 L 18.15 9.89 C 18.308 9.78 18.498 9.727 18.69 9.74 C 19.242 9.74 19.69 10.188 19.69 10.74 L 19.69 17.11 C 19.69 18.215 18.795 19.11 17.69 19.11 Z M 8.66 11.39 L 11.66 13 C 11.889 13.119 12.161 13.119 12.39 13 L 16.62 10.716 L 16.62 6.64 C 16.669 6.284 16.433 5.951 16.08 5.88 L 7.72 5.88 C 7.47 5.88 7.27 6.21 7.27 6.63 L 7.27 10.692 Z M 6.38 18.1 L 17.6 18.1 C 18.152 18.1 18.6 17.652 18.6 17.1 L 18.6 10.76 L 18.25 11 L 12.81 13.92 C 12.285 14.201 11.655 14.201 11.13 13.92 L 8.13 12.31 L 5.31 10.8 L 5.31 17.14 C 5.324 17.405 5.443 17.653 5.64 17.83 C 5.839 18.017 6.107 18.115 6.38 18.1 Z M 14.91 8.45 L 8.98 8.45 C 8.595 8.45 8.355 8.033 8.547 7.7 C 8.636 7.545 8.801 7.45 8.98 7.45 L 14.91 7.45 C 15.295 7.45 15.535 7.867 15.343 8.2 C 15.254 8.355 15.089 8.45 14.91 8.45 Z M 14.91 10.71 L 8.98 10.71 C 8.704 10.71 8.48 10.486 8.48 10.21 C 8.48 9.934 8.704 9.71 8.98 9.71 L 14.91 9.71 C 15.184 9.715 15.405 9.936 15.41 10.21 C 15.41 10.486 15.186 10.71 14.91 10.71 Z"/>
</svg>
