<svg xmlns="http://www.w3.org/2000/svg" width="24" height="24" viewBox="0 0 24 24"><defs><style>.a{fill:none;}</style></defs><path class="a" d="M11.5,5A7,7,0,0,0,5,11.5H11.5Z"/><path class="a" d="M19,11.5A7,7,0,0,0,12.5,5V11.5Z"/><path class="a" d="M5,12.5A7,7,0,0,0,11.5,19V12.5Z"/><path class="a" d="M12.5,12.5V19A7,7,0,0,0,19,12.5Z"/><path d="M23,11.5H20c0,.17,0,.34,0,.51s0,.33,0,.49h3a.5.5,0,0,0,0-1Z"/><path d="M11.5,20v3a.5.5,0,0,0,1,0V20L12,20Z"/><path d="M4,11.5H1a.5.5,0,0,0,0,1H4c0-.16,0-.33,0-.49S4,11.67,4,11.5Z"/><path d="M12.5,4V1a.5.5,0,0,0-1,0V4L12,4Z"/><path d="M20,11.5A8,8,0,0,0,12.5,4L12,4,11.5,4A8,8,0,0,0,4,11.5c0,.17,0,.34,0,.51s0,.33,0,.49A8,8,0,0,0,11.5,20L12,20l.49,0A8,8,0,0,0,20,12.5c0-.16,0-.33,0-.49S20,11.67,20,11.5ZM12.5,19,12,19l-.51,0A7,7,0,0,1,5,12.5c0-.16,0-.33,0-.49s0-.34,0-.51A7,7,0,0,1,11.5,5L12,5l.49,0A7,7,0,0,1,19,11.5,4.36,4.36,0,0,1,19,12c0,.16,0,.33,0,.49A7,7,0,0,1,12.5,19Z"/><circle cx="12.01" cy="12.01" r="3.53"/></svg>