<svg xmlns="http://www.w3.org/2000/svg" viewBox="0 0 24 24"><path d="M8.51,9.75l-.77.78-.2-.28a.5.5,0,1,0-.81.58l.54.76a.5.5,0,0,0,.36.21h0A.51.51,0,0,0,8,11.65l1.19-1.19a.5.5,0,0,0,0-.71A.51.51,0,0,0,8.51,9.75Zm0,3-.77.78-.2-.28a.51.51,0,0,0-.7-.12.5.5,0,0,0-.11.7l.54.76a.47.47,0,0,0,.36.21h0A.51.51,0,0,0,8,14.67l1.19-1.19a.5.5,0,0,0,0-.71A.51.51,0,0,0,8.51,12.77Zm0,3-.77.78-.2-.28a.52.52,0,0,0-.7-.12.5.5,0,0,0-.11.7l.54.76a.47.47,0,0,0,.36.21h0A.51.51,0,0,0,8,17.69L9.22,16.5a.5.5,0,0,0,0-.71A.51.51,0,0,0,8.51,15.79Zm8.49.45H11a.5.5,0,0,0-.5.5.5.5,0,0,0,.5.5h6a.5.5,0,0,0,.5-.5A.5.5,0,0,0,17,16.24ZM19.49,7.5s0,0,0-.06a.4.4,0,0,0-.12-.23L14.26,2.15A.44.44,0,0,0,14,2H6A1.5,1.5,0,0,0,4.5,3.5v17A1.5,1.5,0,0,0,6,22H18a1.5,1.5,0,0,0,1.5-1.5V7.57S19.49,7.52,19.49,7.5ZM14.4,3.7l3.39,3.37H14.9a.5.5,0,0,1-.5-.5Zm4.1,16.8a.5.5,0,0,1-.5.5H6a.5.5,0,0,1-.5-.5V3.5A.5.5,0,0,1,6,3h7.4V6.57a1.5,1.5,0,0,0,1.5,1.5h3.6Zm-8-6.78a.5.5,0,0,0,.5.5h6a.5.5,0,0,0,.5-.5.5.5,0,0,0-.5-.5H11A.5.5,0,0,0,10.5,13.72Zm0-3a.5.5,0,0,0,.5.5h4a.5.5,0,0,0,.5-.5.5.5,0,0,0-.5-.5H11A.5.5,0,0,0,10.5,10.7Z"/></svg>