<svg viewBox="0 0 24 24" xmlns="http://www.w3.org/2000/svg">
  <path d="M 19.385 15.935 C 19.567 15.935 19.715 15.787 19.715 15.605 L 19.715 9.025 C 19.715 8.841 19.569 8.69 19.385 8.685 L 4.615 8.685 C 4.431 8.69 4.285 8.841 4.285 9.025 L 4.285 15.605 C 4.285 15.787 4.433 15.935 4.615 15.935 L 6.985 15.935 L 6.985 13.545 C 6.985 12.81 7.58 12.215 8.315 12.215 L 15.695 12.215 C 16.427 12.22 17.02 12.813 17.025 13.545 L 17.025 15.935 Z M 4.615 16.935 C 3.883 16.93 3.29 16.337 3.285 15.605 L 3.285 9.025 C 3.285 8.289 3.879 7.69 4.615 7.685 L 6.985 7.685 L 6.985 4.805 C 6.979 4.076 7.566 3.481 8.295 3.475 L 15.695 3.475 C 16.43 3.475 17.025 4.07 17.025 4.805 L 17.025 7.685 L 19.385 7.685 C 20.121 7.69 20.715 8.289 20.715 9.025 L 20.715 15.605 C 20.715 16.336 20.126 16.93 19.395 16.935 L 17.025 16.935 L 17.025 19.155 C 17.042 19.903 16.443 20.52 15.695 20.525 L 8.315 20.525 C 7.565 20.525 6.962 19.905 6.985 19.155 L 6.985 16.935 Z M 8.315 13.215 C 8.133 13.215 7.985 13.363 7.985 13.545 L 7.985 19.155 C 7.985 19.337 8.133 19.485 8.315 19.485 L 15.695 19.485 C 15.877 19.485 16.025 19.337 16.025 19.155 L 16.025 13.545 C 16.025 13.363 15.877 13.215 15.695 13.215 Z M 16.025 4.805 C 16.025 4.623 15.877 4.475 15.695 4.475 L 8.305 4.475 C 8.124 4.475 7.979 4.624 7.985 4.805 L 7.985 7.685 L 16.025 7.685 Z M 17.825 11.285 L 17.565 11.285 C 17.18 11.285 16.94 10.868 17.132 10.535 C 17.221 10.38 17.386 10.285 17.565 10.285 L 17.825 10.285 C 18.21 10.285 18.45 10.702 18.258 11.035 C 18.169 11.19 18.004 11.285 17.825 11.285 Z M 16.285 11.285 L 14.905 11.285 C 14.52 11.285 14.28 10.868 14.472 10.535 C 14.561 10.38 14.726 10.285 14.905 10.285 L 16.285 10.285 C 16.67 10.285 16.91 10.702 16.718 11.035 C 16.629 11.19 16.464 11.285 16.285 11.285 Z"/>
</svg>
