<svg xmlns="http://www.w3.org/2000/svg" width="24" height="24" viewBox="0 0 24 24"><path d="M16.7,2.48H7.29A1.08,1.08,0,0,0,6.21,3.56V5.83L7.2,16l.1,1.25a2.26,2.26,0,0,0,1.26,1.83v1c0,.85.47,1.48,1.09,1.48h4.7c.65,0,1.09-.63,1.09-1.52v-.92a2.27,2.27,0,0,0,1.26-1.81L16.8,16l1-10.17V3.56h0A1.08,1.08,0,0,0,16.7,2.48ZM14.44,20a2,2,0,0,1-.09.48H9.71a.69.69,0,0,1-.15-.5v-.43l4.88,0Zm1.26-2.86a1.26,1.26,0,0,1-1.26,1.16H9.56a1.26,1.26,0,0,1-1.28-1.16V17H15.7Zm1-11-.8,9.66H8.12l-.8-9.66ZM7.21,3.56a.09.09,0,0,1,.09-.08h9.4a.09.09,0,0,1,.09.08V4.83H7.21Z"/><path d="M12,15.6c1.62,0,2.85-2,2.85-4.65S13.64,6.3,12,6.3,9.17,8.3,9.17,11,10.4,15.6,12,15.6Zm0-8.3c1,0,1.85,1.64,1.85,3.65S13,14.6,12,14.6,10.17,13,10.17,11,11,7.3,12,7.3Z"/></svg>