<svg xmlns="http://www.w3.org/2000/svg" width="24" height="24" viewBox="0 0 24 24"><title>outlined-content-exchangereports</title><path d="M21,17.07l-1.25-2.86a.47.47,0,0,0-.63-.24L16.34,15.2a.47.47,0,0,0-.24.62.48.48,0,0,0,.63.24l1.9-.85a7.12,7.12,0,0,1-6.7,4.84,7.36,7.36,0,0,1-7-6,.49.49,0,0,0-.56-.38.48.48,0,0,0-.37.56,8.32,8.32,0,0,0,8,6.75,8.08,8.08,0,0,0,7.49-5.11l.68,1.56a.48.48,0,0,0,.44.29.72.72,0,0,0,.19,0A.48.48,0,0,0,21,17.07Z"/><path d="M4.47,9.39l.18,0a.48.48,0,0,0,.2,0L7.66,8.07a.47.47,0,0,0-.4-.86L5.6,8a7.07,7.07,0,0,1,6.31-4,7.22,7.22,0,0,1,6.9,5.44.48.48,0,0,0,.46.35h.12a.48.48,0,0,0,.34-.58A8.18,8.18,0,0,0,11.92,3,8,8,0,0,0,4.67,7.73l-.76-1.9a.47.47,0,0,0-.61-.27A.49.49,0,0,0,3,6.18L4.21,9.12A.49.49,0,0,0,4.47,9.39Z"/><path d="M12,7.38a1,1,0,0,0-1,1,1.1,1.1,0,0,0,1,1,1.12,1.12,0,0,0,1-1A1,1,0,0,0,12,7.38Z"/><path d="M12,10.08a.71.71,0,0,0-.72.7h0v5.14a.72.72,0,0,0,1.43,0V10.79A.85.85,0,0,0,12,10.08Z"/></svg>