<svg viewBox="0 0 24 24" xmlns="http://www.w3.org/2000/svg">
  <path d="M 10.5 13.092 C 10.5 11.937 11.75 11.216 12.75 11.793 C 13.214 12.061 13.5 12.556 13.5 13.092 L 13.5 17.228 L 16.5 17.228 L 16.5 12.428 C 16.451 10.003 14.424 8.088 12 8.178 C 9.585 8.128 7.585 10.043 7.53 12.458 L 7.58 17.228 L 10.5 17.228 Z M 17.93 17.242 C 19.186 17.241 20.217 18.237 20.26 19.492 L 20.26 20.982 C 20.26 21.258 20.036 21.482 19.76 21.482 L 4.24 21.482 C 3.964 21.482 3.74 21.258 3.74 20.982 L 3.74 19.502 C 3.767 18.234 4.812 17.225 6.08 17.242 L 6.57 17.242 L 6.57 12.448 C 6.646 9.507 9.058 7.166 12 7.178 C 14.955 7.122 17.399 9.464 17.47 12.418 L 17.47 17.242 Z M 11.5 17.192 L 12.5 17.192 L 12.5 13.092 C 12.47 12.83 12.253 12.63 11.99 12.622 C 11.724 12.632 11.51 12.846 11.5 13.112 Z M 4.76 20.482 L 19.26 20.482 L 19.26 19.482 C 19.223 18.779 18.644 18.226 17.94 18.222 L 17.05 18.222 C 17.033 18.225 17.017 18.227 17 18.228 L 7.07 18.228 C 7.046 18.228 7.023 18.226 7 18.222 L 6.07 18.222 C 5.35 18.211 4.756 18.782 4.74 19.502 Z M 12 6.078 C 11.724 6.078 11.5 5.854 11.5 5.578 L 11.5 3.018 C 11.5 2.633 11.917 2.393 12.25 2.585 C 12.405 2.674 12.5 2.839 12.5 3.018 L 12.5 5.578 C 12.5 5.854 12.276 6.078 12 6.078 Z M 6.72 8.178 C 6.586 8.177 6.458 8.119 6.37 8.018 L 4.54 6.208 C 4.344 6.016 4.344 5.7 4.54 5.508 C 4.736 5.311 5.054 5.311 5.25 5.508 L 7.07 7.318 C 7.267 7.514 7.267 7.832 7.07 8.028 C 6.98 8.125 6.853 8.18 6.72 8.178 Z M 17.28 8.178 C 17.146 8.175 17.02 8.117 16.93 8.018 C 16.733 7.822 16.733 7.504 16.93 7.308 L 18.76 5.488 C 18.956 5.291 19.274 5.291 19.47 5.488 C 19.666 5.68 19.666 5.996 19.47 6.188 L 17.63 8.018 C 17.542 8.119 17.414 8.177 17.28 8.178 Z M 21 13.228 L 19.41 13.228 C 19.025 13.228 18.785 12.811 18.977 12.478 C 19.066 12.323 19.231 12.228 19.41 12.228 L 21 12.228 C 21.385 12.228 21.625 12.645 21.433 12.978 C 21.344 13.133 21.179 13.228 21 13.228 Z M 4.59 13.228 L 3 13.228 C 2.615 13.228 2.375 12.811 2.567 12.478 C 2.656 12.323 2.821 12.228 3 12.228 L 4.59 12.228 C 4.975 12.228 5.215 12.645 5.023 12.978 C 4.934 13.133 4.769 13.228 4.59 13.228 Z" style=""/>
</svg>
