<svg xmlns="http://www.w3.org/2000/svg" width="24" height="24" viewBox="0 0 24 24"><path d="M13.57,12.24V10.81a.49.49,0,0,0-.42-.48l1.53-8.66a.5.5,0,0,0-.4-.58.49.49,0,0,0-.58.4L12.48,8.4V1.5a.5.5,0,0,0-1,0V8.4L10.26,1.49a.5.5,0,1,0-1,.18l1.52,8.66a.49.49,0,0,0-.41.48v1.43A1.5,1.5,0,0,0,9,13.74V21.5a1.5,1.5,0,0,0,1.5,1.5h3.08A1.5,1.5,0,0,0,15,21.5V13.74A1.5,1.5,0,0,0,13.57,12.24ZM14,21.5a.5.5,0,0,1-.5.5H10.46a.5.5,0,0,1-.5-.5V13.74a.5.5,0,0,1,.5-.5h3.08a.5.5,0,0,1,.5.5Z"/><rect x="10.39" y="14.04" width="3.17" height="4.69" rx="0.5"/></svg>