<svg xmlns="http://www.w3.org/2000/svg" width="24" height="24" viewBox="0 0 24 24"><path d="M20.35,4.19H3.65a2.5,2.5,0,0,0-2.5,2.5v10.8A2.5,2.5,0,0,0,3.65,20h16.7a2.5,2.5,0,0,0,2.5-2.5V6.69A2.5,2.5,0,0,0,20.35,4.19Zm1.5,13.3a1.5,1.5,0,0,1-1.5,1.5H3.65a1.5,1.5,0,0,1-1.5-1.5V6.69a1.5,1.5,0,0,1,1.5-1.5h16.7a1.5,1.5,0,0,1,1.5,1.5Z"/><path d="M9,8.7H5.76A1.76,1.76,0,0,0,4,10.46v3.27a1.76,1.76,0,0,0,1.76,1.76H9a1.76,1.76,0,0,0,1.77-1.76V10.46A1.76,1.76,0,0,0,9,8.7Zm.77,5a.77.77,0,0,1-.77.76H5.76A.76.76,0,0,1,5,13.73V10.46a.76.76,0,0,1,.76-.76H9a.77.77,0,0,1,.77.76Z"/><path d="M19.87,9.81H13a.51.51,0,0,0-.5.5.5.5,0,0,0,.5.5h6.9a.5.5,0,0,0,.5-.5A.5.5,0,0,0,19.87,9.81Z"/><path d="M16.69,12.85H13a.5.5,0,0,0-.5.5.51.51,0,0,0,.5.5h3.72a.5.5,0,0,0,.5-.5A.5.5,0,0,0,16.69,12.85Z"/></svg>