<svg xmlns="http://www.w3.org/2000/svg" width="24" height="24" viewBox="0 0 24 24"><path d="M17.21,14.16a1.57,1.57,0,0,0-2.17,0l-1.25,1.26a.75.75,0,0,1-.9.11,13.07,13.07,0,0,1-4.44-4.48.73.73,0,0,1,.11-.89L9.8,8.92a1.53,1.53,0,0,0,0-2.17L7.09,4A1.58,1.58,0,0,0,4.93,4L3,5.94a1.53,1.53,0,0,0-.44,1.11c0,.13,1.09,12.74,14.29,14.33H17a1.54,1.54,0,0,0,1-.46L19.92,19A1.54,1.54,0,0,0,20.37,18a1.51,1.51,0,0,0-.45-1.08Zm2,4.17-1.89,1.89a.41.41,0,0,1-.32.16C4.63,18.9,3.62,7.46,3.58,7a.55.55,0,0,1,.16-.37l1.89-1.9a.56.56,0,0,1,.76,0L9.1,7.46a.54.54,0,0,1,0,.75L7.85,9.46a1.71,1.71,0,0,0-.26,2.1,14.07,14.07,0,0,0,4.8,4.83,1.74,1.74,0,0,0,2.11-.27l1.25-1.25a.54.54,0,0,1,.75,0l2.71,2.71a.52.52,0,0,1,.16.37A.53.53,0,0,1,19.21,18.33Z"/><path d="M16.93,11.26a.49.49,0,0,0,.48.36.3.3,0,0,0,.13,0,.48.48,0,0,0,.35-.61A6.61,6.61,0,0,0,13,6.1a.51.51,0,0,0-.58.41.51.51,0,0,0,.41.58A5.67,5.67,0,0,1,16.93,11.26Z"/><path d="M13.11,2.62a.49.49,0,0,0-.57.41.49.49,0,0,0,.41.58,9.58,9.58,0,0,1,7.47,7.49.5.5,0,0,0,.5.4H21a.5.5,0,0,0,.4-.58C20.06,3.85,13.18,2.63,13.11,2.62Z"/></svg>