<svg viewBox="0 0 19.06 19.35" xmlns="http://www.w3.org/2000/svg">
  <path d="M 5.847 14.445 L 2.201 10.799 C 1.672 10.268 1.672 9.409 2.201 8.879 L 8.683 2.395 C 8.914 2.162 9.223 2.021 9.55 1.998 L 11.714 1.852 C 12.109 1.826 12.494 1.974 12.768 2.257 L 14.351 3.833 L 14.357 3.821 L 15.977 4.575 C 16.341 4.753 16.609 5.082 16.706 5.475 L 17.217 7.533 C 17.292 7.843 17.256 8.17 17.112 8.457 L 13.059 16.739 C 12.833 17.205 12.362 17.5 11.844 17.501 L 11.836 17.501 C 11.627 17.502 11.421 17.452 11.237 17.355 L 6.609 15.086 C 6.44 14.981 6.293 14.848 6.172 14.691 C 6.054 14.626 5.943 14.544 5.847 14.445 Z M 14.843 5.013 L 14.656 7.119 C 14.618 7.426 14.478 7.711 14.259 7.93 L 7.776 14.414 C 7.697 14.497 7.608 14.571 7.512 14.632 L 11.593 16.626 C 11.727 16.683 11.88 16.683 12.014 16.626 C 12.138 16.583 12.242 16.497 12.306 16.383 L 12.306 16.342 L 16.358 8.068 C 16.411 7.951 16.425 7.821 16.398 7.695 L 15.912 5.669 C 15.875 5.511 15.768 5.379 15.62 5.313 L 14.847 4.953 C 14.846 4.973 14.844 4.993 14.843 5.013 Z M 9.275 2.938 L 2.791 9.422 C 2.556 9.639 2.556 10.013 2.791 10.232 L 6.439 13.878 C 6.657 14.115 7.031 14.115 7.249 13.878 L 13.732 7.396 C 13.828 7.307 13.886 7.186 13.895 7.055 L 14.081 4.948 C 14.098 4.787 14.041 4.626 13.927 4.51 L 12.217 2.792 C 12.105 2.676 11.948 2.617 11.787 2.63 L 9.631 2.776 C 9.498 2.784 9.37 2.842 9.275 2.938 Z M 11.925 5.79 C 11.077 5.779 10.56 4.852 10.995 4.123 C 11.43 3.395 12.491 3.41 12.904 4.152 C 12.997 4.318 13.045 4.506 13.043 4.697 C 13.039 5.308 12.537 5.8 11.925 5.79 Z M 11.925 4.404 C 11.703 4.368 11.524 4.584 11.603 4.794 C 11.652 4.925 11.787 5.004 11.925 4.98 C 12.146 4.943 12.244 4.68 12.102 4.507 C 12.058 4.453 11.994 4.416 11.925 4.404 Z" style=""/>
</svg>
