<svg xmlns="http://www.w3.org/2000/svg" width="24" height="24" viewBox="0 0 24 24"><title>outlined-content-bellringing</title><path d="M18,13.56a10.7,10.7,0,0,1-.29-1.87,5.73,5.73,0,0,0-3.37-5.22,1.65,1.65,0,0,0,.11-.36,2.54,2.54,0,1,0-5-.57,2.44,2.44,0,0,0,.18.93,5.73,5.73,0,0,0-3.37,5.22A11.74,11.74,0,0,1,6,13.56,7.19,7.19,0,0,1,4.8,15.65a1,1,0,0,0-.22.64v1.26a1,1,0,0,0,1,1H8.79a3.33,3.33,0,0,0,6.42,0h3.2a1,1,0,0,0,1-1V16.29a1,1,0,0,0-.23-.64A7.16,7.16,0,0,1,18,13.56Zm.4,4H14.81a.5.5,0,0,0-.49.42,2.35,2.35,0,0,1-4.65,0,.49.49,0,0,0-.48-.42l-3.63,0V16.28A8.29,8.29,0,0,0,6.9,13.91a11.16,11.16,0,0,0,.35-2.22,4.74,4.74,0,0,1,3.24-4.5l.13-.06a.5.5,0,0,0,.11-.69A1.55,1.55,0,0,1,11,4.33,1.52,1.52,0,0,1,12,4a2.21,2.21,0,0,1,.37,0,1.53,1.53,0,0,1,.55.25,1.55,1.55,0,0,1,.36,2.17.54.54,0,0,0-.07.13.49.49,0,0,0,.31.62,4.76,4.76,0,0,1,3.24,4.5,11,11,0,0,0,.35,2.21,8.64,8.64,0,0,0,1.34,2.39Z"/><path d="M13.45,17.54h-2.9a.25.25,0,0,0-.19.09.24.24,0,0,0-.06.2,1.72,1.72,0,0,0,3.4,0v0A.25.25,0,0,0,13.45,17.54Z"/><path d="M4.94,8.54a.54.54,0,0,0,.46-.26A8.11,8.11,0,0,1,8.26,5.41a.55.55,0,0,0,.19-.73.54.54,0,0,0-.74-.2A9.25,9.25,0,0,0,4.47,7.73h0a.54.54,0,0,0,.19.74A.64.64,0,0,0,4.94,8.54Z"/><path d="M7.74,4a.54.54,0,0,0-.48-1,9.16,9.16,0,0,0-4.2,4.21A.52.52,0,0,0,3.3,8,.53.53,0,0,0,4,7.75,8.13,8.13,0,0,1,7.74,4Z"/><path d="M16.28,4.48a.53.53,0,0,0-.74.19.55.55,0,0,0,.19.74A8.11,8.11,0,0,1,18.6,8.27a.53.53,0,0,0,.46.27h0a.68.68,0,0,0,.28-.07.56.56,0,0,0,.19-.75A9.25,9.25,0,0,0,16.28,4.48Z"/><path d="M20.94,7.27a9.16,9.16,0,0,0-4.2-4.21A.56.56,0,0,0,16,3.3a.55.55,0,0,0,.25.73A8.13,8.13,0,0,1,20,7.75.53.53,0,0,0,20.7,8,.52.52,0,0,0,20.94,7.27Z"/></svg>