<svg viewBox="0 0 24 24" xmlns="http://www.w3.org/2000/svg">
  <path d="M 11.928 20.885 C 7.797 20.795 4.289 17.833 3.508 13.775 C 3.435 13.39 3.806 13.07 4.176 13.199 C 4.347 13.259 4.474 13.406 4.508 13.585 C 5.196 17.179 8.3 19.804 11.958 19.885 C 15.18 19.871 18.024 17.81 19.054 14.78 L 17.008 15.685 C 16.757 15.798 16.462 15.686 16.348 15.435 C 16.23 15.181 16.349 14.88 16.608 14.775 L 19.498 13.485 C 19.619 13.43 19.757 13.43 19.878 13.485 C 20.001 13.532 20.102 13.625 20.158 13.745 L 21.478 16.745 C 21.584 16.999 21.469 17.291 21.218 17.405 C 21.152 17.435 21.08 17.449 21.008 17.445 C 20.809 17.446 20.628 17.328 20.548 17.145 L 19.838 15.542 C 18.551 18.744 15.434 20.884 11.928 20.885 Z M 19.688 10.225 C 19.456 10.227 19.254 10.07 19.198 9.845 C 18.335 6.516 15.357 4.171 11.918 4.115 C 9.032 4.127 6.426 5.794 5.194 8.374 L 7.008 7.545 C 7.259 7.432 7.554 7.544 7.668 7.795 C 7.788 8.043 7.679 8.342 7.428 8.455 L 4.428 9.835 C 4.371 9.862 4.31 9.879 4.248 9.885 C 4.185 9.899 4.121 9.899 4.058 9.885 C 3.935 9.832 3.835 9.736 3.778 9.615 L 2.548 6.465 C 2.359 6.129 2.605 5.716 2.99 5.72 C 3.216 5.723 3.412 5.876 3.468 6.095 L 4.24 8.109 C 5.603 5.101 8.595 3.143 11.918 3.115 C 15.82 3.17 19.202 5.834 20.168 9.615 C 20.238 9.883 20.076 10.156 19.808 10.225 Z"/>
</svg>
