<svg xmlns="http://www.w3.org/2000/svg" width="24" height="24" viewBox="0 0 24 24"><path d="M20.42,16.88a9.62,9.62,0,0,0,0-9.76l0,0a1.53,1.53,0,0,0,0-2.15L19.05,3.56a1.53,1.53,0,0,0-2.15,0l0,0a9.93,9.93,0,0,0-9.76,0l0,0A1.57,1.57,0,0,0,5,3.56L3.56,5a1.53,1.53,0,0,0,0,2.15l0,0a9.62,9.62,0,0,0,0,9.76l0,0a1.53,1.53,0,0,0,0,2.15L5,20.44a1.53,1.53,0,0,0,2.15,0l0,0a9.62,9.62,0,0,0,9.76,0l0,0a1.53,1.53,0,0,0,2.15,0l1.39-1.39a1.53,1.53,0,0,0,0-2.15ZM20.75,12a8.65,8.65,0,0,1-1.05,4.16L16.64,13.1a4.72,4.72,0,0,0,0-2.2L19.7,7.84A8.65,8.65,0,0,1,20.75,12Zm-6.34,1L13,14.41a1.49,1.49,0,0,0-.41,1.31,4.16,4.16,0,0,1-1.22,0A1.49,1.49,0,0,0,11,14.41L9.59,13a1.48,1.48,0,0,0-1.3-.41A3.15,3.15,0,0,1,8.23,12a4.18,4.18,0,0,1,0-.61,2,2,0,0,0,.24,0A1.48,1.48,0,0,0,9.59,11L11,9.59a1.49,1.49,0,0,0,.41-1.31,3.57,3.57,0,0,1,1.22,0A1.49,1.49,0,0,0,13,9.59L14.41,11a1.48,1.48,0,0,0,1.07.45,2,2,0,0,0,.24,0,3.75,3.75,0,0,1,0,1.22A1.49,1.49,0,0,0,14.41,13ZM18,4.12a.51.51,0,0,1,.37.15l1.39,1.39a.52.52,0,0,1,0,.73L17.66,8.46l-1.88,1.87a.53.53,0,0,1-.67-.05L13.72,8.89a.56.56,0,0,1,0-.74l3.6-3.6.29-.28A.51.51,0,0,1,18,4.12Zm-1.81.18L13.1,7.36a4.68,4.68,0,0,0-2.2,0L7.84,4.3A8.88,8.88,0,0,1,16.16,4.3ZM4.27,5.66,5.66,4.27A.51.51,0,0,1,6,4.12a.51.51,0,0,1,.36.15l3.94,4a.53.53,0,0,1-.05.67L8.89,10.28a.55.55,0,0,1-.74,0l-3.6-3.6-.28-.29A.52.52,0,0,1,4.27,5.66ZM3.25,12a8.65,8.65,0,0,1,1-4.16L7.36,10.9a4.72,4.72,0,0,0,0,2.2L4.3,16.16A8.65,8.65,0,0,1,3.25,12Zm2.41,7.73L4.27,18.34a.52.52,0,0,1,0-.73l2.07-2.07,1.88-1.87a.47.47,0,0,1,.3-.1.53.53,0,0,1,.37.15l1.39,1.39a.53.53,0,0,1,.05.67h0s-.05,0-.06.07l-3.6,3.6-.29.28A.52.52,0,0,1,5.66,19.73Zm2.18,0,3.06-3.06a4.81,4.81,0,0,0,2.2,0l3.06,3.06A8.88,8.88,0,0,1,7.84,19.7Zm11.89-1.36-1.39,1.39a.52.52,0,0,1-.73,0l-3.94-4a.53.53,0,0,1,.05-.67l1.39-1.39a.5.5,0,0,1,.35-.14.72.72,0,0,1,.39.14l3.6,3.6.28.29A.52.52,0,0,1,19.73,18.34Z"/></svg>