<svg xmlns="http://www.w3.org/2000/svg" viewBox="0 0 24 24">
  <path d="M13.45,9.85,9.71,13.59a.48.48,0,0,0,0,.7.48.48,0,0,0,.7,0l3.74-3.74a.49.49,0,1,0-.7-.7Zm-.68,4.88-1,1a2.47,2.47,0,0,1-3.5-3.5l1-1a.5.5,0,0,0,0-.71.51.51,0,0,0-.71,0L7.51,11.57a3.48,3.48,0,0,0,4.92,4.92l1.05-1a.51.51,0,0,0,0-.71A.5.5,0,0,0,12.77,14.73Zm-1.2-7.22L10.52,8.56a.51.51,0,0,0,0,.71.5.5,0,0,0,.71,0l1-1a2.47,2.47,0,0,1,3.5,3.5l-1,1a.5.5,0,0,0,0,.71.52.52,0,0,0,.35.14.54.54,0,0,0,.36-.14l1-1.05a3.49,3.49,0,0,0,0-4.92A3.59,3.59,0,0,0,11.57,7.51Zm.43-5A9.51,9.51,0,0,0,2.5,12a9.4,9.4,0,0,0,1,4.23l-1,4.67a.51.51,0,0,0,.14.45A.47.47,0,0,0,3,21.5h.1l4.67-1a9.4,9.4,0,0,0,4.23,1,9.5,9.5,0,0,0,0-19Zm0,18a8.43,8.43,0,0,1-3.93-1,.46.46,0,0,0-.23-.05H7.73l-4.08.86.86-4.08a.49.49,0,0,0,0-.34A8.5,8.5,0,1,1,12,20.5Z"/>
</svg>
