<svg xmlns="http://www.w3.org/2000/svg" width="24" height="24" viewBox="0 0 24 24"><path d="M15.25,21.6H8.75a.5.5,0,0,0,0,1h6.5a.5.5,0,0,0,0-1Z"/><path d="M15.9,19.85H8.09a.5.5,0,0,0-.5.5.51.51,0,0,0,.5.5H15.9a.5.5,0,0,0,.5-.5A.5.5,0,0,0,15.9,19.85Z"/><path d="M12.5,18.87v-5a.5.5,0,1,0-1,0v5a.5.5,0,0,0,1,0Z"/><path d="M14.5,4.05a7.17,7.17,0,0,0-5,0,6.9,6.9,0,0,0-4.07,8.41c.18.65.32,1.27.44,1.88.49,2.32,1,4.51,4.39,5a.5.5,0,1,0,.15-1c-2.75-.4-3.07-1.93-3.56-4.24-.13-.62-.27-1.27-.46-2A5.9,5.9,0,0,1,9.85,5a6.23,6.23,0,0,1,4.3,0,5.9,5.9,0,0,1,3.46,7.2c-.19.68-.33,1.34-.46,2-.48,2.3-.79,3.83-3.56,4.23a.49.49,0,0,0-.42.56.51.51,0,0,0,.5.43h.07c3.45-.49,3.91-2.69,4.39-5,.13-.61.26-1.25.44-1.9A6.89,6.89,0,0,0,14.5,4.05Z"/></svg>