<svg viewBox="0 0 24 24" xmlns="http://www.w3.org/2000/svg">
  <path d="M 6.744 7.322 C 8.122 4.936 11.567 4.936 12.945 7.322 C 13.26 7.87 13.426 8.491 13.424 9.122 C 13.424 10.349 12.806 11.431 11.864 12.073 C 14.306 12.914 16.061 15.235 16.052 17.967 L 15.052 17.967 C 15.058 15.061 12.688 12.709 9.782 12.737 C 6.891 12.731 4.546 15.076 4.552 17.967 C 4.552 18.243 4.328 18.467 4.052 18.467 C 3.776 18.467 3.552 18.243 3.552 17.967 C 3.543 15.216 5.324 12.879 7.797 12.054 C 6.361 11.049 5.757 9.032 6.744 7.322 Z M 9.844 6.542 C 7.858 6.542 6.617 8.692 7.61 10.412 C 8.603 12.132 11.085 12.132 12.079 10.412 C 12.305 10.02 12.424 9.575 12.424 9.122 C 12.424 7.698 11.269 6.542 9.844 6.542 Z M 14.436 8.076 C 15.345 6.485 17.635 6.476 18.558 8.058 C 18.772 8.425 18.884 8.842 18.882 9.267 C 18.879 9.964 18.577 10.59 18.097 11.023 C 19.054 11.453 19.856 12.26 20.237 13.392 C 20.386 13.834 20.457 14.298 20.445 14.764 C 20.475 15.086 20.195 15.351 19.875 15.304 C 19.595 15.304 19.37 15.074 19.375 14.794 C 19.417 12.485 16.943 10.997 14.923 12.116 C 14.631 12.277 14.368 12.486 14.145 12.734 C 13.953 12.93 13.638 12.93 13.445 12.734 C 13.248 12.539 13.248 12.22 13.445 12.024 C 13.859 11.554 14.345 11.211 14.865 10.988 C 14.118 10.274 13.853 9.095 14.436 8.076 Z M 16.512 7.887 C 15.45 7.879 14.777 9.024 15.302 9.948 C 15.826 10.872 17.154 10.882 17.692 9.966 C 17.816 9.754 17.882 9.513 17.882 9.267 C 17.882 8.509 17.27 7.892 16.512 7.887 Z"/>
</svg>
