<svg viewBox="0 0 24 24" xmlns="http://www.w3.org/2000/svg">
  <path d="M 18.905 9.457 L 18.675 9.457 C 18.172 6.179 15.352 3.758 12.035 3.757 C 8.688 3.755 5.823 6.16 5.245 9.457 L 5.095 9.457 C 3.66 9.574 2.583 10.82 2.675 12.257 C 2.577 13.698 3.656 14.95 5.095 15.067 L 6.495 15.067 L 6.495 10.617 C 6.495 6.352 11.112 3.687 14.805 5.819 C 16.519 6.809 17.575 8.638 17.575 10.617 L 17.575 15.617 C 17.562 16.862 16.622 17.9 15.385 18.037 C 15.035 17.524 14.445 17.229 13.825 17.257 C 12.927 17.208 12.144 17.864 12.035 18.757 C 12.135 19.652 12.927 20.307 13.825 20.237 C 14.462 20.252 15.058 19.924 15.385 19.377 C 17.33 19.216 18.826 17.589 18.825 15.637 L 18.825 15.087 L 18.895 15.087 C 20.338 14.975 21.423 13.722 21.325 12.277 C 21.423 10.834 20.346 9.579 18.905 9.457 Z M 3.845 12.257 C 3.845 11.317 4.395 10.617 5.095 10.617 L 5.175 10.617 L 5.175 13.897 L 5.095 13.897 C 4.395 13.897 3.845 13.197 3.845 12.257 Z M 13.845 19.047 C 13.455 19.047 13.215 18.887 13.215 18.737 C 13.215 18.587 13.455 18.417 13.845 18.417 C 14.235 18.417 14.465 18.577 14.465 18.737 C 14.465 18.897 14.155 19.047 13.845 19.047 Z M 18.915 13.897 L 18.835 13.897 L 18.835 10.617 L 18.915 10.617 C 19.535 10.617 20.165 11.397 20.165 12.257 C 20.165 13.117 19.615 13.897 18.915 13.897 Z" style="clip-path: url(#a);"/>
</svg>
