<svg viewBox="0 0 24 24" xmlns="http://www.w3.org/2000/svg">
  <path d="M 17.2 19.745 L 14.52 19.745 C 13.968 19.745 13.52 19.297 13.52 18.745 L 13.52 16.255 C 13.52 15.031 12.195 14.266 11.135 14.878 C 10.643 15.162 10.34 15.686 10.34 16.255 L 10.34 18.745 C 10.34 19.297 9.892 19.745 9.34 19.745 L 6.81 19.745 C 6.539 19.746 6.279 19.638 6.09 19.445 C 5.914 19.253 5.814 19.004 5.81 18.745 L 5.81 13.075 L 4.51 13.075 C 3.958 13.075 3.51 12.627 3.51 12.075 L 3.51 11.025 C 3.533 10.794 3.608 10.572 3.73 10.375 L 3.84 10.245 L 10.76 4.635 C 11.41 4.129 12.32 4.129 12.97 4.635 L 20.09 10.255 C 20.323 10.454 20.467 10.738 20.49 11.045 L 20.49 12.095 C 20.49 12.647 20.042 13.095 19.49 13.095 L 18.19 13.095 L 18.19 18.745 C 18.19 19.293 17.748 19.739 17.2 19.745 Z M 11.93 13.745 C 13.358 13.75 14.515 14.906 14.52 16.335 L 14.52 18.745 L 17.19 18.745 L 17.19 13.085 C 17.19 12.532 17.638 12.085 18.19 12.085 L 19.51 12.085 L 19.51 11.085 L 12.35 5.415 C 12.058 5.181 11.642 5.181 11.35 5.415 L 4.55 10.965 C 4.546 11.008 4.546 11.051 4.55 11.095 L 4.55 12.095 L 5.82 12.095 C 6.372 12.095 6.82 12.542 6.82 13.095 L 6.82 18.745 L 9.34 18.745 L 9.34 16.255 C 9.351 14.829 10.504 13.675 11.93 13.665 Z"/>
</svg>
