<svg xmlns="http://www.w3.org/2000/svg" width="24" height="24" viewBox="0 0 24 24"><path d="M14.93,2.67A6.55,6.55,0,0,0,8.37,9.2,6.15,6.15,0,0,0,8.68,11L2.53,17.11v4.38h3.7l1.38-1.18,0-1,1.57,0V18.5H10L10,17l1.43,0,1.66-1.52.18.08a6.86,6.86,0,0,0,1.63.2,6.53,6.53,0,1,0,0-13.06Zm0,12.06a6,6,0,0,1-1.32-.15l-.71-.29L11.08,16l-2,0,0,1.56H8.23l0,.79-1.56,0,0,1.6-.76.65H3.53v-.27l5.16-5.1L10,13.9l-.69-.73L3.53,18.82V17.53l6.29-6.28L9.72,11A6.32,6.32,0,0,1,9.37,9.2a5.56,5.56,0,1,1,5.56,5.53Z"/><path d="M17.25,5.66A1.55,1.55,0,1,0,18.8,7.2,1.55,1.55,0,0,0,17.25,5.66Zm0,2.09a.55.55,0,1,1,.55-.55A.55.55,0,0,1,17.25,7.75Z"/></svg>