<svg xmlns="http://www.w3.org/2000/svg" width="24" height="24" viewBox="0 0 24 24"><path d="M14.2,7.09a6.28,6.28,0,0,0-3,.75A6.05,6.05,0,0,0,11,7.21a5.36,5.36,0,0,1-.15-1.91.52.52,0,0,0-.13-.39.47.47,0,0,0-.34-.15V3.12h.18a.43.43,0,1,0,0-.85H4a.43.43,0,0,0,0,.85H5.47V4.76A.47.47,0,0,0,5,5.3a5.48,5.48,0,0,1-.13,1.83A10.17,10.17,0,0,0,4,11.41v9.23A1,1,0,0,0,5,21.8h5.91a1,1,0,0,0,.92-1.13V19.22a6.19,6.19,0,0,0,2.4.48,6.31,6.31,0,0,0,0-12.61Zm-7.78-4h3V4.75h-3ZM10.8,20.69s0,.11,0,.11L5,20.83a.51.51,0,0,1,0-.16V11.4a9.29,9.29,0,0,1,.79-3.94A6.17,6.17,0,0,0,6,5.75H9.79A7,7,0,0,0,10,7.53a7.43,7.43,0,0,1,.32.88A6.29,6.29,0,0,0,10.8,18.7Zm3.4-2a5.31,5.31,0,1,1,5.3-5.31A5.31,5.31,0,0,1,14.2,18.7Z"/><path d="M16.75,12.89H14.7V10.83a.51.51,0,0,0-.5-.5.5.5,0,0,0-.5.5v2.06H11.64a.5.5,0,0,0-.5.5.5.5,0,0,0,.5.5H13.7V16a.5.5,0,0,0,.5.5.5.5,0,0,0,.5-.5V13.89h2.05a.5.5,0,0,0,.5-.5A.5.5,0,0,0,16.75,12.89Z"/></svg>