<svg xmlns="http://www.w3.org/2000/svg" width="24" height="24" viewBox="0 0 24 24"><path d="M19.8,4A2.56,2.56,0,0,0,16.18,4a6.9,6.9,0,0,0-1.45,2.2,3.39,3.39,0,0,0-2.25.35,3.48,3.48,0,0,0-3.55,0,3.38,3.38,0,0,0-2.27-.39,3.71,3.71,0,0,0-1,.34,3.46,3.46,0,0,0-1.46,4.66,3.51,3.51,0,0,0-.25,3.55,3.46,3.46,0,0,0,4.64,4.76,3.43,3.43,0,0,0,1.73.47,3.4,3.4,0,0,0,1.87-.49,3.4,3.4,0,0,0,2.27.39,3.67,3.67,0,0,0,1-.34,3.45,3.45,0,0,0,1.45-4.66,3.46,3.46,0,0,0,.17-3.55A3.32,3.32,0,0,0,17.52,9a6.68,6.68,0,0,0,2.23-1.38A2.54,2.54,0,0,0,19.8,4ZM19,7a6,6,0,0,1-2.27,1.3l-.47.14.14.48A2.43,2.43,0,0,1,16,11l-.21.28.2.29a3.2,3.2,0,0,1-.19,3.38,2.59,2.59,0,0,1,0,2.84h0a2.44,2.44,0,0,1-3.4.59l-.31-.21-.29.23a2.46,2.46,0,0,1-2.93.05l-.28-.2-.27.24a2.47,2.47,0,0,1-2.79-.05h0A2.45,2.45,0,0,1,5,15l.2-.28L5,14.4a2.46,2.46,0,0,1,.15-2.93l.23-.28-.2-.31a2.46,2.46,0,0,1,0-2.75l0,0a2.44,2.44,0,0,1,3.4-.57l.31.2.27-.21a2.45,2.45,0,0,1,3,0l.22.24.29-.2a2.44,2.44,0,0,1,2.13-.28l.47.15.16-.47a6.2,6.2,0,0,1,1.36-2.2A1.56,1.56,0,0,1,19,7Z"/><path d="M18.74,4.91a1.28,1.28,0,0,0-1.81,0,7.29,7.29,0,0,0-1.11,1.91l-.14.34.29.23.1.1.11.12.24.27.34-.1a6.82,6.82,0,0,0,2-1.09,1.26,1.26,0,0,0,0-1.78ZM18.05,6a5.49,5.49,0,0,1-1,.64,7.39,7.39,0,0,1,.64-1,.27.27,0,0,1,.18-.08.25.25,0,0,1,.18.11A.26.26,0,0,1,18.05,6Z"/><path d="M12.94,5.92a2.22,2.22,0,0,0,2.24-2.18v0a2.22,2.22,0,1,0-2.24,2.2Zm0-3.44H13a1.23,1.23,0,1,1-.07,0Z"/><path d="M9,5.38a1.06,1.06,0,0,0,1.07-1.07v0A1.07,1.07,0,0,0,9,3.22,1.08,1.08,0,0,0,9,5.38ZM9,4.23a.07.07,0,0,1,.07.08c0,.08-.15.08-.15,0S9,4.23,9,4.23Z"/><path d="M11.49,20.36a1.08,1.08,0,0,0,0,2.16,1.06,1.06,0,0,0,1.07-1.07v0A1.07,1.07,0,0,0,11.49,20.36Zm-.06,1.09s0-.08.08-.08.08,0,.07.08S11.43,21.53,11.43,21.45Z"/></svg>