<svg xmlns="http://www.w3.org/2000/svg" xmlns:xlink="http://www.w3.org/1999/xlink" viewBox="0 0 24 24">
  <defs>
    <clipPath id="a">
      <rect width="24" height="24"/>
    </clipPath>
  </defs>
  <title>outlined-media-play</title>
  <g>
    <g style="opacity: 0">
      <g>
        <rect width="24" height="24"/>
        <g style="clip-path: url(#a)">
          <g>
            <rect width="24" height="24"/>
            <path d="M12,21.5A9.5,9.5,0,1,1,21.5,12,9.51,9.51,0,0,1,12,21.5Zm0-18A8.5,8.5,0,1,0,20.5,12,8.51,8.51,0,0,0,12,3.5Z"/>
          </g>
        </g>
      </g>
    </g>
    <g>
      <g style="opacity: 0">
        <rect width="24" height="24"/>
      </g>
      <path d="M5.08,21.48a1.69,1.69,0,0,1-.5-.08A1.6,1.6,0,0,1,3.5,19.76V4.22a1.53,1.53,0,0,1,.37-1.13A1.61,1.61,0,0,1,5,2.53a1.57,1.57,0,0,1,.83.14L19.64,10.4a1.8,1.8,0,0,1,.59,2.48,1.84,1.84,0,0,1-.55.56L5.82,21.3A1.65,1.65,0,0,1,5.08,21.48Zm0-18H5a.58.58,0,0,0-.4.22.54.54,0,0,0-.14.43V19.83a.59.59,0,0,0,.85.59l13.81-7.84a.7.7,0,0,0,.22-.23.79.79,0,0,0-.25-1.09L5.32,3.56A.62.62,0,0,0,5.1,3.52ZM4,19.78H4Z"/>
    </g>
  </g>
</svg>
