<svg xmlns="http://www.w3.org/2000/svg" viewBox="0 0 24 24">
  <title>outlined-media-app</title>
  <g>
    <g style="opacity: 0">
      <rect width="24" height="24"/>
    </g>
    <g>
      <g style="opacity: 0">
        <g>
          <circle cx="12" cy="12" r="9"/>
          <path d="M12,21.5A9.5,9.5,0,1,1,21.5,12,9.51,9.51,0,0,1,12,21.5Zm0-18A8.5,8.5,0,1,0,20.5,12,8.51,8.51,0,0,0,12,3.5Z"/>
        </g>
      </g>
      <g>
        <path d="M11.69,17.27a.9.9,0,1,0,.9.9h0a.87.87,0,0,0-.85-.9Z"/>
        <path d="M15.17,4H8.22A2.3,2.3,0,0,0,6,6.29V18.38a2.31,2.31,0,0,0,2.29,2.3h7a2.31,2.31,0,0,0,2.29-2.3V6.29A2.41,2.41,0,0,0,15.17,4Zm1.18,2.29V18.38a1.16,1.16,0,0,1-1.16,1.18s0,0,0,0H8.22A1.17,1.17,0,0,1,7,18.4V6.29A1.18,1.18,0,0,1,8.2,5.11h7a1.1,1.1,0,0,1,1.18,1A.43.43,0,0,1,16.35,6.29Z"/>
        <path d="M11.21,10.05h1a.3.3,0,0,0,.28-.28v-1a.3.3,0,0,0-.28-.28h-1a.3.3,0,0,0-.28.28v1A.31.31,0,0,0,11.21,10.05Z"/>
        <path d="M15.1,8.52h-1a.3.3,0,0,0-.28.28v1a.3.3,0,0,0,.28.28h1a.3.3,0,0,0,.28-.28v-1A.3.3,0,0,0,15.1,8.52Z"/>
        <path d="M9.33,8.52h-1a.3.3,0,0,0-.28.28v1a.3.3,0,0,0,.28.28h1a.3.3,0,0,0,.28-.28v-1A.44.44,0,0,0,9.33,8.52Z"/>
        <path d="M11.21,12.62h1a.3.3,0,0,0,.28-.28v-1a.3.3,0,0,0-.28-.28h-1a.3.3,0,0,0-.28.28v1A.3.3,0,0,0,11.21,12.62Z"/>
        <path d="M15.1,11.09h-1a.3.3,0,0,0-.28.28v1a.3.3,0,0,0,.28.28h1a.3.3,0,0,0,.28-.28v-1A.31.31,0,0,0,15.1,11.09Z"/>
        <path d="M9.33,11.09h-1a.3.3,0,0,0-.28.28v1a.3.3,0,0,0,.28.28h1a.3.3,0,0,0,.28-.28v-1A.61.61,0,0,0,9.33,11.09Z"/>
        <path d="M11.21,15.19h1a.3.3,0,0,0,.28-.28v-1a.3.3,0,0,0-.28-.28h-1a.3.3,0,0,0-.28.28v1a.26.26,0,0,0,.23.28Z"/>
        <path d="M9.33,13.66h-1a.3.3,0,0,0-.28.28v1a.3.3,0,0,0,.28.28h1A.3.3,0,0,0,9.68,15v-1A.46.46,0,0,0,9.33,13.66Z"/>
      </g>
    </g>
  </g>
</svg>
