<svg xmlns="http://www.w3.org/2000/svg" xmlns:xlink="http://www.w3.org/1999/xlink" viewBox="0 0 24 24">
  <defs>
    <clipPath id="a">
      <rect width="24" height="24"/>
    </clipPath>
  </defs>
  <title>outlined-media-camera</title>
  <g>
    <g style="opacity: 0">
      <g>
        <rect width="24" height="24"/>
        <g style="clip-path: url(#a)">
          <g>
            <rect width="24" height="24"/>
            <path d="M12,21.5A9.5,9.5,0,1,1,21.5,12,9.51,9.51,0,0,1,12,21.5Zm0-18A8.5,8.5,0,1,0,20.5,12,8.51,8.51,0,0,0,12,3.5Z"/>
          </g>
        </g>
      </g>
    </g>
    <g>
      <path d="M11.94,8.68A4,4,0,0,0,7.86,12.6a4,4,0,0,0,4.08,3.92A4,4,0,0,0,16,12.6,4,4,0,0,0,11.94,8.68ZM15,12.6a3,3,0,0,1-6,0,3,3,0,0,1,6,0Z"/>
      <path d="M17.4,7.37h-.87a.91.91,0,0,1-.6-.41l-.26-.81A1.67,1.67,0,0,0,14.13,5H9.8A1.67,1.67,0,0,0,8.27,6.08L7.93,7a.67.67,0,0,1-.6.41h-.8A2.53,2.53,0,0,0,4,9.87v6.56A2.55,2.55,0,0,0,6.53,19H17.47A2.55,2.55,0,0,0,20,16.43h0V9.87A2.64,2.64,0,0,0,17.4,7.37Zm1.47,2.5V16.5a1.48,1.48,0,0,1-1.47,1.42H6.53a1.49,1.49,0,0,1-1.46-1.49V9.87a1.44,1.44,0,0,1,1.4-1.49h.86A1.68,1.68,0,0,0,8.87,7.3l.26-.81a.69.69,0,0,1,.6-.41h4.34a.91.91,0,0,1,.6.41l.26.81a2,2,0,0,0,1.6,1.08h.87a1.5,1.5,0,0,1,1.47,1.49Z"/>
    </g>
  </g>
</svg>
