<svg viewBox="0 0 24 24" xmlns="http://www.w3.org/2000/svg">
  <path d="M 5.482 18.35 C 5.233 18.347 4.994 18.25 4.812 18.08 C 4.638 17.9 4.538 17.661 4.532 17.41 L 4.532 10.6 C 4.557 10.09 4.962 9.68 5.472 9.65 L 7.332 9.65 C 7.874 9.615 8.333 10.046 8.332 10.59 L 8.382 17.35 C 8.376 17.601 8.276 17.84 8.102 18.02 C 7.927 18.202 7.685 18.304 7.432 18.3 Z M 7.282 10.6 L 5.482 10.65 L 5.482 17.4 L 7.282 17.4 Z M 15.242 19.85 L 12.082 19.85 C 11.77 19.833 11.467 19.737 11.202 19.57 L 9.292 18.21 C 9.162 18.113 9.084 17.962 9.082 17.8 L 9.082 10.1 C 9.082 9.824 9.306 9.6 9.582 9.6 C 10.154 9.629 10.633 9.172 10.632 8.6 L 10.632 5.1 C 10.636 4.846 10.736 4.603 10.912 4.42 C 11.094 4.25 11.333 4.153 11.582 4.15 C 13.385 4.15 14.855 5.597 14.882 7.4 L 14.882 9.6 L 16.332 9.6 C 17.12 9.606 17.878 9.901 18.462 10.43 C 19.371 11.279 19.7 12.581 19.302 13.76 L 17.442 18.29 C 17.12 19.229 16.234 19.856 15.242 19.85 Z M 10.082 17.54 L 11.772 18.74 C 11.874 18.805 11.991 18.842 12.112 18.85 L 15.242 18.85 C 15.818 18.853 16.33 18.486 16.512 17.94 L 18.372 13.41 C 18.625 12.611 18.4 11.737 17.792 11.16 C 17.389 10.803 16.87 10.604 16.332 10.6 L 14.332 10.6 C 14.056 10.6 13.832 10.376 13.832 10.1 L 13.832 7.4 C 13.816 6.16 12.812 5.161 11.572 5.15 L 11.632 8.6 C 11.656 9.55 11.008 10.386 10.082 10.6 Z"/>
</svg>
