<svg viewBox="0 0 24 24" xmlns="http://www.w3.org/2000/svg">
  <path d="M 22.632 16.087 C 22.233 16.684 21.56 17.041 20.842 17.037 L 20.562 17.037 C 20.314 18.034 19.42 18.735 18.392 18.737 C 17.353 18.77 16.439 18.054 16.222 17.037 L 7.222 17.037 C 7.114 17.49 6.866 17.898 6.513 18.202 C 5.219 19.319 3.202 18.616 2.882 16.937 C 1.809 16.776 1.009 15.862 0.992 14.777 L 0.992 7.417 C 1.019 6.196 2.031 5.229 3.252 5.257 L 19.192 5.257 C 20.109 5.264 20.931 5.825 21.272 6.677 L 21.272 6.767 L 22.872 14.027 C 23.117 14.714 23.029 15.475 22.632 16.087 Z M 20.602 7.907 L 17.772 7.907 L 17.772 11.027 L 21.272 11.027 Z M 5.122 17.897 C 5.594 17.883 6.022 17.618 6.245 17.202 C 6.727 16.307 6.058 15.226 5.042 15.257 C 4.57 15.257 4.135 15.509 3.899 15.917 C 3.391 16.797 4.026 17.897 5.042 17.897 Z M 18.312 17.897 C 19.021 17.875 19.579 17.286 19.562 16.577 C 19.562 16.345 19.501 16.118 19.385 15.917 C 18.877 15.037 17.607 15.037 17.099 15.917 C 16.591 16.797 17.226 17.897 18.242 17.897 Z M 21.832 15.577 C 22.143 15.202 22.18 14.67 21.922 14.257 L 21.922 14.117 L 21.452 11.857 L 17.252 11.857 C 17.006 11.836 16.82 11.624 16.832 11.377 L 16.832 7.277 C 16.848 7.032 17.057 6.846 17.302 6.857 L 20.422 6.857 C 20.187 6.394 19.711 6.104 19.192 6.107 L 3.252 6.107 C 2.479 6.107 1.859 6.745 1.882 7.517 L 1.882 14.787 C 1.868 15.404 2.284 15.948 2.882 16.097 C 3.153 15.119 4.028 14.43 5.042 14.397 C 6.083 14.36 6.999 15.078 7.212 16.097 L 16.082 16.097 C 16.354 15.115 17.234 14.426 18.252 14.397 C 19.293 14.36 20.209 15.078 20.422 16.097 L 20.702 16.097 C 21.153 16.132 21.587 15.917 21.832 15.537 Z M 11.196 6.913 C 11.397 6.967 11.52 7.169 11.476 7.373 L 11.476 11.483 C 11.455 11.725 11.249 11.909 11.006 11.903 L 7.746 11.903 C 7.497 11.887 7.309 11.672 7.326 11.423 L 7.326 7.323 C 7.331 7.073 7.547 6.88 7.796 6.903 L 11.096 6.903 Z M 10.626 7.853 L 8.266 7.853 L 8.266 10.953 L 10.626 10.953 Z M 15.801 6.918 C 16.048 6.929 16.238 7.141 16.221 7.388 L 16.221 11.488 C 16.2 11.73 15.994 11.914 15.751 11.908 L 12.491 11.908 C 12.241 11.903 12.048 11.687 12.071 11.438 L 12.071 7.338 C 12.076 7.088 12.292 6.895 12.541 6.918 Z M 15.281 7.868 L 12.921 7.868 L 12.921 10.968 L 15.281 10.968 Z M 6.342 6.93 C 6.589 6.941 6.779 7.153 6.762 7.4 L 6.762 11.5 C 6.741 11.742 6.535 11.926 6.292 11.92 L 3.032 11.92 C 2.782 11.915 2.589 11.699 2.612 11.45 L 2.612 7.35 C 2.617 7.1 2.833 6.907 3.082 6.93 Z M 5.822 7.88 L 3.462 7.88 L 3.462 10.98 L 5.822 10.98 Z" style=""/>
</svg>
