<svg viewBox="0 0 24 24" xmlns="http://www.w3.org/2000/svg">
  <path d="M 9.165 6.679 C 9.13 5.589 9.747 4.582 10.735 4.119 L 13.295 2.579 C 13.639 2.343 14.085 2.316 14.455 2.509 C 14.887 2.88 15.124 3.43 15.095 3.999 C 15.095 3.999 15.045 5.999 15.045 6.339 L 15.095 10.62 C 15.71 10.962 16.14 11.605 16.175 12.359 L 16.205 21.619 L 7.795 21.619 L 7.795 12.359 C 7.855 11.503 8.41 10.794 9.165 10.502 Z M 14.045 6.329 C 14.045 5.999 14.095 3.999 14.095 3.999 C 14.104 3.778 14.048 3.559 13.935 3.369 L 13.785 3.449 L 11.155 4.999 C 10.521 5.304 10.129 5.956 10.155 6.659 L 10.155 10.359 L 13.995 10.359 C 14.027 10.358 14.06 10.357 14.092 10.357 Z M 8.795 20.619 L 15.205 20.619 L 15.205 18.659 L 8.795 18.659 Z M 15.205 12.359 C 15.142 11.768 14.629 11.329 14.035 11.359 L 9.975 11.359 C 9.363 11.313 8.832 11.777 8.795 12.389 L 8.795 17.659 L 15.205 17.659 Z"/>
</svg>
