<svg xmlns="http://www.w3.org/2000/svg" xmlns:xlink="http://www.w3.org/1999/xlink" viewBox="0 0 24 24">
  <defs>
    <clipPath id="a">
      <rect width="24" height="24"/>
    </clipPath>
  </defs>
  <title>outlined-finance-promotion</title>
  <g>
    <g style="opacity: 0">
      <g>
        <rect width="24" height="24"/>
        <g style="clip-path: url(#a)">
          <g>
            <rect width="24" height="24"/>
            <path d="M12,21.5A9.5,9.5,0,1,1,21.5,12,9.51,9.51,0,0,1,12,21.5Zm0-18A8.5,8.5,0,1,0,20.5,12,8.51,8.51,0,0,0,12,3.5Z"/>
          </g>
        </g>
      </g>
    </g>
    <g>
      <path d="M11.61,20.85c-3.95,0-7.16-2.4-7.16-5.35s2.06-9.91,7.16-9.91,7.16,7,7.16,9.91S15.56,20.85,11.61,20.85Zm0-14.16c-4.26,0-6.06,6.3-6.06,8.81,0,2.34,2.72,4.25,6.06,4.25s6.06-1.91,6.06-4.25C17.67,13,15.87,6.69,11.61,6.69Z"/>
      <path d="M9.84,7a.55.55,0,0,1-.49-.3L8,4.13a.54.54,0,0,1,.14-.67l1-.88a.54.54,0,0,1,.69,0l.67.53.8-.55a.54.54,0,0,1,.62,0l.8.55.67-.53a.54.54,0,0,1,.69,0l1,.88a.54.54,0,0,1,.14.67L14,6.72a.55.55,0,1,1-1-.5L14.14,4l-.37-.31-.63.5a.54.54,0,0,1-.65,0l-.83-.56-.82.56a.56.56,0,0,1-.66,0l-.63-.5L9.18,4l1.15,2.2a.55.55,0,0,1-.24.74A.57.57,0,0,1,9.84,7Z"/>
      <path d="M11.63,16.68a2,2,0,0,1-1.44-.57,2,2,0,0,1-.58-1.4.54.54,0,0,1,.55-.55h0a.55.55,0,0,1,.55.55.85.85,0,0,0,.87.87h0a.9.9,0,1,0,0-1.79,2,2,0,0,1-.06-4,2,2,0,0,1,2.08,2,.55.55,0,0,1-.55.55h0a.55.55,0,0,1-.55-.55.92.92,0,0,0-.9-.9.94.94,0,0,0-1,.9.92.92,0,0,0,.9.94,2,2,0,0,1,2.06,2,2,2,0,0,1-2,2Z"/>
      <path d="M11.61,17.69a.55.55,0,0,1-.55-.55v-1a.55.55,0,1,1,1.1,0v1A.55.55,0,0,1,11.61,17.69Z"/>
      <path d="M11.61,10.85a.55.55,0,0,1-.55-.55v-1a.55.55,0,0,1,1.1,0v1A.55.55,0,0,1,11.61,10.85Z"/>
    </g>
  </g>
</svg>
