<svg xmlns="http://www.w3.org/2000/svg" viewBox="0 0 24 24">
  <path d="M12.58 14.74H7.92a.5.5 0 010-1h4.66a.5.5 0 010 1zM14.92 11.93h-7a.5.5 0 010-1h7a.5.5 0 110 1zM14.92 9.12h-7a.5.5 0 01-.5-.5.5.5 0 01.5-.5h7a.51.51 0 01.5.5.5.5 0 01-.5.5z"/>
  <g>
    <path d="M6.16 20.09a1.66 1.66 0 01-1.66-1.66v-14a1.67 1.67 0 011.66-1.67h10.5a1.66 1.66 0 011.67 1.64v9.36h-1V4.4a.68.68 0 00-.19-.47.66.66 0 00-.47-.19H6.17a.67.67 0 00-.67.67v14a.63.63 0 00.2.47.63.63 0 00.47.19H12v1H6.16z"/>
    <path d="M15.5 21.76a4.5 4.5 0 114.5-4.5 4.5 4.5 0 01-4.5 4.5zm0-8a3.5 3.5 0 103.5 3.5 3.5 3.5 0 00-3.5-3.5z"/>
  </g>
  <g>
    <path d="M17.25 17.76h-3.5a.5.5 0 01-.5-.5.5.5 0 01.5-.5h3.5a.5.5 0 01.5.5.5.5 0 01-.5.5z"/>
    <path d="M15.5 19.51A.5.5 0 0115 19v-3.5a.5.5 0 111 0V19a.5.5 0 01-.5.51z"/>
  </g>
</svg>
