<svg xmlns="http://www.w3.org/2000/svg" viewBox="0 0 24 24">
  <path d="M11.61 20.85c-3.95 0-7.16-2.4-7.16-5.35s2.06-9.91 7.16-9.91 7.16 7 7.16 9.91-3.21 5.35-7.16 5.35zm0-14.16c-4.26 0-6.06 6.3-6.06 8.81 0 2.34 2.72 4.25 6.06 4.25s6.06-1.91 6.06-4.25c0-2.5-1.8-8.81-6.06-8.81z"/>
  <path d="M9.84 7a.55.55 0 01-.49-.3L8 4.13a.54.54 0 01.14-.67l1-.88a.54.54 0 01.69 0l.67.53.8-.55a.54.54 0 01.62 0l.8.55.67-.53a.54.54 0 01.69 0l1 .88a.54.54 0 01.14.67L14 6.72a.55.55 0 11-1-.5L14.14 4l-.37-.31-.63.5a.54.54 0 01-.65 0l-.83-.56-.82.56a.56.56 0 01-.66 0l-.63-.5-.37.31 1.15 2.2a.55.55 0 01-.24.74.57.57 0 01-.25.06zM11.63 16.68a2 2 0 01-1.44-.57 2 2 0 01-.58-1.4.54.54 0 01.55-.55.55.55 0 01.55.55.85.85 0 00.87.87.9.9 0 100-1.79 2 2 0 01-.06-4 2 2 0 012.08 2 .55.55 0 01-.55.55.55.55 0 01-.55-.55.92.92 0 00-.9-.9.94.94 0 00-1 .9.92.92 0 00.9.94 2 2 0 012.06 2 2 2 0 01-2 2z"/>
  <path d="M11.61 17.69a.55.55 0 01-.55-.55v-1a.55.55 0 111.1 0v1a.55.55 0 01-.55.55zM11.61 10.85a.55.55 0 01-.55-.55v-1a.55.55 0 011.1 0v1a.55.55 0 01-.55.55z"/>
</svg>
