<svg viewBox="0 0 24 24" xmlns="http://www.w3.org/2000/svg">
  <path d="M 7 12.19 L 7 8 C 7 7.615 7.417 7.375 7.75 7.567 C 7.905 7.656 8 7.821 8 8 L 8 12.22 C 8 14.365 9.617 15.95 11.5 16.193 L 11.5 14.94 L 11.4 14.94 C 10.019 14.94 8.9 13.821 8.9 12.44 L 8.9 5.19 C 8.905 3.812 10.022 2.695 11.4 2.69 L 12.6 2.69 C 13.978 2.695 15.095 3.812 15.1 5.19 L 15.1 12.44 C 15.1 13.821 13.981 14.94 12.6 14.94 L 12.5 14.94 L 12.5 16.195 C 13.006 16.13 13.514 15.965 14 15.684 C 15.238 14.97 16 13.649 16 12.22 L 16 8 C 16 7.615 16.417 7.375 16.75 7.567 C 16.905 7.656 17 7.821 17 8 L 17 12.22 C 16.985 14.801 15.016 16.916 12.5 17.165 L 12.5 20.31 L 15.38 20.31 C 15.656 20.31 15.88 20.534 15.88 20.81 C 15.875 21.084 15.654 21.305 15.38 21.31 L 8.62 21.31 C 8.346 21.305 8.125 21.084 8.12 20.81 C 8.12 20.534 8.344 20.31 8.62 20.31 L 11.5 20.31 L 11.5 17.165 C 8.974 16.914 7 14.782 7 12.19 Z M 11.4 3.69 C 10.574 3.695 9.905 4.364 9.9 5.19 L 9.9 8.32 L 14.1 8.32 L 14.1 5.19 C 14.095 4.364 13.426 3.695 12.6 3.69 Z M 9.9 9.32 L 9.9 12.44 C 9.9 13.268 10.572 13.94 11.4 13.94 L 12.6 13.94 C 13.428 13.94 14.1 13.268 14.1 12.44 L 14.1 9.32 Z"/>
</svg>
