<svg viewBox="0 0 24 24" xmlns="http://www.w3.org/2000/svg">
  <path d="M 12 21.52 C 4.672 21.52 0.091 13.587 3.755 7.24 C 7.42 0.893 16.58 0.893 20.245 7.24 C 21.08 8.687 21.52 10.329 21.52 12 C 21.514 17.255 17.255 21.514 12 21.52 Z M 12 3.52 C 5.472 3.52 1.392 10.587 4.656 16.24 C 7.92 21.893 16.08 21.893 19.344 16.24 C 20.088 14.951 20.48 13.489 20.48 12 C 20.48 7.317 16.683 3.52 12 3.52 Z M 7.5 17 C 7.367 17.002 7.24 16.947 7.15 16.85 C 6.948 16.66 6.948 16.34 7.15 16.15 L 11.3 12 L 7.15 7.85 C 6.881 7.581 7.004 7.121 7.372 7.022 C 7.543 6.976 7.725 7.025 7.85 7.15 L 12 11.3 L 16.15 7.15 C 16.419 6.881 16.879 7.004 16.978 7.372 C 17.024 7.543 16.975 7.725 16.85 7.85 L 12.7 12 L 16.85 16.15 C 17.052 16.34 17.052 16.66 16.85 16.85 C 16.76 16.947 16.633 17.002 16.5 17 C 16.367 17.002 16.24 16.947 16.15 16.85 L 12 12.7 L 7.85 16.85 C 7.76 16.947 7.633 17.002 7.5 17 Z"/>
</svg>
