<svg xmlns="http://www.w3.org/2000/svg" xmlns:xlink="http://www.w3.org/1999/xlink" viewBox="0 0 24 24">
  <defs>
    <clipPath id="a">
      <rect width="24" height="24" style="fill: none"/>
    </clipPath>
  </defs>
  <title>outlined-content-global</title>
  <g>
    <g style="opacity: 0">
      <g style="clip-path: url(#a)">
        <g>
          <rect width="24" height="24" style="fill: #ebebea"/>
          <path d="M12,21.5A9.5,9.5,0,1,1,21.5,12,9.51,9.51,0,0,1,12,21.5Zm0-18A8.5,8.5,0,1,0,20.5,12,8.51,8.51,0,0,0,12,3.5Z" style="fill: #afaeae"/>
        </g>
      </g>
    </g>
    <g>
      <path d="M12,22.5A10.5,10.5,0,1,1,22.5,12,10.51,10.51,0,0,1,12,22.5Zm0-20A9.5,9.5,0,1,0,21.5,12,9.51,9.51,0,0,0,12,2.5Z"/>
      <path d="M12,22.5C9.54,22.5,7.69,18,7.69,12S9.54,1.5,12,1.5,16.31,6,16.31,12,14.46,22.5,12,22.5Zm0-20c-1.57,0-3.31,3.9-3.31,9.5s1.74,9.5,3.31,9.5,3.31-3.9,3.31-9.5S13.57,2.5,12,2.5Z"/>
      <g>
        <path d="M20.79,7.73H3.21a.5.5,0,0,1-.5-.5.5.5,0,0,1,.5-.5H20.79a.5.5,0,0,1,.5.5A.5.5,0,0,1,20.79,7.73Z"/>
        <path d="M22,12.5H2a.5.5,0,0,1,0-1H22a.5.5,0,0,1,0,1Z"/>
        <path d="M20.79,17.27H3.21a.5.5,0,0,1-.5-.5.5.5,0,0,1,.5-.5H20.79a.5.5,0,0,1,.5.5A.5.5,0,0,1,20.79,17.27Z"/>
      </g>
    </g>
  </g>
</svg>
