<svg xmlns="http://www.w3.org/2000/svg" viewBox="0 0 24 24">
  <path d="M12 22.5A10.5 10.5 0 1122.5 12 10.51 10.51 0 0112 22.5zm0-20a9.5 9.5 0 109.5 9.5A9.51 9.51 0 0012 2.5z"/>
  <path d="M12 22.5C9.54 22.5 7.69 18 7.69 12S9.54 1.5 12 1.5 16.31 6 16.31 12 14.46 22.5 12 22.5zm0-20c-1.57 0-3.31 3.9-3.31 9.5s1.74 9.5 3.31 9.5 3.31-3.9 3.31-9.5S13.57 2.5 12 2.5z"/>
  <path d="M20.79 7.73H3.21a.5.5 0 01-.5-.5.5.5 0 01.5-.5h17.58a.5.5 0 01.5.5.5.5 0 01-.5.5zM22 12.5H2a.5.5 0 010-1h20a.5.5 0 010 1zM20.79 17.27H3.21a.5.5 0 01-.5-.5.5.5 0 01.5-.5h17.58a.5.5 0 01.5.5.5.5 0 01-.5.5z"/>
</svg>
