<svg xmlns="http://www.w3.org/2000/svg" xmlns:xlink="http://www.w3.org/1999/xlink" viewBox="0 0 24 24">
  <defs>
    <clipPath id="a">
      <rect width="24" height="24" style="fill: none"/>
    </clipPath>
  </defs>
  <title>outlined-content-channel</title>
  <g>
    <g style="opacity: 0">
      <g style="clip-path: url(#a)">
        <g>
          <rect width="24" height="24" style="fill: #ebebea"/>
          <path d="M12,21.5A9.5,9.5,0,1,1,21.5,12,9.51,9.51,0,0,1,12,21.5Zm0-18A8.5,8.5,0,1,0,20.5,12,8.51,8.51,0,0,0,12,3.5Z" style="fill: #afaeae"/>
        </g>
      </g>
    </g>
    <g>
      <path d="M12,22.5A10.5,10.5,0,1,1,22.5,12,10.51,10.51,0,0,1,12,22.5Zm0-20A9.5,9.5,0,1,0,21.5,12,9.51,9.51,0,0,0,12,2.5Z"/>
      <path d="M10.53,16.17a2,2,0,0,1-2-2V9.92a2,2,0,0,1,.28-1A2,2,0,0,1,10,8a2.07,2.07,0,0,1,1.54.21l3.6,2.07a2,2,0,0,1,.84.84,2,2,0,0,1-.84,2.74l-3.6,2.07a2.05,2.05,0,0,1-1,.27Zm0-7.26-.27,0a1,1,0,0,0-.63.48,1,1,0,0,0-.14.51v4.23a1,1,0,0,0,.31.72,1,1,0,0,0,.72.29h0a1,1,0,0,0,.5-.14L14.67,13a1,1,0,0,0,.45-1.39,1,1,0,0,0-.32-.36L11.06,9.05A1.07,1.07,0,0,0,10.54,8.91Z"/>
    </g>
  </g>
</svg>
