<svg viewBox="0 0 24 24" xmlns="http://www.w3.org/2000/svg">
  <path d="M 11.75 11.76 C 11.644 11.76 11.539 11.756 11.436 11.749 C 8.131 11.922 5.505 14.655 5.5 18 C 5.5 18.276 5.276 18.5 5 18.5 C 4.724 18.5 4.5 18.276 4.5 18 C 4.5 14.78 6.596 12.05 9.499 11.099 C 7.763 9.966 7.009 7.581 8.173 5.565 C 9.763 2.812 13.737 2.812 15.327 5.565 C 15.689 6.193 15.88 6.905 15.88 7.63 C 15.88 9.084 15.128 10.363 13.992 11.099 C 16.897 12.049 18.996 14.78 19 18 C 18.995 18.274 18.774 18.495 18.5 18.5 C 18.224 18.5 18 18.276 18 18 C 17.994 14.652 15.366 11.92 12.06 11.749 C 11.957 11.756 11.854 11.76 11.75 11.76 Z M 11.75 4.5 C 9.341 4.5 7.835 7.108 9.039 9.195 C 9.585 10.14 10.501 10.658 11.453 10.746 C 11.551 10.742 11.651 10.74 11.75 10.74 C 11.849 10.74 11.947 10.743 12.044 10.747 C 12.997 10.658 13.915 10.141 14.461 9.195 C 14.735 8.719 14.88 8.179 14.88 7.63 C 14.875 5.904 13.476 4.505 11.75 4.5 Z"/>
</svg>
