<svg viewBox="0 0 24 24" xmlns="http://www.w3.org/2000/svg">
  <path d="M 6 21 C 5.156 21 4.477 20.304 4.5 19.46 L 4.5 19.35 L 5.43 7.28 C 5.451 7.02 5.669 6.819 5.93 6.82 L 8.463 6.82 L 8.463 6 C 8.463 3.275 11.413 1.572 13.773 2.934 C 14.868 3.567 15.543 4.735 15.543 6 L 15.543 6.82 L 18.07 6.82 C 18.331 6.819 18.549 7.02 18.57 7.28 L 19.5 19.34 C 19.581 20.184 18.955 20.931 18.11 21 Z M 18.35 19.82 C 18.439 19.719 18.483 19.585 18.47 19.45 L 17.58 7.85 L 15.543 7.85 L 15.543 9.58 C 15.538 9.87 15.293 10.097 15.003 10.08 C 14.727 10.08 14.503 9.856 14.503 9.58 L 14.503 7.85 L 9.463 7.85 L 9.463 9.58 C 9.463 9.856 9.239 10.08 8.963 10.08 C 8.689 10.075 8.469 9.854 8.463 9.58 L 8.463 7.85 L 6.39 7.85 L 5.5 19.42 C 5.489 19.569 5.544 19.715 5.65 19.82 C 5.736 19.927 5.863 19.993 6 20 L 18 20 C 18.137 19.993 18.264 19.927 18.35 19.82 Z M 14.503 6 C 14.748 4.06 12.801 2.583 10.999 3.34 C 9.948 3.782 9.32 4.869 9.463 6 L 9.463 6.82 L 14.503 6.82 Z"/>
</svg>
