<svg viewBox="0 0 24 24" xmlns="http://www.w3.org/2000/svg">
  <path d="M 17.6 10.089 L 10.021 17.668 C 9.998 17.716 9.968 17.76 9.93 17.799 L 9.3 18.419 C 8.278 19.457 6.962 20.155 5.53 20.419 L 4.53 20.589 C 4.45 20.603 4.368 20.6 4.29 20.579 C 3.925 20.572 3.61 20.323 3.52 19.969 C 3.5 19.877 3.5 19.781 3.52 19.689 L 3.64 18.689 C 3.837 17.093 4.566 15.61 5.71 14.479 L 6.16 14.029 C 6.205 13.985 6.257 13.951 6.312 13.927 L 13.639 6.6 C 13.658 6.504 13.708 6.416 13.78 6.349 L 15.99 4.139 C 16.99 3.158 18.59 3.158 19.59 4.139 L 19.76 4.309 C 20.74 5.305 20.74 6.903 19.76 7.899 L 17.684 9.975 C 17.662 10.016 17.634 10.054 17.6 10.089 Z M 14.16 7.439 L 7.225 14.384 L 9.555 16.714 L 16.529 9.799 L 14.23 7.508 Z M 6.48 15.059 L 6.38 15.149 C 5.398 16.122 4.771 17.397 4.6 18.769 L 4.51 19.539 L 5.32 19.399 C 6.551 19.173 7.683 18.572 8.56 17.679 L 8.83 17.409 Z M 19.04 7.199 C 19.637 6.595 19.637 5.623 19.04 5.019 L 18.87 4.899 C 18.266 4.302 17.294 4.302 16.69 4.899 L 14.853 6.687 L 17.222 9.017 Z"/>
</svg>
