<svg viewBox="0 0 24 24" xmlns="http://www.w3.org/2000/svg">
  <path d="M 7.438 17.25 C 3.966 17.24 1.807 13.476 3.551 10.474 C 3.864 9.936 4.285 9.468 4.788 9.1 C 4.814 8.309 5.102 7.549 5.608 6.94 C 6.735 5.608 8.669 5.306 10.148 6.23 C 10.963 4.855 12.44 4.008 14.038 4 C 15.232 3.998 16.377 4.473 17.218 5.32 C 18.066 6.16 18.539 7.307 18.528 8.5 L 18.528 8.62 C 21.646 10.13 21.96 14.449 19.093 16.394 C 18.351 16.897 17.475 17.168 16.578 17.17 C 16.302 17.17 16.078 16.946 16.078 16.67 C 16.078 16.394 16.302 16.17 16.578 16.17 C 19.264 16.194 20.969 13.3 19.647 10.962 C 19.242 10.247 18.598 9.697 17.828 9.41 C 17.625 9.329 17.497 9.128 17.508 8.91 L 17.508 8.47 C 17.52 7.551 17.172 6.665 16.538 6 C 15.875 5.341 14.973 4.98 14.038 5 C 12.592 5.006 11.296 5.894 10.768 7.24 C 10.634 7.557 10.23 7.653 9.968 7.43 L 9.858 7.33 C 8.802 6.451 7.234 6.59 6.348 7.64 C 5.989 8.081 5.792 8.631 5.788 9.2 L 5.788 9.31 C 5.808 9.498 5.719 9.681 5.558 9.78 C 3.279 11.232 3.427 14.606 5.824 15.854 C 6.323 16.113 6.876 16.249 7.438 16.25 C 7.714 16.25 7.938 16.474 7.938 16.75 C 7.938 17.026 7.714 17.25 7.438 17.25 Z M 15.038 14 C 14.908 13.997 14.784 13.947 14.688 13.86 L 12.538 11.694 L 12.538 19.5 C 12.538 19.776 12.314 20 12.038 20 C 11.762 20 11.538 19.776 11.538 19.5 L 11.538 11.688 L 9.378 13.84 C 9.105 14.113 8.638 13.988 8.538 13.615 C 8.492 13.442 8.541 13.257 8.668 13.13 L 11.668 10.13 C 11.864 9.933 12.182 9.933 12.378 10.13 L 15.378 13.13 C 15.57 13.328 15.57 13.642 15.378 13.84 C 15.287 13.932 15.167 13.989 15.038 14 Z"/>
</svg>
