<svg xmlns="http://www.w3.org/2000/svg" viewBox="0 0 24 24">
  <title>outlined-navigation-close</title>
  <g>
    <rect width="24" height="24" style="opacity: 0"/>
    <g>
      <path d="M6,19.28a.47.47,0,0,1-.35-.14.5.5,0,0,1,0-.71L18.43,5.64a.51.51,0,0,1,.71,0,.5.5,0,0,1,0,.71L6.35,19.14A.46.46,0,0,1,6,19.28Z"/>
      <path d="M18.79,19.28a.5.5,0,0,1-.36-.14L5.65,6.35a.5.5,0,0,1,0-.71.5.5,0,0,1,.7,0L19.14,18.43a.5.5,0,0,1,0,.71A.47.47,0,0,1,18.79,19.28Z"/>
      <path d="M18.79,19.28a.5.5,0,0,1-.36-.14L5.65,6.35a.5.5,0,0,1,0-.71.5.5,0,0,1,.7,0L19.14,18.43a.5.5,0,0,1,0,.71A.47.47,0,0,1,18.79,19.28Z"/>
    </g>
  </g>
</svg>
