<svg xmlns="http://www.w3.org/2000/svg" viewBox="0 0 19.06 19.35">
  <path d="M6.18 16.08a1.67 1.67 0 01-1.18-.5l-4.5-4.5a1.68 1.68 0 010-2.37l8-8A1.67 1.67 0 019.57.22l2.67-.18a1.66 1.66 0 011.3.5l2.07 2.06a1.68 1.68 0 01.49 1.34l-.23 2.6a1.72 1.72 0 01-.49 1l-8 8a1.71 1.71 0 01-1.2.54zm3.05-14.7l-8 8a.68.68 0 000 1l4.5 4.5a.68.68 0 001 0l8-8a.62.62 0 00.2-.42l.23-2.6a.67.67 0 00-.19-.54L12.86 1.2a.66.66 0 00-.53-.2l-2.66.18a.67.67 0 00-.44.2z"/>
  <path d="M12.5 4.9a1.36 1.36 0 111.38-1.35A1.36 1.36 0 0112.5 4.9zm0-1.71a.36.36 0 100 .71.36.36 0 000-.71zM12.39 19.35a1.59 1.59 0 01-.74-.18l-5.71-2.8a2 2 0 01-.63-.62l.85-.52a.93.93 0 00.28.28l5.65 2.76a.67.67 0 00.52 0 .66.66 0 00.36-.3v-.05l5-10.21a.74.74 0 00.05-.46l-.6-2.5a.64.64 0 00-.36-.44l-2-.93.44-.91 2 .93a1.69 1.69 0 01.9 1.11l.63 2.54a1.67 1.67 0 01-.13 1.14l-5 10.22a1.67 1.67 0 01-1.5.94z"/>
</svg>
