<svg xmlns="http://www.w3.org/2000/svg" viewBox="0 0 24 24">
  <path d="M19.32 19.42H4.6a2.13 2.13 0 01-2.1-2.1V6.6a2.13 2.13 0 012.1-2.1h14.8a2.13 2.13 0 012.1 2.1v10.72a2.24 2.24 0 01-2.17 2.1zM19.4 5.5H4.6a1.11 1.11 0 00-1.1 1.1v10.72a1.11 1.11 0 001.1 1.1h14.71a1.23 1.23 0 001.19-1.14V6.6a1.11 1.11 0 00-1.1-1.1z"/>
  <path d="M20.39 9.5H3a.5.5 0 010-1h17.39a.5.5 0 010 1zM18.3 11.9H5.7a.51.51 0 01-.5-.5.5.5 0 01.5-.5h12.6a.5.5 0 01.5.5.51.51 0 01-.5.5zM12.08 14.38H5.36a.5.5 0 010-1h6.72a.5.5 0 010 1z"/>
</svg>
