<svg viewBox="0 0 24 24" xmlns="http://www.w3.org/2000/svg">
  <path d="M 12.9 13.81 L 12.9 13.86 C 12.927 14.211 12.723 14.539 12.397 14.672 C 11.819 14.906 11.204 14.428 11.29 13.81 L 11.29 13.74 C 11.306 13.31 11.671 12.977 12.1 13 C 12.546 13 12.906 13.364 12.9 13.81 Z M 12.9 16.67 C 12.911 16.689 12.911 16.711 12.9 16.73 C 12.924 17.08 12.719 17.406 12.393 17.536 C 11.815 17.769 11.202 17.287 11.29 16.67 L 11.29 16.61 C 11.306 16.179 11.669 15.843 12.1 15.86 C 12.541 15.871 12.895 16.229 12.9 16.67 Z M 8.38 15.86 C 8.811 15.876 9.147 16.239 9.13 16.67 L 9.13 16.73 C 9.114 17.161 8.751 17.497 8.32 17.48 L 8.25 17.48 C 7.82 17.464 7.487 17.099 7.51 16.67 L 7.51 16.61 C 7.526 16.179 7.889 15.843 8.32 15.86 Z M 15.87 13 C 16.298 13.022 16.631 13.381 16.62 13.81 C 16.599 14.236 16.256 14.575 15.83 14.59 C 15.384 14.607 15.011 14.256 15 13.81 L 15 13.74 C 15.016 13.31 15.381 12.977 15.81 13 Z M 20.23 9 L 20.23 17.68 C 20.219 18.907 19.227 19.899 18 19.91 L 6.17 19.91 C 4.957 19.888 3.989 18.893 4 17.68 L 4 8.89 C 4.043 7.702 5.042 6.775 6.23 6.82 L 6.84 6.82 C 6.94 6.81 7.012 6.72 7 6.62 L 7 5.94 C 7.005 5.446 7.416 5.053 7.91 5.07 L 9.6 5.07 C 10.047 5.07 10.41 5.433 10.41 5.88 L 10.41 6.6 C 10.425 6.696 10.514 6.762 10.61 6.75 L 13.49 6.75 C 13.59 6.74 13.662 6.65 13.65 6.55 L 13.65 5.88 C 13.655 5.4 14.04 5.011 14.52 5 L 16.21 5 C 16.694 5.005 17.085 5.396 17.09 5.88 L 17.09 6.6 C 17.1 6.699 17.192 6.768 17.29 6.75 L 17.9 6.75 C 19.152 6.76 20.177 7.749 20.23 9 Z M 9.33 6.15 L 8.18 6.15 C 8.11 6.15 8.11 6.15 8.11 6.21 L 8.11 6.75 L 9.33 6.75 Z M 16.07 6.75 L 16.07 6.21 C 16.07 6.15 16.07 6.15 16 6.15 L 14.86 6.15 C 14.8 6.15 14.8 6.15 14.8 6.21 L 14.8 6.75 Z M 19 9 C 19.006 8.415 18.579 7.915 18 7.83 L 6.23 7.83 C 5.594 7.846 5.085 8.364 5.08 9 L 5.08 17.7 C 5.096 18.328 5.602 18.834 6.23 18.85 L 17.9 18.85 C 18.528 18.834 19.034 18.328 19.05 17.7 L 19.05 9 Z M 9.06 10.67 L 8.72 11 L 9.01 11.35 C 9.09 11.449 9.09 11.591 9.01 11.69 C 8.915 11.815 8.738 11.842 8.61 11.75 L 8.28 11.41 L 7.95 11.74 C 7.844 11.809 7.706 11.809 7.6 11.74 C 7.493 11.628 7.493 11.452 7.6 11.34 L 7.93 11 L 7.6 10.66 C 7.52 10.561 7.52 10.419 7.6 10.32 C 7.695 10.195 7.872 10.168 8 10.26 L 8.36 10.6 L 8.7 10.26 C 8.801 10.163 8.959 10.163 9.06 10.26 C 9.129 10.388 9.129 10.542 9.06 10.67 Z M 9.02 13.5 L 8.68 13.84 L 9.01 14.18 C 9.09 14.279 9.09 14.421 9.01 14.52 C 8.915 14.645 8.738 14.672 8.61 14.58 L 8.28 14.24 L 7.95 14.57 C 7.844 14.639 7.706 14.639 7.6 14.57 C 7.488 14.46 7.488 14.28 7.6 14.17 L 7.93 13.83 L 7.6 13.49 C 7.52 13.391 7.52 13.249 7.6 13.15 C 7.698 13.03 7.871 13.004 8 13.09 L 8.36 13.43 L 8.7 13.09 C 8.801 12.993 8.959 12.993 9.06 13.09 C 9.117 13.225 9.102 13.379 9.02 13.5 Z M 12.84 10.67 L 12.5 11 L 12.88 11.34 C 12.905 11.355 12.925 11.375 12.94 11.4 C 13.026 11.529 13 11.702 12.88 11.8 C 12.751 11.886 12.578 11.86 12.48 11.74 L 12.14 11.4 L 11.8 11.74 C 11.698 11.81 11.562 11.81 11.46 11.74 C 11.34 11.642 11.314 11.469 11.4 11.34 L 11.74 11 L 11.4 10.66 C 11.33 10.558 11.33 10.422 11.4 10.32 C 11.495 10.195 11.672 10.168 11.8 10.26 L 12.14 10.6 L 12.48 10.26 C 12.581 10.163 12.739 10.163 12.84 10.26 C 12.909 10.388 12.909 10.542 12.84 10.67 Z M 16.61 10.66 L 16.27 11 L 16.65 11.34 C 16.72 11.442 16.72 11.578 16.65 11.68 C 16.552 11.8 16.379 11.826 16.25 11.74 L 15.91 11.4 L 15.58 11.74 C 15.478 11.81 15.342 11.81 15.24 11.74 C 15.11 11.648 15.082 11.466 15.18 11.34 L 15.51 11 L 15.11 10.66 L 15.05 10.6 C 14.964 10.471 14.99 10.298 15.11 10.2 C 15.238 10.108 15.415 10.135 15.51 10.26 L 15.85 10.6 L 16.19 10.26 C 16.291 10.163 16.449 10.163 16.55 10.26 C 16.68 10.33 16.68 10.53 16.61 10.66 Z"/>
</svg>
