<svg xmlns="http://www.w3.org/2000/svg" viewBox="0 0 24 24">
  <path d="M7.52 9.88a.51.51 0 01-.41-.2L5.91 8a.9.9 0 01-.19-.68.92.92 0 01.35-.65l5.22-4a.91.91 0 01.71-.16 1 1 0 01.63.35l2.61 3.39a.94.94 0 01.19.69.89.89 0 01-.35.62l-2.87 2.22a.5.5 0 01-.7-.09.5.5 0 01.08-.7l2.83-2.2-2.6-3.3-5.13 4 1.23 1.6a.51.51 0 01-.11.7.52.52 0 01-.29.09z"/>
  <path d="M14.76 9.85a.48.48 0 01-.42-.23.49.49 0 01.15-.69l1.74-1.13a.18.18 0 00.07-.25l-1.86-3.26a.17.17 0 00-.23 0l-.33.17a.5.5 0 01-.68-.2.5.5 0 01.21-.68l.33-.18a1.2 1.2 0 011.56.42l1.88 3.3a1.18 1.18 0 01-.42 1.57L15 9.77a.53.53 0 01-.24.08zM5.45 19.41a1 1 0 01-1-.92V8.73a.5.5 0 011 0v9.73l11.89-.05V16a.5.5 0 01.5-.5.5.5 0 01.5.5v2.48a1 1 0 01-1 .95H5.45z"/>
  <path d="M17.88 12.76a.5.5 0 01-.5-.5V9.84L5.81 9.9a.5.5 0 010-1h11.58a1 1 0 011 .91v2.45a.5.5 0 01-.51.5z"/>
  <path d="M5.7 9.89a1.26 1.26 0 01-1.2-1.41 1.42 1.42 0 011.08-1.43.51.51 0 01.61.37.5.5 0 01-.37.6.42.42 0 00-.32.43c0 .12 0 .44.2.44a.5.5 0 01.5.5.5.5 0 01-.5.5zM11.34 17.29a1.85 1.85 0 01-.8-.19 1.81 1.81 0 01-.9-1 1.88 1.88 0 01-.09-.57.5.5 0 01.5-.5.5.5 0 01.5.5.78.78 0 000 .26.77.77 0 00.4.45.74.74 0 00.6.05.84.84 0 00.54-.8.46.46 0 00-.26-.43l-1.42-.69a1.58 1.58 0 01-.87-1.41 1.74 1.74 0 011-1.6 1.8 1.8 0 012.59 1.62.5.5 0 01-1 0 .82.82 0 00-1.13-.76.74.74 0 00-.41.69.58.58 0 00.32.53l1.4.68a1.44 1.44 0 01.83 1.34 1.83 1.83 0 01-1.21 1.73 1.69 1.69 0 01-.59.1z"/>
  <path d="M11.35 18a.5.5 0 01-.5-.5v-.66a.5.5 0 01.5-.5.5.5 0 01.5.5v.66a.5.5 0 01-.5.5zM11.35 12.14a.5.5 0 01-.5-.5V11a.5.5 0 01.5-.5.5.5 0 01.5.5v.64a.51.51 0 01-.5.5zM18.56 16.13H15.7a.94.94 0 01-.94-.94v-2.14a1 1 0 01.93-.94h2.87a1 1 0 01.94.94v2.14a1 1 0 01-.94.94zm-.06-3.08l-2.8.06.06 2.08 2.74-.06zm.06 2.08z"/>
</svg>
