<svg xmlns="http://www.w3.org/2000/svg" viewBox="0 0 24 24">
  <title>outlined-content-education</title>
  <g>
    <rect width="24" height="24" style="fill: red;opacity: 0"/>
    <g>
      <path d="M12,13.76a1.26,1.26,0,0,1-.67-.19L3.67,9.89H3.46l-.19-.33a.62.62,0,0,1,.17-.67l.13-.1L11.37,5a1.26,1.26,0,0,1,1.3,0l7.66,3.75h.39l.05.58a.57.57,0,0,1-.39.55l-7.75,3.72A1.18,1.18,0,0,1,12,13.76ZM4.78,9.31l7,3.38a.32.32,0,0,0,.35,0l7.07-3.4-7-3.44a.32.32,0,0,0-.35,0Z"/>
      <path d="M12,19.54a1.4,1.4,0,0,1-.68-.19L7.25,17.42a1.45,1.45,0,0,1-.88-1.35V11h1v5a.48.48,0,0,0,.29.44l4.15,2a.32.32,0,0,0,.35,0l4.25-2a.67.67,0,0,0,.23-.48V11h1v5a1.66,1.66,0,0,1-.75,1.32l-4.26,2A1.17,1.17,0,0,1,12,19.54Z"/>
      <path d="M3.79,16.12a.5.5,0,0,1-.5-.5V9.39a.5.5,0,0,1,1,0v6.23A.5.5,0,0,1,3.79,16.12Z"/>
    </g>
  </g>
</svg>
