<svg xmlns="http://www.w3.org/2000/svg" xmlns:xlink="http://www.w3.org/1999/xlink" viewBox="0 0 24 24">
  <defs>
    <clipPath id="a">
      <rect width="24" height="24"/>
    </clipPath>
  </defs>
  <title>outlined-product-vegan</title>
  <g>
    <g style="opacity: 0">
      <g>
        <rect width="24" height="24"/>
        <g style="clip-path: url(#a)">
          <g>
            <rect width="24" height="24"/>
            <g>
              <circle cx="12" cy="12" r="9"/>
              <path d="M12,21.5A9.5,9.5,0,1,1,21.5,12,9.51,9.51,0,0,1,12,21.5Zm0-18A8.5,8.5,0,1,0,20.5,12,8.51,8.51,0,0,0,12,3.5Z"/>
            </g>
          </g>
        </g>
      </g>
    </g>
    <g>
      <path d="M9.26,5.62A14.63,14.63,0,0,0,6.49,4L6.15,3.9,6,4.2A13.83,13.83,0,0,0,4.48,7a9.39,9.39,0,0,0-.54,6.07,9.5,9.5,0,0,0,3.74,4.8,14.58,14.58,0,0,0,2.77,1.58l.34.14.21-.29a15.37,15.37,0,0,0,1.47-2.85A9.52,9.52,0,0,0,13,10.41,9.42,9.42,0,0,0,9.26,5.62ZM10.77,18,8.91,11.63a.46.46,0,0,0-.57-.31.46.46,0,0,0-.3.57H8l1.87,6.32c-1.47-.78-4.28-2.6-5.1-5.37a8.68,8.68,0,0,1,.5-5.46A14.35,14.35,0,0,1,6.49,5,14.36,14.36,0,0,1,8.75,6.38a8.66,8.66,0,0,1,3.39,4.31,8.72,8.72,0,0,1-.5,5.45A14.3,14.3,0,0,1,10.78,18Z"/>
      <path d="M20.43,9.31,20.29,9,19.93,9c-.17,0-4.09.76-5.62,3.56s0,6.5.06,6.65l.14.34.36-.07a6.8,6.8,0,0,0,.89-.22A7.9,7.9,0,0,0,20.49,16C22,13.15,20.5,9.46,20.43,9.31Zm-2.81,4.58a.44.44,0,0,0-.61.17h0l-2.12,3.87a7,7,0,0,1,.22-4.9c1.07-2,3.65-2.78,4.61-3,.32.94,1,3.55,0,5.51a6.9,6.9,0,0,1-4,2.85l2.11-3.87a.46.46,0,0,0-.17-.62Z"/>
    </g>
  </g>
</svg>
