<svg viewBox="0 0 24 24" xmlns="http://www.w3.org/2000/svg">
  <path d="M 21.007 12 C 21.007 13.58 20.591 15.132 19.801 16.5 C 16.337 22.5 7.677 22.5 4.213 16.5 C 0.749 10.5 5.079 3 12.007 3 C 16.978 3 21.007 7.029 21.007 12 Z M 19.737 11.84 C 19.704 7.599 16.248 4.183 12.007 4.2 C 10.64 4.193 9.295 4.547 8.108 5.226 C 2.917 8.196 2.888 15.673 8.056 18.684 C 13.224 21.695 19.714 17.981 19.737 12 Z M 13.087 8.22 C 13.048 8.8 12.587 9.261 12.007 9.3 C 11.457 9.228 11.036 8.774 11.007 8.22 C 11.007 7.668 11.455 7.22 12.007 7.22 C 12.57 7.228 13.036 7.659 13.087 8.22 Z M 12.757 10.81 L 12.757 16.22 C 12.757 16.488 12.614 16.736 12.382 16.87 C 11.882 17.158 11.257 16.797 11.257 16.22 L 11.257 10.8 C 11.262 10.39 11.597 10.06 12.007 10.06 C 12.398 10.111 12.706 10.419 12.757 10.81 Z"/>
</svg>
