<svg xmlns="http://www.w3.org/2000/svg" viewBox="0 0 24 24">
  <title>outlined-navigation-exit</title>
  <g>
    <rect width="24" height="24" style="opacity: 0"/>
    <g>
      <path d="M4.55,12.55h8.14a.54.54,0,0,0,.54-.53h0a.5.5,0,0,0-.46-.54H4.55L6.84,9.18A.51.51,0,0,0,7,8.85c0-.14-.07-.2-.13-.34a.53.53,0,0,0-.74,0L3.34,11.27A1,1,0,0,0,3,12a1.42,1.42,0,0,0,.27.74L6,15.51a.47.47,0,1,0,.67-.67Z"/>
      <path d="M16.86,4H10.2A2.23,2.23,0,0,0,8,6.15V8.38a.52.52,0,0,0,.52.53h0a.47.47,0,0,0,.53-.42.43.43,0,0,0,0-.05V6.15A1.13,1.13,0,0,1,10.18,5h6.68A1.14,1.14,0,0,1,18,6.13V17.86A1.15,1.15,0,0,1,16.88,19H10.2a1.13,1.13,0,0,1-1.14-1.13V15.64a.53.53,0,0,0-.53-.53h0a.49.49,0,0,0-.54.45v2.3A2.18,2.18,0,0,0,10.14,20H16.8A2.17,2.17,0,0,0,19,17.86V6.15A2.07,2.07,0,0,0,17,4Z"/>
    </g>
  </g>
</svg>
