<svg viewBox="0 0 24 24" xmlns="http://www.w3.org/2000/svg">
  <path d="M 10.395 21.495 C 9.821 21.486 9.278 21.231 8.905 20.795 C 7.375 19.125 6.445 14.415 6.405 8.145 C 6.402 8.009 6.456 7.878 6.555 7.785 C 6.648 7.692 6.773 7.638 6.905 7.635 L 8.566 7.635 L 8.785 6.085 C 8.828 5.843 9.039 5.666 9.285 5.665 L 9.645 5.665 L 9.645 3.005 C 9.645 2.729 9.869 2.505 10.145 2.505 L 13.845 2.505 C 14.121 2.505 14.345 2.729 14.345 3.005 L 14.345 5.665 L 14.705 5.665 C 14.95 5.662 15.16 5.842 15.195 6.085 L 15.414 7.635 L 17.095 7.635 C 17.227 7.638 17.352 7.692 17.445 7.785 C 17.541 7.88 17.595 8.01 17.595 8.145 C 17.545 14.485 16.595 19.145 15.115 20.805 C 14.735 21.243 14.185 21.495 13.605 21.495 Z M 7.395 8.635 C 7.505 15.415 8.615 19.005 9.625 20.135 C 9.815 20.364 10.098 20.495 10.395 20.495 L 13.605 20.495 C 13.897 20.495 14.175 20.367 14.365 20.145 C 15.365 19.005 16.485 15.395 16.585 8.635 Z M 13.345 3.505 L 10.645 3.505 L 10.645 5.665 L 13.345 5.665 Z M 14.265 6.665 L 10.167 6.665 C 10.152 6.666 10.136 6.666 10.121 6.665 L 9.725 6.665 L 9.587 7.635 L 14.403 7.635 Z"/>
</svg>
