<svg xmlns="http://www.w3.org/2000/svg" viewBox="0 0 24 24">
  <path d="M15.94 13.09H8.06A1.08 1.08 0 007 14.17V17a1.09 1.09 0 001.06 1h7.88A1.1 1.1 0 0017 17v-2.83a1.1 1.1 0 00-1.06-1.08zM8.1 17v-2.78l7.78-.05v2.73z"/>
  <path d="M19.3 5.07A1.68 1.68 0 0017.74 4H6.26a1.67 1.67 0 00-1.55 1.07L3.15 9.15A2.24 2.24 0 003.24 11a2 2 0 001.08 1v6.78A1.68 1.68 0 006 20.39h12a1.66 1.66 0 001.66-1.66V12a2 2 0 001.09-1 2.24 2.24 0 00.09-1.81zm-.75 13.65a.54.54 0 01-.53.54H6a.54.54 0 01-.53-.54v-6.65a2.17 2.17 0 001.36-.81 2.2 2.2 0 003.08.37 2.67 2.67 0 00.38-.37 2.19 2.19 0 003.08.37 2.59 2.59 0 00.37-.37 2.2 2.2 0 003.08.37 2.16 2.16 0 00.37-.37 2.21 2.21 0 001.37.81zm1.21-8.27a.92.92 0 01-.57.47 1.08 1.08 0 01-1.31-.78 1 1 0 010-.24v-.32a.67.67 0 10-1.33 0v.33a1.06 1.06 0 01-2.12 0v-.33a.67.67 0 00-.67-.67.66.66 0 00-.66.67v.32a1.07 1.07 0 01-2.13 0v-.33a.66.66 0 00-.7-.63.67.67 0 00-.63.63v.33a1.06 1.06 0 01-2.12 0v-.32A.66.66 0 006.79 9a.67.67 0 00-.63.63v.33a1.09 1.09 0 01-1.34 1 .88.88 0 01-.56-.47 1.13 1.13 0 010-.9l1.51-4.11a.54.54 0 01.5-.35h11.48a.54.54 0 01.5.35l1.56 4.08a1.1 1.1 0 01-.05.89z"/>
</svg>
