<svg xmlns="http://www.w3.org/2000/svg" viewBox="0 0 24 24">
  <path d="M17.71 16.78h-7.3A1.5 1.5 0 019 15.69L6.58 7.42A.49.49 0 016.67 7a.47.47 0 01.39-.2h12.67a1.49 1.49 0 011.5 1.5 1.84 1.84 0 01-.05.41l-2 7a1.5 1.5 0 01-1.47 1.07zm-10-9l2.2 7.64a.5.5 0 00.48.36h7.3a.5.5 0 00.48-.36l2-7a.36.36 0 000-.14.48.48 0 00-.5-.5z"/>
  <path d="M7.06 7.78a.5.5 0 01-.48-.37C6.26 6.2 5.46 4.5 4.7 4.5H3a.5.5 0 010-1h1.7c1.82 0 2.74 3.28 2.84 3.65a.49.49 0 01-.35.61zM11.33 21.49a2 2 0 112-2 2 2 0 01-2 2zm0-3a1 1 0 101 1 1 1 0 00-1-1zM16.93 21.49a2 2 0 112-2 2 2 0 01-2 2zm0-3a1 1 0 101 1 1 1 0 00-1-1zM13.87 14.08a.5.5 0 01-.5-.5v-4a.5.5 0 01.5-.5.5.5 0 01.5.5v4a.51.51 0 01-.5.5z"/>
  <path d="M15.87 12.08h-4a.5.5 0 01-.5-.5.5.5 0 01.5-.5h4a.5.5 0 01.5.5.51.51 0 01-.5.5z"/>
</svg>
