<svg xmlns="http://www.w3.org/2000/svg" xmlns:xlink="http://www.w3.org/1999/xlink" viewBox="0 0 24 24">
  <defs>
    <clipPath id="a">
      <rect width="24" height="24" style="fill: none"/>
    </clipPath>
  </defs>
  <title>outlined-content-produtivity</title>
  <g>
    <g style="opacity: 0">
      <g style="clip-path: url(#a)">
        <g>
          <rect width="24" height="24" style="fill: #ebebea"/>
          <path d="M12,21.5A9.5,9.5,0,1,1,21.5,12,9.51,9.51,0,0,1,12,21.5Zm0-18A8.5,8.5,0,1,0,20.5,12,8.51,8.51,0,0,0,12,3.5Z" style="fill: #afaeae"/>
        </g>
      </g>
    </g>
    <g>
      <g>
        <path d="M15,11.1a2.59,2.59,0,1,1,2.59-2.58A2.59,2.59,0,0,1,15,11.1Zm0-4.17a1.59,1.59,0,1,0,1.59,1.59A1.59,1.59,0,0,0,15,6.93Z"/>
        <path d="M15.92,14.49h-2a.79.79,0,0,1-.56-.23.82.82,0,0,1-.22-.55V12.62a.12.12,0,0,0-.07-.1,4.76,4.76,0,0,1-.69-.4.13.13,0,0,0-.12,0l-.93.53a.8.8,0,0,1-1.06-.25L9.19,10.53a.8.8,0,0,1,.25-1.06l1-.55a.08.08,0,0,0,.06-.1V8.45a1.83,1.83,0,0,1,0-.21s0-.09,0-.13,0-.14-.07-.16l-.92-.53a.8.8,0,0,1-.28-1.09l1-1.75a.81.81,0,0,1,.66-.37h0a.66.66,0,0,1,.45.17l.87.49a.2.2,0,0,0,.17,0,6.74,6.74,0,0,1,.64-.38c.07,0,.1-.07.1-.11V3.28a.75.75,0,0,1,.23-.55.76.76,0,0,1,.55-.23h2a.79.79,0,0,1,.56.23.82.82,0,0,1,.22.56V4.4a.11.11,0,0,0,.07.1,5.18,5.18,0,0,1,.69.4.13.13,0,0,0,.12,0l.93-.53a.8.8,0,0,1,1.06.25l1,1.78a.8.8,0,0,1-.24,1.07l-1,.55v0l-.07.12v.35a1.94,1.94,0,0,1,0,.24s0,.06,0,.1,0,.13,0,.15l1.08.62a.77.77,0,0,1,.09,1.08l-1,1.68a.82.82,0,0,1-1.09.27l-.92-.53a.12.12,0,0,0-.13,0,4.32,4.32,0,0,1-.67.38.14.14,0,0,0-.08.11v1.08a.79.79,0,0,1-.23.56A.8.8,0,0,1,15.92,14.49Zm-1.81-.78ZM12.29,11.1a1.13,1.13,0,0,1,.64.2,3,3,0,0,0,.51.3,1.11,1.11,0,0,1,.67,1v.88H15.7v-.86a1.12,1.12,0,0,1,.68-1,4.29,4.29,0,0,0,.5-.29,1.1,1.1,0,0,1,1.18-.06l.77.43.83-1.38-.74-.42a1.07,1.07,0,0,1-.56-1.09.61.61,0,0,1,0-.18.34.34,0,0,0,0-.1V8.17a1.07,1.07,0,0,1,.58-1l.73-.41-.82-1.39-.76.43a1.13,1.13,0,0,1-1.19,0,2.7,2.7,0,0,0-.52-.3,1.11,1.11,0,0,1-.66-1V3.5H14.15v.87a1.1,1.1,0,0,1-.68,1,5.61,5.61,0,0,0-.51.3,1.18,1.18,0,0,1-1.2.06L11,5.31l-.8,1.35.74.42a1.13,1.13,0,0,1,.57,1.06,2.15,2.15,0,0,1,0,.23v.39a1.07,1.07,0,0,1-.58,1l-.73.41L11,11.68l.76-.43A1.14,1.14,0,0,1,12.29,11.1Zm3.63,2.39ZM19,11.79Zm-8.19,0h0Zm9-1.65v0Zm-9.7-.1h0Zm0-3.2h0Zm9-1.59ZM13.93,3.5Zm1.81-.22h0Z"/>
      </g>
      <g>
        <path d="M11.1,21.63a1.74,1.74,0,0,1-.45-.06l-3.76-1.8a.75.75,0,0,0-.33-.07H5.67V16l.16-.15C7,14.73,7.3,14.73,7.44,14.73h3.7l3.85.52a1.56,1.56,0,0,1,1.07.5,1.59,1.59,0,0,1,.36.61L19.11,15a1.54,1.54,0,0,1,1.15-.22,1.59,1.59,0,0,1,1,.68l.12.22a1.84,1.84,0,0,1-1,2.19l-3,1.55-5.78,2.17A2.07,2.07,0,0,1,11.1,21.63ZM6.67,18.7a1.61,1.61,0,0,1,.65.17L11,20.64a1.26,1.26,0,0,0,.33,0L17,18.47,20,16.93a.86.86,0,0,0,.51-.95.62.62,0,0,0-.39-.26.61.61,0,0,0-.45.1l-3.37,1.76a1.83,1.83,0,0,1-1.89.75L11,17.86a.5.5,0,0,1-.43-.56.52.52,0,0,1,.57-.43l3.35.48a.87.87,0,0,0,1-.47.62.62,0,0,0-.59-.63l-3.84-.52H7.44s-.41.33-.77.65Z"/>
        <path d="M5.67,20.47H3.5a1,1,0,0,1-1-1V15.18a1,1,0,0,1,1-1H5.67a1,1,0,0,1,1,1v4.29A1,1,0,0,1,5.67,20.47ZM3.5,15.18v4.29H5.67V15.18Zm0-.5v.5h0Z"/>
      </g>
    </g>
  </g>
</svg>
