<svg xmlns="http://www.w3.org/2000/svg" viewBox="0 0 24 24">
  <path d="M12 13.76a1.26 1.26 0 01-.67-.19L3.67 9.89h-.21l-.19-.33a.62.62 0 01.17-.67l.13-.1L11.37 5a1.26 1.26 0 011.3 0l7.66 3.75h.39l.05.58a.57.57 0 01-.39.55l-7.75 3.72a1.18 1.18 0 01-.63.16zM4.78 9.31l7 3.38a.32.32 0 00.35 0l7.07-3.4-7-3.44a.32.32 0 00-.35 0z"/>
  <path d="M12 19.54a1.4 1.4 0 01-.68-.19l-4.07-1.93a1.45 1.45 0 01-.88-1.35V11h1v5a.48.48 0 00.29.44l4.15 2a.32.32 0 00.35 0l4.25-2a.67.67 0 00.23-.48V11h1v5a1.66 1.66 0 01-.75 1.32l-4.26 2a1.17 1.17 0 01-.63.22zM3.79 16.12a.5.5 0 01-.5-.5V9.39a.5.5 0 011 0v6.23a.5.5 0 01-.5.5z"/>
</svg>
