<svg viewBox="0 0 24 24" xmlns="http://www.w3.org/2000/svg">
  <path d="M 4.326 12.483 C 4.05 12.483 3.826 12.259 3.826 11.983 C 3.826 11.707 4.05 11.483 4.326 11.483 L 18.425 11.483 L 11.766 4.833 C 11.575 4.639 11.575 4.327 11.766 4.133 C 11.962 3.936 12.28 3.936 12.476 4.133 L 19.892 11.549 C 19.94 11.572 19.986 11.603 20.026 11.643 C 20.223 11.839 20.223 12.157 20.026 12.353 L 12.516 19.863 C 12.411 19.969 12.265 20.024 12.116 20.013 C 11.731 20.008 11.496 19.588 11.694 19.257 C 11.714 19.223 11.738 19.191 11.766 19.163 L 18.482 12.483 Z"/>
</svg>
