<svg xmlns="http://www.w3.org/2000/svg" viewBox="0 0 24 24">
  <path d="M8.92 21.13A1 1 0 018 20v-8.75a9.82 9.82 0 01.8-4.06 5.09 5.09 0 00.12-1.72.51.51 0 01.08-.39.53.53 0 01.38-.16H14a.51.51 0 01.37.16.52.52 0 01.13.39 5.2 5.2 0 00.13 1.8 9.49 9.49 0 01.8 4V20a1 1 0 01-.9 1.1zm1-15.21a5.8 5.8 0 01-.2 1.6A8.92 8.92 0 009 11.25V20a.41.41 0 000 .14h5.44v-8.89a8.69 8.69 0 00-.74-3.66 6.61 6.61 0 01-.22-1.67zM8 3h6.19M14.19 3.42H8a.42.42 0 010-.84h6.19a.42.42 0 010 .84zM13.57 5.26V3.04"/>
  <path d="M13.57 5.74a.47.47 0 01-.48-.48V3A.48.48 0 1114 3v2.26a.47.47 0 01-.43.48z"/>
  <g>
    <path d="M9.84 5.26V3.04M9.84 5.74a.47.47 0 01-.47-.48V3a.48.48 0 01.47-.48.49.49 0 01.48.48v2.26a.48.48 0 01-.48.48z"/>
  </g>
</svg>
