<svg xmlns="http://www.w3.org/2000/svg" viewBox="0 0 24 24">
  <path d="M12 16a4 4 0 01-4-4 4 4 0 014-4 4 4 0 014 4 4 4 0 01-1.17 2.85A4 4 0 0112 16zm-3.2-4A3.19 3.19 0 1012 8.75 3.19 3.19 0 008.76 12zM12 6.8a.46.46 0 01-.46-.46V3a.46.46 0 01.46-.46.47.47 0 01.46.46v3.34a.47.47 0 01-.46.46zM12 21.35a.45.45 0 01-.46-.46v-3.34a.46.46 0 01.46-.46.47.47 0 01.46.46v3.34a.46.46 0 01-.46.46zM6.34 12.41H3a.47.47 0 010-.93h3.34a.47.47 0 010 .93zM20.89 12.41h-3.34a.47.47 0 010-.93h3.34a.47.47 0 010 .93zM5.59 18.77a.47.47 0 01-.32-.14.46.46 0 010-.65l2.35-2.36a.49.49 0 01.66 0 .47.47 0 010 .66l-2.36 2.35a.47.47 0 01-.33.14zM15.94 8.43a.47.47 0 01-.33-.14.46.46 0 010-.65L18 5.28a.46.46 0 11.65.65l-2.39 2.36a.47.47 0 01-.32.14zM8 8.42a.44.44 0 01-.32-.13L5.27 5.93a.46.46 0 01.65-.65l2.36 2.36a.46.46 0 01-.28.78zM18.3 18.77a.47.47 0 01-.33-.14l-2.36-2.36a.46.46 0 010-.65.47.47 0 01.66 0L18.62 18a.46.46 0 010 .65.45.45 0 01-.32.12z"/>
</svg>
