<svg xmlns="http://www.w3.org/2000/svg" viewBox="0 0 24 24">
  <path d="M17.83 21.5H6.17a1.61 1.61 0 01-1.6-1.63v-6.7a1.59 1.59 0 01-1.16-1.5V9.55A1.62 1.62 0 015 7.94h1.78a4.14 4.14 0 01-.37-.46 2.59 2.59 0 01-.27-2.08 2.89 2.89 0 012.77-2.15 2.42 2.42 0 01.75.1 3.91 3.91 0 012.25 2.17 4.88 4.88 0 012.76-2.91 3.24 3.24 0 01.82-.11 3.2 3.2 0 013.08 2.37 2.82 2.82 0 01-.3 2.28 4.41 4.41 0 01-.69.8H19a1.59 1.59 0 011.57 1.6v2.09a1.6 1.6 0 01-1.15 1.54v6.72a1.62 1.62 0 01-1.61 1.6zM5 8.94a.62.62 0 00-.6.61v2.11a.61.61 0 00.6.59.55.55 0 01.56.5v7.13a.6.6 0 00.6.62h11.67a.61.61 0 00.61-.61v-7.15a.5.5 0 01.5-.5.61.61 0 00.65-.6V9.55A.6.6 0 0019 9h-3.16a.49.49 0 01-.49-.41.51.51 0 01.32-.59 3.67 3.67 0 001.76-1.37 1.84 1.84 0 00.18-1.47A2.19 2.19 0 0015.5 3.5a2.79 2.79 0 00-.58.07C14 3.82 13.09 5 12.41 7a.5.5 0 01-.47.33.5.5 0 01-.47-.33c-.57-1.54-1.31-2.48-2.07-2.69a1.74 1.74 0 00-.4-.06 1.92 1.92 0 00-1.9 1.42 1.61 1.61 0 00.15 1.27A2.92 2.92 0 008.53 8a.5.5 0 01-.2 1z"/>
  <path d="M7.79 7.94h10.42v1H7.79zM19 13.24H4.73a.5.5 0 110-1H19a.5.5 0 010 1z"/>
  <path d="M10.5 21.5a.5.5 0 01-.5-.5V8.51a.5.5 0 01.5-.5.51.51 0 01.5.5V21a.5.5 0 01-.5.5zM13.71 21.5a.5.5 0 01-.5-.5V8.51a.51.51 0 01.5-.5.5.5 0 01.5.5V21a.5.5 0 01-.5.5z"/>
  <path d="M10.57 8.48l-.83-.56a3.25 3.25 0 012.33-1.45 2.74 2.74 0 012.2 1.45l-.83.56a2 2 0 00-1.37-1 2.25 2.25 0 00-1.5 1z"/>
</svg>
