<svg xmlns="http://www.w3.org/2000/svg" viewBox="0 0 24 24">
  <path d="M12 6.06a.5.5 0 01-.5-.5V3a.5.5 0 011 0v2.56a.5.5 0 01-.5.5zM6.72 8.16A.47.47 0 016.37 8L4.54 6.19a.49.49 0 010-.7.5.5 0 01.71 0L7.07 7.3a.5.5 0 010 .71.47.47 0 01-.35.15zM17.28 8.16a.49.49 0 01-.35-.16.5.5 0 010-.71l1.83-1.82a.5.5 0 01.71 0 .49.49 0 010 .7L17.63 8a.47.47 0 01-.35.16zM21 13.21h-1.59a.5.5 0 010-1H21a.5.5 0 010 1zM4.59 13.21H3a.5.5 0 010-1h1.59a.5.5 0 010 1zM17 18.21v-.5.5H7.07a.51.51 0 01-.5-.5v-5.28A5.41 5.41 0 0112 7.16a5.37 5.37 0 015.47 5.24v5.31a.48.48 0 01-.16.36.49.49 0 01-.31.14zm-9.42-1h8.92v-4.8A4.34 4.34 0 0012 8.16a4.38 4.38 0 00-4.47 4.28z"/>
  <path d="M19.76 21.5H4.24a.5.5 0 01-.5-.5v-1.48a2.31 2.31 0 012.34-2.26h11.85a2.33 2.33 0 012.33 2.25V21a.5.5 0 01-.5.5zm-15-1h14.5v-1a1.33 1.33 0 00-1.32-1.26H6.07a1.31 1.31 0 00-1.33 1.28z"/>
  <path d="M13 18.21h-2a.5.5 0 01-.5-.5v-4.6a1.5 1.5 0 013 0v4.63a.5.5 0 01-.14.35.53.53 0 01-.36.12zm-1.5-1h1v-4.1a.53.53 0 00-.51-.47.51.51 0 00-.49.49z"/>
</svg>
