<svg xmlns="http://www.w3.org/2000/svg" viewBox="0 0 24 24">
  <path d="M10.85 20a.5.5 0 01-.5-.5.5.5 0 01.5-.5 7.73 7.73 0 003.38-14.73A7.73 7.73 0 003.9 7.84.5.5 0 013 7.4a8.72 8.72 0 0111.67-4A8.73 8.73 0 0110.85 20z"/>
  <path d="M3.45 8.12A.47.47 0 013.17 8 .47.47 0 013 7.63l-.12-2.78a.52.52 0 01.49-.51.49.49 0 01.51.49l.05 2.08 1.95-.72a.5.5 0 01.35.94l-2.61 1zM11.2 11.73a.51.51 0 01-.5-.5V9a.51.51 0 01.5-.5.5.5 0 01.5.5v2.2a.5.5 0 01-.5.53z"/>
  <path d="M13.4 11.73h-2.2a.51.51 0 01-.5-.5.5.5 0 01.5-.5h2.2a.5.5 0 01.5.5.51.51 0 01-.5.5z"/>
  <path d="M11.23 16.35a5.13 5.13 0 115.12-5.12 5.13 5.13 0 01-5.12 5.12zm0-9.25a4.13 4.13 0 104.12 4.13 4.13 4.13 0 00-4.12-4.13z"/>
  <g>
    <path d="M21 20H3a.5.5 0 010-1h18a.5.5 0 010 1z"/>
    <path d="M18.46 21.77a.49.49 0 01-.41-.21.5.5 0 01.12-.7l2-1.41-2-1.41a.51.51 0 01-.11-.7.5.5 0 01.69-.11L21.29 19a.51.51 0 010 .82l-2.54 1.82a.52.52 0 01-.29.13z"/>
  </g>
</svg>
