<svg viewBox="0 0 24 24" xmlns="http://www.w3.org/2000/svg">
  <path d="M 9.912 17.56 C 4.138 17.56 0.53 11.31 3.417 6.31 C 6.304 1.31 13.52 1.31 16.407 6.31 C 17.065 7.45 17.412 8.743 17.412 10.06 C 17.409 11.914 16.735 13.61 15.62 14.919 L 21.452 20.59 C 21.648 20.782 21.648 21.098 21.452 21.29 C 21.357 21.386 21.227 21.44 21.092 21.44 C 20.961 21.442 20.835 21.391 20.742 21.3 L 14.919 15.638 C 13.592 16.831 11.837 17.557 9.912 17.56 Z M 9.912 3.56 C 4.908 3.56 1.781 8.977 4.283 13.31 C 6.492 17.135 11.624 17.583 14.518 14.656 C 14.534 14.633 14.552 14.611 14.572 14.59 C 14.59 14.572 14.609 14.555 14.629 14.541 C 14.969 14.179 15.276 13.769 15.541 13.31 C 16.112 12.322 16.412 11.201 16.412 10.06 C 16.412 6.47 13.502 3.56 9.912 3.56 Z"/>
</svg>
