<svg viewBox="0 0 24 24" xmlns="http://www.w3.org/2000/svg">
  <path d="M 12.049 15.905 C 9.085 15.905 7.233 12.697 8.715 10.13 C 10.197 7.563 13.901 7.563 15.383 10.13 C 15.721 10.715 15.899 11.379 15.899 12.055 C 15.899 14.181 14.175 15.905 12.049 15.905 Z M 12.049 9.205 C 9.855 9.205 8.484 11.58 9.581 13.48 C 10.678 15.38 13.42 15.38 14.517 13.48 C 14.767 13.047 14.899 12.555 14.899 12.055 C 14.894 10.483 13.621 9.21 12.049 9.205 Z M 13.679 21.765 L 10.259 21.765 C 9.707 21.765 9.259 21.317 9.259 20.765 L 9.259 18.995 C 9.268 18.799 9.168 18.615 8.999 18.515 C 8.614 18.339 8.246 18.128 7.899 17.885 C 7.727 17.781 7.511 17.781 7.339 17.885 L 5.739 18.765 C 5.271 19.043 4.667 18.897 4.379 18.435 L 2.639 15.305 C 2.373 14.832 2.532 14.233 2.999 13.955 L 4.599 13.045 C 4.786 12.953 4.895 12.752 4.869 12.545 L 4.869 11.955 C 4.86 11.852 4.86 11.748 4.869 11.645 C 4.874 11.555 4.874 11.465 4.869 11.375 C 4.914 11.135 4.806 10.893 4.599 10.765 L 2.999 9.925 C 2.524 9.643 2.367 9.03 2.649 8.555 L 4.429 5.605 C 4.609 5.325 4.916 5.152 5.249 5.145 C 5.451 5.145 5.645 5.224 5.789 5.365 L 7.299 6.215 C 7.493 6.33 7.735 6.33 7.929 6.215 C 8.251 5.997 8.585 5.797 8.929 5.615 C 9.136 5.533 9.277 5.338 9.289 5.115 L 9.289 3.235 C 9.289 2.683 9.737 2.235 10.289 2.235 L 13.709 2.235 C 14.261 2.235 14.709 2.683 14.709 3.235 L 14.709 5.125 C 14.713 5.336 14.837 5.527 15.029 5.615 C 15.414 5.791 15.782 6.002 16.129 6.245 C 16.301 6.349 16.517 6.349 16.689 6.245 L 18.259 5.355 C 18.724 5.075 19.328 5.217 19.619 5.675 L 21.359 8.675 C 21.619 9.146 21.46 9.738 20.999 10.015 L 19.399 10.915 C 19.212 11.007 19.103 11.208 19.129 11.415 C 19.129 11.545 19.129 12.305 19.129 12.415 C 19.124 12.488 19.124 12.562 19.129 12.635 C 19.083 12.853 19.184 13.076 19.379 13.185 L 20.959 14.085 C 21.045 14.129 21.125 14.183 21.199 14.245 C 21.563 14.589 21.589 15.159 21.259 15.535 L 19.579 18.405 C 19.291 18.867 18.687 19.013 18.219 18.735 L 16.649 17.845 C 16.472 17.745 16.256 17.745 16.079 17.845 C 15.74 18.086 15.378 18.294 14.999 18.465 C 14.799 18.553 14.667 18.747 14.659 18.965 L 14.659 20.815 C 14.633 21.34 14.205 21.755 13.679 21.765 Z M 7.569 16.765 C 7.883 16.764 8.19 16.858 8.449 17.035 C 8.736 17.244 9.044 17.421 9.369 17.565 C 9.925 17.809 10.285 18.358 10.289 18.965 L 10.289 20.805 L 13.679 20.805 L 13.679 18.995 C 13.682 18.379 14.052 17.825 14.619 17.585 C 14.937 17.441 15.239 17.264 15.519 17.055 C 16.005 16.726 16.633 16.695 17.149 16.975 L 18.739 17.875 L 20.469 14.955 L 18.909 14.075 C 18.369 13.786 18.062 13.193 18.139 12.585 C 18.131 12.485 18.131 12.385 18.139 12.285 C 18.144 12.212 18.144 12.138 18.139 12.065 L 18.139 11.485 C 18.093 10.869 18.436 10.29 18.999 10.035 L 20.559 9.155 L 18.759 6.225 L 17.179 7.135 C 16.666 7.425 16.032 7.393 15.549 7.055 C 15.257 6.853 14.95 6.676 14.629 6.525 C 14.068 6.287 13.705 5.735 13.709 5.125 L 13.709 3.235 L 10.319 3.235 L 10.319 5.045 C 10.314 5.658 9.944 6.209 9.379 6.445 C 9.079 6.605 8.759 6.785 8.459 6.985 C 7.963 7.315 7.325 7.346 6.799 7.065 L 5.219 6.165 L 3.559 9.055 L 5.109 9.945 C 5.625 10.248 5.923 10.818 5.879 11.415 C 5.888 11.535 5.888 11.655 5.879 11.775 C 5.875 11.835 5.875 11.895 5.879 11.955 L 5.879 12.485 C 5.918 13.102 5.566 13.678 4.999 13.925 L 3.479 14.765 L 5.239 17.875 L 6.819 16.945 C 7.049 16.822 7.308 16.76 7.569 16.765 Z"/>
</svg>
