<svg xmlns="http://www.w3.org/2000/svg" viewBox="0 0 24 24">
  <path d="M13.62 11.07h-3.7a.51.51 0 01-.46-.3L5.54 1.7a.49.49 0 010-.47A.48.48 0 016 1h3.58a.5.5 0 01.45.3l4 9.07a.47.47 0 010 .47.5.5 0 01-.41.23zm-3.37-1h2.6L9.25 2H6.76z"/>
  <path d="M14 11.07h-3.62a.51.51 0 01-.5-.5.5.5 0 01.5-.5h3.26L17.23 2h-2.59l-1 2.44a.5.5 0 01-.93-.39l1.16-2.74a.49.49 0 01.44-.31H18a.5.5 0 01.42.23.49.49 0 010 .47l-4 9.07a.51.51 0 01-.42.3z"/>
  <path d="M15.58 15a.5.5 0 01-.5-.5v-3.2H8.69v3.2a.5.5 0 01-.5.5.51.51 0 01-.5-.5v-3.7a.5.5 0 01.5-.5h7.39a.5.5 0 01.5.5v3.7a.51.51 0 01-.5.5z"/>
  <path d="M11.88 23a5.27 5.27 0 010-10.54 5.27 5.27 0 010 10.54zm0-9.54a4.27 4.27 0 000 8.54 4.27 4.27 0 000-8.54z"/>
</svg>
