<svg xmlns="http://www.w3.org/2000/svg" viewBox="0 0 24 24">
  <title>outlined-content-divulgation</title>
  <g>
    <g style="opacity: 0">
      <rect width="24" height="24" style="fill: #fc0000"/>
    </g>
    <g>
      <g>
        <g>
          <path d="M18.28,18.72a2.31,2.31,0,0,0,2.3-2.3h0A2.31,2.31,0,0,1,18.28,18.72Z" style="fill: #fff"/>
          <path d="M18.28,4.12H16v1h2.3a1.8,1.8,0,0,1,1.8,1.8v9.5a1.81,1.81,0,0,1-1.8,1.8h-6.8v1h6.8a2.81,2.81,0,0,0,2.8-2.8V6.92a2.8,2.8,0,0,0-2.8-2.8Z"/>
        </g>
        <g>
          <path d="M7.68,4.92a2.39,2.39,0,0,1,1.19-.3h0a2.43,2.43,0,0,0-1.2.3Z" style="fill: #fff"/>
          <path d="M8.87,4.12a2.83,2.83,0,0,0-1.93.73l.67.74a1.85,1.85,0,0,1,1.25-.47h.82v-1H8.87Z"/>
        </g>
      </g>
      <g>
        <g>
          <path d="M7.55,19.61a1.59,1.59,0,0,0,.3-.06l9.07-2.43a2.57,2.57,0,0,0,.63-.28,2.57,2.57,0,0,1-.63.28L7.85,19.55A1.59,1.59,0,0,1,7.55,19.61ZM5.4,18.69A2,2,0,0,1,5,17.92L2.59,8.84A2.29,2.29,0,0,1,4.22,6L13.3,3.59a2.13,2.13,0,0,1,.44-.07,2.13,2.13,0,0,0-.44.07L4.22,6A2.29,2.29,0,0,0,2.59,8.84L5,17.92A2,2,0,0,0,5.4,18.69Zm12.84-2.51Zm.08-.14a.41.41,0,0,0,.05-.09l-.13.23Zm.31-1.15a2.33,2.33,0,0,0-.08-.59L16.12,5.22a2.39,2.39,0,0,0-.29-.65,2.39,2.39,0,0,1,.29.65l2.43,9.08A2.33,2.33,0,0,1,18.63,14.89Z" style="fill: #fff"/>
          <path d="M13.89,3a2.55,2.55,0,0,0-.72.1L4.09,5.54A2.81,2.81,0,0,0,2.11,9l2.43,9.08a2.82,2.82,0,0,0,2.71,2.08A2.55,2.55,0,0,0,8,20l9.08-2.43a2.82,2.82,0,0,0,2-3.43L16.6,5.09A2.82,2.82,0,0,0,13.89,3ZM7.25,19.13a1.79,1.79,0,0,1-1.74-1.34L3.08,8.71a1.8,1.8,0,0,1,1.27-2.2l9.08-2.43A1.47,1.47,0,0,1,13.89,4a1.79,1.79,0,0,1,1.74,1.34l2.44,9.08a1.79,1.79,0,0,1-1.28,2.2L7.72,19.07a2,2,0,0,1-.47.06Z"/>
        </g>
        <g>
          <g>
            <path d="M14.77,16a.37.37,0,0,1-.18-.05.38.38,0,0,1-.18-.23l-.7-2.61a.38.38,0,0,1,.27-.46l1.93-.52a.34.34,0,0,1,.28,0,.38.38,0,0,1,.18.23L16.81,14a1.3,1.3,0,0,1-.14,1,1.38,1.38,0,0,1-.83.65l-1,.25Zm-.24-2.72L15,15.14l.6-.16a.62.62,0,0,0,.38-.29.56.56,0,0,0,.06-.47l-.34-1.28Z" style="fill: #fff"/>
            <path d="M16,12.1h-.1L14,12.63a.38.38,0,0,0-.27.46l.7,2.61a.38.38,0,0,0,.18.23.37.37,0,0,0,.18.05l.1,0,1-.25a1.38,1.38,0,0,0,.83-.65,1.3,1.3,0,0,0,.14-1l-.44-1.64a.38.38,0,0,0-.18-.23A.37.37,0,0,0,16,12.1Zm-1,3-.51-1.88,1.21-.32.34,1.28a.56.56,0,0,1-.06.47.62.62,0,0,1-.38.29l-.6.16Z"/>
          </g>
          <g>
            <path d="M15.78,12.89a.37.37,0,0,1-.36-.27l-.4-1.4-.75.26a.38.38,0,0,1-.19-.73l.8-.2a.8.8,0,0,1,.82.38l.44,1.48a.39.39,0,0,1-.26.47Z" style="fill: #fff"/>
            <path d="M15,10.54h-.13l-.8.2a.38.38,0,0,0-.27.46.38.38,0,0,0,.37.28h.09l.75-.26.4,1.4a.37.37,0,0,0,.36.27h.1a.39.39,0,0,0,.26-.47l-.44-1.48a.77.77,0,0,0-.69-.39Z"/>
          </g>
          <g>
            <path d="M15.08,11.19a.38.38,0,0,1-.36-.26l-.32-1-.26.26a.37.37,0,0,1-.53-.53l.7-.7a.39.39,0,0,1,.36-.1.38.38,0,0,1,.26.25l.5,1.61a.37.37,0,0,1-.24.47Z" style="fill: #fff"/>
            <path d="M14.58,8.84a.39.39,0,0,0-.27.11l-.7.7a.37.37,0,0,0,0,.53.35.35,0,0,0,.27.11.34.34,0,0,0,.26-.11l.26-.26.32,1a.38.38,0,0,0,.36.26h.11a.37.37,0,0,0,.24-.47l-.5-1.61a.38.38,0,0,0-.26-.25Z"/>
          </g>
          <g>
            <path d="M7.38,7.69A.38.38,0,0,1,7,7.41.37.37,0,0,1,7.28,7l3.4-.91a.38.38,0,1,1,.19.73l-3.4.9Z" style="fill: #fff"/>
            <path d="M10.78,6h-.1L7.28,7A.37.37,0,0,0,7,7.41a.38.38,0,0,0,.37.28h.09l3.4-.9A.38.38,0,0,0,10.78,6Z"/>
          </g>
          <g>
            <path d="M8.38,8.09A.38.38,0,0,1,8,7.84l-.2-.6a.39.39,0,0,1,.26-.49l2.3-.6a.4.4,0,0,1,.3,0,.39.39,0,0,1,.17.26l.1.6a.39.39,0,0,1-.31.43.38.38,0,0,1-.43-.31l0-.2-1.51.4.07.22a.37.37,0,0,1-.23.47A.25.25,0,0,1,8.38,8.09Z" style="fill: #fff"/>
            <path d="M10.47,6.14h-.09l-2.3.6a.39.39,0,0,0-.26.49l.2.6a.38.38,0,0,0,.36.25.25.25,0,0,0,.12,0,.37.37,0,0,0,.23-.47l-.07-.22L10.17,7l0,.2a.38.38,0,0,0,.37.31h.06A.39.39,0,0,0,11,7.06l-.1-.6a.39.39,0,0,0-.17-.26.37.37,0,0,0-.21-.06Z"/>
          </g>
          <g>
            <path d="M10.68,17h-.4a.37.37,0,0,1-.31-.16l-.7-1A5.78,5.78,0,0,1,8.2,12.41V11a3,3,0,0,0-.62-1.87.4.4,0,0,1-.08-.23v-.2a.38.38,0,0,1,.29-.37l4-1a.41.41,0,0,1,.32.07.37.37,0,0,1,.14.3v.2a.28.28,0,0,1,0,.09,2.91,2.91,0,0,0,.18,2L13,11a5.74,5.74,0,0,1,.75,3.52v1.26a.78.78,0,0,1-.59.66l-1.09.3a.39.39,0,0,1-.26,0l-.07,0-1,.26Zm-.21-.75h.16l1-.28a.33.33,0,0,1,.26,0L12,16l1-.26,0-1.24a5,5,0,0,0-.65-3.11l-.6-1.11a3.71,3.71,0,0,1-.31-2.09L8.38,9A3.68,3.68,0,0,1,9,11v1.4a5,5,0,0,0,.93,3Z" style="fill: #fff"/>
            <path d="M11.87,7.34h-.08l-4,1a.38.38,0,0,0-.29.37v.2a.4.4,0,0,0,.08.23A3,3,0,0,1,8.2,11v1.39a5.78,5.78,0,0,0,1.07,3.42l.7,1a.37.37,0,0,0,.31.16h.49l1-.26.07,0a.33.33,0,0,0,.17,0h.09l1.09-.3a.78.78,0,0,0,.59-.66V14.56A5.74,5.74,0,0,0,13,11L12.42,10a2.91,2.91,0,0,1-.18-2,.28.28,0,0,0,0-.09v-.2a.37.37,0,0,0-.14-.3.41.41,0,0,0-.24-.08Zm-.43.87a3.71,3.71,0,0,0,.31,2.09l.6,1.11A5,5,0,0,1,13,14.52l0,1.24L12,16l-.08,0a.47.47,0,0,0-.16,0l-.1,0-1,.28h-.16l-.59-.84a5,5,0,0,1-.93-3V11a3.68,3.68,0,0,0-.57-2l3.06-.77Z"/>
          </g>
          <g>
            <path d="M7.08,16.89a.38.38,0,0,1-.37-.28l-.9-3.4-.18-.45-.58-.95a.38.38,0,0,1,0-.33s0,0,0-.06v0l-.32-.74a.37.37,0,0,1,0-.31.39.39,0,0,1,.25-.2l1.59-.4A.39.39,0,0,1,7,10a.37.37,0,0,1-.27.45l-1.18.29.13.3,1.16-.32a.39.39,0,0,1,.46.27.39.39,0,0,1-.25.46l-1.15.35.36.59.22.56.83,3.09.94-.22a.37.37,0,0,1,.45.28.37.37,0,0,1-.28.45l-1.3.3Z" style="fill: #fff"/>
            <path d="M6.67,9.74H6.58L5,10.15a.39.39,0,0,0-.25.2.37.37,0,0,0,0,.31l.32.74v0s0,0,0,.06a.38.38,0,0,0,0,.33l.58.95.18.45.9,3.4a.38.38,0,0,0,.37.28h.08l1.3-.3a.37.37,0,0,0-.08-.74H8.29l-.94.22L6.52,13l-.22-.56-.36-.59,1.15-.35A.38.38,0,0,0,7,10.74H6.88l-1.16.32-.13-.3,1.18-.29A.37.37,0,0,0,7,10a.37.37,0,0,0-.37-.29Z"/>
          </g>
          <g>
            <path d="M8,17.79a.78.78,0,0,1-.68-.39l-.23-.78a.36.36,0,0,1,.25-.46.37.37,0,0,1,.47.25l.2.7.75-.26a.38.38,0,0,1,.45.28.37.37,0,0,1-.27.45l-.8.2Z" style="fill: #fff"/>
            <path d="M7.48,16.14l-.11,0a.36.36,0,0,0-.25.46l.23.78a.78.78,0,0,0,.68.39h.14l.8-.2a.37.37,0,0,0,.27-.45.37.37,0,0,0-.37-.29H8.79L8,17.11l-.2-.7a.38.38,0,0,0-.36-.27Z"/>
          </g>
        </g>
      </g>
    </g>
  </g>
</svg>
