<svg xmlns="http://www.w3.org/2000/svg" xmlns:xlink="http://www.w3.org/1999/xlink" viewBox="0 0 24 24">
  <defs>
    <clipPath id="a">
      <rect width="24" height="24"/>
    </clipPath>
  </defs>
  <title>outlined-social-groupofpeople</title>
  <g>
    <g style="opacity: 0">
      <g>
        <rect width="24" height="24"/>
        <g style="clip-path: url(#a)">
          <g>
            <rect width="24" height="24"/>
            <path d="M12,21.5A9.5,9.5,0,1,1,21.5,12,9.51,9.51,0,0,1,12,21.5Zm0-18A8.5,8.5,0,1,0,20.5,12,8.51,8.51,0,0,0,12,3.5Z"/>
          </g>
        </g>
      </g>
    </g>
    <g>
      <g>
        <path d="M5.9,11.5a2,2,0,1,1,2-2A2,2,0,0,1,5.9,11.5Zm0-3a1,1,0,1,0,1,1A1,1,0,0,0,5.9,8.5Z"/>
        <path d="M3,14.1H3a.5.5,0,0,1-.47-.53A3.27,3.27,0,0,1,5.92,10.5a3.55,3.55,0,0,1,2.54,1.05.5.5,0,1,1-.72.7,2.41,2.41,0,0,0-1.83-.75A2.29,2.29,0,0,0,3.5,13.63.5.5,0,0,1,3,14.1Z"/>
      </g>
      <g>
        <path d="M18.1,11.5a2,2,0,1,1,2-2A2,2,0,0,1,18.1,11.5Zm0-3a1,1,0,1,0,1,1A1,1,0,0,0,18.1,8.5Z"/>
        <path d="M21,14.1a.5.5,0,0,1-.5-.47,2.29,2.29,0,0,0-2.38-2.13,2.44,2.44,0,0,0-1.86.75.5.5,0,0,1-.72-.7,3.44,3.44,0,0,1,2.57-1.05,3.26,3.26,0,0,1,3.39,3.07.5.5,0,0,1-.47.53Z"/>
      </g>
      <g>
        <path d="M12,12.7a3.1,3.1,0,1,1,3.1-3.1A3.1,3.1,0,0,1,12,12.7Zm0-5.2a2.1,2.1,0,1,0,2.1,2.1A2.1,2.1,0,0,0,12,7.5Z"/>
        <path d="M17,17.1a.5.5,0,0,1-.5-.47A4.23,4.23,0,0,0,12,12.7,4.25,4.25,0,0,0,7.5,16.63.49.49,0,0,1,7,17.1a.5.5,0,0,1-.47-.53A5.24,5.24,0,0,1,12,11.7a5.21,5.21,0,0,1,5.47,4.87.5.5,0,0,1-.47.53Z"/>
      </g>
    </g>
  </g>
</svg>
