<svg viewBox="0 0 24 24" xmlns="http://www.w3.org/2000/svg">
  <path d="M 20.19 18.12 L 20.19 16.76 C 20.147 12.255 16.505 8.613 12 8.57 C 11.572 8.574 11.151 8.611 10.741 8.677 C 10.676 8.704 10.604 8.718 10.53 8.715 C 6.728 9.435 3.848 12.757 3.81 16.76 L 3.81 18.12 C 3.81 18.261 3.754 18.382 3.667 18.47 L 20.333 18.47 C 20.245 18.38 20.19 18.256 20.19 18.12 Z M 2.81 18.12 L 2.81 16.76 C 2.852 12.399 5.899 8.76 9.98 7.811 L 9.98 7.52 C 10.013 6.402 10.931 5.514 12.05 5.52 C 13.155 5.52 14.05 6.415 14.05 7.52 L 14.05 7.818 C 18.116 8.777 21.148 12.41 21.19 16.76 L 21.19 18.12 C 21.19 18.256 21.135 18.38 21.047 18.47 L 22 18.47 C 22.276 18.47 22.5 18.694 22.5 18.97 C 22.5 19.246 22.276 19.47 22 19.47 L 2 19.47 C 1.724 19.47 1.5 19.246 1.5 18.97 C 1.5 18.694 1.724 18.47 2 18.47 L 2.953 18.47 C 2.862 18.378 2.81 18.253 2.81 18.12 Z M 12 7.57 C 12.355 7.573 12.705 7.597 13.05 7.639 L 13.05 7.52 C 13.05 6.968 12.602 6.52 12.05 6.52 C 11.498 6.52 11.05 6.968 11.05 7.52 L 11.05 7.627 C 11.362 7.592 11.679 7.573 12 7.57 Z"/>
</svg>
