<svg viewBox="0 0 24 24" xmlns="http://www.w3.org/2000/svg">
  <path d="M 19.501 9.718 L 18.99 9.718 L 18.99 18.083 C 19.02 18.675 18.579 19.185 17.99 19.243 L 5.99 19.273 C 5.387 19.21 4.943 18.678 4.99 18.073 L 4.99 9.718 L 4.501 9.718 C 3.924 9.719 3.466 9.234 3.501 8.658 L 3.501 5.728 C 3.501 5.176 3.949 4.728 4.501 4.728 L 19.501 4.728 C 20.053 4.728 20.501 5.176 20.501 5.728 L 20.501 8.668 C 20.501 9.22 20.053 9.668 19.501 9.668 Z M 4.501 5.718 L 4.501 8.718 L 19.501 8.718 L 19.501 5.728 Z M 5.99 18.083 C 5.99 18.183 5.99 18.243 6.08 18.243 L 17.99 18.243 C 18.005 18.204 18.005 18.162 17.99 18.123 L 17.99 9.718 L 5.99 9.718 Z M 11.99 16.223 C 11.714 16.223 11.49 15.999 11.49 15.723 L 11.49 14.033 L 9.8 14.033 C 9.415 14.033 9.175 13.616 9.367 13.283 C 9.456 13.128 9.621 13.033 9.8 13.033 L 11.49 13.033 L 11.49 11.353 C 11.49 11.077 11.714 10.853 11.99 10.853 C 12.266 10.853 12.49 11.077 12.49 11.353 L 12.49 13.033 L 14.15 13.033 C 14.535 13.033 14.775 13.45 14.583 13.783 C 14.494 13.938 14.329 14.033 14.15 14.033 L 12.49 14.033 L 12.49 15.713 C 12.49 15.991 12.268 16.218 11.99 16.223 Z"/>
</svg>
