<svg xmlns="http://www.w3.org/2000/svg" xmlns:xlink="http://www.w3.org/1999/xlink" viewBox="0 0 24 24">
  <defs>
    <clipPath id="a">
      <rect width="24" height="24" style="fill: #fff"/>
    </clipPath>
  </defs>
  <title>outlined-product-brandsproduct</title>
  <g>
    <g style="opacity: 0">
      <g>
        <rect width="24" height="24" style="fill: #fff"/>
        <g style="clip-path: url(#a)">
          <g>
            <rect width="24" height="24" style="fill: #fff"/>
            <g>
              <circle cx="12" cy="12" r="9" style="fill: #fff"/>
              <path d="M12,21.5A9.5,9.5,0,1,1,21.5,12,9.51,9.51,0,0,1,12,21.5Zm0-18A8.5,8.5,0,1,0,20.5,12,8.51,8.51,0,0,0,12,3.5Z" style="fill: #afaeae"/>
            </g>
          </g>
        </g>
      </g>
    </g>
    <g>
      <path d="M16.92,21.48a.5.5,0,0,1-.5-.5.5.5,0,0,1,.5-.5h2.3a.2.2,0,0,0,.11-.21V16.16a.32.32,0,0,0-.06-.2.49.49,0,0,1-.1-.3V13.14a.3.3,0,0,0-.1-.24.53.53,0,0,1-.18-.38V10.46a.26.26,0,0,0-.1-.24l-1.27.84a.5.5,0,1,1-.56-.83l1.26-.85a.84.84,0,0,1,.59-.15.91.91,0,0,1,.59.19,1.26,1.26,0,0,1,.49,1.05v1.85a1.26,1.26,0,0,1,.28.83v2.36a1.33,1.33,0,0,1,.16.65v4.07a1.17,1.17,0,0,1-1.06,1.24Z"/>
      <path d="M9.39,21.48a1,1,0,0,1-.94-1.14V11.42a9.9,9.9,0,0,1,.83-4.15A5.27,5.27,0,0,0,9.4,5.52a.51.51,0,0,1,.12-.39A.52.52,0,0,1,9.89,5h4.67a.51.51,0,0,1,.37.16.52.52,0,0,1,.13.39,5.38,5.38,0,0,0,.14,1.83A9.91,9.91,0,0,1,16,11.43v8.94a1,1,0,0,1-.91,1.11ZM10.42,6a6,6,0,0,1-.2,1.63,9.18,9.18,0,0,0-.77,3.81v9a.41.41,0,0,0,0,.14l5.56,0s0-.06,0-.09v-9a9.11,9.11,0,0,0-.75-3.75A6.43,6.43,0,0,1,14,6Z"/>
      <path d="M5.77,21.48A1.42,1.42,0,0,1,4.46,20V19a1.79,1.79,0,0,1-.22-.85l-.18-5.42A2.33,2.33,0,0,0,4,12.23L3.61,10.5a1.23,1.23,0,0,1,0-.35,1.54,1.54,0,0,1-.06-.43V8.45a1.22,1.22,0,0,1,1-1.33H7a.5.5,0,0,1,.5.5.5.5,0,0,1-.5.5H4.58a.29.29,0,0,0-.08.24V9.72a.78.78,0,0,0,0,.21.44.44,0,0,1,0,.2.49.49,0,0,0,0,.12L5,12a4.29,4.29,0,0,1,.08.71l.18,5.44a.75.75,0,0,0,.13.42.52.52,0,0,1,.09.29V20a.43.43,0,0,0,.37.49H7a.5.5,0,0,1,.44-.55.47.47,0,0,1,.53.44,1,1,0,0,1-.92,1.1Z"/>
      <g>
        <line x1="8.45" y1="3" x2="14.76" y2="3"/>
        <path d="M14.76,3.5H8.45a.5.5,0,0,1,0-1h6.31a.5.5,0,0,1,0,1Z"/>
      </g>
      <g>
        <line x1="14.13" y1="5.31" x2="14.13" y2="3.04"/>
        <path d="M14.13,5.81a.5.5,0,0,1-.5-.5V3a.5.5,0,0,1,1,0V5.31A.5.5,0,0,1,14.13,5.81Z"/>
      </g>
      <g>
        <line x1="10.33" y1="5.31" x2="10.33" y2="3.04"/>
        <path d="M10.33,5.81a.5.5,0,0,1-.5-.5V3a.5.5,0,0,1,1,0V5.31A.5.5,0,0,1,10.33,5.81Z"/>
      </g>
      <g>
        <line x1="4.07" y1="10.09" x2="6.88" y2="10.09"/>
        <path d="M6.88,10.59H4.07a.5.5,0,0,1-.5-.5.5.5,0,0,1,.5-.5H6.88a.5.5,0,0,1,.5.5A.51.51,0,0,1,6.88,10.59Z"/>
      </g>
      <g>
        <line x1="4.95" y1="18.88" x2="6.7" y2="18.88"/>
        <path d="M6.69,19.38H5a.5.5,0,1,1,0-1H6.69a.5.5,0,1,1,0,1Z"/>
      </g>
      <g>
        <line x1="19.04" y1="12.52" x2="17.47" y2="12.52"/>
        <path d="M19,13H17.47a.5.5,0,0,1-.5-.5.5.5,0,0,1,.5-.5H19a.5.5,0,0,1,.5.5A.5.5,0,0,1,19,13Z"/>
      </g>
      <g>
        <line x1="19.67" y1="15.65" x2="17.47" y2="15.65"/>
        <path d="M19.67,16.15h-2.2a.5.5,0,0,1-.5-.5.5.5,0,0,1,.5-.5h2.2a.5.5,0,0,1,.5.5A.5.5,0,0,1,19.67,16.15Z"/>
      </g>
    </g>
  </g>
</svg>
