<svg viewBox="0 0 24 24" xmlns="http://www.w3.org/2000/svg">
  <path d="M 13.48 12.845 C 13.095 12.847 12.852 12.432 13.042 12.098 C 13.066 12.056 13.096 12.018 13.13 11.985 L 16.976 8.174 L 5.805 8.025 C 5.535 8.02 5.32 7.793 5.32 7.515 C 5.303 7.213 5.564 6.973 5.853 7.025 L 16.917 7.136 L 13.13 3.375 C 12.822 3.144 12.88 2.666 13.234 2.515 C 13.445 2.425 13.692 2.491 13.83 2.675 L 18.53 7.325 C 18.622 7.423 18.676 7.551 18.68 7.685 C 18.677 7.817 18.623 7.942 18.53 8.035 L 13.82 12.695 C 13.731 12.788 13.609 12.842 13.48 12.845 Z M 10.52 21.525 C 10.385 21.525 10.255 21.471 10.16 21.375 L 5.46 16.725 C 5.371 16.626 5.321 16.498 5.32 16.365 C 5.322 16.238 5.372 16.116 5.46 16.025 L 10.16 11.365 C 10.433 11.092 10.9 11.217 11 11.59 C 11.046 11.763 10.997 11.948 10.87 12.075 L 7.045 15.865 L 18.141 15.865 C 18.518 15.865 18.752 16.282 18.565 16.615 C 18.478 16.77 18.316 16.865 18.141 16.865 L 7.023 16.865 L 10.87 20.685 C 11.066 20.877 11.066 21.193 10.87 21.385 C 10.777 21.476 10.651 21.527 10.52 21.525 Z"/>
</svg>
