<svg viewBox="0 0 24 24" xmlns="http://www.w3.org/2000/svg">
  <path d="M 19 20 C 19.552 20 20 19.552 20 19 L 20 9 C 19.996 8.735 19.893 8.482 19.71 8.29 L 15.66 4.29 C 15.484 4.115 15.248 4.011 15 4 L 5 4 C 4.448 4 4 4.448 4 5 L 4 19 C 4 19.552 4.448 20 5 20 Z M 19 21 L 5 21 C 3.895 21 3 20.105 3 19 L 3 5 C 3 3.895 3.895 3 5 3 L 15 3 C 15.528 3 16.035 3.208 16.41 3.58 L 20.46 7.58 C 20.82 7.964 21.014 8.474 21 9 L 21 19 C 21 20.105 20.105 21 19 21 Z M 14 9 L 6 9 C 5.448 9 5 8.552 5 8 L 5 6 C 5 5.448 5.448 5 6 5 L 14 5 C 14.552 5 15 5.448 15 6 L 15 8 C 15 8.552 14.552 9 14 9 Z M 6 6 L 6 8 L 14 8 L 14 6 Z M 12 18 C 9.691 18 8.247 15.5 9.402 13.5 C 10.557 11.5 13.443 11.5 14.598 13.5 C 14.861 13.956 15 14.473 15 15 C 15 16.657 13.657 18 12 18 Z M 12 13 C 10.46 13 9.498 14.667 10.268 16 C 11.038 17.333 12.962 17.333 13.732 16 C 13.908 15.696 14 15.351 14 15 C 14 13.895 13.105 13 12 13 Z"/>
</svg>
