<svg xmlns="http://www.w3.org/2000/svg" viewBox="0 0 24 24">
  <path d="M11.69 17.27a.9.9 0 10.9.9.87.87 0 00-.85-.9z"/>
  <path d="M15.17 4H8.22A2.3 2.3 0 006 6.29v12.09a2.31 2.31 0 002.29 2.3h7a2.31 2.31 0 002.29-2.3V6.29A2.41 2.41 0 0015.17 4zm1.18 2.29v12.09a1.16 1.16 0 01-1.16 1.18H8.22A1.17 1.17 0 017 18.4V6.29a1.18 1.18 0 011.2-1.18h7a1.1 1.1 0 011.18 1 .43.43 0 01-.03.18z"/>
  <path d="M11.21 10.05h1a.3.3 0 00.28-.28v-1a.3.3 0 00-.28-.28h-1a.3.3 0 00-.28.28v1a.31.31 0 00.28.28zM15.1 8.52h-1a.3.3 0 00-.28.28v1a.3.3 0 00.28.28h1a.3.3 0 00.28-.28v-1a.3.3 0 00-.28-.28zM9.33 8.52h-1a.3.3 0 00-.28.28v1a.3.3 0 00.28.28h1a.3.3 0 00.28-.28v-1a.44.44 0 00-.28-.28zM11.21 12.62h1a.3.3 0 00.28-.28v-1a.3.3 0 00-.28-.28h-1a.3.3 0 00-.28.28v1a.3.3 0 00.28.28zM15.1 11.09h-1a.3.3 0 00-.28.28v1a.3.3 0 00.28.28h1a.3.3 0 00.28-.28v-1a.31.31 0 00-.28-.28zM9.33 11.09h-1a.3.3 0 00-.28.28v1a.3.3 0 00.28.28h1a.3.3 0 00.28-.28v-1a.61.61 0 00-.28-.28zM11.21 15.19h1a.3.3 0 00.28-.28v-1a.3.3 0 00-.28-.28h-1a.3.3 0 00-.28.28v1a.26.26 0 00.23.28zM9.33 13.66h-1a.3.3 0 00-.28.28v1a.3.3 0 00.28.28h1a.3.3 0 00.35-.22v-1a.46.46 0 00-.35-.34z"/>
</svg>
