<svg viewBox="0 0 24 24" xmlns="http://www.w3.org/2000/svg">
  <path d="M 17.697 7.356 C 16.907 5.945 15.695 4.817 14.23 4.131 C 10.813 2.47 6.773 3.554 4.61 6.52 L 5.88 6.051 C 6.242 5.916 6.614 6.224 6.55 6.604 C 6.52 6.781 6.398 6.928 6.23 6.991 L 3.62 7.991 L 3.463 7.982 C 3.302 7.986 3.137 7.914 3.034 7.761 C 2.939 7.618 2.922 7.437 2.991 7.281 L 2.88 4.711 C 2.885 4.439 3.098 4.217 3.37 4.201 C 3.648 4.19 3.88 4.412 3.88 4.691 L 3.906 5.792 C 6.379 2.553 10.871 1.4 14.67 3.261 C 20.728 6.169 21.366 14.546 15.818 18.338 C 15.537 18.53 15.247 18.704 14.948 18.861 L 19.532 18.861 L 18.17 17.901 C 17.951 17.735 17.902 17.426 18.06 17.201 C 18.222 16.983 18.528 16.934 18.75 17.091 L 21.29 18.861 C 21.436 18.969 21.505 19.135 21.496 19.297 C 21.51 19.4 21.491 19.51 21.433 19.611 C 21.351 19.754 21.204 19.846 21.041 19.859 L 18.75 21.501 C 18.669 21.574 18.568 21.619 18.46 21.631 C 18.297 21.634 18.143 21.555 18.05 21.421 C 17.889 21.195 17.942 20.88 18.17 20.721 L 19.39 19.861 L 3 19.861 C 2.615 19.861 2.375 19.444 2.567 19.111 C 2.656 18.956 2.821 18.861 3 18.861 L 11.068 18.861 C 16.892 18.783 20.568 12.484 17.697 7.356 Z M 10.7 8.861 C 10.705 8.587 10.926 8.366 11.2 8.361 C 11.476 8.361 11.7 8.585 11.7 8.861 L 11.7 10.591 L 13.4 10.591 C 13.676 10.591 13.9 10.815 13.9 11.091 C 13.895 11.365 13.674 11.586 13.4 11.591 C 13.398 11.591 11.201 11.591 11.2 11.591 C 10.926 11.586 10.705 11.365 10.7 11.091 Z M 11.23 16.211 C 7.281 16.219 4.804 11.949 6.772 8.525 C 8.74 5.101 13.677 5.091 15.658 8.507 C 16.113 9.292 16.352 10.184 16.35 11.091 C 16.344 13.916 14.055 16.205 11.23 16.211 Z M 11.23 6.961 C 8.051 6.953 6.055 10.39 7.638 13.147 C 9.221 15.904 13.195 15.914 14.792 13.165 C 15.157 12.535 15.35 11.819 15.35 11.091 C 15.35 8.814 13.507 6.967 11.23 6.961 Z" style=""/>
</svg>
