<svg xmlns="http://www.w3.org/2000/svg" viewBox="0 0 24 24">
  <path d="M4.55 12.55h8.14a.54.54 0 00.54-.53.5.5 0 00-.46-.54H4.55l2.29-2.3A.51.51 0 007 8.85c0-.14-.07-.2-.13-.34a.53.53 0 00-.74 0l-2.79 2.76A1 1 0 003 12a1.42 1.42 0 00.27.74L6 15.51a.47.47 0 10.67-.67z"/>
  <path d="M16.86 4H10.2A2.23 2.23 0 008 6.15v2.23a.52.52 0 00.52.53.47.47 0 00.53-.42.43.43 0 000-.05V6.15A1.13 1.13 0 0110.18 5h6.68A1.14 1.14 0 0118 6.13v11.73A1.15 1.15 0 0116.88 19H10.2a1.13 1.13 0 01-1.14-1.13v-2.23a.53.53 0 00-.53-.53.49.49 0 00-.54.45v2.3A2.18 2.18 0 0010.14 20h6.66a2.17 2.17 0 002.2-2.14V6.15A2.07 2.07 0 0017 4z"/>
</svg>
