<svg xmlns="http://www.w3.org/2000/svg" viewBox="0 0 19.06 19.35">
  <title>outlined-produtct-promotionproduct</title>
  <g>
    <g>
      <path d="M8.68,18.43h0a1.67,1.67,0,0,1-1.18-.5L3,13.43a1.68,1.68,0,0,1,0-2.37l8-8a1.67,1.67,0,0,1,1.07-.49l2.67-.18a1.66,1.66,0,0,1,1.3.5l2.07,2.06a1.68,1.68,0,0,1,.49,1.34l-.23,2.6a1.72,1.72,0,0,1-.49,1l-8,8A1.71,1.71,0,0,1,8.68,18.43Zm3.05-14.7-8,8a.68.68,0,0,0,0,1l4.5,4.5a.68.68,0,0,0,1,0l8-8a.62.62,0,0,0,.2-.42l.23-2.6a.67.67,0,0,0-.19-.54L15.36,3.55a.66.66,0,0,0-.53-.2l-2.66.18a.67.67,0,0,0-.44.2Z" transform="translate(-2.5 -2.35)"/>
      <path d="M15,7.25A1.36,1.36,0,1,1,16.38,5.9,1.36,1.36,0,0,1,15,7.25Zm0-1.71a.36.36,0,1,0,0,.71.36.36,0,0,0,0-.71Z" transform="translate(-2.5 -2.35)"/>
    </g>
    <path d="M14.89,21.7a1.59,1.59,0,0,1-.74-.18l-5.71-2.8a2,2,0,0,1-.63-.62l.85-.52a.93.93,0,0,0,.28.28l5.65,2.76a.67.67,0,0,0,.52,0,.66.66,0,0,0,.36-.3l0-.05,5-10.21a.74.74,0,0,0,.05-.46L19.92,7.1a.64.64,0,0,0-.36-.44l-2-.93L18,4.82l2,.93a1.69,1.69,0,0,1,.9,1.11l.63,2.54a1.67,1.67,0,0,1-.13,1.14l-5,10.22a1.67,1.67,0,0,1-1.5.94Z" transform="translate(-2.5 -2.35)"/>
  </g>
</svg>
