<svg xmlns="http://www.w3.org/2000/svg" viewBox="0 0 24 24">
  <title>outlined-communication-occurrence</title>
  <g>
    <rect width="24" height="24" style="fill: red;opacity: 0"/>
    <g>
      <path d="M12,6.06a.5.5,0,0,1-.5-.5V3a.5.5,0,0,1,1,0V5.56A.5.5,0,0,1,12,6.06Z"/>
      <path d="M6.72,8.16A.47.47,0,0,1,6.37,8L4.54,6.19a.49.49,0,0,1,0-.7.5.5,0,0,1,.71,0L7.07,7.3a.5.5,0,0,1,0,.71A.47.47,0,0,1,6.72,8.16Z"/>
      <path d="M17.28,8.16A.49.49,0,0,1,16.93,8a.5.5,0,0,1,0-.71l1.83-1.82a.5.5,0,0,1,.71,0,.49.49,0,0,1,0,.7L17.63,8A.47.47,0,0,1,17.28,8.16Z"/>
      <path d="M21,13.21H19.41a.5.5,0,0,1,0-1H21a.5.5,0,0,1,0,1Z"/>
      <path d="M4.59,13.21H3a.5.5,0,0,1,0-1H4.59a.5.5,0,0,1,0,1Z"/>
      <path d="M17,18.21h0l0-.5v.5H7.07a.51.51,0,0,1-.5-.5V12.43A5.41,5.41,0,0,1,12,7.16a5.37,5.37,0,0,1,5.47,5.24v5.31a.48.48,0,0,1-.16.36A.49.49,0,0,1,17,18.21Zm-9.42-1h8.92v-4.8A4.34,4.34,0,0,0,12,8.16a4.38,4.38,0,0,0-4.47,4.28Z"/>
      <path d="M19.76,21.5H4.24a.5.5,0,0,1-.5-.5V19.52a2.31,2.31,0,0,1,2.34-2.26H17.93a2.33,2.33,0,0,1,2.33,2.25V21A.5.5,0,0,1,19.76,21.5Zm-15-1H19.26v-1a1.33,1.33,0,0,0-1.32-1.26H6.07a1.31,1.31,0,0,0-1.33,1.28Z"/>
      <path d="M13,18.21H11a.5.5,0,0,1-.5-.5v-4.6a1.5,1.5,0,0,1,3,0v4.63a.5.5,0,0,1-.14.35A.53.53,0,0,1,13,18.21Zm-1.5-1h1v-4.1a.53.53,0,0,0-.51-.47.51.51,0,0,0-.49.49Z"/>
    </g>
  </g>
</svg>
