<svg xmlns="http://www.w3.org/2000/svg" viewBox="0 0 24 24">
  <title>outlined-navigation-directionleft</title>
  <g>
    <g style="opacity: 0">
      <rect width="24" height="24"/>
    </g>
    <g>
      <g style="opacity: 0">
        <g>
          <circle cx="12" cy="12" r="9"/>
          <path d="M12,21.5A9.5,9.5,0,1,1,21.5,12,9.51,9.51,0,0,1,12,21.5Zm0-18A8.5,8.5,0,1,0,20.5,12,8.51,8.51,0,0,0,12,3.5Z"/>
        </g>
      </g>
      <g>
        <path d="M19.24,12H4a.5.5,0,0,1-.5-.5A.5.5,0,0,1,4,11H19.24a.5.5,0,0,1,.5.5A.5.5,0,0,1,19.24,12Z"/>
        <path d="M11.79,19.53a.5.5,0,0,1-.35-.85L19,11.16a.5.5,0,0,1,.7,0,.5.5,0,0,1,0,.71l-7.51,7.51A.51.51,0,0,1,11.79,19.53Z"/>
        <path d="M19.31,12a.46.46,0,0,1-.35-.14L11.44,4.35a.5.5,0,0,1,0-.7.5.5,0,0,1,.71,0l7.51,7.51a.5.5,0,0,1,0,.71A.46.46,0,0,1,19.31,12Z"/>
      </g>
    </g>
  </g>
</svg>
