<svg viewBox="0 0 24 24" xmlns="http://www.w3.org/2000/svg">
  <path d="M 12.03 21.245 C 11.896 21.241 11.768 21.187 11.67 21.095 C 11.39 20.805 4.67 13.975 4.67 10.095 C 4.67 4.452 10.778 0.926 15.665 3.747 C 17.933 5.056 19.33 7.476 19.33 10.095 C 19.33 14.025 12.64 20.855 12.33 21.095 C 12.248 21.175 12.143 21.227 12.03 21.245 Z M 12.03 3.715 C 8.522 3.715 5.683 6.567 5.7 10.075 C 5.7 13.125 10.64 18.575 12.03 20.075 C 13.41 18.605 18.36 13.145 18.36 10.075 C 18.36 6.579 15.526 3.745 12.03 3.745 Z M 12.03 13.245 C 9.613 13.222 8.127 10.591 9.356 8.509 C 10.585 6.427 13.606 6.456 14.794 8.561 C 15.055 9.023 15.195 9.544 15.2 10.075 C 15.211 11.83 13.785 13.256 12.03 13.245 Z M 12.03 7.965 C 10.383 7.988 9.378 9.786 10.222 11.201 C 11.066 12.616 13.125 12.587 13.928 11.149 C 14.112 10.821 14.205 10.45 14.2 10.075 C 14.2 8.881 13.224 7.918 12.03 7.935 Z"/>
</svg>
