<svg xmlns="http://www.w3.org/2000/svg" viewBox="0 0 24 24">
  <path d="M15 11.1a2.59 2.59 0 112.59-2.58A2.59 2.59 0 0115 11.1zm0-4.17a1.59 1.59 0 101.59 1.59A1.59 1.59 0 0015 6.93z"/>
  <path d="M15.92 14.49h-2a.79.79 0 01-.56-.23.82.82 0 01-.22-.55v-1.09a.12.12 0 00-.07-.1 4.76 4.76 0 01-.69-.4.13.13 0 00-.12 0l-.93.53a.8.8 0 01-1.06-.25l-1.08-1.87a.8.8 0 01.25-1.06l1-.55a.08.08 0 00.06-.1v-.37a1.83 1.83 0 010-.21v-.13c0-.04 0-.14-.07-.16l-.92-.53a.8.8 0 01-.28-1.09l1-1.75a.81.81 0 01.66-.37.66.66 0 01.45.17l.87.49a.2.2 0 00.17 0 6.74 6.74 0 01.64-.38c.07 0 .1-.07.1-.11v-1.1a.75.75 0 01.23-.55.76.76 0 01.55-.23h2a.79.79 0 01.56.23.82.82 0 01.22.56V4.4a.11.11 0 00.07.1 5.18 5.18 0 01.69.4.13.13 0 00.12 0l.93-.53a.8.8 0 011.06.25l1 1.78a.8.8 0 01-.24 1.07l-1 .55-.07.12v.35a1.94 1.94 0 010 .24v.25l1.08.62a.77.77 0 01.09 1.08l-1 1.68a.82.82 0 01-1.09.27l-.92-.53a.12.12 0 00-.13 0 4.32 4.32 0 01-.67.38.14.14 0 00-.08.11v1.08a.79.79 0 01-.23.56.8.8 0 01-.37.26zm-1.81-.78zm-1.82-2.61a1.13 1.13 0 01.64.2 3 3 0 00.51.3 1.11 1.11 0 01.67 1v.88h1.59v-.86a1.12 1.12 0 01.68-1 4.29 4.29 0 00.5-.29 1.1 1.1 0 011.18-.06l.77.43.83-1.38-.74-.42a1.07 1.07 0 01-.56-1.09.61.61 0 010-.18.34.34 0 000-.1v-.36a1.07 1.07 0 01.58-1l.73-.41-.82-1.39-.76.43a1.13 1.13 0 01-1.19 0 2.7 2.7 0 00-.52-.3 1.11 1.11 0 01-.66-1v-1h-1.57v.87a1.1 1.1 0 01-.68 1 5.61 5.61 0 00-.51.3 1.18 1.18 0 01-1.2.06L11 5.31l-.8 1.35.74.42a1.13 1.13 0 01.57 1.06 2.15 2.15 0 010 .23v.39a1.07 1.07 0 01-.58 1l-.73.41.8 1.51.76-.43a1.14 1.14 0 01.53-.15zm3.63 2.39zm3.08-1.7zm-8.19 0zm9-1.65zm-9.7-.1zm0-3.2zm9-1.59zM13.93 3.5zm1.81-.22z"/>
  <g>
    <path d="M11.1 21.63a1.74 1.74 0 01-.45-.06l-3.76-1.8a.75.75 0 00-.33-.07h-.89V16l.16-.15C7 14.73 7.3 14.73 7.44 14.73h3.7l3.85.52a1.56 1.56 0 011.07.5 1.59 1.59 0 01.36.61L19.11 15a1.54 1.54 0 011.15-.22 1.59 1.59 0 011 .68l.12.22a1.84 1.84 0 01-1 2.19l-3 1.55-5.78 2.17a2.07 2.07 0 01-.5.04zM6.67 18.7a1.61 1.61 0 01.65.17L11 20.64a1.26 1.26 0 00.33 0L17 18.47l3-1.54a.86.86 0 00.51-.95.62.62 0 00-.39-.26.61.61 0 00-.45.1l-3.37 1.76a1.83 1.83 0 01-1.89.75L11 17.86a.5.5 0 01-.43-.56.52.52 0 01.57-.43l3.35.48a.87.87 0 001-.47.62.62 0 00-.59-.63l-3.84-.52H7.44s-.41.33-.77.65z"/>
    <path d="M5.67 20.47H3.5a1 1 0 01-1-1v-4.29a1 1 0 011-1h2.17a1 1 0 011 1v4.29a1 1 0 01-1 1zM3.5 15.18v4.29h2.17v-4.29zm0-.5v.5z"/>
  </g>
</svg>
