<svg viewBox="0 0 24 24" xmlns="http://www.w3.org/2000/svg">
  <path d="M 3.18 18.165 C 2.231 18.132 1.483 17.345 1.5 16.395 L 1.5 13.195 C 1.472 12.217 2.251 11.406 3.23 11.395 L 4.15 11.395 L 4.15 4.765 C 4.177 4.396 4.42 4.077 4.77 3.955 C 4.841 3.917 4.92 3.896 5 3.895 L 10.31 3.895 C 10.667 3.897 10.985 4.12 11.11 4.455 L 13.48 11.395 L 14.4 11.395 C 14.892 11.417 15.353 11.637 15.68 12.005 C 15.959 12.32 16.119 12.724 16.13 13.145 L 18.23 13.145 L 18.23 4.945 C 18.23 4.669 18.454 4.445 18.73 4.445 C 19.004 4.45 19.225 4.671 19.23 4.945 L 19.23 18.185 L 22 18.185 C 22.276 18.185 22.5 18.409 22.5 18.685 C 22.5 18.961 22.276 19.185 22 19.185 L 18.23 19.185 L 18.23 16.975 L 16.06 16.975 C 15.86 17.734 15.175 18.264 14.39 18.265 L 13.811 18.265 C 13.671 19.292 12.797 20.09 11.73 20.105 C 10.568 20.137 9.687 19.282 9.531 18.265 L 7.77 18.265 C 7.731 18.522 7.643 18.779 7.501 19.025 C 7.115 19.693 6.402 20.105 5.63 20.105 C 4.453 20.105 3.588 19.203 3.478 18.165 Z M 16.13 14.145 L 16.13 15.975 L 18.23 15.975 L 18.23 14.145 Z M 14.39 17.265 C 14.799 17.265 15.13 16.934 15.13 16.525 C 15.13 16.508 15.131 16.491 15.132 16.475 L 15.13 16.475 L 15.13 13.275 C 15.147 13.053 15.075 12.834 14.93 12.665 C 14.79 12.505 14.592 12.407 14.38 12.395 L 13.12 12.395 C 13.088 12.394 13.056 12.39 13.025 12.384 C 12.991 12.391 12.956 12.395 12.92 12.395 L 3.24 12.395 C 2.835 12.395 2.505 12.72 2.5 13.125 L 2.5 16.395 C 2.471 16.808 2.787 17.164 3.2 17.185 L 3.607 17.185 C 3.648 17.077 3.698 16.97 3.759 16.865 C 4.145 16.197 4.858 15.785 5.63 15.785 C 6.629 15.785 7.403 16.434 7.681 17.265 L 9.619 17.265 C 9.658 17.148 9.708 17.032 9.77 16.918 C 10.561 15.456 12.639 15.398 13.51 16.814 C 13.597 16.956 13.668 17.108 13.72 17.265 Z M 4.5 17.685 C 4.498 17.733 4.489 17.779 4.475 17.823 C 4.45 18.054 4.494 18.298 4.625 18.525 C 4.833 18.884 5.216 19.105 5.63 19.105 C 6.523 19.105 7.081 18.138 6.635 17.365 C 6.427 17.006 6.044 16.785 5.63 16.785 C 5.054 16.785 4.618 17.187 4.5 17.68 C 4.5 17.681 4.5 17.683 4.5 17.685 Z M 10.22 4.895 L 5.15 4.895 L 5.15 11.395 L 12.426 11.395 Z M 11.73 16.785 C 10.838 16.739 10.231 17.675 10.637 18.471 C 11.043 19.266 12.157 19.324 12.643 18.575 C 12.765 18.387 12.83 18.168 12.83 17.945 C 12.847 17.321 12.354 16.801 11.73 16.785 Z"/>
</svg>
