<svg xmlns="http://www.w3.org/2000/svg" viewBox="0 0 24 24">
  <title>outlined-finance-littlemachine</title>
  <g>
    <rect width="24" height="24" style="fill: red;opacity: 0"/>
    <g>
      <path d="M13.73,20.31H6.58A1.55,1.55,0,0,1,5,18.8V6A1.56,1.56,0,0,1,6.55,4.5h7.12A1.55,1.55,0,0,1,15.24,6V18.79a1.52,1.52,0,0,1-1.51,1.52Zm-.06-1h0l0,.5.06-.5a.52.52,0,0,0,.36-.16.48.48,0,0,0,.15-.36V6a.54.54,0,0,0-.56-.52H6.58A.55.55,0,0,0,6,6V18.79a.57.57,0,0,0,.56.52Z"/>
      <path d="M12.36,11.57H7.94A1.51,1.51,0,0,1,6.5,10V7.75A1.5,1.5,0,0,1,7.93,6.22h4.42a1.5,1.5,0,0,1,1.44,1.54V10a1.47,1.47,0,0,1-1.42,1.53Zm0-4.35H8a.49.49,0,0,0-.45.51v2.32a.49.49,0,0,0,.47.52h4.36a.48.48,0,0,0,.46-.51V7.74A.49.49,0,0,0,12.33,7.22Z"/>
      <path d="M18.53,15.33H14.74v-1h3.53V7.22H14.74v-1H18.5a.73.73,0,0,1,.77.71v7.63a.75.75,0,0,1-.71.77Zm-.26-.77v0Zm.23-7.34h0Z"/>
      <rect x="16.39" y="6.72" width="1" height="8.11"/>
      <g>
        <path d="M7.7,13.81h0a.71.71,0,0,1-.7-.7H7a.72.72,0,0,1,.7-.7h0a.71.71,0,0,1,.7.7h0A.7.7,0,0,1,7.7,13.81Z"/>
        <path d="M7.7,16.07h0a.71.71,0,0,1-.7-.7H7a.72.72,0,0,1,.7-.7h0a.71.71,0,0,1,.7.7h0A.7.7,0,0,1,7.7,16.07Z"/>
        <path d="M7.7,18.28h0a.72.72,0,0,1-.7-.7H7a.71.71,0,0,1,.7-.7h0a.7.7,0,0,1,.7.7h0A.71.71,0,0,1,7.7,18.28Z"/>
        <path d="M10.12,13.81h0a.71.71,0,0,1-.7-.7h0a.72.72,0,0,1,.7-.7h0a.71.71,0,0,1,.7.7h0A.7.7,0,0,1,10.12,13.81Z"/>
        <path d="M10.12,16.07h0a.71.71,0,0,1-.7-.7h0a.72.72,0,0,1,.7-.7h0a.71.71,0,0,1,.7.7h0A.7.7,0,0,1,10.12,16.07Z"/>
        <path d="M10.12,18.28h0a.72.72,0,0,1-.7-.7h0a.71.71,0,0,1,.7-.7h0a.7.7,0,0,1,.7.7h0A.71.71,0,0,1,10.12,18.28Z"/>
        <path d="M12.59,13.81h0a.71.71,0,0,1-.7-.7h0a.72.72,0,0,1,.7-.7h0a.71.71,0,0,1,.7.7h0A.7.7,0,0,1,12.59,13.81Z"/>
        <path d="M12.59,16.07h0a.71.71,0,0,1-.7-.7h0a.72.72,0,0,1,.7-.7h0a.71.71,0,0,1,.7.7h0A.7.7,0,0,1,12.59,16.07Z"/>
        <path d="M12.59,18.28h0a.72.72,0,0,1-.7-.7h0a.71.71,0,0,1,.7-.7h0a.7.7,0,0,1,.7.7h0A.71.71,0,0,1,12.59,18.28Z"/>
      </g>
    </g>
  </g>
</svg>
