<svg xmlns="http://www.w3.org/2000/svg" viewBox="0 0 24 24">
  <path d="M17.74 21.14H6.67a.51.51 0 01-.5-.5.5.5 0 01.5-.5h11.07a.5.5 0 01.5.5.5.5 0 01-.5.5z"/>
  <path d="M12.21 21.14a.5.5 0 01-.5-.5V19a.5.5 0 011 0v1.65a.5.5 0 01-.5.49z"/>
  <path d="M12.21 19.48a9.09 9.09 0 01-9.09-9.08.5.5 0 01.5-.5.5.5 0 01.5.5 8.09 8.09 0 008.09 8.08 8.08 8.08 0 008.08-8.08.5.5 0 01.5-.5.5.5 0 01.5.5 9.09 9.09 0 01-9.08 9.08z"/>
  <path d="M12.21 17.71a7.31 7.31 0 117.31-7.31 7.32 7.32 0 01-7.31 7.31zm0-13.62a6.31 6.31 0 106.31 6.31 6.32 6.32 0 00-6.31-6.31z"/>
  <path d="M12.21 6.07a.47.47 0 01-.35-.15.36.36 0 01-.11-.16.41.41 0 010-.19.43.43 0 010-.19.36.36 0 01.11-.16.31.31 0 01.14-.11.5.5 0 01.38 0 .36.36 0 01.16.11.51.51 0 01.15.35.58.58 0 010 .19.36.36 0 01-.11.16.42.42 0 01-.18.08.43.43 0 01-.19.07zM7.38 10.9a.5.5 0 01-.5-.5 5.34 5.34 0 013.92-5.14.5.5 0 11.27 1 4.35 4.35 0 00-3.19 4.14.5.5 0 01-.5.5z"/>
</svg>
