<svg xmlns="http://www.w3.org/2000/svg" viewBox="0 0 24 24">
  <path d="M9.76 21.43a1.86 1.86 0 01-1.34-.56l-5.36-5.35a1.91 1.91 0 010-2.69l9.56-9.56a1.84 1.84 0 011.21-.55L17 2.5a1.93 1.93 0 011.47.56L21 5.52A1.89 1.89 0 0121.5 7l-.28 3.09a1.86 1.86 0 01-.55 1.18l-9.57 9.6a1.85 1.85 0 01-1.34.56zM17.13 3.5h-.06l-3.17.21a.92.92 0 00-.58.27l-9.56 9.56a.91.91 0 000 1.28l5.36 5.35a.88.88 0 00.63.26.93.93 0 00.64-.26L20 10.6a.88.88 0 00.27-.56l.27-3.1a.87.87 0 00-.26-.71l-2.51-2.47a.9.9 0 00-.64-.26z"/>
  <path d="M17.31 8.14a1.52 1.52 0 111.51-1.52 1.52 1.52 0 01-1.51 1.52zm0-2a.52.52 0 10.51.51.51.51 0 00-.51-.54z"/>
</svg>
