<svg xmlns="http://www.w3.org/2000/svg" xmlns:xlink="http://www.w3.org/1999/xlink" viewBox="0 0 24 24">
  <defs>
    <clipPath id="a">
      <rect width="24" height="24"/>
    </clipPath>
  </defs>
  <title>outlined-product-outlet</title>
  <g>
    <g style="opacity: 0">
      <g>
        <rect width="24" height="24"/>
        <g style="clip-path: url(#a)">
          <g>
            <rect width="24" height="24"/>
            <g>
              <circle cx="12" cy="12" r="9"/>
              <path d="M12,21.5A9.5,9.5,0,1,1,21.5,12,9.51,9.51,0,0,1,12,21.5Zm0-18A8.5,8.5,0,1,0,20.5,12,8.51,8.51,0,0,0,12,3.5Z"/>
            </g>
          </g>
        </g>
      </g>
    </g>
    <g>
      <g style="opacity: 0">
        <rect width="24" height="24"/>
        <g>
          <circle cx="12" cy="12" r="9"/>
          <path d="M12,21.5A9.5,9.5,0,1,1,21.5,12,9.51,9.51,0,0,1,12,21.5Zm0-18A8.5,8.5,0,1,0,20.5,12,8.51,8.51,0,0,0,12,3.5Z"/>
        </g>
      </g>
      <g>
        <path d="M5.79,21.33a1,1,0,0,1-1-1L5.5,6.93a1,1,0,0,1,1-.93h11.1a1,1,0,0,1,1,.93l.68,13.38a1,1,0,0,1-.94,1H5.79ZM17.56,7,6.48,7,5.82,20.36l12.46,0Z"/>
        <path d="M15.44,6.52l-1,0A2.76,2.76,0,0,0,12,3.5,2.73,2.73,0,0,0,9.61,6.44l-.49,0h-.5A3.74,3.74,0,0,1,12,2.5h.12A3.75,3.75,0,0,1,15.44,6.52Z"/>
        <g>
          <path d="M9.08,17.14A.49.49,0,0,1,8.73,17a.5.5,0,0,1,0-.71l5.9-5.79a.49.49,0,0,1,.7,0,.5.5,0,0,1,0,.71L9.43,17A.5.5,0,0,1,9.08,17.14Z"/>
          <path d="M9.88,13.29a1.64,1.64,0,0,1,0-3.27,1.65,1.65,0,0,1,1.66,1.61,1.57,1.57,0,0,1-.46,1.16,1.6,1.6,0,0,1-1.15.5Zm0-2.27h0a.63.63,0,0,0-.46.19.65.65,0,0,0-.18.46.6.6,0,0,0,.19.44.65.65,0,0,0,.46.18.6.6,0,0,0,.44-.19.65.65,0,0,0,.18-.46h0A.63.63,0,0,0,9.89,11Z"/>
          <path d="M14.17,17.5A1.62,1.62,0,0,1,13,17a1.65,1.65,0,0,1-.5-1.15A1.67,1.67,0,0,1,13,14.73a1.64,1.64,0,0,1,1.15-.5h0a1.64,1.64,0,0,1,0,3.27Zm0-2.27h0a.64.64,0,0,0-.46.19.63.63,0,0,0,0,.9.63.63,0,0,0,.45.18.64.64,0,0,0,.63-.65h0A.63.63,0,0,0,14.18,15.23Z"/>
        </g>
      </g>
    </g>
  </g>
</svg>
