<svg xmlns="http://www.w3.org/2000/svg" viewBox="0 0 24 24">
  <path d="M11.66 7.8a2.15 2.15 0 112.15-2.15 2.15 2.15 0 01-2.15 2.15zm0-3.3a1.15 1.15 0 101.15 1.15 1.16 1.16 0 00-1.15-1.15z"/>
  <path d="M8.59 10.86a.5.5 0 01-.5-.5 3.57 3.57 0 017.14 0 .51.51 0 01-.5.5.5.5 0 01-.5-.5 2.57 2.57 0 00-5.14 0 .5.5 0 01-.5.5zM18.22 15.47a2.15 2.15 0 112.15-2.15 2.15 2.15 0 01-2.15 2.15zm0-3.3a1.15 1.15 0 100 2.3 1.15 1.15 0 100-2.3z"/>
  <path d="M15.15 18.53a.5.5 0 01-.5-.5 3.57 3.57 0 017.14 0 .51.51 0 01-.5.5.5.5 0 01-.5-.5 2.57 2.57 0 00-5.14 0 .5.5 0 01-.5.5z"/>
  <g>
    <path d="M5.07 15.47a2.15 2.15 0 112.15-2.15 2.15 2.15 0 01-2.15 2.15zm0-3.3a1.15 1.15 0 000 2.3 1.15 1.15 0 000-2.3z"/>
    <path d="M2 18.53a.5.5 0 01-.5-.5 3.57 3.57 0 117.13 0 .5.5 0 01-.5.5.51.51 0 01-.5-.5A2.57 2.57 0 102.5 18a.5.5 0 01-.5.53z"/>
  </g>
  <g>
    <path d="M11.16 19.21a8.5 8.5 0 01-1.23-.1.5.5 0 01.16-1 6.68 6.68 0 003.26-.28.51.51 0 01.64.31.51.51 0 01-.32.64 7.91 7.91 0 01-2.51.43z"/>
    <path d="M11.83 20.58a.52.52 0 01-.35-.14.5.5 0 010-.71l1.2-1.25-1.58-.73a.52.52 0 01-.25-.67.5.5 0 01.67-.24l2.21 1a.49.49 0 01.28.36.51.51 0 01-.13.44L12.2 20.4a.52.52 0 01-.37.18z"/>
  </g>
  <g>
    <path d="M19.08 9.05a.5.5 0 01-.47-.33A6.91 6.91 0 0016.79 6a.5.5 0 11.67-.74 7.78 7.78 0 012.09 3.12.51.51 0 01-.3.64z"/>
    <path d="M17.3 8.56a.5.5 0 01-.5-.47l-.17-2.43a.47.47 0 01.18-.42.53.53 0 01.44-.1l2.36.63a.48.48 0 01.35.61.5.5 0 01-.61.36l-1.68-.45L17.8 8a.51.51 0 01-.47.54z"/>
  </g>
  <g>
    <path d="M4.55 8.33a.45.45 0 01-.16 0 .5.5 0 01-.31-.63 7.81 7.81 0 012.07-3.17.5.5 0 01.71 0 .51.51 0 010 .71A6.71 6.71 0 005 8a.5.5 0 01-.45.33z"/>
    <path d="M4.55 8.33a.46.46 0 01-.23-.06.48.48 0 01-.26-.37l-.34-2.41a.5.5 0 111-.14L5 7.07l1.5-.79a.5.5 0 01.67.22.49.49 0 01-.17.67L4.78 8.28a.59.59 0 01-.23.05z"/>
  </g>
</svg>
