<svg viewBox="0 0 24 24" xmlns="http://www.w3.org/2000/svg">
  <path d="M 17.141 16.42 L 10.113 16.42 C 9.48 16.406 8.93 15.975 8.757 15.359 L 6.427 7.313 C 6.424 7.301 6.421 7.288 6.419 7.274 C 6.106 6.098 5.343 4.473 4.617 4.473 L 2.981 4.473 C 2.611 4.473 2.379 4.067 2.564 3.743 C 2.65 3.593 2.809 3.5 2.981 3.5 L 4.617 3.5 C 6.103 3.5 6.966 5.792 7.252 6.711 L 19.085 6.711 C 19.884 6.705 20.534 7.362 20.529 8.17 C 20.528 8.304 20.511 8.439 20.48 8.569 L 18.556 15.379 C 18.37 16.008 17.79 16.435 17.141 16.42 Z M 7.515 7.664 L 9.632 15.096 C 9.692 15.304 9.881 15.447 10.095 15.447 L 17.121 15.447 C 17.334 15.447 17.523 15.304 17.583 15.096 L 19.508 8.286 C 19.517 8.242 19.517 8.195 19.508 8.15 C 19.52 7.876 19.298 7.652 19.027 7.664 Z M 11 21.002 C 9.517 21.002 8.591 19.38 9.332 18.084 C 10.074 16.787 11.925 16.787 12.666 18.084 C 12.836 18.379 12.924 18.715 12.924 19.056 C 12.924 20.132 12.063 21.002 11 21.002 Z M 11 18.084 C 10.259 18.084 9.795 18.894 10.166 19.543 C 10.536 20.192 11.462 20.192 11.832 19.543 C 11.917 19.395 11.962 19.228 11.962 19.056 C 11.962 18.519 11.531 18.084 11 18.084 Z M 16.39 21.002 C 14.907 21.002 13.981 19.38 14.722 18.084 C 15.463 16.787 17.316 16.787 18.057 18.084 C 18.227 18.379 18.314 18.715 18.314 19.056 C 18.314 20.132 17.453 21.002 16.39 21.002 Z M 16.39 18.084 C 15.648 18.084 15.186 18.894 15.556 19.543 C 15.927 20.192 16.852 20.192 17.223 19.543 C 17.308 19.395 17.352 19.228 17.352 19.056 C 17.352 18.519 16.92 18.084 16.39 18.084 Z M 13.444 13.793 C 13.179 13.793 12.963 13.575 12.963 13.306 L 12.963 11.847 L 11.519 11.847 C 11.253 11.847 11.038 11.63 11.038 11.361 C 11.038 11.092 11.253 10.875 11.519 10.875 L 12.963 10.875 L 12.963 9.415 C 12.963 9.147 13.179 8.929 13.444 8.929 C 13.71 8.929 13.926 9.147 13.926 9.415 L 13.926 10.875 L 15.369 10.875 C 15.635 10.875 15.85 11.092 15.85 11.361 C 15.846 11.628 15.633 11.842 15.369 11.847 L 13.926 11.847 L 13.926 13.306 C 13.921 13.573 13.708 13.788 13.444 13.793 Z" style=""/>
</svg>
