<svg viewBox="0 0 24 24" xmlns="http://www.w3.org/2000/svg">
  <path d="M 11.868 9.194 C 11.797 9.844 11.049 10.174 10.521 9.788 C 10.328 9.647 10.204 9.431 10.178 9.194 C 10.178 8.725 10.559 8.344 11.028 8.344 C 11.488 8.344 11.863 8.714 11.868 9.174 Z M 16.418 9.194 C 16.347 9.844 15.599 10.174 15.071 9.788 C 14.878 9.647 14.754 9.431 14.728 9.194 C 14.728 8.725 15.109 8.344 15.578 8.344 C 16.02 8.321 16.396 8.662 16.418 9.104 Z M 8.328 20.704 C 7.176 20.699 6.243 19.766 6.238 18.614 C 6.236 18.295 6.307 17.992 6.434 17.721 C 6.231 17.649 6.032 17.567 5.838 17.474 C 4.571 16.974 3.464 16.137 2.638 15.054 C 2.614 15.023 2.594 14.989 2.578 14.954 C 2.511 14.803 2.476 14.639 2.478 14.474 C 2.478 14.397 2.499 14.321 2.538 14.254 C 2.652 13.963 2.936 13.775 3.248 13.784 C 4.568 13.784 4.848 13.024 5.018 10.784 C 5.041 10.287 5.097 9.793 5.188 9.304 C 5.868 5.784 9.258 3.784 12.118 3.354 C 15.195 2.967 18.245 4.252 20.118 6.724 C 21.529 8.601 21.905 11.061 21.118 13.274 C 20.405 15.187 18.983 16.743 17.159 17.628 C 17.665 18.569 17.4 19.836 16.363 20.434 C 16.042 20.619 15.678 20.716 15.308 20.714 L 15.308 20.704 C 14.179 20.683 13.266 19.781 13.229 18.656 C 12.764 18.74 12.292 18.783 11.818 18.784 C 11.349 18.783 10.881 18.741 10.421 18.658 C 10.414 18.993 10.325 19.335 10.138 19.659 C 9.765 20.306 9.075 20.704 8.328 20.704 Z M 8.328 16.524 C 9.137 16.524 9.793 16.964 10.144 17.579 C 11.247 17.857 12.403 17.856 13.506 17.576 C 14.054 16.633 15.308 16.205 16.363 16.814 C 16.372 16.819 16.382 16.825 16.391 16.831 C 18.124 16.087 19.479 14.666 20.138 12.894 C 20.799 10.997 20.485 8.895 19.298 7.274 C 17.656 5.111 14.997 3.971 12.298 4.274 C 9.738 4.684 6.758 6.454 6.168 9.494 C 6.074 9.943 6.011 10.397 5.978 10.854 C 5.858 12.514 5.708 14.524 3.678 14.794 C 4.36 15.575 5.221 16.179 6.188 16.554 C 6.492 16.699 6.809 16.812 7.136 16.892 C 7.474 16.658 7.885 16.522 8.328 16.524 Z M 7.238 18.614 C 7.158 19.449 8.012 20.058 8.775 19.71 C 9.198 19.517 9.452 19.077 9.408 18.614 C 9.414 18.014 8.928 17.524 8.328 17.524 C 7.726 17.524 7.238 18.012 7.238 18.614 Z M 14.228 18.604 C 14.244 19.205 14.727 19.688 15.328 19.704 C 16.167 19.696 16.683 18.783 16.257 18.06 C 16.209 17.979 16.153 17.907 16.091 17.844 C 16.029 17.811 15.974 17.765 15.931 17.71 C 15.431 17.371 14.698 17.496 14.369 18.078 C 14.278 18.238 14.23 18.419 14.228 18.604 Z M 13.318 14.454 C 11.73 14.46 10.316 13.449 9.808 11.944 C 9.728 11.568 10.085 11.246 10.452 11.364 C 10.582 11.407 10.689 11.501 10.748 11.624 C 11.125 12.721 12.158 13.457 13.318 13.454 C 14.508 13.476 15.579 12.735 15.978 11.614 C 16.067 11.35 16.358 11.214 16.618 11.314 C 16.877 11.408 17.012 11.694 16.918 11.954 C 16.383 13.45 14.967 14.45 13.378 14.454 Z"/>
</svg>
