<svg xmlns="http://www.w3.org/2000/svg" viewBox="0 0 24 24">
  <path d="M15 14.61H2.57a.5.5 0 01-.5-.5V6a2.41 2.41 0 012.38-2.41h8.67A2.4 2.4 0 0115.51 6v8.14a.5.5 0 01-.51.47zm-11.94-1h11.45V6a1.39 1.39 0 00-1.4-1.38H4.45A1.41 1.41 0 003.07 6z"/>
  <path d="M4.88 18.72H3.42a1.37 1.37 0 01-1.35-1.33v-3.84a.5.5 0 01.5-.5.5.5 0 01.5.5v3.83a.36.36 0 00.36.34h1.45a.5.5 0 010 1zM16.25 18.72h-8a.5.5 0 110-1h8a.5.5 0 010 1zM19.63 18.72a.5.5 0 110-1h.95a.37.37 0 00.35-.36v-5.44a1.16 1.16 0 00-.27-.69l-2.79-2.79a1 1 0 00-.69-.3H15a.5.5 0 01-.5-.5.5.5 0 01.5-.5h2.2a2 2 0 011.38.6l2.81 2.81a2.19 2.19 0 01.54 1.35v5.48a1.37 1.37 0 01-1.34 1.34z"/>
  <path d="M6.57 20.41a2.19 2.19 0 112.19-2.19 2.19 2.19 0 01-2.19 2.19zm0-3.38a1.19 1.19 0 101.19 1.19A1.19 1.19 0 006.57 17zM17.94 20.41a2.19 2.19 0 112.19-2.19 2.19 2.19 0 01-2.19 2.19zm0-3.38a1.19 1.19 0 101.19 1.19A1.19 1.19 0 0017.94 17z"/>
</svg>
