<svg xmlns="http://www.w3.org/2000/svg" viewBox="0 0 24 24">
  <title>outlined-navigation-directionbottom</title>
  <g>
    <g style="opacity: 0">
      <rect width="24" height="24"/>
    </g>
    <g>
      <g style="opacity: 0">
        <g>
          <circle cx="12" cy="12" r="9"/>
          <path d="M12,21.5A9.5,9.5,0,1,1,21.5,12,9.51,9.51,0,0,1,12,21.5Zm0-18A8.5,8.5,0,1,0,20.5,12,8.51,8.51,0,0,0,12,3.5Z"/>
        </g>
      </g>
      <g>
        <path d="M11.52,19.74a.5.5,0,0,1-.5-.5V4a.5.5,0,0,1,.5-.5A.5.5,0,0,1,12,4V19.24A.5.5,0,0,1,11.52,19.74Z"/>
        <path d="M11.52,19.81a.51.51,0,0,1-.36-.15L3.65,12.15a.5.5,0,0,1,0-.71.5.5,0,0,1,.7,0L11.87,19a.5.5,0,0,1-.35.85Z"/>
        <path d="M11.52,19.81a.51.51,0,0,1-.36-.15.5.5,0,0,1,0-.7l7.52-7.52a.5.5,0,0,1,.7,0,.5.5,0,0,1,0,.71l-7.51,7.51A.5.5,0,0,1,11.52,19.81Z"/>
      </g>
    </g>
  </g>
</svg>
