<svg viewBox="0 0 24 24" xmlns="http://www.w3.org/2000/svg">
  <path d="M 5.304 11.115 C 3.691 13.62 5.051 16.848 7.742 17.607 C 8.081 17.677 8.433 17.704 8.789 17.687 L 18.729 17.687 C 19.114 17.687 19.354 18.104 19.162 18.437 C 19.073 18.592 18.908 18.687 18.729 18.687 L 18.729 18.617 L 8.729 18.617 C 5.903 18.584 3.629 16.284 3.629 13.457 C 3.629 10.607 5.939 8.297 8.789 8.297 L 18.069 8.297 L 14.369 6.187 C 14.061 5.991 14.081 5.535 14.405 5.366 C 14.555 5.288 14.736 5.296 14.879 5.387 L 20.149 8.337 C 20.18 8.358 20.208 8.386 20.229 8.417 C 20.444 8.664 20.412 9.04 20.159 9.247 L 14.879 12.247 L 14.749 12.247 C 14.621 12.275 14.488 12.25 14.379 12.177 C 14.27 12.102 14.195 11.987 14.169 11.857 C 14.144 11.663 14.239 11.473 14.409 11.377 L 18.109 9.257 L 8.789 9.257 C 8.295 9.233 7.826 9.292 7.39 9.419 C 6.542 9.744 5.807 10.332 5.304 11.115 Z"/>
</svg>
