<svg viewBox="0 0 24 24" xmlns="http://www.w3.org/2000/svg">
  <path d="M 11.167 15.8 L 11.077 15.8 C 10.799 15.781 10.542 15.647 10.367 15.43 L 7.927 12.51 C 7.756 12.291 7.791 11.975 8.007 11.8 C 8.218 11.622 8.535 11.653 8.707 11.87 L 11.157 14.78 L 15.277 8.43 C 15.502 8.118 15.981 8.166 16.139 8.517 C 16.204 8.663 16.196 8.831 16.117 8.97 L 12.007 15.32 C 11.945 15.404 11.875 15.481 11.797 15.55 C 11.623 15.704 11.4 15.793 11.167 15.8 Z M 12.007 21.5 C 4.694 21.5 0.123 13.583 3.78 7.25 C 7.436 0.917 16.578 0.917 20.234 7.25 C 21.068 8.694 21.507 10.332 21.507 12 C 21.501 17.244 17.251 21.494 12.007 21.5 Z M 12.007 3.5 C 5.464 3.5 1.374 10.583 4.646 16.25 C 7.917 21.917 16.097 21.917 19.368 16.25 C 20.114 14.958 20.507 13.492 20.507 12 C 20.501 7.308 16.699 3.506 12.007 3.5 Z"/>
</svg>
