<svg xmlns="http://www.w3.org/2000/svg" xmlns:xlink="http://www.w3.org/1999/xlink" viewBox="0 0 24 24">
  <defs>
    <clipPath id="a">
      <rect width="24" height="24"/>
    </clipPath>
  </defs>
  <title>outlined-content-lock</title>
  <g>
    <g style="opacity: 0">
      <g>
        <rect width="24" height="24"/>
        <g style="clip-path: url(#a)">
          <g>
            <rect width="24" height="24"/>
            <path d="M12,21.5A9.5,9.5,0,1,1,21.5,12,9.51,9.51,0,0,1,12,21.5Zm0-18A8.5,8.5,0,1,0,20.5,12,8.51,8.51,0,0,0,12,3.5Z"/>
          </g>
        </g>
      </g>
    </g>
    <g>
      <g>
        <path d="M18.25,21.5H5.75A1.75,1.75,0,0,1,4,19.75V12.28a1.75,1.75,0,0,1,1.75-1.75h12.5A1.75,1.75,0,0,1,20,12.27v7.48A1.75,1.75,0,0,1,18.25,21.5Zm-12.5-1h12.5a.75.75,0,0,0,.75-.75V12.28a.75.75,0,0,0-.75-.75H5.75a.75.75,0,0,0-.75.75v7.47a.75.75,0,0,0,.75.75Z"/>
        <path d="M18.25,21.5H5.75A1.75,1.75,0,0,1,4,19.75V12.28a1.75,1.75,0,0,1,1.75-1.75h2v-1A4.25,4.25,0,0,1,12,5.26h0A4.25,4.25,0,0,1,16.25,9.5v1h2A1.75,1.75,0,0,1,20,12.27v7.48A1.75,1.75,0,0,1,18.25,21.5Zm-12.5-1h12.5a.75.75,0,0,0,.75-.75V12.28a.75.75,0,0,0-.75-.75h-3v-2A3.24,3.24,0,0,0,12,6.26h0A3.25,3.25,0,0,0,8.75,9.5v2h-3a.75.75,0,0,0-.75.75v7.47a.75.75,0,0,0,.75.75Z"/>
        <path d="M18.25,21.5H5.75A1.75,1.75,0,0,1,4,19.75V12.28A1.76,1.76,0,0,1,5.25,10.6V9.23A6.75,6.75,0,0,1,12,2.5h0a6.75,6.75,0,0,1,6.74,6.73V10.6A1.75,1.75,0,0,1,20,12.27v7.48A1.75,1.75,0,0,1,18.25,21.5Zm-12.5-1h12.5a.75.75,0,0,0,.75-.75V12.28a.75.75,0,0,0-.75-.75h-.5V9.23A5.74,5.74,0,0,0,12,3.5h0A5.75,5.75,0,0,0,6.25,9.23v2.3h-.5a.75.75,0,0,0-.75.75v7.47a.75.75,0,0,0,.75.75Z"/>
      </g>
      <g>
        <g>
          <ellipse cx="12" cy="14.75" rx="1.88" ry="1.87"/>
          <path d="M12,16.62a1.87,1.87,0,1,1,1.88-1.87A1.88,1.88,0,0,1,12,16.62Zm0-2a.12.12,0,0,0-.12.13.12.12,0,0,0,.24,0A.12.12,0,0,0,12,14.62Z"/>
        </g>
        <g>
          <rect x="10.75" y="14.75" width="2.5" height="3.74" rx="1.25"/>
          <path d="M12,18.49a1.25,1.25,0,0,1-1.25-1.24V16A1.25,1.25,0,0,1,12,14.75h0A1.25,1.25,0,0,1,13.25,16v1.25A1.25,1.25,0,0,1,12,18.49Zm-.42-1.87a.77.77,0,0,0,.84,0A.79.79,0,0,0,11.58,16.62Z"/>
        </g>
      </g>
    </g>
  </g>
</svg>
