<svg xmlns="http://www.w3.org/2000/svg" xmlns:xlink="http://www.w3.org/1999/xlink" viewBox="0 0 24 24">
  <defs>
    <clipPath id="a">
      <rect width="24" height="24"/>
    </clipPath>
  </defs>
  <title>outlined-product-hair</title>
  <g>
    <g style="opacity: 0">
      <g>
        <rect width="24" height="24"/>
        <g style="clip-path: url(#a)">
          <g>
            <rect width="24" height="24"/>
            <g>
              <circle cx="12" cy="12" r="9"/>
              <path d="M12,21.5A9.5,9.5,0,1,1,21.5,12,9.51,9.51,0,0,1,12,21.5Zm0-18A8.5,8.5,0,1,0,20.5,12,8.51,8.51,0,0,0,12,3.5Z"/>
            </g>
          </g>
        </g>
      </g>
    </g>
    <g>
      <path d="M14.6,20.49a2.32,2.32,0,0,1-1.7-.73l-9-9a2.33,2.33,0,0,1-.12-3.27L9,2.32A.5.5,0,1,1,9.66,3L4.51,8.18A1.33,1.33,0,0,0,4.6,10l9,9a1.34,1.34,0,0,0,1.89.09L20.65,14a.5.5,0,0,1,.71,0,.51.51,0,0,1,0,.71L16.2,19.87A2.34,2.34,0,0,1,14.6,20.49Z"/>
      <g>
        <path d="M7.46,9l4.06-4.06"/>
        <path d="M7.46,9.5a.49.49,0,0,1-.35-.15.5.5,0,0,1,0-.71l4.05-4.05a.5.5,0,0,1,.71,0,.5.5,0,0,1,0,.7l-4,4.06A.51.51,0,0,1,7.46,9.5Z"/>
      </g>
      <g>
        <path d="M5.43,7l11.3,11.3"/>
        <path d="M16.73,18.77a.49.49,0,0,1-.35-.15L5.08,7.32a.48.48,0,0,1,0-.7.5.5,0,0,1,.71,0l11.3,11.29a.51.51,0,0,1,0,.71A.51.51,0,0,1,16.73,18.77Z"/>
      </g>
      <g>
        <path d="M9.84,11.38,13.9,7.32"/>
        <path d="M9.84,11.88a.52.52,0,0,1-.35-.14.5.5,0,0,1,0-.71L13.55,7a.5.5,0,0,1,.7,0,.5.5,0,0,1,0,.71L10.2,11.74A.54.54,0,0,1,9.84,11.88Z"/>
      </g>
      <g>
        <path d="M12.17,13.71l4.06-4.06"/>
        <path d="M12.17,14.21a.5.5,0,0,1-.35-.85L15.88,9.3a.5.5,0,0,1,.7,0,.5.5,0,0,1,0,.71l-4,4.05A.51.51,0,0,1,12.17,14.21Z"/>
      </g>
      <g>
        <path d="M14.46,16l4.06-4.06"/>
        <path d="M14.46,16.5a.47.47,0,0,1-.35-.15.48.48,0,0,1,0-.7l4.05-4.06a.5.5,0,0,1,.71,0,.51.51,0,0,1,0,.71l-4.06,4.05A.49.49,0,0,1,14.46,16.5Z"/>
      </g>
    </g>
  </g>
</svg>
