<svg xmlns="http://www.w3.org/2000/svg" xmlns:xlink="http://www.w3.org/1999/xlink" viewBox="0 0 24 24">
  <defs>
    <clipPath id="a">
      <rect width="24" height="24"/>
    </clipPath>
  </defs>
  <title>outlined-content-christmascard</title>
  <g>
    <g style="opacity: 0">
      <g>
        <rect width="24" height="24"/>
        <g style="clip-path: url(#a)">
          <g>
            <rect width="24" height="24"/>
            <path d="M12,21.5A9.5,9.5,0,1,1,21.5,12,9.51,9.51,0,0,1,12,21.5Zm0-18A8.5,8.5,0,1,0,20.5,12,8.51,8.51,0,0,0,12,3.5Z"/>
          </g>
        </g>
      </g>
    </g>
    <g>
      <path d="M19.3,8.54a.27.27,0,0,0-.3.22V21.84a.65.65,0,0,1-.6.6H5.3a.65.65,0,0,1-.6-.6v-3a.26.26,0,0,0-.22-.3H4.4c-.2,0-.4.1-.4.2v3A1.32,1.32,0,0,0,5.3,23H18.4a1.32,1.32,0,0,0,1.3-1.3v-13A.49.49,0,0,0,19.3,8.54Z"/>
      <path d="M15.6,10.54a.86.86,0,0,0-.3-.9l-2.8-2.3a1.2,1.2,0,0,0-1.4,0L8.3,9.74a1.12,1.12,0,0,0-.3.8,1.05,1.05,0,0,0,.6.7c.1,0,.2.1.4.1l-1.1.9a.8.8,0,0,0-.3.9,1,1,0,0,0,.7.7c.1,0,.2,0,.2.1l-1,.8a.9.9,0,0,0-.3,1,1,1,0,0,0,.7.8,21.75,21.75,0,0,0,2.4.5l-.3,1.4a.78.78,0,0,0,.6.9,5.36,5.36,0,0,0,1.2.1,5.36,5.36,0,0,0,1.2-.1.78.78,0,0,0,.6-.9l-.2-1.3a21.75,21.75,0,0,0,2.4-.5,1.09,1.09,0,0,0,.66-1.39.93.93,0,0,0-.26-.41l-1-.8c.1,0,.2,0,.2-.1a1.21,1.21,0,0,0,.7-.7,1,1,0,0,0-.3-.9l-1.1-.9c.1,0,.2-.1.4-.1A1.61,1.61,0,0,0,15.6,10.54Zm-2.7,8.1a7.39,7.39,0,0,1-2.1,0,.1.1,0,0,1-.1-.1h0l.2-1.4h1.8l.3,1.4Zm2.8-3.3c.1.1.2.2.1.4s-.1.2-.3.3a12.19,12.19,0,0,1-2.6.5h-.1a8.1,8.1,0,0,1-2.2,0h-.1A11,11,0,0,1,7.9,16q-.15,0-.3-.3c-.1-.2,0-.3.1-.4l1.4-1.1a10.57,10.57,0,0,0,5,0Zm-.4-2.6a.37.37,0,0,1,.1.3.22.22,0,0,1-.2.2,2.41,2.41,0,0,1-.8.2h0a11,11,0,0,1-5.1,0h0c-.3-.1-.5-.1-.8-.2a.2.2,0,0,1-.2-.2.37.37,0,0,1,.1-.3l1.5-1.2a14.89,14.89,0,0,0,2,.2,14.89,14.89,0,0,0,2-.2Zm-.3-2.3s0,.1-.2.2a3.09,3.09,0,0,1-.9.2h0a9.45,9.45,0,0,1-4.1,0h0a3.78,3.78,0,0,1-1-.2.22.22,0,0,1-.2-.2.3.3,0,0,1,.1-.2l2.8-2.4a.45.45,0,0,1,.5,0l2.8,2.4C15,10.34,15,10.44,15,10.44Z"/>
      <path d="M8.5,5.64a.45.45,0,0,0-.5,0l-.5.6-.6-.6a.45.45,0,0,0-.5,0,.45.45,0,0,0,0,.5l.6.5-.5.6a.45.45,0,0,0,0,.5c.1.1.1.1.2.1s.2,0,.2-.1l.5-.5.6.4c.1.1.1.1.2.1s.2,0,.2-.1a.45.45,0,0,0,0-.5l-.5-.5.5-.5C8.6,5.94,8.6,5.74,8.5,5.64Z"/>
      <path d="M16.1,8.34c.1.1.1.1.2.1s.2,0,.2-.1l.5-.5.5.5c.1.1.1.1.2.1s.2,0,.2-.1a.45.45,0,0,0,0-.5l-.5-.5.5-.5a.45.45,0,0,0,0-.5.45.45,0,0,0-.5,0l-.5.5-.5-.5a.45.45,0,0,0-.5,0,.45.45,0,0,0,0,.5l.5.5-.5.5C16,7.94,16,8.14,16.1,8.34Z"/>
      <path d="M18.4,3.44v-1a1.63,1.63,0,0,0-.5-1.1A1.13,1.13,0,0,0,16.8,1L5,3.54H5a1.18,1.18,0,0,0-1,1.2v12.1a.27.27,0,0,0,.22.3H4.3a.27.27,0,0,0,.3-.23V4.74a.65.65,0,0,1,.6-.6H18.3a.65.65,0,0,1,.6.6v2.1a.3.3,0,0,0,.6,0V4.74a1.11,1.11,0,0,0-.9-1.29Zm-.6,0H8.3l8.6-1.8a1.23,1.23,0,0,1,.6.1.61.61,0,0,1,.3.6Z"/>
      <path d="M8.5,18.54a.45.45,0,0,0-.5,0l-.5.5-.5-.5a.45.45,0,0,0-.5,0,.45.45,0,0,0,0,.5l.5.5-.5.5a.45.45,0,0,0,0,.5c.1.1.1.1.2.1s.2,0,.2-.1l.5-.5.6.5c.1.1.1.1.2.1s.2,0,.2-.1a.45.45,0,0,0,0-.5l-.5-.5.5-.5C8.6,18.84,8.6,18.64,8.5,18.54Z"/>
      <path d="M6,13a.45.45,0,0,0-.5,0,.45.45,0,0,0,0,.5l.3.3-.3.2a.45.45,0,0,0,0,.5c.1.1.1.1.2.1s.2,0,.2-.1l.3-.3.3.3c.1.1.1.1.2.1s.2,0,.2-.1a.45.45,0,0,0,0-.5l-.3-.3.4-.3a.45.45,0,0,0,0-.5.45.45,0,0,0-.5,0l-.3.3Z"/>
      <path d="M17.7,12.14c.1,0,.2,0,.2-.1a.45.45,0,0,0,0-.5l-.3-.3.4-.3a.45.45,0,0,0,0-.5.45.45,0,0,0-.5,0l-.3.3-.3-.3a.45.45,0,0,0-.5,0,.45.45,0,0,0,0,.5l.3.3-.3.3a.45.45,0,0,0,0,.5c.1.1.1.1.2.1s.2,0,.2-.1l.3-.3.3.3A.41.41,0,0,1,17.7,12.14Z"/>
      <path d="M15.4,19.44c.1.1.1.1.2.1s.2,0,.2-.1l.5-.5.5.5c.1.1.1.1.2.1s.2,0,.2-.1a.45.45,0,0,0,0-.5l-.5-.5.5-.5a.35.35,0,0,0-.5-.5l-.3.6-.5-.5a.35.35,0,0,0-.5.5l.5.5-.5.5a.25.25,0,0,0,0,.32A.12.12,0,0,1,15.4,19.44Z"/>
    </g>
  </g>
</svg>
