<svg viewBox="0 0 24 24" xmlns="http://www.w3.org/2000/svg">
  <path d="M 11.293 21.773 C 10.084 21.769 8.897 21.455 7.843 20.863 C 5.993 19.423 5.613 17.223 6.783 14.773 C 6.952 14.374 6.952 13.922 6.783 13.523 C 6.458 12.67 6.458 11.726 6.783 10.873 C 6.832 10.74 6.889 10.609 6.953 10.483 C 7.221 9.896 7.557 9.342 7.953 8.833 L 8.225 8.496 C 7.919 8.064 7.829 7.479 8.088 6.933 C 8.248 6.597 8.518 6.338 8.841 6.189 C 8.817 6.025 8.805 5.859 8.803 5.693 C 8.793 5.573 8.793 5.453 8.803 5.333 C 8.798 5.27 8.798 5.206 8.803 5.143 C 8.881 4.316 9.284 3.554 9.923 3.023 C 11.73 1.417 14.597 2.369 15.085 4.737 C 15.155 5.078 15.168 5.428 15.123 5.773 C 15.122 5.915 15.113 6.056 15.095 6.197 C 15.824 6.545 16.215 7.447 15.828 8.263 C 15.79 8.344 15.745 8.42 15.695 8.491 C 17.052 10.112 17.821 12.146 17.873 14.263 C 18.003 17.503 17.023 20.073 15.253 21.143 C 14.162 21.61 12.978 21.822 11.793 21.763 Z M 8.953 9.193 L 8.743 9.453 C 8.382 9.906 8.071 10.395 7.813 10.913 C 7.813 11.013 7.723 11.113 7.693 11.213 C 7.443 11.856 7.443 12.57 7.693 13.213 C 7.945 13.86 7.923 14.582 7.633 15.213 C 6.633 17.213 6.933 18.963 8.343 20.093 C 9.383 20.647 10.558 20.897 11.733 20.813 C 12.759 20.862 13.783 20.684 14.733 20.293 C 16.133 19.443 16.943 17.203 16.823 14.293 C 16.774 12.423 16.106 10.622 14.923 9.173 Z M 14.203 5.703 C 14.268 5.099 14.088 4.493 13.703 4.023 C 13.324 3.563 12.776 3.275 12.183 3.223 C 10.953 3.095 9.854 3.992 9.733 5.223 L 9.733 5.373 C 9.723 5.469 9.723 5.567 9.733 5.663 C 9.719 5.793 9.717 5.923 9.727 6.053 L 14.208 6.053 C 14.213 5.936 14.211 5.819 14.203 5.703 Z M 9.613 6.943 C 9.105 6.943 8.787 7.493 9.041 7.933 C 9.115 8.061 9.228 8.158 9.361 8.213 L 14.558 8.213 C 14.907 8.068 15.083 7.633 14.875 7.273 C 14.757 7.069 14.539 6.943 14.303 6.943 Z"/>
</svg>
