<svg viewBox="0 0 24 24" xmlns="http://www.w3.org/2000/svg">
  <path d="M 7.67 14.48 C 7.285 14.48 7.045 14.063 7.237 13.73 C 7.326 13.575 7.491 13.48 7.67 13.48 L 12.33 13.48 C 12.363 13.48 12.395 13.483 12.425 13.489 C 13.748 12.419 15.569 12.217 17.08 12.883 L 17.08 4.14 C 17.08 3.965 17.012 3.796 16.89 3.67 C 16.765 3.547 16.596 3.478 16.42 3.48 L 5.92 3.48 C 5.55 3.48 5.25 3.78 5.25 4.15 L 5.25 18.15 C 5.247 18.328 5.32 18.499 5.45 18.62 C 5.573 18.746 5.744 18.815 5.92 18.81 L 11.13 18.81 C 10.583 17.573 10.581 16.087 11.353 14.75 C 11.407 14.657 11.463 14.567 11.521 14.48 Z M 14.67 11.67 L 7.67 11.67 C 7.285 11.67 7.045 11.253 7.237 10.92 C 7.326 10.765 7.491 10.67 7.67 10.67 L 14.67 10.67 C 15.055 10.67 15.295 11.087 15.103 11.42 C 15.014 11.575 14.849 11.67 14.67 11.67 Z M 14.67 8.86 L 7.67 8.86 C 7.394 8.86 7.17 8.636 7.17 8.36 C 7.17 8.084 7.394 7.86 7.67 7.86 L 14.67 7.86 C 14.944 7.865 15.165 8.086 15.17 8.36 C 15.17 8.636 14.946 8.86 14.67 8.86 Z M 5.91 19.83 C 4.993 19.83 4.25 19.087 4.25 18.17 L 4.25 4.17 C 4.25 3.252 4.992 2.505 5.91 2.5 L 16.41 2.5 C 17.323 2.494 18.069 3.227 18.08 4.14 L 18.08 13.493 C 18.492 13.828 18.856 14.247 19.147 14.75 C 19.542 15.434 19.75 16.21 19.75 17 C 19.75 19.485 17.735 21.5 15.25 21.5 C 13.776 21.5 12.537 20.821 11.734 19.81 L 5.91 19.81 Z M 15.25 13.5 C 12.556 13.5 10.872 16.417 12.219 18.75 C 13.566 21.083 16.934 21.083 18.281 18.75 C 18.588 18.218 18.75 17.614 18.75 17 C 18.75 15.067 17.183 13.5 15.25 13.5 Z M 17 17.5 L 15.75 17.5 L 15.75 18.74 C 15.756 19.02 15.53 19.25 15.25 19.25 C 14.97 19.25 14.744 19.02 14.75 18.74 L 14.75 17.5 L 13.5 17.5 C 13.224 17.5 13 17.276 13 17 C 13 16.724 13.224 16.5 13.5 16.5 L 14.75 16.5 L 14.75 15.24 C 14.75 14.855 15.167 14.615 15.5 14.807 C 15.655 14.896 15.75 15.061 15.75 15.24 L 15.75 16.5 L 17 16.5 C 17.276 16.5 17.5 16.724 17.5 17 C 17.5 17.276 17.276 17.5 17 17.5 Z"/>
</svg>
