<svg viewBox="0 0 24 24" xmlns="http://www.w3.org/2000/svg">
  <path d="M 12.007 21.5 C 4.694 21.5 0.123 13.583 3.78 7.25 C 7.436 0.917 16.578 0.917 20.234 7.25 C 21.068 8.694 21.507 10.332 21.507 12 C 21.501 17.244 17.251 21.494 12.007 21.5 Z M 12.007 3.5 C 5.464 3.5 1.374 10.583 4.646 16.25 C 7.917 21.917 16.097 21.917 19.368 16.25 C 20.114 14.958 20.507 13.492 20.507 12 C 20.501 7.308 16.699 3.506 12.007 3.5 Z M 8.938 8.666 C 10.285 6.333 13.653 6.333 15 8.666 C 15.307 9.198 15.469 9.802 15.469 10.416 C 15.469 11.595 14.886 12.637 13.993 13.272 C 14.944 13.598 15.837 14.172 16.579 15.015 C 17.112 15.621 17.519 16.326 17.777 17.09 C 17.863 17.349 17.725 17.63 17.467 17.72 C 17.416 17.74 17.362 17.75 17.307 17.75 C 17.093 17.752 16.903 17.614 16.837 17.41 C 16.318 15.92 15.147 14.749 13.657 14.23 C 10.99 13.322 8.091 14.745 7.177 17.41 C 7.011 17.757 6.531 17.794 6.314 17.477 C 6.236 17.364 6.209 17.224 6.237 17.09 C 6.881 15.182 8.309 13.881 9.973 13.297 C 8.565 12.315 7.972 10.341 8.938 8.666 Z M 11.969 7.916 C 10.044 7.916 8.842 10 9.804 11.666 C 10.766 13.333 13.172 13.333 14.134 11.666 C 14.353 11.286 14.469 10.855 14.469 10.416 C 14.469 9.036 13.35 7.916 11.969 7.916 Z"/>
</svg>
