<svg xmlns="http://www.w3.org/2000/svg" viewBox="0 0 24 24">
  <title>outlined-finance-tagdiscount</title>
  <g>
    <rect width="24" height="24" style="fill: red;opacity: 0"/>
    <g>
      <path d="M9.76,21.43h0a1.86,1.86,0,0,1-1.34-.56L3.06,15.52a1.91,1.91,0,0,1,0-2.69l9.56-9.56a1.84,1.84,0,0,1,1.21-.55L17,2.5a1.93,1.93,0,0,1,1.47.56L21,5.52A1.89,1.89,0,0,1,21.5,7l-.28,3.09a1.86,1.86,0,0,1-.55,1.18L11.1,20.87A1.85,1.85,0,0,1,9.76,21.43ZM17.13,3.5h-.06l-3.17.21a.92.92,0,0,0-.58.27h0L3.76,13.54a.91.91,0,0,0,0,1.28l5.36,5.35a.88.88,0,0,0,.63.26.93.93,0,0,0,.64-.26L20,10.6a.88.88,0,0,0,.27-.56l.27-3.1a.87.87,0,0,0-.26-.71L17.77,3.76A.9.9,0,0,0,17.13,3.5Z"/>
      <path d="M17.31,8.14a1.52,1.52,0,1,1,1.51-1.52A1.52,1.52,0,0,1,17.31,8.14Zm0-2a.52.52,0,1,0,.51.51A.51.51,0,0,0,17.31,6.11Z"/>
    </g>
  </g>
</svg>
