<svg xmlns="http://www.w3.org/2000/svg" viewBox="0 0 24 24">
  <title>outlined-content-health</title>
  <g>
    <rect width="24" height="24" style="fill: red;opacity: 0"/>
    <g>
      <g>
        <path d="M12,21.33a1.39,1.39,0,0,1-1-.39,47.35,47.35,0,0,1-5.34-6.07.5.5,0,1,1,.8-.6,47.7,47.7,0,0,0,5.23,5.95.4.4,0,0,0,.56,0,47.7,47.7,0,0,0,5.23-5.95.5.5,0,0,1,.8.6A47.35,47.35,0,0,1,13,20.94,1.39,1.39,0,0,1,12,21.33Z"/>
        <path d="M19.87,10a.47.47,0,0,1-.17,0,.49.49,0,0,1-.3-.64,4.45,4.45,0,0,0,.26-1.4,3.81,3.81,0,0,0-3.43-4.18,4.14,4.14,0,0,0-.61,0A4,4,0,0,0,12.4,5.3a.52.52,0,0,1-.8,0A4,4,0,0,0,8.41,3.7,3.8,3.8,0,0,0,4.33,7.24a4.12,4.12,0,0,0,0,.61A4.49,4.49,0,0,0,4.6,9.29a.49.49,0,0,1-.3.64.5.5,0,0,1-.64-.3,5.57,5.57,0,0,1-.32-1.72,4.4,4.4,0,0,1,0-.73A4.81,4.81,0,0,1,8.45,2.7,5,5,0,0,1,12,4.23,5.06,5.06,0,0,1,15.58,2.7a4.61,4.61,0,0,1,.74,0A4.82,4.82,0,0,1,20.66,8a5.55,5.55,0,0,1-.32,1.68A.5.5,0,0,1,19.87,10Z"/>
      </g>
      <path d="M13.79,13.93a.39.39,0,0,1-.15,0,.51.51,0,0,1-.32-.29L11.89,10,10.4,12.29a.47.47,0,0,1-.37.22.5.5,0,0,1-.4-.15L8.39,11.08,7.8,12.24a.49.49,0,0,1-.44.27H3.5A.5.5,0,0,1,3,12a.5.5,0,0,1,.5-.5H7.05L7.81,10a.5.5,0,0,1,.81-.12l1.29,1.34,1.67-2.53a.52.52,0,0,1,.47-.22.48.48,0,0,1,.41.31L14,12.66l1.51-1.06a.58.58,0,0,1,.29-.09H20.5a.5.5,0,0,1,.5.5.5.5,0,0,1-.5.5H16l-1.9,1.33A.47.47,0,0,1,13.79,13.93Z"/>
    </g>
  </g>
</svg>
