<svg viewBox="0 0 24 24" xmlns="http://www.w3.org/2000/svg">
  <path d="M 5.405 20.25 C 5.304 20.251 5.206 20.219 5.125 20.16 C 4.971 20.06 4.886 19.882 4.905 19.7 L 5.135 16.91 C 3.724 15.534 2.921 13.651 2.905 11.68 C 2.905 7.3 6.985 3.75 11.995 3.75 C 17.005 3.75 21.095 7.3 21.095 11.67 C 21.095 16.04 17.015 19.59 12.005 19.59 C 10.683 19.581 9.374 19.327 8.145 18.84 L 5.635 20.14 C 5.569 20.196 5.49 20.234 5.405 20.25 Z M 11.995 4.75 C 7.535 4.75 3.905 7.85 3.905 11.67 C 3.941 13.417 4.693 15.073 5.985 16.25 C 6.103 16.352 6.163 16.505 6.145 16.66 L 5.975 18.8 L 7.885 17.8 C 8.021 17.735 8.179 17.735 8.315 17.8 C 9.474 18.3 10.723 18.559 11.985 18.56 L 11.985 18.56 C 16.455 18.56 20.085 15.46 20.085 11.64 C 20.085 7.82 16.455 4.75 11.995 4.75 Z" style="clip-path: url(#a);"/>
</svg>
