<svg xmlns="http://www.w3.org/2000/svg" viewBox="0 0 24 24">
  <path d="M11.81 20.38a.44.44 0 01-.44-.44V4a.44.44 0 01.88 0v15.94a.44.44 0 01-.44.44zM4.78 20.36a2.29 2.29 0 01-2.28-2.27V5.86a2.25 2.25 0 01.68-1.62 2.29 2.29 0 011.6-.66h4.86a.5.5 0 01.5.5.5.5 0 01-.5.5H4.79a1.28 1.28 0 00-.91.42 1.23 1.23 0 00-.38.9v12.18a1.29 1.29 0 001.28 1.28H9.3a.5.5 0 01.5.5.51.51 0 01-.5.5H4.78zM16.66 19.85a.5.5 0 01.5-.5.5.5 0 01.5.5.5.5 0 01-.5.51.5.5 0 01-.5-.51zm-3 0a.5.5 0 01.5-.5.5.5 0 01.5.5.5.5 0 01-.5.51.5.5 0 01-.5-.51zm6-.13a.51.51 0 01-.13-.33.51.51 0 01.17-.39.49.49 0 01.71 0 .48.48 0 01.13.33.51.51 0 01-.16.38.55.55 0 01-.34.13.51.51 0 01-.37-.12zm.45-3.17a.5.5 0 01.5-.5.5.5 0 01.5.5.5.5 0 01-.5.5.5.5 0 01-.49-.5zm0-3a.51.51 0 01.5-.5.5.5 0 01.5.5.5.5 0 01-.5.5.5.5 0 01-.49-.5zm0-3a.51.51 0 01.5-.5.5.5 0 01.5.5.5.5 0 01-.5.5.5.5 0 01-.49-.5zm0-3a.5.5 0 01.5-.5.5.5 0 01.5.5.5.5 0 01-.5.5.5.5 0 01-.49-.5zM19.79 5a.46.46 0 01-.13-.33.45.45 0 01.16-.37.49.49 0 01.7 0 .57.57 0 01.14.34.51.51 0 01-.17.37.51.51 0 01-.33.13.48.48 0 01-.37-.14zm-3-.92a.51.51 0 01.5-.5.5.5 0 01.5.5.5.5 0 01-.5.5.5.5 0 01-.47-.5zm-3 0a.51.51 0 01.5-.5.5.5 0 01.5.5.5.5 0 01-.5.5.5.5 0 01-.47-.5z"/>
</svg>
