<svg viewBox="0 0 24 24" xmlns="http://www.w3.org/2000/svg">
  <path d="M 9.836 9.503 C 10.798 7.836 13.204 7.836 14.166 9.503 C 14.385 9.883 14.501 10.314 14.501 10.753 C 14.497 11.96 13.639 12.966 12.501 13.201 L 12.501 20.753 C 12.501 21.029 12.277 21.253 12.001 21.253 C 11.725 21.253 11.501 21.029 11.501 20.753 L 11.501 13.204 C 9.878 12.882 8.96 11.02 9.836 9.503 Z M 12.001 9.253 C 10.846 9.253 10.125 10.503 10.702 11.503 C 10.987 11.997 11.483 12.246 11.981 12.253 C 11.995 12.252 12.008 12.252 12.022 12.253 C 12.52 12.246 13.016 11.996 13.3 11.503 C 13.432 11.275 13.501 11.016 13.501 10.753 C 13.501 9.925 12.829 9.253 12.001 9.253 Z M 7.001 18.643 C 6.902 18.641 6.806 18.613 6.721 18.563 C 5.667 17.865 4.765 16.96 4.071 15.903 C 1.205 11.56 2.39 5.717 6.721 2.833 C 7.044 2.617 7.48 2.833 7.505 3.221 C 7.516 3.4 7.431 3.573 7.281 3.673 C 3.399 6.242 2.334 11.47 4.901 15.353 C 5.524 16.297 6.334 17.104 7.281 17.723 C 7.51 17.879 7.573 18.19 7.421 18.423 C 7.325 18.56 7.168 18.641 7.001 18.643 Z M 17.001 18.643 C 16.834 18.641 16.677 18.56 16.581 18.423 C 16.429 18.19 16.492 17.879 16.721 17.723 C 20.603 15.154 21.668 9.926 19.101 6.043 C 18.478 5.099 17.668 4.292 16.721 3.673 C 16.398 3.457 16.429 2.973 16.777 2.801 C 16.939 2.721 17.131 2.733 17.281 2.833 C 22.896 6.573 22.896 14.823 17.281 18.563 C 17.196 18.613 17.1 18.641 17.001 18.643 Z M 15.001 16.983 C 14.813 16.983 14.64 16.879 14.551 16.713 C 14.428 16.467 14.526 16.168 14.771 16.043 C 18.886 13.945 19.186 8.179 15.311 5.665 C 15.136 5.552 14.956 5.447 14.771 5.353 C 14.526 5.228 14.428 4.929 14.551 4.683 C 14.68 4.437 14.982 4.339 15.231 4.463 C 16.543 5.133 17.611 6.201 18.281 7.513 C 20.041 10.956 18.675 15.175 15.231 16.933 C 15.16 16.968 15.081 16.986 15.001 16.983 Z M 9.001 16.983 C 8.921 16.986 8.842 16.968 8.771 16.933 C 7.485 16.267 6.437 15.219 5.771 13.933 C 3.97 10.491 5.316 6.24 8.771 4.463 C 9.02 4.339 9.322 4.437 9.451 4.683 C 9.574 4.929 9.476 5.228 9.231 5.353 C 5.116 7.451 4.816 13.217 8.691 15.731 C 8.866 15.844 9.046 15.949 9.231 16.043 C 9.476 16.168 9.574 16.467 9.451 16.713 C 9.362 16.879 9.189 16.983 9.001 16.983 Z"/>
</svg>
