<svg viewBox="0 0 24 24" xmlns="http://www.w3.org/2000/svg">
  <path d="M 12.26 21.73 C 8.818 21.703 6.033 18.922 6 15.48 L 6 7.68 C 6.166 4.081 10.166 2.012 13.2 3.956 C 14.478 4.775 15.28 6.163 15.35 7.68 L 15.35 14.23 C 15.35 16.616 12.767 18.108 10.7 16.915 C 9.741 16.361 9.15 15.338 9.15 14.23 L 9.15 9.23 C 9.155 8.956 9.376 8.735 9.65 8.73 C 9.926 8.73 10.15 8.954 10.15 9.23 L 10.15 14.23 C 10.15 15.847 11.9 16.857 13.3 16.049 C 13.95 15.674 14.35 14.98 14.35 14.23 L 14.35 7.68 C 14.498 4.851 11.527 2.923 9.004 4.21 C 7.709 4.87 6.924 6.229 7 7.68 L 7 15.48 C 7.177 19.525 11.666 21.863 15.081 19.687 C 16.529 18.765 17.435 17.195 17.51 15.48 L 17.51 9.25 C 17.51 8.974 17.734 8.75 18.01 8.75 C 18.284 8.755 18.505 8.976 18.51 9.25 L 18.51 15.48 C 18.477 18.918 15.698 21.697 12.26 21.73 Z"/>
</svg>
