<svg viewBox="0 0 24 24" xmlns="http://www.w3.org/2000/svg">
  <path d="M 11.106 10.45 C 12.06 8.797 14.447 8.797 15.401 10.45 C 15.619 10.827 15.733 11.255 15.733 11.69 C 15.73 12.392 15.437 13.026 14.967 13.477 C 16.396 14.03 17.441 15.384 17.52 17.015 C 17.537 17.291 17.326 17.529 17.05 17.545 C 16.772 17.568 16.53 17.354 16.52 17.075 C 16.413 15.4 14.976 14.124 13.3 14.215 C 11.605 14.101 10.137 15.38 10.02 17.075 C 10.01 17.358 9.762 17.574 9.48 17.545 C 9.206 17.524 8.998 17.289 9.01 17.015 C 9.087 15.39 10.121 14.042 11.537 13.482 C 10.763 12.736 10.495 11.508 11.106 10.45 Z M 13.253 10.17 C 12.114 10.17 11.402 11.403 11.972 12.39 C 12.541 13.377 13.966 13.377 14.535 12.39 C 14.665 12.165 14.733 11.91 14.733 11.65 C 14.712 10.848 14.055 10.21 13.253 10.21 Z M 17.39 20.345 L 6.61 20.345 C 5.232 20.34 4.115 19.223 4.11 17.845 L 4.11 6.155 C 4.115 4.777 5.232 3.66 6.61 3.655 L 17.39 3.655 C 18.771 3.655 19.89 4.774 19.89 6.155 L 19.89 17.845 C 19.89 19.226 18.771 20.345 17.39 20.345 Z M 6.61 4.655 C 5.782 4.655 5.11 5.327 5.11 6.155 L 5.11 17.845 C 5.11 18.673 5.782 19.345 6.61 19.345 L 17.39 19.345 C 18.218 19.345 18.89 18.673 18.89 17.845 L 18.89 6.155 C 18.89 5.327 18.218 4.655 17.39 4.655 Z M 7.44 18.665 C 7.164 18.665 6.94 18.441 6.94 18.165 L 6.94 5.845 C 6.94 5.569 7.164 5.345 7.44 5.345 C 7.714 5.35 7.935 5.571 7.94 5.845 L 7.94 18.165 C 7.94 18.441 7.716 18.665 7.44 18.665 Z"/>
</svg>
