<svg xmlns="http://www.w3.org/2000/svg" viewBox="0 0 24 24">
  <path d="M16.92 21.48a.5.5 0 01-.5-.5.5.5 0 01.5-.5h2.3a.2.2 0 00.11-.21v-4.11a.32.32 0 00-.06-.2.49.49 0 01-.1-.3v-2.52a.3.3 0 00-.1-.24.53.53 0 01-.18-.38v-2.06a.26.26 0 00-.1-.24l-1.27.84a.5.5 0 11-.56-.83l1.26-.85a.84.84 0 01.59-.15.91.91 0 01.59.19 1.26 1.26 0 01.49 1.05v1.85a1.26 1.26 0 01.28.83v2.36a1.33 1.33 0 01.16.65v4.07a1.17 1.17 0 01-1.06 1.24zM9.39 21.48a1 1 0 01-.94-1.14v-8.92a9.9 9.9 0 01.83-4.15 5.27 5.27 0 00.12-1.75.51.51 0 01.12-.39.52.52 0 01.37-.13h4.67a.51.51 0 01.37.16.52.52 0 01.13.39 5.38 5.38 0 00.14 1.83 9.91 9.91 0 01.8 4.05v8.94a1 1 0 01-.91 1.11zM10.42 6a6 6 0 01-.2 1.63 9.18 9.18 0 00-.77 3.81v9a.41.41 0 000 .14h5.56v-9.09a9.11 9.11 0 00-.75-3.75A6.43 6.43 0 0114 6zM5.77 21.48A1.42 1.42 0 014.46 20v-1a1.79 1.79 0 01-.22-.85l-.18-5.42a2.33 2.33 0 00-.06-.5l-.39-1.73a1.23 1.23 0 010-.35 1.54 1.54 0 01-.06-.43V8.45a1.22 1.22 0 011-1.33H7a.5.5 0 01.5.5.5.5 0 01-.5.5H4.58a.29.29 0 00-.08.24v1.36a.78.78 0 000 .21.44.44 0 010 .2.49.49 0 000 .12L5 12a4.29 4.29 0 01.08.71l.18 5.44a.75.75 0 00.13.42.52.52 0 01.09.29V20a.43.43 0 00.37.49H7a.5.5 0 01.44-.55.47.47 0 01.53.44 1 1 0 01-.92 1.1zM8.45 3h6.31M14.76 3.5H8.45a.5.5 0 010-1h6.31a.5.5 0 010 1zM14.13 5.31V3.04"/>
  <path d="M14.13 5.81a.5.5 0 01-.5-.5V3a.5.5 0 011 0v2.31a.5.5 0 01-.5.5zM10.33 5.31V3.04M10.33 5.81a.5.5 0 01-.5-.5V3a.5.5 0 011 0v2.31a.5.5 0 01-.5.5zM4.07 10.09h2.81M6.88 10.59H4.07a.5.5 0 01-.5-.5.5.5 0 01.5-.5h2.81a.5.5 0 01.5.5.51.51 0 01-.5.5z"/>
  <g>
    <path d="M4.95 18.88H6.7M6.69 19.38H5a.5.5 0 110-1h1.69a.5.5 0 110 1z"/>
  </g>
  <g>
    <path d="M19.04 12.52h-1.57M19 13h-1.53a.5.5 0 01-.5-.5.5.5 0 01.5-.5H19a.5.5 0 01.5.5.5.5 0 01-.5.5z"/>
  </g>
  <g>
    <path d="M19.67 15.65h-2.2M19.67 16.15h-2.2a.5.5 0 01-.5-.5.5.5 0 01.5-.5h2.2a.5.5 0 01.5.5.5.5 0 01-.5.5z"/>
  </g>
</svg>
