<svg xmlns="http://www.w3.org/2000/svg" viewBox="0 0 24 24">
  <title>outlined-social-addcontact</title>
  <g>
    <g style="opacity: 0">
      <rect width="24" height="24"/>
    </g>
    <g>
      <g style="opacity: 0">
        <g>
          <circle cx="12" cy="12" r="9"/>
          <path d="M12,21.5A9.5,9.5,0,1,1,21.5,12,9.51,9.51,0,0,1,12,21.5Zm0-18A8.5,8.5,0,1,0,20.5,12,8.51,8.51,0,0,0,12,3.5Z"/>
        </g>
      </g>
      <g>
        <path d="M14,12.31a3.41,3.41,0,1,1,3.4-3.41A3.41,3.41,0,0,1,14,12.31ZM14,6.5a2.41,2.41,0,1,0,2.4,2.4A2.41,2.41,0,0,0,14,6.5Z"/>
        <path d="M19.39,17.67a.5.5,0,0,1-.5-.49A4.93,4.93,0,0,0,14,12.33h-.07a4.9,4.9,0,0,0-4.85,4.85.5.5,0,0,1-.5.49h0a.5.5,0,0,1-.49-.5,5.89,5.89,0,0,1,5.83-5.84,6,6,0,0,1,6,5.84.5.5,0,0,1-.49.5Z"/>
        <path d="M6,13.14a.5.5,0,0,1-.5-.5V6.69a.5.5,0,0,1,.5-.5.5.5,0,0,1,.5.5v6A.5.5,0,0,1,6,13.14Z"/>
        <path d="M9,10.19H3a.5.5,0,0,1-.5-.5.5.5,0,0,1,.5-.5H9a.51.51,0,0,1,.5.5A.5.5,0,0,1,9,10.19Z"/>
      </g>
    </g>
  </g>
</svg>
