<svg xmlns="http://www.w3.org/2000/svg" xmlns:xlink="http://www.w3.org/1999/xlink" viewBox="0 0 24 24">
  <defs>
    <clipPath id="a">
      <rect width="24" height="24"/>
    </clipPath>
  </defs>
  <title>outlined-finance-shoppingcartproduct</title>
  <g>
    <g style="opacity: 0">
      <g>
        <rect width="24" height="24"/>
        <g style="clip-path: url(#a)">
          <g>
            <rect width="24" height="24"/>
            <path d="M12,21.5A9.5,9.5,0,1,1,21.5,12,9.51,9.51,0,0,1,12,21.5Zm0-18A8.5,8.5,0,1,0,20.5,12,8.51,8.51,0,0,0,12,3.5Z"/>
          </g>
        </g>
      </g>
    </g>
    <g>
      <path d="M17.71,16.78h-7.3A1.5,1.5,0,0,1,9,15.69L6.58,7.42A.49.49,0,0,1,6.67,7a.47.47,0,0,1,.39-.2H19.73a1.49,1.49,0,0,1,1.5,1.5,1.84,1.84,0,0,1-.05.41l-2,7A1.5,1.5,0,0,1,17.71,16.78Zm-10-9,2.2,7.64a.5.5,0,0,0,.48.36h7.3a.5.5,0,0,0,.48-.36l2-7a.36.36,0,0,0,0-.14.48.48,0,0,0-.5-.5Z"/>
      <path d="M7.06,7.78a.5.5,0,0,1-.48-.37C6.26,6.2,5.46,4.5,4.7,4.5H3a.5.5,0,0,1,0-1H4.7c1.82,0,2.74,3.28,2.84,3.65a.49.49,0,0,1-.35.61Z"/>
      <path d="M11.33,21.49a2,2,0,1,1,2-2A2,2,0,0,1,11.33,21.49Zm0-3a1,1,0,1,0,1,1A1,1,0,0,0,11.33,18.49Z"/>
      <path d="M16.93,21.49a2,2,0,1,1,2-2A2,2,0,0,1,16.93,21.49Zm0-3a1,1,0,1,0,1,1A1,1,0,0,0,16.93,18.49Z"/>
      <g>
        <path d="M13.87,14.08a.5.5,0,0,1-.5-.5v-4a.5.5,0,0,1,.5-.5.5.5,0,0,1,.5.5v4A.51.51,0,0,1,13.87,14.08Z"/>
        <path d="M15.87,12.08h-4a.5.5,0,0,1-.5-.5.5.5,0,0,1,.5-.5h4a.5.5,0,0,1,.5.5A.51.51,0,0,1,15.87,12.08Z"/>
      </g>
    </g>
  </g>
</svg>
