<svg viewBox="0 0 24 24" xmlns="http://www.w3.org/2000/svg">
  <path d="M 10.63 20.12 C 10.317 20.115 10.025 19.963 9.84 19.71 C 9.731 19.554 9.668 19.37 9.66 19.18 L 9.66 13.73 L 4.67 7 C 4.516 6.76 4.473 6.465 4.55 6.19 C 4.623 5.95 4.784 5.747 5 5.62 C 5.137 5.55 5.287 5.509 5.44 5.5 L 18.55 5.5 C 18.81 5.506 19.058 5.614 19.24 5.8 C 19.418 5.984 19.512 6.234 19.5 6.49 C 19.501 6.677 19.441 6.859 19.33 7.01 L 14.5 13.76 L 14.5 17.2 C 14.513 17.544 14.315 17.861 14 18 L 11.17 20 C 11.005 20.09 10.818 20.132 10.63 20.12 Z M 5.51 6.5 L 10.51 13.17 C 10.642 13.322 10.713 13.518 10.71 13.72 L 10.71 19.17 L 13.55 17.17 L 13.55 13.73 C 13.546 13.57 13.592 13.413 13.68 13.28 L 13.74 13.17 L 18.56 6.44 Z M 13.51 17.22 L 13.51 17.22 Z"/>
</svg>
