<svg xmlns="http://www.w3.org/2000/svg" viewBox="0 0 24 24">
  <title>outlined-place-truck</title>
  <g>
    <g style="opacity: 0">
      <g>
        <rect width="24" height="24"/>
        <g>
          <circle cx="12" cy="12" r="9"/>
          <path d="M12,21.5A9.5,9.5,0,1,1,21.5,12,9.51,9.51,0,0,1,12,21.5Zm0-18A8.5,8.5,0,1,0,20.5,12,8.51,8.51,0,0,0,12,3.5Z"/>
        </g>
      </g>
    </g>
    <g>
      <path d="M15,14.61H2.57a.5.5,0,0,1-.5-.5V6A2.41,2.41,0,0,1,4.45,3.59h8.67A2.4,2.4,0,0,1,15.51,6v8.14A.5.5,0,0,1,15,14.61Zm-11.94-1H14.51V6a1.39,1.39,0,0,0-1.4-1.38H4.45A1.41,1.41,0,0,0,3.07,6Z"/>
      <path d="M4.88,18.72H3.42a1.37,1.37,0,0,1-1.35-1.33V13.55a.5.5,0,0,1,.5-.5.5.5,0,0,1,.5.5v3.83a.36.36,0,0,0,.36.34H4.88a.5.5,0,0,1,0,1Z"/>
      <path d="M16.25,18.72h-8a.5.5,0,1,1,0-1h8a.5.5,0,0,1,0,1Z"/>
      <path d="M19.63,18.72a.5.5,0,1,1,0-1h.95a.37.37,0,0,0,.35-.36V11.92a1.16,1.16,0,0,0-.27-.69L17.87,8.44a1,1,0,0,0-.69-.3H15a.5.5,0,0,1-.5-.5.5.5,0,0,1,.5-.5H17.2a2,2,0,0,1,1.38.6l2.81,2.81a2.19,2.19,0,0,1,.54,1.35v5.48a1.37,1.37,0,0,1-1.34,1.34Z"/>
      <path d="M6.57,20.41a2.19,2.19,0,1,1,2.19-2.19A2.19,2.19,0,0,1,6.57,20.41Zm0-3.38a1.19,1.19,0,1,0,1.19,1.19A1.19,1.19,0,0,0,6.57,17Z"/>
      <path d="M17.94,20.41a2.19,2.19,0,1,1,2.19-2.19A2.19,2.19,0,0,1,17.94,20.41Zm0-3.38a1.19,1.19,0,1,0,1.19,1.19A1.19,1.19,0,0,0,17.94,17Z"/>
    </g>
  </g>
</svg>
