<svg viewBox="0 0 24 24" xmlns="http://www.w3.org/2000/svg">
  <path d="M 7.129 20.452 C 6.693 20.448 6.273 20.284 5.949 19.992 C 5.577 19.674 5.35 19.22 5.319 18.732 C 5.314 18.659 5.314 18.585 5.319 18.512 L 6.399 10.302 C 6.563 9.362 7.396 8.688 8.349 8.722 L 9.016 8.722 L 8.679 7.072 C 8.402 6.174 8.737 5.199 9.509 4.662 L 9.599 4.662 L 11.979 3.662 C 12.295 3.511 12.663 3.511 12.979 3.662 C 13.481 3.965 13.825 4.473 13.919 5.052 L 14.74 8.722 L 15.659 8.722 C 16.597 8.683 17.419 9.346 17.579 10.272 L 18.659 18.452 C 18.742 18.896 18.617 19.353 18.319 19.692 C 17.923 20.158 17.341 20.426 16.729 20.422 L 7.129 20.422 Z M 8.299 9.712 C 7.851 9.704 7.462 10.021 7.379 10.462 L 6.309 18.582 C 6.316 18.828 6.425 19.059 6.609 19.222 C 6.773 19.375 6.996 19.449 7.219 19.422 L 16.729 19.422 C 17.042 19.432 17.342 19.295 17.539 19.052 C 17.649 18.938 17.7 18.779 17.679 18.622 L 16.599 10.452 C 16.51 10.016 16.113 9.713 15.669 9.742 L 8.299 9.742 Z M 12.999 5.162 C 12.967 4.886 12.822 4.637 12.599 4.472 C 12.55 4.441 12.488 4.441 12.439 4.472 L 10.089 5.472 C 9.686 5.78 9.518 6.307 9.669 6.792 L 10.074 8.722 L 13.708 8.722 Z"/>
</svg>
