<svg xmlns="http://www.w3.org/2000/svg" viewBox="0 0 24 24">
  <path d="M4.11 17.37c0 .4.2.79.66.79a.56.56 0 00.39-.16l.4-.2a5.11 5.11 0 012.36-.58A8 8 0 0111 18l.46.2a1.42 1.42 0 00.53.13.94.94 0 00.46-.13l.46-.2a8 8 0 013.09-.75 4.79 4.79 0 012.37.59l.39.2a.57.57 0 00.4.13.73.73 0 00.65-.79V6.92a1 1 0 00-.26-.66 4.4 4.4 0 00-.66-.39A6.31 6.31 0 0016 5.15a8.65 8.65 0 00-4 1 10.15 10.15 0 00-4.08-1A6.25 6.25 0 005 5.87a7.16 7.16 0 01-.66.39 1.07 1.07 0 00-.26.66zm8.35-10.32A9.15 9.15 0 0116 6.13a5 5 0 012.37.59 2.7 2.7 0 01.39.27v9.8a5.76 5.76 0 00-2.76-.66 9.91 9.91 0 00-3.48.79V7.05zm-6.9-.26a5 5 0 012.37-.59 8.5 8.5 0 013.55.92V17A10 10 0 008 16.19a5.54 5.54 0 00-2.76.66v-9.8c0-.06.13-.2.33-.26z"/>
</svg>
