<svg xmlns="http://www.w3.org/2000/svg" viewBox="0 0 24 24">
  <path d="M9.73 11.65a3.58 3.58 0 113.58-3.57 3.57 3.57 0 01-3.58 3.57zm0-6.15a2.58 2.58 0 102.58 2.58A2.58 2.58 0 009.73 5.5z"/>
  <path d="M4 17.33a.5.5 0 01-.5-.5 6.21 6.21 0 016.23-6.23A6.21 6.21 0 0116 16.83h-1a5.22 5.22 0 00-5.27-5.23 5.22 5.22 0 00-5.23 5.23.5.5 0 01-.5.5zM16.46 10.5a2.38 2.38 0 112.37-2.37 2.38 2.38 0 01-2.37 2.37zm0-3.75a1.38 1.38 0 101.37 1.38 1.38 1.38 0 00-1.37-1.38z"/>
  <path d="M20 14a.5.5 0 01-.5-.51 3 3 0 00-5.23-2.06.49.49 0 01-.7 0 .5.5 0 010-.71 4 4 0 017 2.74.5.5 0 01-.57.54z"/>
</svg>
